<svg version="1.1" xmlns="http://www.w3.org/2000/svg" xmlns:xlink="http://www.w3.org/1999/xlink" width="347" height="289.9558" viewBox="0,0,347,289.9558"><g transform="translate(-85,-36.54425)"><g data-paper-data="{&quot;isPaintingLayer&quot;:true}" fill-rule="nonzero" stroke-linejoin="miter" stroke-miterlimit="10" stroke-dasharray="" stroke-dashoffset="0" style="mix-blend-mode: normal"><path d="M85,326.50005v-286h347v286z" fill="none" stroke="none" stroke-width="0" stroke-linecap="butt"/><text transform="translate(208.80611,115.77504) rotate(-0.801) scale(0.20352,0.20352)" font-size="40" xml:space="preserve" fill="#000000" fill-rule="nonzero" stroke="none" stroke-width="1" stroke-linecap="butt" stroke-linejoin="miter" stroke-miterlimit="10" stroke-dasharray="" stroke-dashoffset="0" font-family="Sans Serif" font-weight="normal" text-anchor="start" style="mix-blend-mode: normal"><tspan x="0" dy="0">Polargaming64</tspan><tspan x="0" dy="46.150000000000006px"> </tspan><tspan x="0" dy="46.150000000000006px">MeIzAwezomeDede</tspan><tspan x="0" dy="46.150000000000006px"> </tspan><tspan x="0" dy="46.150000000000006px">AwezomeXD</tspan></text><path d="M298.34476,217.30932c0,6.72542 -24.6867,9.63291 -28.58735,9.63291c-3.90065,0 -8.40804,-9.81409 -8.40804,-16.5395c0,-3.84489 0.27058,-15.73687 0.94312,-21.42881c0.50385,-4.26432 9.15747,-4.19835 10.82814,-4.19835c1.50273,0 11.31779,1.56808 15.77683,7.25088c2.01751,2.57122 0.37895,5.52892 0.13608,9.33973c-0.20691,3.24662 1.96479,7.38663 3.32329,9.47183c2.67061,4.0992 5.98794,4.50793 5.98794,6.47132z" fill="#aa96c7" stroke="#000000" stroke-width="3.5" stroke-linecap="butt"/><path d="M289.19195,193.35889l-1.86973,10.84999c0,0 -1.62058,2.04174 -10.25448,-1.70931c-2.8031,-1.21783 -11.43027,-5.72402 -11.43027,-5.72402c0,0 -0.96753,-8.93709 2.64275,-9.86081c0.77536,-0.19838 5.4849,-1.56383 10.379,0.93895c5.17206,2.64492 9.51182,-0.82814 9.51182,-0.82814z" fill="#a7649a" stroke="none" stroke-width="0" stroke-linecap="butt"/><path d="M274.43569,211.61036c0.77074,-0.83873 13.20603,8.69575 14.10085,9.46582c2.85802,2.45959 0.93856,-12.55167 4.13114,-11.87184c3.60562,0.76779 14.45677,13.22556 14.45677,13.22556c0,0 2.43166,11.63642 -0.40487,14.57292c-3.92357,4.06187 -3.47812,7.48443 -4.7695,9.10075c-1.32876,1.66309 -6.16643,6.59239 -9.77131,6.60237c-1.28098,0.00355 -7.79287,-3.10308 -10.61682,-8.56372c-3.09323,-5.98135 -2.79631,-13.83749 -4.56037,-13.16068c-4.44482,1.70532 -13.14337,3.19836 -17.19074,8.26333c-0.39772,0.49771 -0.47549,4.24866 -0.47549,4.24866c0,0 -5.39056,-0.09146 -7.83631,-0.35981c-2.1529,-0.23622 -7.94541,-1.16624 -7.94541,-1.16624c0,0 -3.23813,-5.09125 -6.47425,-7.79214c-2.86626,-2.3922 -9.16349,-7.82549 -9.82447,-7.34982c-1.19551,0.86034 -2.18252,3.69125 -4.87337,6.89002c-2.3366,2.77767 -6.75469,4.62251 -6.75469,4.62251c0,0 -14.17841,-14.04339 -18.8572,-13.59367c-3.92156,0.37693 -6.10702,0.14275 -8.89928,0.57813c-6.51768,1.01626 -10.04743,1.68221 -10.04743,1.68221c0,0 0.50744,-4.40395 1.41912,-6.87344c1.15682,-3.13353 3.59501,-9.26472 4.96321,-10.41456c0.81326,-0.68347 4.59384,1.42056 7.56643,2.38783c3.63376,1.18242 12.65365,4.19175 12.65365,4.19175c0,0 15.17118,-13.62492 22.27266,-13.62492c13.97262,0 26.87914,4.79395 36.13595,9.83449c7.9343,4.3204 3.94582,8.41551 3.94582,8.41551c0,0 5.87278,-7.37061 7.65592,-9.31101z" fill="#0066cc" stroke="#000000" stroke-width="3.5" stroke-linecap="butt"/><path d="M226.07691,226.57971c0,0 -1.94948,2.82066 -4.37451,5.46243c-2.17272,2.3669 -4.81242,4.59019 -5.3735,4.51257c-1.18214,-0.16352 -4.14512,-2.40147 -5.46882,-4.62109c-0.60207,-1.00955 0.33433,-1.69807 -0.17789,-2.74389c-1.73177,-3.53589 -5.77546,-11.31002 -5.77546,-11.31002l7.26375,-8.175c0,0 5.99784,-8.88472 19.01094,-8.70053c13.48636,0.19089 22.13422,9.14715 29.77363,10.89261c2.708,0.61872 5.96341,8.63036 6.31923,9.05483c0.64122,0.76497 -7.10793,7.85916 -21.2619,8.98905c-9.39487,0.74998 -16.77474,-4.01508 -16.77474,-4.01508z" fill="#0f1b82" stroke="none" stroke-width="0" stroke-linecap="butt"/><path d="M227.15702,227.62972l-8.07653,-8.56667c0,0 6.89919,4.40087 8.61861,5.65763c1.70074,1.2431 4.42643,3.70904 4.42643,3.70904z" fill="#000000" stroke="none" stroke-width="0" stroke-linecap="butt"/><path d="M305.10601,229.32971l1.11534,8.53581c0,0 4.51417,-2.64511 -0.89425,3.42378c-4.75177,5.33205 -10.34918,9.94041 -12.17527,9.94041c-0.9092,0 -6.43021,-1.93831 -8.71568,-5.66162c-3.72141,-6.06264 -5.47033,-15.76316 -5.47033,-15.76316c0,0 10.43294,12.09146 14.0501,12.09146c5.84598,0 12.09009,-12.56667 12.09009,-12.56667z" fill="#0f1b82" stroke="none" stroke-width="0" stroke-linecap="butt"/><path d="M216.55809,202.77556c0,0 -1.89982,12.16667 -10,12.16667c-8.10018,0 -26.33133,0.86748 -26.33133,-5.66789c0,-6.53537 19.06449,-20.99877 27.16467,-20.99877c8.10018,0 9.16667,14.5 9.16667,14.5z" fill="#f89587" stroke="#000000" stroke-width="3.5" stroke-linecap="butt"/><path d="M173.87935,213.94062c-0.21311,-0.06162 -4.61719,-6.69377 -7.2172,-12.66995c-2.29986,-5.28626 -2.85819,-10.00879 -2.65737,-9.95073c0.22501,0.06507 0.17658,-5.56591 1.91814,-4.98115c1.33195,0.44721 6.24214,4.64974 7.56325,5.93982c1.21777,1.18917 2.7366,3.19855 3.80056,5.3099c0.84769,1.68209 2.20739,4.76674 2.43796,8.29993c0.26874,4.11805 -0.20267,7.95614 -0.46573,8.42149c-1.65882,2.93458 -4.73892,-0.18408 -5.3796,-0.36934z" fill="#0d1522" stroke="#000000" stroke-width="3" stroke-linecap="butt"/><g stroke-linecap="butt"><path d="M245.39168,258.52549c0,4.87365 -0.76846,7.39012 -6.36337,11.57472c-6.36494,4.76054 -18.77882,-0.37331 -29.83017,3.8003c-40.84486,15.42529 -62.24243,2.98695 -62.24243,2.98695c0,0 -1.57712,-3.7106 -1.57712,-11.02863c0,-5.09699 16.08388,-19.23488 35.97479,-24.78399c1.73483,-0.48398 2.3689,-1.46601 2.3689,-1.46601c0,0 -7.78994,-7.3777 -3.1757,-10.22073c0.41131,-0.25342 -1.02562,-4.30737 2.35283,-5.26108c4.82362,-1.36167 15.30941,0.48101 19.56794,2.14968c6.46362,2.53274 13.10009,13.89488 13.10009,13.89488c0,0 4.68894,-4.51481 6.72334,-6.69058c1.69078,-1.80828 4.64398,-5.46671 4.64398,-5.46671c0,0 7.90326,3.83113 12.35696,10.89554c4.7643,7.55706 6.09999,18.41716 6.09999,19.61568z" fill="#ac1e52" stroke="#000000" stroke-width="3.5"/><path d="M244.34117,261.35884c0,5.72996 -14.13385,16.125 -35.70755,16.125c-21.5737,0 -40.97981,7.10496 -40.97981,1.375c0,-3.33766 -2.2868,-14.22705 7.27144,-20.23299c2.94055,-1.8477 9.21999,-5.91209 15.97752,-9.9499c8.98631,-5.36956 20.12734,-11.94211 20.12734,-11.94211l3.71351,4.83417l-4.02844,3.29598c0,0 4.70261,0.62414 7.4279,0.05969c3.33208,-0.69012 14.16543,-10.66648 17.67114,-7.89004c0.29856,0.23645 2.40731,2.05113 4.23378,6.5471c2.65706,6.54053 4.29318,17.27286 4.29318,17.77811z" fill="#730e67" stroke="none" stroke-width="0"/><path d="M246.3264,275.40053c-2.79036,1.67171 -13.78029,3.85228 -23.31221,4.36762c-5.10252,0.27587 -11.62585,-0.9001 -19.32116,-0.29893c-6.7176,0.52479 -10.90903,8.82215 -38.74973,9.41051c-20.05969,0.42392 -23.91339,-9.64672 -24.63233,-12.06252c-0.21161,-0.71105 -1.64957,-2.8705 -0.40008,-5.58458c1.27395,-2.76719 3.75861,-4.78276 3.75861,-4.78276c0,0 0.54721,4.14715 2.66494,5.25483c4.36901,2.28523 22.6901,4.6902 32.81062,4.69419c10.18028,0.00401 24.51595,-9.66503 30.44715,-9.91503c8.04974,-0.33929 18.8452,0.73355 26.06143,-1.31062c2.78937,-0.79016 5.36009,-2.20452 7.43081,-3.6069c3.03561,-2.05585 4.99665,-4.08594 4.99665,-4.08594c0,0 6.21599,5.65781 5.40259,9.37345c-0.97142,4.43748 -5.35739,7.46837 -7.15727,8.54667z" fill="#ab9ef8" stroke="#000000" stroke-width="4.5"/><path d="M252.61417,267.40049c0,0 -3.52161,4.50549 -8.61458,8.15449c-0.94964,0.68039 -11.35266,2.04987 -21.79467,2.21581c-9.52839,0.15143 -19.08921,-0.9224 -21.5293,0.0333c-8.51967,3.33686 -7.5044,6.31703 -20.84149,7.61932c-6.14285,0.59981 -11.67841,1.31055 -11.67841,1.31055c0,0 -2.08499,-3.48381 -2.65301,-5.24426c-0.4473,-1.38628 -0.9596,-3.2172 -0.9596,-3.2172c0,0 12.78562,-0.53873 17.87167,-0.53873c4.54321,0 17.72502,-8.13765 25.56623,-10.01482c7.44383,-1.78204 16.95263,-0.41974 23.46523,-0.83825c5.03093,-0.3233 4.17056,-0.64996 6.88176,-1.15663c1.60638,-0.30021 9.76149,-6.47271 9.76149,-6.47271z" fill="#9464eb" stroke="none" stroke-width="0"/><path d="M215.68689,238.85887c0,0.29172 3.32132,-0.39877 3.32132,-0.39877c0,0 -1.8821,5.689 -3.47229,6.80511c-2.43405,1.70839 -10.39355,1.39366 -10.39355,1.39366c0,0 4.33857,-1.67928 6.81731,-3.65361c2.59896,-2.07011 3.72721,-4.82483 3.72721,-4.14639z" fill="#000000" stroke="none" stroke-width="0"/><path d="M235.47381,237.69775c0.39585,1.21559 -0.26163,2.54773 -1.46849,2.97543c-1.20688,0.42769 -2.50612,-0.21103 -2.90198,-1.42661c-0.39585,-1.21559 0.26163,-2.54773 1.46849,-2.97543c1.20688,-0.42769 2.50612,0.21103 2.90197,1.42661z" fill="#000000" stroke="none" stroke-width="0"/><path d="M237.21698,244.42099c0,1.25621 -1.00986,2.27458 -2.25558,2.27458c-1.24572,0 -2.25557,-1.01837 -2.25557,-2.27458c0,-1.25621 1.00986,-2.27457 2.25557,-2.27457c1.24572,0 2.25558,1.01836 2.25558,2.27457z" fill="#000000" stroke="none" stroke-width="0"/><path d="M203.43561,248.72978c0,1.013 -0.48045,3.90774 -2.08252,5.19963c-1.13958,0.91894 -4.43616,-0.13342 -4.72885,-0.35941c-1.84558,-1.42492 -3.3698,-3.71057 -5.30399,-4.88673c-4.55125,-2.76758 -9.20614,-1.47965 -9.20614,-6.11856c0,-3.03655 4.47977,-2.24898 10.30141,-2.24898c5.82162,0 11.0201,5.3775 11.0201,8.41405z" fill="#ab9ef8" stroke="#000000" stroke-width="3"/><path d="M202.0295,249.64821c0,1.84034 -0.37517,3.58216 -2.31572,3.58216c-1.94054,0 -5.90955,-4.33197 -5.90955,-4.33197c0,0 3.01065,-4.58191 4.9512,-4.58191c1.94054,0 3.27407,3.49139 3.27407,5.33172z" fill="#9464eb" stroke="none" stroke-width="0"/><path d="M192.52614,257.77118c0,1.4972 -0.56152,2.1047 -1.01115,2.58024c-0.4002,0.42325 -0.56239,0.79391 -2.46289,0.79391c-1.91351,0 -4.05455,-4.68131 -7.79303,-8.06633c-4.14635,-3.75431 -9.5771,-6.81651 -9.5771,-8.30457c0,-1.64327 1.26487,-2.51585 3.11589,-2.9587c0.71518,-0.1711 6.59736,2.7428 11.24359,6.85218c4.03648,3.57008 6.48468,7.78775 6.48468,9.10327z" fill="#ab9ef8" stroke="#000000" stroke-width="3"/><path d="M191.32819,257.64621c0,1.38036 -0.46117,2.24944 -1.9167,2.24944c-1.45553,0 -5.03135,-4.99875 -5.03135,-4.99875c0,0 1.31494,-1.91424 1.93514,-2.34556c0.57419,-0.39933 1.65869,-0.15381 1.65869,-0.15381c0,0 3.35423,3.86832 3.35423,5.24868z" fill="#9464eb" stroke="none" stroke-width="0"/><path d="M183.58786,262.47542c0,1.07477 -2.02097,4.33188 -3.8331,2.99899c-1.94243,-1.42872 -4.0615,-6.07406 -7.69316,-9.22955c-4.99435,-4.33949 -9.50938,-6.67979 -9.35072,-8.11179c0.23402,-2.1122 1.99595,-2.35461 2.98702,-3.28322c1.02481,-0.96021 5.74989,2.37402 10.43987,7.40062c3.52678,3.77989 7.45011,7.61827 7.45011,10.22495z" fill="#ab9ef8" stroke="#000000" stroke-width="3"/><path d="M182.38592,261.97972c0,1.38036 -0.39757,2.24944 -1.65236,2.24944c-1.25479,0 -4.33742,-4.99875 -4.33742,-4.99875c0,0 0.81416,-1.58102 1.34882,-2.01234c0.495,-0.39933 1.11049,-0.48703 1.11049,-0.48703c0,0 3.53046,3.86832 3.53046,5.24868z" fill="#9464eb" stroke="none" stroke-width="0"/></g><path d="M236.46155,197.6089c0,5.33875 -33.36073,8.66667 -38.00437,8.66667c-4.64363,0 -7.39908,-1.99458 -7.39908,-7.33333c0,-5.33875 2.25096,-13 6.89459,-13c0.79641,0 9.04021,-5.16714 15.28344,-7.38785c7.38508,-2.62687 12.97792,-16.32871 14.53539,-15.60722c4.80299,2.22494 8.69003,31.32168 8.69003,34.66174z" fill="#9464eb" stroke="#000000" stroke-width="3.5" stroke-linecap="butt"/><path d="M215.79443,218.11492c-11.31781,-3.05849 -16.49645,-9.25602 -16.49645,-9.25602c0,0 7.07262,-18.68256 19.88921,-25.33343c8.32879,-11.08301 -3.99315,-25.95456 7.80947,-25.83323c1.20121,0.01235 65.57887,-11.85478 75.09077,-13.73972c7.71282,-1.52842 -16.86977,7.4246 -12.39298,13.75437c0.42057,0.59464 -14.09586,9.42843 -10.14641,13.60939c6.55642,6.94074 13.16356,20.13293 12.93978,21.29808c-0.59076,3.07583 -0.99249,4.76705 -6.1336,4.21891c-6.45068,-0.68778 -18.49404,-8.65767 -18.49404,-8.65767c0,0 -1.61109,0.06754 -1.91564,8.1829c-0.20036,5.33889 0.74175,14.55602 3.43159,18.14958c0.33221,0.44383 -11.19953,5.9465 -24.33516,7.00218c-12.09105,0.97173 -25.69376,-2.43525 -29.24654,-3.39534z" fill="#ab9ef8" stroke="#000000" stroke-width="3.5" stroke-linecap="butt"/><path d="M276.43883,164.80476c0,0 -17.39441,9.77945 -27.8209,12.89007c-7.65974,2.28519 -28.70186,4.06843 -28.70186,4.06843c0,0 3.69916,-14.8452 7.79982,-17.35303c3.89829,-2.38407 52.40057,-19.24212 52.40057,-19.24212c0,0 1.0835,17.49563 1.94578,18.681c0.93266,1.28212 -5.62341,0.95567 -5.62341,0.95567z" fill="#9464eb" stroke="none" stroke-width="0" stroke-linecap="butt"/><path d="M265.67208,187.89095c0,0 -0.58093,6.55498 -1.23369,8.44824c-0.75922,2.20201 0.4732,9.39471 0.4732,9.39471c0,0 -5.14938,-11.84112 -5.80956,-15.93503c-0.28714,-1.78057 -38.33357,-4.94075 -38.33357,-4.94075c0,0 3.01443,-4.3656 3.02252,-6.25347c0.00946,-2.2076 -2.63587,-6.18364 -2.63587,-6.18364l34.65556,0.85456l9.91979,-16.09839c0,0 9.9971,-2.0863 11.77567,-0.06052c0.66749,0.76027 4.27006,2.8581 4.18677,5.46154c-0.09033,2.82377 -3.8699,6.24235 -3.09636,9.19419c0.9185,3.50507 5.56008,6.55817 5.56008,6.55817z" fill="#9464eb" stroke="none" stroke-width="0" stroke-linecap="butt"/><path d="M234.60857,213.15056c-6.94382,2.17004 -16.69616,-3.92242 -16.69616,-8.58334c0,-4.37262 5.43317,-11.23267 12.33212,-12.85967c3.76623,-0.88819 15.87913,-4.40606 21.13764,0.21768c2.97851,2.61897 1.70749,16.55865 -11.09199,20.55865z" fill="none" stroke="#ac1e52" stroke-width="4.5" stroke-linecap="butt"/><path d="M239.92563,211.9839l-8.70548,-20.5" fill="none" stroke="#ac1e52" stroke-width="4.5" stroke-linecap="round"/><path d="M269.33699,187.69223l-4.11994,2.125l-9.58517,-10.375z" fill="#000000" stroke="none" stroke-width="0" stroke-linecap="butt"/><path d="M328.26152,177.19004c-3.51437,-0.32636 -0.98958,0.53136 -10.30041,-5.91012c-4.30582,-2.97889 -9.32129,-10.27623 -11.49439,-14.44633c-2.52599,-4.84725 -3.32587,-6.02227 -1.4679,-8.7079c3.4564,-4.99606 13.08045,0.74016 22.39126,7.18165c5.58582,3.86442 10.55686,7.82623 11.43168,10.051c0.74549,1.89592 -1.93414,5.95501 -3.90831,8.04262c-1.98145,2.0953 -3.13753,4.1154 -6.6519,3.78905z" fill="#0066cc" stroke="#000000" stroke-width="5" stroke-linecap="butt"/><path d="M332.26087,173.84798c0,0 -2.31636,2.91778 -4.79706,2.10144c-1.31455,-0.43258 -8.92387,-5.01365 -12.77658,-10.15969c-2.96863,-3.9652 -6.58001,-8.19555 -7.70992,-11.29975c-0.7319,-2.0107 0.5007,-3.83753 0.5007,-3.83753c0,0 8.18407,8.46715 12.26829,12.51908c3.97916,3.94767 12.51457,10.67645 12.51457,10.67645z" fill="#0f1980" stroke="none" stroke-width="0" stroke-linecap="butt"/><path d="M176.44273,161.00905c4.59799,-1.83985 8.90523,-2.30048 8.90523,-2.30048c0,0 -2.44739,-8.30961 -3.40656,-12.085c-1.0094,-3.9732 -2.79645,-11.87767 -2.79645,-11.87767c0,0 26.78731,-16.71723 53.77994,-16.14968c25.08197,0.52736 50.83915,20.37229 53.36871,24.51694c0.22624,0.3707 0.69101,6.69352 -0.84005,11.74846c-1.13836,3.75842 -3.34156,6.22095 -7.77071,8.17492c-7.57863,3.3434 -13.6818,8.76603 -22.63644,11.68957c-7.86532,2.5679 -52.64647,7.80011 -65.7845,5.20206c-12.06001,-2.38486 -22.3094,-7.48429 -22.02147,-11.93792c0,0 4.1497,-4.95945 9.20229,-6.98121z" fill="#aa96c7" stroke="#000000" stroke-width="3.5" stroke-linecap="butt"/><path d="M284.86461,144.02852c0,0 1.49912,8.23364 -1.96947,12.86965c-3.32731,4.44719 -12.16336,7.4412 -12.16336,7.4412l-4.68694,-5.84127l-9.01315,10.43599l-14.59927,-23.62008l-19.78079,12.91813l-4.70571,-19.0184l-33.1061,12.72735l-4.5149,-15.83977c0,0 67.75048,-15.16088 74.27223,-14.73927c6.52177,0.42161 30.26746,22.6665 30.26746,22.6665z" fill="#a7649a" stroke="none" stroke-width="0" stroke-linecap="butt"/><path d="M286.37278,145.36353c-6.91255,-1.13611 -33.20831,-6.68016 -43.04175,-13.40022c-18.96879,-12.96307 -31.26013,-16.74058 -41.61693,-17.41011c-19.65714,-1.27075 -18.35192,9.23345 -17.75218,-0.04397c0.1396,-2.15973 -13.89686,-36.16115 -7.79249,-44.51833c11.49691,-12.49868 28.26899,-14.92164 62.65778,-12.82967c14.48888,0.88141 35.11516,16.87619 36.77468,17.71124c15.40075,7.7495 38.36892,27.69299 39.50956,46.60634c0,0 0.8695,13.59914 -1.14088,16.46958c-2.16625,3.093 -15.62488,-3.35213 -19.09932,-0.44695c-3.78122,3.16171 -6.67223,8.16223 -8.49847,7.86208z" fill="#ac1e52" stroke="#000000" stroke-width="5" stroke-linecap="butt"/><path d="M224.16325,137.86721c-0.36464,-2.48493 -0.45334,-7.57967 -0.45334,-7.57967c0,0 -13.69348,3.08877 -20.52619,5.1796c-6.99657,2.14097 -22.34692,8.09861 -22.34692,8.09861l1.13803,4.98263c0,0 -9.07928,2.25853 -13.83313,4.10852c-5.55568,2.16203 -14.23761,9.63751 -17.49294,6.57417c-3.38234,-3.18286 2.43424,-8.79093 5.1086,-13.6399c2.65006,-4.8049 11.34431,-16.82971 11.34431,-16.82971c0,0 -2.65524,-1.97286 -4.76821,-2.10947c-10.83896,-0.70071 -20.74973,-0.76735 -21.48446,-4.91235c-1.50621,-8.4973 27.81054,-35.14276 38.64953,-34.44205c1.42616,0.09219 10.14274,-1.74396 17.477,2.21104c7.76443,4.18694 13.73583,14.27321 13.73583,14.27321c0,0 0.06036,-7.42496 3.36062,-15.28793c2.73707,-6.5211 17.56586,-12.75905 17.56586,-12.75905c0,0 -1.32162,17.97344 1.86728,26.64729c3.37048,9.1678 6.08463,28.14524 6.08463,28.14524c0,0 -6.18444,5.90235 -8.58073,8.42955c-1.71262,1.80617 -5.33278,3.60553 -5.33278,3.60553c0,0 -1.16407,-2.31741 -1.51301,-4.69526z" fill="#44acff" stroke="#000000" stroke-width="3.5" stroke-linecap="butt"/><path d="M217.88873,99.51128c1.13944,-6.3058 12.14419,-19.34116 12.14419,-19.34116c0,0 -1.31575,15.38867 1.73735,23.35091c3.38479,8.82736 6.11684,26.63556 6.11684,26.63556c0,0 -3.85889,3.26532 -5.66027,5.2599c-1.824,2.01964 -5.41629,6.77082 -5.41629,6.77082c0,0 -0.91879,-3.83415 -1.2239,-6.074c-0.33883,-2.48752 -0.53508,-7.92381 -0.53508,-7.92381c0,0 -17.00487,3.96617 -24.81885,6.49994c-6.76358,2.19315 -19.64386,6.89259 -19.64386,6.89259l-0.75226,5.54514c0,0 -5.41617,1.262 -8.45387,2.3344c-3.51278,1.24013 -11.40537,4.67658 -11.40537,4.67658l19.89946,-29.4783l-24.59923,-6.7402l30.82317,-18.3291l36.31221,17.88668c0,0 -5.47317,-12.7144 -4.52423,-17.96594z" fill="#356fee" stroke="none" stroke-width="0" stroke-linecap="butt"/><path d="M286.16074,146.52593l-0.30047,18.96889c0,0 -10.87104,-8.66005 -14.74119,-12.08932c-2.76706,-2.45187 -7.61713,-6.33958 -7.61713,-6.33958l-6.41953,10.53903c0,0 -5.82524,-11.04516 -8.48199,-15.57726c-2.32109,-3.95952 -6.58793,-10.13029 -6.58793,-10.13029z" fill="#44acff" stroke="#000000" stroke-width="3" stroke-linecap="butt"/><path d="M284.59935,147.42705l-0.63878,14.91456l-20.55362,-16.9063l-5.94013,8.56933l0.24109,-12.76512l-8.92116,-1.87186l-3.19332,-4.73359c0,0 14.0581,4.36941 20.17932,6.35904c6.06478,1.97129 18.82663,6.43396 18.82663,6.43396z" fill="#356fee" stroke="none" stroke-width="0" stroke-linecap="butt"/><path d="M296.46628,140.98756c-3.37326,4.04605 -9.65843,3.8975 -9.65843,3.8975c0,0 -8.9574,-3.27652 -13.74115,-4.7546c-5.20273,-1.60752 -18.43238,-5.50614 -18.43238,-5.50614c0,0 0.58241,-5.43717 1.54084,-12.54209c2.56569,-19.01998 9.3678,-46.80884 18.73708,-46.20317c1.04132,0.06732 1.86833,-0.40237 1.86833,-0.40237c0,0 10.86459,3.59816 20.21317,14.9455c9.13286,11.08551 17.157,22.88065 17.14335,26.13684c-0.00059,0.14097 0.5894,19.60962 0.40576,20.01467c0,0 -6.86828,2.4862 -10.04941,6.30181z" fill="#730e67" stroke="#000000" stroke-width="2.5" stroke-linecap="butt"/><path d="M306.43518,159.68019c-2.65703,6.87048 -5.44383,14.0906 -8.38521,13.90045c-5.36192,-0.34662 -11.50763,-13.70794 -11.50763,-13.70794l0.5372,-13.47518c0,0 22.1449,-11.05088 25.14324,-6.66779c0,0 -1.62983,9.19935 -5.78761,19.95044z" fill="#aa96c7" stroke="#000000" stroke-width="4.5" stroke-linecap="butt"/><path d="M297.02242,155.13743l6.75311,3.23302c0,0 -0.62337,2.86289 -1.33746,4.29897c-0.67394,1.3553 -2.50191,8.99923 -4.35014,8.51289c-1.84825,-0.48635 -10.25806,-9.34375 -10.0623,-12.37192c0.05167,-0.79897 0.25379,-2.83626 0.26026,-4.48619c0.00908,-2.32073 1.16876,-6.09607 1.16876,-6.09607c0,0 7.87778,-4.94987 9.005,-3.92073c1.35368,1.2359 -1.43723,10.83004 -1.43723,10.83004z" fill="#a7649a" stroke="none" stroke-width="0" stroke-linecap="butt"/><path d="M296.68641,161.5349c-0.642,0.39706 -5.83578,-8.09576 -5.84409,-9.08571c-0.01034,-1.23161 8.17132,-6.69123 8.88454,-5.80747c0.81508,1.00993 -1.56794,14.1337 -2.71127,14.8408z" fill="none" stroke="#000000" stroke-width="2" stroke-linecap="butt"/><path d="M343.04182,275.65506c0,6.90125 -29.63979,21.24365 -46.35731,21.24365c-9.9248,0 -27.0128,2.42813 -38.21946,-4.16472c-2.68492,-1.57953 -6.74434,-9.80222 -8.31622,-11.65006c-2.91855,-3.43092 1.44225,-14.4734 1.895,-15.73299c1.65013,-4.59075 -1.56548,-8.3782 -2.90681,-9.53053c-1.99155,-1.71093 -9.55065,-0.64137 -13.39531,-0.15334c-1.61964,0.20559 -2.3275,-3.07379 -1.79345,-5.53222c0.62759,-2.88907 3.00997,-6.10631 3.63182,-6.43315c0.43558,-0.22893 2.89507,-2.78455 7.5117,-2.77478c3.80409,0.00806 9.91855,3.97344 12.87026,3.39243c1.58832,-0.31265 -0.31438,-4.82253 2.08009,-6.57629c4.58587,-3.35879 6.78429,-5.39057 10.99628,-6.50668c3.22365,-0.85422 5.57873,-0.83874 5.71205,-0.24438c0.23524,1.04869 0.16803,7.10317 2.90453,12.05406c2.54615,4.6065 9.42509,7.77625 9.8099,7.83028c2.84547,0.39955 1.09472,0.25385 3.96446,-0.1576c2.25201,-0.32288 7.98129,-10.22071 12.30435,-16.02235c3.76193,-5.0486 8.83378,-8.54985 10.33672,-8.59893c2.23318,-0.07293 12.34297,5.55332 10.67459,9.51305c-0.34662,0.82263 -11.10123,9.40329 -10.71006,9.50671c8.79848,2.32617 17.72477,8.6345 22.88782,15.85533c3.67425,5.13866 4.11902,12.19788 4.11902,14.68251z" fill="#ac1e52" stroke="#000000" stroke-width="3.5" stroke-linecap="butt"/><path d="M339.02281,274.23071c0,5.24539 -34.83018,20.49487 -54.74959,20.49487c-19.91941,0 -30.61824,-9.9975 -30.61824,-9.9975c0,0 16.66691,-20.74473 36.5863,-20.74473c4.7859,0 18.55962,-4.92835 27.4999,-3.55514c5.04505,0.77491 9.23513,9.21236 9.23513,9.21236c0,0 2.39361,-2.18897 3.17677,-4.3198c0.95426,-2.59632 1.8781,-9.88945 1.8781,-9.88945c0,0 2.18577,1.96864 3.43271,2.27389c6.04876,1.48071 3.55891,14.53741 3.55891,16.5255z" fill="#730e67" stroke="none" stroke-width="0" stroke-linecap="butt"/><path d="M283.23228,248.1977l-9.16742,1.33289c0,0 0.82295,-4.88527 0.90941,-7.00905c0.12768,-3.13624 -0.14188,-9.98505 -0.14188,-9.98505c0,0 2.42602,6.79848 3.58474,10.90897c0.9881,3.50521 4.81514,4.75225 4.81514,4.75225z" fill="#ab164a" stroke="none" stroke-width="0" stroke-linecap="butt"/><path d="M322.70727,231.03709c0,0 3.02938,3.13363 1.46993,5.51472c-2.03927,3.11375 -9.324,6.84212 -11.32921,7.98078c-0.51477,0.29231 -1.92031,0.51003 -3.21496,1.15471c-3.00646,1.49713 -6.58848,5.49916 -8.24955,5.94249c-3.33142,0.88914 -1.50825,-3.26515 -1.50825,-3.26515c0,0 4.2173,-7.05362 9.99456,-11.67581c5.45664,-4.36566 12.83749,-5.65175 12.83749,-5.65175z" fill="#ab164a" stroke="none" stroke-width="0" stroke-linecap="butt"/><path d="M270.08656,256.69486l-2.76752,0.83306l-8.64851,-13.4955l0.69189,-3.83205z" fill="#000000" stroke="none" stroke-width="0" stroke-linecap="butt"/><path d="M290.15108,263.69252c0,2.48445 -29.05897,-0.51454 -29.05897,-3.99867c0,-1.25098 5.13582,-5.91216 10.57896,-8.90865c5.36696,-2.95455 11.0423,-4.25362 11.0423,-4.25362l4.43096,5.28695c0,0 2.66209,1.54527 4.04943,1.48954c1.2474,-0.05012 3.20756,-0.80921 3.20756,-0.80921c0,0 2.12687,-3.74668 5.60244,-4.78334c3.17197,-0.9461 9.14006,3.0873 8.4562,4.13187c-1.38291,2.11234 -18.30887,11.58477 -18.30887,11.84514z" fill="#ab9ef8" stroke="#000000" stroke-width="2.5" stroke-linecap="butt"/><path d="M285.9998,253.86247c0,0.88438 3.05599,-0.36437 9.34546,-0.24153c2.481,0.04845 0.7778,-4.83163 6.33629,-4.96823c5.49378,-0.13501 6.20098,6.83029 6.11418,7.20946c-0.50053,2.18656 -16.54012,7.66375 -17.81762,7.66375c-2.57927,0 -13.31871,-13.66211 -13.31871,-13.66211l5.36208,-2.33255c0,0 3.97832,3.38669 3.97832,6.33122z" fill="#9464eb" stroke="none" stroke-width="0" stroke-linecap="butt"/><path d="M314.8033,257.41499c-3.66018,2.06802 -14.33077,3.35447 -23.52342,3.71069c-9.06482,0.35126 -19.3535,4.60812 -24.38502,4.97682c-2.06797,0.15154 -2.68021,-0.54022 -2.83177,-1.75448c-0.3535,-2.83213 12.10203,-8.6395 26.19174,-11.18642c6.26505,-1.1325 15.12487,-1.04275 19.86328,0.19548c4.77708,1.24835 5.40438,3.65157 4.6852,4.05791z" fill="#ab9ef8" stroke="#000000" stroke-width="2.5" stroke-linecap="butt"/><path d="M321.03663,263.07482c-3.88487,2.01797 -15.5448,1.85485 -25.21199,2.39938c-10.26623,0.57828 -21.17109,6.36933 -26.47325,6.66948c-2.17921,0.12336 -2.49554,-2.24244 -2.63633,-3.45864c-0.32836,-2.83665 11.5192,-6.12472 26.3902,-8.47955c6.61244,-1.04708 17.37474,-2.20413 22.34352,-0.90149c5.00934,1.31327 6.35119,3.37431 5.58786,3.77081z" fill="#ab9ef8" stroke="#000000" stroke-width="2.5" stroke-linecap="butt"/><path d="M257.63271,251.69653c0,0 -3.4712,2.54372 -6.87569,3.08434c-1.51534,0.24063 -3.01746,-1.25162 -4.19439,-1.25162c-3.82115,0 -6.46003,1.93219 -10.37821,0.49983c-2.33863,-0.85492 0,-5.49816 0,-5.49816c0,0 5.3895,-0.75898 7.93612,-0.6285c2.84086,0.14556 13.51216,3.79411 13.51216,3.79411z" fill="#ab164a" stroke="none" stroke-width="0" stroke-linecap="butt"/><path d="M300.18334,254.02908l-3.30847,4.50323l-8.62647,1.32816l-5.01614,-3.83206c0,0 5.61922,-2.10713 9.30299,-2.49523c3.69623,-0.38942 7.64807,0.49589 7.64807,0.49589z" fill="#9464eb" stroke="none" stroke-width="0" stroke-linecap="butt"/><path d="M247.60045,254.0291c0,0.70149 7.3042,-0.08349 5.64345,0.28576c-1.60696,0.35728 -1.78049,3.54629 -3.04889,3.54629c-1.07864,0 -1.5692,-1.48672 -4.19017,-2.15442c-3.64641,-0.92892 -9.47446,-1.20782 -9.47446,-2.01086c0,-1.38025 3.47468,-3.49883 6.05396,-3.49883c2.57927,0 5.01613,2.45181 5.01613,3.83206z" fill="#000000" stroke="none" stroke-width="0" stroke-linecap="butt"/><path d="M325.09103,235.86849c0,0.84587 -4.50851,5.43105 -5.81721,8.44163c-0.93902,2.16017 0.93083,4.03481 0.93083,4.03481l-10.52485,-3.06493c0,0 0.74052,-1.48177 3.54731,-2.33931c2.23975,-0.68429 3.56134,-1.39545 3.56134,-1.74066c0,-0.90533 -0.06916,-4.00494 1.76667,-5.13204c2.26918,-1.39316 6.53589,-1.31855 6.53589,-0.19951z" fill="#000000" stroke="none" stroke-width="0" stroke-linecap="butt"/><path d="M343.98441,275.64748c0,5.93558 -9.00188,17.57851 -35.0605,23.32707c-16.06829,3.54469 -35.40141,2.56163 -44.89477,-0.4261c-18.97203,-5.97085 -17.00904,-19.48856 -17.00904,-21.5684c0,-2.1552 4.56552,-6.57957 4.56552,-6.57957c0,0 2.32558,12.24802 6.82185,14.5378c9.85942,5.02101 29.55731,4.28872 40.63159,4.28872c9.90175,0 28.14117,-6.25507 35.71784,-15.98895c3.38747,-4.35195 -1.52829,-17.08179 -1.52829,-17.08179c0,0 1.61131,-0.21017 3.41558,0.01477c8.19323,1.02148 7.01283,14.40733 7.01283,16.14312z" fill="#ab9ef8" stroke="#000000" stroke-width="4" stroke-linecap="butt"/><path d="M341.18582,262.98357c0,0 3.73517,12.11569 1.18058,15.88786c-1.56689,2.31369 -8.74974,8.67081 -18.19694,13.20631c-7.92196,3.80325 -18.27009,6.52871 -22.28848,6.89682c-24.55532,2.24944 -39.29224,-2.74931 -39.29224,-2.74931c0,0 20.39975,5.84006 51.04488,-3.8391c7.02328,-2.21828 15.94641,-5.86496 22.01855,-11.7421c5.32516,-5.15415 5.20627,-17.66048 5.20627,-17.66048z" fill="#9464eb" stroke="none" stroke-width="0" stroke-linecap="butt"/><path d="M243.6568,156.69505c0.04825,3.45144 -2.93441,6.29164 -6.66197,6.34375c-3.72756,0.05212 -6.78846,-2.70358 -6.83671,-6.15503c-0.04825,-3.45144 1.93451,-6.27766 5.66207,-6.32977c3.72756,-0.05212 7.78836,2.6896 7.83662,6.14105z" fill="#000000" stroke="none" stroke-width="0" stroke-linecap="butt"/><path d="M210.13743,155.54316c0.04146,2.96568 -3.17055,5.41522 -7.17422,5.4712c-4.00367,0.05598 -7.2829,-2.30281 -7.32437,-5.26849c-0.04146,-2.96568 4.22199,-7.04119 8.22566,-7.09717c4.00367,-0.05598 6.23146,3.92878 6.27293,6.89446z" fill="#000000" stroke="none" stroke-width="0" stroke-linecap="butt"/><path d="M257.88547,170.23407c0.18465,1.77468 -13.82752,2.83071 -28.17445,4.32341c-14.34693,1.4927 -27.26861,3.93497 -27.45325,2.16029c-0.18465,-1.77468 12.45164,-6.09439 26.79857,-7.58709c14.34693,-1.4927 28.64447,-0.6713 28.82912,1.10339z" fill="#ac1e52" stroke="#000000" stroke-width="3" stroke-linecap="butt"/><path d="M265.69712,52.12671l3.27563,55.45963" fill="none" stroke="#000000" stroke-width="2" stroke-linecap="round"/><path d="M275.12594,118.50139l-3.63211,-80.95714" fill="none" stroke="#000000" stroke-width="2" stroke-linecap="round"/><path d="M281.69521,123.41003l-0.18138,-84.50572" fill="none" stroke="#000000" stroke-width="2" stroke-linecap="round"/><path d="M290.19438,123.2912l-1.69521,-85.48466" fill="none" stroke="#000000" stroke-width="2" stroke-linecap="round"/><path d="M297.11681,117.69388l-2.26874,-54.97366" fill="none" stroke="#000000" stroke-width="2" stroke-linecap="round"/><path d="M302.50111,73.61431l0.57317,40.99599" fill="none" stroke="#000000" stroke-width="2" stroke-linecap="round"/><path d="M307.25231,91.54963l0.3425,24.49761" fill="none" stroke="#000000" stroke-width="2" stroke-linecap="round"/><g><path d="M179.6845,241.02641c0,0 0.17,8.87733 -4.36996,9.5815c-0.46908,0.07276 -16.23962,0.33943 -15.04467,-9.87002c0.25889,-2.21195 1.43641,-9.50009 4.37881,-11.38078c5.75622,-3.67914 5.34498,-7.89149 5.30276,-8.23705c-0.55838,-4.56836 -2.82573,-11.78074 0.28075,-12.16044c1.59342,-0.19475 6.66209,3.45223 12.75367,8.87985c1.69366,1.50906 3.77263,3.76359 5.27626,5.25773c0.44224,0.43947 1.93972,1.40387 2.34361,1.81254c2.91279,2.94703 4.78216,5.09447 4.95107,6.47644c0.33293,2.7238 -4.32209,5.70515 -9.34181,7.07188c-3.39939,0.92556 -5.66462,1.45015 -5.66462,1.45015z" fill="#a7649a" stroke="#000000" stroke-width="3" stroke-linecap="butt"/><path d="M131.81466,246.46526c-6.99285,0.07668 -11.06435,-6.14006 -11.14001,-13.04091c-0.07566,-6.90084 31.94317,-35.17409 38.93603,-35.25077c6.99285,-0.07668 14.10332,9.77241 14.17901,16.67323c0.07566,6.90084 -34.98217,31.54176 -41.97502,31.61845z" fill="#314099" stroke="#000000" stroke-width="2.5" stroke-linecap="butt"/><path d="M125.06261,237.34725c-0.69505,0.2425 -1.55338,-0.4061 -1.91709,-1.44868c-0.36375,-1.04258 -0.09516,-2.08433 0.59989,-2.32681c0.69505,-0.2425 1.55338,0.4061 1.91709,1.44868c0.36375,1.04258 0.09515,2.08433 -0.59989,2.32681z" fill="#314099" stroke="none" stroke-width="0" stroke-linecap="butt"/><path d="M149.40906,248.02026c-4.39317,1.595 -11.75061,-2.93627 -15.74592,-4.20434c-5.61381,-1.78174 -11.1257,-20.41213 -10.40704,-21.89471c1.53342,-3.1635 7.96713,-7.29481 7.96713,-7.29481c0,0 4.03871,-5.00923 4.98704,-6.43023c0.50297,-0.75365 0.91855,-5.62685 3.55376,-8.07395c2.63519,-2.44709 5.9853,0.29296 7.62646,-2.30817c0.34529,-0.54725 2.17563,-5.41232 2.51854,-5.87131c3.31133,-4.43233 2.2721,-8.34941 7.71131,-9.01421c4.72477,-0.57749 14.45737,6.50844 19.22903,11.34095c7.27008,7.36281 6.43447,12.13941 7.48627,20.7447c0.37406,3.06048 0.03431,8.75581 -3.81582,11.48355c-1.80362,1.27783 -4.86376,0.59121 -6.4549,0.87459c-3.48959,0.62143 -5.50306,4.0873 -5.50306,4.0873c0,0 -3.23634,2.19421 -4.45027,4.54126c-1.28153,2.47783 -4.50804,2.66618 -7.34982,3.01352c0,0 -0.77168,6.3267 -7.35268,9.00584z" fill="#aa96c7" stroke="#000000" stroke-width="2.5" stroke-linecap="butt"/><path d="M181.15502,224.42476c0.46206,2.48148 -12.83319,3.7678 -12.83319,3.7678c0,0 -1.87959,5.0017 -6.75952,8.81602c-1.39955,1.09394 -6.51752,2.7641 -6.51752,2.7641c0,0 -0.39152,3.19579 -4.56496,6.3091c-5.19941,3.87866 -15.48143,-3.22953 -15.48143,-3.22953c0,0 5.56897,-0.57001 6.01301,-2.92483c0.47023,-2.49364 0.42182,-4.54616 -0.20333,-8.54209c-0.32095,-2.05147 -1.05038,-7.81345 -1.05038,-7.81345c0,0 1.96702,1.65873 4.08644,4.00876c2.16587,2.40156 4.18954,5.5662 7.24722,6.48005c2.02387,0.60487 4.2995,-1.69814 6.15958,-2.47397c2.68766,-1.12101 -2.84977,-20.10159 -2.84977,-20.10159c0,0 5.08503,8.59801 9.36574,12.8005c1.37017,1.34512 2.73298,1.00866 3.72261,1.39811c3.49169,1.37413 10.13051,-13.81636 10.13051,-13.81636c0,0 3.45737,-0.17792 4.82067,2.88767c1.41501,3.18189 -1.34923,9.32836 -1.28567,9.6697z" fill="#a7649a" stroke="none" stroke-width="0" stroke-linecap="butt"/><path d="M167.97766,230.6853c-0.58582,0.07161 -4.19127,-1.5879 -6.70122,-5.23326c-1.8094,-2.62792 -2.63424,-6.05339 -4.12956,-9.62271c-1.28308,-3.0627 -4.8083,-5.98673 -4.8083,-5.98673c0,0 2.82613,-0.07725 4.9196,3.16408c2.09356,3.24144 4.88337,9.28111 7.00391,11.44281c3.23663,3.29947 6.48179,4.27294 6.55429,4.86616c0,0 -1.46818,1.20214 -2.8387,1.36964z" fill="#000000" stroke="none" stroke-width="0" stroke-linecap="butt"/><path d="M155.86189,241.04528c-0.06383,-0.52233 -5.46218,-3.44737 -8.09826,-5.94917c-1.85428,-1.75981 -3.36361,-4.93511 -4.44128,-7.8009c-1.2091,-3.21523 -5.26993,-5.1544 -5.26993,-5.1544c0,0 5.44122,0.99829 8.58287,7.80356c0.9002,1.94998 2.85375,3.34972 4.39955,4.46503c2.44958,1.76739 5.89457,3.2635 5.95145,3.72895c0.15912,1.30198 -0.24896,0.42446 -1.20831,0.54169c0,0 0.24304,3.66725 0.0839,2.36523z" fill="#000000" stroke="none" stroke-width="0" stroke-linecap="butt"/><g><g data-paper-data="{&quot;index&quot;:null}"><path d="M207.44667,174.80169c11.53916,6.55309 15.18365,21.33277 8.55139,33.01139c-6.63229,11.67863 -21.36313,15.83372 -32.90229,9.28063c-5.31,-3.01555 -4.34103,-5.52579 -6.15158,-10.92161c-2.12396,-6.32984 -6.31341,-15.78534 -2.73312,-22.0898c0,0 6.06759,-7.09838 14.28418,-10.30072c6.04698,-2.35675 13.72614,-1.75802 18.61811,1.02013z" fill="#303f97" stroke="#000000" stroke-width="3" stroke-linecap="butt"/><path d="M191.94041,179.30934c0.91607,1.24175 0.87152,2.82517 -0.09955,3.53668c-0.97107,0.71151 -2.50089,0.28168 -3.41698,-0.96005c-0.91607,-1.24175 -0.87154,-2.82518 0.09954,-3.53669c0.97107,-0.71151 2.50091,-0.28167 3.41699,0.96007z" fill="#303f97" stroke="none" stroke-width="0" stroke-linecap="butt"/><path d="M199.00119,178.45557c1.26974,-0.70839 3.07955,0.10309 4.04232,1.81252c0.96277,1.70942 0.71393,3.66946 -0.55581,4.37787c-1.26975,0.70841 -3.07956,-0.10305 -4.04233,-1.81248c-0.96277,-1.70942 -0.71394,-3.66947 0.5558,-4.37789z" fill="#303f97" stroke="none" stroke-width="0" stroke-linecap="butt"/><path d="M185.52987,218.50646c0,0 -7.70091,-9.61819 -9.74869,-17.52827c-0.87544,-3.3816 8.10574,3.26462 17.95652,6.2554c10.33426,3.13758 21.32752,0.73028 21.32752,0.73028c0,0 -4.41132,7.16759 -7.14516,8.83816c-2.78045,1.69907 -9.27184,2.26401 -9.27184,2.26401z" fill="#242464" stroke="none" stroke-width="0" stroke-linecap="butt"/><path d="M174.45063,195.02902c0,0 4.03871,-8.9802 10.75111,-12.97571c2.54226,-2.20395 21.08645,-5.19395 21.08645,-5.19395" fill="none" stroke="#000000" stroke-width="2" stroke-linecap="round"/><path d="M177.1189,204.01958c0,0 2.92424,-9.09806 16.44105,-15.66594c8.81847,-3.42462 23.23476,-1.8531 23.23476,-1.8531" fill="none" stroke="#000000" stroke-width="2" stroke-linecap="round"/><path d="M180.40503,211.10123c0,0 7.05063,-7.2733 12.08313,-9.60287c6.31899,-2.92509 24.34521,-6.76357 24.34521,-6.76357" fill="none" stroke="#000000" stroke-width="2" stroke-linecap="round"/><path d="M184.93915,215.42234c0,0 9.18017,-3.76154 14.14452,-5.52367c5.38804,-1.91252 17.01685,-5.53731 17.01685,-5.53731" fill="none" stroke="#000000" stroke-width="2" stroke-linecap="round"/><path d="M201.36103,218.43433c0,0 -9.01196,-12.6717 -11.17922,-19.94021c-2.32249,-7.78911 -2.3223,-25.34077 -2.3223,-25.34077" fill="none" stroke="#000000" stroke-width="2" stroke-linecap="round"/><path d="M210.618,214.35265c0,0 -8.67988,-7.52814 -12.67749,-18.90284c-3.13892,-10.30083 0.44892,-22.64878 0.44892,-22.64878" fill="none" stroke="#000000" stroke-width="2" stroke-linecap="round"/><path d="M214.43278,207.08572c0,0 -2.75666,3.64384 -7.13105,-14.11887c-2.32831,-7.79277 -0.41046,-15.89482 -0.41046,-15.89482" fill="none" stroke="#000000" stroke-width="2" stroke-linecap="round"/><path d="M167.46149,190.73622c0.41931,-0.73836 3.60379,-9.34967 6.57575,-5.60903c1.13924,1.4339 -2.12911,12.12825 0.90584,19.1615c4.15886,9.63782 10.35857,14.75641 10.27844,15.92605c-0.15714,2.29366 -8.67619,-1.57358 -8.82346,-1.31425c-0.28001,0.49305 -5.69482,-3.55637 -8.87463,-10.86989c-2.98507,-6.86567 -0.32478,-16.83149 -0.06192,-17.29433z" fill="#314099" stroke="#000000" stroke-width="3" stroke-linecap="butt"/><path d="M170.21427,197.19984c0.90324,-0.18196 1.83665,0.66902 2.0848,1.90074c0.24815,1.23173 -0.28293,2.37775 -1.1862,2.55972c-0.90324,0.18197 -1.83666,-0.66902 -2.0848,-1.90074c-0.24815,-1.23172 0.28292,-2.37775 1.18618,-2.55972z" fill="#6283b8" stroke="none" stroke-width="0" stroke-linecap="butt"/><path d="M170.74685,189.67049c1.00376,0.29969 1.59899,1.68545 1.88175,3.19656c0.28273,1.5111 0.14594,2.57535 -0.85783,2.27563c-1.00375,-0.29971 -2.04667,-1.76768 -2.32942,-3.27875c-0.28276,-1.5111 0.30174,-2.49313 1.30549,-2.19339z" fill="#6283b8" stroke="none" stroke-width="0" stroke-linecap="butt"/></g><path d="M193.48272,219.4127c0,0 -10.81931,-12.28316 -12.38479,-17.19836c-1.56548,-4.9152 -0.44529,-23.88796 -0.44529,-23.88796" fill="none" stroke="#000000" stroke-width="2" stroke-linecap="round"/></g></g></g></g></svg>