<svg version="1.1" xmlns="http://www.w3.org/2000/svg" xmlns:xlink="http://www.w3.org/1999/xlink" width="347" height="286" viewBox="0,0,347,286"><g transform="translate(-85,-40.50003)"><g data-paper-data="{&quot;isPaintingLayer&quot;:true}" fill-rule="nonzero" stroke-linejoin="miter" stroke-miterlimit="10" stroke-dasharray="" stroke-dashoffset="0" style="mix-blend-mode: normal"><path d="M85,326.50003v-286h347v286z" fill="none" stroke="none" stroke-width="0" stroke-linecap="butt"/><text transform="translate(254.22476,93.84676) scale(0.20352,0.20352)" font-size="40" xml:space="preserve" fill="#000000" fill-rule="nonzero" stroke="none" stroke-width="1" stroke-linecap="butt" stroke-linejoin="miter" stroke-miterlimit="10" stroke-dasharray="" stroke-dashoffset="0" font-family="Sans Serif" font-weight="normal" text-anchor="start" style="mix-blend-mode: normal"><tspan x="0" dy="0">Polargaming64</tspan><tspan x="0" dy="46.150000000000006px"> </tspan><tspan x="0" dy="46.150000000000006px">MeIzAwezomeDede</tspan><tspan x="0" dy="46.150000000000006px"> </tspan><tspan x="0" dy="46.150000000000006px">AwezomeXD</tspan></text><path d="M267.97476,181.60887c0,5.33875 -33.06429,8.66667 -37.66667,8.66667c-4.60237,0 -7.33333,-1.99458 -7.33333,-7.33333c0,-5.33875 -7.01904,-6 -2.41667,-6c0.49529,0 12.45596,-26.10934 18.35692,-29.3471c3.50333,-1.92222 12.48562,4.28652 14.79071,3.45925c7.31946,-2.62687 4.1126,-4.82871 5.65623,-4.10722c4.76031,2.22494 8.61281,31.32168 8.61281,34.66174z" fill="#9363ea" stroke="#000000" stroke-width="3.5" stroke-linecap="butt"/><path d="M229.80809,190.02554c0,0 -0.4466,2.86008 -1.82995,5.80684c-1.46983,3.13098 -2.4972,-1.14017 -6.67005,-1.14017c-1.86788,0 -5.77447,7.54613 -8.37199,7.53697c-8.66684,-0.03054 -19.45934,-0.67653 -19.45934,-5.70486c0,-6.53537 18.06449,-17.99877 26.16467,-17.99877c8.10018,0 10.16667,11.5 10.16667,11.5z" fill="#a7649a" stroke="#000000" stroke-width="3.5" stroke-linecap="butt"/><g stroke-linecap="butt"><path d="M304.19862,232.872c-7.32281,2.12086 -20.05642,-7.75297 -22.30719,-7.75297c-3.86599,0 -13,-8.03451 -13,-14.66672c0,-3.7916 0.93485,-18.80592 1.60141,-24.41898c0.49937,-4.20522 14.40943,-10.38574 16.06525,-10.38574c0.77544,0 18.44833,5.00319 21.77598,9.01501c1.11927,1.34939 5.22282,6.62461 3.63157,9.07663c-2.76443,4.25981 -16.95767,11.13502 -15.61313,12.83996c3.70313,4.69578 18.37225,12.65321 18.37225,14.58939c0,0 -5.27103,10.18142 -10.52614,11.70342z" fill="#aa96c7" stroke="#000000" stroke-width="3.5"/><path d="M294.89143,177.07875l15.88059,16.77263l-13.27384,8.58274c0,0 -2.95752,-4.86885 -8.75104,-6.83123c-4.44212,-1.50463 -11.99844,1.1074 -14.52702,0.01435c-2.77819,-1.20095 20.6713,-18.5385 20.6713,-18.5385z" fill="#a7649a" stroke="none" stroke-width="0"/><path d="M283.46096,209.05435c2.64604,2.4255 18.11915,19.35387 21.07494,20.02428c3.33819,0.75715 6.36737,-11.77734 6.36737,-11.77734c0,0 12.93837,5.69348 13.21479,12.06952c0.14168,3.26801 -7.08604,6.78003 -9.71219,9.67583c-3.63256,4.00558 -10.13335,6.66144 -11.32895,8.25536c-1.23021,1.64005 -5.70907,6.50103 -9.04657,6.51087c-1.18597,0.0035 -5.67182,-4.04622 -8.28632,-9.43119c-2.86381,-5.89846 -7.13196,-7.27878 -8.76518,-6.61136c-4.11515,1.68168 -9.16853,-2.22675 -12.91571,2.76803c-0.36822,0.49081 9.95977,19.1215 9.95977,19.1215c0,0 -15.39074,-15.0219 -17.65509,-15.28653c-1.99322,-0.23294 -6.12166,-1.15007 -6.12166,-1.15007c0,0 -2.07213,-4.36327 -5.06823,-7.02673c-2.65367,-2.35905 -10.64411,-8.37448 -11.25606,-7.9054c-1.10684,0.84841 -2.02065,3.6401 -4.51191,6.79454c-2.1633,2.73918 -6.2537,4.55845 -6.2537,4.55845c0,0 -13.1268,-13.84878 -17.45857,-13.4053c-3.6307,0.37171 -5.65406,0.14077 -8.23922,0.57012c-6.03427,1.00218 -7.16574,1.26055 -6.32168,-1.17472c1.07102,-3.09011 -3.67163,-10.45119 -2.40491,-11.58509c0.75294,-0.674 9.6719,-5.20568 9.6719,-5.20568l10.04846,-2.44062c0,0 13.63213,-11.79594 21.36947,-15.22726c8.82241,-3.91251 12.08177,0.47629 15.58456,0.47629c12.93628,0 27.41667,22.59908 27.41667,22.59908c0,0 5.61345,-3.02943 7.26433,-4.94294z" fill="#0044d4" stroke="#000000" stroke-width="3.5"/><path d="M243.2812,236.53671c-2.01157,2.3341 -14.12215,-0.6709 -14.64162,-0.74744c-1.09446,-0.16125 -8.08768,-15.7753 -9.3132,-17.96417c-0.55741,-0.99556 -18.09512,-7.47704 -18.09512,-7.47704l13.05833,-9.78809c0,0 5.55298,-8.76159 17.6009,-8.57996c12.48608,0.18824 31.60249,9.34911 38.67529,11.07037c2.50715,0.61014 2.1264,13.11275 2.45582,13.53134c0.59366,0.75437 -19.926,-8.02802 -33.03017,-6.9138c-8.69805,0.73958 -15.40056,5.54229 -15.40056,5.54229z" fill="#0a1296" stroke="none" stroke-width="0"/><path d="M318.66458,222.54273l4.48317,5.29473c0,0 -4.27033,9.55397 -9.27761,15.53876c-4.39933,5.25816 -17.24825,8.98088 -18.9389,8.98088c-0.84176,0 -4.41023,-2.56888 -6.52619,-6.2406c-3.44539,-5.97863 -12.68182,-17.43357 -12.68182,-17.43357c0,0 22.45405,10.9273 25.80293,10.9273c5.41239,0 17.13841,-17.0675 17.13841,-17.0675z" fill="#0a1296" stroke="none" stroke-width="0"/></g><g><path d="M272.53814,214.51801c0,0 -1.05714,-0.35492 -2.58942,-2.53651c-2.8868,-4.11008 -17.90965,-12.99522 -33.92613,-12.99522c-8.20127,0 -10.44817,1.46262 -16.00174,3.18754c-5.65096,1.75516 -9.80752,4.76805 -12.21793,5.80178c-1.35532,0.58125 -4.19667,-4.45484 -1.83362,-6.24743c3.19503,-2.42373 6.10434,-6.83987 11.16006,-10.05309c4.64327,-2.95108 11.4883,-1.66699 13.54577,-4.12117c4.82231,-5.7521 18.40844,-22.50987 22.74973,-28.47821c9.31461,-12.80555 -4.31062,-11.83831 1.41913,-11.77971c1.19054,0.01218 35.32949,1.12935 44.75687,-0.72946c7.64429,-1.50723 1.61347,3.37713 6.05048,9.61919c0.72857,1.02497 -1.74031,13.25677 1.76552,18.61882c3.82345,5.84783 11.97037,20.47528 10.40785,25.99314c-0.58551,3.03321 -21.97183,-15.10466 -27.06724,-15.64521c-10.7267,-1.00697 -12.89031,8.13521 -14.73316,12.79815c-1.43262,3.62493 -3.48616,16.56739 -3.48616,16.56739z" fill="#ab9ef8" stroke="#000000" stroke-width="3.5" stroke-linecap="butt"/><path d="M241.89142,232.92094l-7.75,-4.15002l-7.5,-10.23123z" fill="#000000" stroke="none" stroke-width="0" stroke-linecap="butt"/><path d="M282.75906,183.76113c0,0 -6.1591,8.16144 -6.80606,10.02847c-0.75247,2.17149 -2.031,5.48432 -2.031,5.48432l-0.21203,-11.29539c0,0 -4.15022,-3.57597 -11.96265,-6.03133c-9.41837,-2.96009 -24.25096,-1.6968 -23.74954,-2.04707c0.62781,-0.43856 26.84937,-31.26488 26.84937,-31.26488l39.72147,20.77689l4.12132,10.03251c0,0 -10.88288,4.04516 -15.61348,4.27384c-4.06017,0.19627 -10.3174,0.04265 -10.3174,0.04265z" fill="#9363ea" stroke="none" stroke-width="0" stroke-linecap="butt"/><path d="M250.73937,190.64515c-6.88212,2.13997 -15.21447,4.84287 -15.21447,0.24653c0,-4.31203 7.46822,-6.3075 14.30587,-7.91195c3.73276,-0.87589 14.40914,-3.89428 19.62093,0.66539c2.95204,2.58268 -4.69325,2.39802 -17.379,6.34259z" fill="none" stroke="#ac002b" stroke-width="4.5" stroke-linecap="butt"/><path d="M253.8514,189.46368c0,0 -4.60739,-3.65715 -5.44244,-4.92735" fill="none" stroke="#ac002b" stroke-width="4.5" stroke-linecap="round"/></g><g stroke-linecap="butt"><path d="M343.79712,206.32409c-4.49684,-2.68183 -8.38395,-23.26144 -10.83324,-27.27557c-2.847,-4.66594 -3.7243,-5.78436 -2.05159,-8.58914c3.11173,-5.2177 4.1966,-4.99068 13.92046,0.80849c3.17373,1.89275 9.89532,13.64907 10.31046,22.66817c0.34792,7.55894 -4.42299,15.58259 -8.85669,12.93839z" fill="#0066cc" stroke="#000000" stroke-width="5"/><path d="M334.03197,175.80957c-0.90299,-1.9399 0.16706,-3.86646 0.16706,-3.86646c0,0 -0.94433,-0.80554 3.4749,2.87811c4.30552,3.58887 15.53521,18.93307 15.53521,18.93307c0,0 -0.27781,8.39942 -3.71115,10.93816c-1.10766,0.81904 -3.2287,0.20865 -5.17419,-1.04c-3.73675,-2.39832 -9.84708,-26.8874 -10.29184,-27.84288z" fill="#0f1980" stroke="none" stroke-width="0"/><path d="M204.52329,125.53246c2.06322,-3.45953 5.95393,-2.52334 11.37268,-2.02029c4.93122,0.4578 8.9751,2.01075 8.9751,2.01075c0,0 1.60853,-8.51186 2.47534,-12.30952c0.91225,-3.99663 2.92391,-11.84693 2.92391,-11.84693c0,0 31.46243,-2.67231 55.23031,10.1344c22.08549,11.90018 35.96829,41.30291 36.33104,46.14495c0.03245,0.43306 -2.43541,6.27292 -6.10196,10.07465c-2.72611,2.82663 -5.80949,4.01449 -10.64242,3.73522c-15.53315,-0.89757 -34.55482,-3.12787 -50.80857,-8.31685c-10.3385,-3.30056 -25.08403,-8.64423 -35.59434,-16.94428c-9.64791,-7.61898 -16.44705,-16.82907 -14.16109,-20.6621z" fill="#aa96c7" stroke="#000000" stroke-width="3.5"/><path d="M320.14255,157.80934c0,0 -2.41797,8.01207 -7.61822,10.55792c-4.98844,2.44213 -14.21801,1.08023 -14.21801,1.08023l-1.50983,-7.33541l-4.0937,4.35674l-12.11074,-33.71197c0,0 -10.13198,-0.61424 -15.14877,-0.91839c-4.95204,-0.30022 -15.05314,-2.90115 -15.05314,-2.90115l13.0091,-12.23289c0,0 -9.41949,-2.94463 -14.10062,-3.45638c-5.37129,-0.5872 -20.88511,2.20374 -20.88511,2.20374l2.28946,-12.34109c0,0 17.26428,-4.75028 30.54842,-1.19335c19.89061,5.32588 38.91425,19.91521 42.27962,21.92227c5.61296,3.34749 16.61157,33.96975 16.61157,33.96975z" fill="#a7649a" stroke="none" stroke-width="0"/><path d="M320.8766,159.68495c-5.63519,-4.16156 -25.46455,-23.55964 -31.15486,-34.02272c-10.97666,-20.18339 -21.24608,-26.66811 -30.15968,-31.98405c-16.91796,-10.08958 -31.75823,-7.92147 -26.99633,-15.9061c1.10854,-1.85878 10.7073,-26.17263 13.03464,-26.99754c7.67017,-2.71862 33.52289,-10.2539 63.17947,7.28041c12.49509,7.38766 28.8145,22.48274 29.91111,23.98234c2.99394,4.0942 16.47241,17.60593 17.15289,25.29806c1.63255,18.45424 -5.25051,37.39648 -8.1253,42.21685c0,0 -0.54298,3.7587 -3.64063,5.39752c-3.3378,1.76588 -7.63702,0.60763 -12.05367,1.61014c-4.80663,1.09104 -9.65886,4.22455 -11.14763,3.12509z" fill="#ac1e52" stroke="#000000" stroke-width="5"/><path d="M277.01955,115.30929c0,0 -16.35518,-7.21436 -23.38995,-8.4672c-7.20348,-1.28289 -25.87286,3.14609 -25.87286,3.14609l-1.25778,4.95374c0,0 -8.06568,-4.35677 -13.14027,-4.87658c-5.93052,-0.60747 -17.64623,-4.99465 -17.64623,-4.99465c0,0 4.01284,-4.36644 8.60318,-7.46377c4.54861,-3.06919 16.89107,-6.57444 16.89107,-6.57444c0,0 -2.63377,-3.10452 -4.45231,-4.18908c-9.32858,-5.56343 -21.16745,-7.17263 -21.16745,-7.17263c0,0 0.88566,-1.04156 1.9438,-1.64057c1.9725,-1.11664 8.96907,-4.53725 8.96907,-4.53725l-3.48737,-4.11694c0,0 25.38878,-6.54631 37.84802,-10.26702c9.17366,-2.73954 10.65145,-1.15924 12.6932,0.05842c1.22744,0.73203 4.26645,2.94098 8.99234,9.80385c5.00309,7.2654 8.32624,13.46284 8.32624,13.46284c0,0 0.78938,-2.37124 7.31042,-7.86615c2.33471,-1.9673 21.75098,-10.3843 21.75098,-10.3843c0,0 0.36295,-0.1575 -0.14939,0.99515c-0.87562,1.96997 -4.68016,9.08276 -4.68016,9.08276c0,0 10.40395,-2.82062 13.02442,-3.35715c1.41645,-0.29001 0.1048,1.03291 0.1048,1.03291c0,0 -20.0273,22.79505 -21.14181,31.96907c-1.17799,9.69644 -1.09586,21.25198 -1.09586,21.25198l-21.34397,-0.47265z" fill="#44acff" stroke="#000000" stroke-width="3.5"/><path d="M272.01942,89.40644c0,0 2.98272,-4.43509 5.10292,-6.7937c3.54971,-3.94886 16.89057,-12.70041 16.89057,-12.70041c0,0 -11.39834,16.04462 -9.88453,14.06141c3.88801,-5.0936 21.95671,-11.04465 21.95671,-11.04465c0,0 -19.00346,21.37094 -19.91455,29.84966c-1.01009,9.39995 -1.50627,20.52378 -1.50627,20.52378l-16.64763,0.13326l9.62334,-7.91313c0,0 -15.0234,-8.51483 -23.13347,-9.8206c-7.01987,-1.13025 -26.06638,2.40736 -26.06638,2.40736l-3.19672,4.59299c0,0 -5.0427,-2.33808 -8.23534,-2.7679c-3.69194,-0.49703 -11.8963,-3.69456 -11.8963,-3.69456l31.91284,-10.6135c0,0 -0.03992,-0.72771 -0.14441,-3.02596c-0.02241,-0.49292 -4.48108,-1.51514 -4.48108,-1.51514c0,0 4.28674,-2.38869 4.20383,-3.54074c-0.09897,-1.37524 -0.22374,-2.70146 -0.38361,-3.70933c-0.31061,-1.95821 -5.74194,-9.84385 -5.74194,-9.84385c0,0 4.71257,0.5484 9.69788,0.82583c2.27358,0.12652 4.51366,1.16577 6.91824,1.28806c0.92068,0.04682 3.00284,-0.07271 3.57225,-0.57104c1.39948,-1.22474 0.69622,-3.58727 2.42072,-3.00894c1.61059,0.54014 6.01064,5.85528 6.80276,6.64106c1.58589,1.57318 12.13016,10.24003 12.13016,10.24003z" fill="#356fee" stroke="none" stroke-width="0"/><path d="M320.15811,160.62299l-8.17747,16.13139c0,0 -2.24068,-10.71108 -4.1227,-15.52728c-1.3456,-3.44349 -8.11486,-10.44989 -8.11486,-10.44989l-2.73844,5.11205c0,0 -9.744,-26.49163 -11.22524,-29.74676c-0.80385,-1.76652 2.77347,0.1099 2.77347,0.1099z" fill="#44acff" stroke="#000000" stroke-width="3"/><path d="M312.67911,173.38685c0,0 -1.77918,-8.91962 -3.76241,-12.93937c-2.09778,-4.25193 -9.49971,-11.93501 -9.49971,-11.93501l-1.97955,6.81653l-0.94628,-12.39362l-4.35853,-4.67659l-4.09865,-9.98853c0,0 11.9763,12.57587 16.51815,17.13654c4.49997,4.51861 20.11477,12.4335 20.11477,12.4335z" fill="#356fee" stroke="none" stroke-width="0"/><path d="M326.50108,158.55849c0,0 -11.49903,-6.09982 -15.08352,-9.59558c-3.89843,-3.80194 -13.89758,-13.30139 -13.89758,-13.30139c0,0 23.06763,-19.07092 28.58203,-25.60721c3.86957,-4.58664 5.35758,-13.61704 10.57628,-14.84005c8.58361,-2.01156 19.91899,10.56694 22.18993,18.35065c2.49885,12.41591 3.2899,29.1329 0.26234,34.98555c-0.10811,0.20902 -15.02524,14.5904 -15.89334,15.2809z" fill="#730e67" stroke="#000000" stroke-width="2.5"/><path d="M344.26971,171.94369c0.5101,4.00257 -26.55675,15.80469 -29.08826,14.29495c-4.61474,-2.75215 -6.30554,-11.67294 -6.30554,-11.67294l5.92804,1.68873c0,0 4.09805,-5.54444 5.68936,-8.11579c1.86886,-3.01984 5.34063,-9.61477 5.34063,-9.61477c0,0 17.06502,5.63731 17.73637,10.90523z" fill="#aa96c7" stroke="#000000" stroke-width="4.5"/><path d="M334.24318,177.33563c0,0 -7.03485,2.96649 -8.32496,3.91931c-1.21755,0.89924 -9.39276,3.81954 -10.81624,2.54433c-1.4235,-1.27523 -3.73234,-6.48869 -3.73234,-6.48869l5.37626,0.33229l7.28878,-10.45952z" fill="#a7649a" stroke="none" stroke-width="0"/><path d="M321.11589,166.35785c0.55209,-1.10098 11.14772,6.45309 11.37982,7.56477c0.14232,0.68165 -16.78917,2.75615 -17.41016,2.80636c0,0 5.58656,-9.48617 6.03033,-10.37113z" fill="none" stroke="#000000" stroke-width="2"/></g><path d="M288.50842,185.95215c0,0 -4.06985,-0.3998 -6.49141,0.51056c-2.61857,0.98442 -9.67526,6.21376 -9.67526,6.21376c0,0 4.93521,-6.59697 8.54002,-8.35483c3.93049,-1.91667 13.04331,0.03528 13.04331,0.03528c0,0 5.57676,4.74278 4.70232,5.0003c-0.92794,0.27328 -10.11898,-3.40508 -10.11898,-3.40508z" fill="#000000" stroke="none" stroke-width="0" stroke-linecap="butt"/><g><path d="M202.77691,213.46582c0,0 -1.49917,8.33564 -5.98253,10.1112c-0.46322,0.18346 -12.37372,2.72005 -13.52264,-8.00763c-0.24891,-2.32423 -2.43929,-10.59127 0.1355,-13.19991c5.03706,-5.10324 3.63747,-9.31931 3.51394,-9.66319c-1.63295,-4.54629 -5.62943,-11.40184 -2.53797,-12.51223c1.58572,-0.56956 7.62116,1.98572 15.11734,6.12595c2.08419,1.15113 2.64474,-7.09941 4.53094,-5.91943c0.55477,0.34707 3.8048,6.77536 4.31314,7.09983c3.66614,2.33973 4.12989,9.17328 4.62386,10.54858c0.97361,2.71064 -1.43858,5.73042 -6.25906,8.29562c-1.69826,0.90373 -3.40146,5.19655 -3.40146,5.19655z" fill="#a7649a" stroke="#000000" stroke-width="3" stroke-linecap="butt"/><path d="M156.62754,227.59002c-7.13984,1.70318 -12.75168,-3.71409 -14.43244,-10.75999c-1.68077,-7.04589 24.52367,-43.42461 31.66352,-45.12779c7.13983,-1.70318 16.70619,6.72597 18.38697,13.77185c1.68077,7.04589 -28.47822,40.41274 -35.61807,42.11593z" fill="#304098" stroke="#000000" stroke-width="2.5" stroke-linecap="butt"/><path d="M147.59791,219.82589c-0.65507,0.40969 -1.68434,-0.05476 -2.29885,-1.03742c-0.61454,-0.98263 -0.58167,-2.11134 0.07344,-2.52103c0.65507,-0.40969 1.68434,0.05476 2.29885,1.03742c0.61454,0.98263 0.58165,2.11136 -0.07343,2.52102z" fill="#304098" stroke="none" stroke-width="0" stroke-linecap="butt"/><path d="M174.99785,225.09382c-4.12612,2.65328 -12.70972,-0.27536 -17.09382,-0.64505c-6.16006,-0.51943 -16.13037,-18.30825 -15.73925,-19.99274c0.83455,-3.59433 6.46003,-9.31778 6.46003,-9.31778c0,0 2.97005,-6.06562 3.61058,-7.74044c0.33972,-0.88827 -0.36714,-5.97289 1.76163,-9.0899c2.12876,-3.11703 6.19442,-1.09074 7.26992,-4.13445c0.22629,-0.64036 0.9694,-6.04535 1.21376,-6.59483c2.35957,-5.30612 0.38576,-9.07407 5.79871,-11.01827c4.70195,-1.68885 16.31024,3.30283 22.31712,7.14058c9.15206,5.84722 9.40655,10.93053 12.48246,19.49425c1.09394,3.0457 2.06942,8.95418 -1.23769,12.64072c-1.54924,1.72699 -4.84102,1.73518 -6.40383,2.39493c-3.42746,1.44683 -4.68311,5.46218 -4.68311,5.46218c0,0 -2.80282,2.99784 -3.50005,5.68223c-0.73605,2.83397 -3.99484,3.7764 -6.82289,4.79217c0,0 0.68005,6.65509 -5.43356,10.9264z" fill="#aa96c7" stroke="#000000" stroke-width="2.5" stroke-linecap="butt"/><path d="M202.00983,193.5665c1.04949,2.4326 -12.26023,6.83821 -12.26023,6.83821c0,0 -0.7618,5.55628 -4.87052,10.59426c-1.17837,1.44489 -6.0289,4.3435 -6.0289,4.3435c0,0 0.34175,3.36207 -3.20672,7.51838c-4.42078,5.17807 -16.59661,0.29127 -16.59661,0.29127c0,0 5.56777,-1.87731 5.47518,-4.39079c-0.09808,-2.66166 -0.62447,-4.75131 -2.19277,-8.69616c-0.80513,-2.02524 -2.89049,-7.75354 -2.89049,-7.75354c0,0 2.39876,1.2408 5.11413,3.1538c2.77488,1.95495 5.58149,4.724 8.92357,4.94897c2.21209,0.14892 4.00629,-2.73708 5.72995,-3.96337c2.49054,-1.77187 -7.58728,-19.9132 -7.58728,-19.9132c0,0 7.20251,7.61921 12.56049,10.92615c1.71499,1.05848 3.03174,0.39745 4.13516,0.56617c3.89324,0.59528 7.15919,-16.49566 7.15919,-16.49566c0,0 3.49752,-0.9854 5.60518,1.8357c2.18763,2.92813 0.7863,9.86167 0.93067,10.19629z" fill="#a7649a" stroke="none" stroke-width="0" stroke-linecap="butt"/><path d="M189.97649,203.03617c-0.58299,0.20939 -4.65898,-0.65152 -8.07504,-3.79962c-2.46258,-2.26945 -4.10274,-5.58403 -6.46258,-8.89001c-2.0249,-2.83676 -6.31255,-5.01066 -6.31255,-5.01066c0,0 2.87477,-0.73568 5.77067,2.09564c2.89601,2.83143 7.15481,8.36523 9.82756,10.08519c4.0795,2.62524 7.62729,2.86768 7.83933,3.45804c0,0 -1.22349,1.57158 -2.58738,2.06146z" fill="#000000" stroke="none" stroke-width="0" stroke-linecap="butt"/><path d="M180.23151,217.24669c-0.18668,-0.51981 -6.39185,-2.25955 -9.67132,-4.20785c-2.30686,-1.37048 -4.5895,-4.26992 -6.35839,-6.95286c-1.98461,-3.01009 -6.59168,-4.05147 -6.59168,-4.05147c0,0 5.80138,-0.24238 10.59819,5.99335c1.37447,1.78679 3.69927,2.76563 5.54062,3.54807c2.91793,1.23992 6.79173,1.97088 6.95809,2.43408c0.46538,1.2957 -0.15622,0.4923 -1.11094,0.83519c0,0 1.1008,3.69722 0.63542,2.40148z" fill="#000000" stroke="none" stroke-width="0" stroke-linecap="butt"/><g><g data-paper-data="{&quot;index&quot;:null}"><path d="M217.05058,136.74291c13.33362,4.02654 20.83905,18.23033 16.76389,31.7251c-4.07519,13.49478 -18.18781,21.17033 -31.52143,17.14377c-6.13575,-1.85289 -5.72717,-4.64742 -8.83404,-9.74975c-3.64466,-5.98553 -10.1297,-14.69051 -7.92983,-21.97536c0,0 4.56138,-8.6754 12.22756,-13.86223c5.64193,-3.81722 13.64116,-4.98854 19.29387,-3.28152z" fill="#314099" stroke="#000000" stroke-width="3" stroke-linecap="butt"/><path d="M202.56738,144.88203c1.22617,1.05817 1.54846,2.68928 0.71982,3.64317c-0.82867,0.9539 -2.49441,0.86936 -3.72056,-0.1888c-1.22617,-1.05817 -1.54848,-2.68926 -0.71982,-3.64315c0.82866,-0.95391 2.4944,-0.86938 3.72056,0.18879z" fill="#314099" stroke="none" stroke-width="0" stroke-linecap="butt"/><path d="M209.5962,142.36766c1.13506,-1.0201 3.17607,-0.60999 4.55871,0.91605c1.38263,1.52602 1.58329,3.59007 0.44824,4.61017c-1.13507,1.0201 -3.17607,0.61001 -4.55871,-0.91602c-1.38263,-1.52602 -1.58331,-3.59009 -0.44825,-4.61019z" fill="#314099" stroke="none" stroke-width="0" stroke-linecap="butt"/><path d="M205.11272,186.49228c0,0 -10.11705,-8.05566 -14.05089,-15.67637c-1.68174,-3.25789 9.05524,1.45829 19.83303,2.23086c11.30677,0.81047 21.99982,-4.20767 21.99982,-4.20767c0,0 -2.84999,8.36141 -5.26011,10.70653c-2.45122,2.38511 -8.96432,4.47156 -8.96432,4.47156z" fill="#232362" stroke="none" stroke-width="0" stroke-linecap="butt"/><path d="M188.3177,165.03569c0,0 2.04747,-10.1302 7.98974,-15.77941c2.09012,-2.84655 20.37661,-10.21553 20.37661,-10.21553" fill="none" stroke="#000000" stroke-width="2" stroke-linecap="round"/><path d="M193.1377,173.61818c0,0 0.87935,-9.99187 13.18872,-19.85498c8.23061,-5.55419 23.35175,-7.29508 23.35175,-7.29508" fill="none" stroke="#000000" stroke-width="2" stroke-linecap="round"/><path d="M198.14661,180.10323c0,0 4.52596,-10.40655 9.13581,-13.96026c5.7883,-4.46217 24.34847,-11.25554 24.34847,-11.25554" fill="none" stroke="#000000" stroke-width="2" stroke-linecap="round"/><path d="M203.79153,183.47272c0,0 5.68759,-9.45704 10.35952,-12.41411c5.07067,-3.20945 18.96632,-6.14749 18.96632,-6.14749" fill="none" stroke="#000000" stroke-width="2" stroke-linecap="round"/><path d="M221.30022,182.74029c0,0 -12.16845,-10.87651 -16.07554,-17.81278c-4.18691,-7.43307 -8.26463,-25.3984 -8.26463,-25.3984" fill="none" stroke="#000000" stroke-width="2" stroke-linecap="round"/><path d="M229.82701,176.41168c0,0 -10.63351,-5.68889 -17.36808,-16.40285c-5.60616,-9.81429 -4.80265,-23.28683 -4.80265,-23.28683" fill="none" stroke="#000000" stroke-width="2" stroke-linecap="round"/><path d="M232.0433,168.08716c0,0 -1.97502,4.37019 -10.57945,-12.7948c-4.19373,-7.43546 -4.1131,-16.17403 -4.1131,-16.17403" fill="none" stroke="#000000" stroke-width="2" stroke-linecap="round"/><path d="M180.16649,162.26556c0.25766,-0.85318 1.51644,-10.4073 5.42751,-7.26901c1.49925,1.20301 0.63855,12.90874 5.37911,19.40261c6.49609,8.89869 14.03114,12.69749 14.22087,13.91329c0.37205,2.38422 -9.24626,0.40514 -9.33675,0.70481c-0.17206,0.56973 -6.6553,-2.31707 -11.60925,-9.06416c-4.65056,-6.33393 -4.24301,-17.15267 -4.0815,-17.6875z" fill="#303f99" stroke="#000000" stroke-width="3" stroke-linecap="butt"/><path d="M184.48587,168.24192c0.88227,-0.39611 2.03538,0.25805 2.57555,1.46115c0.54018,1.2031 0.26286,2.49954 -0.61943,2.89565c-0.88227,0.39611 -2.03538,-0.25806 -2.57555,-1.46115c-0.54019,-1.20309 -0.26286,-2.49953 0.61942,-2.89564z" fill="#6382ce" stroke="none" stroke-width="0" stroke-linecap="butt"/><path d="M183.28165,160.41141c1.09703,0.07355 2.02826,1.35368 2.66878,2.83469c0.64047,1.48102 0.74773,2.60214 -0.34931,2.52856c-1.09702,-0.07357 -2.5056,-1.33382 -3.1461,-2.81482c-0.6405,-1.48101 -0.2704,-2.62199 0.82662,-2.5484z" fill="#6382ce" stroke="none" stroke-width="0" stroke-linecap="butt"/></g><path d="M213.46355,185.57213c0,0 -13.92812,-10.05889 -16.67249,-14.72622c-2.74438,-4.66731 -6.00585,-24.34745 -6.00585,-24.34745" fill="none" stroke="#000000" stroke-width="2" stroke-linecap="round"/></g></g><g stroke-linecap="butt"><path d="M253.13143,257.60921c0,5.29844 -0.44929,3.52288 -6.3192,8.0722c-6.6778,5.17547 -20.05879,4.10551 -31.65333,8.64289c-42.8525,16.76973 -65.30181,3.24728 -65.30181,3.24728c0,0 -1.32132,1.68718 -1.32132,-6.26869c0,-5.54123 13.56754,-22.5438 34.43613,-28.57657c1.82011,-0.52617 -5.03405,-7.08661 -0.19302,-10.17745c1.04763,-0.66887 14.33031,-8.94855 21.92741,-5.86383c6.78133,2.75349 13.92245,10.97052 13.92245,10.97052c0,0 2.73884,-10.04248 4.87322,-12.40789c1.77388,-1.96588 17.16537,3.59778 21.83799,11.27793c4.99848,8.21573 7.79149,19.78062 7.79149,21.0836z" fill="#ac1e52" stroke="#000000" stroke-width="3.5"/><path d="M242.51914,266.999c-6.19506,4.00514 -19.3733,9.41636 -33.6636,9.41636c-22.63411,0 -43.35101,10.7318 -43.35101,4.50242c0,-3.62857 -0.61448,-13.36176 9.41356,-19.89117c0.89871,-0.58516 3.55174,-1.95999 4.25598,-3.65572c1.24527,-2.99845 0.65067,-7.00022 3.85755,-9.41354c1.20526,-0.90701 5.49209,1.89894 6.86461,1.04912c4.92967,-3.05231 -11.89808,-8.04739 -7.13041,-11.15566c1.76701,-1.15201 7.13533,-4.70929 12.88804,-5.33032c8.41089,-0.90801 17.64345,1.39771 17.64345,1.39771l4.11021,4.654l1.78185,5.15192l11.7669,-9.65231c0,0 -1.78485,-6.98579 -0.82519,-7.12754c1.30282,-0.19245 12.29282,7.19511 13.03989,9.10066c0.51005,1.30102 3.50879,4.62387 4.43694,6.31228c1.34213,2.44153 -0.34669,3.84513 0.10301,5.97497c0.93896,4.44716 -1.74963,13.25688 -1.74963,13.56033c0,0 0.17505,2.76796 -3.44212,5.10648z" fill="#730e67" stroke="none" stroke-width="0"/><path d="M225.56449,273.56663c-6.47002,2.51675 -11.80843,6.66331 -19.57203,10.05715c-11.91486,5.20854 -26.63921,6.75263 -37.26363,6.98529c-21.04567,0.46086 -26.95762,-8.26492 -27.7119,-10.89129c-0.222,-0.77303 7.03737,-7.78188 9.2592,-6.57765c4.58376,2.48441 17.73736,5.7005 28.35532,5.70483c10.68066,0.00436 36.78617,-15.92104 43.00891,-16.19284c8.44539,-0.36888 10.84795,-0.7063 18.41887,-2.92864c7.21658,-2.11833 13.38195,-3.72872 13.38195,-3.72872c0,0 3.64607,4.45488 2.79268,8.49437c-0.58409,2.7648 -9.1338,6.66958 -16.55014,7.21626c-2.11266,0.15573 -11.24577,0.74354 -14.11921,1.86126z" fill="#ac9ff9" stroke="#000000" stroke-width="4.5"/><path d="M259.96181,265.26091c0,0 0.95661,-2.79825 -4.38669,1.16879c-1.90545,1.41465 -12.76005,3.34187 -15.35133,4.09911c-2.74143,0.8011 -6.36797,0.18664 -9.25289,0.40925c-0.42538,0.03282 -4.35645,0.89505 -8.71045,2.56465c-4.46354,1.71158 -9.37153,4.24101 -11.40275,5.06539c-6.24092,2.5329 -6.8912,4.7151 -11.90897,6.64651c-2.16883,0.83482 -5.73412,2.11189 -9.95693,2.53917c-6.44478,0.65208 -15.10797,0.22175 -15.10797,0.22175l-0.57771,-7.3944c0,0 9.4877,-2.08946 14.82375,-2.08946c2.02514,0 7.04785,-2.1103 13.00237,-4.98375c8.06049,-3.88974 17.53131,-8.326 20.80352,-9.07664c4.25993,-0.97721 10.42681,-1.75441 13.3523,-1.94921c5.2782,-0.35148 12.29481,-3.5276 15.13927,-4.07843c1.68534,-0.32637 7.30149,1.62178 7.30149,1.62178z" fill="#9564ed" stroke="none" stroke-width="0"/><path d="M215.89858,236.70967c0,0.31713 5.98315,-0.91474 5.98315,-0.91474l-2.41135,10.71791c0,0 -3.57181,-10.54073 -3.57181,-9.80316z" fill="#000000" stroke="none" stroke-width="0"/><path d="M237.54698,243.73005c-0.68904,0.50913 -6.08993,2.06102 -7.12735,1.51048c-1.68768,-0.89561 1.92319,-2.8394 2.84989,-3.6038c0.88987,-0.73403 5.52654,-3.18388 6.70477,-2.47065c1.55389,0.94062 -1.33564,3.75735 -2.42731,4.56397z" fill="#000000" stroke="none" stroke-width="0"/></g><path d="M210.35895,247.86203c-1.3836,0.46119 -5.55491,-2.66685 -9.7759,-4.18946c-4.44708,-1.60418 -8.94929,-1.6248 -10.30461,-1.81671c-2.73892,-0.38782 -5.97625,0.09856 -5.97625,-1.212c0,-2.5746 5.02056,-3.60908 12.31449,-3.60908c2.71502,0 9.23386,0.09351 11.47725,2.34304c3.78349,3.79384 4.28171,7.812 2.26502,8.48423z" fill="#ac9ff9" stroke="#000000" stroke-width="3" stroke-linecap="butt"/><path d="M200.00763,255.98247c-4.29458,2.36827 -7.33505,-4.12359 -13.49763,-6.54168c-7.05263,-2.76733 -13.9869,-3.19334 -13.9869,-5.18786c0,-2.29704 8.31155,-3.53143 15.60303,-2.73813c4.57196,0.49742 9.13274,2.66812 9.78013,3.15092c4.88179,3.64071 5.42811,9.4822 2.10137,11.31674z" fill="#ac9ff9" stroke="#000000" stroke-width="3" stroke-linecap="butt"/><path d="M189.28278,262.53562c-1.53095,2.22813 -7.24448,-3.30771 -13.64215,-6.42861c-6.39767,-3.12089 -11.7707,-5.05108 -10.23974,-7.27922c1.53095,-2.22813 8.67225,-1.80515 15.06992,1.31574c6.39767,3.12089 10.34292,10.16396 8.81197,12.39209z" fill="#ac9ff9" stroke="#000000" stroke-width="3" stroke-linecap="butt"/><path d="M210.78051,243.71712c0,1.84375 0.15361,2.79705 -2.03457,2.79705c-2.18818,0 -5.24704,-3.15795 -5.24704,-3.15795l3.42664,-2.79705c0,0 3.85497,1.31421 3.85497,3.15795z" fill="#9564ed" stroke="none" stroke-width="0" stroke-linecap="butt"/><path d="M201.14308,251.74735c0,1.79392 -0.77654,3.60908 -3.31956,3.60908c-2.54302,0 -5.67538,-3.78954 -5.67538,-3.78954l6.1037,-4.69181c0,0 2.89123,3.07833 2.89123,4.87227z" fill="#9564ed" stroke="none" stroke-width="0" stroke-linecap="butt"/><path d="M187.86485,259.14597c0,1.79391 0.42833,3.06772 0.42833,3.06772l-6.42495,-4.15045l3.42664,-2.52635c0,0 2.56999,1.81517 2.56999,3.60908z" fill="#9564ed" stroke="none" stroke-width="0" stroke-linecap="butt"/><g stroke-linecap="butt"><path d="M344.52893,277.06935c0,6.96765 -22.17977,21.95285 -39.13112,21.95285c-10.06363,0 -27.39062,2.45149 -38.75403,-4.20479c-2.72249,-1.59473 -6.83868,-9.89653 -8.43254,-11.76215c-2.95937,-3.46393 0.46243,-13.4011 0.92151,-14.67281c1.6732,-4.63492 -1.38738,-7.24726 -2.74747,-8.41068c-2.01941,-1.72739 -8.88423,-3.07063 -12.78268,-2.57791c-1.6423,0.20757 -2.36006,-3.10336 -1.81855,-5.58545c0.63637,-2.91687 3.05206,-6.16506 3.68264,-6.49504c0.44167,-0.23113 2.93556,-2.81134 7.61675,-2.80148c3.85729,0.00814 12.25729,8.65593 15.25029,8.06933c1.61052,-0.31566 -10.51877,-16.58053 -8.09082,-18.35116c4.65001,-3.39111 7.54585,-2.07703 11.81677,-3.20388c3.26873,-0.86244 10.6754,9.58595 10.81059,10.18602c0.23852,1.05878 14.81676,13.29029 15.20695,13.34484c2.88527,0.40339 1.11003,0.25629 4.0199,-0.15912c2.28352,-0.32599 11.74599,-6.28056 16.12952,-12.13802c3.81454,-5.09717 11.28659,-2.57437 12.81055,-2.62392c2.26442,-0.07363 7.86665,3.92404 6.17493,7.92187c-0.16305,0.3853 -6.53434,0.21541 -11.13466,1.01543c-5.31601,0.92449 -8.93784,2.80558 -8.7252,2.86155c8.92156,2.34855 19.48732,2.49158 24.72259,9.78188c3.72564,5.1881 7.73149,13.74554 7.73149,16.25407z" fill="#ac1e52" stroke="#000000" stroke-width="3.5"/><path d="M348.5655,275.29475c0,5.29586 -35.55456,21.53341 -55.75257,21.53341c-20.19801,0 -31.04651,-10.09369 -31.04651,-10.09369c0,0 -6.12253,-2.17976 -6.14881,-8.06386c-0.01799,-4.02757 4.32912,-11.33297 5.45542,-16.76771c0.63392,-3.05883 -4.41206,16.77061 -3.60671,14.81522c1.06178,-2.57803 10.9873,-4.39499 11.40482,-4.82075c3.36363,-3.42998 5.2785,2.60541 12.33322,-1.19275c5.27794,-2.84156 11.30582,-4.91448 17.66011,-4.91448c4.85284,0 18.81923,-4.97577 27.88455,-3.58934c5.11563,0.78237 15.69763,1.22402 15.69763,1.22402z" fill="#730e67" stroke="none" stroke-width="0"/><path d="M339.13917,292.18885c-5.52688,4.86263 -13.85574,6.6622 -25.89898,9.18154c-17.10767,3.57879 -34.83374,2.33387 -44.94119,-0.6826c-4.95122,-1.47765 -12.62331,-4.06017 -15.34587,-7.14804c-1.56476,-1.77472 -3.66235,-4.63771 -4.03042,-7.31454c-0.51489,-3.74466 1.07889,-7.44707 1.00781,-10.13391c-0.15038,-5.68396 -0.74079,-7.07324 -0.74079,-7.94872c0,-2.17594 7.93702,-5.63325 7.93702,-5.63325c0,0 1.75361,2.48229 1.7753,6.82841c0.018,3.60746 -3.44597,8.14 -2.76437,11.41607c0.76974,3.6997 4.55453,5.4098 6.17601,6.19285c5.80516,2.80343 20.32557,4.98034 33.95149,4.88519c11.01315,-0.0769 22.21644,-2.99775 25.18133,-4.52674c4.54392,-2.3433 28.35404,-13.7403 28.35404,-13.7403c0,0 0.10492,2.95422 -0.30228,4.89763c-1.16102,5.54117 -3.44211,8.80419 -6.35909,11.37059z" fill="#ac9ff9" stroke="#000000" stroke-width="4"/><path d="M291.75741,249.85261l-15.9623,8.74961c0,0 -5.46979,6.19409 -7.01689,3.5745c-0.33591,-0.56878 -6.88011,-6.44066 -6.66683,-8.37833c0.22516,-2.04561 7.22582,-0.19209 7.52637,-2.03017c0.27052,-1.65442 0.6172,-2.54668 0.39955,-2.9152c-1.45069,-2.45634 -3.98675,-6.75042 -3.98675,-6.75042l11.55079,-7.3888z" fill="#730e67" stroke="none" stroke-width="0"/><path d="M336.62236,242.80623c-0.57182,0.86933 -0.65232,1.34863 -1.95944,1.61143c-3.41972,0.68753 -10.05723,0.90286 -11.52824,1.73458c-0.52197,0.29512 -2.28051,-0.49468 -3.59328,0.1562c-3.04852,1.51153 -6.68064,5.55207 -8.36494,5.99966c-3.378,0.89769 -1.52936,-3.29656 -1.52936,-3.29656c0,0 3.27628,-3.75608 9.13434,-8.42274c5.53295,-4.40766 19.42217,-0.18656 17.84091,2.21744z" fill="#730e67" stroke="none" stroke-width="0"/><path d="M347.49232,277.79384c-0.21355,5.36703 -2.82272,6.94268 -4.216,8.90579c-0.67537,0.95159 -2.1473,3.31184 -4.73962,4.94413c-1.76277,1.10996 -4.4545,1.47623 -6.16788,2.4176c-7.21027,3.96152 -18.66956,5.55135 -21.26075,6.00779c-2.84567,0.50127 -13.00185,1.36751 -16.08884,1.62035c-16.90213,1.38439 -27.9205,-3.01074 -27.9205,-3.01074c0,0 22.51824,5.13903 55.14565,-4.63325c4.48943,-1.34463 25.3524,-18.87645 25.24795,-16.25166z" fill="#9564ed" stroke="none" stroke-width="0"/><path d="M298.77298,266.16956c0,2.50835 -30.79874,-0.51949 -30.79874,-4.03714c0,-1.26302 6.54097,-5.96904 12.06026,-8.99436c5.44203,-2.98298 11.19675,-4.29454 11.19675,-4.29454l4.49294,5.33782c0,0 2.69933,1.56014 4.10607,1.50387c1.26486,-0.0506 3.25242,-0.817 3.25242,-0.817c0,0 2.15661,-3.78273 5.68081,-4.82936c3.21634,-0.9552 9.26791,3.117 8.57448,4.17162c-1.40225,2.13266 -18.56498,11.69623 -18.56498,11.9591z" fill="#ac9ff9" stroke="#000000" stroke-width="2.5"/><path d="M296.36364,256.78342c0,0.89289 1.29874,-1.57942 7.67618,-1.4554c0.84907,0.01651 0.32595,0.13929 0.65463,-0.60241c0.64517,-1.45587 2.0363,-4.32226 5.77027,-4.41363c2.48811,-0.06088 4.63086,1.64487 5.24881,3.21295c0.76558,1.94268 -0.33375,3.85404 -0.38245,4.06588c-0.50752,2.2076 -15.43813,7.73748 -16.7335,7.73748c-2.61536,0 -13.505,-13.79355 -13.505,-13.79355l5.43707,-2.35499c0,0 4.03397,3.41927 4.03397,6.39213z" fill="#9564ed" stroke="none" stroke-width="0"/><path d="M319.62686,260.8413c-3.71138,2.08792 -14.53122,3.38674 -23.85245,3.74639c-9.19162,0.35464 -19.6242,4.65245 -24.72608,5.0247c-2.0969,0.153 -2.71771,-0.54542 -2.87139,-1.77136c-0.35845,-2.85938 12.27131,-8.72262 26.5581,-11.29404c6.35268,-1.1434 15.33642,-1.05278 20.14111,0.19736c4.8439,1.26036 5.47996,3.6867 4.75074,4.09695z" fill="#ac9ff9" stroke="#000000" stroke-width="2.5"/><path d="M298.4141,268.55738c-10.40983,0.58384 -21.46722,6.43061 -26.84355,6.73365c-2.2097,0.12455 -2.53044,-2.26401 -2.67322,-3.49192c-0.33296,-2.86394 11.68032,-6.18365 26.75932,-8.56113c6.70494,-1.05715 17.61777,-2.22534 22.65606,-0.91016c5.07941,1.32591 6.44002,3.40677 5.66601,3.80709c0,0 -15.76221,1.87271 -25.56463,2.42247z" fill="#ac9ff9" stroke="#000000" stroke-width="2.5"/><path d="M268.79978,258.43321c0,0 -2.18754,3.4652 -1.83036,4.75599c0.3027,1.09387 2.82207,0.95286 2.23001,1.92103c-1.61115,2.63464 -6.41604,2.90792 -8.18646,2.62286c-0.7202,-0.11595 -1.01704,-1.9922 -1.33297,-5.1639c-0.2228,-2.2368 -2.2551,-4.71937 -2.65208,-4.6566c-1.53653,0.24295 -1.25967,-2.67713 -2.45307,-2.67713c-3.87459,0 -6.55039,1.95078 -10.52337,0.50464c-2.37133,-0.86315 0,-5.55106 0,-5.55106c0,0 5.46489,-0.76628 8.04712,-0.63455c2.88059,0.14696 13.70117,3.83061 13.70117,3.83061z" fill="#730e67" stroke="none" stroke-width="0"/><path d="M308.20734,256.41317l-3.35475,4.54656l-8.74713,1.34094l-5.08631,-3.86893c0,0 5.69781,-2.1274 9.43311,-2.51924c3.74794,-0.39317 7.75504,0.50066 7.75504,0.50066z" fill="#9564ed" stroke="none" stroke-width="0"/><path d="M255.6272,255.7401c0,0.70824 3.91699,3.86892 2.63084,3.86892c-1.09372,0 -1.59116,-1.50102 -4.24879,-2.17515c-3.69742,-0.93786 -9.40697,-0.61367 -9.40697,-1.42443c0,-1.39353 3.32327,-4.13826 5.93863,-4.13826c2.61535,0 5.0863,2.4754 5.0863,3.86893z" fill="#000000" stroke="none" stroke-width="0"/><path d="M323.97943,245.93046c0,0.85401 -5.01601,4.3615 -6.34301,7.40105c-0.95216,2.18095 -1.27837,-0.41358 -1.27837,-0.41358c0,0 -6.57509,-4.0606 -6.57509,-4.40914c0,-0.91404 5.26319,-2.36077 7.12471,-3.49871c2.30092,-1.40656 7.07175,0.92038 7.07175,0.92038z" fill="#000000" stroke="none" stroke-width="0"/></g><path d="M315.89576,55.21467l-0.66667,45.33333" fill="none" stroke="#000000" stroke-width="2" stroke-linecap="round"/><path d="M321.56243,49.88133v71" fill="none" stroke="#000000" stroke-width="2" stroke-linecap="round"/><path d="M330.89576,44.548l-1,72.33333" fill="none" stroke="#000000" stroke-width="2" stroke-linecap="round"/><path d="M338.56243,49.548l-1.33333,77.33333" fill="none" stroke="#000000" stroke-width="2" stroke-linecap="round"/><path d="M343.56243,126.88133l3,-71.33333" fill="none" stroke="#000000" stroke-width="2" stroke-linecap="round"/><path d="M353.89576,67.548l-3,62" fill="none" stroke="#000000" stroke-width="2" stroke-linecap="round"/><path d="M251.02346,137.00267c-0.51765,2.71247 -6.95654,-0.0636 -12.87877,-1.19381c-5.92223,-1.13021 -10.01096,-3.87267 -9.49331,-6.58514c0.51765,-2.71247 6.68082,-1.14221 12.60305,-0.012c5.92223,1.13021 10.28668,5.07848 9.76903,7.79095z" fill="#000000" stroke="none" stroke-width="0" stroke-linecap="butt"/><path d="M289.4233,153.04834c-1.19294,1.96783 -8.69394,0.1436 -14.91228,-3.62608c-6.21834,-3.76968 -10.14243,-7.58433 -8.9495,-9.55216c1.19294,-1.96783 8.22736,-0.15302 14.44571,3.61666c6.21834,3.76968 10.60901,7.59374 9.41607,9.56158z" fill="#000000" stroke="none" stroke-width="0" stroke-linecap="butt"/><path d="M282.10149,161.6743c-1.34712,3.57456 -15.53237,-2.98909 -26.81591,-7.24143c-11.28354,-4.25234 -22.64699,-8.56364 -21.29987,-12.1382c1.34712,-3.57456 8.34313,-0.16923 25.71075,7.48584c13.312,5.86749 23.75214,8.31923 22.40503,11.89378z" fill="#b34783" stroke="#000000" stroke-width="2.5" stroke-linecap="butt"/><path d="M358.56243,91.21467l-0.33333,34.33333" fill="none" stroke="#000000" stroke-width="2" stroke-linecap="round"/></g></g></svg>