<svg version="1.1" xmlns="http://www.w3.org/2000/svg" xmlns:xlink="http://www.w3.org/1999/xlink" width="347" height="286" viewBox="0,0,347,286"><g transform="translate(-85,-40.50003)"><g data-paper-data="{&quot;isPaintingLayer&quot;:true}" fill-rule="nonzero" stroke-linejoin="miter" stroke-miterlimit="10" stroke-dasharray="" stroke-dashoffset="0" style="mix-blend-mode: normal"><path d="M85,326.50003v-286h347v286z" fill="none" stroke="none" stroke-width="0" stroke-linecap="butt"/><text transform="translate(211.31493,116.89696) scale(0.20618,0.20183)" font-size="40" xml:space="preserve" fill="#000000" fill-rule="nonzero" stroke="none" stroke-width="1" stroke-linecap="butt" stroke-linejoin="miter" stroke-miterlimit="10" stroke-dasharray="" stroke-dashoffset="0" font-family="Sans Serif" font-weight="normal" text-anchor="start" style="mix-blend-mode: normal"><tspan x="0" dy="0">Polargaming64</tspan><tspan x="0" dy="46.150000000000006px"> </tspan><tspan x="0" dy="46.150000000000006px">MeIzAwezomeDede</tspan><tspan x="0" dy="46.150000000000006px"> </tspan><tspan x="0" dy="46.150000000000006px">AwezomeXD</tspan></text><g stroke-linecap="butt"><path d="M307.7738,233.47217c-6.87467,1.66745 -22.3347,-4.99891 -24.36036,-4.99891c-3.91661,0 -7.34493,-8.24494 -7.34493,-14.91441c0,-3.81291 7.02565,-13.78789 7.70094,-19.43249c0.50591,-4.22885 4.12947,-7.46905 5.80697,-7.46905c1.50888,0 6.79618,0.81128 11.27345,6.44681c3.75162,4.72216 -0.25595,11.18499 2.7092,15.68005c2.68154,4.06511 14.89051,0.75163 14.89051,2.69869c0,0 -4.25832,20.43276 -10.67579,21.98931z" fill="#aa96c7" stroke="#000000" stroke-width="3.5"/><path d="M301.48027,194.26021c0,0 -0.93068,6.70223 -0.61088,9.2471c0.22483,1.7891 1.08088,5.56203 1.08088,5.56203c0,0 -7.75305,5.74018 -12.42045,6.50714c-3.86313,0.63481 -10.59088,-0.98678 -10.59088,-0.98678c0,0 -3.84192,-15.06077 -0.21687,-15.97681c0.77853,-0.19673 3.73443,-11.96349 8.64855,-9.48153c5.19322,2.62292 14.10965,5.12884 14.10965,5.12884z" fill="#a7649a" stroke="none" stroke-width="0"/><path d="M287.62263,228.47002c5.6411,1.73789 16.2285,0.5036 19.9255,-1.22521c6.64296,-3.10642 9.9639,-15.64236 9.9639,-15.64236c0,0 10.70039,5.41391 10.98043,11.82578c0.14354,3.28637 -5.26653,17.23358 -8.18034,21.38526c-2.9203,5.26769 -8.14597,6.59578 -10.87687,7.20697c-3.27251,0.16173 -14.15129,-4.95912 -16.80002,-10.37434c-1.47271,-3.01091 -5.16419,0.46742 -5.16419,0.46742c0,0 -6.9534,-4.92398 -7.76813,-4.59349c-3.83065,1.55388 -1.40531,1.93833 -5.49358,6.04787c-0.36114,0.36302 -3.48402,1.49113 -3.79214,1.89881c-0.37304,0.49357 -6.01801,-1.48885 -6.01801,-1.48885c0,0 -7.08227,-4.1991 -9.37627,-4.46522c-2.01932,-0.23426 -7.21491,-0.02319 -7.21491,-0.02319c0,0 0.94002,-1.41273 -2.09531,-4.09116c-2.68842,-2.3723 -10.78348,-8.42153 -11.40344,-7.94981c-1.12133,0.85318 -2.04711,3.66055 -4.57099,6.83271c-2.19163,2.75457 -6.33558,4.58406 -6.33558,4.58406c0,0 -13.29868,-13.92659 -17.68717,-13.48061c-3.67824,0.37379 -5.72809,0.14156 -8.3471,0.57332c-6.11328,1.00781 -9.42401,1.66822 -9.42401,1.66822c0,0 0.47595,-4.36732 1.33106,-6.81627c1.08504,-3.10747 3.37195,-9.18766 4.65526,-10.32794c0.7628,-0.67779 4.3088,1.40874 7.09695,2.36797c3.40829,1.17259 11.86852,4.15689 11.86852,4.15689c0,0 14.22984,-13.5116 20.8907,-13.5116c13.10566,0 29.58847,5.41519 38.27093,10.41381c4.69551,2.70327 3.00509,7.10739 5.3867,9.7194c1.39305,1.52782 6.16535,3.34156 7.49342,3.7507z" fill="#0066cc" stroke="#000000" stroke-width="3.5"/><path d="M229.3799,248.5011c-1.10879,-0.16216 -3.88793,-2.3815 -5.1295,-4.58265c-0.56471,-1.00115 0.31358,-1.68395 -0.16685,-2.72107c-1.62432,-3.50648 -5.41711,-11.21595 -5.41711,-11.21595l6.81305,-8.10701c0,0 5.62569,-8.81082 17.83136,-8.62816c12.64957,0.1893 32.01628,9.40164 39.18169,11.13257c1.6197,0.39127 2.09005,3.29003 4.0667,5.30463c1.12308,1.14465 2.75798,0.67954 2.87889,0.83206c0.22696,0.28628 1.35154,8.46068 -1.01422,11.55021c-3.9032,5.09733 -11.83978,7.77328 -20.10558,8.47092c-4.22522,0.35662 -15.0537,8.42598 -20.51105,6.99603c-5.92429,-1.5523 -6.31961,-12.63053 -6.31961,-12.63053c0,0 -11.5815,3.67592 -12.10778,3.59895z" fill="#0f1b82" stroke="none" stroke-width="0"/><path d="M234.21742,228.24599l-4.76154,-6.84261c0,0 3.65726,2.71146 5.26999,3.95777c1.59521,1.23276 4.15178,3.67819 4.15178,3.67819z" fill="#000000" stroke="none" stroke-width="0"/><path d="M319.06401,213.07324l7.75,8.13425c0,0 0.96253,2.44985 -0.36804,5.71687c-1.74373,4.2815 -3.36775,12.69358 -6.24504,16.10721c-4.45693,5.2877 -6.92103,8.12229 -11.92637,8.61813c-0.84845,0.08405 -9.28017,7.33351 -11.42384,3.64117c-1.62171,-2.79332 -10.0562,-14.84456 -11.57163,-17.39124c-1.74631,-2.93469 4.29577,-7.43041 4.29577,-7.43041c0,0 10.48531,0.15844 16.2714,-1.05724c1.44588,-0.30378 -11.45813,6.05907 -11.45813,6.05907c0,0 11.18371,12.21191 13.43054,12.21191c4.90162,0 10.13948,-27.1315 10.13948,-27.1315z" fill="#0f1b82" stroke="none" stroke-width="0"/></g><path d="M304.51955,169.09623l-64.83799,13.88356c0,0 2.3436,-2.46095 3.2708,-5.0718c1.60608,-4.52244 4.28187,-10.9824 6.91435,-12.52293c3.94733,-2.30997 52.87992,-18.35377 52.87992,-18.35377c0,0 0.84225,17.36344 1.69133,18.55079c0.91839,1.28426 0.08158,3.51415 0.08158,3.51415z" fill="#cb8ad4" stroke="none" stroke-width="0" stroke-linecap="butt"/><path d="M241.92504,240.78666c-35.25581,0 -32.12976,-39.74984 -32.12976,-39.74984c0,0 11.82933,-10.79498 24.69836,-17.51584c12.41524,-6.48388 7.13454,-23.86982 18.98546,-23.74721c1.20613,0.01248 37.81827,-14.33743 47.36909,-16.24222c7.74438,-1.54451 0.2838,12.21851 4.7789,18.6149c1.54309,2.19576 -1.21167,8.75602 -0.43588,13.53334c0.82922,5.10639 -0.65968,11.4079 -0.99254,13.15204c-0.59318,3.1082 -5.54348,16.82327 -11.21215,17.27988c-2.3273,0.1091 -4.37642,0.49016 -6.32659,0.42304c-3.68955,-0.12698 -6.50225,-0.37222 -6.50225,-0.37222c0,0 -2.46193,4.64643 -2.76773,9.81563c-0.2489,6.67475 8.95812,13.18434 8.95812,13.18434c0,0 -19.58413,11.62416 -44.42303,11.62416z" fill="#a99cf6" stroke="#000000" stroke-width="3.5" stroke-linecap="butt"/><path d="M300.41752,176.64822c0,0 4.11992,3.30742 3.1845,9.56475c-0.66555,4.45208 -6.36189,16.17327 -7.84332,17.06268c-1.46089,0.87708 -4.71138,1.69986 -7.72488,1.53829c-3.93616,-0.21105 -8.3765,-0.90224 -8.58221,-0.30175c-0.16472,0.4808 -1.5908,0.68187 -2.4054,4.46504c-0.93269,4.33169 -1.45324,8.61634 -1.45324,8.61634c0,0 2.1663,4.06333 3.55097,5.89349c1.38147,1.82593 4.74749,5.07477 4.74749,5.07477l-12.04289,5.23742c0,0 0.09362,-23.65741 -0.13364,-25.07574c-0.07832,-0.4888 -14.76738,6.94792 -26.38178,8.89883c-10.92899,1.83579 -19.83917,1.13991 -19.87396,0.43903c-0.22958,-4.62428 9.33646,-30.414 9.33646,-30.414z" fill="#9363ea" stroke="none" stroke-width="0" stroke-linecap="butt"/><path d="M280.62741,204.39362l-1.77291,2.4842c0,0 -1.58712,0.44887 -3.30473,0.04583c-1.27804,-0.29989 -2.62832,-1.36656 -3.45076,-1.86888c-1.95538,-1.19427 -6.24588,-5.96642 -6.24588,-5.96642c0,0 6.04494,3.33478 8.42748,4.21663c2.03787,0.75427 6.3468,1.08863 6.3468,1.08863z" fill="#000000" stroke="none" stroke-width="0" stroke-linecap="butt"/><path d="M265.49875,211.18293c1.78494,2.01862 3.63071,5.58765 -0.14774,9.66803c-4.42811,4.78196 -15.17791,1.28925 -21.07729,-1.15774c-0.63864,-0.2649 -1.37251,-0.63365 -2.10758,-1.03343" fill="none" stroke="#ac0023" stroke-width="3.5" stroke-linecap="round"/><path d="M267.65162,216.16888c0,0 -8.62072,0.73522 -12.95025,-0.18011c-0.68504,-0.14483 -1.481,-0.36288 -2.34575,-0.63187" fill="none" stroke="#ac0023" stroke-width="3.5" stroke-linecap="round"/><path d="M247.16673,198.31629c0,0 7.85693,4.27295 10.77071,6.30923c2.47793,1.73169 7.1142,6.12877 7.1142,6.12877" fill="none" stroke="#4d003b" stroke-width="3.5" stroke-linecap="round"/><path d="M242.59703,218.8504l-11.7656,-7.42422l4.34541,-5.2822l17.2687,9.32611" fill="none" stroke="#4d003b" stroke-width="3.5" stroke-linecap="round"/><path d="M318.95583,179.23298c-4.99166,-2.34667 -0.88311,-5.77909 -1.00695,-9.01533c-0.23039,-6.02039 1.12914,-5.00499 12.59116,-5.42526c4.2177,-0.15465 16.06204,4.42481 20.59685,11.17198c2.85859,4.25319 0.24842,12.70923 -0.93015,13.41664c0,0 -2.79504,2.77637 -6.61541,1.39935c-2.91652,-1.05124 -5.81987,-6.09862 -8.983,-8.90375c-0.48065,-0.42625 -1.37254,-2.18909 -1.86614,-2.48991c-0.43615,-0.26579 -0.51433,0.90296 -1.03209,0.72202c-4.44871,-1.55462 -11.43309,-0.25465 -12.75427,-0.87575z" fill="#0045d8" stroke="#000000" stroke-width="5" stroke-linecap="butt"/><path d="M347.39124,188.91145c-2.43614,0.54079 -5.13986,-0.3495 -7.4464,-3.31778c-1.09976,-1.41527 -3.15965,-3.29292 -4.31384,-4.72243c-1.15939,-1.43594 -1.21143,-3.41316 -2.75006,-3.82414c-1.45348,-0.38823 -1.95505,0.93243 -3.43988,0.98069c-3.4608,0.11251 -7.77265,0.855 -9.75691,-0.36259c-1.83673,-1.12706 -1.98887,-4.6958 -1.98887,-4.6958c0,0 8.36779,-0.54473 14.15458,0.1364c3.39907,0.40008 9.11935,3.75451 13.12646,5.09537c2.63934,0.88318 4.53544,-0.60053 4.53544,-0.60053c0,0 0.70502,2.38382 0.46512,5.02031c-0.22848,2.51098 -1.37056,5.86459 -2.58563,6.29049z" fill="#0a1293" stroke="none" stroke-width="0" stroke-linecap="butt"/><path d="M182.20262,201.19649c-0.15275,-3.99176 -12.5389,-0.35326 -7.65532,-2.85796c2.16113,-1.1084 4.00232,-5.43248 8.44637,-9.07323c4.69482,-3.84619 11.94185,-6.98733 11.94185,-6.98733c0,0 1.2352,-0.01707 -0.12091,-3.64476c-1.42716,-3.81775 -4.04357,-11.43528 -4.04357,-11.43528c0,0 25.27255,-19.19684 52.53503,-21.3625c25.33273,-2.01238 53.33861,14.96441 56.31553,18.7978c0.26625,0.34285 1.38687,6.53357 0.36526,11.67503c-0.75958,3.82273 -2.72599,6.47455 -6.98825,8.84943c-13.69896,7.63287 -31.09791,16.03875 -47.77455,20.48947c-10.60748,2.83095 -26.08727,6.33928 -39.59614,5.10282c-12.40044,-1.13498 -23.25605,-5.13079 -23.42529,-9.5535z" fill="#aa96c7" stroke="#000000" stroke-width="3.5" stroke-linecap="butt"/><path d="M298.27583,165.68056c0,0 2.36018,7.97133 -0.65733,12.89516c-2.89461,4.72326 -11.49098,8.56914 -11.49098,8.56914l-5.32619,-5.28934l-9.83076,11.00716l-11.17634,-17.73275l-5.36588,11.37526l-5.53379,-14.85809l-23.80808,13.93095l-1.03107,-17.09703c0,0 -9.17869,0.28259 -13.69968,1.53718c-5.19197,1.44078 -14.70557,6.62644 -14.70557,6.62644l-3.55012,-8.22872c0,0 66.71695,-21.79767 73.33324,-22.04028c6.6163,-0.2426 32.84254,19.30491 32.84254,19.30491z" fill="#a7649a" stroke="none" stroke-width="0" stroke-linecap="butt"/><path d="M299.93351,166.84527c-7.08385,-0.42282 -34.15736,-3.23699 -44.76097,-8.87361c-20.45447,-10.87308 -33.2317,-13.3586 -43.73865,-12.97335c-19.9421,0.73122 -31.36249,10.54129 -31.71505,1.32828c-0.08207,-2.14472 -8.78948,-32.81163 -7.26568,-34.75358c5.02191,-6.40004 12.79576,-26.02824 66.91831,-28.42851c14.69324,-0.59348 39.62161,9.6922 41.38027,10.34845c16.32072,6.09002 36.11337,42.55995 36.41493,50.44025c0,0 1.60994,3.42056 -0.12009,6.45534c-1.86415,3.27007 -6.15715,4.6256 -9.3591,7.84246c-3.48468,3.50093 -5.88249,8.72599 -7.75399,8.61428z" fill="#ac1e52" stroke="#000000" stroke-width="5" stroke-linecap="butt"/><path d="M223.70485,158.88621c-5.53311,0.8395 -11.64824,1.4927 -15.5215,2.43086c-8.45146,2.02524 -16.21575,9.05596 -16.21575,9.05596l0.4452,3.8089c0,0 -5.61054,2.26544 -9.08445,4.63904c-4.03936,2.75995 -14.52263,11.53207 -14.52263,11.53207c0,0 -1.90093,-12.18209 -1.63866,-17.61649c0.25836,-5.35346 4.41646,-14.55242 4.41646,-14.55242l-24.74157,-12.00182c0,0 11.94749,-10.2284 22.76669,-19.94816c5.4136,-4.86347 8.87331,-13.91187 12.54049,-14.04634c0.73625,-0.02699 8.04614,1.18725 15.44682,3.36056c5.04247,1.48079 10.54615,4.03568 13.10847,5.06021c1.06722,0.42673 1.28924,0.09618 1.28924,0.09618c0,0 -0.66442,-5.29494 -1.01056,-8.05349c-0.36579,-2.91507 -2.74946,-9.19166 -2.74946,-9.19166c0,0 0.79931,0.27161 2.1105,1.11125c2.7784,1.77919 7.85522,5.41665 12.49581,9.56187c2.44598,2.18488 10.20616,7.76959 15.75768,15.64578c8.49848,12.05717 15.08761,27.35269 15.08761,27.35269l-20.3328,14.55218c0,0 0.04121,-2.78947 -0.04632,-4.94737c-0.09767,-2.40806 1.71619,-9.82466 1.71619,-9.82466c0,0 -5.2953,1.06116 -11.31746,1.97486z" fill="#44acff" stroke="#000000" stroke-width="3.5" stroke-linecap="butt"/><path d="M222.4235,133.73729c-0.8071,-2.4102 -4.57303,-8.79545 -4.57303,-8.79545l10.08164,10.43384l-3.98501,-18.00835c0,0 3.6572,2.42568 7.40339,6.07358c3.29274,3.20635 6.56208,7.44718 8.74588,10.57322c4.59084,6.57168 11.63209,23.12156 11.63209,23.12156l-16.60866,11.20205c0,0 0.48347,-4.44339 0.83938,-6.74852c0.37397,-2.42201 1.35297,-6.65687 1.35297,-6.65687c0,0 -6.42689,1.19939 -13.59106,2.26147c-5.31395,0.78779 -13.35348,1.43073 -16.76847,2.66231c-6.59031,2.84657 -15.84474,8.78325 -15.84474,8.78325l-0.18615,4.75305c0,0 -4.92315,2.3869 -7.87401,3.75159c-3.20972,1.9748 -7.36512,5.36855 -7.36512,5.36855c0,0 -1.99422,-10.34853 -0.31166,-15.36598c1.90432,-5.67872 11.15488,-16.96878 11.15488,-16.96878l-15.36186,-9.45023c0,0 14.1952,-3.95341 19.46411,-6.36339c4.02531,-1.84117 10.44822,-6.85503 10.44822,-6.85503c0,0 4.59577,1.01826 7.18232,2.12063c4.02705,1.7163 14.6347,7.17765 14.6347,7.17765c0,0 0.26149,-0.88638 -0.46979,-3.07014z" fill="#356fee" stroke="none" stroke-width="0" stroke-linecap="butt"/><path d="M300.32265,166.32934c0,0 -9.36549,-2.32794 -14.33915,-3.30304c-5.40928,-1.06052 -19.14464,-3.57077 -19.14464,-3.57077c0,0 -4.53282,-4.92689 -4.2998,-12.03287c0.25874,-7.89063 -1.10951,-17.75565 2.0289,-26.04403c4.42771,-11.69335 14.31367,-20.73963 19.87608,-20.94358c1.05642,-0.03874 3.36109,0.40606 3.36109,0.40606c0,0 2.26858,-3.46753 9.77852,6.48974c8.55021,11.33649 24.94371,32.26237 25.59559,38.7657c0.01101,0.10977 0.04025,4.55125 -1.83169,7.54464c-2.08851,3.33972 -6.17159,5.36239 -7.65471,7.5168z" fill="#730e67" stroke="#000000" stroke-width="2.5" stroke-linecap="butt"/><path d="M320.17689,160.38416c2.63952,3.05539 2.16996,4.8075 -0.91139,15.83358c-1.96912,7.0462 -8.94697,14.08252 -11.93099,14.19194c-2.5364,0.093 -11.00152,-7.94556 -11.00152,-7.94556l1.69326,-3.88804l1.17011,-3.64005l0.15068,-5.12866l1.40542,-2.01339c0,0 2.06378,-3.7912 5.55751,-6.09847c4.34379,-2.86866 11.06351,-4.2012 12.98888,-1.97248z" fill="#aa96c7" stroke="#000000" stroke-width="4.5" stroke-linecap="butt"/><path d="M315.43379,179.72349c0,0 -5.32384,9.23422 -7.2367,8.94104c-0.80277,-0.12304 -3.44493,-1.29435 -5.3006,-2.61246c-2.5662,-1.8228 -4.57035,-4.32297 -4.57035,-4.32297c0,0 2.08394,-8.18527 2.95434,-9.12718c0.85612,-0.92646 13.79917,-3.78184 13.79917,-3.78184l-3.75975,8.92098z" fill="#a7649a" stroke="none" stroke-width="0" stroke-linecap="butt"/><path d="M302.51668,172.63533c-0.13746,-1.21397 11.59743,-4.64946 12.4074,-3.84964c0.92564,0.91403 -4.98511,13.50661 -6.06445,14.31963c0,0 -6.23245,-9.4942 -6.34295,-10.46999z" fill="none" stroke="#000000" stroke-width="2" stroke-linecap="butt"/><path d="M313.91324,263.13798l-4.29005,1.94266l-5.15215,-0.189c0,0 1.57175,-0.58635 4.4589,-1.11626c2.88714,-0.5299 4.9833,-0.6374 4.9833,-0.6374z" fill="#db93e6" stroke="none" stroke-width="0" stroke-linecap="butt"/><g stroke-linecap="butt"><path d="M253.89182,257.27205c0,4.96078 -0.84742,7.52225 -7.01726,11.78167c-7.019,4.84565 -20.70855,-0.37998 -32.89553,3.86825c-45.04211,15.70107 -68.63851,3.04035 -68.63851,3.04035c0,0 1.30009,0.7848 1.30009,-6.66407c0,-5.18812 22.80214,-19.18211 44.73705,-24.83043c1.91312,-0.49263 -5.49243,-6.45064 -5.49243,-6.45064c0,0 -8.59044,-7.50961 -3.50205,-10.40347c1.10117,-0.62625 16.18807,-6.05517 24.17337,-3.16703c7.12782,2.57802 14.44627,14.14331 14.44627,14.14331l1.89794,4.42036c0,0 14.74911,-3.81126 21.38039,-1.31274c1.76354,0.66447 2.27423,8.62346 3.30599,10.13405c5.25388,7.69218 6.30471,4.22046 6.30471,5.44041z" fill="#ac1e52" stroke="#000000" stroke-width="3.5"/><path d="M252.73337,260.15603c0,5.8324 -15.58626,16.4133 -39.37688,16.4133c-23.79063,0 -45.19092,7.23198 -45.19092,1.39958c0,-3.39734 -2.52179,-14.48141 8.01866,-20.59473c3.24272,-1.88074 10.16744,-6.01779 17.61938,-10.1278c2.94664,-1.62517 -3.21708,-10.10205 -0.23573,-11.73568c7.04511,-3.86036 22.43136,-0.41994 22.43136,-0.41994l4.09513,4.9206l-4.44241,3.35491c0,0 5.18585,0.6353 8.1912,0.06076c3.67448,-0.70246 16.21205,-2.76405 20.07801,0.06203c0.32924,0.24068 -0.662,1.77843 1.35217,6.35479c2.93011,6.65746 7.46006,9.7979 7.46006,10.31219z" fill="#750e69" stroke="none" stroke-width="0"/><path d="M248.50495,274.78807c-3.07711,1.7016 -8.52545,2.05503 -19.03688,2.57959c-5.62685,0.2808 -13.07381,0.61063 -21.55989,1.22255c-7.4079,0.53417 -12.03006,8.97988 -42.73168,9.57876c-22.12104,0.4315 -24.58343,-6.78676 -25.37625,-9.24576c-0.23336,-0.72376 -0.10644,-3.12016 1.27146,-5.88276c1.40486,-2.81667 5.36056,-3.42253 5.36056,-3.42253c0,0 3.78988,1.32983 6.12523,2.45731c4.81798,2.32609 17.11961,3.3857 28.28012,3.38976c11.2264,0.00409 27.03523,-9.83783 33.57593,-10.09231c8.87693,-0.34535 20.78176,0.74667 28.73952,-1.33405c7.58533,-1.98334 11.43946,-7.1518 11.43946,-7.1518c0,0 3.45718,3.04462 2.5602,6.8267c-1.07125,4.51682 -6.66293,9.97694 -8.64778,11.07454z" fill="#a99cf6" stroke="#000000" stroke-width="4.5"/><path d="M256.19387,263.59137c0,0 -1.99595,5.26463 -7.61227,8.97886c-2.00281,1.3245 -4.14498,1.212 -6.86867,1.92099c-14.8402,3.86288 -31.49256,0.36525 -37.13221,2.40409c-9.39516,3.39652 -8.27556,6.42997 -22.98316,7.75554c-6.77409,0.61053 -12.8785,1.33398 -12.8785,1.33398c0,0 -2.29924,-3.5461 -2.92564,-5.33802c-0.49327,-1.41107 -1.05821,-3.27472 -1.05821,-3.27472c0,0 14.09948,-0.54836 19.70817,-0.54836c5.01007,0 19.54646,-8.28314 28.19342,-10.19387c8.20876,-1.8139 18.6947,-0.42725 25.87654,-0.85323c5.5479,-0.32908 4.59911,-0.66158 7.58892,-1.17731c1.77145,-0.30558 7.74452,-5.90984 7.74452,-5.90984z" fill="#9363ea" stroke="none" stroke-width="0"/><path d="M221.13455,237.2538c0,0.29694 3.66262,-0.4059 3.66262,-0.4059c0,0 -2.0755,5.79071 -3.8291,6.92677c-2.68418,1.73894 -11.46159,1.41857 -11.46159,1.41857c0,0 4.78441,-1.7093 7.51784,-3.71893c2.86603,-2.10712 4.11023,-4.91109 4.11023,-4.22052z" fill="#000000" stroke="none" stroke-width="0"/><path d="M204.1798,250.87124c0,1.03111 -0.52982,3.97761 -2.29652,5.29259c-1.25669,0.93537 -4.89202,-0.1358 -5.21479,-0.36583c-2.03523,-1.4504 -3.71609,-3.77691 -5.84904,-4.9741c-5.01894,-2.81706 -10.15216,-1.50611 -10.15216,-6.22796c0,-3.09084 4.94013,-2.28919 11.35999,-2.28919c6.41986,0 12.15253,5.47364 12.15253,8.56449z" fill="#9363ea" stroke="#000000" stroke-width="3"/><path d="M196.20163,259.28094c0,1.52397 -0.61921,2.14233 -1.11506,2.62637c-0.44131,0.43082 -0.62018,0.8081 -2.71597,0.8081c-2.11014,0 -4.4712,-4.76501 -8.59384,-8.21055c-4.57244,-3.82143 -10.56125,-6.93838 -10.56125,-8.45304c0,-1.67265 1.39485,-2.56083 3.43608,-3.0116c0.78867,-0.17416 7.27531,2.79183 12.39899,6.97469c4.45127,3.63391 7.15105,7.92699 7.15105,9.26603z" fill="#9363ea" stroke="#000000" stroke-width="3"/></g><g stroke-linecap="butt"><path d="M353.11806,277.84928c0,6.42666 -32.40588,19.78274 -50.68353,19.78274c-10.85101,0 -29.53374,2.26115 -41.78623,-3.87832c-2.93548,-1.4709 -7.37374,-9.12813 -9.09231,-10.8489c-1.63248,-1.63456 -1.06178,-6.0889 0.61108,-9.14584c1.59698,-2.91828 6.71866,-4.46672 6.96043,-5.03959c1.80412,-4.27504 -1.15679,-7.81558 -2.62329,-8.88866c-2.17741,-1.59328 -8.68109,-0.52328 -12.378,-1.00003c-2.61504,-0.27417 -4.64327,-0.96656 -4.05937,-3.25593c0.68616,-2.6904 2.4225,-3.68226 3.1024,-3.98662c0.05752,-0.02575 2.04205,-0.32819 2.43898,-0.34281c2.88904,-0.10645 11.65283,-0.4011 14.49017,-0.8768c1.73653,-0.29115 6.2414,-0.13791 8.85932,-1.77108c2.05724,-1.28338 3.73905,-3.40404 7.40688,-5.76648c5.2713,-3.39521 12.48582,-3.50642 12.57178,-3.18003c0.25719,0.97657 3.30322,1.97977 6.29509,6.59019c2.78376,4.28972 9.01995,6.92003 9.44069,6.97035c3.11102,0.37207 2.46326,-0.12641 5.6008,-0.50957c2.46217,-0.30068 9.85728,-5.85649 14.58379,-11.25916c1.60199,-1.83117 0.38861,-1.30555 4.59205,-2.03409c6.58862,-1.14194 16.79031,-5.3197 17.7935,-5.3476c2.4416,-0.06792 6.34501,2.11167 4.52092,5.79909c-0.37896,0.76606 -15.68306,11.08471 -15.25539,11.18102c4.41335,0.99382 15.13033,3.29805 18.18541,6.93731c4.01714,4.78528 -1.57514,17.55706 -1.57514,19.87082z" fill="#ac1e52" stroke="#000000" stroke-width="3.5"/><path d="M348.72398,276.52288c0,4.88467 -38.08065,19.08546 -59.859,19.08546c-21.77835,0 -29.42328,-6.9819 -29.42328,-6.9819c0,0 7.49536,-10.72116 20.42192,-16.39112c5.45159,-2.39121 9.06615,-5.2551 15.52636,-5.2551c5.23253,0 20.29168,-4.58944 30.0663,-3.31065c5.51588,0.72162 -0.54051,-8.21728 -0.54051,-8.21728c0,0 6.07232,3.08319 6.36273,0.57423c0.35628,-3.07798 6.50881,-2.81122 6.50881,-2.81122c0,0 3.70049,0.84106 7.04497,1.87359c2.76616,0.85398 5.20878,1.91726 5.82593,2.04594c6.61325,1.37888 -1.93425,17.53668 -1.93425,19.38805z" fill="#750e69" stroke="none" stroke-width="0"/><path d="M357.94524,273.7142c0,5.52739 -14.20328,18.2361 -44.11826,23.58933c-18.44621,3.30092 -42.52185,6.06371 -53.42012,3.28146c-21.77966,-5.56025 -17.49999,-19.56504 -17.49999,-21.50185c0,-2.00699 7.12038,-4.88546 7.12038,-4.88546c0,0 -0.22258,11.86411 4.93909,13.99643c5.0184,2.07312 9.34301,4.51405 16.92792,5.15499c0.34395,0.02907 2.86015,0.62052 3.20666,0.64076c9.24693,0.54013 20.70231,-3.50199 27.5231,-3.50199c11.3671,0 32.30572,-5.82491 41.00366,-14.8894c1.99556,-2.07966 8.14174,-10.37896 8.22781,-13.83178c0.08166,-3.27573 -0.27599,-6.72331 -0.27599,-6.72331c0,0 -1.17324,-1.00197 0.89803,-0.7925c9.40573,0.95123 6.01043,15.98444 6.01043,17.60086z" fill="#a99cf6" stroke="#000000" stroke-width="4"/><path d="M274.84555,268.07541c0,0 -9.72248,2.09947 -12.86336,0.53507c-1.30756,-0.65126 -0.48223,-2.18418 -0.49481,-3.27145c-0.01615,-1.39641 -0.66242,-2.42577 -1.01105,-3.81054c-0.50281,-1.9972 -3.98443,-3.45789 -3.95765,-4.01814c0.1396,-2.92056 33.07561,-14.80252 33.07561,-14.80252c0,0 4.83302,4.95773 6.28315,6.70058c1.51519,1.82106 4.90084,5.3529 4.90084,5.3529l-9.50558,4.27024z" fill="#750e69" stroke="none" stroke-width="0"/><path d="M350.21483,237.19761c0,0 0.85171,0.52354 -0.85327,2.74088c-2.2296,2.89962 -8.8916,5.9725 -11.08394,7.03285c-0.5628,0.27221 -3.25735,3.80078 -4.67282,4.40113c-0.47359,0.20088 1.74907,0.55966 3.62378,1.3487c1.95342,0.82216 3.74132,2.07156 3.74132,2.07156c0,0 -21.65168,5.51386 -22.93346,5.80525c-3.64231,0.828 -5.2672,-5.90082 -5.2672,-5.90082c0,0 4.92513,-4.37518 6.85459,-6.68246c2.07282,-2.4787 5.1831,-7.71234 5.1831,-7.71234c0,0 1.18584,0.849 2.24695,0.94397c1.10849,0.0992 3.25496,-0.36091 3.25496,-0.36091c0,0 0.39559,4.67775 1.23916,4.10292c5.96587,-4.06543 18.66683,-7.79071 18.66683,-7.79071z" fill="#750e69" stroke="none" stroke-width="0"/><path d="M279.17965,257.42091l-1.57851,2.19246c0,0 -9.08965,-1.20866 -10.7288,-3.38725c-1.50044,-1.99424 -1.18718,-5.49679 -1.18718,-5.49679l3.54246,-2.17168c0,0 -0.17665,4.27994 1.71628,6.75977c2.00853,2.63126 8.23575,2.10348 8.23575,2.10348z" fill="#000000" stroke="none" stroke-width="0"/><path d="M356.59177,261.51576c0,0 1.74341,11.4328 -1.18922,14.94557c-1.79876,2.15458 -13.37333,12.05853 -24.2186,16.28213c-9.09432,3.54171 -20.68439,5.5476 -25.29746,5.8904c-28.18921,2.09475 -45.10703,0.49602 -45.10703,0.49602c0,0 23.41867,3.31341 58.59891,-5.70012c8.06263,-2.06573 19.46411,-8.01168 26.43486,-13.48465c6.11322,-4.7997 10.77855,-18.42935 10.77855,-18.42935z" fill="#9363ea" stroke="none" stroke-width="0"/><path d="M306.43538,264.13946c0,1.81308 -20.2351,11.17675 -28.67712,8.95803c-2.33047,-0.61248 -2.91282,-5.32137 -2.91282,-6.02327c0,-0.47671 2.36262,-6.2848 3.68093,-7.64838c1.90333,-1.96867 4.94832,-4.41791 8.4642,-6.06647c5.86782,-2.75137 11.02353,-4.35069 11.02353,-4.35069l5.13393,4.07336c0,0 2.91054,1.439 4.42733,1.38711c1.36382,-0.04667 3.5069,-0.75357 3.5069,-0.75357c0,0 2.19863,-1.59951 4.71879,-2.98823c0.64416,-0.35496 0.63295,-1.26965 1.4065,-1.46617c3.46798,-0.88103 9.99304,2.87499 9.24536,3.84773c-1.51197,1.96707 -20.01752,10.78809 -20.01752,11.03056z" fill="#a99cf6" stroke="#000000" stroke-width="2.5"/><path d="M311.54746,254.72422c2.19272,0.03647 0.48664,-2.92616 3.48011,-4.13017c0.70964,-0.28544 2.95828,-0.47202 4.12289,-0.4964c6.00648,-0.12573 7.21385,6.21891 7.11896,6.572c-0.54723,2.03619 -18.51788,7.2784 -19.9146,7.2784c-2.81998,0 -15.21293,-10.79966 -15.21293,-10.79966l6.65848,-3.38671c0,0 6.97881,2.76939 6.97881,5.51143c0,0 -0.10814,-0.66327 6.76829,-0.54888z" fill="#9363ea" stroke="none" stroke-width="0"/><path d="M327.30969,259.90619c-4.00176,1.92581 -8.23881,3.4342 -18.28936,3.76591c-7.94821,0.26233 -18.27738,5.51625 -24.89403,7.76387c-1.63379,0.55499 -5.93578,5.31841 -7.02512,5.3864c-2.26096,0.14112 -1.88107,-1.98586 -2.04677,-3.11662c-0.12959,-0.88434 4.29068,-7.23337 7.34176,-8.96906c6.04813,-3.44063 16.95268,-7.68054 27.19193,-9.25702c6.84972,-1.05462 12.65285,-2.05747 17.83347,-0.90439c5.22289,1.16251 0.67441,4.95251 -0.11189,5.33091z" fill="#a99cf6" stroke="#000000" stroke-width="2.5"/><path d="M329.22815,266.21788c-4.24743,1.8792 -5.29668,0.35121 -15.86605,0.85829c-8.85356,0.42478 -19.39045,7.45526 -25.98587,9.7654c-1.76608,0.61859 -7.78798,4.14749 -9.0124,4.20653c-2.38258,0.11488 -2.36662,-1.46741 -2.52055,-2.59996c-0.14843,-1.09215 7.33446,-6.38258 10.69137,-8.71179c4.76241,-3.30445 12.58089,-6.92189 22.11755,-8.20814c1.03684,-0.13985 2.167,-0.30414 3.35842,-0.47942c7.11592,-1.04688 11.35143,-2.01999 16.00481,-0.9809c5.47682,1.22295 2.89153,5.78075 2.05697,6.14998z" fill="#a99cf6" stroke="#000000" stroke-width="2.5"/><path d="M316.64506,259.49769l-13.33916,1.93525l-4.97771,-2.62737c0,0 7.40999,-1.96222 11.43754,-2.32363c4.04118,-0.36264 11.90764,-1.24546 11.90764,-1.24546z" fill="#9363ea" stroke="none" stroke-width="0"/><path d="M258.65949,258.62818c0,0.65325 10.82552,-1.67034 10.82552,-1.67034c0,0 -9.1348,5.54927 -10.52157,5.54927c-1.17929,0 0.81708,-1.69488 -2.04849,-2.31667c-3.98671,-0.86504 -10.35864,-1.12477 -10.35864,-1.87257c0,-1.28533 4.3055,-2.48219 7.12547,-2.48219c2.81998,0 4.9777,1.50718 4.9777,2.79251z" fill="#000000" stroke="none" stroke-width="0"/><path d="M343.62299,244.05808c0,0.78769 -4.92926,5.05756 -6.36008,7.8611c-1.02666,2.01162 -16.56793,1.83441 -16.56793,1.83441c0,0 8.40784,-1.61268 11.47656,-2.41125c2.44876,-0.63724 2.37406,-1.9979 2.37406,-2.31938c0,-0.84308 0.17766,-3.0311 2.18482,-4.08069c2.48095,-1.29735 6.89257,-1.92629 6.89257,-0.88421z" fill="#000000" stroke="none" stroke-width="0"/></g><path d="M275.74798,267.56858c0,0 -4.40534,0.67923 -8.4327,1.98906c-2.89045,0.94008 -10.30908,1.81623 -10.30908,1.81623l2.36344,-7.2198c0,0 4.21294,1.71722 6.669,2.31339c4.12498,1.00128 9.70935,1.10112 9.70935,1.10112z" fill="#000000" stroke="none" stroke-width="0" stroke-linecap="butt"/><path d="M223.25822,254.10065c0,0 8.72407,-2.2069 11.31089,-2.45842c2.64616,-0.25729 9.58536,-1.90927 9.58536,-1.90927" fill="none" stroke="#000000" stroke-width="2.5" stroke-linecap="round"/><path d="M314.95713,261.79657l-3.76292,2.12504l-3.61819,-0.85001z" fill="#9363ea" stroke="none" stroke-width="0" stroke-linecap="butt"/><path d="M167.86428,158.51277c0,0 -7.23879,-3.67156 -10.94694,-3.7301c-4.50911,-0.07119 -15.19087,1.15172 -15.19087,1.15172c0,0 4.12867,-1.73133 7.04381,-2.53893c2.31438,-0.64117 9.06438,-1.92365 9.06438,-1.92365z" fill="#000000" stroke="none" stroke-width="0" stroke-linecap="butt"/><path d="M299.6371,163.05501c0,0 -0.47674,4.91951 -0.01751,7.23718c0.62106,3.13438 3.40715,9.86987 3.40715,9.86987c0,0 -13.3826,-0.85065 -17.63677,-3.84293c-3.04163,-2.13944 -9.74904,-6.67508 -9.74904,-6.67508l-4.97741,10.25192c0,0 -5.99711,-8.3248 -9.14217,-12.52759c-1.90624,-2.54735 -4.86607,-5.45505 -6.50015,-7.36152c-0.72133,-0.84157 -1.18434,-1.9671 -1.18434,-1.9671z" fill="#44acff" stroke="#000000" stroke-width="3" stroke-linecap="butt"/><path d="M302.37244,178.76814c0,0 -8.28752,-0.25576 -12.21082,-1.71806c-4.51814,-1.68401 -14.78463,-9.2034 -14.78463,-9.2034l-5.10266,8.85535l-5.02667,-6.3088l-1.51783,-7.30038l-6.20429,-3.11153c0,0 13.64809,1.54878 20.43802,2.2108c6.61403,0.64486 19.99033,2.10788 19.99033,2.10788c0,0 -0.0661,5.93114 0.78725,8.52218c0.82084,2.49228 3.63128,5.94597 3.63128,5.94597z" fill="#356fee" stroke="none" stroke-width="0" stroke-linecap="butt"/><path d="M258.0296,174.6772l-6.28118,-15.86692l5.26809,1.78503z" fill="#000000" stroke="none" stroke-width="0" stroke-linecap="butt"/><path d="M237.42767,129.69288c0,0 -2.22578,-10.43556 -2.79527,-15.45271c-0.52428,-4.61874 0.76908,-14.54569 0.76908,-14.54569c0,0 1.37606,13.93559 3.2703,20.08815c1.81726,5.90255 6.60737,17.09996 6.60737,17.09996z" fill="#000000" stroke="none" stroke-width="0" stroke-linecap="butt"/><path d="M273.34751,76.4891l1.3508,48.59245" fill="none" stroke="#000000" stroke-width="2" stroke-linecap="round"/><path d="M281.45226,131.36222l-0.33769,-65.1205" fill="none" stroke="#000000" stroke-width="2" stroke-linecap="round"/><path d="M287.53082,63.26667l0.3377,73.71508" fill="none" stroke="#000000" stroke-width="2" stroke-linecap="round"/><path d="M295.97329,142.93184l-0.3377,-73.05395" fill="none" stroke="#000000" stroke-width="2" stroke-linecap="round"/><path d="M301.71414,139.62623l-0.33769,-66.11217" fill="none" stroke="#000000" stroke-width="2" stroke-linecap="round"/><path d="M309.48121,88.38929l-0.33769,47.93134" fill="none" stroke="#000000" stroke-width="2" stroke-linecap="round"/><path d="M224.90978,184.91656c0.77733,3.36551 -2.12274,8.06249 -6.81612,9.10118c-4.69338,1.03869 -9.20017,0.40579 -9.9775,-2.95973c-0.77733,-3.36551 2.19464,-7.72916 6.88802,-8.76785c4.69338,-1.03869 9.12827,-0.73912 9.90559,2.6264z" fill="#000000" stroke="none" stroke-width="0" stroke-linecap="butt"/><path d="M265.04015,195.32574c1.74882,3.85415 -7.55445,9.91118 -16.48402,11.66603c-17.14357,3.36909 -19.17687,1.67468 -19.17687,-2.54255c0,-4.21723 9.09612,-6.27675 18.5233,-9.42099c7.73058,-2.57837 15.31402,-3.72139 17.13759,0.2975z" fill="#ad447f" stroke="#000000" stroke-width="2.5" stroke-linecap="butt"/><path d="M262.40611,185.30975c0,3.94338 -2.76474,6.48176 -11.10153,6.48176c-8.3368,0 -11.59176,-1.15003 -11.59176,-5.09341c0,-3.94338 4.71902,-7.93346 13.05581,-7.93346c8.3368,0 9.63748,2.60173 9.63748,6.54511z" fill="#000000" stroke="none" stroke-width="0" stroke-linecap="butt"/><g><path d="M179.72682,251.82019c0,0 -6.65432,4.86739 -11.05176,3.17938c-0.45437,-0.1744 -10.67671,-6.18851 -4.31589,-14.46699c1.37812,-1.79359 5.34602,-9.02715 8.9354,-9.17255c7.02189,-0.2844 8.84325,-4.15831 8.98511,-4.48041c1.87548,-4.25827 3.60569,-11.68335 6.56164,-10.43948c1.51621,0.63802 4.12458,6.38023 6.7171,14.19031c0.7208,2.17147 6.64639,-3.25041 7.20617,-1.18825c0.16463,0.60655 -1.8137,7.24339 -1.66717,7.80369c1.05708,4.04057 -3.18667,9.13853 -3.75402,10.4267c-1.11821,2.53892 -4.86653,3.07917 -10.03398,1.72459c-1.82051,-0.47721 -5.91383,1.42016 -5.91383,1.42016z" fill="#a7649a" stroke="#000000" stroke-width="3" stroke-linecap="butt"/><path d="M133.79044,231.15037c-6.25014,-3.47708 -6.63902,-10.95009 -3.12406,-16.99339c3.51494,-6.04331 46.62707,-14.41979 52.87721,-10.9427c6.25012,3.47707 7.45242,15.65097 3.93749,21.69427c-3.51494,6.04331 -47.44051,9.7189 -53.69066,6.24182z" fill="#303f97" stroke="#000000" stroke-width="2.5" stroke-linecap="butt"/><path d="M132.52698,219.79429c-0.74314,-0.14122 -1.16875,-1.1406 -0.95055,-2.23217c0.21814,-1.09155 0.99743,-1.86195 1.74058,-1.72072c0.74314,0.14122 1.16875,1.1406 0.95056,2.23216c-0.21814,1.09155 -0.99745,1.86196 -1.74058,1.72072z" fill="#303f97" stroke="none" stroke-width="0" stroke-linecap="butt"/><path d="M144.54724,254.96678c-4.7295,-0.8384 -9.35999,-20.64982 -9.76474,-25.11024c-0.84365,-6.49894 5.41724,-19.6047 6.82505,-20.53062c3.00395,-1.97572 8.18478,-6.18077 8.18478,-6.18077c0,0 6.18699,-2.31222 7.76684,-3.06814c0.8379,-0.40092 3.73659,-4.43088 7.34717,-5.22483c3.61058,-0.79394 5.16347,3.28811 7.97118,1.8564c0.59071,-0.3012 4.74163,-3.60716 5.28443,-3.83276c5.24156,-2.17881 6.35193,-6.11404 11.52756,-3.93608c4.49583,1.89187 9.46112,12.99015 11.19034,19.61345c2.6346,10.09127 -0.58697,13.82431 -4.11976,21.84546c-1.25646,2.85273 -4.51456,7.63651 -9.34978,8.05898c-2.26511,0.19792 -4.62639,-1.95037 -6.18659,-2.51013c-3.42168,-1.2277 -7.00892,0.76786 -7.00892,0.76786c0,0 -4.01317,0.26928 -6.30959,1.69642c-2.42433,1.50669 -5.38757,0.03549 -8.09164,-1.10241c0,0 -5.71276,0.54558 -5.984,2.19414c-0.89234,5.42355 2.3774,16.99966 -3.17127,16.22991c0,0 -2.33086,0.45176 -3.34235,0.22136c-0.82433,-0.18776 -2.76869,-0.98797 -2.76869,-0.98797z" fill="#aa96c7" stroke="#000000" stroke-width="2.5" stroke-linecap="butt"/><path d="M175.69751,233.75074c0,0 -4.26558,3.39987 -10.57938,4.24595c-1.81079,0.24267 -7.22301,-0.89766 -7.22301,-0.89766c0,0 1.94234,-0.29237 -3.38015,0.30175c-0.43881,0.04898 -1.72682,0.38626 -1.90177,2.50186c-0.32017,3.87182 0.37605,11.63007 -0.52078,13.77231c-1.37154,3.2762 -8.2853,-0.07412 -9.4735,-1.38493c-2.40324,-2.65127 -4.87442,-11.75453 -6.06786,-18.67604c-0.80558,-4.67207 -0.75341,-8.36025 -0.75341,-8.36025c0,0 7.93742,6.69224 9.55413,4.86815c1.71201,-1.93162 2.73448,-3.7422 4.25352,-7.53619c0.77987,-1.94779 3.12302,-7.33141 3.12302,-7.33141c0,0 0.88588,2.44021 1.54827,5.55925c0.67688,3.18739 0.83137,6.96676 3.07252,9.31153c1.4834,1.55201 4.69986,0.7012 6.75452,0.96872c2.9688,0.38655 7.9036,-18.93618 7.9036,-18.93618c0,0 0.05288,10.05879 1.67313,15.88505c0.51862,1.86487 1.90359,2.26274 2.5803,3.10314c2.38767,2.96526 16.16879,-6.88882 16.16879,-6.88882c0,0 3.16284,1.59729 2.78227,4.95578c-0.19248,1.69859 1.8935,2.88043 0.45436,4.32625c-1.51429,1.52133 -6.55367,3.26778 -6.61558,3.43659c0,0 -1.42121,0.56845 -2.72691,0.25311c-2.41696,-0.58372 -10.62606,-3.47799 -10.62606,-3.47799z" fill="#a7649a" stroke="none" stroke-width="0" stroke-linecap="butt"/><path d="M174.09793,235.74548c-0.55743,-0.23458 -2.89802,-3.50578 -3.23485,-7.94989c-0.2428,-3.20371 0.80278,-6.6025 1.32756,-10.46622c0.4503,-3.31532 -1.16262,-7.64625 -1.16262,-7.64625c0,0 2.54997,1.36499 2.72665,5.24645c0.17669,3.88159 -0.48077,10.551 0.28037,13.5067c1.16174,4.51138 3.53842,7.00304 3.29489,7.55599c0,0 -1.9279,0.30205 -3.23201,-0.24674z" fill="#000000" stroke="none" stroke-width="0" stroke-linecap="butt"/><path d="M157.60866,239.33897c0.21446,-0.48686 -3.06147,-5.76792 -4.10392,-9.28085c-0.73329,-2.47107 -0.42548,-5.99902 0.10505,-9.0389c0.59519,-3.41057 -2.00463,-7.15592 -2.00463,-7.15592c0,0 4.31413,3.62617 3.57171,11.14009c-0.21273,2.15304 0.79562,4.36105 1.5895,6.11496c1.25802,2.77933 3.54092,5.82705 3.34983,6.26091c-0.53452,1.2136 -0.44144,0.24318 -1.35429,-0.14098c0,0 -1.68779,3.31433 -1.15325,2.1007z" fill="#000000" stroke="none" stroke-width="0" stroke-linecap="butt"/><g><g data-paper-data="{&quot;index&quot;:null}"><path d="M237.86265,206.94968c6.84629,11.55012 2.70704,26.42695 -9.24529,33.22839c-11.95234,6.80144 -27.19163,2.95188 -34.03791,-8.59825c-3.15046,-5.31504 -0.98689,-7.00835 0.20605,-12.62122c1.39946,-6.58447 2.58703,-16.93555 9.03923,-20.60716c0,0 9.07331,-3.10196 18.03273,-1.72462c6.59367,1.01365 13.10271,5.42627 16.00518,10.32288z" fill="#303f97" stroke="#000000" stroke-width="3" stroke-linecap="butt"/><path d="M222.04774,203.18288c0.16899,1.54478 -0.69252,2.90008 -1.92427,3.0271c-1.23176,0.12701 -2.36726,-1.02229 -2.53624,-2.56706c-0.16899,-1.54478 0.6925,-2.90009 1.92425,-3.0271c1.23176,-0.12702 2.36727,1.02228 2.53625,2.56707z" fill="#303f97" stroke="none" stroke-width="0" stroke-linecap="butt"/><path d="M228.76159,206.0182c1.49537,0.02703 2.68142,1.65034 2.64912,3.62576c-0.0323,1.97541 -1.27073,3.55487 -2.7661,3.52786c-1.49538,-0.02704 -2.68146,-1.65032 -2.64916,-3.62574c0.0323,-1.97541 1.27074,-3.55491 2.76611,-3.52788z" fill="#303f97" stroke="none" stroke-width="0" stroke-linecap="butt"/><path d="M196.00785,234.0427c0,0 -1.84646,-12.2722 0.44091,-20.19313c0.97788,-3.38625 5.50407,6.94859 12.70005,14.54324c7.54917,7.96739 18.56186,11.44375 18.56186,11.44375c0,0 -7.63827,4.00154 -10.93338,4.06978c-3.35127,0.06943 -9.40952,-2.72864 -9.40952,-2.72864z" fill="#232362" stroke="none" stroke-width="0" stroke-linecap="butt"/><path d="M198.35524,207.99844c0,0 8.24829,-5.76766 16.28358,-5.84281c3.40183,-0.62948 21.42295,6.1664 21.42295,6.1664" fill="none" stroke="#000000" stroke-width="2" stroke-linecap="round"/><path d="M196.05804,217.17405c0,0 7.3197,-6.43501 22.73325,-5.30028c9.60934,1.48895 21.59666,10.16224 21.59666,10.16224" fill="none" stroke="#000000" stroke-width="2" stroke-linecap="round"/><path d="M195.30048,225.00171c0,0 10.20713,-4.33974 15.8857,-3.81652c7.13027,0.65695 24.96182,8.03574 24.96182,8.03574" fill="none" stroke="#000000" stroke-width="2" stroke-linecap="round"/><path d="M197.08415,231.05961c0,0 10.40268,-2.91341 15.72619,-1.93098c5.7779,1.06629 17.68974,8.09774 17.68974,8.09774" fill="none" stroke="#000000" stroke-width="2" stroke-linecap="round"/><path d="M210.10491,242.00281c0,0 -1.42579,-15.59369 0.42246,-23.01693c1.98063,-7.9549 11.09164,-23.22789 11.09164,-23.22789" fill="none" stroke="#000000" stroke-width="2" stroke-linecap="round"/><path d="M220.44475,243.14219c0,0 -3.80084,-10.94959 -1.44664,-22.87348c2.55936,-10.5543 12.15538,-19.481 12.15538,-19.481" fill="none" stroke="#000000" stroke-width="2" stroke-linecap="round"/><path d="M227.37597,239.99641c0,0 -4.11079,0.52927 1.22472,-17.14433c1.97735,-7.96104 7.88626,-14.03934 7.88626,-14.03934" fill="none" stroke="#000000" stroke-width="2" stroke-linecap="round"/><path d="M194.37655,200.72102c0.75567,-0.42999 8.05381,-6.30957 8.75147,-1.54844c0.26743,1.8251 -8.18649,9.47477 -9.14201,17.13298c-1.3094,10.49424 1.53955,18.0902 0.86126,19.06736c-1.33016,1.91625 -6.88847,-5.76616 -7.15391,-5.61513c-0.5046,0.28713 -3.2115,-5.98067 -2.23912,-13.95619c0.91285,-7.48712 8.44856,-14.81099 8.92226,-15.08054z" fill="#32419c" stroke="#000000" stroke-width="3" stroke-linecap="butt"/><path d="M193.46609,207.74055c0.89663,0.29939 1.28385,1.51293 0.86486,2.71051c-0.41898,1.19757 -1.48553,1.9257 -2.38218,1.62629c-0.89663,-0.29939 -1.28385,-1.51294 -0.86486,-2.71051c0.41896,-1.19757 1.48552,-1.92569 2.38217,-1.62629z" fill="#6584cf" stroke="none" stroke-width="0" stroke-linecap="butt"/><path d="M197.84746,201.45857c0.73588,0.76946 0.54515,2.27697 0.01189,3.73522c-0.5333,1.45821 -1.20723,2.31497 -1.94306,1.54549c-0.73585,-0.76946 -0.90007,-2.57541 -0.36679,-4.03361c0.53327,-1.45821 1.56213,-2.01654 2.29795,-1.24707z" fill="#6584cf" stroke="none" stroke-width="0" stroke-linecap="butt"/></g><path d="M202.60035,238.8616c0,0 -3.23259,-16.17151 -2.07148,-21.24197c1.16111,-5.07047 12.00448,-21.01246 12.00448,-21.01246" fill="none" stroke="#000000" stroke-width="2" stroke-linecap="round"/></g></g></g></g></svg>