<svg version="1.1" xmlns="http://www.w3.org/2000/svg" xmlns:xlink="http://www.w3.org/1999/xlink" width="549.54955" height="400.9009" viewBox="0,0,549.54955,400.9009"><g transform="translate(34.77477,20.45045)"><g data-paper-data="{&quot;isPaintingLayer&quot;:true}" fill-rule="nonzero" stroke-linejoin="miter" stroke-miterlimit="10" stroke-dasharray="" stroke-dashoffset="0" style="mix-blend-mode: normal"><g><path d="M237.40689,172.91647c0.0265,0.08762 3.2407,0.80763 2.99814,2.59944c-0.19233,1.42076 -3.84411,3.99822 -3.88608,4.05408c-2.96871,3.95041 -9.05743,12.40727 -17.56783,15.4307c-3.73952,1.32852 -11.54315,-2.0876 -13.68112,-1.15492c-4.07098,1.77593 -10.96757,8.47075 -15.24609,11.31801c-3.85402,2.56479 -14.00535,13.35068 -18.10351,10.73334c-0.94711,-0.60489 -1.61762,-1.26692 -2.06071,-1.96684c-3.90407,0.92533 -8.03096,-4.40991 -7.4969,-8.41183c-0.81284,-1.95462 0.40987,-3.82138 1.84453,-5.9338c1.13224,-1.66718 2.77579,-2.77036 4.48643,-3.18493c4.57489,-4.00119 6.62769,-8.52213 12.00906,-13.14916c6.82448,-5.86787 20.824,-8.61295 28.65077,-9.37442c2.11073,-0.20536 4.96066,-1.52302 7.60788,-2.04186c1.83025,-1.52638 4.19732,-2.08995 6.22403,-1.44428c5.83539,-1.70824 12.74212,-2.36831 14.22136,2.52654z" fill="#590909" stroke="none" stroke-width="5" stroke-linecap="butt"/><path d="M174.43172,217.2387c-0.26264,3.05031 -3.07771,3.34679 -3.07771,3.34679l-2.116,0.01903c-4.74606,-1.54707 -7.22365,-7.36839 -11.92549,-9.03506c0,0 -2.50303,-0.88726 -1.18837,-3.82068c1.31466,-2.93344 3.81769,-2.04616 3.81769,-2.04616c4.66264,1.6528 7.10466,7.46279 11.81844,8.99863l0.11899,-0.21634c0,0 2.81506,-0.29649 2.55243,2.75382z" fill="#000000" stroke="none" stroke-width="5" stroke-linecap="butt"/><g fill="none" stroke="#000000" stroke-width="5" stroke-linecap="round"><path d="M157.36588,209.02316c0,0 10.44742,-12.9111 15.39042,-18.21286c4.50765,-4.83485 13.08217,-12.32632 13.08217,-12.32632c0,0 9.53484,-2.3912 18.35824,-4.61968c0.71197,-0.17986 12.77805,-2.20625 15.11458,-2.79639c0.86287,-0.21796 2.7041,-0.73062 4.91517,-0.62493c5.01062,0.23945 14.06862,1.42688 14.06862,1.42688"/><path d="M196.85017,195.89207c0,0 -4.39624,5.1192 -7.23239,7.61029c-4.21733,3.70423 -18.88953,16.44799 -18.88953,16.44799"/><path d="M225.03465,192.91815c-1.83435,0.09991 -5.82501,1.0568 -8.26005,1.60116c-5.83291,1.30395 -18.94142,0.29464 -18.94142,0.29464"/></g><g stroke="#000000" stroke-linecap="butt"><path d="M153.57308,229.60454c-6.55078,-5.55199 -8.70501,-12.68209 -3.52703,-18.95279c5.17798,-6.27067 14.68602,-6.85328 21.23677,-1.30129c6.55078,5.55201 6.84398,13.70055 1.66601,19.97123c-5.17798,6.27069 -12.82499,5.83484 -19.37574,0.28284z" fill="#ffffff" stroke-width="5"/><path d="M154.52826,210.08039c1.70548,-1.43922 7.61184,-3.13021 9.19629,-1.78732c0.11493,0.0974 1.01885,0.00405 2.513,0.60959c1.76058,0.71349 3.62224,2.233 3.71864,2.37404c0.10176,0.1489 0.38365,0.60095 0.51922,0.59651c1.63067,-0.05347 -5.07094,1.36291 -6.94639,2.01465c-0.86021,0.29892 -2.79818,1.03497 -6.09488,3.87917c-1.55895,1.34492 -3.49615,5.98985 -4.0343,7.49774c-0.06545,0.18337 -0.05402,0.77699 -0.24477,0.71412c-1.2375,-0.40779 -2.76662,-3.68747 -3.51231,-6.02059c-0.33271,-1.04098 -0.22567,-3.24692 0.66057,-5.24555c0.54946,-1.23913 1.66936,-2.38942 2.35054,-3.16056c0.77946,-0.88244 1.36194,-1.03935 1.87437,-1.47179z" fill="#c5c5c5" stroke-width="0"/></g></g><path d="M289.82757,184.62904c0.42451,0.06705 4.84999,0.48351 5.22836,0.6527c0.54829,0.2176 3.77173,-0.70675 4.20012,-0.34107c1.3336,0.97245 2.09752,0.78588 3.63164,1.10633c6.95413,1.45256 9.88828,3.88527 17.16191,4.0697c1.82131,0.04618 0.18596,-3.97075 1.64437,-5.03725c5.08207,-3.71651 13.74296,-3.06948 19.11462,-0.53211c4.47429,2.11348 -0.54733,11.4037 -4.24967,14.1112c-2.01806,1.47585 0.27787,4.85345 -3.24138,5.12791c-6.12401,0.47763 -4.81666,9.2431 -12.60149,7.47579c-4.45741,-1.01191 -14.47078,-3.05755 -21.81468,-5.69911c-4.32892,-1.5571 -8.97465,-1.25785 -10.34601,-1.53868c-2.02704,-0.41511 -11.04336,-8.941 -10.65113,-11.23391c-0.3463,-0.89145 3.69908,-2.3391 3.93058,-3.34279c0.56699,-2.45838 0.89684,-6.91978 3.41525,-6.84681c0.21547,-0.02153 2.41807,0.78423 2.64645,0.8203z" fill="#590909" stroke="none" stroke-width="5" stroke-linecap="butt"/><path d="M345.49658,185.02585c-0.31324,2.51838 -2.92526,2.24175 -2.92526,2.24175l-3.01996,-0.32303c-5.51431,-1.12326 -11.10051,-1.27291 -14.79253,-5.65128c0,0 -1.57768,-2.01218 0.52744,-3.55166c2.10513,-1.53949 3.68283,0.47269 3.68283,0.47269c2.09836,3.07143 7.86355,2.98478 11.46824,3.72729l2.76048,0.28922c0,0 2.61201,0.27666 2.29876,2.79505z" fill="#000000" stroke="none" stroke-width="5" stroke-linecap="butt"/><g fill="none" stroke="#000000" stroke-width="5" stroke-linecap="round"><path d="M325.9516,172.95562c0,0 -2.72077,10.19172 -4.85224,12.83851c-1.4359,1.78302 -3.42858,5.15466 -3.42858,5.15466c0,0 -13.98557,-5.25811 -22.16164,-5.66898c-5.80747,-0.29184 -12.5313,-5.81695 -12.5313,-5.81695"/><path d="M348.38847,181.4654c0,0 -6.69124,12.13157 -9.39229,16.07586c-1.45335,2.12229 -5.54217,5.73254 -5.54217,5.73254"/></g><path d="M331.57343,176.46977c-0.87338,-0.62412 -2.28533,-1.53888 -3.11569,-2.62662c-1.33931,-1.75444 -1.90179,-3.82655 -1.76434,-4.86405c0.30806,-2.3253 1.24664,-5.6689 2.46438,-6.24776c0.18771,-0.08922 0.29677,0.47462 0.40298,0.63806c0.8733,1.344 3.85721,5.4405 5.77038,6.47123c4.04582,2.17969 6.23325,2.57485 7.19853,2.72395c2.10451,0.32504 9.43857,0.62254 7.7134,0.82586c-0.14342,0.0169 -0.34756,0.48883 -0.42418,0.64567c-0.07257,0.14857 -1.71974,1.87729 -3.42505,2.82706c-1.44724,0.80605 -2.41654,0.85842 -2.51749,0.96855c-1.39178,1.51831 -7.94584,0.83696 -10.0323,-0.26021c-0.62692,-0.32967 -1.27125,-0.38753 -2.27067,-1.10171z" data-paper-data="{&quot;index&quot;:null}" fill="#c5c5c5" stroke="#000000" stroke-width="0" stroke-linecap="butt"/><path d="M334.15935,201.51624l-8.38676,11.6538l-43.21875,-8.8727" fill="none" stroke="#000000" stroke-width="5" stroke-linecap="round"/><g><path d="M268.66887,317.82689l0.36006,0.58346c1.29207,-0.17483 1.42056,-1.8137 2.41185,-2.50501c1.37494,-0.95888 3.2506,-1.3826 5.02107,-1.71288c0.74511,-0.139 1.51444,-0.2623 2.29164,-0.34907l-0.12521,-0.11115c1.47899,-0.49814 10.67051,-5.26594 11.85607,0.25049c0.96752,0.05619 1.95324,0.12212 2.9047,0.22411c1.56635,1.23412 3.05966,2.51946 4.51628,3.42222c0,0 2.20096,1.37052 0.50544,3.14684c-1.69552,1.77633 -3.89643,0.4058 -3.89643,0.4058c-1.22071,-0.76333 -2.52066,-1.91185 -3.87527,-3.0299c-1.15369,-0.10848 -2.48824,-0.09921 -3.85055,-0.1362c-0.49357,0.16838 -0.97493,0.32581 -1.40154,0.48175c-2.11838,0.77421 -8.1502,-1.2211 -9.81415,0.41054c-0.60968,0.59785 0.0016,1.712 -0.67797,2.25847c-1.02266,0.82239 -2.62552,0.96912 -3.93824,1.45366l-3.95289,-0.51319c0,0 -2.65058,-0.67398 -1.818,-2.81394c0.54352,-1.39698 1.8618,-1.5948 2.71167,-1.56374c-1.31384,-5.4172 8.18708,-5.27254 12.13282,-6.0909c2.74595,-0.56953 3.87163,-1.73571 7.08522,-0.96839c2.25199,0.53772 4.31967,1.99747 6.27364,3.53699c4.5201,0.48457 8.26691,1.78326 5.61374,6.71853c-0.69005,1.28357 -2.21049,2.15509 -3.31572,3.23262c-4.55254,-1.03259 -8.70881,-2.59723 -13.41481,-3.02269c-2.35953,-0.21333 -7.76464,0.79428 -9.49308,0.40143c-1.76914,-0.40208 -3.8161,-1.23055 -4.4578,-2.62138c-0.19498,-0.42258 -0.33457,-0.81729 -0.42405,-1.18622c0.452,0.0165 0.77154,0.09772 0.77154,0.09772zM278.30684,316.35114c-0.10958,0.01322 -0.22475,0.02277 -0.34437,0.0295c0.64837,0.01166 1.29875,0.05433 1.94524,0.07835c0.6181,0.02296 1.25029,0.05063 1.89051,0.08728l-0.91359,-0.81097c-1.0688,0.28509 -2.03593,0.55047 -2.57784,0.61587zM273.47417,317.23915c-0.20489,0.82329 1.92556,-0.6932 2.95648,-0.80331c0.19678,-0.02102 0.39424,-0.03544 0.5921,-0.04465c-1.54141,-0.02527 -3.29828,-0.15787 -3.54861,0.84796zM294.05094,319.86876c-0.41661,-1.08131 -1.57793,-1.50533 -3.09936,-1.68401c1.13013,0.43685 2.17852,0.98745 3.09936,1.68401zM290.45794,318.00282c-0.41232,-0.33807 -0.82965,-0.67162 -1.25117,-0.98909c-0.24807,0.14028 -0.5181,0.27082 -0.80075,0.39364c0.70298,0.16654 1.38984,0.36299 2.05191,0.59544z" data-paper-data="{&quot;index&quot;:null}" fill="#3c2700" stroke="none" stroke-width="5" stroke-linecap="butt"/><path d="M225.29663,325.00664c-0.10121,0.3668 -0.2534,0.75834 -0.46179,1.17648c-0.68588,1.3762 -2.75863,2.15926 -4.53998,2.52219c-1.74038,0.35459 -7.11139,-0.7718 -9.47691,-0.61057c-4.71795,0.32156 -8.92273,1.79404 -13.50664,2.72591c-1.07043,-1.10153 -2.56248,-2.00625 -3.21126,-3.30459c-2.49455,-4.99202 1.29242,-6.20766 5.82643,-6.59239c2.00248,-1.49592 4.11608,-2.90957 6.38443,-3.39745c3.23698,-0.69621 4.32498,0.4944 7.05177,1.12425c3.91821,0.90504 13.42041,0.96991 11.93393,6.35621c0.85056,-0.01229 2.16203,0.21451 2.66075,1.62297c0.76394,2.15758 -1.90726,2.77285 -1.90726,2.77285l-3.9679,0.42587c-1.29683,-0.51331 -2.8944,-0.69527 -3.89042,-1.53991c-0.66189,-0.56125 -0.01524,-1.66157 -0.60559,-2.27265c-1.61124,-1.66773 -7.70469,0.19391 -9.79758,-0.62674c-0.42149,-0.16526 -0.89769,-0.33329 -1.38566,-0.51248c-1.36302,0.00695 -2.6968,-0.03176 -3.85354,0.05125c-1.38985,1.08782 -2.72603,2.20727 -3.97068,2.94341c0,0 -2.24395,1.32153 -3.88211,-0.49156c-1.63816,-1.81309 0.60581,-3.1346 0.60581,-3.1346c1.48498,-0.87032 3.01879,-2.12235 4.62401,-3.32148c0.95439,-0.08101 1.94188,-0.12515 2.91083,-0.15997c1.36137,-5.48836 10.39737,-0.51964 11.8599,0.01094l-0.1287,0.10834c0.77414,0.10386 1.53923,0.24409 2.27965,0.39946c1.75929,0.36917 3.62074,0.83409 4.96458,1.82294c0.96885,0.71292 1.04492,2.35404 2.33095,2.55729l0.37859,-0.5753c0,0 0.322,-0.07417 0.77437,-0.08072zM212.37757,322.72717l-0.93913,0.79057c0.64118,-0.0225 1.27403,-0.0362 1.89265,-0.04554c0.64706,-0.00978 1.29856,-0.03809 1.94706,-0.03546c-0.11934,-0.00935 -0.23414,-0.02146 -0.34327,-0.03709c-0.53965,-0.07732 -1.498,-0.36391 -2.55731,-0.67249zM216.2172,323.46799c0.19752,0.01358 0.39442,0.03231 0.59047,0.05768c1.02708,0.13279 3.1083,1.6957 2.92977,0.86819c-0.21806,-1.01101 -1.97858,-0.91714 -3.52024,-0.92587zM202.23593,324.95384c-1.52659,0.14509 -2.701,0.54338 -3.15203,1.61511c0.94275,-0.67604 2.00834,-1.20333 3.15203,-1.61511zM204.80543,324.23287c-0.27862,-0.12902 -0.54435,-0.26544 -0.78787,-0.41115c-0.43152,0.30805 -0.85931,0.63228 -1.28233,0.96114c0.66924,-0.21776 1.36215,-0.399 2.07018,-0.55z" fill="#3c2700" stroke="none" stroke-width="5" stroke-linecap="butt"/><path d="M235.75904,296.94759c-0.14789,1.52517 0.20554,0.62163 -0.32747,2.07334c-0.39638,1.71009 1.80168,3.88031 1.83843,5.53142c0.07448,3.34579 -4.05962,5.06794 -5.49314,8.22786c1.87891,2.20463 0.81299,4.17613 -0.94809,8.5463c-0.07487,0.18585 -0.15349,0.36711 -0.23566,0.54395c0.04963,0.36391 0.07229,0.73424 0.06627,1.10966c-0.02477,1.55028 0.55656,3.68305 -0.32068,4.94597c-1.00551,1.44756 -3.21109,-3.46963 -8.90667,-6.79199c-5.22072,-3.04536 -14.01117,-4.46191 -14.01409,-4.5178c-0.41062,-7.81903 2.59061,-15.24262 5.12291,-22.41478c0.1293,-1.14678 0.97327,-7.67548 0.96667,-8.69077c-0.04309,-6.63095 8.64065,-23.74943 10.23046,-33.99296c0.64911,-4.18243 0.67114,-7.54335 3.47238,-9.84724c1.88012,-1.54629 6.51964,-1.7524 10.73997,-1.70586c8.3295,0.09182 20.07546,2.46246 28.39441,2.81691c2.49992,0.10652 5.94641,1.56139 8.24821,2.35738c3.43272,1.18707 7.93658,-1.56261 10.54209,0.59802c1.64051,1.3604 -1.50425,5.39908 -1.50686,8.32938c-0.0027,2.99497 3.33989,5.11777 3.14339,7.22728c-0.12424,1.33379 1.81242,3.84495 2.35638,5.50219c1.7462,5.32001 4.29195,11.96194 4.59158,15.8985c0.35494,4.66329 1.38663,6.04075 -0.47905,9.6111c-0.80883,1.54787 -4.24995,4.46799 -4.3425,6.64946c-0.12081,2.84742 -4.30039,4.85864 -4.1285,7.76692c0.05735,0.97042 -16.11614,12.24412 -22.47832,10.89952c-1.28063,-0.27064 -1.74583,-2.17826 -2.06141,-3.54413c-0.23345,-1.01035 1.33598,-2.99128 1.91908,-3.74826c0.60087,-0.78006 -1.84749,-5.06607 -1.83312,-5.96502c0.02318,-1.45071 3.43644,-2.79161 3.37184,-4.59621c-0.12662,-3.5372 1.25776,-6.1379 2.77592,-9.82395c1.16815,-2.83622 3.48999,-5.94928 4.33206,-8.03375c0.45878,-1.13575 -6.7498,-11.16292 -6.84072,-12.58572c-0.23203,-3.63027 -1.78349,-4.71902 -2.00743,-8.36815c-0.07727,-1.25923 -2.14626,-2.64076 -3.70039,-2.76163c-1.9627,-0.15265 -3.86499,-4.43953 -5.83761,-4.45433c-1.55323,-0.01167 -6.84644,6.64479 -8.40096,6.66442c-0.23877,2.39142 -0.62797,12.69984 -1.01467,14.96229c0.1819,0.62663 -3.93837,5.29171 -3.94858,5.93052c-0.0501,3.13571 -1.54042,6.06855 -1.21554,9.71357c0.50441,2.50853 -1.05705,0.70271 -1.30081,3.21658z" fill="#001525" stroke="none" stroke-width="5" stroke-linecap="butt"/><path d="M247.92057,253.34927c-0.72962,1.06058 -3.84508,2.79909 -4.97245,3.19146c-3.67541,1.27916 -9.00389,-0.35747 -12.9814,-0.76714c-2.76279,-0.28456 -3.47011,-0.34561 -5.24295,-2.47204c-1.13053,-1.356 -1.41087,-4.15865 -0.46454,-5.74867c-0.01875,-0.10391 -0.02847,-0.21028 -0.02847,-0.31854c0,-1.04642 2.58144,-5.42147 3.77877,-5.60144c0.09942,-0.02667 3.5512,1.1252 3.66301,1.12087c2.52713,-0.09828 45.30731,2.08424 47.74782,2.64599c6.98855,1.60862 -0.6582,1.06216 1.70815,3.09861c2.13584,1.83809 2.80821,7.67961 -1.05549,8.42884c-2.76344,0.53588 -5.74041,0.01968 -8.42581,0.55406c-2.46977,0.49148 -10.74805,3.31943 -12.64091,0.81539c-1.67057,-2.20998 1.83222,-3.58832 3.01851,-4.49636c-1.32265,0.07926 -2.65694,-0.03939 -3.32585,-0.16278c-3.76205,-0.69396 -7.64094,-1.05821 -11.54305,-1.39981z" fill="#000a12" stroke="none" stroke-width="0.5" stroke-linecap="butt"/><path d="M222.27428,321.62348c1.59852,0.69847 6.00048,3.1983 5.55812,5.03554c-0.47431,1.9699 -1.36363,2.46237 -3.73516,2.06839c-1.60742,-0.26703 -2.20974,-2.01727 -3.4228,-2.9331c-1.90807,-1.44054 -5.34779,-2.4837 -7.66433,-3.45111c-1.17136,-0.48917 -5.48314,-0.56974 -7.78052,-0.98536c-0.20062,-0.02261 -4.14162,-0.62039 -4.32472,-0.67921c-0.9596,-0.30827 2.10758,-0.52625 2.10758,-1.43214c0,-1.17679 1.14848,-2.13077 2.5652,-2.13077c0.3155,0 0.61768,0.04732 0.89685,0.13386c4.86487,-1.07629 11.48982,2.49068 15.79977,4.37389z" fill="#1c1200" stroke="none" stroke-width="0.5" stroke-linecap="butt"/><path d="M285.3593,309.47009c0.2909,-0.10914 0.61092,-0.18111 0.95047,-0.20706c1.52474,-0.11654 2.86601,0.73896 2.99582,1.9108c0.09992,0.90207 4.53906,2.50691 3.5403,2.89283c-0.19056,0.07363 -5.48017,-0.64704 -5.69358,-0.60803c-2.42668,0.60284 -7.05833,1.03775 -8.26504,1.62122c-2.38646,1.15388 -5.97337,2.47563 -7.86802,4.06704c-1.20454,1.01175 -1.65972,2.80417 -3.36024,3.20231c-2.50888,0.58739 -3.52034,0.17014 -4.2481,-1.75246c-0.67875,-1.79312 3.78309,-4.64452 5.42645,-5.47153c4.43084,-2.22981 11.16746,-6.32673 16.52196,-5.65513z" data-paper-data="{&quot;index&quot;:null}" fill="#1c1200" stroke="none" stroke-width="0.5" stroke-linecap="butt"/><g fill="none" stroke="#000000" stroke-width="5" stroke-linecap="round"><path d="M266.30161,253.11504l-4.65809,1.10503l-15.68458,-0.48973l-14.37578,64.56566l-0.31549,11.38226l-38.66434,0.06933l0.71471,-7.74978l13.50676,-5.43386l17.69762,-75.61473"/><path d="M281.6358,245.9358c0,0 4.63345,11.19701 6.49596,17.25019c2.06981,6.7269 5.90266,21.30377 5.90266,21.30377l-9.8601,23.64336l12.95896,6.57526l-0.10581,7.89625l-36.85152,-0.08207l0.12404,-15.55118l9.55494,-24.48843c0,0 -3.97165,-7.0322 -6.72958,-14.08686c-2.34945,-6.00977 -4.0856,-12.12373 -4.09771,-12.97124c-0.00723,-0.50725 1.41417,-0.51298 1.41417,-0.51298"/><path d="M224.16693,239.82323l57.85135,4.18102"/></g><path d="M228.96509,329.93001c-2.50076,0.97589 -3.7111,-1.04436 -3.7111,-1.04436l-0.62015,-1.17889c-1.22993,-5.19964 -11.31548,-8.11321 -17.11016,-8.73498c0,0 -2.74895,-0.32687 -2.34625,-2.54652c0.40269,-2.21966 3.15163,-1.89279 3.15163,-1.89279c8.55382,1.0914 19.60095,4.88652 21.73475,12.22506l0.1918,0.17638c0,0 1.21033,2.02024 -1.29048,2.9961z" fill="#000000" stroke="none" stroke-width="5" stroke-linecap="butt"/><path d="M283.01519,306.84787c2.36373,1.18047 0.90369,3.08838 0.90369,3.08838l2.64625,0.09112c-8.8469,2.61923 -19.0505,6.34029 -23.60102,13.49529c0,0 -1.27444,1.99286 -3.74318,0.9622c-2.46875,-1.03065 -1.1943,-3.0235 -1.1943,-3.0235c5.25147,-8.171 22.62484,-15.79392 24.98857,-14.61345z" fill="#000000" stroke="none" stroke-width="5" stroke-linecap="butt"/></g><path d="" fill="#595959" stroke="none" stroke-width="0.5" stroke-linecap="butt"/><path d="M218.68948,207.32184c1.00622,-9.61176 10.1675,-22.27799 14.56274,-30.17272c1.86472,-3.34941 1.53178,-7.49385 1.53178,-7.49385l60.15946,4.77501c0,0 -3.75448,3.89786 -6.63286,10.37557c-3.89728,8.77066 -7.23008,21.53789 -7.21053,28.90444c0.00509,1.91505 2.06809,7.58499 2.24462,9.5532c1.22447,13.65281 4.01691,23.85629 4.01691,23.85629c0,0 -4.74874,3.01729 -11.89141,4.21184c-6.64112,1.11067 -19.81506,-7.3308 -26.06839,-7.55006c-5.13504,-0.18003 -8.7067,-0.11702 -15.0886,-0.92123c-8.74615,-1.10215 -13.42178,3.55459 -13.42178,3.55459c0,0 -3.87405,-23.12037 -2.20194,-39.09307z" fill="#590909" stroke="#000000" stroke-width="5" stroke-linecap="butt"/><path d="M287.87595,170.03509c0,0.32694 -0.83997,2.79463 -1.00811,3.10892c-0.23005,0.42999 0.04286,0.99495 -0.44497,1.36503c-3.15453,2.39314 -12.1162,3.37605 -22.77066,3.37605c-13.50635,0 -27.15901,-8.29174 -27.15901,-11.95851c0,-1.09021 2.01704,-6.15353 3.60331,-8.79959c0.46818,-0.78097 -0.31723,-1.15041 0.31354,-1.3956c4.42012,-1.71826 16.84369,10.92872 25.14909,10.92872c9.64029,0 18.23201,-2.59279 22.21519,-0.39251c1.59738,0.88238 0.10161,2.71792 0.10161,3.76749z" fill="#3e3e3e" stroke="none" stroke-width="0" stroke-linecap="butt"/><g stroke-linecap="butt"><path d="M318.44085,137.63172c-1.54008,24.77948 -24.0042,43.53398 -50.17502,41.88936c-26.17083,-1.64462 -46.13798,-23.06558 -44.5979,-47.84504c1.54008,-24.77945 24.00421,-43.53396 50.17504,-41.88934c6.03435,0.37921 16.40138,-5.17492 24.96057,-4.88339c3.03323,0.10332 4.21834,6.69165 7.15487,6.55011c5.77654,-0.27843 10.54508,-4.40276 13.25796,-1.72155c3.52024,3.47915 2.62181,10.31379 1.81323,17.50845c-1.23433,10.98296 -2.09838,22.50165 -2.58874,30.3914z" fill="#f5f5f5" stroke="none" stroke-width="0"/><path d="M273.74287,102.22318c-5.84483,-0.36731 -16.81663,1.17258 -23.98942,4.94831c-12.60242,6.63384 -21.14431,17.35966 -24.4111,16.66194c-1.2676,-0.27073 10.02367,-16.5407 10.12941,-18.24214c0.53338,-8.58196 17.25906,-14.51512 37.35786,-13.25208c6.68088,0.41984 17.51066,-6.70351 24.94502,-7.15402c2.73833,-0.16595 1.72064,4.39598 3.41083,6.18972c1.11648,1.18488 4.88525,-0.125 6.44676,-0.20791c8.96414,-0.47596 13.00132,-2.46261 12.75367,1.52188c-0.07831,1.25988 0.37103,6.59008 -0.79515,7.5135c-6.77748,5.3665 -28.69974,3.09845 -45.84789,2.02082z" fill="#ffffff" stroke="none" stroke-width="0"/><path d="M304.5572,166.93177c-0.53338,8.58196 -17.25906,14.51512 -37.35785,13.25208c-20.09879,-1.26304 -35.95969,-9.244 -35.42631,-17.82596c0.22334,-3.59346 1.76603,-3.56199 6.76666,-1.53385c0.08578,0.03479 4.97619,2.27878 5.1405,2.34935c6.88156,2.95519 15.15839,6.65848 25.64915,7.31774c20.09879,1.26304 35.76126,-12.14132 35.22787,-3.55935z" data-paper-data="{&quot;index&quot;:null}" fill="#cccccc" stroke="none" stroke-width="0"/><path d="M316.80578,138.6027c-0.31497,5.06783 2.69654,12.28461 0.77846,16.72547c-7.4605,17.27297 -30.13505,26.47216 -50.95349,25.16389c-26.17083,-1.64462 -46.13798,-23.06559 -44.59789,-47.84505c0.61552,-9.90357 4.57334,-18.84473 10.77429,-25.90586c9.31429,-10.60631 23.68955,-16.97078 39.40073,-15.98347c3.32189,0.20875 8.98491,0.12248 14.82749,-2.07732c4.00495,-1.50791 10.79825,-6.63238 10.79825,-6.63238c0,0 3.80326,10.65572 4.92573,10.58212c10.63564,-0.6975 16.98856,-8.66573 16.98856,-8.66573c0,0 0.72036,10.90444 0.11534,22.4007c-0.64714,12.29668 -2.63534,25.44575 -3.05746,32.23765z" fill="none" stroke="#000000" stroke-width="5"/><path d="M296.17245,168.51942c-0.15414,2.48002 -2.39195,4.35769 -4.99831,4.19391c-2.60636,-0.16378 -4.59428,-2.30702 -4.44014,-4.78704c0.15414,-2.48001 2.39196,-4.35769 4.99832,-4.19391c2.60636,0.16378 4.59427,2.30702 4.44013,4.78703z" fill="#cccccc" stroke="none" stroke-width="0"/><path d="M288.91029,171.21612c-0.11723,1.88621 -1.81925,3.31431 -3.80155,3.18974c-1.9823,-0.12457 -3.49424,-1.75463 -3.37701,-3.64085c0.11723,-1.88621 1.81924,-3.3143 3.80155,-3.18974c1.9823,0.12457 3.49424,1.75463 3.37701,3.64085z" fill="#cccccc" stroke="none" stroke-width="0"/></g><path d="" fill="#000000" stroke="#000000" stroke-width="1" stroke-linecap="butt"/><g><path d="M359.84255,165.49785c3.77447,3.74416 2.67731,9.24919 -0.91354,12.95472c-3.59085,3.70554 -31.22508,1.45634 -34.99954,-2.28785c-3.77447,-3.74416 -2.38876,-12.82295 1.2021,-16.5285c3.59085,-3.70556 30.93652,2.11744 34.71097,5.86162z" fill="#0d1522" stroke="#000000" stroke-width="2.5" stroke-linecap="butt"/><path d="M324.63739,152.4029c7.08606,8.70931 6.02808,21.39332 -2.36311,28.33058c-8.39117,6.93726 -20.93792,5.50076 -28.02399,-3.20854c-7.08607,-8.7093 -6.02807,-21.3933 2.36309,-28.33057c8.39117,-6.93726 20.93795,-5.50076 28.02401,3.20853z" fill="#465e85" stroke="#000000" stroke-width="3" stroke-linecap="butt"/><path d="M330.32007,158.61209c0.10656,0.13095 0.06016,6.16578 -0.83183,11.00856c-0.78902,4.2837 -2.42349,7.45992 -2.52391,7.33651c-0.1125,-0.13827 -2.44494,3.38043 -3.28162,2.25982c-0.6399,-0.85703 -1.92733,-5.60283 -2.20687,-6.97869c-0.25765,-1.26826 -0.35824,-3.17689 -0.13344,-4.95105c0.17909,-1.41348 0.6285,-3.9208 1.96763,-6.2157c1.5608,-2.67478 3.464,-4.85378 3.82268,-5.02843c2.26185,-1.10138 2.86703,2.17528 3.18735,2.56899z" fill="#0d1522" stroke="#000000" stroke-width="3" stroke-linecap="butt"/><path d="M310.00099,185.27692c0,0 -5.34346,0.40774 -7.84567,-0.61542c-2.46028,-1.006 -7.04403,-5.47292 -7.04403,-5.47292c0,0 8.3524,-6.23102 12.30277,-10.25646c4.45144,-4.53609 13.08258,-15.61156 13.08258,-15.61156c0,0 1.89676,0.15951 1.89734,1.53317c0.00178,4.25715 -1.88524,27.36821 -1.88524,27.36821z" fill="#313243" stroke="none" stroke-width="0" stroke-linecap="butt"/><path d="M305.95031,145.07094c0,0 5.67931,1.96619 8.06252,3.43639c2.69374,1.66177 7.28272,6.03005 7.28272,6.03005" fill="none" stroke="#000000" stroke-width="2" stroke-linecap="round"/><path d="M290.48176,160.11213c0,0 9.15111,0.1849 13.46795,1.0944c4.36883,0.92044 12.59094,4.39585 12.59094,4.39585" fill="none" stroke="#000000" stroke-width="2" stroke-linecap="round"/><path d="M316.33334,170.27945c0,0 -7.65753,1.48055 -12.08307,0.75418c-4.53968,-0.74509 -14.82132,-5.16995 -14.82132,-5.16995" fill="none" stroke="#000000" stroke-width="2" stroke-linecap="round"/><path d="M316.81186,173.45088c0,0 -5.42817,2.78115 -9.19095,3.22901c-4.00358,0.47651 -14.15302,-0.45057 -14.15302,-0.45057" fill="none" stroke="#000000" stroke-width="2" stroke-linecap="round"/><path d="M317.72398,177.39017c0,0 -4.60257,3.36427 -7.42004,4.27651c-3.01675,0.97676 -10.12352,1.40375 -10.12352,1.40375" fill="none" stroke="#000000" stroke-width="2" stroke-linecap="round"/><path d="M316.28299,182.89941c0,0 -3.07546,-3.72162 -4.81902,-8.0648c-1.47564,-3.67581 -1.69914,-7.83025 -1.37403,-10.20586c0.22602,-1.65158 1.28322,-4.4965 2.64738,-6.35167c3.14402,-4.27559 7.92006,-7.34232 7.92006,-7.34232" fill="none" stroke="#000000" stroke-width="2" stroke-linecap="round"/><path d="M307.51172,184.33108c0,0 -2.39062,-2.72731 -4.17898,-6.58119c-2.21817,-4.78008 -3.9157,-11.15994 -3.76627,-14.64429c0.11165,-2.60401 1.25233,-6.44089 3.11174,-9.415c2.72492,-4.35853 6.46941,-7.50822 6.46941,-7.50822" fill="none" stroke="#000000" stroke-width="2" stroke-linecap="round"/><path d="M327.68857,156.28873c0.28083,0.34518 -4.49164,2.72752 -5.90476,8.77247c-1.50529,6.43928 3.08856,15.94817 2.7894,15.58049c-0.15734,-0.19341 -2.97108,4.35715 -4.14773,2.79523c-0.8999,-1.19454 -2.92272,-7.64839 -3.38616,-9.51276c-0.42718,-1.71853 -0.69322,-4.28433 -0.52279,-6.64664c0.13575,-1.88203 0.54942,-5.21118 2.14558,-8.19205c1.86039,-3.47426 4.20492,-6.2595 4.66333,-6.46805c2.89084,-1.31505 3.91514,3.12066 4.36314,3.67129z" fill="#465e85" stroke="#000000" stroke-width="3" stroke-linecap="butt"/><path d="M319.7034,182.58246c-8.2477,4.96235 -19.45727,3.25122 -25.91004,-4.67972c-7.08606,-8.70931 -5.57112,-21.77109 2.82005,-28.70838c7.87129,-6.50746 19.94708,-4.97318 27.19421,2.34716c0.25934,0.26196 -6.46165,6.01758 -7.34212,14.36925c-0.74468,7.06362 3.60879,16.4485 3.23791,16.67166z" fill="none" stroke="#000000" stroke-width="3" stroke-linecap="butt"/><path d="M294.84746,151.62177c0,0 9.57318,-0.03992 13.23548,1.28136c3.81452,1.37618 9.21363,6.8177 9.21363,6.8177" fill="none" stroke="#000000" stroke-width="2" stroke-linecap="round"/><path d="M320.07146,173.07596c0.75867,0.02824 1.35697,0.89899 1.33636,1.94485c-0.02061,1.04585 -0.65236,1.87085 -1.41103,1.84261c-0.75866,-0.02823 -1.35698,-0.89897 -1.33637,-1.94484c0.02061,-1.04586 0.65236,-1.87084 1.41104,-1.8426z" fill="#6283b8" stroke="none" stroke-width="0" stroke-linecap="butt"/><path d="M319.03414,166.10244c0.76953,-0.38124 1.38709,0.3475 1.37937,1.62769c-0.00772,1.28018 -0.63781,2.62702 -1.40734,3.00827c-0.76954,0.38123 -1.38707,-0.34748 -1.37937,-1.62766c0.00772,-1.28018 0.63781,-2.62703 1.40733,-3.00828z" fill="#6283b8" stroke="none" stroke-width="0" stroke-linecap="butt"/><path d="M294.90606,178.2318c0,0 -1.21824,-10.53714 -0.47324,-17.25596c0.745,-6.71884 3.77332,-12.50634 3.77332,-12.50634" fill="none" stroke="#000000" stroke-width="2" stroke-linecap="round"/><path d="M290.36234,163.14492c0,0 8.44759,1.41793 12.76443,2.32743c4.36883,0.92044 13.29445,3.16283 13.29445,3.16283" fill="none" stroke="#000000" stroke-width="2" stroke-linecap="round"/><path d="M300.95647,163.75358c0.89121,0.45442 1.15934,1.7501 0.59889,2.89394c-0.56043,1.14385 -1.73723,1.70272 -2.62845,1.24832c-0.89121,-0.45442 -1.15936,-1.75009 -0.59891,-2.89394c0.56043,-1.14385 1.73724,-1.70274 2.62847,-1.24832z" fill="#6283b8" stroke="none" stroke-width="0" stroke-linecap="butt"/><path d="M294.94834,165.16503c1.13281,0.41174 1.62165,1.98957 1.09188,3.52415c-0.52976,1.53456 -1.87753,2.44482 -3.01032,2.03307c-1.13281,-0.41174 -1.62167,-1.98958 -1.09191,-3.52415c0.52976,-1.53456 1.87755,-2.44481 3.01035,-2.03307z" fill="#6283b8" stroke="none" stroke-width="0" stroke-linecap="butt"/></g><path d="M334.30931,186.78848c-5.88033,-1.20424 -10.16665,-4.26433 -9.57377,-6.83494c0.59286,-2.57061 5.84042,-3.67828 11.72074,-2.47406c5.88033,1.20424 10.16667,4.26434 9.5738,6.83495c-0.59286,2.57061 -5.84044,3.67827 -11.72077,2.47405z" fill="#ffffff" stroke="#000000" stroke-width="5" stroke-linecap="butt"/><path d="M336.49478,184.68996c-7.81737,-1.60092 -12.82513,-8.66323 -11.18511,-15.77413c1.64001,-7.1109 9.30676,-11.57764 17.12413,-9.97672c7.81737,1.60092 12.82511,8.66324 11.1851,15.77414c-1.64001,7.1109 -9.30676,11.57763 -17.12411,9.97672z" fill="#ffffff" stroke="#000000" stroke-width="5" stroke-linecap="butt"/><path d="M271.9651,131.36908c0,4.23589 -2.76319,10.73765 -11.95499,10.73765c-9.1918,0 -11.01735,-7.44574 -11.01735,-11.68162c0,-1.06618 1.16916,-0.85023 2.06203,-1.05209c0.7475,-0.169 1.17437,-0.92916 1.77981,-0.11286c1.54454,2.08244 2.23423,7.18277 7.1755,7.18277c4.77038,0 6.111,-4.21724 7.93075,-6.03743c0.76653,-0.76672 1.38447,-0.48844 2.13937,-0.38718c0.90615,0.12153 1.88487,0.23925 1.88487,1.35079z" fill="#000000" stroke="none" stroke-width="NaN" stroke-linecap="butt"/><path d="M302.81115,132.26038c0,4.23589 -2.76319,10.73765 -11.95499,10.73765c-9.1918,0 -11.01735,-7.44573 -11.01735,-11.68161c0,-1.06618 1.16916,-0.85024 2.06203,-1.0521c0.7475,-0.169 1.17437,-0.92916 1.77981,-0.11286c1.54454,2.08244 2.23423,7.18277 7.1755,7.18277c4.77038,0 6.111,-4.21724 7.93075,-6.03743c0.76653,-0.76672 1.38447,-0.48844 2.13937,-0.38718c0.90615,0.12153 1.88487,0.23925 1.88487,1.35078z" fill="#000000" stroke="none" stroke-width="NaN" stroke-linecap="butt"/><path d="M287.13194,160.79793c-0.73595,3.50994 -3.00054,6.00557 -5.05809,5.57415c-2.05755,-0.43142 -3.12891,-3.62653 -2.39296,-7.13646c0.73595,-3.50994 3.00054,-6.00557 5.05809,-5.57415c2.05755,0.43142 3.12891,3.62653 2.39296,7.13646z" fill="#ff8c8c" stroke="#000000" stroke-width="2.5" stroke-linecap="butt"/><path d="M-34.77476,380.45045v-400.9009h549.54955v400.9009z" fill="none" stroke="none" stroke-width="0" stroke-linecap="butt"/><path d="M266.6961,132.16229c-2.92224,-3.1387 0.75383,-5.57473 3.72631,-3.59307l0.34811,0.17405c0.84561,0.40086 1.43041,1.26228 1.43041,2.26029c0,1.38071 -1.11929,2.5 -2.5,2.5c-0.42735,0 -0.82966,-0.10723 -1.18149,-0.29625c-0.32871,-0.04983 -0.63641,-0.16368 -0.90999,-0.32842c-0.3188,-0.17312 -0.62717,-0.40922 -0.91335,-0.7166z" fill="#000000" stroke="none" stroke-width="0.5" stroke-linecap="butt"/><path d="M283.47033,127.88605c6.23069,0.06514 -0.76475,7.91607 -2.58177,4.73629c-0.73685,-0.43488 -1.23117,-1.23698 -1.23117,-2.15454c0,-0.72854 0.31163,-1.38429 0.80887,-1.84123c0.44511,-0.40904 1.03896,-0.65877 1.69113,-0.65877c0.04047,0 0.08072,0.00096 0.12072,0.00286c0.39364,-0.05916 0.7872,-0.08884 1.19222,-0.08461z" fill="#000000" stroke="none" stroke-width="0.5" stroke-linecap="butt"/></g></g></svg>