<svg version="1.1" xmlns="http://www.w3.org/2000/svg" xmlns:xlink="http://www.w3.org/1999/xlink" width="347" height="286" viewBox="0,0,347,286"><g transform="translate(-85,-40.50003)"><g data-paper-data="{&quot;isPaintingLayer&quot;:true}" fill-rule="nonzero" stroke-linejoin="miter" stroke-miterlimit="10" stroke-dasharray="" stroke-dashoffset="0" style="mix-blend-mode: normal"><text transform="translate(211.22476,115.34676) scale(0.20352,0.20352)" font-size="40" xml:space="preserve" fill="#000000" fill-rule="nonzero" stroke="none" stroke-width="1" stroke-linecap="butt" stroke-linejoin="miter" stroke-miterlimit="10" stroke-dasharray="" stroke-dashoffset="0" font-family="Sans Serif" font-weight="normal" text-anchor="start" style="mix-blend-mode: normal"><tspan x="0" dy="0">Polargaming64</tspan><tspan x="0" dy="46.150000000000006px"> </tspan><tspan x="0" dy="46.150000000000006px">MeIzAwezomeDede</tspan><tspan x="0" dy="46.150000000000006px"> </tspan><tspan x="0" dy="46.150000000000006px">AwezomeXD</tspan></text><path d="M250.22476,201.35887c0,5.33875 -33.06429,8.66667 -37.66667,8.66667c-4.60237,0 -7.33333,-1.99458 -7.33333,-7.33333c0,-5.33875 0.73096,-9.25 5.33333,-9.25c0.44559,0 12.29281,-1.86911 17.97875,-7.38044c4.38632,-4.25162 1.97421,-17.79032 4.66888,-18.75741c7.31946,-2.62687 6.8626,-1.32871 8.40623,-0.60722c4.76031,2.22494 8.61281,31.32168 8.61281,34.66174z" fill="#d38ddd" stroke="#000000" stroke-width="3.5" stroke-linecap="butt"/><path d="M214.80809,213.27554c0,0 -1.89982,12.16667 -10,12.16667c-8.10018,0 -26.33133,0.86748 -26.33133,-5.66789c0,-6.53537 19.06449,-20.99877 27.16467,-20.99877c8.10018,0 9.16667,14.5 9.16667,14.5z" fill="#f89587" stroke="#000000" stroke-width="3.5" stroke-linecap="butt"/><g><g stroke-linecap="butt"><path d="M185.71843,188.87257c0,0 10.26079,-3.45831 11.82736,0.86059c0.16186,0.44623 3.46521,15.86924 -6.78302,16.66583c-2.22035,0.17258 -9.59876,0.42285 -12.01163,-2.10157c-4.72027,-4.93853 -4.10668,-14.54401 -4.43761,-14.43593c-4.3749,1.429 -15.68207,15.86625 -16.65379,12.89133c-0.49843,-1.52593 2.10248,-7.20284 6.25331,-14.22686c1.15407,-1.9529 2.96528,-4.42768 4.14137,-6.19125c0.34592,-0.5187 1.00341,-2.17406 1.32648,-2.64919c2.32991,-3.42649 4.07648,-5.67496 5.39993,-6.10722c4.3749,-1.429 10.93759,15.29427 10.93759,15.29427z" fill="#fddfbd" stroke="#000000" stroke-width="3"/><path d="M196.25901,190.98402c0,0 0.81559,1.69273 0.73147,5.01722c-0.0853,3.37124 -2.27007,7.97774 -4.64899,8.7548c-2.08729,0.68177 -9.96744,2.51843 -12.4682,0.06915c-3.16012,-3.09504 -0.7637,-10.78744 -0.94319,-11.33694c-0.32152,-0.98434 6.3578,5.68179 11.08269,4.13846c4.7249,-1.54331 6.2462,-6.6427 6.2462,-6.6427z" fill="#f49285" stroke="none" stroke-width="0"/></g><g><path d="M210.98779,234.47291c1.42395,6.84676 -3.8908,12.04083 -10.64747,13.44604c-6.75667,1.40522 -40.67456,-24.55936 -42.09852,-31.40612c-1.42395,-6.84676 6.8688,-15.72334 13.62548,-17.12857c6.75667,-1.40522 37.69656,28.24189 39.12053,35.08865z" fill="#465e85" stroke="#000000" stroke-width="2.5" stroke-linecap="butt"/><path d="M166.75691,182.47742c1.42448,14.68458 -9.18279,27.72978 -23.69201,29.13726c-14.50922,1.40748 -27.42605,-9.35572 -28.85054,-24.04033c-1.42448,-14.68458 9.18279,-27.72977 23.69201,-29.13725c14.50922,-1.40748 27.42605,9.35572 28.85054,24.04033z" fill="#465e85" stroke="#000000" stroke-width="3" stroke-linecap="butt"/><path d="M168.47551,193.409c0.02142,0.22081 -4.51595,6.76249 -9.10982,11.38538c-4.06353,4.0892 -8.24619,6.3518 -8.26637,6.14373c-0.02262,-0.23313 -5.2378,1.89102 -5.3374,0.05661c-0.07619,-1.40296 2.01637,-7.51789 2.7275,-9.22199c0.65551,-1.57079 1.96209,-3.72424 3.53138,-5.49259c1.25023,-1.40887 3.61487,-3.81144 6.81325,-5.33029c3.72782,-1.77028 7.46877,-2.74933 7.99836,-2.67669c3.33971,0.45805 1.5787,4.47202 1.64309,5.13584z" fill="#0d1522" stroke="#000000" stroke-width="3" stroke-linecap="butt"/><path d="M131.92531,177.48505c0.65557,1.14849 -0.00865,2.75685 -1.48354,3.59235c-1.4749,0.83549 -3.20197,0.58177 -3.85754,-0.56673c-0.65557,-1.14849 0.00863,-2.75685 1.48353,-3.59236c1.4749,-0.83549 3.20198,-0.58178 3.85755,0.56673z" fill="#6283b8" stroke="none" stroke-width="0" stroke-linecap="butt"/><path d="M124.17953,174.61845c0.95656,1.27911 0.32864,3.3567 -1.40247,4.64045c-1.73111,1.28375 -3.9099,1.28751 -4.86647,0.0084c-0.95656,-1.27911 -0.32866,-3.3567 1.40245,-4.64045c1.73111,-1.28375 3.90991,-1.2875 4.86649,-0.00842z" fill="#6283b8" stroke="none" stroke-width="0" stroke-linecap="butt"/><path d="M126.008,207.56779c0,0 -6.25884,-3.47296 -8.28731,-6.42218c-1.99447,-2.89979 -3.78323,-11.12735 -3.78323,-11.12735c0,0 13.94108,-0.66635 21.33624,-2.15663c8.33321,-1.67931 26.18586,-7.41995 26.18586,-7.41995c0,0 1.99556,1.56432 0.97517,3.0615c-3.16235,4.63999 -22.44408,28.43893 -22.44408,28.43893z" fill="#313243" stroke="none" stroke-width="0" stroke-linecap="butt"/><path d="M151.37823,160.78896c0,0 4.86868,6.30589 6.43219,9.65495c1.76725,3.78547 3.63518,11.90939 3.63518,11.90939" fill="none" stroke="#000000" stroke-width="2" stroke-linecap="round"/><path d="M122.95694,165.83828c0,0 10.06236,6.91008 14.19786,11.06577c4.18531,4.2057 10.76638,14.02016 10.76638,14.02016" fill="none" stroke="#000000" stroke-width="2" stroke-linecap="round"/><path d="M144.21363,195.86843c0,0 -9.63554,-4.00042 -14.02835,-8.03625c-4.50606,-4.13988 -12.67694,-16.4987 -12.67694,-16.4987" fill="none" stroke="#000000" stroke-width="2" stroke-linecap="round"/><path d="M142.38964,199.67486c0,0 -8.11745,-0.94891 -12.64432,-3.21942c-4.81655,-2.41578 -15.43998,-10.86644 -15.43998,-10.86644" fill="none" stroke="#000000" stroke-width="2" stroke-linecap="round"/><path d="M140.47822,204.6359c0,0 -7.63068,0.29166 -11.44909,-0.77981c-4.08849,-1.14726 -12.32701,-5.89194 -12.32701,-5.89194" fill="none" stroke="#000000" stroke-width="2" stroke-linecap="round"/><path d="M134.7771,209.58249c0,0 -0.66159,-6.30976 0.62334,-12.32037c1.08748,-5.08702 3.92637,-9.77766 6.05453,-12.12782c1.47955,-1.63393 4.77253,-3.95878 7.67197,-4.98013c6.68235,-2.3539 14.28519,-2.19419 14.28519,-2.19419" fill="none" stroke="#000000" stroke-width="2" stroke-linecap="round"/><path d="M123.93653,204.71233c0,0 -0.63735,-4.72429 0.23392,-10.23461c1.08067,-6.83461 3.93075,-15.0307 6.68721,-18.71777c2.06,-2.75552 6.18336,-6.10005 10.46651,-7.97758c6.27691,-2.75154 12.79163,-3.43845 12.79163,-3.43845" fill="none" stroke="#000000" stroke-width="2" stroke-linecap="round"/><path d="M114.41988,188.82526c0,0 6.47441,-12.37456 12.29889,-19.1494c5.82449,-6.77484 13.50169,-10.86095 13.50169,-10.86095" fill="none" stroke="#000000" stroke-width="2" stroke-linecap="round"/><path d="M167.26944,188.94828c0.05646,0.58198 -7.03374,-0.32084 -13.10199,5.22994c-6.46409,5.91286 -8.41178,19.64169 -8.47191,19.02173c-0.03163,-0.32607 -6.55022,2.56955 -6.70074,0.00505c-0.11514,-1.96132 2.42739,-10.47648 3.29663,-12.84769c0.80125,-2.18573 2.41189,-5.17651 4.35772,-7.62558c1.55024,-1.95118 4.48585,-5.27545 8.48059,-7.35331c4.65599,-2.42179 9.3395,-3.73788 10.00544,-3.62906c4.1996,0.68636 2.04421,6.2705 2.13427,7.19891z" fill="#465e85" stroke="#000000" stroke-width="3" stroke-linecap="butt"/><path d="M138.82503,211.74462c-12.88135,-0.63926 -24.10365,-10.72141 -25.40079,-24.09364c-1.42448,-14.68458 9.9729,-27.80642 24.48214,-29.2139c13.61028,-1.32027 25.9295,9.2042 28.56592,22.49343c0.09435,0.47555 -11.67501,1.8199 -18.86417,10.27457c-6.08042,7.15075 -8.20381,20.56824 -8.78308,20.53949z" fill="none" stroke="#000000" stroke-width="3" stroke-linecap="butt"/><path d="M134.13382,159.78744c0,0 10.69986,6.97453 13.79979,11.09906c3.22873,4.29592 5.20189,14.1832 5.20189,14.1832" fill="none" stroke="#000000" stroke-width="2" stroke-linecap="round"/><path d="M146.30147,201.65595c0.82463,0.58694 0.84429,1.97434 0.0439,3.09883c-0.80037,1.1245 -2.11771,1.56026 -2.94233,0.97333c-0.82462,-0.58694 -0.84429,-1.97434 -0.0439,-3.09884c0.80038,-1.1245 2.11772,-1.56025 2.94233,-0.97333z" fill="#6283b8" stroke="none" stroke-width="0" stroke-linecap="butt"/><path d="M150.32869,193.29701c1.1411,0.14873 1.28774,1.39552 0.32758,2.78478c-0.96017,1.38924 -2.66358,2.39489 -3.80465,2.24616c-1.1411,-0.14873 -1.28775,-1.39552 -0.32759,-2.78478c0.96017,-1.38924 2.66359,-2.39488 3.80466,-2.24616z" fill="#6283b8" stroke="none" stroke-width="0" stroke-linecap="butt"/><path d="M203.34324,242.85677c0.37199,0.63522 -0.09888,1.60253 -1.05174,2.16051c-0.95284,0.558 -2.02684,0.49537 -2.39883,-0.13986c-0.37199,-0.63522 0.09888,-1.60253 1.05174,-2.16051c0.95284,-0.558 2.02684,-0.49537 2.39883,0.13986z" fill="#6283b8" stroke="none" stroke-width="0" stroke-linecap="butt"/></g><g stroke-linecap="butt"><path d="M195.70492,212.95588c0.30861,0.94482 8.7192,-4.89875 13.2327,2.59086c2.41238,4.00305 -2.3324,12.06136 -2.80608,16.22623c-0.66556,5.85205 -15.98292,16.25082 -17.57627,15.8316c-3.39986,-0.89448 -8.69448,-6.41059 -8.69448,-6.41059c0,0 -0.64175,-1.43214 -4.49369,1.41956c-1.83224,1.35647 -2.55817,0.51696 -4.1354,-0.13951c-3.92846,-1.63511 -8.54858,-7.42319 -8.54858,-7.42319c0,0 -3.17759,0.98441 -6.97704,1.55652c-1.81676,0.27354 -3.65966,1.42927 -5.58312,0.50596c-4.98777,-2.39429 -5.34352,-10.17479 -7.04491,-15.38365c-1.47792,-4.52468 1.47843,-9.03962 5.29989,-14.65375c5.82239,-8.55365 13.37866,-15.38018 21.61953,-18.07193c2.93087,-0.95731 6.90865,0.37826 10.32775,3.62999c1.6017,1.52331 3.19434,2.55775 3.77927,4.06438c1.28281,3.30423 -0.87332,5.89749 -0.87332,5.89749c0,0 5.76886,0.5774 8.30599,1.31586c2.67846,0.77958 3.27881,6.32275 4.16772,9.04417z" fill="#fddfbd" stroke="#000000" stroke-width="2.5"/><path d="M148.13189,222.7089c0.50736,1.55327 2.83982,2.99246 3.9053,4.63197c0.3555,0.54702 4.01769,0.11571 7.35705,-2.04774c7.39581,-4.79145 16.87725,-14.66857 16.40109,-14.51305c-0.02374,0.00775 -5.32075,13.15091 -1.76485,17.20975c1.67553,1.91252 5.15389,2.82447 7.0933,3.66717c2.82592,1.22787 8.21466,-7.01968 8.21466,-7.01968c0,0 -3.42936,8.34157 -0.03791,8.17627c4.72525,-0.23028 20.68075,-16.60489 20.68075,-16.60489c0,0 -0.61805,6.94775 -1.89722,12.52824c-1.14449,4.99297 -6.21618,8.63455 -8.47897,10.27931c-5.40993,3.93236 -11.07708,4.70663 -10.79132,5.45428c0.27521,0.72001 -2.48342,0.13911 -4.74236,-1.6663c-2.61706,-2.09165 -4.80906,-5.47665 -4.74887,-4.8066c0.18736,2.08536 -7.18064,2.67663 -7.35645,3.25747c-0.82014,2.70982 -6.91263,-9.90914 -9.38226,-7.21138c-2.38323,2.60335 -7.47338,0.91668 -9.68475,1.67359c-3.96731,1.35793 -6.59519,-8.94284 -6.9979,-10.17576c-1.07174,-3.28118 -1.4223,-13.21134 -1.4223,-13.21134c0,0 2.5813,7.09753 3.65304,10.37872z" fill="#f49285" stroke="none" stroke-width="0"/><path d="M183.016,199.87411c1.31248,-0.4287 1.13807,1.06875 1.56677,2.38122c0.4287,1.31248 -2.58656,3.73785 -3.89903,4.16655c-1.31248,0.4287 -10.74174,11.39857 -10.74174,11.39857c0,0 11.76153,-17.51764 13.07399,-17.94633z" fill="#000000" stroke="none" stroke-width="0"/><path d="M196.21899,212.91947c0.3001,0.91874 2.94679,-0.43652 1.69992,-0.02925c-1.24685,0.40727 -10.41394,16.02547 -10.41394,16.02547c0,0 6.56255,-16.34545 7.80941,-16.75273c1.24685,-0.40727 0.60453,-0.16221 0.90459,0.75652z" fill="#000000" stroke="none" stroke-width="0"/><path d="M195.78729,212.40296c0.30861,0.94482 8.39917,-4.26823 12.91266,3.2214c1.0454,1.73471 2.19108,11.53002 -2.14302,17.17047c-5.66732,7.37552 -17.40451,13.30617 -18.30738,13.06862c-3.39986,-0.89448 -9.4122,-5.38717 -9.4122,-5.38717c0,0 -0.95113,-0.08282 -2.41935,0.40539c-1.48017,0.4922 -2.60767,1.00635 -3.38776,0.75554c-3.89665,-1.25294 -9.78468,-8.0851 -9.78468,-8.0851c0,0 -1.81874,0.92316 -4.98243,1.70191c-2.23862,0.55104 -5.19143,1.30571 -7.65535,0.12293c-4.98777,-2.39429 -6.40886,-10.78629 -6.80248,-16.25183c-0.14877,-2.06585 1.54649,-7.22086 5.36797,-12.83499c5.82239,-8.55365 12.35044,-15.30732 20.59133,-17.99909c3.15432,-1.0303 6.99936,1.09817 10.4362,4.30002c0.18505,0.17239 2.85576,2.7122 3.27313,3.78726c1.28281,3.30423 -0.24279,6.21753 -0.24279,6.21753c0,0 6.24414,0.42216 8.78125,1.1606c2.67846,0.77958 2.88593,5.92508 3.77484,8.64649z" fill="none" stroke="#000000" stroke-width="2.5"/><path d="M195.78729,212.40296c0.30861,0.94482 8.39917,-4.26823 12.91266,3.2214c1.0454,1.73471 2.19108,11.53002 -2.14302,17.17047c-5.66732,7.37552 -16.6868,12.28274 -17.58968,12.04521c-3.39986,-0.89448 -9.56744,-5.86248 -9.56744,-5.86248c0,0 -1.82409,0.46531 -3.29231,0.95354c-1.48017,0.4922 -2.60767,1.00635 -3.38776,0.75554c-3.89665,-1.25294 -9.30941,-8.24035 -9.30941,-8.24035c0,0 -2.53166,1.15604 -5.69535,1.93476c-2.23862,0.55104 -4.71614,1.15047 -7.18007,-0.03232c-4.98777,-2.39429 -6.33602,-9.75811 -6.72964,-15.22364c-0.14877,-2.06585 1.54649,-7.22086 5.36797,-12.83499c5.82239,-8.55365 12.35044,-15.30732 20.59133,-17.99909c3.15432,-1.0303 6.99936,1.09817 10.4362,4.30002c0.18505,0.17239 2.85576,2.7122 3.27313,3.78726c1.28281,3.30423 -0.24279,6.21753 -0.24279,6.21753c0,0 6.24414,0.42216 8.78125,1.1606c2.67846,0.77958 2.88593,5.92508 3.77484,8.64649z" fill="none" stroke="#000000" stroke-width="2.5"/></g></g><g stroke-linecap="butt"><path d="M310.04476,214.47595c0,6.72542 -24.58625,9.63291 -28.47103,9.63291c-3.88478,0 -2.00972,-9.81409 -2.00972,-16.5395c0,-3.84489 -1.07033,-12.40353 -0.40053,-18.09547c0.5018,-4.26432 4.09591,-7.53169 5.75978,-7.53169c1.49662,0 12.26767,1.56808 16.70856,7.25088c3.72113,4.76177 1.00221,13.2788 3.94326,17.81156c2.65974,4.0992 4.46968,5.50793 4.46968,7.47132z" fill="#fddfbd" stroke="#000000" stroke-width="3.5"/><path d="M302.25709,194.85886l-0.03625,6.68333c0,0 -3.42796,2.54174 -12.02673,-1.20931c-2.79169,-1.21783 -8.03422,-5.72402 -8.03422,-5.72402c0,0 -4.31313,-8.93709 -0.71754,-9.86081c0.7722,-0.19838 5.46258,-1.56383 10.33676,0.93895c5.15101,2.64492 10.47798,9.17186 10.47798,9.17186z" fill="#f89486" stroke="none" stroke-width="0"/><path d="M286.56803,213.11033c0.71705,-0.83873 2.05234,-1.30425 2.88481,-0.53418c2.6589,2.45959 9.09108,6.94833 12.06123,7.62816c3.35441,0.76779 9.10803,-4.60777 9.10803,-4.60777c0,0 6.09155,5.95932 6.36932,12.42496c0.14237,3.31393 -2.71157,5.87812 -5.35049,8.81462c-3.65021,4.06187 -7.57734,8.1511 -8.77875,9.76742c-1.23619,1.66309 -5.73682,6.59239 -9.09054,6.60237c-1.19173,0.00355 -5.69939,-4.10308 -8.32659,-9.56372c-2.87773,-5.98135 -4.15204,-12.83749 -5.7932,-12.16068c-4.13515,1.70532 -12.22767,3.19836 -15.99306,8.26333c-0.37001,0.49771 -0.44237,4.24866 -0.44237,4.24866c0,0 -5.015,-0.09146 -7.29035,-0.35981c-2.00291,-0.23622 -6.15141,-1.16624 -6.15141,-1.16624c0,0 -2.0822,-4.42458 -5.09286,-7.12547c-2.66657,-2.3922 -10.69584,-8.49216 -11.31077,-8.01649c-1.11222,0.86034 -2.03047,3.69125 -4.53384,6.89002c-2.17381,2.77767 -6.28409,4.62251 -6.28409,4.62251c0,0 -13.1906,-14.04339 -17.54342,-13.59367c-3.64835,0.37693 -5.68154,0.14275 -8.27926,0.57813c-6.0636,1.01626 -9.34742,1.68221 -9.34742,1.68221c0,0 0.47208,-4.40395 1.32025,-6.87344c1.07623,-3.13353 3.34455,-9.26472 4.61742,-10.41456c0.7566,-0.68347 4.27378,1.42056 7.03928,2.38783c3.38059,1.18242 11.77207,4.19175 11.77207,4.19175c0,0 14.11419,-13.62492 20.72092,-13.62492c12.99915,0 29.348,5.46061 37.95989,10.50115c7.38152,4.3204 8.01245,7.08218 8.01245,7.08218c0,0 6.08384,-5.70395 7.74275,-7.64435z" fill="#0066cc" stroke="#000000" stroke-width="3.5"/><path d="M232.27511,227.07968c0,0 -1.81365,2.82066 -4.06973,5.46243c-2.02135,2.3669 -4.47713,4.59019 -4.99913,4.51257c-1.09978,-0.16352 -3.85633,-2.40147 -5.08781,-4.62109c-0.56012,-1.00955 0.31103,-1.69807 -0.16549,-2.74389c-1.61112,-3.53589 -5.37309,-11.31002 -5.37309,-11.31002l6.75768,-8.175c0,0 5.57997,-8.88472 17.68644,-8.70053c12.54676,0.19089 31.75608,9.48049 38.86325,11.22594c2.51933,0.61872 2.13673,9.96369 2.46776,10.38816c0.59655,0.76497 -10.64415,6.85916 -23.81201,7.98905c-8.74032,0.74998 -19.32737,-4.68175 -19.32737,-4.68175z" fill="#0f1b82" stroke="none" stroke-width="0"/><path d="M233.27997,228.12968l-4.72284,-6.9c0,0 3.62753,2.7342 5.22716,3.99096c1.58224,1.2431 4.11804,3.70904 4.11804,3.70904z" fill="#000000" stroke="none" stroke-width="0"/><path d="M314.1712,223.82968l1.65786,5.20247c0,0 -4.79351,6.68823 -9.82513,12.75712c-4.42071,5.33205 -9.62815,9.94041 -11.32701,9.94041c-0.84585,0 -4.43166,-2.60498 -6.55791,-6.32829c-3.46213,-6.06264 -5.70943,-14.42983 -5.70943,-14.42983c0,0 9.70607,11.75812 13.07123,11.75812c5.43869,0 18.6904,-18.9 18.6904,-18.9z" fill="#0f1b82" stroke="none" stroke-width="0"/></g><g stroke-linecap="butt"><path d="M252.93524,258.02549c0,4.87365 -0.80555,7.39012 -6.6705,11.57472c-6.67215,4.76054 -19.68521,-0.37331 -31.26997,3.8003c-42.81631,15.42529 -65.24667,2.98695 -65.24667,2.98695c0,0 -1.65325,-3.7106 -1.65325,-11.02863c0,-5.09699 16.8602,-19.23488 37.71117,-24.78399c1.81858,-0.48398 2.48323,-1.46601 2.48323,-1.46601c0,0 -8.16593,-7.3777 -3.32899,-10.22073c1.04675,-0.61525 15.38813,-5.94882 22.97882,-3.1114c6.77559,2.53274 13.73239,13.89488 13.73239,13.89488c0,0 4.91526,-4.51481 7.04785,-6.69058c1.77238,-1.80828 4.86812,-5.46671 4.86812,-5.46671c0,0 8.28472,3.83113 12.95339,10.89554c4.99425,7.55706 6.39443,18.41716 6.39443,19.61568z" fill="#ff2d32" stroke="#000000" stroke-width="3.5"/><path d="M251.83403,260.85881c0,5.72996 -14.81605,16.125 -37.43104,16.125c-22.61499,0 -42.95777,7.10496 -42.95777,1.375c0,-3.33766 -2.39717,-14.22705 7.62241,-20.23299c3.08248,-1.8477 9.66501,-5.91209 16.7487,-9.9499c9.42005,-5.36956 21.09882,-11.94211 21.09882,-11.94211l3.89276,4.83417l-4.22288,3.29598c0,0 4.92959,0.62414 7.78642,0.05969c3.4929,-0.69012 14.84915,-10.66648 18.52406,-7.89004c0.31296,0.23645 2.52349,2.05113 4.43813,6.5471c2.78531,6.54053 4.5004,17.27286 4.5004,17.77811z" fill="#ab164a" stroke="none" stroke-width="0"/><path d="M247.81458,275.23384c-2.92505,1.67171 -8.34491,3.51894 -18.33691,4.03428c-5.3488,0.27587 -12.18699,-0.9001 -20.25373,-0.29893c-7.04184,0.52479 -11.43558,8.82215 -40.62005,9.41051c-21.0279,0.42392 -27.22073,-9.98005 -27.97438,-12.39585c-0.22182,-0.71105 -0.29378,-2.8705 1.01602,-5.58458c1.33544,-2.76719 3.94003,-5.11609 3.94003,-5.11609c0,0 1.29133,4.81382 3.51127,5.9215c4.57989,2.28523 23.78527,4.6902 34.39427,4.69419c10.67164,0.00401 25.69926,-9.66503 31.91674,-9.91503c8.43826,-0.33929 19.7548,0.73355 27.31933,-1.31062c7.21049,-1.9485 10.87416,-7.02618 10.87416,-7.02618c0,0 3.28634,2.99115 2.43368,6.70679c-1.01831,4.43748 -6.33368,9.8017 -8.22044,10.88001z" fill="#feecf8" stroke="#000000" stroke-width="4.5"/><path d="M255.12354,264.23381c0,0 -1.89732,5.17215 -7.23611,8.82115c-1.90384,1.30124 -4.90318,1.69072 -7.49228,2.38725c-14.10686,3.79503 -28.97329,-0.14117 -34.33426,1.86186c-8.93088,3.33686 -7.86661,6.31703 -21.84743,7.61932c-6.43934,0.59981 -12.24209,1.31055 -12.24209,1.31055c0,0 -2.18562,-3.48381 -2.78107,-5.24426c-0.46889,-1.38628 -1.00592,-3.2172 -1.00592,-3.2172c0,0 13.40273,-0.53873 18.73427,-0.53873c4.76249,0 18.58055,-8.13765 26.80022,-10.01482c7.80312,-1.78204 17.77088,-0.41974 24.59782,-0.83825c5.27375,-0.3233 4.37184,-0.64996 7.21391,-1.15663c1.68391,-0.30021 7.36182,-5.80604 7.36182,-5.80604z" fill="#db93e6" stroke="none" stroke-width="0"/><path d="M221.79671,238.35885c0,0.29172 3.48163,-0.39877 3.48163,-0.39877c0,0 -1.97294,5.689 -3.63988,6.80511c-2.55154,1.70839 -10.89521,1.39366 -10.89521,1.39366c0,0 4.54798,-1.67928 7.14634,-3.65361c2.72441,-2.07011 3.90712,-4.82483 3.90712,-4.14639z" fill="#000000" stroke="none" stroke-width="0"/><path d="M242.53868,237.19773c0.41496,1.21559 -0.27426,2.54773 -1.53938,2.97543c-1.26513,0.42769 -2.62709,-0.21103 -3.04204,-1.42661c-0.41496,-1.21559 0.27426,-2.54773 1.53938,-2.97543c1.26513,-0.42769 2.62709,0.21103 3.04204,1.42661z" fill="#000000" stroke="none" stroke-width="0"/><path d="M244.36598,243.92095c0,1.25621 -1.0586,2.27458 -2.36445,2.27458c-1.30585,0 -2.36445,-1.01837 -2.36445,-2.27458c0,-1.25621 1.0586,-2.27457 2.36445,-2.27457c1.30585,0 2.36445,1.01836 2.36445,2.27457z" fill="#000000" stroke="none" stroke-width="0"/><path d="M208.9541,248.22975c0,1.013 -0.50364,3.90774 -2.18304,5.19963c-1.19459,0.91894 -4.65027,-0.13342 -4.9571,-0.35941c-1.93466,-1.42492 -3.53245,-3.71057 -5.56,-4.88673c-4.77092,-2.76758 -9.65048,-1.47965 -9.65048,-6.11856c0,-3.03655 4.696,-2.24898 10.79863,-2.24898c6.10262,0 11.552,5.3775 11.552,8.41405z" fill="#feebf7" stroke="#000000" stroke-width="3"/><path d="M207.48012,249.14818c0,1.84034 -0.39328,3.58216 -2.42749,3.58216c-2.03421,0 -6.19478,-4.33197 -6.19478,-4.33197c0,0 3.15596,-4.58191 5.19017,-4.58191c2.03421,0 3.4321,3.49139 3.4321,5.33172z" fill="#dd94e8" stroke="none" stroke-width="0"/><path d="M197.51806,257.27115c0,1.4972 -0.58862,2.1047 -1.05996,2.58024c-0.41951,0.42325 -0.58953,0.79391 -2.58176,0.79391c-2.00587,0 -4.25025,-4.68131 -8.16917,-8.06633c-4.34648,-3.75431 -10.03936,-6.81651 -10.03936,-8.30457c0,-1.64327 1.32592,-2.51585 3.26628,-2.9587c0.7497,-0.1711 6.91579,2.7428 11.78628,6.85218c4.2313,3.57008 6.79768,7.78775 6.79768,9.10327z" fill="#feebf7" stroke="#000000" stroke-width="3"/><path d="M196.26229,257.14618c0,1.38036 -0.48343,2.24944 -2.00922,2.24944c-1.52579,0 -5.2742,-4.99875 -5.2742,-4.99875c0,0 1.37841,-1.91424 2.02854,-2.34556c0.60191,-0.39933 1.73875,-0.15381 1.73875,-0.15381c0,0 3.51613,3.86832 3.51613,5.24868z" fill="#dd94e8" stroke="none" stroke-width="0"/><path d="M188.14836,261.97542c0,1.07477 -2.11852,4.33188 -4.0181,2.99899c-2.03618,-1.42872 -4.25754,-6.07406 -8.06449,-9.22955c-5.2354,-4.33949 -9.96836,-6.67979 -9.80205,-8.11179c0.24532,-2.1122 2.09228,-2.35461 3.13119,-3.28322c1.07428,-0.96021 6.02742,2.37402 10.94377,7.40062c3.697,3.77989 7.80969,7.61827 7.80969,10.22495z" fill="#feebf7" stroke="#000000" stroke-width="3"/><path d="M186.88841,261.47972c0,1.38036 -0.41676,2.24944 -1.73211,2.24944c-1.31535,0 -4.54678,-4.99875 -4.54678,-4.99875c0,0 0.85346,-1.58102 1.41392,-2.01234c0.51889,-0.39933 1.1641,-0.48703 1.1641,-0.48703c0,0 3.70087,3.86832 3.70087,5.24868z" fill="#dd94e8" stroke="none" stroke-width="0"/></g><g stroke-linecap="butt"><path d="M344.51141,276.15506c0,6.90125 -28.68889,21.24365 -44.87008,21.24365c-9.60639,0 -26.14618,2.42813 -36.9933,-4.16472c-2.59878,-1.57953 -6.52796,-9.80222 -8.04941,-11.65006c-2.82491,-3.43092 1.39598,-14.4734 1.83421,-15.73299c1.59718,-4.59075 -1.51526,-8.3782 -2.81356,-9.53053c-1.92766,-1.71093 -9.24424,-0.64137 -12.96556,-0.15334c-1.56768,0.20559 -2.25284,-3.07379 -1.73592,-5.53222c0.60746,-2.88907 2.9134,-6.10631 3.51531,-6.43315c0.4216,-0.22893 2.80219,-2.78455 7.27071,-2.77478c3.68205,0.00806 9.60034,3.97344 12.45736,3.39243c1.53736,-0.31265 -0.30429,-4.82253 2.01336,-6.57629c4.43875,-3.35879 6.56664,-5.39057 10.64351,-6.50668c3.12023,-0.85422 6.69031,-1.17207 6.81935,-0.57771c0.22769,1.04869 1.13056,7.10317 3.77926,12.05406c2.46446,4.6065 6.86424,8.10958 7.23671,8.16361c2.75418,0.39955 1.0596,0.25385 3.83727,-0.1576c2.17976,-0.32288 10.89413,-9.88737 15.0785,-15.68901c3.64124,-5.0486 9.50104,-8.88318 10.95577,-8.93226c2.16154,-0.07293 7.82743,5.55332 6.21257,9.51305c-0.33549,0.82263 -10.74508,9.40329 -10.36646,9.50671c8.51622,2.32617 17.15613,8.6345 22.15353,15.85533c3.55637,5.13866 3.98687,12.19788 3.98687,14.68251z" fill="#ff2d32" stroke="#000000" stroke-width="3.5"/><path d="M340.62133,274.73071c0,5.24539 -33.71275,20.49487 -52.9931,20.49487c-19.28035,0 -29.63596,-9.9975 -29.63596,-9.9975c0,0 16.13219,-20.74473 35.41253,-20.74473c4.63235,0 17.96419,-4.92835 26.61766,-3.55514c4.8832,0.77491 8.93884,9.21236 8.93884,9.21236c0,0 2.31683,-2.18897 3.07486,-4.3198c0.92365,-2.59632 1.81784,-9.88945 1.81784,-9.88945c0,0 2.11564,1.96864 3.32258,2.27389c5.85471,1.48071 3.44473,14.53741 3.44473,16.5255z" fill="#ab164a" stroke="none" stroke-width="0"/><path d="M347.15127,274.48079c0,5.93558 -10.81239,19.24518 -37.29609,24.99374c-16.3304,3.54469 -35.97889,2.56163 -45.62712,-0.4261c-19.28151,-5.97085 -17.2865,-19.48856 -17.2865,-21.5684c0,-2.1552 6.30366,-5.24624 6.30366,-5.24624c0,0 0.69984,10.91468 5.26947,13.20446c10.02025,5.02101 30.03947,4.28872 41.2944,4.28872c10.06328,0 28.60022,-6.25507 36.30049,-15.98895c3.44273,-4.35195 2.10684,-16.74846 2.10684,-16.74846c0,0 0.30666,-0.5435 2.14036,-0.31856c8.32688,1.02148 6.79449,16.07399 6.79449,17.80978z" fill="#f9e8f4" stroke="#000000" stroke-width="4"/><path d="M286.62067,248.69768l-8.87331,1.33289c0,0 0.79654,-4.88527 0.88023,-7.00905c0.12359,-3.13624 1.79851,-10.65172 1.79851,-10.65172c0,0 1.38028,5.13181 2.50182,9.2423c0.9564,3.50521 3.69274,7.08558 3.69274,7.08558z" fill="#ab164a" stroke="none" stroke-width="0"/><path d="M325.79714,230.53707c0,0 2.93218,3.13363 1.42276,5.51472c-1.97386,3.11375 -9.02486,6.84212 -10.96575,7.98078c-0.49825,0.29231 -1.85871,0.51003 -3.11182,1.15471c-2.91001,1.49713 -6.37711,5.49916 -7.98489,5.94249c-3.22454,0.88914 -1.45986,-3.26515 -1.45986,-3.26515c0,0 4.08199,-7.05362 9.67391,-11.67581c5.28157,-4.36566 12.42564,-5.65175 12.42564,-5.65175z" fill="#ab164a" stroke="none" stroke-width="0"/><path d="M273.89669,257.19482l-2.67873,0.83306l-8.37105,-13.4955l0.66969,-3.83205z" fill="#000000" stroke="none" stroke-width="0"/><path d="M344.63976,263.48354c0,0 1.79969,12.11569 -0.79656,15.88786c-1.59244,2.31369 -8.89247,8.67081 -18.49378,13.20631c-8.05119,3.80325 -18.56812,6.52871 -22.65207,6.89682c-24.95587,2.24944 -39.9332,-2.74931 -39.9332,-2.74931c0,0 20.73252,5.84006 51.87755,-3.8391c7.13784,-2.21828 16.20653,-5.86496 22.37773,-11.7421c5.41203,-5.15415 7.62034,-17.66048 7.62034,-17.66048z" fill="#db93e6" stroke="none" stroke-width="0"/><path d="M293.3175,264.19248c0,2.48445 -28.1267,-0.51454 -28.1267,-3.99867c0,-1.25098 4.97105,-5.91216 10.23956,-8.90865c5.19477,-2.95455 10.68804,-4.25362 10.68804,-4.25362l4.28881,5.28695c0,0 2.57669,1.54527 3.91951,1.48954c1.20739,-0.05012 3.10466,-0.80921 3.10466,-0.80921c0,0 2.05864,-3.74668 5.42271,-4.78334c3.0702,-0.9461 8.84683,3.0873 8.18491,4.13187c-1.33854,2.11234 -17.72149,11.58477 -17.72149,11.84514z" fill="#fcecf8" stroke="#000000" stroke-width="2.5"/><path d="M289.29941,254.36245c0,0.88438 2.95796,-0.36437 9.04564,-0.24153c2.4014,0.04845 0.75284,-4.83163 6.133,-4.96823c5.31753,-0.13501 6.00204,6.83029 5.91802,7.20946c-0.48446,2.18656 -16.00948,7.66375 -17.24599,7.66375c-2.49652,0 -12.89141,-13.66211 -12.89141,-13.66211l5.19004,-2.33255c0,0 3.85068,3.38669 3.85068,6.33122z" fill="#db93e6" stroke="none" stroke-width="0"/><path d="M317.17883,257.91499c-3.54275,2.06802 -13.87101,3.35447 -22.76874,3.71069c-8.77401,0.35126 -18.7326,4.60812 -23.6027,4.97682c-2.00163,0.15154 -2.59423,-0.54022 -2.74093,-1.75448c-0.34216,-2.83213 11.71376,-8.6395 25.35145,-11.18642c6.06405,-1.1325 14.63964,-1.04275 19.22603,0.19548c4.62382,1.24835 5.23099,3.65157 4.53488,4.05791z" fill="#feeffb" stroke="#000000" stroke-width="2.5"/><path d="M323.21219,263.57482c-3.76024,2.01797 -15.04609,1.85485 -24.40315,2.39938c-9.93687,0.57828 -20.49188,6.36933 -25.62394,6.66948c-2.1093,0.12336 -2.41548,-2.24244 -2.55175,-3.45864c-0.31783,-2.83665 11.14965,-6.12472 25.54355,-8.47955c6.40031,-1.04708 16.81732,-2.20413 21.6267,-0.90149c4.84863,1.31327 6.14743,3.37431 5.40859,3.77081z" fill="#feeffb" stroke="#000000" stroke-width="2.5"/><path d="M261.84239,252.19651c0,0 -3.35983,2.54372 -6.6551,3.08434c-1.46672,0.24063 -2.92066,-1.25162 -4.05984,-1.25162c-3.69856,0 -6.25278,1.93219 -10.04525,0.49983c-2.2636,-0.85492 0,-5.49816 0,-5.49816c0,0 5.21659,-0.75898 7.68151,-0.6285c2.74972,0.14556 13.07867,3.79411 13.07867,3.79411z" fill="#ab164a" stroke="none" stroke-width="0"/><path d="M303.02792,254.52906l-3.20233,4.50323l-8.34971,1.32816l-4.85521,-3.83206c0,0 5.43895,-2.10713 9.00453,-2.49523c3.57765,-0.38942 7.4027,0.49589 7.4027,0.49589z" fill="#db93e6" stroke="none" stroke-width="0"/><path d="M252.13199,254.52907c0,0.70149 7.06987,-0.08349 5.4624,0.28576c-1.5554,0.35728 -1.72338,3.54629 -2.95108,3.54629c-1.04403,0 -1.51887,-1.48672 -4.05575,-2.15442c-3.52943,-0.92892 -9.17049,-1.20782 -9.17049,-2.01086c0,-1.38025 3.36321,-3.49883 5.85973,-3.49883c2.49652,0 4.8552,2.45181 4.8552,3.83206z" fill="#000000" stroke="none" stroke-width="0"/><path d="M327.13651,236.36846c0,0.84587 -4.36387,5.43105 -5.63057,8.44163c-0.9089,2.16017 0.90097,4.03481 0.90097,4.03481l-10.18719,-3.06493c0,0 0.71677,-1.48177 3.43351,-2.33931c2.16789,-0.68429 3.44709,-1.39545 3.44709,-1.74066c0,-0.90533 -0.06694,-4.00494 1.70999,-5.13204c2.19638,-1.39316 6.32621,-1.31855 6.32621,-0.19951z" fill="#000000" stroke="none" stroke-width="0"/></g><path d="M85,326.50003v-286h347v286z" fill="none" stroke="none" stroke-width="0" stroke-linecap="butt"/><g><path d="M280.57802,216.52553c0,0 -5.97308,3.91667 -30.73444,3.91667c-35.14575,0 -41.11883,-18.58334 -41.11883,-18.58334c0,0 14.06474,-10.43256 26.8936,-17.08343c12.37648,-6.41635 4.83992,-23.87123 16.65384,-23.7499c1.20236,0.01235 37.7002,-14.18812 47.22121,-16.07306c7.7202,-1.52842 0.28291,12.09126 4.76399,18.42103c1.53828,2.1729 -1.20789,8.66483 -0.43452,13.3924c0.82663,5.05321 6.91686,12.78909 6.58504,14.51507c-0.59132,3.07583 -7.04107,5.76705 -12.18708,5.21891c-6.45685,-0.68778 -15.81858,-8.65767 -15.81858,-8.65767c0,0 -1.94928,9.06754 -2.25413,17.1829c-0.24812,6.60523 0.4299,11.50042 0.4299,11.50042z" fill="#feebf7" stroke="#000000" stroke-width="3.5" stroke-linecap="butt"/><path d="M303.1533,168.98383c0,0 -39.90883,9.33171 -51.14954,11.76644c-5.22002,1.13065 -11.97113,2.23356 -11.97113,2.23356c0,0 2.0838,-3.48159 3.00811,-6.11434c1.60106,-4.56037 3.00609,-10.07451 5.63035,-11.62796c3.935,-2.32934 52.71484,-18.5077 52.71484,-18.5077c0,0 0.83962,17.50907 1.68605,18.70638c0.91552,1.29503 0.08133,3.54362 0.08133,3.54362z" fill="#cb8ad4" stroke="none" stroke-width="0" stroke-linecap="butt"/><path d="M284.55372,188.02553l-1.76738,2.125l-7.57448,-13.375z" fill="#000000" stroke="none" stroke-width="0" stroke-linecap="butt"/><path d="M281.55859,186.72426c0,0 -0.91813,3.38831 -1.57151,5.28157c-0.75994,2.20201 -1.20956,8.39471 -1.20956,8.39471c0,0 -2.61601,-10.17445 -3.27683,-14.26836c-0.6363,-3.94201 -1.11978,-10.85664 -1.11978,-10.85664z" fill="#d991e5" stroke="none" stroke-width="0" stroke-linecap="butt"/><path d="M248.12681,207.65053c-6.95047,2.17004 -15.7022,-1.08908 -15.7022,-5.75c0,-4.37262 5.43837,-11.23267 12.34392,-12.85967c3.76983,-0.88819 15.39384,-4.90606 20.65739,-0.28232c2.98136,2.61897 -4.48738,14.89198 -17.29911,18.89198z" fill="none" stroke="#ff0c0d" stroke-width="4.5" stroke-linecap="butt"/><path d="M250.76478,206.15053l-6.02964,-17" fill="none" stroke="#ff0c0d" stroke-width="4.5" stroke-linecap="round"/></g><g stroke-linecap="butt"><path d="M327.8848,152.45829c-5.28644,-0.57413 -6.68096,-0.31282 -10.62872,-2.8808c-4.58881,-2.98498 -5.86919,-3.62271 -5.49374,-6.76751c0.69845,-5.85028 9.97998,-3.80849 21.41126,-2.56699c4.65648,0.50572 19.05132,-0.37399 27.87917,0.63438c4.17361,0.47673 6.48171,2.77315 7.07599,3.25476c1.5776,1.27852 -1.4747,11.29193 -2.24121,13.97903c-0.21769,0.76313 -2.63955,1.54121 -5.97296,1.08929c-8.44738,-1.14524 -23.83301,-5.85195 -32.02979,-6.74216z" fill="#0066cc" stroke="#000000" stroke-width="5"/><path d="M362.54028,157.45636c-1.38019,0.25731 -27.20156,-5.80932 -33.17379,-8.334c-4.60179,-1.94534 2.48774,-3.98078 2.48774,-3.98078c0,0 11.4619,3.27965 17.09565,4.76959c3.35806,0.8881 5.14511,1.248 8.82154,1.85944c2.33275,0.38796 7.37679,1.23563 7.37679,1.23563c0,0 -0.00336,3.96456 -2.60793,4.45012z" fill="#0f1980" stroke="none" stroke-width="0"/><path d="M188.06417,156.23771c0.46311,-3.87898 5.98213,-7.99701 11.21069,-9.71518c4.75813,-1.56358 7.8825,-1.56344 7.8825,-1.56344c0,0 -1.56385,-5.49459 -2.35014,-9.19476c-0.82748,-3.89403 -0.97903,-11.14591 -0.97903,-11.14591c0,0 28.01775,-14.91612 55.38665,-13.08988c25.43162,1.69694 50.59048,22.12632 52.95241,26.25822c0.21125,0.36956 0.3694,6.51238 -1.43531,11.33344c-1.34182,3.58451 -3.70015,5.86416 -8.29257,7.5462c-14.76008,5.4061 -33.30837,11.02727 -50.53139,12.93061c-10.95501,1.21065 -28.87845,2.61776 -42.08446,-0.51876c-12.12243,-2.87915 -22.27244,-5.54279 -21.75935,-12.84054z" fill="#fddfbd" stroke="#000000" stroke-width="3.5"/><path d="M310.67146,138.60526c0,0 1.11323,8.04152 -2.63726,12.36539c-3.59772,4.14774 -12.71465,6.62814 -12.71465,6.62814l-4.46746,-5.87639l-9.66576,9.67628l-13.64658,-23.55614l-20.71784,11.56979l-3.83299,-18.63348l-34.74144,10.75478l-3.28886,-15.54735c0,0 69.51747,-11.47182 76.11602,-10.75519c6.59856,0.71663 29.59679,23.37415 29.59679,23.37415z" fill="#f99587" stroke="none" stroke-width="0"/><path d="M312.136,139.96895c-6.95978,-1.42679 -33.37456,-8.0376 -43.02204,-15.00813c-18.61008,-13.44624 -30.89824,-17.68449 -41.37701,-18.82254c-19.88863,-2.15999 -22.56238,2.28511 -21.49353,-6.66759c0.24882,-2.08413 -2.99723,-40.29297 -1.18714,-41.95034c5.96546,-5.46214 27.88781,-13.19844 62.68807,-9.54663c14.66226,1.5386 35.631,13.64197 37.27398,14.52885c15.24716,8.23043 27.12492,50.14721 26.21068,57.80484c0,0 2.59417,3.53652 0.41131,6.22017c-2.3521,2.89173 -6.81805,3.58441 -10.48863,6.23244c-3.99469,2.88185 -7.177,7.58589 -9.01571,7.20893z" fill="#ff2d32" stroke="#000000" stroke-width="5"/><path d="M251.06931,135.71519c0,0 -1.46687,-4.59654 -1.70311,-6.91493c-0.24687,-2.42279 -0.08421,-7.60129 -0.08421,-7.60129c0,0 -15.06802,-0.80757 -22.10681,0.89327c-7.2076,1.74162 -22.06719,10.1751 -22.06719,10.1751l0.65392,4.87728c0,0 -9.07329,1.75691 -13.9901,3.32294c-5.74615,1.83017 -18.13418,6.98966 -18.13418,6.98966c0,0 2.9598,-9.84791 5.91471,-14.41547c2.92805,-4.52606 12.24307,-15.28954 12.24307,-15.28954c0,0 -3.68355,0.35265 -5.82141,0.12046c-10.96661,-1.19104 -22.84414,3.41452 -22.84414,3.41452c0,0 31.95588,-48.2719 42.92251,-47.08088c1.44295,0.15671 8.20813,2.13076 15.45611,6.30635c7.67312,4.42047 11.39545,10.62716 11.39545,10.62716c0,0 0.341,-2.82495 4.08067,-10.28064c3.10149,-6.18331 19.69597,-13.19987 19.69597,-13.19987c0,0 -3.44832,18.48113 -0.64184,27.02873c2.96629,9.03437 9.34909,27.73657 9.34909,27.73657c0,0 -6.56982,5.42127 -9.12735,7.75439c-1.82784,1.66747 -5.19116,5.53623 -5.19116,5.53623z" fill="#66ffff" stroke="#000000" stroke-width="3.5"/><path d="M240.54714,106.77144c0,0 0.57253,-9.95987 1.79615,-14.99877c1.46925,-6.05046 11.60037,-20.75487 11.60037,-20.75487c0,0 -0.57076,3.08367 -0.51658,6.76251c0.09349,6.34888 0.53494,15.9137 2.2469,20.88526c2.99772,8.70549 8.00411,23.31954 8.00411,23.31954c0,0 -4.07865,2.97847 -6.00594,4.82413c-1.9515,1.86883 -5.83324,6.29832 -5.83324,6.29832c0,0 -0.74239,-3.75512 -0.941,-5.93787c-0.22053,-2.42409 -0.15012,-7.69601 -0.15012,-7.69601c0,0 -17.96444,-0.35713 -26.02116,1.72609c-6.97369,1.80317 -21.55026,10.34697 -21.55026,10.34697l0.7398,4.12091c0,0 -5.5599,0.96549 -8.6963,1.85994c-3.62691,1.03435 -11.80819,3.98768 -11.80819,3.98768l32.77589,-32.02426c0,0 -8.99086,-2.59079 -14.03911,-1.97019c-6.51198,0.80052 -14.65836,2.98026 -14.65836,2.98026c0,0 6.51066,-5.62636 10.86495,-9.1759c4.2676,-3.47886 13.98972,-10.94433 13.98972,-10.94433c0,0 11.48561,6.53935 17.19866,8.86582c5.72011,2.32936 11.00368,7.52477 11.00368,7.52477z" fill="#50a5eb" stroke="none" stroke-width="0"/><path d="M311.86314,141.08419l-2.5918,18.49638c0,0 -9.25837,-9.0453 -13.01641,-12.54808c-2.68691,-2.50444 -7.41684,-6.49739 -7.41684,-6.49739l-7.0384,9.89872c0,0 -5.36473,-10.96788 -7.83653,-15.48088c-2.15949,-3.94284 -6.18422,-10.11832 -6.18422,-10.11832z" fill="#67fcfd" stroke="#000000" stroke-width="3"/><path d="M310.23367,141.88268l-1.72455,14.44481l-19.68659,-17.37538l-6.45412,8.01461l-8.08421,-14.58l-3.00639,-4.73343c0,0 14.05202,4.89482 20.16627,7.11043c6.05788,2.19519 18.78962,7.11898 18.78962,7.11898z" fill="#51a7ee" stroke="none" stroke-width="0"/><path d="M321.74149,131.81767c-3.62446,3.75723 -9.14015,7.70871 -9.14015,7.70871c0,0 -8.9291,-3.59558 -13.71122,-5.2527c-5.20096,-1.80227 -18.43546,-6.20214 -18.43546,-6.20214c0,0 0.86079,-5.23594 2.18593,-12.06856c3.54743,-18.29105 12.58525,-51.63394 22.06487,-50.60443c1.0536,0.11443 1.91628,-0.30115 1.91628,-0.30115c0,0 6.43269,6.32761 12.34704,17.02827c6.73359,12.18286 10.73006,29.41652 10.37524,35.79403c-0.01266,0.22775 0.44751,5.36239 -0.06748,6.31869c0,0 -4.11702,4.03603 -7.53505,7.57927z" fill="#ab164a" stroke="#000000" stroke-width="2.5"/><path d="M332.43664,128.83309c2.14713,3.33167 1.18066,13.35983 -3.57264,23.5708c-3.03759,6.52532 -5.61023,10.49401 -8.58626,10.17079c-5.42506,-0.58918 -9.68923,-7.952 -9.68923,-7.952l1.21356,-13.01932c0,0 17.47533,-17.82186 20.30123,-13.43694z" fill="#fddfbd" stroke="#000000" stroke-width="4.5"/><path d="M324.45501,150.97669l2.07291,2.17635c0,0 -1.10143,2.40782 -1.89745,3.76424c-0.75126,1.28013 -2.16115,4.58 -4.01295,4.02176c-1.85182,-0.55826 -8.6197,-4.15244 -8.27082,-7.0746c0.09206,-0.77101 0.39828,-2.73365 0.48666,-4.33057c0.12431,-2.24618 0.14927,-4.45317 1.15744,-5.23818c0.99164,-0.77213 0.87217,3.4065 0.87217,3.4065l9.1856,-4.54012z" fill="#fa9789" stroke="none" stroke-width="0"/><path d="M314.95885,148.15165c0.0506,-1.19276 8.6256,-6.09096 9.30567,-5.20171c0.77721,1.01623 -2.29239,13.60805 -3.48792,14.23847c0,0 -5.85842,-8.07804 -5.81775,-9.03677z" fill="none" stroke="#000000" stroke-width="2"/></g><path d="M271.23226,135.13845c0,7.70055 0.17993,13.24256 -1.91203,13.60376c-2.46362,0.42537 -7.11377,-7.59897 -7.11377,-13.40376c0,-5.73855 -1.11436,-5.44977 0.13216,-7.78372c0.05415,-0.10139 5.9865,-11.50639 10.40922,-16.37037c5.26416,-5.78937 12.13357,-13.85682 14.32753,-14.26774c11.0082,-2.06174 14.22567,14.51841 14.22567,14.51841c0,0 -7.20699,-13.15772 -12.04568,-11.9061c-9.46862,2.44925 -18.64526,21.18883 -18.39141,21.69831c1.27224,2.55344 0.36833,7.59043 0.36833,12.9112z" fill="#000000" stroke="none" stroke-width="0" stroke-linecap="butt"/><path d="M244.80801,151.29472c-3.28841,0.18348 -7.26894,-6.97703 -7.26894,-16.40079c0,-4.94237 -0.15398,-10.24277 -0.15398,-10.24277c0,0 -6.86379,-6.67182 -12.81219,-9.77958c-3.08377,-1.61113 -5.62903,-4.00565 -7.46334,-4.07046c-5.64561,-0.19944 -9.81354,13.188 -9.81354,13.188c0,0 -0.46533,-6.75917 1.78924,-10.78818c1.06119,-1.8964 2.7187,-5.51799 6.22924,-6.26352c4.57149,-0.97085 9.7872,3.36809 14.31168,6.1239c5.66683,3.45161 18.01598,18.03481 18.01598,18.03481c0,0 0.13689,2.39622 0.01436,7.21943c-0.16431,6.46845 -0.79519,12.86459 -2.84852,12.97916z" fill="#000000" stroke="none" stroke-width="0" stroke-linecap="butt"/><path d="M232.04735,156.7812c0,0 12.45874,0.07846 22.08502,-0.11582c5.83122,-0.11769 12.78337,-4.16998 14.07779,-5.17251c2.24773,-1.7409 5.4561,-3.78214 5.4561,-3.78214l3.40893,-2.82113c0,0 1.60843,1.6832 1.81584,2.24146c-0.2565,5.02101 -0.85062,19.66106 -3.94635,24.95574c-0.18882,0.32294 -2.83546,1.45599 -4.547,0.02605c-4.54457,-3.79686 -10.96682,-13.56306 -10.96682,-13.56306c0,0 -5.9344,0.13392 -15.37156,0.05102c-4.83481,-0.04246 -12.01195,-1.81962 -12.01195,-1.81962z" fill="#000000" stroke="none" stroke-width="0" stroke-linecap="butt"/><path d="M261.19617,156.83449c0,0 6.00445,-2.02588 7.97228,-3.55082c1.84724,-1.43149 7.6268,-5.94686 7.6268,-5.94686c0,0 0.31626,21.94007 -3.54592,24.04683c-3.38408,1.84596 -12.05316,-14.54915 -12.05316,-14.54915z" fill="#ff6666" stroke="none" stroke-width="0" stroke-linecap="butt"/><g stroke-linecap="butt"><path d="M332.47617,208.05097c0.49054,4.80886 -1.27306,5.71489 -3.46404,10.40538c-3.691,7.70065 1.60104,11.71309 -9.24563,18.52596c-7.38495,4.63854 -20.00836,-2.50326 -20.00836,-2.50326c0,0 -6.50769,1.82024 -9.825,1.82024c-5.43915,0 -8.12444,-8.68616 -11.69323,-8.623c-2.6053,0.04611 -12.59898,2.25577 -13.22854,-8.00851c-2.21554,-12.09554 15.20766,-14.10785 15.20766,-22.75809c0,-11.8254 -0.75487,-38.01171 5.9182,-41.98761c5.57869,-3.32385 9.43186,-2.76523 15.8632,-2.76523c3.83382,0 -2.57563,36.49353 -2.57563,36.49353c0,0 0.5797,-0.36284 1.12797,-1.45196c3.52492,-7.00219 16.56643,-33.20847 19.77417,-32.13189c0.59524,0.19977 14.29025,6.1286 14.3779,9.37413c0.10095,3.73852 -3.25916,9.00846 -5.98186,13.64267c-5.36064,9.12416 -12.10713,17.32667 -12.10713,17.32667c0,0 8.9253,2.96111 13.09169,7.96241c1.01896,1.22316 2.66325,3.34833 2.76864,4.67856z" fill="#fddfbd" stroke="#000000" stroke-width="3"/><path d="M331.87439,209.58605c0,0 -0.27129,2.10787 -1.26669,3.80137c-1.07884,1.83545 -2.91166,3.35322 -3.56057,5.7423c-1.15968,4.26958 0.1092,8.04276 -2.41532,12.04367c-2.45816,3.89574 -5.95239,6.48077 -9.69508,6.48077c-0.05645,0 -4.77966,-0.25414 -5.47395,-0.44883c-3.64701,-1.02267 -10.10865,-4.08172 -10.10865,-4.08172c0,0 -6.96393,2.92803 -10.80119,1.73786c-5.56763,-1.72687 -4.67347,-6.39694 -9.11724,-8.12971c-2.02754,-0.7906 -4.4754,1.48056 -8.55233,-0.09903c-5.3229,-2.06232 -4.78612,-7.35825 -4.78612,-7.35825c0,0 3.02045,2.2835 7.15565,1.81911c3.68006,-0.41327 7.3183,-2.35616 7.68746,-2.33652c1.56507,0.08327 8.15214,7.5676 11.9439,7.57784c5.24565,0.01417 7.40903,-6.64733 7.45606,-6.93909c0.55152,-3.4224 -0.32565,-3.70962 -2.10811,-5.78206c-2.11492,-2.45897 -10.92289,-1.3439 -10.92289,-1.3439c0,0 -0.96635,0.56133 -2.31175,0.89297c-3.08205,0.75974 -8.15326,1.48881 -8.15326,-0.12013c0,-1.88635 1.86804,-4.9168 5.1504,-5.98706c3.12857,-1.02011 7.60531,-0.10758 10.45738,-0.7662c3.24052,-0.74832 1.15856,-1.95753 5.33961,-1.95753c2.4622,0 3.6675,1.96167 6.00129,2.49262c4.13339,0.94037 13.71686,-10.73929 13.71686,-10.73929l1.71158,1.55979l-4.92428,10.14518l-2.04567,2.76462c0,0 1.41028,4.64453 3.5897,5.78176c7.35122,3.8359 15.1576,-9.87205 15.1576,-9.87205z" fill="#f89587" stroke="none" stroke-width="0"/><path d="M314.09645,196.49206c0.89404,-1.61649 2.70689,-2.80667 2.70689,-2.80667l2.21226,2.00487c0,0 -1.81867,1.70908 -2.74984,2.82455c-1.20815,1.44726 -3.88695,5.12578 -3.88695,5.12578c0,0 -0.94173,-2.3402 1.71764,-7.14853z" fill="#000000" stroke="none" stroke-width="0"/><path d="M307.26295,224.44972c0.39847,5.35261 -5.84362,8.9038 -9.60422,10.11682c-2.54088,0.8196 -4.01504,0.3223 -4.01504,0.3223c0,0 11.80479,-4.78952 11.26874,-10.02432c-0.90987,-8.88519 -7.54098,-11.96863 -12.73807,-12.46919c-4.11942,-0.39676 -7.9619,1.03484 -7.9619,1.03484c0,0 1.65281,-1.39347 4.59175,-1.9739c2.8274,-0.5584 7.06579,-0.86588 7.9301,-0.46543c1.94505,0.90117 4.85096,2.07815 6.72068,4.82402c1.76825,2.59684 3.65747,5.02528 3.80796,8.63487z" fill="#000000" stroke="none" stroke-width="0"/><path d="M329.38559,218.29685c0,0 -5.09058,8.84906 -11.19959,8.84906c-6.109,0 -11.75266,-0.69905 -11.75266,-7.18987c0,-6.49082 8.15773,-12.30573 8.15773,-12.30573c0,0 -10.37724,12.42027 -3.34572,16.35908c8.61812,4.82757 19.03882,-10.55933 19.03882,-10.55933z" fill="#000000" stroke="none" stroke-width="0"/></g></g></g></svg>