<svg version="1.1" xmlns="http://www.w3.org/2000/svg" xmlns:xlink="http://www.w3.org/1999/xlink" width="347" height="286" viewBox="0,0,347,286"><g transform="translate(-85,-40.50003)"><g data-paper-data="{&quot;isPaintingLayer&quot;:true}" fill-rule="nonzero" stroke-linejoin="miter" stroke-miterlimit="10" stroke-dasharray="" stroke-dashoffset="0" style="mix-blend-mode: normal"><text transform="translate(211.22476,115.34676) scale(0.20352,0.20352)" font-size="40" xml:space="preserve" fill="#000000" fill-rule="nonzero" stroke="none" stroke-width="1" stroke-linecap="butt" stroke-linejoin="miter" stroke-miterlimit="10" stroke-dasharray="" stroke-dashoffset="0" font-family="Sans Serif" font-weight="normal" text-anchor="start" style="mix-blend-mode: normal"><tspan x="0" dy="0">Polargaming64</tspan><tspan x="0" dy="46.150000000000006px"> </tspan><tspan x="0" dy="46.150000000000006px">MeIzAwezomeDede</tspan><tspan x="0" dy="46.150000000000006px"> </tspan><tspan x="0" dy="46.150000000000006px">AwezomeXD</tspan></text><path d="M250.47476,203.35887c0,5.33875 -33.06429,8.66667 -37.66667,8.66667c-4.60237,0 -7.33333,-1.99458 -7.33333,-7.33333c0,-5.33875 0.73096,-9.25 5.33333,-9.25c0.44559,0 12.29281,-1.86911 17.97875,-7.38044c4.38632,-4.25162 1.72421,-12.04032 4.41888,-13.00741c7.31946,-2.62687 7.1126,-7.07871 8.65623,-6.35722c4.76031,2.22494 8.61281,31.32168 8.61281,34.66174z" fill="#d38ddd" stroke="#000000" stroke-width="3.5" stroke-linecap="butt"/><path d="M216.05809,214.77554c0,0 -1.89982,12.16667 -10,12.16667c-8.10018,0 -26.33133,0.86748 -26.33133,-5.66789c0,-6.53537 19.06449,-20.99877 27.16467,-20.99877c8.10018,0 9.16667,14.5 9.16667,14.5z" fill="#f89587" stroke="#000000" stroke-width="3.5" stroke-linecap="butt"/><g><g stroke-linecap="butt"><path d="M185.24205,192.90559c0,0 10.26371,-3.44964 11.82663,0.87058c0.16149,0.44637 3.45181,15.87216 -6.79709,16.6601c-2.22049,0.17071 -9.59912,0.41474 -12.00986,-2.11172c-4.7161,-4.94252 -4.0944,-14.54747 -4.42542,-14.43967c-4.3761,1.42531 -15.69546,15.853 -16.66467,12.87726c-0.49714,-1.52636 2.10856,-7.20106 6.26532,-14.22158c1.15571,-1.95193 2.96902,-4.42518 4.1466,-6.18775c0.34636,-0.51841 1.00525,-2.17321 1.32872,-2.64806c2.3328,-3.42452 4.08127,-5.67151 5.40508,-6.10266c4.3761,-1.42531 10.92467,15.3035 10.92467,15.3035z" fill="#fddfbd" stroke="#000000" stroke-width="3"/><path d="M195.78083,195.02594c0,0 0.81416,1.69342 0.72724,5.01784c-0.08815,3.37117 -2.2768,7.97582 -4.65638,8.75087c-2.08786,0.68001 -9.96956,2.51001 -12.46826,0.05863c-3.1575,-3.09771 -0.75459,-10.78808 -0.93361,-11.33773c-0.32069,-0.98461 6.353,5.68715 11.07919,4.14782c4.7262,-1.53932 6.25181,-6.63742 6.25181,-6.63742z" fill="#f49285" stroke="none" stroke-width="0"/></g><g><path d="M210.47289,238.52725c1.41817,6.84796 -3.90096,12.03754 -10.65882,13.43704c-6.75786,1.39951 -40.65381,-24.59369 -42.07199,-31.44166c-1.41817,-6.84796 6.88207,-15.71753 13.63993,-17.11706c6.75786,-1.39951 37.6727,28.27371 39.09089,35.12167z" fill="#465e85" stroke="#000000" stroke-width="2.5" stroke-linecap="butt"/><path d="M166.28593,186.49444c1.41208,14.68578 -9.2062,27.72201 -23.71661,29.11725c-14.51041,1.39523 -27.41814,-9.37888 -28.83023,-24.06468c-1.41208,-14.68578 9.2062,-27.722 23.71661,-29.11724c14.51041,-1.39523 27.41814,9.37888 28.83023,24.06468z" fill="#465e85" stroke="#000000" stroke-width="3" stroke-linecap="butt"/><path d="M167.9953,197.42746c0.02123,0.22083 -4.52166,6.75867 -9.11943,11.37769c-4.06698,4.08577 -8.25155,6.34484 -8.27156,6.13675c-0.02242,-0.23315 -5.2394,1.8866 -5.33745,0.05211c-0.075,-1.40302 2.02272,-7.51618 2.73528,-9.21968c0.65683,-1.57024 1.96523,-3.72258 3.53602,-5.48961c1.25142,-1.40782 3.61808,-3.80839 6.81775,-5.32454c3.72932,-1.76713 7.47109,-2.74302 8.00062,-2.66993c3.33932,0.46087 1.57492,4.47335 1.63875,5.13722z" fill="#0d1522" stroke="#000000" stroke-width="3" stroke-linecap="butt"/><path d="M131.45855,181.47265c0.6546,1.14904 -0.01098,2.75684 -1.48658,3.59109c-1.4756,0.83425 -3.20246,0.57907 -3.85706,-0.56998c-0.6546,-1.14904 0.01096,-2.75684 1.48657,-3.5911c1.4756,-0.83425 3.20247,-0.57907 3.85707,0.56999z" fill="#6283b8" stroke="none" stroke-width="0" stroke-linecap="butt"/><path d="M123.7152,178.59951c0.95548,1.27991 0.32581,3.35698 -1.40639,4.63927c-1.7322,1.28229 -3.91099,1.28421 -4.86648,0.0043c-0.95548,-1.27991 -0.32583,-3.35698 1.40637,-4.63927c1.7322,-1.28229 3.911,-1.2842 4.8665,-0.00431z" fill="#6283b8" stroke="none" stroke-width="0" stroke-linecap="butt"/><path d="M125.51585,211.55039c0,0 -6.2559,-3.47825 -8.28189,-6.42918c-1.99202,-2.90147 -3.77384,-11.13054 -3.77384,-11.13054c0,0 13.94163,-0.65458 21.33805,-2.13861c8.33463,-1.67227 26.19211,-7.39784 26.19211,-7.39784c0,0 1.99424,1.566 0.97259,3.06233c-3.16627,4.63732 -22.46808,28.41997 -22.46808,28.41997z" fill="#313243" stroke="none" stroke-width="0" stroke-linecap="butt"/><path d="M150.92557,164.79299c0,0 4.86336,6.31 6.42404,9.66038c1.76405,3.78696 3.62512,11.91245 3.62512,11.91245" fill="none" stroke="#000000" stroke-width="2" stroke-linecap="round"/><path d="M122.50002,169.81832c0,0 10.05652,6.91857 14.18851,11.07775c4.18176,4.20923 10.75454,14.02924 10.75454,14.02924" fill="none" stroke="#000000" stroke-width="2" stroke-linecap="round"/><path d="M143.73135,199.86641c0,0 -9.63216,-4.00856 -14.02156,-8.04809c-4.50257,-4.14368 -12.66301,-16.5094 -12.66301,-16.5094" fill="none" stroke="#000000" stroke-width="2" stroke-linecap="round"/><path d="M141.90414,203.67129c0,0 -8.11665,-0.95577 -12.64159,-3.2301c-4.81451,-2.41985 -15.4308,-10.87948 -15.4308,-10.87948" fill="none" stroke="#000000" stroke-width="2" stroke-linecap="round"/><path d="M139.98854,208.63071c0,0 -7.63093,0.28522 -11.44842,-0.78948c-4.08752,-1.15071 -12.32203,-5.90235 -12.32203,-5.90235" fill="none" stroke="#000000" stroke-width="2" stroke-linecap="round"/><path d="M134.28324,213.57249c0,0 -0.65626,-6.31031 0.63374,-12.31984c1.09177,-5.0861 3.93462,-9.77434 6.06476,-12.1227c1.48093,-1.63268 4.77587,-3.95475 7.67617,-4.97365c6.68434,-2.34826 14.28704,-2.18213 14.28704,-2.18213" fill="none" stroke="#000000" stroke-width="2" stroke-linecap="round"/><path d="M123.44679,208.69318c0,0 -0.63337,-4.72482 0.24256,-10.23441c1.08644,-6.8337 3.94344,-15.02738 6.70301,-18.71212c2.06233,-2.75378 6.18851,-6.09483 10.47324,-7.96874c6.27923,-2.74624 12.79453,-3.42764 12.79453,-3.42764" fill="none" stroke="#000000" stroke-width="2" stroke-linecap="round"/><path d="M113.94356,192.79808c0,0 6.48486,-12.36909 12.31505,-19.13901c5.83021,-6.76992 13.51085,-10.84955 13.51085,-10.84955" fill="none" stroke="#000000" stroke-width="2" stroke-linecap="round"/><path d="M166.79299,192.96572c0.05597,0.58203 -7.03346,-0.32678 -13.1064,5.21887c-6.46908,5.9074 -8.42836,19.63458 -8.48797,19.01457c-0.03136,-0.3261 -6.55238,2.56402 -6.70075,-0.00061c-0.11348,-1.96141 2.43624,-10.47443 3.30748,-12.84491c0.80309,-2.18505 2.41626,-5.17447 4.36416,-7.6219c1.55188,-1.94987 4.49031,-5.27166 8.4868,-7.34615c4.65804,-2.41786 9.34265,-3.72999 10.0085,-3.62061c4.19902,0.68991 2.03892,6.27223 2.12819,7.20071z" fill="#465e85" stroke="#000000" stroke-width="3" stroke-linecap="butt"/><path d="M138.32935,215.73804c-12.88081,-0.65013 -24.09458,-10.74175 -25.38044,-24.11507c-1.41208,-14.68578 9.99637,-27.79799 24.5068,-29.19322c13.61139,-1.30878 25.92172,9.22609 28.54692,22.51754c0.09395,0.47563 -11.67654,1.81004 -18.87284,10.25864c-6.08645,7.14562 -8.22117,20.5613 -8.80042,20.53207z" fill="none" stroke="#000000" stroke-width="3" stroke-linecap="butt"/><path d="M133.68201,163.77692c0,0 10.69397,6.98357 13.79041,11.11071c3.2251,4.29865 5.18991,14.18758 5.18991,14.18758" fill="none" stroke="#000000" stroke-width="2" stroke-linecap="round"/><path d="M145.81431,205.65569c0.82414,0.58764 0.84262,1.97505 0.04129,3.09886c-0.80132,1.12382 -2.11902,1.55847 -2.94315,0.97084c-0.82413,-0.58764 -0.84262,-1.97505 -0.04129,-3.09887c0.80133,-1.12382 2.11903,-1.55846 2.94315,-0.97084z" fill="#6283b8" stroke="none" stroke-width="0" stroke-linecap="butt"/><path d="M149.84858,197.30015c1.14097,0.14969 1.28656,1.3966 0.32523,2.78505c-0.96134,1.38843 -2.6656,2.39264 -3.80655,2.24294c-1.14097,-0.14969 -1.28657,-1.3966 -0.32524,-2.78505c0.96134,-1.38843 2.66561,-2.39264 3.80656,-2.24294z" fill="#6283b8" stroke="none" stroke-width="0" stroke-linecap="butt"/><path d="M202.82127,246.90465c0.37146,0.63553 -0.10023,1.60245 -1.05356,2.15962c-0.95331,0.55719 -2.02726,0.49366 -2.39871,-0.14188c-0.37146,-0.63553 0.10023,-1.60245 1.05356,-2.15962c0.95331,-0.55719 2.02726,-0.49366 2.39871,0.14188z" fill="#6283b8" stroke="none" stroke-width="0" stroke-linecap="butt"/></g><g stroke-linecap="butt"><path d="M195.20819,216.99732c0.30781,0.94508 8.72334,-4.89139 13.23051,2.60203c2.40899,4.00509 -2.34258,12.05939 -2.81978,16.22386c-0.6705,5.85149 -15.99664,16.23732 -17.58963,15.81676c-3.3991,-0.89735 -8.68906,-6.41793 -8.68906,-6.41793c0,0 -0.64054,-1.43268 -4.49489,1.41577c-1.83338,1.35492 -2.55861,0.5148 -4.13528,-0.143c-3.92708,-1.63843 -8.54231,-7.4304 -8.54231,-7.4304c0,0 -3.17842,0.98173 -6.97835,1.55063c-1.817,0.27201 -3.66087,1.42618 -5.58354,0.50124c-4.98575,-2.3985 -5.33493,-10.1793 -7.03192,-15.38959c-1.4741,-4.52593 1.48606,-9.03837 5.31226,-14.64927c5.82961,-8.54873 13.39164,-15.36887 21.63478,-18.05367c2.93168,-0.95484 6.90832,0.38409 10.32468,3.63871c1.60042,1.52466 3.19218,2.56044 3.77584,4.06757c1.28002,3.30531 -0.8783,5.89675 -0.8783,5.89675c0,0 5.76837,0.58227 8.30487,1.32287c2.6778,0.78184 3.27347,6.32551 4.16009,9.04769z" fill="#fddfbd" stroke="#000000" stroke-width="2.5"/><path d="M147.62694,226.71017c0.50605,1.5537 2.83729,2.99486 3.90139,4.63526c0.35504,0.54732 4.01759,0.1191 7.35878,-2.04152c7.39985,-4.78521 16.88963,-14.65432 16.41334,-14.49919c-0.02374,0.00773 -5.33185,13.14641 -1.77938,17.20825c1.67392,1.91394 5.1515,2.82883 7.09021,3.67316c2.82488,1.23026 8.22058,-7.01274 8.22058,-7.01274c0,0 -3.4364,8.33867 -0.04482,8.17624c4.72545,-0.22629 20.69476,-16.58742 20.69476,-16.58742c0,0 -0.62392,6.94722 -1.9078,12.52663c-1.14871,4.992 -6.22347,8.62929 -8.48764,10.27215c-5.41325,3.92779 -11.08105,4.69728 -10.79593,5.44516c0.2746,0.72024 -2.48354,0.13701 -4.74096,-1.67031c-2.6153,-2.09386 -4.80444,-5.4807 -4.74481,-4.81061c0.1856,2.08552 -7.1829,2.67057 -7.3592,3.25126c-0.82243,2.70913 -6.90426,-9.91497 -9.37617,-7.2193c-2.38543,2.60133 -7.47416,0.91037 -9.68616,1.66541c-3.96845,1.35458 -6.58763,-8.94841 -6.9893,-10.18167c-1.06897,-3.28208 -1.41114,-13.21253 -1.41114,-13.21253c0,0 2.57531,7.09971 3.64428,10.3818z" fill="#f49285" stroke="none" stroke-width="0"/><path d="M182.53033,203.90485c1.31284,-0.42759 1.13717,1.06971 1.56476,2.38254c0.42759,1.31284 -2.58972,3.73566 -3.90255,4.16325c-1.31284,0.42759 -10.75136,11.38949 -10.75136,11.38949c0,0 11.77631,-17.5077 13.08914,-17.93528z" fill="#000000" stroke="none" stroke-width="0"/><path d="M195.7223,216.96135c0.29932,0.91899 2.94716,-0.43403 1.69995,-0.02782c-1.24719,0.40621 -10.42747,16.01667 -10.42747,16.01667c0,0 6.57635,-16.33991 7.82355,-16.74613c1.24719,-0.40621 0.60466,-0.1617 0.90395,0.75728z" fill="#000000" stroke="none" stroke-width="0"/><path d="M195.29104,216.44447c0.30781,0.94508 8.40277,-4.26113 12.90994,3.2323c1.04393,1.7356 2.18135,11.53187 -2.15752,17.16866c-5.67355,7.37073 -17.41574,13.29147 -18.31841,13.05316c-3.3991,-0.89735 -9.40764,-5.39512 -9.40764,-5.39512c0,0 -0.95106,-0.08362 -2.41969,0.40335c-1.48059,0.49095 -2.60852,1.00415 -3.38839,0.75268c-3.89559,-1.25623 -9.77785,-8.09336 -9.77785,-8.09336c0,0 -1.81952,0.92162 -4.98386,1.6977c-2.23908,0.54915 -5.19253,1.30132 -7.65546,0.11647c-4.98575,-2.3985 -6.39975,-10.7917 -6.78876,-16.25757c-0.14703,-2.06597 1.55259,-7.21956 5.3788,-12.83046c5.82961,-8.54873 12.36337,-15.29689 20.60652,-17.98169c3.15519,-1.02764 6.99843,1.10408 10.43257,4.30883c0.1849,0.17255 2.85347,2.71461 3.26994,3.79002c1.28002,3.30531 -0.24804,6.21732 -0.24804,6.21732c0,0 6.24378,0.42743 8.78027,1.16802c2.6778,0.78184 2.88092,5.92752 3.76753,8.64967z" fill="none" stroke="#000000" stroke-width="2.5"/><path d="M195.29104,216.44447c0.30781,0.94508 8.40277,-4.26113 12.90994,3.2323c1.04393,1.7356 2.18135,11.53187 -2.15752,17.16866c-5.67355,7.37073 -16.69716,12.26865 -17.59985,12.03035c-3.3991,-0.89735 -9.56248,-5.87055 -9.56248,-5.87055c0,0 -1.82448,0.46377 -3.29312,0.95076c-1.48059,0.49095 -2.60852,1.00415 -3.38839,0.75268c-3.89559,-1.25623 -9.30244,-8.24821 -9.30244,-8.24821c0,0 -2.53263,1.1539 -5.69698,1.92995c-2.23908,0.54915 -4.71711,1.14648 -7.18004,-0.03838c-4.98575,-2.3985 -6.32778,-9.76345 -6.71678,-15.22931c-0.14703,-2.06597 1.55259,-7.21956 5.3788,-12.83046c5.82961,-8.54873 12.36337,-15.29689 20.60652,-17.98169c3.15519,-1.02764 6.99843,1.10408 10.43257,4.30883c0.1849,0.17255 2.85347,2.71461 3.26994,3.79002c1.28002,3.30531 -0.24804,6.21732 -0.24804,6.21732c0,0 6.24378,0.42743 8.78027,1.16802c2.6778,0.78184 2.88092,5.92752 3.76753,8.64967z" fill="none" stroke="#000000" stroke-width="2.5"/></g></g><g stroke-linecap="butt"><path d="M310.22476,213.97595c0,6.72542 -24.46734,9.63291 -28.33333,9.63291c-3.86599,0 -2,-9.81409 -2,-16.5395c0,-3.84489 -1.06515,-12.40353 -0.39859,-18.09547c0.49937,-4.26432 4.0761,-7.53169 5.73192,-7.53169c1.48938,0 12.20834,1.56808 16.62775,7.25088c3.70313,4.76177 0.99736,13.2788 3.92419,17.81156c2.64688,4.0992 4.44806,5.50793 4.44806,7.47132z" fill="#fddfbd" stroke="#000000" stroke-width="3.5"/><path d="M302.47476,194.35886l-0.03607,6.68333c0,0 -3.41138,2.54174 -11.96856,-1.20931c-2.77819,-1.21783 -7.99536,-5.72402 -7.99536,-5.72402c0,0 -4.29227,-8.93709 -0.71407,-9.86081c0.76847,-0.19838 5.43616,-1.56383 10.28677,0.93895c5.1261,2.64492 10.4273,9.17186 10.4273,9.17186z" fill="#f89486" stroke="none" stroke-width="0"/><path d="M286.86158,212.61033c0.71358,-0.83873 2.04241,-1.30425 2.87086,-0.53418c2.64604,2.45959 9.04711,6.94833 12.0029,7.62816c3.33819,0.76779 9.06398,-4.60777 9.06398,-4.60777c0,0 6.06209,5.95932 6.33851,12.42496c0.14168,3.31393 -2.69846,5.87812 -5.32461,8.81462c-3.63256,4.06187 -7.54069,8.1511 -8.73629,9.76742c-1.23021,1.66309 -5.70907,6.59239 -9.04657,6.60237c-1.18597,0.00355 -5.67182,-4.10308 -8.28632,-9.56372c-2.86381,-5.98135 -4.13196,-12.83749 -5.76518,-12.16068c-4.11515,1.70532 -12.16853,3.19836 -15.91571,8.26333c-0.36822,0.49771 -0.44023,4.24866 -0.44023,4.24866c0,0 -4.99074,-0.09146 -7.25509,-0.35981c-1.99322,-0.23622 -6.12166,-1.16624 -6.12166,-1.16624c0,0 -2.07213,-4.42458 -5.06823,-7.12547c-2.65367,-2.3922 -10.64411,-8.49216 -11.25606,-8.01649c-1.10684,0.86034 -2.02065,3.69125 -4.51191,6.89002c-2.1633,2.77767 -6.2537,4.62251 -6.2537,4.62251c0,0 -13.1268,-14.04339 -17.45857,-13.59367c-3.6307,0.37693 -5.65406,0.14275 -8.23922,0.57813c-6.03427,1.01626 -9.30221,1.68221 -9.30221,1.68221c0,0 0.4698,-4.40395 1.31386,-6.87344c1.07102,-3.13353 3.32837,-9.26472 4.59509,-10.41456c0.75294,-0.68347 4.25311,1.42056 7.00523,2.38783c3.36424,1.18242 11.71513,4.19175 11.71513,4.19175c0,0 14.04593,-13.62492 20.6207,-13.62492c12.93628,0 29.20606,5.46061 37.7763,10.50115c7.34582,4.3204 7.9737,7.08218 7.9737,7.08218c0,0 6.05442,-5.70395 7.7053,-7.64435z" fill="#0066cc" stroke="#000000" stroke-width="3.5"/><path d="M232.83125,226.57968c0,0 -1.80488,2.82066 -4.05005,5.46243c-2.01157,2.3669 -4.45548,4.59019 -4.97495,4.51257c-1.09446,-0.16352 -3.83768,-2.40147 -5.0632,-4.62109c-0.55741,-1.00955 0.30953,-1.69807 -0.16469,-2.74389c-1.60333,-3.53589 -5.3471,-11.31002 -5.3471,-11.31002l6.725,-8.175c0,0 5.55298,-8.88472 17.6009,-8.70053c12.48608,0.19089 31.60249,9.48049 38.67529,11.22594c2.50715,0.61872 2.1264,9.96369 2.45582,10.38816c0.59366,0.76497 -10.59267,6.85916 -23.69684,7.98905c-8.69805,0.74998 -19.23389,-4.68175 -19.23389,-4.68175z" fill="#0f1b82" stroke="none" stroke-width="0"/><path d="M233.83125,227.62968l-4.7,-6.9c0,0 3.60999,2.7342 5.20188,3.99096c1.57459,1.2431 4.09812,3.70904 4.09812,3.70904z" fill="#000000" stroke="none" stroke-width="0"/><path d="M314.33125,223.32968l1.64984,5.20247c0,0 -4.77033,6.68823 -9.77761,12.75712c-4.39933,5.33205 -9.58158,9.94041 -11.27223,9.94041c-0.84176,0 -4.41023,-2.60498 -6.52619,-6.32829c-3.44539,-6.06264 -5.68182,-14.42983 -5.68182,-14.42983c0,0 9.65913,11.75812 13.00801,11.75812c5.41239,0 18.6,-18.9 18.6,-18.9z" fill="#0f1b82" stroke="none" stroke-width="0"/></g><path d="M85,326.50003v-286h347v286z" fill="none" stroke="none" stroke-width="0" stroke-linecap="butt"/><g><path d="M280.87147,215.52553c0,0 -5.91435,3.91667 -30.43222,3.91667c-34.80015,0 -40.7145,-18.58334 -40.7145,-18.58334c0,0 13.92644,-10.43256 26.62915,-17.08343c12.25478,-6.41635 4.79233,-23.87123 16.49008,-23.7499c1.19054,0.01235 37.32949,-14.18812 46.75687,-16.07306c7.64429,-1.52842 0.28013,12.09126 4.71714,18.42103c1.52315,2.1729 -1.19601,8.66483 -0.43025,13.3924c0.8185,5.05321 6.84885,12.78909 6.52029,14.51507c-0.58551,3.07583 -6.97183,5.76705 -12.06724,5.21891c-6.39336,-0.68778 -15.66303,-8.65767 -15.66303,-8.65767c0,0 -1.93011,9.06754 -2.23196,17.1829c-0.24568,6.60523 0.42567,11.50042 0.42567,11.50042z" fill="#feebf7" stroke="#000000" stroke-width="3.5" stroke-linecap="butt"/><path d="M303.22476,167.98383c0,0 -39.5164,9.33171 -50.64658,11.76644c-5.16869,1.13065 -11.85342,2.23356 -11.85342,2.23356c0,0 2.06331,-3.48159 2.97853,-6.11434c1.58532,-4.56037 2.97653,-10.07451 5.57499,-11.62796c3.89631,-2.32934 52.19648,-18.5077 52.19648,-18.5077c0,0 0.83136,17.50907 1.66947,18.70638c0.90652,1.29503 0.08053,3.54362 0.08053,3.54362z" fill="#cb8ad4" stroke="none" stroke-width="0" stroke-linecap="butt"/><path d="M284.80808,187.02553l-1.75,2.125l-7.5,-13.375z" fill="#000000" stroke="none" stroke-width="0" stroke-linecap="butt"/><path d="M281.8424,185.72426c0,0 -0.9091,3.38831 -1.55606,5.28157c-0.75247,2.20201 -1.19767,8.39471 -1.19767,8.39471c0,0 -2.59029,-10.17445 -3.24461,-14.26836c-0.63004,-3.94201 -1.10877,-10.85664 -1.10877,-10.85664z" fill="#d991e5" stroke="none" stroke-width="0" stroke-linecap="butt"/><path d="M248.73936,206.65053c-6.88212,2.17004 -15.5478,-1.08908 -15.5478,-5.75c0,-4.37262 5.38489,-11.23267 12.22254,-12.85967c3.73276,-0.88819 15.24247,-4.90606 20.45426,-0.28232c2.95204,2.61897 -4.44325,14.89198 -17.129,18.89198z" fill="none" stroke="#ff0c0d" stroke-width="4.5" stroke-linecap="butt"/><path d="M245.38104,188.15053l5.97035,17" fill="none" stroke="#ff0c0d" stroke-width="4.5" stroke-linecap="round"/></g><g stroke-linecap="butt"><path d="M349.62465,159.98612c-3.2519,1.37198 -0.62135,0.93571 -11.87049,-0.34522c-5.2022,-0.59237 -13.06932,-4.65618 -16.95417,-7.30574c-4.51568,-3.0798 -5.77566,-3.73779 -5.40619,-6.98249c0.68732,-6.03613 12.37951,-7.02478 23.62863,-5.74384c6.74867,0.76847 12.50145,-0.8369 14.32321,0.71103c1.55246,1.31913 1.10737,10.41252 0.35307,13.18498c-0.75708,2.78269 -0.82215,5.10928 -4.07406,6.48126z" fill="#0066cc" stroke="#000000" stroke-width="5"/><path d="M350.6094,154.84106c0,0 -0.59376,3.67781 -3.15682,4.17879c-1.3582,0.26548 -10.2358,-0.00962 -16.11286,-2.6145c-4.52846,-2.00714 -9.74725,-3.93129 -12.25078,-6.0865c-1.62165,-1.39602 -1.43978,-3.59228 -1.43978,-3.59228c0,0 11.27925,3.38383 16.82322,4.92111c5.40134,1.49772 16.13701,3.19339 16.13701,3.19339z" fill="#0f1980" stroke="none" stroke-width="0"/><path d="M193.66683,159.20696c0.45573,-4.0022 5.8868,-8.25105 11.03204,-10.0238c4.68231,-1.61325 7.75689,-1.61311 7.75689,-1.61311c0,0 -1.53893,-5.66914 -2.31269,-9.48685c-0.81429,-4.01773 -0.96343,-11.49998 -0.96343,-11.49998c0,0 27.57127,-15.38996 54.50403,-13.50571c25.02635,1.75085 49.78429,22.82921 52.10858,27.09237c0.20788,0.3813 0.36351,6.71926 -1.41244,11.69347c-1.32044,3.69838 -3.64119,6.05045 -8.16042,7.78592c-14.52487,5.57784 -32.77758,11.37757 -49.72614,13.34138c-10.78044,1.24911 -28.41825,2.70092 -41.41382,-0.53524c-11.92925,-2.97061 -22.16752,-6.06417 -21.4126,-13.24845z" fill="#fddfbd" stroke="#000000" stroke-width="3.5"/><path d="M314.3203,141.01438c0,0 1.09549,8.29698 -2.59523,12.7582c-3.54039,4.2795 -12.51203,6.8387 -12.51203,6.8387l-4.39627,-6.06307l-9.51173,9.98367l-13.42911,-24.30445l-20.38769,11.93733l-3.77191,-19.22541l-34.18781,11.09643l-3.23645,-16.04124c0,0 68.40967,-11.83625 74.90307,-11.09685c6.49341,0.7394 29.12515,24.11668 29.12515,24.11668z" fill="#f99587" stroke="none" stroke-width="0"/><path d="M315.7615,142.42139c-6.84887,-1.47212 -32.84272,-8.29293 -42.33646,-15.4849c-18.31352,-13.87339 -30.40586,-18.24628 -40.71764,-19.42048c-19.57169,-2.22861 -22.20283,2.3577 -21.15102,-6.8794c0.24485,-2.15034 -2.94947,-41.57296 -1.16822,-43.28298c5.8704,-5.63566 27.4434,-13.61772 61.6891,-9.8499c14.42861,1.58748 35.0632,14.07534 36.68,14.99039c15.00419,8.49189 26.69267,51.74024 25.793,59.64113c0,0 2.55283,3.64886 0.40476,6.41777c-2.31462,2.98359 -6.7094,3.69828 -10.32149,6.43043c-3.93103,2.9734 -7.06263,7.82687 -8.87204,7.43794z" fill="#ff2d32" stroke="#000000" stroke-width="5"/><path d="M255.66794,138.0325c0,0 -1.44349,-4.74256 -1.67597,-7.1346c-0.24294,-2.49976 -0.08287,-7.84276 -0.08287,-7.84276c0,0 -14.8279,-0.83322 -21.75452,0.92165c-7.09274,1.79695 -21.71554,10.49833 -21.71554,10.49833l0.6435,5.03222c0,0 -8.9287,1.81272 -13.76716,3.4285c-5.65458,1.88831 -17.8452,7.2117 -17.8452,7.2117c0,0 2.91263,-10.16075 5.82046,-14.87341c2.88139,-4.66984 12.04797,-15.77524 12.04797,-15.77524c0,0 -3.62485,0.36385 -5.72864,0.12429c-10.79185,-1.22888 -22.4801,3.52299 -22.4801,3.52299c0,0 31.44664,-49.80536 42.23851,-48.57651c1.41996,0.16169 8.07733,2.19845 15.20981,6.50668c7.55084,4.5609 11.21386,10.96475 11.21386,10.96475c0,0 0.33557,-2.91469 4.01564,-10.60723c3.05207,-6.37974 19.3821,-13.61919 19.3821,-13.61919c0,0 -3.39337,19.06822 -0.63161,27.88736c2.91902,9.32137 9.20011,28.61768 9.20011,28.61768c0,0 -6.46513,5.59349 -8.9819,8.00072c-1.79871,1.72044 -5.10844,5.7121 -5.10844,5.7121z" fill="#66ffff" stroke="#000000" stroke-width="3.5"/><path d="M245.31345,108.16929c0,0 0.56341,-10.27627 1.76753,-15.47524c1.44584,-6.24267 11.41551,-21.41419 11.41551,-21.41419c0,0 -0.56166,3.18163 -0.50835,6.97734c0.092,6.55057 0.52642,16.41923 2.21109,21.54873c2.94995,8.98204 7.87656,24.06034 7.87656,24.06034c0,0 -4.01365,3.07309 -5.91023,4.97738c-1.9204,1.9282 -5.74028,6.4984 -5.74028,6.4984c0,0 -0.73056,-3.87441 -0.926,-6.1265c-0.21702,-2.5011 -0.14773,-7.94049 -0.14773,-7.94049c0,0 -17.67817,-0.36847 -25.6065,1.78092c-6.86256,1.86045 -21.20684,10.67566 -21.20684,10.67566l0.72801,4.25182c0,0 -5.4713,0.99616 -8.55772,1.91903c-3.56911,1.06721 -11.62002,4.11436 -11.62002,4.11436l32.25359,-33.04158c0,0 -8.84759,-2.67309 -13.81539,-2.03278c-6.40821,0.82595 -14.42477,3.07493 -14.42477,3.07493c0,0 6.40691,-5.80509 10.69181,-9.46739c4.19959,-3.58937 13.76679,-11.292 13.76679,-11.292c0,0 11.30258,6.74709 16.92459,9.14746c5.62896,2.40336 10.82833,7.76381 10.82833,7.76381z" fill="#50a5eb" stroke="none" stroke-width="0"/><path d="M315.49299,143.57206l-2.5505,19.08396c0,0 -9.11083,-9.33264 -12.80899,-12.9467c-2.64409,-2.584 -7.29865,-6.70379 -7.29865,-6.70379l-6.92624,10.21317c0,0 -5.27924,-11.3163 -7.71165,-15.97266c-2.12508,-4.06809 -6.08567,-10.43975 -6.08567,-10.43975z" fill="#67fcfd" stroke="#000000" stroke-width="3"/><path d="M313.88948,144.39591l-1.69707,14.90368l-19.37287,-17.92735l-6.35127,8.26921l-7.95538,-15.04317l-2.95848,-4.8838c0,0 13.82809,5.05031 19.84491,7.33631c5.96134,2.26492 18.4902,7.34513 18.4902,7.34513z" fill="#51a7ee" stroke="none" stroke-width="0"/><path d="M325.21392,134.01116c-3.5667,3.87659 -8.9945,7.95359 -8.9945,7.95359c0,0 -8.78681,-3.7098 -13.49272,-5.41956c-5.11808,-1.85952 -18.14168,-6.39916 -18.14168,-6.39916c0,0 0.84707,-5.40227 2.1511,-12.45194c3.4909,-18.8721 12.3847,-53.2742 21.71325,-52.21199c1.03681,0.11806 1.88574,-0.31072 1.88574,-0.31072c0,0 6.33018,6.52862 12.15028,17.56921c6.62629,12.56987 10.55907,30.351 10.2099,36.9311c-0.01246,0.23499 0.44038,5.53274 -0.0664,6.51942c0,0 -4.05141,4.16424 -7.41497,7.82004z" fill="#ab164a" stroke="#000000" stroke-width="2.5"/><path d="M337.70676,127.90526c2.11291,3.43751 0.17778,16.19169 -4.49977,26.72703c-2.98918,6.73261 -5.52083,10.82737 -8.44943,10.49389c-5.33861,-0.6079 -9.53483,-8.20461 -9.53483,-8.20461l1.19422,-13.43291c0,0 18.50894,-20.10762 21.2898,-15.58341z" fill="#fddfbd" stroke="#000000" stroke-width="4.5"/><path d="M328.67145,152.9534l2.03988,2.24549c0,0 -1.08388,2.48431 -1.86721,3.88382c-0.73929,1.3208 -2.12671,4.72549 -3.949,4.14952c-1.82231,-0.57599 -8.48234,-4.28435 -8.13902,-7.29934c0.09059,-0.7955 0.39193,-2.82049 0.4789,-4.46814c0.12233,-2.31753 0.14689,-4.59463 1.139,-5.40458c0.97584,-0.79666 0.26783,1.03847 0.26783,1.03847l11.7946,-7.16059z" fill="#fa9789" stroke="none" stroke-width="0"/><path d="M321.95079,144.39829c0.04979,-1.23065 8.48815,-6.28445 9.15738,-5.36695c0.76482,1.04851 -2.25586,14.04034 -3.43234,14.69079c0,0 -5.76506,-8.33466 -5.72504,-9.32384z" fill="none" stroke="#000000" stroke-width="2"/></g><g stroke-linecap="butt"><path d="M253.39146,258.02549c0,4.87365 -0.80165,7.39012 -6.63824,11.57472c-6.63988,4.76054 -19.59,-0.37331 -31.11873,3.8003c-42.60923,15.42529 -64.9311,2.98695 -64.9311,2.98695c0,0 -1.64525,-3.7106 -1.64525,-11.02863c0,-5.09699 16.77865,-19.23488 37.52878,-24.78399c1.80978,-0.48398 2.47122,-1.46601 2.47122,-1.46601c0,0 -8.12644,-7.3777 -3.31289,-10.22073c1.04169,-0.61525 15.3137,-5.94882 22.86768,-3.1114c6.74282,2.53274 13.66597,13.89488 13.66597,13.89488c0,0 4.89149,-4.51481 7.01376,-6.69058c1.76381,-1.80828 4.84458,-5.46671 4.84458,-5.46671c0,0 8.24465,3.83113 12.89074,10.89554c4.9701,7.55706 6.3635,18.41716 6.3635,19.61568z" fill="#ff2d32" stroke="#000000" stroke-width="3.5"/><path d="M252.29557,260.85881c0,5.72996 -14.74439,16.125 -37.25,16.125c-22.50561,0 -42.75,7.10496 -42.75,1.375c0,-3.33766 -2.38558,-14.22705 7.58554,-20.23299c3.06757,-1.8477 9.61826,-5.91209 16.66769,-9.9499c9.37449,-5.36956 20.99677,-11.94211 20.99677,-11.94211l3.87393,4.83417l-4.20246,3.29598c0,0 4.90575,0.62414 7.74876,0.05969c3.47601,-0.69012 14.77733,-10.66648 18.43447,-7.89004c0.31145,0.23645 2.51129,2.05113 4.41666,6.5471c2.77184,6.54053 4.47863,17.27286 4.47863,17.77811z" fill="#ab164a" stroke="none" stroke-width="0"/><path d="M248.29556,275.23384c-2.9109,1.67171 -8.30455,3.51894 -18.24822,4.03428c-5.32293,0.27587 -12.12805,-0.9001 -20.15577,-0.29893c-7.00778,0.52479 -11.38027,8.82215 -40.42359,9.41051c-20.9262,0.42392 -27.08908,-9.98005 -27.83908,-12.39585c-0.22075,-0.71105 -0.29236,-2.8705 1.01111,-5.58458c1.32898,-2.76719 3.92097,-5.11609 3.92097,-5.11609c0,0 1.28508,4.81382 3.49429,5.9215c4.55774,2.28523 23.67023,4.6902 34.22792,4.69419c10.62003,0.00401 25.57496,-9.66503 31.76237,-9.91503c8.39745,-0.33929 19.65926,0.73355 27.1872,-1.31062c7.17562,-1.9485 10.82157,-7.02618 10.82157,-7.02618c0,0 3.27045,2.99115 2.42191,6.70679c-1.01338,4.43748 -6.30305,9.8017 -8.18068,10.88001z" fill="#feecf8" stroke="#000000" stroke-width="4.5"/><path d="M255.56917,264.23381c0,0 -1.88814,5.17215 -7.20111,8.82115c-1.89463,1.30124 -4.87947,1.69072 -7.45604,2.38725c-14.03863,3.79503 -28.83316,-0.14117 -34.1682,1.86186c-8.88769,3.33686 -7.82856,6.31703 -21.74176,7.61932c-6.4082,0.59981 -12.18288,1.31055 -12.18288,1.31055c0,0 -2.17505,-3.48381 -2.76762,-5.24426c-0.46662,-1.38628 -1.00105,-3.2172 -1.00105,-3.2172c0,0 13.33791,-0.53873 18.64366,-0.53873c4.73946,0 18.49068,-8.13765 26.6706,-10.01482c7.76538,-1.78204 17.68493,-0.41974 24.47885,-0.83825c5.24824,-0.3233 4.3507,-0.64996 7.17902,-1.15663c1.67577,-0.30021 7.32621,-5.80604 7.32621,-5.80604z" fill="#db93e6" stroke="none" stroke-width="0"/><path d="M222.40353,238.35885c0,0.29172 3.46479,-0.39877 3.46479,-0.39877c0,0 -1.9634,5.689 -3.62228,6.80511c-2.5392,1.70839 -10.84251,1.39366 -10.84251,1.39366c0,0 4.52598,-1.67928 7.11178,-3.65361c2.71123,-2.07011 3.88822,-4.82483 3.88822,-4.14639z" fill="#000000" stroke="none" stroke-width="0"/><path d="M243.04518,237.19773c0.41295,1.21559 -0.27293,2.54773 -1.53193,2.97543c-1.25901,0.42769 -2.61438,-0.21103 -3.02733,-1.42661c-0.41295,-1.21559 0.27293,-2.54773 1.53193,-2.97543c1.25901,-0.42769 2.61438,0.21103 3.02733,1.42661z" fill="#000000" stroke="none" stroke-width="0"/><path d="M244.86364,243.92095c0,1.25621 -1.05348,2.27458 -2.35301,2.27458c-1.29953,0 -2.35301,-1.01837 -2.35301,-2.27458c0,-1.25621 1.05348,-2.27457 2.35301,-2.27457c1.29953,0 2.35301,1.01836 2.35301,2.27457z" fill="#000000" stroke="none" stroke-width="0"/><path d="M209.62303,248.22975c0,1.013 -0.5012,3.90774 -2.17248,5.19963c-1.18881,0.91894 -4.62778,-0.13342 -4.93312,-0.35941c-1.9253,-1.42492 -3.51537,-3.71057 -5.53311,-4.88673c-4.74785,-2.76758 -9.60381,-1.47965 -9.60381,-6.11856c0,-3.03655 4.67329,-2.24898 10.7464,-2.24898c6.0731,0 11.49613,5.3775 11.49613,8.41405z" fill="#feebf7" stroke="#000000" stroke-width="3"/><path d="M208.15618,249.14818c0,1.84034 -0.39138,3.58216 -2.41575,3.58216c-2.02437,0 -6.16482,-4.33197 -6.16482,-4.33197c0,0 3.1407,-4.58191 5.16507,-4.58191c2.02437,0 3.4155,3.49139 3.4155,5.33172z" fill="#dd94e8" stroke="none" stroke-width="0"/><path d="M198.2423,257.27115c0,1.4972 -0.58577,2.1047 -1.05483,2.58024c-0.41748,0.42325 -0.58668,0.79391 -2.56927,0.79391c-1.99617,0 -4.22969,-4.68131 -8.12966,-8.06633c-4.32546,-3.75431 -9.9908,-6.81651 -9.9908,-8.30457c0,-1.64327 1.31951,-2.51585 3.25048,-2.9587c0.74607,-0.1711 6.88234,2.7428 11.72928,6.85218c4.21084,3.57008 6.7648,7.78775 6.7648,9.10327z" fill="#feebf7" stroke="#000000" stroke-width="3"/><path d="M196.99261,257.14618c0,1.38036 -0.48109,2.24944 -1.9995,2.24944c-1.51841,0 -5.24869,-4.99875 -5.24869,-4.99875c0,0 1.37174,-1.91424 2.01873,-2.34556c0.599,-0.39933 1.73034,-0.15381 1.73034,-0.15381c0,0 3.49912,3.86832 3.49912,5.24868z" fill="#dd94e8" stroke="none" stroke-width="0"/><path d="M188.91792,261.97542c0,1.07477 -2.10827,4.33188 -3.99867,2.99899c-2.02633,-1.42872 -4.23695,-6.07406 -8.02549,-9.22955c-5.21008,-4.33949 -9.92015,-6.67979 -9.75464,-8.11179c0.24413,-2.1122 2.08216,-2.35461 3.11605,-3.28322c1.06908,-0.96021 5.99827,2.37402 10.89084,7.40062c3.67912,3.77989 7.77192,7.61827 7.77192,10.22495z" fill="#feebf7" stroke="#000000" stroke-width="3"/><path d="M187.66406,261.47972c0,1.38036 -0.41474,2.24944 -1.72373,2.24944c-1.30899,0 -4.52479,-4.99875 -4.52479,-4.99875c0,0 0.84933,-1.58102 1.40708,-2.01234c0.51638,-0.39933 1.15847,-0.48703 1.15847,-0.48703c0,0 3.68297,3.86832 3.68297,5.24868z" fill="#dd94e8" stroke="none" stroke-width="0"/></g><g stroke-linecap="butt"><path d="M344.52471,276.15506c0,6.90125 -28.55013,21.24365 -44.65306,21.24365c-9.55993,0 -26.01972,2.42813 -36.81438,-4.16472c-2.58621,-1.57953 -6.49639,-9.80222 -8.01048,-11.65006c-2.81125,-3.43092 1.38923,-14.4734 1.82534,-15.73299c1.58946,-4.59075 -1.50793,-8.3782 -2.79995,-9.53053c-1.91834,-1.71093 -9.19953,-0.64137 -12.90285,-0.15334c-1.5601,0.20559 -2.24194,-3.07379 -1.72752,-5.53222c0.60452,-2.88907 2.89931,-6.10631 3.49831,-6.43315c0.41956,-0.22893 2.78864,-2.78455 7.23554,-2.77478c3.66424,0.00806 9.55391,3.97344 12.39711,3.39243c1.52992,-0.31265 -0.30282,-4.82253 2.00362,-6.57629c4.41728,-3.35879 6.53488,-5.39057 10.59203,-6.50668c3.10514,-0.85422 6.65795,-1.17207 6.78637,-0.57771c0.22659,1.04869 1.12509,7.10317 3.76098,12.05406c2.45254,4.6065 6.83104,8.10958 7.20171,8.16361c2.74086,0.39955 1.05448,0.25385 3.81871,-0.1576c2.16922,-0.32288 10.84144,-9.88737 15.00557,-15.68901c3.62363,-5.0486 9.45509,-8.88318 10.90278,-8.93226c2.15109,-0.07293 7.78957,5.55332 6.18252,9.51305c-0.33387,0.82263 -10.69311,9.40329 -10.31632,9.50671c8.47503,2.32617 17.07315,8.6345 22.04638,15.85533c3.53917,5.13866 3.96759,12.19788 3.96759,14.68251z" fill="#ff2d32" stroke="#000000" stroke-width="3.5"/><path d="M340.65345,274.73071c0,5.24539 -33.5497,20.49487 -52.7368,20.49487c-19.1871,0 -29.49262,-9.9975 -29.49262,-9.9975c0,0 16.05417,-20.74473 35.24126,-20.74473c4.60995,0 17.87731,-4.92835 26.48892,-3.55514c4.85958,0.77491 8.89561,9.21236 8.89561,9.21236c0,0 2.30562,-2.18897 3.05999,-4.3198c0.91918,-2.59632 1.80905,-9.88945 1.80905,-9.88945c0,0 2.10541,1.96864 3.30651,2.27389c5.82639,1.48071 3.42807,14.53741 3.42807,16.5255z" fill="#ab164a" stroke="none" stroke-width="0"/><path d="M347.15181,274.48079c0,5.93558 -10.7601,19.24518 -37.11571,24.99374c-16.25142,3.54469 -35.80488,2.56163 -45.40644,-0.4261c-19.18825,-5.97085 -17.20289,-19.48856 -17.20289,-21.5684c0,-2.1552 6.27317,-5.24624 6.27317,-5.24624c0,0 0.69646,10.91468 5.24398,13.20446c9.97179,5.02101 29.89418,4.28872 41.09468,4.28872c10.01461,0 28.46189,-6.25507 36.12492,-15.98895c3.42608,-4.35195 2.09665,-16.74846 2.09665,-16.74846c0,0 0.30518,-0.5435 2.13001,-0.31856c8.28661,1.02148 6.76163,16.07399 6.76163,17.80978z" fill="#f9e8f4" stroke="#000000" stroke-width="4"/><path d="M286.91397,248.69768l-8.83039,1.33289c0,0 0.79269,-4.88527 0.87597,-7.00905c0.12299,-3.13624 1.78981,-10.65172 1.78981,-10.65172c0,0 1.3736,5.13181 2.48972,9.2423c0.95177,3.50521 3.67488,7.08558 3.67488,7.08558z" fill="#ab164a" stroke="none" stroke-width="0"/><path d="M325.90096,230.53707c0,0 2.918,3.13363 1.41588,5.51472c-1.96431,3.11375 -8.98121,6.84212 -10.91271,7.98078c-0.49584,0.29231 -1.84972,0.51003 -3.09677,1.15471c-2.89594,1.49713 -6.34627,5.49916 -7.94627,5.94249c-3.20894,0.88914 -1.4528,-3.26515 -1.4528,-3.26515c0,0 4.06225,-7.05362 9.62712,-11.67581c5.25603,-4.36566 12.36554,-5.65175 12.36554,-5.65175z" fill="#ab164a" stroke="none" stroke-width="0"/><path d="M274.25153,257.19482l-2.66577,0.83306l-8.33056,-13.4955l0.66645,-3.83205z" fill="#000000" stroke="none" stroke-width="0"/><path d="M344.65244,263.48354c0,0 1.79099,12.11569 -0.79271,15.88786c-1.58474,2.31369 -8.84946,8.67081 -18.40433,13.20631c-8.01225,3.80325 -18.47831,6.52871 -22.54251,6.89682c-24.83517,2.24944 -39.74006,-2.74931 -39.74006,-2.74931c0,0 20.63225,5.84006 51.62664,-3.8391c7.10332,-2.21828 16.12815,-5.86496 22.2695,-11.7421c5.38585,-5.15415 7.58348,-17.66048 7.58348,-17.66048z" fill="#db93e6" stroke="none" stroke-width="0"/><path d="M293.57841,264.19248c0,2.48445 -27.99066,-0.51454 -27.99066,-3.99867c0,-1.25098 4.94701,-5.91216 10.19004,-8.90865c5.16965,-2.95455 10.63635,-4.25362 10.63635,-4.25362l4.26807,5.28695c0,0 2.56423,1.54527 3.90055,1.48954c1.20155,-0.05012 3.08964,-0.80921 3.08964,-0.80921c0,0 2.04868,-3.74668 5.39648,-4.78334c3.05535,-0.9461 8.80404,3.0873 8.14532,4.13187c-1.33207,2.11234 -17.63578,11.58477 -17.63578,11.84514z" fill="#fcecf8" stroke="#000000" stroke-width="2.5"/><path d="M289.57975,254.36245c0,0.88438 2.94365,-0.36437 9.00189,-0.24153c2.38979,0.04845 0.7492,-4.83163 6.10334,-4.96823c5.29181,-0.13501 5.97301,6.83029 5.8894,7.20946c-0.48212,2.18656 -15.93205,7.66375 -17.16258,7.66375c-2.48445,0 -12.82906,-13.66211 -12.82906,-13.66211l5.16494,-2.33255c0,0 3.83206,3.38669 3.83206,6.33122z" fill="#db93e6" stroke="none" stroke-width="0"/><path d="M317.32433,257.91499c-3.52562,2.06802 -13.80392,3.35447 -22.65862,3.71069c-8.73157,0.35126 -18.642,4.60812 -23.48854,4.97682c-1.99195,0.15154 -2.58168,-0.54022 -2.72767,-1.75448c-0.34051,-2.83213 11.65711,-8.6395 25.22884,-11.18642c6.03472,-1.1325 14.56883,-1.04275 19.13304,0.19548c4.60146,1.24835 5.20569,3.65157 4.51295,4.05791z" fill="#feeffb" stroke="#000000" stroke-width="2.5"/><path d="M323.32851,263.57482c-3.74205,2.01797 -14.97332,1.85485 -24.28512,2.39938c-9.88881,0.57828 -20.39277,6.36933 -25.50001,6.66948c-2.0991,0.12336 -2.4038,-2.24244 -2.53941,-3.45864c-0.31629,-2.83665 11.09572,-6.12472 25.42001,-8.47955c6.36935,-1.04708 16.73598,-2.20413 21.5221,-0.90149c4.82518,1.31327 6.1177,3.37431 5.38243,3.77081z" fill="#feeffb" stroke="#000000" stroke-width="2.5"/><path d="M262.25553,252.19651c0,0 -3.34358,2.54372 -6.62291,3.08434c-1.45963,0.24063 -2.90653,-1.25162 -4.0402,-1.25162c-3.68067,0 -6.22254,1.93219 -9.99667,0.49983c-2.25265,-0.85492 0,-5.49816 0,-5.49816c0,0 5.19136,-0.75898 7.64436,-0.6285c2.73642,0.14556 13.01541,3.79411 13.01541,3.79411z" fill="#ab164a" stroke="none" stroke-width="0"/><path d="M303.24186,254.52906l-3.18684,4.50323l-8.30933,1.32816l-4.83173,-3.83206c0,0 5.41264,-2.10713 8.96098,-2.49523c3.56035,-0.38942 7.3669,0.49589 7.3669,0.49589z" fill="#db93e6" stroke="none" stroke-width="0"/><path d="M252.59209,254.52907c0,0.70149 7.03568,-0.08349 5.43598,0.28576c-1.54788,0.35728 -1.71504,3.54629 -2.93681,3.54629c-1.03898,0 -1.51152,-1.48672 -4.03613,-2.15442c-3.51236,-0.92892 -9.12614,-1.20782 -9.12614,-2.01086c0,-1.38025 3.34694,-3.49883 5.83139,-3.49883c2.48445,0 4.83172,2.45181 4.83172,3.83206z" fill="#000000" stroke="none" stroke-width="0"/><path d="M327.23385,236.36846c0,0.84587 -4.34276,5.43105 -5.60334,8.44163c-0.9045,2.16017 0.89661,4.03481 0.89661,4.03481l-10.13792,-3.06493c0,0 0.7133,-1.48177 3.4169,-2.33931c2.1574,-0.68429 3.43042,-1.39545 3.43042,-1.74066c0,-0.90533 -0.06662,-4.00494 1.70172,-5.13204c2.18576,-1.39316 6.29561,-1.31855 6.29561,-0.19951z" fill="#000000" stroke="none" stroke-width="0"/></g><path d="M276.14122,131.56044c0,8.61393 2.76556,16.39173 -2.81386,16.55967c-2.58873,0.13812 -5.32206,-7.94574 -5.32206,-16.55967c0,-6.41921 0.7315,-12.36041 2.06141,-14.97119c0.05777,-0.11341 4.03979,-6.60696 8.75837,-12.04787c5.6163,-6.47606 11.87835,-11.58527 14.21907,-12.04492c11.74458,-2.30629 15.17728,16.79978 15.17728,16.79978c0,0 -7.95582,-14.99804 -13.11819,-13.59796c-10.10202,2.73976 -21.33283,21.52079 -21.062,22.0907c1.35735,2.85631 2.1,7.81958 2.1,13.77146z" fill="#000000" stroke="none" stroke-width="0" stroke-linecap="butt"/><path d="M248.48235,132.5212c0,10.37694 0.87406,18.91696 -3.13152,19.72856c-2.71681,-0.40064 -5.32358,-9.66478 -5.32358,-20.04172c0,-5.44226 -0.44139,-12.32038 -0.44139,-12.32038c0,0 -15.96235,-15.99402 -21.60483,-16.20301c-5.92921,-0.21961 -12.07784,15.69154 -12.07784,15.69154c0,0 0.69217,-5.99835 3.06,-10.43488c1.1145,-2.08821 3.11741,-7.45165 6.8043,-8.27259c4.80114,-1.06905 11.78804,3.01943 16.53981,6.05398c5.9515,3.80072 13.28945,12.05379 13.28945,12.05379c0,0 2.88561,6.15641 2.88561,13.74471z" fill="#000000" stroke="none" stroke-width="0" stroke-linecap="butt"/><path d="M236.94911,159.76771c0,0 12.2602,0.08095 21.73308,-0.1195c5.7383,-0.12143 12.57966,-4.30245 13.85345,-5.33683c2.21191,-1.7962 5.36915,-3.90229 5.36915,-3.90229l3.35461,-2.91075c0,0 10.833,-1.15228 11.03711,-0.57628c-0.25241,5.18051 -11.26815,22.34917 -14.31455,27.81205c-0.67917,1.21792 -1.01451,0.81301 -1.98826,1.55822c-2.89971,1.90978 -12.09746,-14.69985 -12.09746,-14.69985c0,0 -5.83983,0.13817 -15.1266,0.05264c-4.75776,-0.04381 -11.82053,-1.87742 -11.82053,-1.87742z" fill="#000000" stroke="none" stroke-width="0" stroke-linecap="butt"/><path d="M277.07274,174.24281c-4.74974,2.49129 -11.43932,-14.42011 -11.43932,-14.42011c0,0 5.90877,-2.09024 7.84524,-3.66362c1.8178,-1.47696 6.12757,-4.6913 6.12757,-4.6913c0,0 -0.17358,21.90402 -2.53348,22.77504z" fill="#ff6666" stroke="none" stroke-width="0" stroke-linecap="butt"/><g stroke-linecap="butt"><path d="M338.82751,210.93434c0.57284,5.61565 -1.48664,6.67368 -4.04521,12.15111c-4.31025,8.9926 1.86965,13.67821 -10.79678,21.63409c-8.62394,5.41676 -23.36519,-2.92324 -23.36519,-2.92324c0,0 -7.59949,2.12563 -11.47335,2.12563c-6.35168,0 -9.48749,-10.14345 -13.65502,-10.06969c-3.04239,0.05385 -14.71273,2.63422 -15.44791,-9.35211c-2.58724,-14.12483 17.75907,-16.47474 17.75907,-26.57625c0,-13.80937 -0.88152,-44.38899 6.9111,-49.03193c6.51464,-3.8815 11.01426,-3.22916 18.52459,-3.22916c4.47703,0 -3.00775,42.6161 -3.00775,42.6161c0,0 0.67696,-0.42372 1.31721,-1.69556c4.1163,-8.17696 19.3458,-38.77991 23.09171,-37.52271c0.6951,0.23329 16.68775,7.15681 16.7901,10.94684c0.11789,4.36574 -3.80596,10.51982 -6.98545,15.93152c-6.26,10.65494 -14.13836,20.23359 -14.13836,20.23359c0,0 10.42271,3.4579 15.2881,9.29828c1.18991,1.42837 3.11007,3.91008 3.23314,5.46349z" fill="#fddfbd" stroke="#000000" stroke-width="3"/><path d="M338.12477,212.72697c0,0 -0.31681,2.46151 -1.4792,4.43913c-1.25984,2.14339 -3.40015,3.91579 -4.15793,6.7057c-1.35424,4.98589 0.12752,9.39211 -2.82054,14.06426c-2.87057,4.54934 -6.95103,7.56806 -11.32164,7.56806c-0.06592,0 -5.58155,-0.29678 -6.39232,-0.52413c-4.25888,-1.19425 -11.80459,-4.76652 -11.80459,-4.76652c0,0 -8.13228,3.41927 -12.61332,2.02942c-6.50172,-2.01659 -5.45754,-7.47017 -10.64685,-9.49364c-2.3677,-0.92324 -5.22624,1.72895 -9.98717,-0.11564c-6.21593,-2.40832 -5.5891,-8.59276 -5.5891,-8.59276c0,0 3.5272,2.66661 8.35616,2.12431c4.29747,-0.48261 8.5461,-2.75146 8.9772,-2.72852c1.82764,0.09724 9.51984,8.83723 13.94775,8.84919c6.12572,0.01655 8.65206,-7.76256 8.70697,-8.10327c0.64405,-3.99658 -0.38029,-4.33199 -2.46179,-6.75212c-2.46974,-2.87152 -12.75544,-1.56937 -12.75544,-1.56937c0,0 -1.12848,0.6555 -2.6996,1.04279c-3.59913,0.8872 -9.52114,1.73859 -9.52114,-0.14028c0,-2.20283 2.18144,-5.7417 6.01449,-6.99152c3.65346,-1.19126 8.88127,-0.12563 12.21183,-0.89475c3.78419,-0.87387 1.35293,-2.28595 6.23544,-2.28595c2.87529,0 4.2828,2.29078 7.00813,2.91081c4.82686,1.09814 16.01816,-12.54104 16.01816,-12.54104l1.99873,1.82148l-5.75043,11.84725l-2.38888,3.22844c0,0 1.64689,5.42375 4.19195,6.75178c8.58454,4.47945 17.70061,-11.5283 17.70061,-11.5283z" fill="#f89587" stroke="none" stroke-width="0"/><path d="M317.36419,197.43618c1.04404,-1.88769 3.16103,-3.27755 3.16103,-3.27755l2.58342,2.34123c0,0 -2.12379,1.99581 -3.21119,3.29843c-1.41084,1.69007 -4.53907,5.98574 -4.53907,5.98574c0,0 -1.09973,-2.73282 2.00581,-8.34785z" fill="#000000" stroke="none" stroke-width="0"/><path d="M309.38422,230.08433c0.46532,6.25063 -6.82401,10.3976 -11.21554,11.81414c-2.96717,0.9571 -4.68865,0.37637 -4.68865,0.37637c0,0 13.7853,-5.59307 13.15931,-11.70612c-1.06252,-10.37587 -8.80614,-13.97663 -14.87516,-14.56117c-4.81054,-0.46332 -9.29768,1.20846 -9.29768,1.20846c0,0 1.93011,-1.62725 5.36212,-2.30506c3.30176,-0.65208 8.25123,-1.01115 9.26054,-0.54352c2.27137,1.05236 5.66481,2.4268 7.84822,5.63335c2.06491,3.03251 4.27109,5.86838 4.44683,10.08355z" fill="#000000" stroke="none" stroke-width="0"/><path d="M335.21842,222.89919c0,0 -5.94464,10.33368 -13.07856,10.33368c-7.13392,0 -13.72442,-0.81633 -13.72442,-8.39612c0,-7.57979 9.52636,-14.37028 9.52636,-14.37028c0,0 -12.11825,14.50404 -3.90704,19.10367c10.064,5.6375 22.23299,-12.33089 22.23299,-12.33089z" fill="#000000" stroke="none" stroke-width="0"/></g></g></g></svg>