<svg version="1.1" xmlns="http://www.w3.org/2000/svg" xmlns:xlink="http://www.w3.org/1999/xlink" width="347" height="293.50751" viewBox="0,0,347,293.50751"><g transform="translate(-85,-32.99254)"><g data-paper-data="{&quot;isPaintingLayer&quot;:true}" fill-rule="nonzero" stroke-linejoin="miter" stroke-miterlimit="10" stroke-dasharray="" stroke-dashoffset="0" style="mix-blend-mode: normal"><path d="M85,326.50005v-293.50751h347v293.50751z" fill="none" stroke="none" stroke-width="0" stroke-linecap="butt"/><text transform="translate(211.22476,115.34679) scale(0.20352,0.20352)" font-size="40" xml:space="preserve" fill="#000000" fill-rule="nonzero" stroke="none" stroke-width="1" stroke-linecap="butt" stroke-linejoin="miter" stroke-miterlimit="10" stroke-dasharray="" stroke-dashoffset="0" font-family="Sans Serif" font-weight="normal" text-anchor="start" style="mix-blend-mode: normal"><tspan x="0" dy="0">Polargaming64</tspan><tspan x="0" dy="46.150000000000006px"> </tspan><tspan x="0" dy="46.150000000000006px">MeIzAwezomeDede</tspan><tspan x="0" dy="46.150000000000006px"> </tspan><tspan x="0" dy="46.150000000000006px">AwezomeXD</tspan></text><path d="M298.34476,217.30932c0,6.72542 -24.6867,9.63291 -28.58735,9.63291c-3.90065,0 -8.40804,-9.81409 -8.40804,-16.5395c0,-3.84489 0.27058,-15.73687 0.94312,-21.42881c0.50385,-4.26432 9.15747,-4.19835 10.82814,-4.19835c1.50273,0 11.31779,1.56808 15.77683,7.25088c2.01751,2.57122 0.37895,5.52892 0.13608,9.33973c-0.20691,3.24662 1.96479,7.38663 3.32329,9.47183c2.67061,4.0992 5.98794,4.50793 5.98794,6.47132z" fill="#aa96c7" stroke="#000000" stroke-width="3.5" stroke-linecap="butt"/><path d="M289.19195,193.35889l-1.86973,10.84999c0,0 -1.62058,2.04174 -10.25448,-1.70931c-2.8031,-1.21783 -11.43027,-5.72402 -11.43027,-5.72402c0,0 -0.96753,-8.93709 2.64275,-9.86081c0.77536,-0.19838 5.4849,-1.56383 10.379,0.93895c5.17206,2.64492 9.51182,-0.82814 9.51182,-0.82814z" fill="#a7649a" stroke="none" stroke-width="0" stroke-linecap="butt"/><path d="M274.43569,211.61036c0.77074,-0.83873 13.20603,8.69575 14.10085,9.46582c2.85802,2.45959 0.43856,-9.05167 3.63114,-8.37184c3.60562,0.76779 11.45677,10.72556 11.45677,10.72556c0,0 5.93166,10.63642 3.09513,13.57292c-3.92357,4.06187 -3.47812,7.48443 -4.7695,9.10075c-1.32876,1.66309 -6.16643,6.59239 -9.77131,6.60237c-1.28098,0.00355 -7.79287,-3.10308 -10.61682,-8.56372c-3.09323,-5.98135 -2.79631,-13.83749 -4.56037,-13.16068c-4.44482,1.70532 -13.14337,3.19836 -17.19074,8.26333c-0.39772,0.49771 -0.47549,4.24866 -0.47549,4.24866c0,0 -5.39056,-0.09146 -7.83631,-0.35981c-2.1529,-0.23622 -7.94541,-1.16624 -7.94541,-1.16624c0,0 -3.23813,-5.09125 -6.47425,-7.79214c-2.86626,-2.3922 -9.16349,-7.82549 -9.82447,-7.34982c-1.19551,0.86034 -2.18252,3.69125 -4.87337,6.89002c-2.3366,2.77767 -6.75469,4.62251 -6.75469,4.62251c0,0 -14.17841,-14.04339 -18.8572,-13.59367c-3.92156,0.37693 -6.10702,0.14275 -8.89928,0.57813c-6.51768,1.01626 -10.04743,1.68221 -10.04743,1.68221c0,0 0.50744,-4.40395 1.41912,-6.87344c1.15682,-3.13353 3.59501,-9.26472 4.96321,-10.41456c0.81326,-0.68347 4.59384,1.42056 7.56643,2.38783c3.63376,1.18242 12.65365,4.19175 12.65365,4.19175c0,0 15.17118,-13.62492 22.27266,-13.62492c13.97262,0 26.87914,4.79395 36.13595,9.83449c7.9343,4.3204 3.94582,8.41551 3.94582,8.41551c0,0 5.87278,-7.37061 7.65592,-9.31101z" fill="#0066cc" stroke="#000000" stroke-width="3.5" stroke-linecap="butt"/><path d="M226.07691,226.57971c0,0 -1.94948,2.82066 -4.37451,5.46243c-2.17272,2.3669 -4.81242,4.59019 -5.3735,4.51257c-1.18214,-0.16352 -4.14512,-2.40147 -5.46882,-4.62109c-0.60207,-1.00955 0.33433,-1.69807 -0.17789,-2.74389c-1.73177,-3.53589 -5.77546,-11.31002 -5.77546,-11.31002l7.26375,-8.175c0,0 5.99784,-8.88472 19.01094,-8.70053c13.48636,0.19089 22.13422,9.14715 29.77363,10.89261c2.708,0.61872 5.96341,8.63036 6.31923,9.05483c0.64122,0.76497 -7.10793,7.85916 -21.2619,8.98905c-9.39487,0.74998 -16.77474,-4.01508 -16.77474,-4.01508z" fill="#0f1b82" stroke="none" stroke-width="0" stroke-linecap="butt"/><path d="M227.15702,227.62972l-8.07653,-8.56667c0,0 6.89919,4.40087 8.61861,5.65763c1.70074,1.2431 4.42643,3.70904 4.42643,3.70904z" fill="#000000" stroke="none" stroke-width="0" stroke-linecap="butt"/><path d="M305.10601,229.32971l1.11534,8.53581c0,0 4.51417,-2.64511 -0.89425,3.42378c-4.75177,5.33205 -10.34918,9.94041 -12.17527,9.94041c-0.9092,0 -6.43021,-1.93831 -8.71568,-5.66162c-3.72141,-6.06264 -5.47033,-15.76316 -5.47033,-15.76316c0,0 10.43294,12.09146 14.0501,12.09146c5.84598,0 12.09009,-12.56667 12.09009,-12.56667z" fill="#0f1b82" stroke="none" stroke-width="0" stroke-linecap="butt"/><path d="M216.55809,202.77556c0,0 -1.89982,12.16667 -10,12.16667c-8.10018,0 -26.33133,0.86748 -26.33133,-5.66789c0,-6.53537 19.06449,-20.99877 27.16467,-20.99877c8.10018,0 9.16667,14.5 9.16667,14.5z" fill="#f89587" stroke="#000000" stroke-width="3.5" stroke-linecap="butt"/><path d="M173.87935,213.94062c-0.21311,-0.06162 -4.61719,-6.69377 -7.2172,-12.66995c-2.29986,-5.28626 -2.85819,-10.00879 -2.65737,-9.95073c0.22501,0.06507 0.17658,-5.56591 1.91814,-4.98115c1.33195,0.44721 6.24214,4.64974 7.56325,5.93982c1.21777,1.18917 2.7366,3.19855 3.80056,5.3099c0.84769,1.68209 2.20739,4.76674 2.43796,8.29993c0.26874,4.11805 -0.20267,7.95614 -0.46573,8.42149c-1.65882,2.93458 -4.73892,-0.18408 -5.3796,-0.36934z" fill="#0d1522" stroke="#000000" stroke-width="3" stroke-linecap="butt"/><g stroke-linecap="butt"><path d="M244.39168,258.02549c0,4.87365 -0.76846,7.39012 -6.36337,11.57472c-6.36494,4.76054 -18.77882,-0.37331 -29.83017,3.8003c-40.84486,15.42529 -62.24243,2.98695 -62.24243,2.98695c0,0 -1.57712,-3.7106 -1.57712,-11.02863c0,-5.09699 16.08388,-19.23488 35.97479,-24.78399c1.73483,-0.48398 2.3689,-1.46601 2.3689,-1.46601c0,0 -7.78994,-7.3777 -3.1757,-10.22073c0.41131,-0.25342 -1.02562,-4.30737 2.35283,-5.26108c4.82362,-1.36167 15.30941,0.48101 19.56794,2.14968c6.46362,2.53274 13.10009,13.89488 13.10009,13.89488c0,0 4.68894,-4.51481 6.72334,-6.69058c1.69078,-1.80828 4.64398,-5.46671 4.64398,-5.46671c0,0 7.90326,3.83113 12.35696,10.89554c4.7643,7.55706 6.09999,18.41716 6.09999,19.61568z" fill="#ac1e52" stroke="#000000" stroke-width="3.5"/><path d="M243.34117,260.85884c0,5.72996 -14.13385,16.125 -35.70755,16.125c-21.5737,0 -40.97981,7.10496 -40.97981,1.375c0,-3.33766 -2.2868,-14.22705 7.27144,-20.23299c2.94055,-1.8477 9.21999,-5.91209 15.97752,-9.9499c8.98631,-5.36956 20.12734,-11.94211 20.12734,-11.94211l3.71351,4.83417l-4.02844,3.29598c0,0 4.70261,0.62414 7.4279,0.05969c3.33208,-0.69012 14.16543,-10.66648 17.67114,-7.89004c0.29856,0.23645 2.40731,2.05113 4.23378,6.5471c2.65706,6.54053 4.29318,17.27286 4.29318,17.77811z" fill="#730e67" stroke="none" stroke-width="0"/><path d="M245.3264,274.90053c-2.79036,1.67171 -13.78029,3.85228 -23.31221,4.36762c-5.10252,0.27587 -11.62585,-0.9001 -19.32116,-0.29893c-6.7176,0.52479 -10.90903,8.82215 -38.74973,9.41051c-20.05969,0.42392 -23.91339,-9.64672 -24.63233,-12.06252c-0.21161,-0.71105 -1.64957,-2.8705 -0.40008,-5.58458c1.27395,-2.76719 3.75861,-4.78276 3.75861,-4.78276c0,0 0.54721,4.14715 2.66494,5.25483c4.36901,2.28523 22.6901,4.6902 32.81062,4.69419c10.18028,0.00401 24.51595,-9.66503 30.44715,-9.91503c8.04974,-0.33929 18.8452,0.73355 26.06143,-1.31062c2.78937,-0.79016 5.36009,-2.20452 7.43081,-3.6069c3.03561,-2.05585 4.99665,-4.08594 4.99665,-4.08594c0,0 6.21599,5.65781 5.40259,9.37345c-0.97142,4.43748 -5.35739,7.46837 -7.15727,8.54667z" fill="#ab9ef8" stroke="#000000" stroke-width="4.5"/><path d="M251.61417,266.90049c0,0 -3.52161,4.50549 -8.61458,8.15449c-0.94964,0.68039 -11.35266,2.04987 -21.79467,2.21581c-9.52839,0.15143 -19.08921,-0.9224 -21.5293,0.0333c-8.51967,3.33686 -7.5044,6.31703 -20.84149,7.61932c-6.14285,0.59981 -11.67841,1.31055 -11.67841,1.31055c0,0 -2.08499,-3.48381 -2.65301,-5.24426c-0.4473,-1.38628 -0.9596,-3.2172 -0.9596,-3.2172c0,0 12.78562,-0.53873 17.87167,-0.53873c4.54321,0 17.72502,-8.13765 25.56623,-10.01482c7.44383,-1.78204 16.95263,-0.41974 23.46523,-0.83825c5.03093,-0.3233 4.17056,-0.64996 6.88176,-1.15663c1.60638,-0.30021 9.76149,-6.47271 9.76149,-6.47271z" fill="#9464eb" stroke="none" stroke-width="0"/><path d="M214.68689,238.35887c0,0.29172 3.32132,-0.39877 3.32132,-0.39877c0,0 -1.8821,5.689 -3.47229,6.80511c-2.43405,1.70839 -10.39355,1.39366 -10.39355,1.39366c0,0 4.33857,-1.67928 6.81731,-3.65361c2.59896,-2.07011 3.72721,-4.82483 3.72721,-4.14639z" fill="#000000" stroke="none" stroke-width="0"/><path d="M234.47381,237.19775c0.39585,1.21559 -0.26163,2.54773 -1.46849,2.97543c-1.20688,0.42769 -2.50612,-0.21103 -2.90198,-1.42661c-0.39585,-1.21559 0.26163,-2.54773 1.46849,-2.97543c1.20688,-0.42769 2.50612,0.21103 2.90197,1.42661z" fill="#000000" stroke="none" stroke-width="0"/><path d="M236.21698,243.92099c0,1.25621 -1.00986,2.27458 -2.25558,2.27458c-1.24572,0 -2.25557,-1.01837 -2.25557,-2.27458c0,-1.25621 1.00986,-2.27457 2.25557,-2.27457c1.24572,0 2.25558,1.01836 2.25558,2.27457z" fill="#000000" stroke="none" stroke-width="0"/><path d="M202.43561,248.22978c0,1.013 -0.48045,3.90774 -2.08252,5.19963c-1.13958,0.91894 -4.43616,-0.13342 -4.72885,-0.35941c-1.84558,-1.42492 -3.3698,-3.71057 -5.30399,-4.88673c-4.55125,-2.76758 -9.20614,-1.47965 -9.20614,-6.11856c0,-3.03655 4.47977,-2.24898 10.30141,-2.24898c5.82162,0 11.0201,5.3775 11.0201,8.41405z" fill="#ab9ef8" stroke="#000000" stroke-width="3"/><path d="M201.0295,249.14821c0,1.84034 -0.37517,3.58216 -2.31572,3.58216c-1.94054,0 -5.90955,-4.33197 -5.90955,-4.33197c0,0 3.01065,-4.58191 4.9512,-4.58191c1.94054,0 3.27407,3.49139 3.27407,5.33172z" fill="#9464eb" stroke="none" stroke-width="0"/><path d="M191.52614,257.27118c0,1.4972 -0.56152,2.1047 -1.01115,2.58024c-0.4002,0.42325 -0.56239,0.79391 -2.46289,0.79391c-1.91351,0 -4.05455,-4.68131 -7.79303,-8.06633c-4.14635,-3.75431 -9.5771,-6.81651 -9.5771,-8.30457c0,-1.64327 1.26487,-2.51585 3.11589,-2.9587c0.71518,-0.1711 6.59736,2.7428 11.24359,6.85218c4.03648,3.57008 6.48468,7.78775 6.48468,9.10327z" fill="#ab9ef8" stroke="#000000" stroke-width="3"/><path d="M190.32819,257.14621c0,1.38036 -0.46117,2.24944 -1.9167,2.24944c-1.45553,0 -5.03135,-4.99875 -5.03135,-4.99875c0,0 1.31494,-1.91424 1.93514,-2.34556c0.57419,-0.39933 1.65869,-0.15381 1.65869,-0.15381c0,0 3.35423,3.86832 3.35423,5.24868z" fill="#9464eb" stroke="none" stroke-width="0"/><path d="M182.58786,261.97542c0,1.07477 -2.02097,4.33188 -3.8331,2.99899c-1.94243,-1.42872 -4.0615,-6.07406 -7.69316,-9.22955c-4.99435,-4.33949 -9.50938,-6.67979 -9.35072,-8.11179c0.23402,-2.1122 1.99595,-2.35461 2.98702,-3.28322c1.02481,-0.96021 5.74989,2.37402 10.43987,7.40062c3.52678,3.77989 7.45011,7.61827 7.45011,10.22495z" fill="#ab9ef8" stroke="#000000" stroke-width="3"/><path d="M181.38592,261.47972c0,1.38036 -0.39757,2.24944 -1.65236,2.24944c-1.25479,0 -4.33742,-4.99875 -4.33742,-4.99875c0,0 0.81416,-1.58102 1.34882,-2.01234c0.495,-0.39933 1.11049,-0.48703 1.11049,-0.48703c0,0 3.53046,3.86832 3.53046,5.24868z" fill="#9464eb" stroke="none" stroke-width="0"/></g><path d="M236.46155,197.6089c0,5.33875 -33.36073,8.66667 -38.00437,8.66667c-4.64363,0 -7.39908,-1.99458 -7.39908,-7.33333c0,-5.33875 2.25096,-13 6.89459,-13c0.79641,0 9.04021,-5.16714 15.28344,-7.38785c7.38508,-2.62687 12.97792,-16.32871 14.53539,-15.60722c4.80299,2.22494 8.69003,31.32168 8.69003,34.66174z" fill="#9464eb" stroke="#000000" stroke-width="3.5" stroke-linecap="butt"/><path d="M246.76762,219.44224c-13.89557,0 -23.56071,0.67581 -30.97319,-1.32732c-11.31781,-3.05849 -16.49645,-9.25602 -16.49645,-9.25602c0,0 7.07262,-18.68256 19.88921,-25.33343c8.32879,-11.08301 -3.99315,-25.95456 7.80947,-25.83323c1.20121,0.01235 65.57887,-11.85478 75.09077,-13.73972c7.71282,-1.52842 -16.86977,7.4246 -12.39298,13.75437c0.42057,0.59464 -14.09586,9.42843 -10.14641,13.60939c6.55642,6.94074 13.16356,20.13293 12.93978,21.29808c-0.59076,3.07583 -0.99249,4.76705 -6.1336,4.21891c-6.45068,-0.68778 -18.49404,-8.65767 -18.49404,-8.65767c0,0 -1.61109,0.06754 -1.91564,8.1829c-0.20036,5.33889 0.74175,14.55602 3.43159,18.14958c0.63801,0.85236 2.12914,4.93418 -22.60855,4.93418z" fill="#ab9ef8" stroke="#000000" stroke-width="3.5" stroke-linecap="butt"/><path d="M278.16545,165.3172c0,0 -17.52942,9.53533 -27.99838,12.49988c-7.69094,2.17789 -28.75593,3.66679 -28.75593,3.66679c0,0 3.90633,-14.79204 8.04165,-17.2423c3.93124,-2.32934 52.66445,-18.5077 52.66445,-18.5077c0,0 -1.82786,8.50907 -0.98223,9.70638c0.91465,1.29503 -2.96955,9.87696 -2.96955,9.87696z" fill="#9464eb" stroke="none" stroke-width="0" stroke-linecap="butt"/><path d="M265.67208,188.39095c0,0 -0.58093,6.05498 -1.23369,7.94824c-0.75922,2.20201 0.4732,9.39471 0.4732,9.39471c0,0 -5.14938,-11.84112 -5.80956,-15.93503c-0.37555,-2.32883 -36.45609,-5.12584 -37.27758,-8.25275c-0.56904,-2.166 33.98622,-5.27055 33.98622,-5.27055c0,0 10.58476,-15.27347 18.21492,-16.01074c1.16167,-0.11225 4.16159,0.19252 4.78107,2.92609c0.48709,2.14942 -1.38828,6.56397 -0.74166,8.27706c0.91591,2.42653 3.89572,3.14903 4.0837,3.37999c1.68449,2.0695 -16.47662,13.54299 -16.47662,13.54299z" fill="#9464eb" stroke="none" stroke-width="0" stroke-linecap="butt"/><path d="M234.60857,211.65056c-6.94382,2.17004 -16.69616,-2.42242 -16.69616,-7.08334c0,-4.37262 5.43317,-11.23267 12.33212,-12.85967c3.76623,-0.88819 15.37913,-4.90606 20.63764,-0.28232c2.97851,2.61897 -1.79251,15.55865 -14.59199,19.55865z" fill="none" stroke="#ac1e52" stroke-width="4.5" stroke-linecap="butt"/><path d="M231.22015,191.4839l7.70548,18" fill="none" stroke="#ac1e52" stroke-width="4.5" stroke-linecap="round"/><path d="M269.33699,187.69223l-4.11994,2.125l-9.58517,-14.375z" fill="#000000" stroke="none" stroke-width="0" stroke-linecap="butt"/><path d="M329.80993,178.42574c-3.50946,-0.37546 -0.99691,0.51747 -10.21678,-6.05354c-4.26376,-3.03879 -9.17672,-10.40553 -11.29131,-14.60561c-2.45798,-4.88209 -3.24136,-6.06818 -1.34602,-8.72757c3.52591,-4.94725 13.06882,0.92295 22.28867,7.49397c5.53125,3.94213 10.44642,7.97305 11.29005,10.20983c0.71891,1.90616 -2.0172,5.92739 -4.02036,7.9872c-2.01055,2.0674 -3.19476,4.07114 -6.70422,3.69569z" fill="#0066cc" stroke="#000000" stroke-width="5" stroke-linecap="butt"/><path d="M333.85561,175.13991c0,0 -2.35692,2.88511 -4.82597,2.03417c-1.30837,-0.45091 -8.85291,-5.13791 -12.6333,-10.33731c-2.91291,-4.00631 -6.4648,-8.28674 -7.5512,-11.40643c-0.70372,-2.02074 0.5543,-3.83016 0.5543,-3.83016c0,0 8.0649,8.58073 12.09208,12.68936c3.92358,4.00291 12.36409,10.85036 12.36409,10.85036z" fill="#0f1980" stroke="none" stroke-width="0" stroke-linecap="butt"/><path d="M178.23218,160.12395c4.62326,-1.77539 8.93652,-2.17576 8.93652,-2.17576c0,0 -2.33099,-8.34301 -3.23728,-12.13144c-0.95376,-3.98692 -2.63013,-11.9156 -2.63013,-11.9156c0,0 27.01839,-16.34112 54.00045,-15.39628c25.07215,0.87795 50.54938,21.08101 53.02076,25.26062c0.22104,0.37383 0.59737,6.70253 -1.00421,11.73557c-1.19079,3.74214 -3.4282,6.17363 -7.88423,8.06549c-7.62463,3.23713 -13.80301,8.57391 -22.79764,11.37198c-7.90045,2.45769 -52.75037,7.06337 -65.85079,4.28191c-12.02549,-2.55322 -22.20259,-7.79544 -21.85243,-12.24461c0,0 4.21863,-4.90095 9.29899,-6.85188z" fill="#aa96c7" stroke="#000000" stroke-width="3.5" stroke-linecap="butt"/><path d="M286.88085,144.66078c0,0 1.38387,8.25379 -2.14919,12.84086c-3.38916,4.40024 -12.2662,7.27043 -12.2662,7.27043l-4.60482,-5.90622l-9.15816,10.30897l-14.26764,-23.82186l-19.95945,12.64034l-4.43938,-19.08233l-33.28079,12.26329l-4.29302,-15.90134c0,0 67.9558,-14.21227 74.47102,-13.69953c6.51524,0.51274 29.94763,23.08741 29.94763,23.08741z" fill="#a7649a" stroke="none" stroke-width="0" stroke-linecap="butt"/><path d="M288.37021,146.01674c-6.89599,-1.23263 -33.11168,-7.14375 -42.85021,-14.00062c-18.78572,-13.22698 -31.02305,-17.17595 -41.36948,-17.9902c-19.63745,-1.54543 -18.47921,8.97599 -17.74983,-0.29214c0.16978,-2.15757 -13.38998,-36.35189 -7.16938,-44.62292c11.67051,-12.33674 28.47483,-14.52499 62.83101,-11.95248c14.47514,1.08387 34.8758,17.36544 36.52349,18.22361c15.29091,7.96404 37.97803,28.22667 38.85416,47.15412c0,0 0.6793,13.60997 -1.37101,16.45202c-2.20928,3.06241 -15.57649,-3.57023 -19.09121,-0.71391c-3.82505,3.10854 -6.78568,8.06816 -8.60755,7.74251z" fill="#ac1e52" stroke="#000000" stroke-width="5" stroke-linecap="butt"/><path d="M226.27156,137.65149c-0.32987,-2.48978 -0.34733,-7.58527 -0.34733,-7.58527c0,0 -13.73532,2.89704 -20.59659,4.89214c-7.02582,2.04295 -22.45795,7.78542 -22.45795,7.78542l1.06826,4.99805c0,0 -9.10997,2.13138 -13.88921,3.91474c-5.58536,2.08415 -14.37095,9.43753 -17.58314,6.32898c-3.33751,-3.22983 2.5569,-8.75604 5.29878,-13.56715c2.71697,-4.76738 11.57848,-16.66948 11.57848,-16.66948c0,0 -2.6274,-2.00979 -4.73825,-2.17592c-10.82811,-0.85217 -20.73698,-1.05735 -21.41369,-5.21222c-1.38727,-8.51753 28.29911,-34.75054 39.12724,-33.89838c1.42473,0.11212 10.16613,-1.602 17.44438,2.45515c7.70514,4.29508 13.53495,14.46384 13.53495,14.46384c0,0 0.16415,-7.42339 3.57401,-15.23946c2.82797,-6.4822 17.74251,-12.51224 17.74251,-12.51224c0,0 -1.57275,17.95321 1.49458,26.67079c3.24199,9.21402 5.69057,28.22755 5.69057,28.22755c0,0 -6.26635,5.81532 -8.69773,8.30877c-1.7377,1.78205 -5.38266,3.53063 -5.38266,3.53063c0,0 -1.13156,-2.33346 -1.44722,-4.71595z" fill="#44acff" stroke="#000000" stroke-width="3.5" stroke-linecap="butt"/><path d="M220.53385,99.21159c1.22748,-6.28925 12.41339,-19.1695 12.41339,-19.1695c0,0 -1.53075,15.36877 1.41074,23.37292c3.26106,8.87382 5.74389,26.71847 5.74389,26.71847c0,0 -3.90416,3.21105 -5.73325,5.18026c-1.85206,1.99394 -5.51041,6.69444 -5.51041,6.69444c0,0 -0.8651,-3.84662 -1.13887,-6.09052c-0.30402,-2.49201 -0.42426,-7.93052 -0.42426,-7.93052c0,0 -17.05865,3.72806 -24.90729,6.15235c-6.79358,2.09838 -19.7383,6.6173 -19.7383,6.6173l-0.82971,5.53408c0,0 -5.43328,1.18616 -8.48568,2.21599c-3.52977,1.1909 -11.46963,4.51668 -11.46963,4.51668l20.30961,-29.19723l-24.5026,-7.08343l31.07639,-17.89641l36.05861,18.39257c0,0 -5.29489,-12.78967 -4.27263,-18.02743z" fill="#356fee" stroke="none" stroke-width="0" stroke-linecap="butt"/><path d="M288.14194,147.17607l-0.56562,18.96284c0,0 -10.74891,-8.81118 -14.57074,-12.29422c-2.73251,-2.49031 -7.52776,-6.44545 -7.52776,-6.44545l-6.56623,10.44826c0,0 -5.67026,-11.12552 -8.2634,-15.69431c-2.26551,-3.99158 -6.44567,-10.2214 -6.44567,-10.2214z" fill="#44acff" stroke="#000000" stroke-width="3" stroke-linecap="butt"/><path d="M286.56811,148.05527l-0.84722,14.90417l-20.31527,-17.19198l-6.05935,8.48545l0.41952,-12.7605l-8.89412,-1.99639l-3.12683,-4.77777c0,0 13.99564,4.56551 20.08845,6.64052c6.03663,2.05588 18.73485,6.69652 18.73485,6.69652z" fill="#356fee" stroke="none" stroke-width="0" stroke-linecap="butt"/><path d="M298.5239,141.78231c-3.42949,3.9985 -9.71197,3.7621 -9.71197,3.7621c0,0 -8.91072,-3.40142 -13.67334,-4.94623c-5.17975,-1.6801 -18.3536,-5.76328 -18.3536,-5.76328c0,0 0.65836,-5.4285 1.71602,-12.51932c2.83133,-18.98225 10.02126,-46.67331 19.38115,-45.93672c1.04028,0.08187 1.87377,-0.37621 1.87377,-0.37621c0,0 10.81323,3.74969 20.00226,15.22661c8.977,11.2121 16.83546,23.11826 16.77629,26.37394c-0.00256,0.14095 0.31521,19.61594 0.12592,20.01839c0,0 -6.90237,2.38994 -10.13653,6.16071z" fill="#730e67" stroke="#000000" stroke-width="2.5" stroke-linecap="butt"/><path d="M308.23051,160.61247c-2.75282,6.83266 -5.64028,14.01312 -8.57871,13.78187c-5.35655,-0.42154 -11.31487,-13.86747 -11.31487,-13.86747l0.72553,-13.46635c0,0 22.29722,-10.74022 25.234,-6.31564c0,0 -1.75827,9.17567 -6.06595,19.86758z" fill="#aa96c7" stroke="#000000" stroke-width="4.5" stroke-linecap="butt"/><path d="M298.88218,155.93857l6.70725,3.32711c0,0 -0.66333,2.8539 -1.39743,4.27985c-0.69282,1.34575 -2.62747,8.96337 -4.46872,8.45124c-1.84127,-0.51214 -10.12643,-9.48624 -9.88836,-12.51138c0.06283,-0.79817 0.29342,-2.83243 0.32295,-4.48211c0.04152,-2.32038 1.25387,-6.07914 1.25387,-6.07914c0,0 7.94621,-4.83926 9.05893,-3.79446c1.33627,1.2547 -1.58849,10.80889 -1.58849,10.80889z" fill="#a7649a" stroke="none" stroke-width="0" stroke-linecap="butt"/><path d="M298.45676,162.33072c-0.64749,0.38805 -5.72203,-8.17655 -5.7165,-9.16652c0.00688,-1.23163 8.26406,-6.57634 8.96486,-5.6827c0.80088,1.02123 -1.76537,14.1104 -2.91847,14.80145z" fill="none" stroke="#000000" stroke-width="2" stroke-linecap="butt"/><path d="M342.54182,276.15506c0,6.90125 -29.63979,21.24365 -46.35731,21.24365c-9.9248,0 -27.0128,2.42813 -38.21946,-4.16472c-2.68492,-1.57953 -6.74434,-9.80222 -8.31622,-11.65006c-2.91855,-3.43092 1.44225,-14.4734 1.895,-15.73299c1.65013,-4.59075 -1.56548,-8.3782 -2.90681,-9.53053c-1.99155,-1.71093 -9.55065,-0.64137 -13.39531,-0.15334c-1.61964,0.20559 -2.3275,-3.07379 -1.79345,-5.53222c0.62759,-2.88907 3.00997,-6.10631 3.63182,-6.43315c0.43558,-0.22893 2.89507,-2.78455 7.5117,-2.77478c3.80409,0.00806 9.91855,3.97344 12.87026,3.39243c1.58832,-0.31265 -0.31438,-4.82253 2.08009,-6.57629c4.58587,-3.35879 6.78429,-5.39057 10.99628,-6.50668c3.22365,-0.85422 5.57873,-0.83874 5.71205,-0.24438c0.23524,1.04869 0.16803,7.10317 2.90453,12.05406c2.54615,4.6065 9.42509,7.77625 9.8099,7.83028c2.84547,0.39955 1.09472,0.25385 3.96446,-0.1576c2.25201,-0.32288 7.98129,-10.22071 12.30435,-16.02235c3.76193,-5.0486 8.83378,-8.54985 10.33672,-8.59893c2.23318,-0.07293 12.34297,5.55332 10.67459,9.51305c-0.34662,0.82263 -11.10123,9.40329 -10.71006,9.50671c8.79848,2.32617 17.72477,8.6345 22.88782,15.85533c3.67425,5.13866 4.11902,12.19788 4.11902,14.68251z" fill="#ac1e52" stroke="#000000" stroke-width="3.5" stroke-linecap="butt"/><path d="M338.52281,274.73071c0,5.24539 -34.83018,20.49487 -54.74959,20.49487c-19.91941,0 -30.61824,-9.9975 -30.61824,-9.9975c0,0 16.66691,-20.74473 36.5863,-20.74473c4.7859,0 18.55962,-4.92835 27.4999,-3.55514c5.04505,0.77491 9.23513,9.21236 9.23513,9.21236c0,0 2.39361,-2.18897 3.17677,-4.3198c0.95426,-2.59632 1.8781,-9.88945 1.8781,-9.88945c0,0 2.18577,1.96864 3.43271,2.27389c6.04876,1.48071 3.55891,14.53741 3.55891,16.5255z" fill="#730e67" stroke="none" stroke-width="0" stroke-linecap="butt"/><path d="M282.73228,248.6977l-9.16742,1.33289c0,0 0.82295,-4.88527 0.90941,-7.00905c0.12768,-3.13624 -0.14188,-9.98505 -0.14188,-9.98505c0,0 2.42602,6.79848 3.58474,10.90897c0.9881,3.50521 4.81514,4.75225 4.81514,4.75225z" fill="#ab164a" stroke="none" stroke-width="0" stroke-linecap="butt"/><path d="M323.20727,230.53709c0,0 3.02938,3.13363 1.46993,5.51472c-2.03927,3.11375 -9.324,6.84212 -11.32921,7.98078c-0.51477,0.29231 -1.92031,0.51003 -3.21496,1.15471c-3.00646,1.49713 -6.58848,5.49916 -8.24955,5.94249c-3.33142,0.88914 -1.50825,-3.26515 -1.50825,-3.26515c0,0 4.2173,-7.05362 9.99456,-11.67581c5.45664,-4.36566 12.83749,-5.65175 12.83749,-5.65175z" fill="#ab164a" stroke="none" stroke-width="0" stroke-linecap="butt"/><path d="M269.58656,257.19486l-2.76752,0.83306l-8.64851,-13.4955l0.69189,-3.83205z" fill="#000000" stroke="none" stroke-width="0" stroke-linecap="butt"/><path d="M289.65108,264.19252c0,2.48445 -29.05897,-0.51454 -29.05897,-3.99867c0,-1.25098 5.13582,-5.91216 10.57896,-8.90865c5.36696,-2.95455 11.0423,-4.25362 11.0423,-4.25362l4.43096,5.28695c0,0 2.66209,1.54527 4.04943,1.48954c1.2474,-0.05012 3.20756,-0.80921 3.20756,-0.80921c0,0 2.12687,-3.74668 5.60244,-4.78334c3.17197,-0.9461 9.14006,3.0873 8.4562,4.13187c-1.38291,2.11234 -18.30887,11.58477 -18.30887,11.84514z" fill="#ab9ef8" stroke="#000000" stroke-width="2.5" stroke-linecap="butt"/><path d="M285.4998,254.36247c0,0.88438 3.05599,-0.36437 9.34546,-0.24153c2.481,0.04845 0.7778,-4.83163 6.33629,-4.96823c5.49378,-0.13501 6.20098,6.83029 6.11418,7.20946c-0.50053,2.18656 -16.54012,7.66375 -17.81762,7.66375c-2.57927,0 -13.31871,-13.66211 -13.31871,-13.66211l5.36208,-2.33255c0,0 3.97832,3.38669 3.97832,6.33122z" fill="#9464eb" stroke="none" stroke-width="0" stroke-linecap="butt"/><path d="M314.3033,257.91499c-3.66018,2.06802 -14.33077,3.35447 -23.52342,3.71069c-9.06482,0.35126 -19.3535,4.60812 -24.38502,4.97682c-2.06797,0.15154 -2.68021,-0.54022 -2.83177,-1.75448c-0.3535,-2.83213 12.10203,-8.6395 26.19174,-11.18642c6.26505,-1.1325 15.12487,-1.04275 19.86328,0.19548c4.77708,1.24835 5.40438,3.65157 4.6852,4.05791z" fill="#ab9ef8" stroke="#000000" stroke-width="2.5" stroke-linecap="butt"/><path d="M320.53663,263.57482c-3.88487,2.01797 -15.5448,1.85485 -25.21199,2.39938c-10.26623,0.57828 -21.17109,6.36933 -26.47325,6.66948c-2.17921,0.12336 -2.49554,-2.24244 -2.63633,-3.45864c-0.32836,-2.83665 11.5192,-6.12472 26.3902,-8.47955c6.61244,-1.04708 17.37474,-2.20413 22.34352,-0.90149c5.00934,1.31327 6.35119,3.37431 5.58786,3.77081z" fill="#ab9ef8" stroke="#000000" stroke-width="2.5" stroke-linecap="butt"/><path d="M257.13271,252.19653c0,0 -3.4712,2.54372 -6.87569,3.08434c-1.51534,0.24063 -3.01746,-1.25162 -4.19439,-1.25162c-3.82115,0 -6.46003,1.93219 -10.37821,0.49983c-2.33863,-0.85492 0,-5.49816 0,-5.49816c0,0 5.3895,-0.75898 7.93612,-0.6285c2.84086,0.14556 13.51216,3.79411 13.51216,3.79411z" fill="#ab164a" stroke="none" stroke-width="0" stroke-linecap="butt"/><path d="M299.68334,254.52908l-3.30847,4.50323l-8.62647,1.32816l-5.01614,-3.83206c0,0 5.61922,-2.10713 9.30299,-2.49523c3.69623,-0.38942 7.64807,0.49589 7.64807,0.49589z" fill="#9464eb" stroke="none" stroke-width="0" stroke-linecap="butt"/><path d="M247.10045,254.5291c0,0.70149 7.3042,-0.08349 5.64345,0.28576c-1.60696,0.35728 -1.78049,3.54629 -3.04889,3.54629c-1.07864,0 -1.5692,-1.48672 -4.19017,-2.15442c-3.64641,-0.92892 -9.47446,-1.20782 -9.47446,-2.01086c0,-1.38025 3.47468,-3.49883 6.05396,-3.49883c2.57927,0 5.01613,2.45181 5.01613,3.83206z" fill="#000000" stroke="none" stroke-width="0" stroke-linecap="butt"/><path d="M324.59103,236.36849c0,0.84587 -4.50851,5.43105 -5.81721,8.44163c-0.93902,2.16017 0.93083,4.03481 0.93083,4.03481l-10.52485,-3.06493c0,0 0.74052,-1.48177 3.54731,-2.33931c2.23975,-0.68429 3.56134,-1.39545 3.56134,-1.74066c0,-0.90533 -0.06916,-4.00494 1.76667,-5.13204c2.26918,-1.39316 6.53589,-1.31855 6.53589,-0.19951z" fill="#000000" stroke="none" stroke-width="0" stroke-linecap="butt"/><path d="M343.48441,276.14748c0,5.93558 -9.00188,17.57851 -35.0605,23.32707c-16.06829,3.54469 -35.40141,2.56163 -44.89477,-0.4261c-18.97203,-5.97085 -17.00904,-19.48856 -17.00904,-21.5684c0,-2.1552 4.56552,-6.57957 4.56552,-6.57957c0,0 2.32558,12.24802 6.82185,14.5378c9.85942,5.02101 29.55731,4.28872 40.63159,4.28872c9.90175,0 28.14117,-6.25507 35.71784,-15.98895c3.38747,-4.35195 -1.52829,-17.08179 -1.52829,-17.08179c0,0 1.61131,-0.21017 3.41558,0.01477c8.19323,1.02148 7.01283,14.40733 7.01283,16.14312z" fill="#ab9ef8" stroke="#000000" stroke-width="4" stroke-linecap="butt"/><path d="M340.68582,263.48357c0,0 3.73517,12.11569 1.18058,15.88786c-1.56689,2.31369 -8.74974,8.67081 -18.19694,13.20631c-7.92196,3.80325 -18.27009,6.52871 -22.28848,6.89682c-24.55532,2.24944 -39.29224,-2.74931 -39.29224,-2.74931c0,0 20.39975,5.84006 51.04488,-3.8391c7.02328,-2.21828 15.94641,-5.86496 22.01855,-11.7421c5.32516,-5.15415 5.20627,-17.66048 5.20627,-17.66048z" fill="#9464eb" stroke="none" stroke-width="0" stroke-linecap="butt"/><path d="M245,157.25c0,3.45178 -3.02208,6.25 -6.75,6.25c-3.72792,0 -6.75,-2.79822 -6.75,-6.25c0,-3.45178 2.02208,-6.25 5.75,-6.25c3.72792,0 7.75,2.79822 7.75,6.25z" fill="#000000" stroke="none" stroke-width="0" stroke-linecap="butt"/><path d="M212.5,155.62963c0,2.96597 -3.24594,5.37037 -7.25,5.37037c-4.00406,0 -7.25,-2.4044 -7.25,-5.37037c0,-2.96597 4.32001,-6.98148 8.32407,-6.98148c4.00406,0 6.17593,4.01551 6.17593,6.98148z" fill="#000000" stroke="none" stroke-width="0" stroke-linecap="butt"/><path d="M259.538,168.98661c0.15982,1.77709 -13.86574,2.63713 -28.23214,3.92912c-14.3664,1.29199 -27.32095,3.55338 -27.48077,1.77629c-0.15982,-1.77709 12.53562,-6.91972 26.90202,-8.21171c14.3664,-1.29199 28.65106,0.72921 28.81088,2.5063z" fill="#ac1e52" stroke="#000000" stroke-width="3" stroke-linecap="butt"/><path d="M270,52.5l2.5,55.5" fill="none" stroke="#000000" stroke-width="2" stroke-linecap="round"/><path d="M276,38l2.5,81" fill="none" stroke="#000000" stroke-width="2" stroke-linecap="round"/><path d="M287,39.5l-1,84.5" fill="none" stroke="#000000" stroke-width="2" stroke-linecap="round"/><path d="M293.5,124l-0.5,-85.5" fill="none" stroke="#000000" stroke-width="2" stroke-linecap="round"/><path d="M299.5,61.5v57" fill="none" stroke="#000000" stroke-width="2" stroke-linecap="round"/><path d="M306.5,74.5l-1,41" fill="none" stroke="#000000" stroke-width="2" stroke-linecap="round"/><path d="M311,92v24.5" fill="none" stroke="#000000" stroke-width="2" stroke-linecap="round"/><g><path d="M175.27191,243.8896c0,0 -0.73908,8.84814 -5.32726,9.08416c-0.47406,0.02439 -16.18914,-1.32373 -13.95599,-11.35736c0.48382,-2.17386 2.40077,-9.30329 5.52013,-10.8731c6.10241,-3.07095 6.12427,-7.30327 6.11762,-7.65134c-0.08809,-4.60152 -1.60569,-12.00801 1.52334,-12.06791c1.60498,-0.03072 6.27396,4.11567 11.77831,10.13801c1.53039,1.67441 3.36781,4.1298 4.71069,5.76993c0.39496,0.48241 1.78592,1.59495 2.14588,2.04279c2.59601,3.22956 4.23589,5.55697 4.26253,6.94897c0.05253,2.74357 -4.88307,5.23305 -10.01628,6.07907c-3.47624,0.57293 -5.78326,0.86303 -5.78326,0.86303z" fill="#a7649a" stroke="#000000" stroke-width="3" stroke-linecap="butt"/><path d="M127.09682,244.40264c-6.964,-0.63912 -10.37815,-7.23977 -9.74742,-14.11215c0.63072,-6.87237 35.37402,-31.72163 42.33803,-31.08251c6.964,0.63912 13.02957,11.16396 12.39888,18.03632c-0.63072,6.87237 -38.02547,27.79745 -44.98948,27.15834z" fill="#314099" stroke="#000000" stroke-width="2.5" stroke-linecap="butt"/><path d="M121.31301,234.64171c-0.71621,0.17012 -1.50368,-0.56289 -1.75883,-1.63721c-0.25518,-1.07432 0.11857,-2.08313 0.83478,-2.25323c0.71621,-0.17012 1.50368,0.56289 1.75883,1.63721c0.25518,1.07432 -0.11858,2.08313 -0.83478,2.25323z" fill="#314099" stroke="none" stroke-width="0" stroke-linecap="butt"/><path d="M144.43983,247.74945c-4.53329,1.13719 -11.38856,-4.123 -15.23318,-5.79315c-5.40208,-2.34671 -8.97908,-21.44323 -8.11252,-22.84451c1.84901,-2.99003 8.67162,-6.44147 8.67162,-6.44147c0,0 4.52998,-4.56977 5.61871,-5.8863c0.57743,-0.69824 1.48938,-5.50336 4.36111,-7.66802c2.87171,-2.16466 5.92393,0.90374 7.82258,-1.51584c0.39946,-0.50905 2.71792,-5.16135 3.10598,-5.58285c3.7474,-4.07031 3.11436,-8.07316 8.59304,-8.17802c4.75906,-0.0911 13.71568,7.95334 17.96792,13.24865c6.47869,8.06794 5.1588,12.73399 5.32473,21.40173c0.059,3.08269 -0.86162,8.71338 -4.97061,11.03292c-1.92488,1.08661 -4.89872,0.09053 -6.51051,0.20964c-3.53486,0.26117 -5.89233,3.50287 -5.89233,3.50287c0,0 -3.44384,1.85161 -4.89151,4.06215c-1.5283,2.33372 -4.75715,2.191 -7.61955,2.24579c0,0 -1.41488,6.21456 -8.23543,8.20638z" fill="#aa96c7" stroke="#000000" stroke-width="2.5" stroke-linecap="butt"/><path d="M178.43313,227.52549c0.20577,2.51573 -13.15132,2.43514 -13.15132,2.43514c0,0 -2.38142,4.78317 -7.62597,8.07824c-1.50412,0.94502 -6.7661,2.08283 -6.7661,2.08283c0,0 -0.71641,3.13897 -5.18645,5.80898c-5.56893,3.32639 -15.06981,-4.7964 -15.06981,-4.7964c0,0 5.59806,0.00271 6.28068,-2.29433c0.72287,-2.43245 0.8847,-4.47915 0.67163,-8.51807c-0.10939,-2.07354 -0.24552,-7.87991 -0.24552,-7.87991c0,0 1.787,1.85126 3.65489,4.40579c1.90882,2.61054 3.59811,5.9656 6.54626,7.18747c1.95137,0.80875 4.45067,-1.24937 6.38036,-1.83084c2.78824,-0.84017 -0.77835,-20.28766 -0.77835,-20.28766c0,0 4.17874,9.07312 8.00706,13.69149c1.22537,1.47824 2.61545,1.28296 3.56005,1.77161c3.33279,1.72413 11.49083,-12.70748 11.49083,-12.70748c0,0 3.45743,0.17672 4.49996,3.36569c1.08207,3.30996 -2.29648,9.14138 -2.26817,9.48744z" fill="#a7649a" stroke="none" stroke-width="0" stroke-linecap="butt"/><path d="M164.68443,232.40509c-0.59007,0.0113 -4.00683,-2.00835 -6.13068,-5.89136c-1.53106,-2.79924 -2.00113,-6.29112 -3.12345,-9.99469c-0.96302,-3.17789 -4.17061,-6.44723 -4.17061,-6.44723c0,0 2.8192,0.21228 4.57009,3.65077c1.75096,3.43861 3.90825,9.732 5.79652,12.0993c2.8821,3.61328 6.01064,4.91363 6.02207,5.51116c0,0 -1.58346,1.04563 -2.96393,1.07204z" fill="#000000" stroke="none" stroke-width="0" stroke-linecap="butt"/><path d="M151.57237,241.47122c-0.01006,-0.52612 -5.08084,-3.98808 -7.44715,-6.74644c-1.66452,-1.94028 -2.84108,-5.25333 -3.61991,-8.21433c-0.87382,-3.32206 -4.71496,-5.66649 -4.71496,-5.66649c0,0 5.31054,1.54971 7.7395,8.64068c0.69599,2.03184 2.49609,3.62409 3.91968,4.89169c2.25592,2.00872 5.52977,3.84941 5.53874,4.31824c0.02509,1.31143 -0.29108,0.39676 -1.25739,0.41523c0,0 -0.13341,3.67287 -0.15851,2.3614z" fill="#000000" stroke="none" stroke-width="0" stroke-linecap="butt"/><g><g data-paper-data="{&quot;index&quot;:null}"><path d="M209.33188,180.81842c10.80821,7.69921 13.25314,22.80829 5.46091,33.74713c-7.79226,10.93885 -22.87089,13.56511 -33.6791,5.8659c-4.97364,-3.54296 -3.75294,-5.9409 -5.00198,-11.49364c-1.46525,-6.51392 -4.66538,-16.3484 -0.45891,-22.25351c0,0 6.76195,-6.4404 15.26304,-8.78535c6.25636,-1.72575 13.83397,-0.34456 18.41606,2.91948z" fill="#303f97" stroke="#000000" stroke-width="3" stroke-linecap="butt"/><path d="M193.77742,183.75017c0.78423,1.32895 0.57792,2.89951 -0.46084,3.50794c-1.03877,0.60843 -2.51659,0.02435 -3.30084,-1.30458c-0.78423,-1.32895 -0.57794,-2.89952 0.46084,-3.50795c1.03877,-0.60843 2.5166,-0.02434 3.30084,1.3046z" fill="#303f97" stroke="none" stroke-width="0" stroke-linecap="butt"/><path d="M200.8885,183.62323c1.33555,-0.57477 3.05285,0.4176 3.83568,2.21655c0.78284,1.79895 0.33478,3.72324 -1.00077,4.29804c-1.33556,0.57479 -3.05286,-0.41756 -3.8357,-2.21652c-0.78284,-1.79895 -0.33479,-3.72326 1.00076,-4.29806z" fill="#303f97" stroke="none" stroke-width="0" stroke-linecap="butt"/><path d="M183.39049,222.08581c0,0 -6.67653,-10.35556 -7.90433,-18.43363c-0.5249,-3.45342 7.72923,4.07674 17.22235,8.0596c9.95905,4.17835 21.14091,2.90834 21.14091,2.90834c0,0 -5.12145,6.67869 -8.01185,8.06081c-2.93968,1.4057 -9.45481,1.30359 -9.45481,1.30359z" fill="#242464" stroke="none" stroke-width="0" stroke-linecap="butt"/><path d="M174.77122,197.5981c0,0 4.93623,-8.51991 12.02217,-11.80775c2.75439,-1.9323 21.50717,-3.00947 21.50717,-3.00947" fill="none" stroke="#000000" stroke-width="2" stroke-linecap="round"/><path d="M176.50572,206.81446c0,0 3.83966,-8.75116 17.95747,-13.90176c9.12255,-2.50449 23.30243,0.53363 23.30243,0.53363" fill="none" stroke="#000000" stroke-width="2" stroke-linecap="round"/><path d="M179.05013,214.19514c0,0 7.75772,-6.51383 13.00214,-8.31633c6.58508,-2.26329 24.90941,-4.23747 24.90941,-4.23747" fill="none" stroke="#000000" stroke-width="2" stroke-linecap="round"/><path d="M183.11839,218.95744c0,0 9.51682,-2.80264 14.6354,-4.04765c5.55543,-1.35127 17.49405,-3.76737 17.49405,-3.76737" fill="none" stroke="#000000" stroke-width="2" stroke-linecap="round"/><path d="M199.14597,223.63365c0,0 -7.66831,-13.52717 -9.0806,-20.97927c-1.51345,-7.98584 0.28234,-25.44539 0.28234,-25.44539" fill="none" stroke="#000000" stroke-width="2" stroke-linecap="round"/><path d="M208.77194,220.52041c0,0 -7.86418,-8.37663 -10.67714,-20.10062c-2.06863,-10.56791 2.76362,-22.48402 2.76362,-22.48402" fill="none" stroke="#000000" stroke-width="2" stroke-linecap="round"/><path d="M213.31014,213.68187c0,0 -3.11498,3.3427 -5.64922,-14.77433c-1.51886,-7.99008 1.2178,-15.85341 1.2178,-15.85341" fill="none" stroke="#000000" stroke-width="2" stroke-linecap="round"/><path d="M168.25792,192.61281c0.49265,-0.69159 4.54139,-8.93193 7.11507,-4.90688c0.98657,1.54293 -3.35871,11.8468 -1.05921,19.15363c3.15105,10.01272 8.79458,15.73871 8.59521,16.89401c-0.39097,2.26555 -8.46968,-2.45293 -8.64271,-2.21003c-0.32898,0.46182 -5.30111,-4.12031 -7.71603,-11.72077c-2.26702,-7.13503 1.39885,-16.7764 1.70768,-17.20992z" fill="#314099" stroke="#000000" stroke-width="3" stroke-linecap="butt"/><path d="M170.335,199.32413c0.91712,-0.0886 1.75857,0.85341 1.87941,2.10405c0.12084,1.25065 -0.5247,2.33633 -1.44185,2.42494c-0.91712,0.08861 -1.75858,-0.85341 -1.87941,-2.10405c-0.12084,-1.25064 0.52469,-2.33633 1.44183,-2.42494z" fill="#6283b8" stroke="none" stroke-width="0" stroke-linecap="butt"/><path d="M171.63507,191.88877c0.96783,0.40081 1.41817,1.84019 1.54486,3.3723c0.12665,1.5321 -0.11829,2.57677 -1.08613,2.17593c-0.96782,-0.40082 -1.85509,-1.96779 -1.98177,-3.49986c-0.12668,-1.5321 0.55521,-2.44918 1.52303,-2.04833z" fill="#6283b8" stroke="none" stroke-width="0" stroke-linecap="butt"/></g><path d="M191.2089,223.8009c0,0 -9.50593,-13.32557 -10.56035,-18.37514c-1.05442,-5.04957 2.00088,-23.80818 2.00088,-23.80818" fill="none" stroke="#000000" stroke-width="2" stroke-linecap="round"/></g></g></g></g></svg>