<svg version="1.1" xmlns="http://www.w3.org/2000/svg" xmlns:xlink="http://www.w3.org/1999/xlink" width="347" height="286" viewBox="0,0,347,286"><g transform="translate(-85,-40.50003)"><g data-paper-data="{&quot;isPaintingLayer&quot;:true}" fill-rule="nonzero" stroke-linejoin="miter" stroke-miterlimit="10" stroke-dasharray="" stroke-dashoffset="0" style="mix-blend-mode: normal"><text transform="translate(211.22476,115.34676) scale(0.20352,0.20352)" font-size="40" xml:space="preserve" fill="#000000" fill-rule="nonzero" stroke="none" stroke-width="1" stroke-linecap="butt" stroke-linejoin="miter" stroke-miterlimit="10" stroke-dasharray="" stroke-dashoffset="0" font-family="Sans Serif" font-weight="normal" text-anchor="start" style="mix-blend-mode: normal"><tspan x="0" dy="0">Polargaming64</tspan><tspan x="0" dy="46.150000000000006px"> </tspan><tspan x="0" dy="46.150000000000006px">MeIzAwezomeDede</tspan><tspan x="0" dy="46.150000000000006px"> </tspan><tspan x="0" dy="46.150000000000006px">AwezomeXD</tspan></text><path d="M250.22476,200.35887c0,5.33875 -33.06429,8.66667 -37.66667,8.66667c-4.60237,0 -7.33333,-1.99458 -7.33333,-7.33333c0,-5.33875 0.73096,-9.25 5.33333,-9.25c0.44559,0 12.29281,-1.86911 17.97875,-7.38044c4.38632,-4.25162 1.97421,-17.79032 4.66888,-18.75741c7.31946,-2.62687 6.8626,-1.32871 8.40623,-0.60722c4.76031,2.22494 8.61281,31.32168 8.61281,34.66174z" fill="#d38ddd" stroke="#000000" stroke-width="3.5" stroke-linecap="butt"/><path d="M214.80809,212.27554c0,0 -1.89982,12.16667 -10,12.16667c-8.10018,0 -26.33133,0.86748 -26.33133,-5.66789c0,-6.53537 19.06449,-20.99877 27.16467,-20.99877c8.10018,0 9.16667,14.5 9.16667,14.5z" fill="#f89587" stroke="#000000" stroke-width="3.5" stroke-linecap="butt"/><g><g stroke-linecap="butt"><path d="M185.11824,190.06278c0,0 10.35998,-3.14874 11.7962,1.21524c0.14839,0.45089 2.98728,15.96611 -7.28025,16.4547c-2.22453,0.10585 -9.60713,0.13452 -11.94313,-2.4612c-4.5699,-5.078 -3.66824,-14.66073 -4.00226,-14.56264c-4.41582,1.29703 -16.15129,15.38835 -17.03326,12.3856c-0.4524,-1.5402 2.31775,-7.13648 6.67756,-14.03273c1.21217,-1.91738 3.09686,-4.33667 4.32536,-6.06414c0.36133,-0.50808 1.06822,-2.14296 1.40541,-2.60818c2.43172,-3.35501 4.245,-5.55003 5.58083,-5.94237c4.41582,-1.29703 10.47355,15.61571 10.47355,15.61571z" fill="#fddfbd" stroke="#000000" stroke-width="3"/><path d="M195.59068,192.48969c0,0 0.76441,1.71645 0.58053,5.03692c-0.18646,3.36716 -2.50853,7.906 -4.9097,8.6113c-2.10682,0.61881 -10.03855,2.21809 -12.46466,-0.30516c-3.06579,-3.18851 -0.43953,-10.8055 -0.60245,-11.36014c-0.29183,-0.99355 6.18438,5.87008 10.95346,4.46928c4.7691,-1.40078 6.44279,-6.4522 6.44279,-6.4522z" fill="#f49285" stroke="none" stroke-width="0"/></g><g><path d="M209.00735,236.40112c1.21778,6.88642 -4.2505,11.91861 -11.0463,13.12036c-6.79581,1.20176 -39.91899,-25.76929 -41.13678,-32.65571c-1.21778,-6.88642 7.3377,-15.51006 14.13352,-16.71183c6.79581,-1.20176 36.83179,29.36076 38.04959,36.24718z" fill="#465e85" stroke="#000000" stroke-width="2.5" stroke-linecap="butt"/><path d="M166.35724,183.10132c0.98303,14.72072 -10.01106,27.44163 -24.55599,28.41293c-14.54493,0.9713 -27.13284,-10.1748 -28.11588,-24.89555c-0.98303,-14.72072 10.01106,-27.44162 24.55599,-28.41292c14.54493,-0.9713 27.13284,10.1748 28.11588,24.89555z" fill="#465e85" stroke="#000000" stroke-width="3" stroke-linecap="butt"/><path d="M167.74691,194.07956c0.01478,0.22135 -4.71692,6.62388 -9.44749,11.10679c-4.18445,3.96538 -8.43315,6.1014 -8.44707,5.89282c-0.01561,-0.2337 -5.29221,1.73294 -5.33669,-0.10364c-0.03404,-1.40461 2.24114,-7.45397 3.0031,-9.13596c0.70237,-1.5504 2.073,-3.66366 3.69467,-5.38411c1.29196,-1.3707 3.72766,-3.70121 6.97019,-5.12336c3.77928,-1.65758 7.54794,-2.52389 8.07511,-2.43538c3.32445,0.5581 1.44374,4.5174 1.48818,5.18285z" fill="#0d1522" stroke="#000000" stroke-width="3" stroke-linecap="butt"/><path d="M131.6912,177.0656c0.6208,1.16765 -0.0914,2.75535 -1.59071,3.5462c-1.49932,0.79084 -3.21799,0.48539 -3.83879,-0.68227c-0.6208,-1.16765 0.09138,-2.75535 1.5907,-3.54621c1.49932,-0.79084 3.218,-0.4854 3.8388,0.68227z" fill="#6283b8" stroke="none" stroke-width="0" stroke-linecap="butt"/><path d="M124.03496,173.96777c0.91773,1.30725 0.22773,3.36505 -1.54114,4.59626c-1.76887,1.23121 -3.94679,1.16956 -4.86453,-0.13769c-0.91773,-1.30725 -0.22775,-3.36505 1.54112,-4.59626c1.76887,-1.23121 3.9468,-1.16955 4.86455,0.13767z" fill="#6283b8" stroke="none" stroke-width="0" stroke-linecap="butt"/><path d="M124.87351,206.95715c0,0 -6.15177,-3.65928 -8.09079,-6.66806c-1.90652,-2.95835 -3.4475,-11.2359 -3.4475,-11.2359c0,0 13.9548,-0.24756 21.39136,-1.51517c8.37987,-1.4284 26.3968,-6.63054 26.3968,-6.63054c0,0 1.9477,1.62352 0.88283,3.08939c-3.30021,4.54297 -23.28766,27.75237 -23.28766,27.75237z" fill="#313243" stroke="none" stroke-width="0" stroke-linecap="butt"/><path d="M151.63654,160.96098c0,0 4.67719,6.4492 6.13946,9.84368c1.65282,3.83681 3.27604,12.01315 3.27604,12.01315" fill="none" stroke="#000000" stroke-width="2" stroke-linecap="round"/><path d="M123.07649,165.15486c0,0 9.85039,7.20902 13.85928,11.48698c4.05717,4.32944 10.34066,14.33703 10.34066,14.33703" fill="none" stroke="#000000" stroke-width="2" stroke-linecap="round"/><path d="M143.42214,195.80957c0,0 -9.51111,-4.28786 -13.78079,-8.45374c-4.37976,-4.27328 -12.17596,-16.87181 -12.17596,-16.87181" fill="none" stroke="#000000" stroke-width="2" stroke-linecap="round"/><path d="M141.4847,199.55953c0,0 -8.08531,-1.19216 -12.54198,-3.59753c-4.74186,-2.55928 -15.10683,-11.32503 -15.10683,-11.32503" fill="none" stroke="#000000" stroke-width="2" stroke-linecap="round"/><path d="M139.42522,204.46096c0,0 -7.636,0.06247 -11.42052,-1.12314c-4.05221,-1.26947 -12.14459,-6.25932 -12.14459,-6.25932" fill="none" stroke="#000000" stroke-width="2" stroke-linecap="round"/><path d="M133.57818,209.23418c0,0 -0.47188,-6.32678 0.9929,-12.29611c1.2397,-5.05208 4.21811,-9.65539 6.41586,-11.94061c1.52793,-1.58878 4.88922,-3.81373 7.81801,-4.74758c6.75,-2.15224 14.34462,-1.76438 14.34462,-1.76438" fill="none" stroke="#000000" stroke-width="2" stroke-linecap="round"/><path d="M122.88869,204.0408c0,0 -0.49525,-4.74129 0.54104,-10.22298c1.28535,-6.79909 4.38018,-14.90593 7.24608,-18.50859c2.14179,-2.69244 6.36369,-5.91169 10.70127,-7.65979c6.35668,-2.56188 12.88908,-3.05291 12.88908,-3.05291" fill="none" stroke="#000000" stroke-width="2" stroke-linecap="round"/><path d="M113.85324,187.87521c0,0 6.84296,-12.17463 12.86819,-18.77157c6.02524,-6.59694 13.82164,-10.45075 13.82164,-10.45075" fill="none" stroke="#000000" stroke-width="2" stroke-linecap="round"/><path d="M166.67529,189.58465c0.03896,0.58341 -7.02094,-0.53184 -13.25308,4.83428c-6.63867,5.71615 -8.99761,19.38033 -9.0391,18.75884c-0.02183,-0.32687 -6.6244,2.37176 -6.69787,-0.1961c-0.05621,-1.96389 2.74079,-10.39889 3.68081,-12.74294c0.8665,-2.16069 2.56619,-5.10178 4.58467,-7.49133c1.60811,-1.90376 4.64219,-5.13841 8.6975,-7.09542c4.72659,-2.28093 9.4475,-3.45584 10.10987,-3.32708c4.1771,0.81212 1.85506,6.32904 1.91721,7.25973z" fill="#465e85" stroke="#000000" stroke-width="3" stroke-linecap="butt"/><path d="M137.55938,211.51685c-12.85636,-1.02565 -23.77095,-11.44014 -24.66609,-24.84528c-0.98303,-14.72072 10.80312,-27.49452 25.34807,-28.46581c13.64378,-0.91111 25.64152,9.97842 27.87783,23.3408c0.08003,0.47817 -11.72438,1.46861 -19.1641,9.70366c-6.29234,6.965 -8.81754,20.3127 -9.39569,20.26658z" fill="none" stroke="#000000" stroke-width="3" stroke-linecap="butt"/><path d="M134.42997,159.44226c0,0 10.48567,7.29258 13.46039,11.50831c3.09832,4.39091 4.77379,14.33296 4.77379,14.33296" fill="none" stroke="#000000" stroke-width="2" stroke-linecap="round"/><path d="M145.3353,201.65716c0.80664,0.61143 0.78464,1.99879 -0.04914,3.09875c-0.83377,1.09997 -2.16359,1.49599 -2.97022,0.88457c-0.80663,-0.61143 -0.78464,-1.99879 0.04914,-3.09876c0.83378,-1.09997 2.1636,-1.49598 2.97022,-0.88457z" fill="#6283b8" stroke="none" stroke-width="0" stroke-linecap="butt"/><path d="M149.61163,193.42288c1.13612,0.18292 1.24527,1.43355 0.24384,2.79336c-1.00144,1.35979 -2.73427,2.31385 -3.87036,2.13094c-1.13612,-0.18292 -1.24528,-1.43355 -0.24385,-2.79336c1.00144,-1.35979 2.73428,-2.31384 3.87037,-2.13094z" fill="#6283b8" stroke="none" stroke-width="0" stroke-linecap="butt"/><path d="M201.11457,244.55173c0.35275,0.6461 -0.14694,1.59884 -1.11612,2.12796c-0.96916,0.52915 -2.0408,0.4343 -2.39355,-0.21181c-0.35275,-0.6461 0.14694,-1.59884 1.11612,-2.12796c0.96916,-0.52915 2.0408,-0.4343 2.39355,0.21181z" fill="#6283b8" stroke="none" stroke-width="0" stroke-linecap="butt"/></g><g stroke-linecap="butt"><path d="M194.37728,214.43502c0.28011,0.95366 8.86232,-4.6348 13.14896,2.98692c2.29113,4.07366 -2.69341,11.98591 -3.2919,16.13468c-0.84093,5.82943 -16.46354,15.76371 -18.04359,15.29685c-3.37148,-0.99614 -8.49812,-6.6687 -8.49812,-6.6687c0,0 -0.59847,-1.45076 -4.53428,1.28403c-1.87213,1.30086 -2.57254,0.43993 -4.12935,-0.26359c-3.87761,-1.7523 -8.32189,-7.67646 -8.32189,-7.67646c0,0 -3.20571,0.88858 -7.02062,1.34638c-1.82415,0.21888 -3.70092,1.31877 -5.59579,0.33813c-4.91365,-2.54294 -5.03568,-10.33061 -6.57994,-15.5882c-1.34143,-4.56701 1.74912,-8.99117 5.73739,-14.48805c6.07653,-8.37502 13.83432,-14.97164 22.15228,-17.4148c2.95829,-0.8689 6.89418,0.58548 10.21413,3.93838c1.55525,1.5707 3.11612,2.65249 3.65556,4.176c1.18304,3.34125 -1.04996,5.86862 -1.04996,5.86862c0,0 5.74893,0.75031 8.26275,1.5646c2.65385,0.85963 3.08753,6.41833 3.89435,9.1652z" fill="#fddfbd" stroke="#000000" stroke-width="2.5"/><path d="M146.53292,222.75557c0.4605,1.5678 2.74871,3.07636 3.76449,4.74711c0.33892,0.55745 4.01241,0.23626 7.4152,-1.82597c7.53631,-4.56728 17.30997,-14.15533 16.82936,-14.01417c-0.02396,0.00703 -5.71312,12.98526 -2.28067,17.14902c1.61736,1.96196 5.06678,2.97791 6.98002,3.87845c2.78779,1.31215 8.42168,-6.76992 8.42168,-6.76992c0,0 -3.67822,8.23487 -0.28333,8.17145c4.73003,-0.08833 21.16989,-15.9766 21.16989,-15.9766c0,0 -0.82633,6.92607 -2.27245,12.46564c-1.29386,4.95636 -6.47258,8.44406 -8.78372,10.02015c-5.52554,3.76819 -11.21337,4.37199 -10.95019,5.12788c0.25347,0.72795 -2.48648,0.0645 -4.6902,-1.80791c-2.55309,-2.16927 -4.64249,-5.61854 -4.60244,-4.94699c0.12468,2.09004 -7.25775,2.45987 -7.45092,3.03517c-0.90112,2.68398 -6.61206,-10.11218 -9.16156,-7.48977c-2.4603,2.53064 -7.49753,0.69193 -9.73062,1.38211c-4.00629,1.23822 -6.32377,-9.13679 -6.68928,-10.38124c-0.97276,-3.31187 -1.02507,-13.24808 -1.02507,-13.24808c0,0 2.36708,7.17182 3.33984,10.4837z" fill="#f49285" stroke="none" stroke-width="0"/><path d="M182.08677,200.97824c1.32476,-0.38911 1.10547,1.10243 1.49458,2.42718c0.38911,1.32476 -2.6976,3.65852 -4.02235,4.04763c-1.32476,0.38911 -11.07907,11.07098 -11.07907,11.07098c0,0 12.28208,-17.15668 13.60682,-17.54578z" fill="#000000" stroke="none" stroke-width="0"/><path d="M194.89221,214.41406c0.27239,0.92733 2.95857,-0.34786 1.70003,0.02179c-1.25851,0.36966 -10.89031,15.70564 -10.89031,15.70564c0,0 7.05026,-16.14109 8.30878,-16.51075c1.25851,-0.36966 0.60913,-0.14399 0.88147,0.78333z" fill="#000000" stroke="none" stroke-width="0"/><path d="M194.47621,213.88482c0.28011,0.95366 8.52351,-4.01418 12.81014,3.60757c0.99286,1.76531 1.84398,11.5906 -2.65749,17.0984c-5.88617,7.20207 -17.7961,12.77771 -18.69143,12.51317c-3.37148,-0.99614 -9.24624,-5.66728 -9.24624,-5.66728c0,0 -0.94822,-0.11133 -2.43043,0.33258c-1.49428,0.44755 -2.6367,0.92762 -3.40891,0.6535c-3.85728,-1.36935 -9.53757,-8.37518 -9.53757,-8.37518c0,0 -1.84563,0.86815 -5.03127,1.55158c-2.25415,0.48359 -5.22829,1.14928 -7.65559,-0.10693c-4.91365,-2.54294 -6.08218,-10.97381 -6.31156,-16.44871c-0.08669,-2.06938 1.76255,-7.17118 5.75084,-12.66807c6.07653,-8.37502 12.80438,-14.92968 21.12236,-17.37286c3.18383,-0.93515 6.96324,1.30779 10.30242,4.61136c0.17979,0.17787 2.77306,2.7967 3.15797,3.88381c1.18304,3.34125 -0.42932,6.20744 -0.42932,6.20744c0,0 6.22865,0.60941 8.74245,1.42368c2.65385,0.85963 2.70677,6.00904 3.51358,8.75591z" fill="none" stroke="#000000" stroke-width="2.5"/><path d="M194.47621,213.88482c0.28011,0.95366 8.52351,-4.01418 12.81014,3.60757c0.99286,1.76531 1.84398,11.5906 -2.65749,17.0984c-5.88617,7.20207 -17.04799,11.77629 -17.94333,11.51176c-3.37148,-0.99614 -9.38714,-6.14704 -9.38714,-6.14704c0,0 -1.83724,0.41034 -3.31945,0.85428c-1.49428,0.44755 -2.6367,0.92762 -3.40891,0.6535c-3.85728,-1.36935 -9.05785,-8.51609 -9.05785,-8.51609c0,0 -2.56522,1.07952 -5.75086,1.76292c-2.25415,0.48359 -4.74855,1.00838 -7.17586,-0.24784c-4.91365,-2.54294 -6.04024,-9.94391 -6.26961,-15.41879c-0.08669,-2.06938 1.76255,-7.17118 5.75084,-12.66807c6.07653,-8.37502 12.80438,-14.92968 21.12236,-17.37286c3.18383,-0.93515 6.96324,1.30779 10.30242,4.61136c0.17979,0.17787 2.77306,2.7967 3.15797,3.88381c1.18304,3.34125 -0.42932,6.20744 -0.42932,6.20744c0,0 6.22865,0.60941 8.74245,1.42368c2.65385,0.85963 2.70677,6.00904 3.51358,8.75591z" fill="none" stroke="#000000" stroke-width="2.5"/></g></g><g stroke-linecap="butt"><path d="M309.54476,213.97595c0,6.72542 -24.58625,9.63291 -28.47103,9.63291c-3.88478,0 -2.00972,-9.81409 -2.00972,-16.5395c0,-3.84489 -1.07033,-12.40353 -0.40053,-18.09547c0.5018,-4.26432 4.09591,-7.53169 5.75978,-7.53169c1.49662,0 12.26767,1.56808 16.70856,7.25088c3.72113,4.76177 1.00221,13.2788 3.94326,17.81156c2.65974,4.0992 4.46968,5.50793 4.46968,7.47132z" fill="#fddfbd" stroke="#000000" stroke-width="3.5"/><path d="M301.75709,194.35886l-0.03625,6.68333c0,0 -3.42796,2.54174 -12.02673,-1.20931c-2.79169,-1.21783 -8.03422,-5.72402 -8.03422,-5.72402c0,0 -4.31313,-8.93709 -0.71754,-9.86081c0.7722,-0.19838 5.46258,-1.56383 10.33676,0.93895c5.15101,2.64492 10.47798,9.17186 10.47798,9.17186z" fill="#f89486" stroke="none" stroke-width="0"/><path d="M286.06803,212.61033c0.71705,-0.83873 2.05234,-1.30425 2.88481,-0.53418c2.6589,2.45959 9.09108,6.94833 12.06123,7.62816c3.35441,0.76779 9.10803,-4.60777 9.10803,-4.60777c0,0 6.09155,5.95932 6.36932,12.42496c0.14237,3.31393 -2.71157,5.87812 -5.35049,8.81462c-3.65021,4.06187 -7.57734,8.1511 -8.77875,9.76742c-1.23619,1.66309 -5.73682,6.59239 -9.09054,6.60237c-1.19173,0.00355 -5.69939,-4.10308 -8.32659,-9.56372c-2.87773,-5.98135 -4.15204,-12.83749 -5.7932,-12.16068c-4.13515,1.70532 -12.22767,3.19836 -15.99306,8.26333c-0.37001,0.49771 -0.44237,4.24866 -0.44237,4.24866c0,0 -5.015,-0.09146 -7.29035,-0.35981c-2.00291,-0.23622 -6.15141,-1.16624 -6.15141,-1.16624c0,0 -2.0822,-4.42458 -5.09286,-7.12547c-2.66657,-2.3922 -10.69584,-8.49216 -11.31077,-8.01649c-1.11222,0.86034 -2.03047,3.69125 -4.53384,6.89002c-2.17381,2.77767 -6.28409,4.62251 -6.28409,4.62251c0,0 -13.1906,-14.04339 -17.54342,-13.59367c-3.64835,0.37693 -5.68154,0.14275 -8.27926,0.57813c-6.0636,1.01626 -9.34742,1.68221 -9.34742,1.68221c0,0 0.47208,-4.40395 1.32025,-6.87344c1.07623,-3.13353 3.34455,-9.26472 4.61742,-10.41456c0.7566,-0.68347 4.27378,1.42056 7.03928,2.38783c3.38059,1.18242 11.77207,4.19175 11.77207,4.19175c0,0 14.11419,-13.62492 20.72092,-13.62492c12.99915,0 29.348,5.46061 37.95989,10.50115c7.38152,4.3204 8.01245,7.08218 8.01245,7.08218c0,0 6.08384,-5.70395 7.74275,-7.64435z" fill="#0066cc" stroke="#000000" stroke-width="3.5"/><path d="M231.77511,226.57968c0,0 -1.81365,2.82066 -4.06973,5.46243c-2.02135,2.3669 -4.47713,4.59019 -4.99913,4.51257c-1.09978,-0.16352 -3.85633,-2.40147 -5.08781,-4.62109c-0.56012,-1.00955 0.31103,-1.69807 -0.16549,-2.74389c-1.61112,-3.53589 -5.37309,-11.31002 -5.37309,-11.31002l6.75768,-8.175c0,0 5.57997,-8.88472 17.68644,-8.70053c12.54676,0.19089 31.75608,9.48049 38.86325,11.22594c2.51933,0.61872 2.13673,9.96369 2.46776,10.38816c0.59655,0.76497 -10.64415,6.85916 -23.81201,7.98905c-8.74032,0.74998 -19.32737,-4.68175 -19.32737,-4.68175z" fill="#0f1b82" stroke="none" stroke-width="0"/><path d="M232.77997,227.62968l-4.72284,-6.9c0,0 3.62753,2.7342 5.22716,3.99096c1.58224,1.2431 4.11804,3.70904 4.11804,3.70904z" fill="#000000" stroke="none" stroke-width="0"/><path d="M313.6712,223.32968l1.65786,5.20247c0,0 -4.79351,6.68823 -9.82513,12.75712c-4.42071,5.33205 -9.62815,9.94041 -11.32701,9.94041c-0.84585,0 -4.43166,-2.60498 -6.55791,-6.32829c-3.46213,-6.06264 -5.70943,-14.42983 -5.70943,-14.42983c0,0 9.70607,11.75812 13.07123,11.75812c5.43869,0 18.6904,-18.9 18.6904,-18.9z" fill="#0f1b82" stroke="none" stroke-width="0"/></g><g stroke-linecap="butt"><path d="M252.93524,258.02549c0,4.87365 -0.80555,7.39012 -6.6705,11.57472c-6.67215,4.76054 -19.68521,-0.37331 -31.26997,3.8003c-42.81631,15.42529 -65.24667,2.98695 -65.24667,2.98695c0,0 -1.65325,-3.7106 -1.65325,-11.02863c0,-5.09699 16.8602,-19.23488 37.71117,-24.78399c1.81858,-0.48398 2.48323,-1.46601 2.48323,-1.46601c0,0 -8.16593,-7.3777 -3.32899,-10.22073c1.04675,-0.61525 15.38813,-5.94882 22.97882,-3.1114c6.77559,2.53274 13.73239,13.89488 13.73239,13.89488c0,0 4.91526,-4.51481 7.04785,-6.69058c1.77238,-1.80828 4.86812,-5.46671 4.86812,-5.46671c0,0 8.28472,3.83113 12.95339,10.89554c4.99425,7.55706 6.39443,18.41716 6.39443,19.61568z" fill="#ff2d32" stroke="#000000" stroke-width="3.5"/><path d="M251.83403,260.85881c0,5.72996 -14.81605,16.125 -37.43104,16.125c-22.61499,0 -42.95777,7.10496 -42.95777,1.375c0,-3.33766 -2.39717,-14.22705 7.62241,-20.23299c3.08248,-1.8477 9.66501,-5.91209 16.7487,-9.9499c9.42005,-5.36956 21.09882,-11.94211 21.09882,-11.94211l3.89276,4.83417l-4.22288,3.29598c0,0 4.92959,0.62414 7.78642,0.05969c3.4929,-0.69012 14.84915,-10.66648 18.52406,-7.89004c0.31296,0.23645 2.52349,2.05113 4.43813,6.5471c2.78531,6.54053 4.5004,17.27286 4.5004,17.77811z" fill="#ab164a" stroke="none" stroke-width="0"/><path d="M247.81458,275.23384c-2.92505,1.67171 -8.34491,3.51894 -18.33691,4.03428c-5.3488,0.27587 -12.18699,-0.9001 -20.25373,-0.29893c-7.04184,0.52479 -11.43558,8.82215 -40.62005,9.41051c-21.0279,0.42392 -27.22073,-9.98005 -27.97438,-12.39585c-0.22182,-0.71105 -0.29378,-2.8705 1.01602,-5.58458c1.33544,-2.76719 3.94003,-5.11609 3.94003,-5.11609c0,0 1.29133,4.81382 3.51127,5.9215c4.57989,2.28523 23.78527,4.6902 34.39427,4.69419c10.67164,0.00401 25.69926,-9.66503 31.91674,-9.91503c8.43826,-0.33929 19.7548,0.73355 27.31933,-1.31062c7.21049,-1.9485 10.87416,-7.02618 10.87416,-7.02618c0,0 3.28634,2.99115 2.43368,6.70679c-1.01831,4.43748 -6.33368,9.8017 -8.22044,10.88001z" fill="#feecf8" stroke="#000000" stroke-width="4.5"/><path d="M255.12354,264.23381c0,0 -1.89732,5.17215 -7.23611,8.82115c-1.90384,1.30124 -4.90318,1.69072 -7.49228,2.38725c-14.10686,3.79503 -28.97329,-0.14117 -34.33426,1.86186c-8.93088,3.33686 -7.86661,6.31703 -21.84743,7.61932c-6.43934,0.59981 -12.24209,1.31055 -12.24209,1.31055c0,0 -2.18562,-3.48381 -2.78107,-5.24426c-0.46889,-1.38628 -1.00592,-3.2172 -1.00592,-3.2172c0,0 13.40273,-0.53873 18.73427,-0.53873c4.76249,0 18.58055,-8.13765 26.80022,-10.01482c7.80312,-1.78204 17.77088,-0.41974 24.59782,-0.83825c5.27375,-0.3233 4.37184,-0.64996 7.21391,-1.15663c1.68391,-0.30021 7.36182,-5.80604 7.36182,-5.80604z" fill="#db93e6" stroke="none" stroke-width="0"/><path d="M221.79671,238.35885c0,0.29172 3.48163,-0.39877 3.48163,-0.39877c0,0 -1.97294,5.689 -3.63988,6.80511c-2.55154,1.70839 -10.89521,1.39366 -10.89521,1.39366c0,0 4.54798,-1.67928 7.14634,-3.65361c2.72441,-2.07011 3.90712,-4.82483 3.90712,-4.14639z" fill="#000000" stroke="none" stroke-width="0"/><path d="M242.53868,237.19773c0.41496,1.21559 -0.27426,2.54773 -1.53938,2.97543c-1.26513,0.42769 -2.62709,-0.21103 -3.04204,-1.42661c-0.41496,-1.21559 0.27426,-2.54773 1.53938,-2.97543c1.26513,-0.42769 2.62709,0.21103 3.04204,1.42661z" fill="#000000" stroke="none" stroke-width="0"/><path d="M244.36598,243.92095c0,1.25621 -1.0586,2.27458 -2.36445,2.27458c-1.30585,0 -2.36445,-1.01837 -2.36445,-2.27458c0,-1.25621 1.0586,-2.27457 2.36445,-2.27457c1.30585,0 2.36445,1.01836 2.36445,2.27457z" fill="#000000" stroke="none" stroke-width="0"/><path d="M208.9541,248.22975c0,1.013 -0.50364,3.90774 -2.18304,5.19963c-1.19459,0.91894 -4.65027,-0.13342 -4.9571,-0.35941c-1.93466,-1.42492 -3.53245,-3.71057 -5.56,-4.88673c-4.77092,-2.76758 -9.65048,-1.47965 -9.65048,-6.11856c0,-3.03655 4.696,-2.24898 10.79863,-2.24898c6.10262,0 11.552,5.3775 11.552,8.41405z" fill="#feebf7" stroke="#000000" stroke-width="3"/><path d="M207.48012,249.14818c0,1.84034 -0.39328,3.58216 -2.42749,3.58216c-2.03421,0 -6.19478,-4.33197 -6.19478,-4.33197c0,0 3.15596,-4.58191 5.19017,-4.58191c2.03421,0 3.4321,3.49139 3.4321,5.33172z" fill="#dd94e8" stroke="none" stroke-width="0"/><path d="M197.51806,257.27115c0,1.4972 -0.58862,2.1047 -1.05996,2.58024c-0.41951,0.42325 -0.58953,0.79391 -2.58176,0.79391c-2.00587,0 -4.25025,-4.68131 -8.16917,-8.06633c-4.34648,-3.75431 -10.03936,-6.81651 -10.03936,-8.30457c0,-1.64327 1.32592,-2.51585 3.26628,-2.9587c0.7497,-0.1711 6.91579,2.7428 11.78628,6.85218c4.2313,3.57008 6.79768,7.78775 6.79768,9.10327z" fill="#feebf7" stroke="#000000" stroke-width="3"/><path d="M196.26229,257.14618c0,1.38036 -0.48343,2.24944 -2.00922,2.24944c-1.52579,0 -5.2742,-4.99875 -5.2742,-4.99875c0,0 1.37841,-1.91424 2.02854,-2.34556c0.60191,-0.39933 1.73875,-0.15381 1.73875,-0.15381c0,0 3.51613,3.86832 3.51613,5.24868z" fill="#dd94e8" stroke="none" stroke-width="0"/><path d="M188.14836,261.97542c0,1.07477 -2.11852,4.33188 -4.0181,2.99899c-2.03618,-1.42872 -4.25754,-6.07406 -8.06449,-9.22955c-5.2354,-4.33949 -9.96836,-6.67979 -9.80205,-8.11179c0.24532,-2.1122 2.09228,-2.35461 3.13119,-3.28322c1.07428,-0.96021 6.02742,2.37402 10.94377,7.40062c3.697,3.77989 7.80969,7.61827 7.80969,10.22495z" fill="#feebf7" stroke="#000000" stroke-width="3"/><path d="M186.88841,261.47972c0,1.38036 -0.41676,2.24944 -1.73211,2.24944c-1.31535,0 -4.54678,-4.99875 -4.54678,-4.99875c0,0 0.85346,-1.58102 1.41392,-2.01234c0.51889,-0.39933 1.1641,-0.48703 1.1641,-0.48703c0,0 3.70087,3.86832 3.70087,5.24868z" fill="#dd94e8" stroke="none" stroke-width="0"/></g><g stroke-linecap="butt"><path d="M344.51141,276.15506c0,6.90125 -28.68889,21.24365 -44.87008,21.24365c-9.60639,0 -26.14618,2.42813 -36.9933,-4.16472c-2.59878,-1.57953 -6.52796,-9.80222 -8.04941,-11.65006c-2.82491,-3.43092 1.39598,-14.4734 1.83421,-15.73299c1.59718,-4.59075 -1.51526,-8.3782 -2.81356,-9.53053c-1.92766,-1.71093 -9.24424,-0.64137 -12.96556,-0.15334c-1.56768,0.20559 -2.25284,-3.07379 -1.73592,-5.53222c0.60746,-2.88907 2.9134,-6.10631 3.51531,-6.43315c0.4216,-0.22893 2.80219,-2.78455 7.27071,-2.77478c3.68205,0.00806 9.60034,3.97344 12.45736,3.39243c1.53736,-0.31265 -0.30429,-4.82253 2.01336,-6.57629c4.43875,-3.35879 6.56664,-5.39057 10.64351,-6.50668c3.12023,-0.85422 6.69031,-1.17207 6.81935,-0.57771c0.22769,1.04869 1.13056,7.10317 3.77926,12.05406c2.46446,4.6065 6.86424,8.10958 7.23671,8.16361c2.75418,0.39955 1.0596,0.25385 3.83727,-0.1576c2.17976,-0.32288 10.89413,-9.88737 15.0785,-15.68901c3.64124,-5.0486 9.50104,-8.88318 10.95577,-8.93226c2.16154,-0.07293 7.82743,5.55332 6.21257,9.51305c-0.33549,0.82263 -10.74508,9.40329 -10.36646,9.50671c8.51622,2.32617 17.15613,8.6345 22.15353,15.85533c3.55637,5.13866 3.98687,12.19788 3.98687,14.68251z" fill="#ff2d32" stroke="#000000" stroke-width="3.5"/><path d="M340.62133,274.73071c0,5.24539 -33.71275,20.49487 -52.9931,20.49487c-19.28035,0 -29.63596,-9.9975 -29.63596,-9.9975c0,0 16.13219,-20.74473 35.41253,-20.74473c4.63235,0 17.96419,-4.92835 26.61766,-3.55514c4.8832,0.77491 8.93884,9.21236 8.93884,9.21236c0,0 2.31683,-2.18897 3.07486,-4.3198c0.92365,-2.59632 1.81784,-9.88945 1.81784,-9.88945c0,0 2.11564,1.96864 3.32258,2.27389c5.85471,1.48071 3.44473,14.53741 3.44473,16.5255z" fill="#ab164a" stroke="none" stroke-width="0"/><path d="M347.15127,274.48079c0,5.93558 -10.81239,19.24518 -37.29609,24.99374c-16.3304,3.54469 -35.97889,2.56163 -45.62712,-0.4261c-19.28151,-5.97085 -17.2865,-19.48856 -17.2865,-21.5684c0,-2.1552 6.30366,-5.24624 6.30366,-5.24624c0,0 0.69984,10.91468 5.26947,13.20446c10.02025,5.02101 30.03947,4.28872 41.2944,4.28872c10.06328,0 28.60022,-6.25507 36.30049,-15.98895c3.44273,-4.35195 2.10684,-16.74846 2.10684,-16.74846c0,0 0.30666,-0.5435 2.14036,-0.31856c8.32688,1.02148 6.79449,16.07399 6.79449,17.80978z" fill="#f9e8f4" stroke="#000000" stroke-width="4"/><path d="M286.62067,248.69768l-8.87331,1.33289c0,0 0.79654,-4.88527 0.88023,-7.00905c0.12359,-3.13624 1.79851,-10.65172 1.79851,-10.65172c0,0 1.38028,5.13181 2.50182,9.2423c0.9564,3.50521 3.69274,7.08558 3.69274,7.08558z" fill="#ab164a" stroke="none" stroke-width="0"/><path d="M325.79714,230.53707c0,0 2.93218,3.13363 1.42276,5.51472c-1.97386,3.11375 -9.02486,6.84212 -10.96575,7.98078c-0.49825,0.29231 -1.85871,0.51003 -3.11182,1.15471c-2.91001,1.49713 -6.37711,5.49916 -7.98489,5.94249c-3.22454,0.88914 -1.45986,-3.26515 -1.45986,-3.26515c0,0 4.08199,-7.05362 9.67391,-11.67581c5.28157,-4.36566 12.42564,-5.65175 12.42564,-5.65175z" fill="#ab164a" stroke="none" stroke-width="0"/><path d="M273.89669,257.19482l-2.67873,0.83306l-8.37105,-13.4955l0.66969,-3.83205z" fill="#000000" stroke="none" stroke-width="0"/><path d="M344.63976,263.48354c0,0 1.79969,12.11569 -0.79656,15.88786c-1.59244,2.31369 -8.89247,8.67081 -18.49378,13.20631c-8.05119,3.80325 -18.56812,6.52871 -22.65207,6.89682c-24.95587,2.24944 -39.9332,-2.74931 -39.9332,-2.74931c0,0 20.73252,5.84006 51.87755,-3.8391c7.13784,-2.21828 16.20653,-5.86496 22.37773,-11.7421c5.41203,-5.15415 7.62034,-17.66048 7.62034,-17.66048z" fill="#db93e6" stroke="none" stroke-width="0"/><path d="M293.3175,264.19248c0,2.48445 -28.1267,-0.51454 -28.1267,-3.99867c0,-1.25098 4.97105,-5.91216 10.23956,-8.90865c5.19477,-2.95455 10.68804,-4.25362 10.68804,-4.25362l4.28881,5.28695c0,0 2.57669,1.54527 3.91951,1.48954c1.20739,-0.05012 3.10466,-0.80921 3.10466,-0.80921c0,0 2.05864,-3.74668 5.42271,-4.78334c3.0702,-0.9461 8.84683,3.0873 8.18491,4.13187c-1.33854,2.11234 -17.72149,11.58477 -17.72149,11.84514z" fill="#fcecf8" stroke="#000000" stroke-width="2.5"/><path d="M289.29941,254.36245c0,0.88438 2.95796,-0.36437 9.04564,-0.24153c2.4014,0.04845 0.75284,-4.83163 6.133,-4.96823c5.31753,-0.13501 6.00204,6.83029 5.91802,7.20946c-0.48446,2.18656 -16.00948,7.66375 -17.24599,7.66375c-2.49652,0 -12.89141,-13.66211 -12.89141,-13.66211l5.19004,-2.33255c0,0 3.85068,3.38669 3.85068,6.33122z" fill="#db93e6" stroke="none" stroke-width="0"/><path d="M317.17883,257.91499c-3.54275,2.06802 -13.87101,3.35447 -22.76874,3.71069c-8.77401,0.35126 -18.7326,4.60812 -23.6027,4.97682c-2.00163,0.15154 -2.59423,-0.54022 -2.74093,-1.75448c-0.34216,-2.83213 11.71376,-8.6395 25.35145,-11.18642c6.06405,-1.1325 14.63964,-1.04275 19.22603,0.19548c4.62382,1.24835 5.23099,3.65157 4.53488,4.05791z" fill="#feeffb" stroke="#000000" stroke-width="2.5"/><path d="M323.21219,263.57482c-3.76024,2.01797 -15.04609,1.85485 -24.40315,2.39938c-9.93687,0.57828 -20.49188,6.36933 -25.62394,6.66948c-2.1093,0.12336 -2.41548,-2.24244 -2.55175,-3.45864c-0.31783,-2.83665 11.14965,-6.12472 25.54355,-8.47955c6.40031,-1.04708 16.81732,-2.20413 21.6267,-0.90149c4.84863,1.31327 6.14743,3.37431 5.40859,3.77081z" fill="#feeffb" stroke="#000000" stroke-width="2.5"/><path d="M261.84239,252.19651c0,0 -3.35983,2.54372 -6.6551,3.08434c-1.46672,0.24063 -2.92066,-1.25162 -4.05984,-1.25162c-3.69856,0 -6.25278,1.93219 -10.04525,0.49983c-2.2636,-0.85492 0,-5.49816 0,-5.49816c0,0 5.21659,-0.75898 7.68151,-0.6285c2.74972,0.14556 13.07867,3.79411 13.07867,3.79411z" fill="#ab164a" stroke="none" stroke-width="0"/><path d="M303.02792,254.52906l-3.20233,4.50323l-8.34971,1.32816l-4.85521,-3.83206c0,0 5.43895,-2.10713 9.00453,-2.49523c3.57765,-0.38942 7.4027,0.49589 7.4027,0.49589z" fill="#db93e6" stroke="none" stroke-width="0"/><path d="M252.13199,254.52907c0,0.70149 7.06987,-0.08349 5.4624,0.28576c-1.5554,0.35728 -1.72338,3.54629 -2.95108,3.54629c-1.04403,0 -1.51887,-1.48672 -4.05575,-2.15442c-3.52943,-0.92892 -9.17049,-1.20782 -9.17049,-2.01086c0,-1.38025 3.36321,-3.49883 5.85973,-3.49883c2.49652,0 4.8552,2.45181 4.8552,3.83206z" fill="#000000" stroke="none" stroke-width="0"/><path d="M327.13651,236.36846c0,0.84587 -4.36387,5.43105 -5.63057,8.44163c-0.9089,2.16017 0.90097,4.03481 0.90097,4.03481l-10.18719,-3.06493c0,0 0.71677,-1.48177 3.43351,-2.33931c2.16789,-0.68429 3.44709,-1.39545 3.44709,-1.74066c0,-0.90533 -0.06694,-4.00494 1.70999,-5.13204c2.19638,-1.39316 6.32621,-1.31855 6.32621,-0.19951z" fill="#000000" stroke="none" stroke-width="0"/></g><path d="M85,326.50003v-286h347v286z" fill="none" stroke="none" stroke-width="0" stroke-linecap="butt"/><g><path d="M280.07802,216.02553c0,0 -5.97308,3.91667 -30.73444,3.91667c-35.14575,0 -41.11883,-18.58334 -41.11883,-18.58334c0,0 14.06474,-10.43256 26.8936,-17.08343c12.37648,-6.41635 4.83992,-23.87123 16.65384,-23.7499c1.20236,0.01235 37.7002,-14.18812 47.22121,-16.07306c7.7202,-1.52842 0.28291,12.09126 4.76399,18.42103c1.53828,2.1729 -1.20789,8.66483 -0.43452,13.3924c0.82663,5.05321 6.91686,12.78909 6.58504,14.51507c-0.59132,3.07583 -7.04107,5.76705 -12.18708,5.21891c-6.45685,-0.68778 -15.81858,-8.65767 -15.81858,-8.65767c0,0 -1.94928,9.06754 -2.25413,17.1829c-0.24812,6.60523 0.4299,11.50042 0.4299,11.50042z" fill="#feebf7" stroke="#000000" stroke-width="3.5" stroke-linecap="butt"/><path d="M302.6533,168.48383c0,0 -39.90883,9.33171 -51.14954,11.76644c-5.22002,1.13065 -11.97113,2.23356 -11.97113,2.23356c0,0 2.0838,-3.48159 3.00811,-6.11434c1.60106,-4.56037 3.00609,-10.07451 5.63035,-11.62796c3.935,-2.32934 52.71484,-18.5077 52.71484,-18.5077c0,0 0.83962,17.50907 1.68605,18.70638c0.91552,1.29503 0.08133,3.54362 0.08133,3.54362z" fill="#cb8ad4" stroke="none" stroke-width="0" stroke-linecap="butt"/><path d="M284.05372,187.52553l-1.76738,2.125l-7.57448,-13.375z" fill="#000000" stroke="none" stroke-width="0" stroke-linecap="butt"/><path d="M281.05859,186.22426c0,0 -0.91813,3.38831 -1.57151,5.28157c-0.75994,2.20201 -1.20956,8.39471 -1.20956,8.39471c0,0 -2.61601,-10.17445 -3.27683,-14.26836c-0.6363,-3.94201 -1.11978,-10.85664 -1.11978,-10.85664z" fill="#d991e5" stroke="none" stroke-width="0" stroke-linecap="butt"/><path d="M247.62681,207.15053c-6.95047,2.17004 -15.7022,-1.08908 -15.7022,-5.75c0,-4.37262 5.43837,-11.23267 12.34392,-12.85967c3.76983,-0.88819 15.39384,-4.90606 20.65739,-0.28232c2.98136,2.61897 -4.48738,14.89198 -17.29911,18.89198z" fill="none" stroke="#ff0c0d" stroke-width="4.5" stroke-linecap="butt"/><path d="M250.26478,205.65053l-6.02964,-17" fill="none" stroke="#ff0c0d" stroke-width="4.5" stroke-linecap="round"/></g><g stroke-linecap="butt"><path d="M326.8848,152.45829c-5.28644,-0.57413 -6.68096,-0.31282 -10.62872,-2.8808c-4.58881,-2.98498 -5.86919,-3.62271 -5.49374,-6.76751c0.69845,-5.85028 9.97998,-3.80849 21.41126,-2.56699c4.65648,0.50572 19.05132,-0.37399 27.87917,0.63438c4.17361,0.47673 6.48171,2.77315 7.07599,3.25476c1.5776,1.27852 -1.4747,11.29193 -2.24121,13.97903c-0.21769,0.76313 -2.63955,1.54121 -5.97296,1.08929c-8.44738,-1.14524 -23.83301,-5.85195 -32.02979,-6.74216z" fill="#0066cc" stroke="#000000" stroke-width="5"/><path d="M361.54028,157.45636c-1.38019,0.25731 -27.20156,-5.80932 -33.17379,-8.334c-4.60179,-1.94534 2.48774,-3.98078 2.48774,-3.98078c0,0 11.4619,3.27965 17.09565,4.76959c3.35806,0.8881 5.14511,1.248 8.82154,1.85944c2.33275,0.38796 7.37679,1.23563 7.37679,1.23563c0,0 -0.00336,3.96456 -2.60793,4.45012z" fill="#0f1980" stroke="none" stroke-width="0"/><path d="M187.06417,156.23771c0.46311,-3.87898 5.98213,-7.99701 11.21069,-9.71518c4.75813,-1.56358 7.8825,-1.56344 7.8825,-1.56344c0,0 -1.56385,-5.49459 -2.35014,-9.19476c-0.82748,-3.89403 -0.97903,-11.14591 -0.97903,-11.14591c0,0 28.01775,-14.91612 55.38665,-13.08988c25.43162,1.69694 50.59048,22.12632 52.95241,26.25822c0.21125,0.36956 0.3694,6.51238 -1.43531,11.33344c-1.34182,3.58451 -3.70015,5.86416 -8.29257,7.5462c-14.76008,5.4061 -33.30837,11.02727 -50.53139,12.93061c-10.95501,1.21065 -28.87845,2.61776 -42.08446,-0.51876c-12.12243,-2.87915 -22.27244,-5.54279 -21.75935,-12.84054z" fill="#fddfbd" stroke="#000000" stroke-width="3.5"/><path d="M309.67146,138.60526c0,0 1.11323,8.04152 -2.63726,12.36539c-3.59772,4.14774 -12.71465,6.62814 -12.71465,6.62814l-4.46746,-5.87639l-9.66576,9.67628l-13.64658,-23.55614l-20.71784,11.56979l-3.83299,-18.63348l-34.74144,10.75478l-3.28886,-15.54735c0,0 69.51747,-11.47182 76.11602,-10.75519c6.59856,0.71663 29.59679,23.37415 29.59679,23.37415z" fill="#f99587" stroke="none" stroke-width="0"/><path d="M311.136,139.96895c-6.95978,-1.42679 -33.37456,-8.0376 -43.02204,-15.00813c-18.61008,-13.44624 -30.89824,-17.68449 -41.37701,-18.82254c-19.88863,-2.15999 -22.56238,2.28511 -21.49353,-6.66759c0.24882,-2.08413 -2.99723,-40.29297 -1.18714,-41.95034c5.96546,-5.46214 27.88781,-13.19844 62.68807,-9.54663c14.66226,1.5386 35.631,13.64197 37.27398,14.52885c15.24716,8.23043 27.12492,50.14721 26.21068,57.80484c0,0 2.59417,3.53652 0.41131,6.22017c-2.3521,2.89173 -6.81805,3.58441 -10.48863,6.23244c-3.99469,2.88185 -7.177,7.58589 -9.01571,7.20893z" fill="#ff2d32" stroke="#000000" stroke-width="5"/><path d="M250.06931,135.71519c0,0 -1.46687,-4.59654 -1.70311,-6.91493c-0.24687,-2.42279 -0.08421,-7.60129 -0.08421,-7.60129c0,0 -15.06802,-0.80757 -22.10681,0.89327c-7.2076,1.74162 -22.06719,10.1751 -22.06719,10.1751l0.65392,4.87728c0,0 -9.07329,1.75691 -13.9901,3.32294c-5.74615,1.83017 -18.13418,6.98966 -18.13418,6.98966c0,0 2.9598,-9.84791 5.91471,-14.41547c2.92805,-4.52606 12.24307,-15.28954 12.24307,-15.28954c0,0 -3.68355,0.35265 -5.82141,0.12046c-10.96661,-1.19104 -22.84414,3.41452 -22.84414,3.41452c0,0 31.95588,-48.2719 42.92251,-47.08088c1.44295,0.15671 8.20813,2.13076 15.45611,6.30635c7.67312,4.42047 11.39545,10.62716 11.39545,10.62716c0,0 0.341,-2.82495 4.08067,-10.28064c3.10149,-6.18331 19.69597,-13.19987 19.69597,-13.19987c0,0 -3.44832,18.48113 -0.64184,27.02873c2.96629,9.03437 9.34909,27.73657 9.34909,27.73657c0,0 -6.56982,5.42127 -9.12735,7.75439c-1.82784,1.66747 -5.19116,5.53623 -5.19116,5.53623z" fill="#66ffff" stroke="#000000" stroke-width="3.5"/><path d="M239.54714,106.77144c0,0 0.57253,-9.95987 1.79615,-14.99877c1.46925,-6.05046 11.60037,-20.75487 11.60037,-20.75487c0,0 -0.57076,3.08367 -0.51658,6.76251c0.09349,6.34888 0.53494,15.9137 2.2469,20.88526c2.99772,8.70549 8.00411,23.31954 8.00411,23.31954c0,0 -4.07865,2.97847 -6.00594,4.82413c-1.9515,1.86883 -5.83324,6.29832 -5.83324,6.29832c0,0 -0.74239,-3.75512 -0.941,-5.93787c-0.22053,-2.42409 -0.15012,-7.69601 -0.15012,-7.69601c0,0 -17.96444,-0.35713 -26.02116,1.72609c-6.97369,1.80317 -21.55026,10.34697 -21.55026,10.34697l0.7398,4.12091c0,0 -5.5599,0.96549 -8.6963,1.85994c-3.62691,1.03435 -11.80819,3.98768 -11.80819,3.98768l32.77589,-32.02426c0,0 -8.99086,-2.59079 -14.03911,-1.97019c-6.51198,0.80052 -14.65836,2.98026 -14.65836,2.98026c0,0 6.51066,-5.62636 10.86495,-9.1759c4.2676,-3.47886 13.98972,-10.94433 13.98972,-10.94433c0,0 11.48561,6.53935 17.19866,8.86582c5.72011,2.32936 11.00368,7.52477 11.00368,7.52477z" fill="#50a5eb" stroke="none" stroke-width="0"/><path d="M310.86314,141.08419l-2.5918,18.49638c0,0 -9.25837,-9.0453 -13.01641,-12.54808c-2.68691,-2.50444 -7.41684,-6.49739 -7.41684,-6.49739l-7.0384,9.89872c0,0 -5.36473,-10.96788 -7.83653,-15.48088c-2.15949,-3.94284 -6.18422,-10.11832 -6.18422,-10.11832z" fill="#67fcfd" stroke="#000000" stroke-width="3"/><path d="M309.23367,141.88268l-1.72455,14.44481l-19.68659,-17.37538l-6.45412,8.01461l-8.08421,-14.58l-3.00639,-4.73343c0,0 14.05202,4.89482 20.16627,7.11043c6.05788,2.19519 18.78962,7.11898 18.78962,7.11898z" fill="#51a7ee" stroke="none" stroke-width="0"/><path d="M320.74149,131.81767c-3.62446,3.75723 -9.14015,7.70871 -9.14015,7.70871c0,0 -8.9291,-3.59558 -13.71122,-5.2527c-5.20096,-1.80227 -18.43546,-6.20214 -18.43546,-6.20214c0,0 0.86079,-5.23594 2.18593,-12.06856c3.54743,-18.29105 12.58525,-51.63394 22.06487,-50.60443c1.0536,0.11443 1.91628,-0.30115 1.91628,-0.30115c0,0 6.43269,6.32761 12.34704,17.02827c6.73359,12.18286 10.73006,29.41652 10.37524,35.79403c-0.01266,0.22775 0.44751,5.36239 -0.06748,6.31869c0,0 -4.11702,4.03603 -7.53505,7.57927z" fill="#ab164a" stroke="#000000" stroke-width="2.5"/><path d="M331.43664,128.83309c2.14713,3.33167 1.18066,13.35983 -3.57264,23.5708c-3.03759,6.52532 -5.61023,10.49401 -8.58626,10.17079c-5.42506,-0.58918 -9.68923,-7.952 -9.68923,-7.952l1.21356,-13.01932c0,0 17.47533,-17.82186 20.30123,-13.43694z" fill="#fddfbd" stroke="#000000" stroke-width="4.5"/><path d="M323.45501,150.97669l2.07291,2.17635c0,0 -1.10143,2.40782 -1.89745,3.76424c-0.75126,1.28013 -2.16115,4.58 -4.01295,4.02176c-1.85182,-0.55826 -8.6197,-4.15244 -8.27082,-7.0746c0.09206,-0.77101 0.39828,-2.73365 0.48666,-4.33057c0.12431,-2.24618 0.14927,-4.45317 1.15744,-5.23818c0.99164,-0.77213 0.87217,3.4065 0.87217,3.4065l9.1856,-4.54012z" fill="#fa9789" stroke="none" stroke-width="0"/><path d="M313.95885,148.15165c0.0506,-1.19276 8.6256,-6.09096 9.30567,-5.20171c0.77721,1.01623 -2.29239,13.60805 -3.48792,14.23847c0,0 -5.85842,-8.07804 -5.81775,-9.03677z" fill="none" stroke="#000000" stroke-width="2"/></g><path d="M270.43226,135.88845c0,7.70055 0.67993,12.09256 -1.41203,12.45376c-4.46362,0.67537 -9.21377,-6.04897 -9.21377,-11.85376c0,-5.73855 -0.71436,-6.04977 0.53216,-8.38372c0.05415,-0.10139 5.9865,-12.30639 10.40922,-17.17037c5.26416,-5.78937 14.93357,-13.95682 17.12753,-14.36774c11.0082,-2.06174 12.22567,12.41841 12.22567,12.41841c0,0 -6.45699,-11.20772 -11.29568,-9.9561c-9.46862,2.44925 -20.19526,21.43883 -19.94141,21.94831c1.27224,2.55344 1.56833,7.59043 1.56833,12.9112z" fill="#000000" stroke="none" stroke-width="0" stroke-linecap="butt"/><path d="M243.80801,150.54472c-4.53841,1.18348 -8.26894,-6.22703 -8.26894,-15.65079c0,-4.94237 -0.35398,-10.24277 -0.35398,-10.24277c0,0 -5.66379,-6.67182 -11.61219,-9.77958c-3.08377,-1.61113 -6.02903,-3.65565 -7.86334,-3.72046c-5.64561,-0.19944 -11.81354,12.488 -11.81354,12.488c0,0 1.13467,-5.95917 3.38924,-9.98818c1.06119,-1.8964 2.6187,-5.26799 6.12924,-6.01352c4.57149,-0.97085 10.6872,2.66809 15.21168,5.4239c5.66683,3.45161 18.01598,19.03481 18.01598,19.03481c0,0 0.13689,1.39622 0.01436,6.21943c-0.16431,6.46845 -0.54519,12.11459 -2.59852,12.22916z" fill="#000000" stroke="none" stroke-width="0" stroke-linecap="butt"/><path d="M231.04735,156.7812c0,0 12.45874,0.07846 22.08502,-0.11582c5.83122,-0.11769 12.78337,-4.16998 14.07779,-5.17251c2.24773,-1.7409 5.4561,-3.78214 5.4561,-3.78214l3.40893,-2.82113c0,0 1.60843,1.6832 1.81584,2.24146c-0.2565,5.02101 -0.85062,19.66106 -3.94635,24.95574c-0.18882,0.32294 -2.83546,1.45599 -4.547,0.02605c-4.54457,-3.79686 -11.96682,-13.16306 -11.96682,-13.16306c0,0 -4.9344,-0.26608 -14.37156,-0.34898c-4.83481,-0.04246 -12.01195,-1.81962 -12.01195,-1.81962z" fill="#000000" stroke="none" stroke-width="0" stroke-linecap="butt"/><path d="M259.19617,157.23449c0,0 7.00445,-2.42588 8.97228,-3.95082c1.84724,-1.43149 7.6268,-5.94686 7.6268,-5.94686c0,0 0.31626,21.94007 -3.54592,24.04683c-3.38408,1.84596 -13.05316,-14.14915 -13.05316,-14.14915z" fill="#ff6666" stroke="none" stroke-width="0" stroke-linecap="butt"/><g stroke-linecap="butt"><path d="M334.32472,209.99236c0.50757,4.97578 -1.31725,5.91326 -3.58428,10.76656c-3.81912,7.96795 1.65661,12.11967 -9.56656,19.16902c-7.64129,4.79955 -20.70288,-2.59015 -20.70288,-2.59015c0,0 -6.73358,1.88342 -10.16604,1.88342c-5.62795,0 -8.40645,-8.98767 -12.09912,-8.92232c-2.69573,0.04771 -13.03631,2.33407 -13.68772,-8.2865c-2.29244,-12.51539 15.73554,-14.59755 15.73554,-23.54805c0,-12.23588 -0.78107,-39.33115 6.12363,-43.44506c5.77233,-3.43923 9.75925,-2.86121 16.41383,-2.86121c3.9669,0 -2.66503,37.76027 -2.66503,37.76027c0,0 0.59982,-0.37543 1.16712,-1.50236c3.64727,-7.24525 17.14147,-34.36118 20.46056,-33.24723c0.6159,0.2067 14.78628,6.34133 14.87698,9.69952c0.10445,3.86829 -3.37229,9.32116 -6.1895,14.11623c-5.54672,9.44087 -12.52738,17.9281 -12.52738,17.9281c0,0 9.23511,3.06389 13.54612,8.2388c1.05433,1.26562 2.75569,3.46456 2.86474,4.84096z" fill="#fddfbd" stroke="#000000" stroke-width="3"/><path d="M333.70205,211.58072c0,0 -0.28071,2.18104 -1.31066,3.93332c-1.11629,1.89916 -3.01273,3.46961 -3.68416,5.94162c-1.19993,4.41778 0.11299,8.32194 -2.49916,12.46172c-2.54349,4.03097 -6.15901,6.70573 -10.03161,6.70573c-0.05841,0 -4.94557,-0.26296 -5.66396,-0.46441c-3.7736,-1.05817 -10.45953,-4.2234 -10.45953,-4.2234c0,0 -7.20566,3.02967 -11.17611,1.79818c-5.76089,-1.78681 -4.83569,-6.61899 -9.43371,-8.4119c-2.09792,-0.81804 -4.63075,1.53195 -8.84919,-0.10247c-5.50767,-2.13391 -4.95225,-7.61366 -4.95225,-7.61366c0,0 3.12529,2.36276 7.40403,1.88225c3.8078,-0.42762 7.57233,-2.43795 7.9543,-2.41762c1.6194,0.08616 8.43511,7.83028 12.35849,7.84088c5.42773,0.01466 7.66621,-6.87807 7.71487,-7.17996c0.57066,-3.5412 -0.33695,-3.83839 -2.18129,-5.98276c-2.18833,-2.54432 -11.30204,-1.39055 -11.30204,-1.39055c0,0 -0.99989,0.58081 -2.39199,0.92397c-3.18903,0.78611 -8.43627,1.54049 -8.43627,-0.1243c0,-1.95183 1.93288,-5.08747 5.32918,-6.19488c3.23717,-1.05552 7.8693,-0.11131 10.82037,-0.7928c3.353,-0.7743 1.19878,-2.02548 5.52496,-2.02548c2.54767,0 3.7948,2.02976 6.2096,2.57914c4.27687,0.97301 14.19299,-11.11207 14.19299,-11.11207l1.77099,1.61393l-5.09521,10.49733l-2.11668,2.86058c0,0 1.45923,4.80575 3.7143,5.98245c7.60639,3.96905 15.68374,-10.21472 15.68374,-10.21472z" fill="#f89587" stroke="none" stroke-width="0"/><path d="M315.30702,198.03222c0.92507,-1.6726 2.80085,-2.90409 2.80085,-2.90409l2.28905,2.07446c0,0 -1.8818,1.7684 -2.84529,2.92259c-1.25009,1.4975 -4.02187,5.3037 -4.02187,5.3037c0,0 -0.97442,-2.42143 1.77726,-7.39667z" fill="#000000" stroke="none" stroke-width="0"/><path d="M308.23632,226.96033c0.4123,5.53841 -6.04646,9.21286 -9.9376,10.46799c-2.62908,0.84805 -4.15441,0.33349 -4.15441,0.33349c0,0 12.21455,-4.95577 11.65989,-10.37228c-0.94145,-9.19361 -7.80274,-12.38408 -13.18023,-12.90201c-4.26241,-0.41053 -8.23827,1.07076 -8.23827,1.07076c0,0 1.71018,-1.44184 4.75114,-2.04242c2.92554,-0.57778 7.31105,-0.89594 8.20536,-0.48159c2.01257,0.93245 5.01934,2.15029 6.95396,4.99147c1.82963,2.68698 3.78443,5.19971 3.94014,8.9346z" fill="#000000" stroke="none" stroke-width="0"/><path d="M331.12686,220.59389c0,0 -5.26728,9.15622 -11.58834,9.15622c-6.32105,0 -12.16061,-0.72331 -12.16061,-7.43944c0,-6.71613 8.4409,-12.73288 8.4409,-12.73288c0,0 -10.73745,12.85139 -3.46185,16.92693c8.91727,4.99514 19.69968,-10.92586 19.69968,-10.92586z" fill="#000000" stroke="none" stroke-width="0"/></g></g></g></svg>