<svg version="1.1" xmlns="http://www.w3.org/2000/svg" xmlns:xlink="http://www.w3.org/1999/xlink" width="347" height="294.00003" viewBox="0,0,347,294.00003"><g transform="translate(-85,-32.5)"><g data-paper-data="{&quot;isPaintingLayer&quot;:true}" fill-rule="nonzero" stroke-linejoin="miter" stroke-miterlimit="10" stroke-dasharray="" stroke-dashoffset="0" style="mix-blend-mode: normal"><path d="M85,326.50003v-286h347v286z" fill="none" stroke="none" stroke-width="0" stroke-linecap="butt"/><text transform="translate(240.22476,116.84676) scale(0.20352,0.20352)" font-size="40" xml:space="preserve" fill="#000000" fill-rule="nonzero" stroke="none" stroke-width="1" stroke-linecap="butt" stroke-linejoin="miter" stroke-miterlimit="10" stroke-dasharray="" stroke-dashoffset="0" font-family="Sans Serif" font-weight="normal" text-anchor="start" style="mix-blend-mode: normal"><tspan x="0" dy="0">Polargaming64</tspan><tspan x="0" dy="46.150000000000006px"> </tspan><tspan x="0" dy="46.150000000000006px">MeIzAwezomeDede</tspan><tspan x="0" dy="46.150000000000006px"> </tspan><tspan x="0" dy="46.150000000000006px">AwezomeXD</tspan></text><path d="M247.22476,198.60887c0,5.33875 -33.06429,8.66667 -37.66667,8.66667c-4.60237,0 -7.33333,-1.99458 -7.33333,-7.33333c0,-5.33875 2.23096,-13 6.83333,-13c0.78933,0 8.95988,-5.16714 15.14763,-7.38785c7.31946,-2.62687 12.8626,-16.32871 14.40623,-15.60722c4.76031,2.22494 8.61281,31.32168 8.61281,34.66174z" fill="#d38ddd" stroke="#000000" stroke-width="3.5" stroke-linecap="butt"/><path d="M216.55809,202.77554c0,0 -1.89982,12.16667 -10,12.16667c-8.10018,0 -26.33133,0.86748 -26.33133,-5.66789c0,-6.53537 19.06449,-20.99877 27.16467,-20.99877c8.10018,0 9.16667,14.5 9.16667,14.5z" fill="#f89587" stroke="#000000" stroke-width="3.5" stroke-linecap="butt"/><g stroke-linecap="butt"><path d="M318.09326,213.97595c0,6.72542 -26.11131,9.63291 -30.23706,9.63291c-4.12575,0 -2.13438,-9.81409 -2.13438,-16.5395c0,-3.84489 -1.13671,-12.40353 -0.42537,-18.09547c0.53293,-4.26432 4.34996,-7.53169 6.11704,-7.53169c1.58945,0 13.02862,1.56808 17.74497,7.25088c3.95195,4.76177 1.06438,13.2788 4.18786,17.81156c2.82473,4.0992 4.74692,5.50793 4.74692,7.47132z" fill="#aa96c7" stroke="#000000" stroke-width="3.5"/><path d="M309.82254,194.35886l0.29484,9.68333c0,0 -12.70478,-3.14778 -20.27098,-3.29544c-2.21027,-0.04313 0.56284,4.93417 -1.50175,4.08613c-2.96486,-1.21783 -4.44658,-19.66111 -0.62795,-20.58483c0.82011,-0.19838 5.80142,-1.56383 10.97794,0.93895c5.47053,2.64492 11.12792,9.17186 11.12792,9.17186z" fill="#a7649a" stroke="none" stroke-width="0"/><path d="M298.89071,212.40948c2.82383,2.45959 6.98832,6.61499 10.14272,7.29483c3.56249,0.76779 9.67299,-4.60777 9.67299,-4.60777c0,0 6.46941,5.95932 6.7644,12.42496c0.15121,3.31393 -2.87976,5.87812 -5.68237,8.81462c-3.87664,4.06187 -8.04736,8.1511 -9.32329,9.76742c-1.31286,1.66309 -6.09266,6.59239 -9.65441,6.60237c-1.26565,0.00355 -6.05292,-4.10308 -8.84307,-9.56372c-3.05623,-5.98135 -4.40959,-12.83749 -6.15255,-12.16068c-4.39165,1.70532 -12.98614,3.19836 -16.98509,8.26333c-0.39296,0.49771 -0.46981,4.24866 -0.46981,4.24866c0,0 -5.32607,-0.09146 -7.74256,-0.35981c-2.12714,-0.23622 -6.53298,-1.16624 -6.53298,-1.16624c0,0 -2.21135,-4.42458 -5.40876,-7.12547c-2.83197,-2.3922 -8.6093,1.75784 -9.26236,2.23351c-1.18121,0.86034 -4.90642,-6.55875 -7.56507,-3.35998c-2.30865,2.77767 -6.67389,4.62251 -6.67389,4.62251c0,0 -14.00879,-14.04339 -18.63163,-13.59367c-3.87464,0.37693 -6.03396,0.14275 -8.79282,0.57813c-6.43971,1.01626 -9.92723,1.68221 -9.92723,1.68221c0,0 0.50136,-4.40395 1.40214,-6.87344c1.14298,-3.13353 3.55201,-9.26472 4.90383,-10.41456c0.80354,-0.68347 4.53888,1.42056 7.47591,2.38783c3.59028,1.18242 12.50227,4.19175 12.50227,4.19175c0,0 -0.08613,-2.10177 1.02483,-3.05238c0.53404,-0.45696 1.92,0.50547 2.63783,-0.08461c4.89437,-4.02335 13.51047,-10.48793 18.34356,-10.48793c13.80548,0 31.16843,5.46061 40.3145,10.50115c7.83938,4.3204 8.50946,7.08218 8.50946,7.08218c0,0 13.06934,-8.61527 13.95345,-7.8452z" fill="#0044d5" stroke="#000000" stroke-width="3.5"/><path d="M236.74965,232.57968c0,0 -1.67614,1.82066 -4.07218,4.46243c-2.14673,2.3669 -6.25484,-0.40981 -6.80923,-0.48743c-1.168,-0.16352 7.62608,2.34853 6.31822,0.12891c-0.59487,-1.00955 -16.33151,2.88526 -16.8376,1.83944c-1.14962,-2.3757 -6.52412,-23.6993 -5.33364,-30.87453c0.58139,-3.5041 8.05903,3.98117 8.05903,3.98117l3.6853,-1.925c0,0 5.92608,-8.88472 18.78351,-8.70053c13.32503,0.19089 33.72587,9.48049 41.2739,11.22594c2.6756,0.61872 2.60262,9.96369 2.95418,10.38816c0.20006,0.24157 2.30381,7.32816 2.30381,7.32816l-11.34426,2.26021c0,0 2.27531,-7.18861 1.40528,-6.88626c-4.47982,1.55687 -29.98721,0.78695 -29.98721,0.78695l3.3807,6.32655l-11.15693,-2.5083z" fill="#0a1297" stroke="none" stroke-width="0"/><path d="M242.30415,230.62968l-6.01882,-9.4c0,0 4.85556,5.2342 6.55441,6.49096c1.68039,1.2431 5.12347,3.20904 5.12347,3.20904z" fill="#000000" stroke="none" stroke-width="0"/><path d="M322.47567,223.32968l1.76069,5.20247c0,0 -5.09085,6.68823 -10.43457,12.75712c-4.69492,5.33205 -10.22537,9.94041 -12.02961,9.94041c-0.89832,0 -4.70657,-2.60498 -6.9647,-6.32829c-3.67688,-6.06264 -2.3969,-5.42983 -2.3969,-5.42983c0,0 6.64147,2.75812 10.21536,2.75812c2.19763,0 7.0059,-14.27551 7.0059,-14.27551l-12.4719,-13.21959c0,0 -0.6635,-1.96219 2.34614,-0.16898c2.2528,1.34226 5.60261,4.68754 6.93245,5.28831c2.36562,1.06869 5.25063,0.82377 5.25063,0.82377l6.7828,-3.74765l4.00372,6.39965z" fill="#0a1297" stroke="none" stroke-width="0"/></g><g><path d="M288.23848,216.02553c0,0 -5.15145,3.41667 -32.72499,3.41667c-39.13729,0 -45.78875,-18.58334 -45.78875,-18.58334c0,0 13.13167,-10.68256 27.41752,-17.33343c13.78209,-6.41635 7.92001,-23.62123 21.07565,-23.4999c1.33892,0.01235 41.98186,-14.18812 52.58417,-16.07306c8.597,-1.52842 2.25591,1.59126 7.2459,7.92103c0.2895,0.36723 1.67795,5.35782 1.73685,5.94242c0.17127,1.69977 10.19511,4.49982 7.882,9.49639c-1.59854,3.453 -10.8804,7.68147 -10.58794,9.28692c0.92051,5.05321 10.36504,3.95576 9.99552,9.01507c-0.65848,7.40917 -11.95899,10.43371 -17.68944,9.88557c-7.19016,-0.68778 -14.22062,-1.90767 -14.22062,-1.90767c0,0 -6.89848,4.65087 -7.23795,12.76623c-0.2763,6.60523 0.31208,9.6671 0.31208,9.6671z" fill="#ada0fb" stroke="#000000" stroke-width="3.5" stroke-linecap="butt"/><path d="M323.94622,169.81717c0,0 -1.58288,0.19863 -3.64607,1.5294c-1.26383,0.81518 -2.49963,2.67995 -4.27389,3.34916c-8.72949,3.29262 -22.874,11.69613 -36.81717,12.47279c-1.64289,0.09151 -5.0011,-3.729 -6.68607,-3.99267c-5.36827,-0.84005 -9.00313,0.87181 -12.4518,2.18511c-4.4379,1.69001 -5.72609,9.02271 -7.81655,9.35647c-14.57709,2.3274 -9.35331,-12.7336 -9.35331,-12.7336c0,0 2.60162,-2.48159 3.6309,-5.11434c1.7829,-4.56037 4.75328,-11.07451 7.67559,-12.62796c4.38191,-2.32934 58.70172,-18.5077 58.70172,-18.5077c0,0 8.11845,7.75907 9.06101,8.95638c0.35988,0.45714 -1.46612,3.65068 -0.74608,5.48192c0.81493,2.07258 5.47536,2.53505 5.10936,4.27784c-0.22672,6.07958 -2.38764,5.36719 -2.38764,5.36719z" fill="#9665ee" stroke="none" stroke-width="0" stroke-linecap="butt"/><path d="M296.49905,192.02553l-4.30144,3.125c0,0 -3.93927,-1.88128 -4.65098,-4.42477c-0.82882,-2.96197 -2.02432,-8.28357 -2.02432,-8.28357c0,0 3.21736,4.56785 5.18177,6.69552c1.78922,1.93791 5.79497,2.88782 5.79497,2.88782z" fill="#000000" stroke="none" stroke-width="0" stroke-linecap="butt"/><path d="M291.69063,194.34926c0,0 -3.3974,3.26331 -4.12499,5.15657c-0.84625,2.20201 -1.49882,5.89472 -1.49882,5.89472c0,0 -0.1537,-9.17446 -0.88957,-13.26837c-0.70856,-3.94201 -0.76174,-9.85664 -0.76174,-9.85664c0,0 -0.36085,-1.12943 0.34407,0.65217c0.39076,0.9876 0.95203,1.58786 1.54871,3.07536c1.07191,2.67223 2.25807,6.35175 2.7752,7.09874c0.76657,1.10732 2.60714,1.24745 2.60714,1.24745z" fill="#9665ee" stroke="none" stroke-width="0" stroke-linecap="butt"/><path d="M261.60175,208.3172c-7.73984,2.17004 -21.15219,-6.42242 -21.15219,-11.08334c0,-4.37262 6.05601,-8.23267 13.74584,-9.85967c4.19797,-0.88819 17.14213,-6.90606 23.00347,-2.28232c3.31995,2.61897 1.00299,18.89198 -13.26379,22.89198z" fill="none" stroke="#ac1e52" stroke-width="4.5" stroke-linecap="butt"/><path d="M263.20598,205.48387l-7.04777,-17" fill="none" stroke="#ac1e52" stroke-width="4.5" stroke-linecap="round"/></g><path d="M366.98946,154.20454c-4.67635,-2.35489 -10.65265,-8.88864 -13.3815,-12.71822c-3.17196,-4.45142 -4.12665,-5.50456 -2.65785,-8.42127c2.73238,-5.42598 13.05714,-1.07559 23.16917,4.01659c6.06651,3.05495 11.53762,6.29135 12.71164,8.37378c1.00049,1.77462 -1.09215,6.16525 -2.7587,8.50577c-1.67271,2.34916 -2.53838,4.5097 -6.06409,4.67242c0,0 -0.9066,0.6631 -11.01865,-4.42908z" fill="#0066cc" stroke="#000000" stroke-width="5" stroke-linecap="butt"/><path d="M381.82263,154.02326c0,0 -1.82901,3.24554 -4.40719,2.82921c-1.3662,-0.22061 -9.60089,-3.54888 -14.21448,-8.02549c-3.55491,-3.44937 -7.78626,-7.05962 -9.38997,-9.94764c-1.0388,-1.8707 -0.10861,-3.86855 -0.10861,-3.86855c0,0 9.41306,7.07573 14.08331,10.43543c4.55011,3.27325 14.03696,8.57701 14.03696,8.57701z" fill="#0a1296" stroke="none" stroke-width="0" stroke-linecap="butt"/><path d="M212.8474,177.01565c0.19987,-2.14734 3.81058,-9.57119 9.37009,-15.81134c4.82434,-5.41497 10.20179,-7.2512 10.20179,-7.2512c0,0 -3.72345,-10.10404 -4.57559,-13.90503c-0.89677,-4.00012 0.5637,-12.85897 0.5637,-12.85897c0,0 27.24885,-15.95387 54.21466,-14.62407c25.05707,1.23567 50.24339,21.80025 52.65487,26.0147c0.21568,0.37694 0.50166,6.71037 -1.17159,11.72005c-1.24407,3.72476 -1.3995,0.68174 -5.88205,2.50981c1.09471,2.11932 -10.1353,11.83472 -17.65149,15.6198c-11.10747,5.59361 -25.27398,9.98597 -31.48733,10.83577c-10.75246,1.47061 -30.59518,3.2962 -43.65456,0.32808c-11.98784,-2.72459 -22.58251,-2.57759 -22.58251,-2.57759z" fill="#aa96c7" stroke="#000000" stroke-width="3.5" stroke-linecap="butt"/><path d="M333.82268,139.45435c0,0 -0.0674,4.93935 -3.66557,9.47555c-3.45161,4.35143 -11.03537,12.09464 -11.03537,12.09464l-4.85341,-9.97134l-11.971,9.84389c0,0 -2.46756,-6.95912 -4.4111,-11.42014c-2.27022,-5.21086 -8.38307,-17.9464 -8.38307,-17.9464l-20.76004,22.62524l-10.3431,-22.07129l-26.78574,12.45374l-6.06565,-15.96099c0,0 72.15172,-13.24102 78.65895,-12.63535c6.50725,0.60566 29.6151,23.51244 29.6151,23.51244z" fill="#a7649a" stroke="none" stroke-width="0" stroke-linecap="butt"/><path d="M335.29252,140.83142c-6.8777,-1.33093 -33.00636,-7.61555 -42.64605,-14.61071c-18.59503,-13.49373 -30.77479,-17.61694 -41.10853,-18.57876c-19.61339,-1.82552 -26.40885,2.85224 -25.54727,-6.40453c0.20057,-2.15492 -15.29986,-27.01279 -13.55417,-28.75908c5.75323,-5.75523 38.50497,-19.21964 72.82091,-16.15709c14.45821,1.29033 33.08619,12.8623 34.72148,13.74391c15.17571,8.18144 34.25106,45.48266 33.51412,53.40039c0,0 2.79435,0.2931 0.70368,3.1056c-2.25275,3.03057 -6.6319,3.83552 -10.18702,6.64139c-3.86903,3.05365 -6.90013,7.97049 -8.71716,7.61888z" fill="#ac1e52" stroke="#000000" stroke-width="5" stroke-linecap="butt"/><path d="M270.6529,131.58082c-0.29432,-2.49423 -0.23904,-7.58945 -0.23904,-7.58945c0,0 -11.10859,2.70072 -17.99763,4.59771c-7.05427,1.94248 -26.23345,7.79748 -26.23345,7.79748l1.33015,5.67945c0,0 -5.80613,1.00114 -10.61034,2.71612c-5.61454,2.00423 -19.35975,12.9106 -19.35975,12.9106c0,0 2.60633,-11.82925 4.42822,-17.14552c1.6439,-4.79691 6.02415,-13.35447 6.02415,-13.35447c0,0 1.03978,0.27177 -1.06849,0.07554c-10.81486,-1.00661 -21.27745,2.30816 -21.27745,2.30816c0,0 7.92835,-13.7315 16.72657,-25.88991c7.7072,-10.65071 16.31454,-19.93919 17.73283,-19.80718c0.60554,0.05636 7.65259,0.82985 17.01616,3.75457c8.39469,2.62208 16.24001,8.76447 16.24001,8.76447c0,0 0.06448,-6.77326 1.34937,-12.31261c0.96129,-4.14428 2.8992,-6.71737 4.4061,-10.04122c0.93985,-2.07308 1.14585,3.57523 1.14585,3.57523l9.16159,-12.41582c0,0 0.13127,9.19513 1.20391,14.60326c1.66778,8.40872 4.66634,14.74986 5.69567,17.8143c3.11015,9.25935 12.61987,27.05817 12.61987,27.05817c0,0 -6.3487,5.72531 -8.81541,8.18379c-1.76293,1.75708 -7.98984,5.81597 -7.98984,5.81597c0,0 -1.2074,-4.71186 -1.48905,-7.09863z" fill="#44acff" stroke="#000000" stroke-width="3.5" stroke-linecap="butt"/><path d="M265.842,107.03555l1.97419,-32.51964c0,0 5.72253,18.1709 8.54949,26.21622c3.1341,8.91945 10.89009,23.52881 10.89009,23.52881c0,0 -3.94959,3.15501 -5.80658,5.0979c-1.88033,1.96729 -7.93873,6.6151 -7.93873,6.6151c0,0 -1.14344,-4.19188 -1.38516,-6.43949c-0.26842,-2.49611 0.02229,-7.2691 0.02229,-7.2691c0,0 -14.77678,3.1509 -22.65921,5.46294c-6.82283,2.00122 -24.4974,7.33494 -24.4974,7.33494l0.75807,5.52168c0,0 -2.44965,0.1085 -5.51643,1.09467c-3.54641,1.1404 -12.93667,6.99809 -12.93667,6.99809c0,0 5.15073,-9.72998 8.27705,-14.67558c3.19575,-5.05543 10.69374,-15.33474 10.69374,-15.33474l-18.15389,-1.35108l29.02022,-21.32796z" fill="#356fee" stroke="none" stroke-width="0" stroke-linecap="butt"/><path d="M335.04774,141.98736l-2.15738,19.13238c0,0 -9.30089,-9.14324 -13.0726,-12.68045c-2.69669,-2.52907 -7.43502,-6.55222 -7.43502,-6.55222l-6.71467,10.35349c0,0 -5.51092,-11.20532 -8.0386,-15.81064c-2.20832,-4.02352 -6.29915,-10.31234 -6.29915,-10.31234z" fill="#44acff" stroke="#000000" stroke-width="3" stroke-linecap="butt"/><path d="M333.46151,142.84403l-1.39013,14.93545l-19.73757,-17.52503l-6.17982,8.39811l0.60158,-12.75321l-8.86473,-2.12313l-3.05832,-4.82191c0,0 13.92905,4.76477 19.99163,6.92653c6.00668,2.14181 18.63739,6.9632 18.63739,6.9632z" fill="#356fee" stroke="none" stroke-width="0" stroke-linecap="butt"/><path d="M344.56992,132.22851c-3.48619,3.94914 -8.82899,8.13693 -8.82899,8.13693c0,0 -8.86127,-3.52826 -13.60135,-5.14085c-5.15525,-1.75385 -21.60282,-7.02461 -21.60282,-7.02461c0,0 -0.59757,-6.41855 0.56116,-13.49356c1.51367,-9.24219 1.33952,-25.97269 6.22596,-33.85555c5.12727,-8.27138 10.62091,-10.14148 10.62091,-10.14148c0,0 13.46314,7.39702 19.50913,18.31554c6.88347,12.4309 15.03455,29.40906 14.82082,35.99496c-0.00762,0.2352 -2.13313,0.85605 -2.61951,1.85295c0,0 -1.79771,1.63147 -5.08535,5.35569z" fill="#730e67" stroke="#000000" stroke-width="2.5" stroke-linecap="butt"/><path d="M356.93452,125.86691c2.18317,3.39332 0.51081,16.1846 -3.949,26.81395c-2.85005,6.79268 -5.29693,10.93864 -8.23177,10.66549c-5.34999,-0.49795 -9.70159,-8.00673 -9.70159,-8.00673l0.91763,-13.45463c0,0 18.09139,-20.48411 20.96473,-16.01807z" fill="#aa96c7" stroke="#000000" stroke-width="4.5" stroke-linecap="butt"/><path d="M345.66182,150.90224l4.8402,2.39645c0,0 -1.03255,2.50609 -1.78692,3.92142c-0.71195,1.33572 -2.02905,4.76823 -3.86281,4.22987c-1.83379,-0.53838 -8.56867,-4.10896 -8.28746,-7.13037c0.0742,-0.7972 0.33383,-2.82796 0.38689,-4.47704c0.07463,-2.31955 0.05234,-4.59669 1.02758,-5.42686c0.95926,-0.81657 0.28912,1.03275 0.28912,1.03275l9.19676,-4.8508z" fill="#a7649a" stroke="none" stroke-width="0" stroke-linecap="butt"/><path d="M343.50451,155.21628c-0.65296,0.37876 -5.93531,-8.21432 -5.91564,-9.20412c0.02446,-1.23141 8.35706,-6.45773 9.04504,-5.5542c0.78622,1.03256 -1.96656,14.08377 -3.1294,14.75829z" fill="none" stroke="#000000" stroke-width="2" stroke-linecap="butt"/><g stroke-linecap="butt"><path d="M257.02553,258.35803c0,4.7753 -0.78798,7.24099 -6.52502,11.34114c-6.52663,4.66447 -19.25589,-0.36578 -30.58799,3.72361c-41.88251,15.114 -63.82367,2.92667 -63.82367,2.92667c0,0 -1.61719,-3.63572 -1.61719,-10.80607c0,-2.87346 6.93418,-8.92441 15.45591,-14.37277c6.28924,-4.02102 12.77186,-7.60228 21.4328,-9.91107c1.77892,-0.47421 2.42908,-1.43643 2.42908,-1.43643c0,0 -7.98784,-7.22882 -3.25639,-10.01447c1.02392,-0.60283 15.05252,-5.82877 22.47766,-3.04861c6.62782,2.48163 13.43289,13.61448 13.43289,13.61448c0,0 4.80807,-3.93379 6.89414,-6.06565c1.73373,-1.77179 9.43094,-3.39675 9.43094,-3.39675c0,0 5.89241,0.5694 10.45926,7.49125c4.88533,7.40456 3.7976,18.78036 3.7976,19.95469z" fill="#ac1e52" stroke="#000000" stroke-width="3.5"/><path d="M255.7026,259.66444c0,5.61433 -14.49292,15.79959 -36.61469,15.79959c-22.12177,0 -42.02088,6.96158 -42.02088,1.34725c0,-3.27031 -2.34489,-13.93994 7.45616,-19.82468c3.01525,-1.81041 9.45422,-5.79278 16.38342,-9.74911c9.2146,-5.2612 20.63866,-11.70111 20.63866,-11.70111l3.80786,4.73662l1.39317,2.4946c0,0 -0.70188,1.34641 2.09264,0.79335c3.41672,-0.67619 14.5253,-10.45123 18.12006,-7.73082c0.30614,0.23168 2.46846,2.00974 4.34133,6.41498c2.72457,6.40854 4.40225,16.92429 4.40225,17.41934z" fill="#730e67" stroke="none" stroke-width="0"/><path d="M251.77081,273.74938c-2.86125,1.63797 -8.16291,3.44793 -17.93699,3.95287c-5.23215,0.2703 -11.9212,-0.88194 -19.812,-0.2929c-6.88826,0.5142 -16.34663,8.64412 -44.89461,9.2206c-20.5693,0.41537 -23.11282,-8.74946 -23.74877,-11.1457c-1.07054,-4.03372 6.72625,-9.48473 6.72625,-9.48473c0,0 0.92983,6.71668 3.10136,7.802c4.48,2.23911 22.59986,2.59555 32.97749,2.59946c10.4389,0.00393 25.80543,-11.46999 31.88732,-11.71494c8.25423,-0.33244 19.32396,0.71875 26.72351,-1.28417c7.05324,-1.90918 10.637,-6.88439 10.637,-6.88439c0,0 3.21467,2.93079 2.38061,6.57144c-0.9961,4.34793 -6.19555,9.6039 -8.04115,10.66045z" fill="#ada0fb" stroke="#000000" stroke-width="4.5"/><path d="M258.92036,262.97134c0,0 -1.85594,5.06777 -7.07829,8.64314c-1.86232,1.27498 -4.79625,1.6566 -7.32887,2.33907c-13.7992,3.71845 -28.3414,-0.13832 -33.58545,1.82429c-8.73611,3.26952 -7.69504,6.18955 -21.37094,7.46556c-6.2989,0.58771 -14.92393,0.79419 -14.92393,0.79419c0,0 -1.40075,-2.9236 -1.98321,-4.64852c-0.45866,-1.3583 0.84083,-0.64219 0.84083,-0.64219c0,0 14.16392,-2.03795 19.37917,-2.03795c4.65863,0 17.50864,-8.97343 25.54905,-10.81272c7.63294,-1.74608 17.38331,-0.41127 24.06135,-0.82133c5.15873,-0.31678 4.2765,-0.63684 7.05658,-1.13329c1.64719,-0.29415 7.20126,-5.68887 7.20126,-5.68887z" fill="#9665ee" stroke="none" stroke-width="0"/><path d="M226.32038,237.61854c0,0.28583 3.40569,-0.39072 3.40569,-0.39072c0,0 -1.42773,9.73843 -3.05833,10.83201c-1.13474,0.76103 -9.31944,0.49654 -11.6102,-0.28547c-2.74785,-0.93805 0.45043,-2.51323 0.45043,-2.51323c0,0 6.95968,2.7638 9.50138,0.82931c2.66499,-2.02833 1.31102,-9.13665 1.31102,-8.4719z" fill="#000000" stroke="none" stroke-width="0"/><path d="M246.60998,236.48085c0.40591,1.19106 -0.26827,2.49632 -1.5058,2.91538c-1.23754,0.41906 -2.56979,-0.20677 -2.9757,-1.39782c-0.40591,-1.19106 0.26827,-2.49632 1.5058,-2.91538c1.23754,-0.41906 2.56979,0.20677 2.9757,1.39782z" fill="#000000" stroke="none" stroke-width="0"/><path d="M248.39743,243.06839c0,1.23086 -1.03551,2.22868 -2.31288,2.22868c-1.27736,0 -2.31288,-0.99782 -2.31288,-2.22868c0,-1.23086 1.03551,-2.22867 2.31288,-2.22867c1.27736,0 2.31288,0.99781 2.31288,2.22867z" fill="#000000" stroke="none" stroke-width="0"/><path d="M213.75786,247.04529c0,0.99256 -0.49265,3.82888 -2.13542,5.0947c-1.16854,0.9004 -5.28606,0.84909 -5.58619,0.62766c-1.89246,-1.39616 -2.7182,-4.61551 -4.70153,-5.76793c-4.66687,-2.71173 -7.96559,-2.18466 -7.96559,-6.72995c0,-2.97527 3.36491,-1.71369 9.33443,-1.71369c5.96952,0 11.05432,5.51394 11.05432,8.48921z" fill="#ada0fb" stroke="#000000" stroke-width="3"/><path d="M212.31603,248.19014c0,1.8032 -0.38471,3.50987 -2.37455,3.50987c-0.68586,0 -2.35603,0.2306 -3.28428,-0.43032c-1.76484,-1.25656 -2.77539,-3.81424 -2.77539,-3.81424c0,0 3.08713,-4.48945 5.07697,-4.48945c1.98984,0 3.35724,3.42093 3.35724,5.22412z" fill="#9665ee" stroke="none" stroke-width="0"/><path d="M201.79655,257.61891c0,1.46699 -0.80545,3.77691 -1.26651,4.24285c-0.41036,0.41471 -1.58103,-0.9368 -3.5298,-0.9368c-1.96212,0 -2.14884,-6.05657 -5.98229,-9.37328c-4.25168,-3.67855 -9.8204,-6.67895 -9.8204,-8.13698c0,-1.61011 4.0001,-2.46508 5.89814,-2.89899c0.73334,-0.16765 6.27348,2.68745 11.03776,6.7139c3.85962,3.2619 3.72814,5.21177 3.8962,6.67068c0.01217,0.10561 -0.23309,3.71861 -0.23309,3.71861z" fill="#ada0fb" stroke="#000000" stroke-width="3"/><path d="M200.36041,260.68033c-0.68694,0 -1.88114,0.23912 -2.97593,-0.82488c-1.28386,-1.24776 -2.42899,-6.7675 -2.42899,-6.7675c0,0 1.59408,-2.12056 2.23003,-2.54318c0.58878,-0.39127 1.94656,-0.39566 1.94656,-0.39566c0,0 0.73219,1.37225 1.17882,3.53048c0.61549,2.97427 0.91441,7.00074 0.0495,7.00074z" fill="#9665ee" stroke="none" stroke-width="0"/><path d="M193.86523,263.69798c0,1.05308 -3.07667,2.77473 -4.93483,1.46874c-1.99177,-1.39989 -1.65379,-7.42121 -5.37772,-10.51302c-5.12122,-4.25192 -9.75096,-6.54499 -9.58827,-7.94809c0.23997,-2.06958 3.27533,-2.30709 4.29159,-3.21696c1.05085,-0.94083 4.66729,2.32611 9.47641,7.25127c1.93996,1.98676 3.81449,4.59106 4.90275,7.48703c0.94041,2.50254 1.23008,5.47103 1.23008,5.47103z" fill="#ada0fb" stroke="#000000" stroke-width="3"/><path d="M192.8892,262.72237c0,1.3525 -1.66311,1.46918 -2.94978,1.46918c-1.28666,0 -3.19217,-6.85751 -3.19217,-6.85751c0,0 0.83484,-1.54911 1.38308,-1.97173c0.50757,-0.39127 1.13871,-0.4772 1.13871,-0.4772c0,0 3.62015,6.48476 3.62015,7.83726z" fill="#9665ee" stroke="none" stroke-width="0"/></g><g stroke-linecap="butt"><path d="M345.70233,276.16229c0,6.76159 -22.28897,21.30363 -39.32378,21.30363c-10.11318,0 -27.52549,2.37899 -38.94484,-4.08044c-2.73589,-1.54757 -6.87234,-9.60386 -8.47406,-11.4143c-2.97394,-3.36149 1.46962,-14.18051 1.93097,-15.41461c1.68144,-4.49785 -1.5952,-8.20865 -2.96198,-9.33767c-2.02935,-1.67631 -9.73191,-0.62839 -13.64955,-0.15024c-1.65038,0.20143 -2.37168,-3.01159 -1.8275,-5.42027c0.6395,-2.83061 3.06709,-5.98274 3.70076,-6.30297c0.44384,-0.2243 2.95002,-2.7282 7.65425,-2.71863c3.87628,0.0079 10.10681,3.89303 13.11454,3.32378c1.61846,-0.30632 -0.32034,-4.72494 2.11956,-6.44321c4.67291,-3.29082 6.91306,-5.28148 11.205,-6.37501c3.28483,-0.83693 7.04324,-1.14835 7.1791,-0.56602c0.23969,1.02747 1.1902,6.95943 3.97863,11.81013c2.59447,4.51328 7.22636,7.94547 7.61848,7.99841c2.89948,0.39146 1.1155,0.24871 4.03969,-0.15441c2.29476,-0.31635 11.46885,-9.68728 15.87395,-15.37152c3.83332,-4.94643 10.00226,-8.70342 11.53373,-8.7515c2.27557,-0.07145 8.24035,5.44094 6.5403,9.32054c-0.3532,0.80598 -11.31193,9.213 -10.91333,9.31433c8.96548,2.2791 11.87886,5.0306 17.1399,12.1053c3.74399,5.03467 0.73509,5.82752 0.73509,8.26187z" fill="#ac1e52" stroke="#000000" stroke-width="3.5"/><path d="M345.06914,269.86795c0,5.13924 -31.03997,25.46882 -51.33743,25.46882c-20.29746,0 -31.19937,-9.79519 -31.19937,-9.79519c0,0 16.98323,-20.32493 37.28069,-20.32493c4.87673,0 18.91189,-4.82862 28.02184,-3.4832c5.14081,0.75923 9.4104,9.02593 9.4104,9.02593c0,0 2.43905,-2.14467 3.23708,-4.23238c0.97238,-2.54378 1.91374,-9.68932 1.91374,-9.68932c0,0 2.22725,1.9288 3.49786,2.22787c6.16357,1.45075 -0.82481,3.71077 -0.82481,5.65862z" fill="#730e67" stroke="none" stroke-width="0"/><path d="M348.72876,270.84779c0,5.81546 -9.40445,20.81525 -37.28527,26.44748c-17.1919,3.47296 -32.18919,4.71426 -42.3464,1.78699c-20.29868,-5.85002 -18.19843,-19.09418 -18.19843,-21.13193c0,-2.11159 6.6362,-5.14007 6.6362,-5.14007c0,0 0.73676,10.6938 5.54745,12.93725c10.54886,4.9194 30.38771,2.97723 42.2364,2.97723c10.59416,0 24.42126,-7.59813 32.52774,-17.13503c3.62435,-4.26388 -0.00764,-16.89941 -0.00764,-16.89941c0,0 1.80659,-0.04262 3.73702,0.17777c8.76616,1.00081 7.15292,15.97974 7.15292,15.97974z" fill="#ada0fb" stroke="#000000" stroke-width="4"/><path d="M292.671,249.75043l-9.3414,1.30592c0,0 0.83855,-4.78641 0.92666,-6.86721c0.13011,-3.07277 1.8934,-10.43617 1.8934,-10.43617c0,0 1.4531,5.02796 2.63379,9.05527c1.00685,3.43428 3.88755,6.94219 3.88755,6.94219z" fill="#730e67" stroke="none" stroke-width="0"/><path d="M333.91419,231.95733c0,0 3.08687,3.07022 1.49783,5.40312c-2.07799,3.05074 -9.50095,6.70366 -11.54424,7.81928c-0.52453,0.28639 -1.95676,0.49971 -3.27599,1.13134c-3.06352,1.46683 -6.71354,5.38788 -8.40613,5.82223c-3.39463,0.87115 -1.53688,-3.19907 -1.53688,-3.19907c0,0 4.29734,-6.91088 10.18424,-11.43953c5.56019,-4.27731 13.08115,-5.53738 13.08115,-5.53738z" fill="#730e67" stroke="none" stroke-width="0"/><path d="M279.27578,258.07562l-2.82004,0.8162l-8.81266,-13.2224l0.70502,-3.7545z" fill="#000000" stroke="none" stroke-width="0"/><path d="M343.61181,257.86862c0,0 2.48281,-0.34582 3.32155,6.22278c0.59279,4.64241 -0.99588,12.61941 -3.08079,15.45614c-3.36274,4.57535 -13.30852,11.24728 -15.15757,12.19256c-5.33941,2.72964 -12.26835,3.75272 -16.40104,4.4557c-2.85968,0.48644 -13.32188,2.30683 -16.42406,2.5522c-16.98535,1.34345 -28.31397,-1.94194 -28.31397,-1.94194c0,0 20.83707,4.25223 53.62512,-5.23106c4.51153,-1.30487 17.56584,-9.08002 21.94239,-19.78412c2.91302,-7.12463 0.48837,-13.92227 0.48837,-13.92227z" fill="#9665ee" stroke="none" stroke-width="0"/><path d="M299.72111,264.93167c0,2.43417 -29.61049,-0.50413 -29.61049,-3.91775c0,-1.22566 5.23328,-5.79252 10.77974,-8.72837c5.46882,-2.89476 11.25188,-4.16754 11.25188,-4.16754l4.51506,5.17996c0,0 2.71262,1.514 4.12628,1.4594c1.27109,-0.04911 3.26843,-0.79283 3.26843,-0.79283c0,0 2.16723,-3.67086 5.70878,-4.68654c3.23217,-0.92695 9.31354,3.02482 8.61669,4.04826c-1.40916,2.06959 -18.65638,11.35033 -18.65638,11.60544z" fill="#ada0fb" stroke="#000000" stroke-width="2.5"/><path d="M295.49104,255.30057c0,0.86648 3.114,-0.357 9.52283,-0.23664c2.52809,0.04747 0.79255,-4.73385 6.45654,-4.86769c5.59805,-0.13228 6.31866,6.69207 6.23023,7.06357c-0.51001,2.14231 -16.85404,7.50866 -18.15579,7.50866c-2.62823,0 -13.57149,-13.38564 -13.57149,-13.38564l5.46383,-2.28535c0,0 4.05384,3.31816 4.05384,6.2031z" fill="#9665ee" stroke="none" stroke-width="0"/><path d="M323.35745,258.78122c-3.72965,2.02617 -14.60275,3.28659 -23.96988,3.6356c-9.23687,0.34415 -19.72082,4.51487 -24.84782,4.87611c-2.10722,0.14847 -2.73109,-0.52929 -2.88552,-1.71898c-0.36022,-2.77482 12.33172,-8.46467 26.68885,-10.96005c6.38396,-1.10958 15.41193,-1.02165 20.24028,0.19152c4.86775,1.22309 5.50694,3.57767 4.77412,3.97579z" fill="#ada0fb" stroke="#000000" stroke-width="2.5"/><path d="M327.39743,264.57145c-3.95861,1.97713 -15.5065,1.81731 -25.35718,2.35082c-10.46108,0.56658 -21.57291,6.24044 -26.97571,6.53451c-2.22058,0.12086 -2.5429,-2.19706 -2.68638,-3.38865c-0.3346,-2.77925 11.73783,-6.00078 26.89107,-8.30795c6.73795,-1.02589 17.7045,-2.15953 22.76761,-0.88325c5.10442,1.28669 6.47173,3.30603 5.69391,3.6945z" fill="#ada0fb" stroke="#000000" stroke-width="2.5"/><path d="M266.58556,253.17846c0,0 -3.53706,2.49224 -7.00618,3.02192c-1.54409,0.23576 -3.07474,-1.22629 -4.27401,-1.22629c-3.89367,0 -6.58264,1.89309 -10.57518,0.48972c-2.38301,-0.83762 0,-5.3869 0,-5.3869c0,0 5.4918,-0.74362 8.08674,-0.61578c2.89478,0.14261 13.76863,3.71733 13.76863,3.71733z" fill="#730e67" stroke="none" stroke-width="0"/><path d="M309.20191,255.46381l-3.37126,4.4121l-8.7902,1.30128l-5.11135,-3.75451c0,0 5.72587,-2.06449 9.47955,-2.44474c3.76639,-0.38154 7.79322,0.48585 7.79322,0.48585z" fill="#9665ee" stroke="none" stroke-width="0"/><path d="M256.3629,255.46382c0,0.68729 7.44285,-0.0818 5.75057,0.27998c-1.63746,0.35005 -1.81429,3.47453 -3.10678,3.47453c-1.0991,0 -1.599,-1.45663 -4.26971,-2.11082c-3.71562,-0.91012 -9.65427,-1.18338 -9.65427,-1.97017c0,-1.35232 3.54062,-3.42803 6.16885,-3.42803c2.62823,0 5.11134,2.40219 5.11134,3.75451z" fill="#000000" stroke="none" stroke-width="0"/><path d="M335.32421,237.67071c0,0.82875 -4.59408,5.32114 -5.92761,8.2708c-0.95685,2.11646 0.9485,3.95316 0.9485,3.95316l-10.72461,-3.00291c0,0 0.75458,-1.45178 3.61464,-2.29197c2.28225,-0.67044 3.62894,-1.36721 3.62894,-1.70544c0,-0.88701 -0.07048,-3.92389 1.8002,-5.02819c2.31225,-1.36497 6.65994,-1.29187 6.65994,-0.19547z" fill="#000000" stroke="none" stroke-width="0"/></g><g><path d="M198.95771,232.02747c0,0 -7.51385,6.70405 -12.0348,5.88661c-0.46712,-0.08446 -5.38113,-6.68723 -0.91679,-15.9463c0.96723,-2.00604 1.46084,-7.17642 4.85615,-7.99281c6.64226,-1.59705 7.62955,-5.71265 7.70251,-6.05305c0.96451,-4.50017 1.17746,-12.05753 4.23756,-11.40167c1.56963,0.33641 5.16897,5.43902 9.15345,12.55874c1.10782,1.97952 2.33631,4.78948 3.26939,6.69281c0.27443,0.55983 1.37474,1.96048 1.62298,2.47865c1.79036,3.73684 1.18905,5.71045 0.89728,7.07178c-0.57507,2.68314 -6.5005,4.60105 -11.69131,4.2531c-1.82873,-0.12257 -5.03224,-0.17169 -5.03224,-0.17169z" fill="#a7649a" stroke="#000000" stroke-width="3" stroke-linecap="butt"/><path d="M154.24098,219.41938c-6.63431,-2.21176 -8.45176,-9.41744 -6.26909,-15.96445c2.18265,-6.547 41.68057,-22.81036 48.31489,-20.5986c6.6343,2.21175 10.13753,13.84321 7.95488,20.39021c-2.18265,6.547 -43.36637,18.38457 -50.00069,16.17283z" fill="#303f97" stroke="#000000" stroke-width="2.5" stroke-linecap="butt"/><path d="M150.83773,208.59597c-0.73613,0.00216 -1.33552,-0.89124 -1.33871,-1.99545c-0.00323,-1.1042 0.59091,-2.00108 1.32705,-2.00321c0.73613,-0.00216 1.33552,0.89124 1.33871,1.99544c0.00323,1.1042 -0.59092,2.00108 -1.32705,2.00321z" fill="#303f97" stroke="none" stroke-width="0" stroke-linecap="butt"/><path d="M170.3623,226.63629c-4.67318,0.07248 -10.14689,-6.61354 -13.50883,-9.11713c-4.72386,-3.51776 -3.84774,-22.92663 -2.68422,-24.09315c2.48267,-2.48908 9.91295,-4.29218 9.91295,-4.29218c0,0 5.45343,-3.4152 6.81392,-4.44848c0.72156,-0.54801 2.70618,-5.01815 5.99619,-6.47021c3.28999,-1.45206 5.56128,2.23199 7.96207,0.30965c0.50511,-0.40444 3.82422,-4.40476 4.29825,-4.72656c4.57751,-3.10753 4.87481,-7.14922 10.23282,-6.00083c4.65424,0.99754 11.53832,10.87393 14.46969,17.00002c4.46622,9.33371 2.11615,13.57532 0.29933,22.05215c-0.64617,3.01479 -2.82767,8.28672 -7.35762,9.60717c-2.12209,0.61858 -4.79008,-1.02997 -6.38651,-1.28188c-3.50117,-0.55255 -6.53631,2.06551 -6.53631,2.06551c0,0 -3.77555,1.0167 -5.68956,2.83846c-2.02062,1.92329 -5.13167,1.04736 -7.93102,0.44738c0,0 -2.79599,5.72758 -9.89112,6.11007z" fill="#aa96c7" stroke="#000000" stroke-width="2.5" stroke-linecap="butt"/><path d="M208.07433,214.70499c-0.37387,2.49629 -13.35999,-0.63088 -13.35999,-0.63088c0,0 -3.4103,4.11337 -9.26848,6.12441c-1.68012,0.57676 -7.0629,0.48351 -7.0629,0.48351c0,0 -1.41396,2.8926 -6.37543,4.47185c-6.18115,1.9675 -13.57726,-8.10941 -13.57726,-8.10941c0,0 5.44967,1.28037 6.63856,-0.80022c1.25897,-2.20325 1.8837,-4.15899 2.59811,-8.13993c0.36678,-2.04376 1.55951,-7.72795 1.55951,-7.72795c0,0 1.3173,2.21027 2.55282,5.12371c1.26259,2.9773 2.14151,6.62938 4.73296,8.49191c1.71527,1.2328 4.61834,-0.20055 6.62982,-0.32622c2.90641,-0.18159 3.87276,-19.92979 3.87276,-19.92979c0,0 2.6642,10.45407 5.33735,15.82433c0.85562,1.7189 -3.07974,-7.82061 -2.27162,-7.12925c1.30459,1.1161 5.32602,2.35617 8.94338,1.2033c4.28866,-1.36682 8.14456,-5.28596 8.14456,-5.28596c0,0 4.9925,4.29452 5.27963,7.63728c0.29802,3.46956 -4.32233,8.37592 -4.37376,8.7193z" fill="#a7649a" stroke="none" stroke-width="0" stroke-linecap="butt"/><path d="M193.5748,216.31771c-0.57708,-0.12369 -3.44268,-2.86988 -4.62419,-7.13514c-0.85172,-3.07481 -0.51238,-6.58181 -0.75977,-10.44378c-0.21226,-3.31381 -5.25564,-6.22896 -5.25564,-6.22896c0,0 5.36299,-0.14986 6.28286,3.5975c0.91989,3.74749 1.58382,10.36715 2.88192,13.10295c1.98131,4.17574 4.73046,6.15584 4.60521,6.74019c0,0 -1.78032,0.6566 -3.13038,0.36725z" fill="#000000" stroke="none" stroke-width="0" stroke-linecap="butt"/><path d="M178.54334,222.9176c0.11029,-0.51452 -4.03646,-5.04249 -5.71074,-8.26814c-1.17773,-2.26899 -1.56705,-5.76313 -1.64948,-8.82373c-0.09251,-3.43381 -5.29715,-6.25975 -5.29715,-6.25975c0,0 3.30116,0.68925 5.23799,2.48389c1.66799,1.54554 1.97966,3.9109 2.32501,7.36188c0.21386,2.13706 1.60302,4.09815 2.69971,5.6572c1.73788,2.47059 4.5052,5.00995 4.40691,5.46845c-0.2749,1.28254 -0.37396,0.31984 -1.31897,0.11727c0,0 -0.9682,3.54547 -0.6933,2.2629z" fill="#000000" stroke="none" stroke-width="0" stroke-linecap="butt"/><g><g data-paper-data="{&quot;index&quot;:null}"><path d="M249.15146,177.94997c8.76561,9.9629 7.36409,23.56453 -2.71919,32.4361c-10.0833,8.87156 -25.36335,7.98688 -34.12896,-1.97602c-4.03368,-4.58464 -2.29789,-6.64067 -2.24657,-12.33192c0.0602,-6.67641 -0.81078,-16.98171 4.63245,-21.77084c0,0 8.05346,-4.72701 16.86536,-5.06974c6.48511,-0.25222 13.54745,2.82208 17.26359,7.04579z" fill="#303f97" stroke="#000000" stroke-width="3" stroke-linecap="butt"/><path d="M233.00509,175.58744c0.46021,1.47287 -0.09914,2.95489 -1.24935,3.31016c-1.15023,0.35526 -2.45572,-0.55071 -2.91593,-2.02356c-0.46021,-1.47287 0.09911,-2.95489 1.24933,-3.31016c1.15024,-0.35527 2.45573,0.5507 2.91594,2.02356z" fill="#303f97" stroke="none" stroke-width="0" stroke-linecap="butt"/><path d="M239.95744,177.08691c1.43148,-0.25477 2.87695,1.10337 3.22852,3.03353c0.35157,1.93014 -0.52388,3.70136 -1.95535,3.95617c-1.43149,0.25478 -2.87697,-1.10335 -3.22854,-3.0335c-0.35157,-1.93014 0.52387,-3.7014 1.95536,-3.95619z" fill="#303f97" stroke="none" stroke-width="0" stroke-linecap="butt"/><path d="M214.14241,210.54038c0,0 -4.13668,-11.60611 -3.48829,-19.75118c0.27718,-3.48207 6.5947,5.73329 14.92817,11.77778c8.74248,6.34116 19.91906,7.6569 19.91906,7.6569c0,0 -6.51064,5.33344 -9.6402,6.01936c-3.18293,0.69762 -9.50276,-0.88884 -9.50276,-0.88884z" fill="#242464" stroke="none" stroke-width="0" stroke-linecap="butt"/><path d="M211.33986,184.73176c0,0 6.75058,-7.16835 14.39991,-8.75207c3.12273,-1.25262 21.62635,1.97887 21.62635,1.97887" fill="none" stroke="#000000" stroke-width="2" stroke-linecap="round"/><path d="M210.92499,194.10072c0,0 5.73572,-7.64377 20.65647,-9.43609c9.45339,-0.35621 22.56552,5.8382 22.56552,5.8382" fill="none" stroke="#000000" stroke-width="2" stroke-linecap="round"/><path d="M211.71763,201.86734c0,0 8.89526,-6.14575 14.41267,-6.70367c6.92785,-0.70054 25.36351,3.13436 25.36351,3.13436" fill="none" stroke="#000000" stroke-width="2" stroke-linecap="round"/><path d="M214.59154,207.43249c0,0 9.35787,-4.79327 14.62551,-4.83713c5.71721,-0.0476 18.43958,4.56179 18.43958,4.56179" fill="none" stroke="#000000" stroke-width="2" stroke-linecap="round"/><path d="M229.12873,215.64349c0,0 -4.37839,-14.92036 -4.05249,-22.49811c0.34924,-8.12048 6.08268,-24.70928 6.08268,-24.70928" fill="none" stroke="#000000" stroke-width="2" stroke-linecap="round"/><path d="M239.21118,214.8095c0,0 -5.74467,-9.95047 -5.80744,-22.00704c0.39805,-10.76112 7.82255,-21.25974 7.82255,-21.25974" fill="none" stroke="#000000" stroke-width="2" stroke-linecap="round"/><path d="M245.19045,209.18728c0,0 -3.79571,2.5435 -2.12793,-15.67375c0.34493,-8.12585 4.8041,-15.15698 4.8041,-15.15698" fill="none" stroke="#000000" stroke-width="2" stroke-linecap="round"/><path d="M206.13636,178.39143c0.6375,-0.56089 6.46019,-7.65961 8.04723,-3.15338c0.60836,1.72738 -5.97403,10.76749 -5.40298,18.40628c0.78252,10.46763 4.97015,17.33058 4.51235,18.40988c-0.89775,2.11651 -7.68625,-4.32135 -7.91016,-4.12435c-0.42571,0.37454 -4.22073,-5.22151 -4.83715,-13.17253c-0.57864,-7.46413 5.19106,-16.01428 5.59069,-16.36587z" fill="#303f97" stroke="#000000" stroke-width="3" stroke-linecap="butt"/><path d="M206.62678,185.39967c0.91314,0.12306 1.51737,1.23226 1.34956,2.47748c-0.16781,1.24523 -1.04411,2.15491 -1.95727,2.03184c-0.91314,-0.12306 -1.51737,-1.23227 -1.34956,-2.47748c0.1678,-1.24522 1.0441,-2.15491 1.95726,-2.03184z" fill="#6283b8" stroke="none" stroke-width="0" stroke-linecap="butt"/><path d="M209.58962,178.45732c0.8508,0.61113 0.96073,2.11531 0.73438,3.63589c-0.22639,1.52057 -0.70331,2.48175 -1.5541,1.8706c-0.85079,-0.61114 -1.35699,-2.33926 -1.13064,-3.85981c0.22636,-1.52057 1.09957,-2.25781 1.95035,-1.64665z" fill="#6283b8" stroke="none" stroke-width="0" stroke-linecap="butt"/></g><path d="M221.36299,213.99472c0,0 -6.21351,-15.1435 -6.08756,-20.30045c0.12594,-5.15695 7.38217,-22.72304 7.38217,-22.72304" fill="none" stroke="#000000" stroke-width="2" stroke-linecap="round"/></g></g><path d="M260.83333,156.16667c0,3.86599 -4.77072,7.33334 -9.83333,7.33334c-5.06261,0 -9.16666,-1.46734 -9.16666,-5.33334c0,-3.86599 2.43739,-8.33333 7.5,-8.33333c5.06261,0 11.5,2.46733 11.5,6.33333z" fill="#000000" stroke="none" stroke-width="0" stroke-linecap="butt"/><path d="M301.83333,157.83334c0,0.67862 -0.91064,2.70143 -4.3155,4.34733c-4.0288,1.94751 -10.14913,3.40092 -16.01538,5.32682c-4.05432,1.33104 -7.98727,3.23601 -11.0245,4.2605c-11.02008,3.71717 -12.97796,3.0789 -12.97796,1.06535c0,-1.94053 8.94791,-8.3948 19.31102,-12.06302c11.26581,-3.98775 25.02231,-5.04654 25.02231,-2.93698z" fill="#93396b" stroke="#000000" stroke-width="4" stroke-linecap="butt"/><path d="M291.5,146.5c0,4.23418 -1.80558,7.66667 -6.5,7.66667c-4.69442,0 -9.5,-2.76582 -9.5,-7.00001c0,-4.23418 4.13891,-9.33333 8.83333,-9.33333c4.69442,0 7.16667,4.43248 7.16667,8.66666z" fill="#000000" stroke="none" stroke-width="0" stroke-linecap="butt"/><path d="M304.16667,48.83334l-0.66667,46.66667" fill="none" stroke="#000000" stroke-width="2" stroke-linecap="round"/><path d="M310.5,35.16667l-0.33333,66.66667" fill="none" stroke="#000000" stroke-width="2" stroke-linecap="round"/><path d="M316.5,33.5l-1.33333,73.33334" fill="none" stroke="#000000" stroke-width="2" stroke-linecap="round"/><path d="M322.16667,39.16667l0.66667,72.33334" fill="none" stroke="#000000" stroke-width="2" stroke-linecap="round"/><path d="M329.5,119.16667v-71.33333" fill="none" stroke="#000000" stroke-width="2" stroke-linecap="round"/><path d="M336.16667,54.5l-1.33333,52" fill="none" stroke="#000000" stroke-width="2" stroke-linecap="round"/><path d="M340.83334,70.83334l0.33333,32.33333" fill="none" stroke="#000000" stroke-width="2" stroke-linecap="round"/><path d="M346.5,88.5v13.66666" fill="none" stroke="#000000" stroke-width="2" stroke-linecap="round"/></g></g></svg>