<svg version="1.1" xmlns="http://www.w3.org/2000/svg" xmlns:xlink="http://www.w3.org/1999/xlink" width="549.54955" height="400.9009" viewBox="0,0,549.54955,400.9009"><g transform="translate(34.77477,20.45045)"><g data-paper-data="{&quot;isPaintingLayer&quot;:true}" fill-rule="nonzero" stroke-linejoin="miter" stroke-miterlimit="10" stroke-dasharray="" stroke-dashoffset="0" style="mix-blend-mode: normal"><g><path d="M235.88487,168.16236c0.03394,0.08502 3.29816,0.52584 3.21065,2.33188c-0.06939,1.43204 -3.4859,4.3141 -3.52291,4.37336c-2.61786,4.19116 -7.95648,13.14047 -16.17522,16.88482c-3.61137,1.6453 -11.67995,-1.08682 -13.72976,0.02632c-3.90311,2.11957 -10.19819,9.38287 -14.2159,12.58765c-3.61909,2.88684 -12.80489,14.50604 -17.11302,12.25096c-0.99564,-0.52117 -1.72061,-1.12306 -2.22227,-1.78227c-3.80999,1.25776 -8.38056,-3.70267 -8.19276,-7.7357c-0.97798,-1.87745 0.0796,-3.84247 1.32722,-6.07048c0.98462,-1.7584 2.52717,-2.99889 4.1958,-3.55908c4.21371,-4.37993 5.86998,-9.0607 10.83334,-14.13353c6.29438,-6.43321 20.00584,-10.37247 27.73809,-11.80444c2.08524,-0.38618 4.81125,-1.94413 7.40402,-2.68878c1.69215,-1.67817 4.00196,-2.44329 6.07671,-1.97437c5.6668,-2.20392 12.49114,-3.45571 14.38599,1.29373z" fill="#590909" stroke="none" stroke-width="5" stroke-linecap="butt"/><path d="M176.95615,217.73792c0.00075,3.0616 -2.77838,3.59915 -2.77838,3.59915l-2.10652,0.201c-4.86156,-1.13304 -7.83076,-6.71964 -12.65855,-7.97564c0,0 -2.57008,-0.66864 -1.51265,-3.70428c1.05743,-3.03566 3.62751,-2.367 3.62751,-2.367c4.78754,1.24555 7.72033,6.82392 12.54876,7.94855l0.09994,-0.22577c0,0 2.77912,-0.53757 2.77987,2.52403z" fill="#000000" stroke="none" stroke-width="5" stroke-linecap="butt"/><g fill="none" stroke="#000000" stroke-width="5" stroke-linecap="round"><path d="M159.24678,211.02098c0,0 9.29797,-13.76201 13.76654,-19.46935c4.07501,-5.20471 11.97326,-13.40606 11.97326,-13.40606c0,0 9.29378,-3.2026 17.89276,-6.18188c0.69386,-0.24044 12.54088,-3.29734 14.81798,-4.0863c0.84092,-0.29138 2.63122,-0.96054 4.84319,-1.04546c5.01264,-0.19249 14.13922,0.21129 14.13922,0.21129"/><path d="M197.45507,194.54181c0,0 -3.93955,5.47842 -6.55088,8.20427c-3.88303,4.05331 -17.40451,18.01205 -17.40451,18.01205"/><path d="M225.27921,189.15425c-1.81895,0.25735 -5.7125,1.554 -8.09168,2.30582c-5.69911,1.80091 -18.84585,1.92304 -18.84585,1.92304"/></g><g stroke="#000000" stroke-linecap="butt"><path d="M157.23863,231.85235c-7.00412,-4.96786 -9.76376,-11.8862 -5.14443,-18.5791c4.61933,-6.69288 14.042,-8.09129 21.04609,-3.12343c7.00412,4.96788 7.99724,13.06098 3.37792,19.75387c-4.61933,6.6929 -12.27548,6.91652 -19.27958,1.94865z" fill="#ffffff" stroke-width="5"/><path d="M156.51065,212.31841c1.57534,-1.5806 7.31433,-3.77344 9.00844,-2.57183c0.12288,0.08715 1.01542,-0.08361 2.55613,0.39114c1.81543,0.55939 3.80091,1.91311 3.90909,2.04533c0.11419,0.13959 0.43393,0.56572 0.56861,0.54963c1.62002,-0.19356 -4.93489,1.7941 -6.74732,2.60477c-0.83131,0.37181 -2.69877,1.27186 -5.73857,4.38912c-1.43747,1.47405 -2.96789,6.26841 -3.37433,7.81701c-0.04943,0.18832 0.01302,0.77876 -0.18243,0.73253c-1.26799,-0.29982 -3.07359,-3.43579 -4.01723,-5.69611c-0.42103,-1.0085 -0.50416,-3.21547 0.20686,-5.28293c0.44082,-1.2818 1.45761,-2.52417 2.06993,-3.35106c0.70066,-0.94622 1.26748,-1.15266 1.74081,-1.62758z" fill="#c5c5c5" stroke-width="0"/></g></g><path d="M289.29991,178.06303c0.41235,0.12113 4.74741,1.10376 5.10086,1.32024c0.51572,0.28636 3.83132,-0.21539 4.20908,0.20239c1.19734,1.13602 1.97892,1.04933 3.45903,1.56458c6.70932,2.33558 9.30593,5.12572 16.49532,6.24485c1.80021,0.28023 0.69551,-3.91378 2.27906,-4.78369c5.51817,-3.03145 14.02373,-1.27502 19.02411,1.93266c4.16503,2.67181 -2.01061,11.23839 -6.03065,13.44682c-2.19124,1.20382 -0.34915,4.84884 -3.87446,4.66804c-6.13455,-0.3146 -5.96632,8.54623 -13.45891,5.7916c-4.29008,-1.57723 -13.95685,-4.89473 -20.89965,-8.45959c-4.09249,-2.10135 -8.73809,-2.40256 -10.0619,-2.85757c-1.95675,-0.67257 -9.80065,-10.28807 -9.11655,-12.51143c-0.22868,-0.92861 3.96939,-1.84351 4.32815,-2.80906c0.8787,-2.36495 1.78006,-6.74678 4.26813,-6.35026c0.21645,0.00638 2.29701,1.08895 2.51885,1.15412z" fill="#590909" stroke="none" stroke-width="5" stroke-linecap="butt"/><path d="M344.45477,185.622c-0.63479,2.45711 -3.18947,1.84658 -3.18947,1.84658l-2.95326,-0.70906c-5.32386,-1.82369 -10.84433,-2.69113 -13.94207,-7.5083c0,0 -1.30556,-2.19851 0.98021,-3.45423c2.28577,-1.25572 3.59135,0.94279 3.59135,0.94279c1.68556,3.31597 7.41395,3.97211 10.89308,5.17242l2.70029,0.64213c0,0 2.55467,0.61056 1.91987,3.06769z" fill="#000000" stroke="none" stroke-width="5" stroke-linecap="butt"/><g fill="none" stroke="#000000" stroke-width="5" stroke-linecap="round"><path d="M326.62599,171.13644c0,0 -4.00997,9.75674 -6.46439,12.10716c-1.65346,1.58337 -4.06354,4.67047 -4.06354,4.67047c0,0 -13.19243,-7.01453 -21.2476,-8.47437c-5.7216,-1.03692 -11.67833,-7.38153 -11.67833,-7.38153"/><path d="M347.78088,182.4634c0,0 -8.1971,11.16939 -11.38337,14.7332c-1.71443,1.91757 -6.23393,4.97149 -6.23393,4.97149"/></g><path d="M331.74872,175.34497c-0.78578,-0.73135 -2.06824,-1.82024 -2.75169,-3.00581c-1.10235,-1.91224 -1.39343,-4.03951 -1.12358,-5.05069c0.6048,-2.26631 1.96594,-5.46128 3.24806,-5.87859c0.19763,-0.06432 0.23321,0.50887 0.3175,0.68462c0.69304,1.44523 3.12485,5.89173 4.88943,7.16014c3.73161,2.68232 5.84998,3.35575 6.78804,3.62785c2.04517,0.59322 9.27993,1.83225 7.54294,1.81182c-0.1444,-0.0017 -0.40759,0.44003 -0.50376,0.5857c-0.09109,0.13799 -1.94707,1.64032 -3.76045,2.36269c-1.53895,0.61306 -2.50693,0.54023 -2.62122,0.63645c-1.57563,1.32654 -7.98747,-0.19275 -9.91535,-1.54936c-0.57927,-0.40762 -1.21079,-0.54794 -2.10997,-1.38482z" data-paper-data="{&quot;index&quot;:null}" fill="#c5c5c5" stroke="#000000" stroke-width="0" stroke-linecap="butt"/><path d="M331.08928,200.51594l-9.81702,10.47735l-41.71719,-14.36181" fill="none" stroke="#000000" stroke-width="5" stroke-linecap="round"/><g><path d="M268.13295,316.53236l0.36006,0.59389c1.29207,-0.17796 1.42056,-1.84613 2.41185,-2.5498c1.37494,-0.97602 3.2506,-1.40732 5.02107,-1.7435c0.74511,-0.14148 1.51444,-0.26699 2.29164,-0.35531l-0.12521,-0.11314c1.47899,-0.50705 10.67051,-5.36009 11.85607,0.25497c0.96752,0.05719 1.95324,0.1243 2.9047,0.22812c1.56635,1.25618 3.05966,2.5645 4.51628,3.4834c0,0 2.20096,1.39502 0.50544,3.2031c-1.69552,1.80809 -3.89643,0.41305 -3.89643,0.41305c-1.22071,-0.77698 -2.52066,-1.94603 -3.87527,-3.08407c-1.15369,-0.11042 -2.48824,-0.10098 -3.85055,-0.13863c-0.49357,0.17139 -0.97493,0.33164 -1.40154,0.49036c-2.11838,0.78805 -8.1502,-1.24293 -9.81415,0.41788c-0.60968,0.60854 0.0016,1.74261 -0.67797,2.29885c-1.02266,0.83709 -2.62552,0.98645 -3.93824,1.47965l-3.95289,-0.52236c0,0 -2.65058,-0.68603 -1.818,-2.86425c0.54352,-1.42196 1.8618,-1.62331 2.71167,-1.5917c-1.31384,-5.51405 8.18708,-5.3668 12.13282,-6.1998c2.74595,-0.57971 3.87163,-1.76674 7.08522,-0.9857c2.25199,0.54733 4.31967,2.03318 6.27364,3.60023c4.5201,0.49323 8.26691,1.81514 5.61374,6.83865c-0.69005,1.30652 -2.21049,2.19362 -3.31572,3.29041c-4.55254,-1.05105 -8.70881,-2.64366 -13.41481,-3.07673c-2.35953,-0.21714 -7.76464,0.80848 -9.49308,0.40861c-1.76914,-0.40927 -3.8161,-1.25255 -4.4578,-2.66825c-0.19498,-0.43014 -0.33457,-0.8319 -0.42405,-1.20743c0.452,0.0168 0.77154,0.09947 0.77154,0.09947zM277.77092,315.03022c-0.10958,0.01346 -0.22475,0.02318 -0.34437,0.03003c0.64837,0.01187 1.29875,0.0553 1.94524,0.07975c0.6181,0.02337 1.25029,0.05154 1.89051,0.08884l-0.91359,-0.82547c-1.0688,0.29019 -2.03593,0.56031 -2.57784,0.62688zM272.93826,315.93411c-0.20489,0.83801 1.92556,-0.70559 2.95648,-0.81767c0.19678,-0.0214 0.39424,-0.03607 0.5921,-0.04545c-1.54141,-0.02572 -3.29828,-0.16069 -3.54861,0.86312zM293.51502,318.61073c-0.41661,-1.10064 -1.57793,-1.53224 -3.09936,-1.71412c1.13013,0.44466 2.17852,1.0051 3.09936,1.71412zM289.92203,316.71144c-0.41232,-0.34411 -0.82965,-0.68363 -1.25117,-1.00677c-0.24807,0.14279 -0.5181,0.27566 -0.80075,0.40068c0.70298,0.16952 1.38984,0.36948 2.05191,0.60609z" data-paper-data="{&quot;index&quot;:null}" fill="#3c2700" stroke="none" stroke-width="5" stroke-linecap="butt"/><path d="M227.44025,323.29498c-0.10121,0.37336 -0.2534,0.7719 -0.46179,1.19751c-0.68588,1.4008 -2.75863,2.19786 -4.53998,2.56728c-1.74038,0.36093 -7.11139,-0.7856 -9.47691,-0.62149c-4.71795,0.32731 -8.92273,1.82611 -13.50664,2.77464c-1.07043,-1.12122 -2.56248,-2.04212 -3.21126,-3.36367c-2.49455,-5.08127 1.29242,-6.31864 5.82643,-6.71025c2.00248,-1.52266 4.11608,-2.96159 6.38443,-3.45819c3.23698,-0.70866 4.32498,0.50324 7.05177,1.14435c3.91821,0.92122 13.42041,0.98725 11.93393,6.46985c0.85056,-0.01251 2.16203,0.21835 2.66075,1.65199c0.76394,2.19615 -1.90726,2.82242 -1.90726,2.82242l-3.9679,0.43348c-1.29683,-0.52249 -2.8944,-0.7077 -3.89042,-1.56744c-0.66189,-0.57128 -0.01524,-1.69128 -0.60559,-2.31328c-1.61124,-1.69755 -7.70469,0.19738 -9.79758,-0.63794c-0.42149,-0.16821 -0.89769,-0.33925 -1.38566,-0.52164c-1.36302,0.00707 -2.6968,-0.03233 -3.85354,0.05217c-1.38985,1.10727 -2.72603,2.24673 -3.97068,2.99603c0,0 -2.24395,1.34516 -3.88211,-0.50035c-1.63816,-1.8455 0.60581,-3.19064 0.60581,-3.19064c1.48498,-0.88588 3.01879,-2.16029 4.62401,-3.38086c0.95439,-0.08246 1.94188,-0.12739 2.91083,-0.16283c1.36137,-5.58648 10.39737,-0.52893 11.8599,0.01114l-0.1287,0.11028c0.77414,0.10572 1.53923,0.24845 2.27965,0.4066c1.75929,0.37577 3.62074,0.849 4.96458,1.85553c0.96885,0.72567 1.04492,2.39613 2.33095,2.60301l0.37859,-0.58559c0,0 0.322,-0.0755 0.77437,-0.08216zM214.52119,320.97476l-0.93913,0.8047c0.64118,-0.0229 1.27403,-0.03685 1.89265,-0.04635c0.64706,-0.00995 1.29856,-0.03877 1.94706,-0.03609c-0.11934,-0.00952 -0.23414,-0.02184 -0.34327,-0.03775c-0.53965,-0.0787 -1.498,-0.37042 -2.55731,-0.68451zM218.36082,321.72882c0.19752,0.01382 0.39442,0.03289 0.59047,0.05871c1.02708,0.13516 3.1083,1.72602 2.92977,0.88371c-0.21806,-1.02909 -1.97858,-0.93354 -3.52024,-0.94242zM204.37955,323.24124c-1.52659,0.14768 -2.701,0.55309 -3.15203,1.64399c0.94275,-0.68813 2.00834,-1.22484 3.15203,-1.64399zM206.94905,322.50739c-0.27862,-0.13133 -0.54435,-0.27019 -0.78787,-0.4185c-0.43152,0.31356 -0.85931,0.64358 -1.28233,0.97832c0.66924,-0.22165 1.36215,-0.40613 2.07018,-0.55983z" fill="#3c2700" stroke="none" stroke-width="5" stroke-linecap="butt"/><path d="M237.36675,294.73429c-0.14789,1.55244 0.20554,0.63274 -0.32747,2.11041c-0.39638,1.74066 -2.48557,2.31322 -2.44882,3.99385c0.07448,3.40561 0.22763,6.79501 -1.20589,10.01142c1.87891,2.24405 0.81299,4.25079 -0.94809,8.69909c-0.07487,0.18917 -0.15349,0.37367 -0.23566,0.55367c0.04963,0.37042 0.07229,0.74737 0.06627,1.1295c-0.02477,1.578 0.55656,3.7489 -0.32068,5.0344c-1.00551,1.47344 -3.21109,-3.53166 -8.90667,-6.91342c-5.22072,-3.09981 -14.01117,-4.54168 -14.01409,-4.59857c-0.41062,-7.95882 2.59061,-15.51513 5.12291,-22.81552c0.1293,-1.16728 0.97327,-7.8127 0.96667,-8.84615c-0.04309,-6.7495 7.56884,-21.99208 9.15865,-32.41875c0.64911,-4.2572 -0.40067,-8.76919 2.40057,-11.11427c1.88012,-1.57393 6.51964,-1.78373 10.73997,-1.73636c8.3295,0.09346 20.07546,2.50648 28.39441,2.86727c2.49992,0.10842 5.94641,1.58931 8.24821,2.39953c3.43272,1.20829 7.93658,-1.59055 10.54209,0.60871c1.64051,1.38472 -1.50425,5.49561 -1.50686,8.4783c-0.0027,3.04851 2.80398,5.20927 2.60748,7.35649c-0.12424,1.35764 1.81242,3.91369 2.35638,5.60056c1.7462,5.41512 2.68423,11.63031 2.98386,15.63725c0.35494,4.74666 -0.22109,8.3307 -2.08677,11.96488c-0.80883,1.57554 -3.71404,2.36592 -3.80659,4.58639c-0.12081,2.89833 -1.62086,5.49099 -1.44897,8.45127c0.05735,0.98777 -16.11614,12.46302 -22.47832,11.09438c-1.28063,-0.27548 -1.74583,-2.2172 -2.06141,-3.60749c-0.23345,-1.02841 1.33598,-3.04476 1.91908,-3.81527c0.60087,-0.79401 -1.84749,-5.15664 -1.83312,-6.07166c0.02318,-1.47665 3.43644,-2.84152 3.37184,-4.67838c-0.12662,-3.60044 -0.34996,-7.33861 1.1682,-11.09056c1.16815,-2.88693 5.09771,-4.96467 5.93978,-7.08641c0.45878,-1.15606 -6.7498,-11.36249 -6.84072,-12.81073c-0.23203,-3.69517 -1.78349,-4.80339 -2.00743,-8.51776c-0.07727,-1.28174 -1.61035,-2.68797 -3.16448,-2.811c-1.9627,-0.15538 -3.86499,-4.5189 -5.83761,-4.53397c-1.55323,-0.01188 -4.70282,5.67261 -6.25734,5.69259c-0.23877,2.43417 -4.37931,11.83592 -4.76601,14.13882c0.1819,0.63783 -0.18703,6.47729 -0.19724,7.12752c-0.0501,3.19177 -1.54042,6.17705 -1.21554,9.88723c0.50441,2.55338 -1.05705,0.71527 -1.30081,3.27409z" fill="#001525" stroke="none" stroke-width="5" stroke-linecap="butt"/><path d="M247.92056,251.44747c-0.72962,1.07954 -1.70146,1.75816 -2.82883,2.15754c-3.67541,1.30203 -9.00389,-0.36386 -12.9814,-0.78086c-2.76279,-0.28965 -5.61373,0.73918 -7.38657,-1.42526c-1.13053,-1.38024 -1.41087,-4.233 -0.46454,-5.85145c-0.01875,-0.10577 -0.02847,-0.21404 -0.02847,-0.32423c0,-1.06513 2.58144,-5.5184 3.77877,-5.70158c0.09942,-0.02715 3.5512,1.14532 3.66301,1.14091c2.52713,-0.10004 45.30731,2.1215 47.74782,2.6933c6.98855,1.63738 -0.6582,1.08115 1.70815,3.15401c2.13584,1.87095 2.80821,7.81691 -1.05549,8.57953c-2.76344,0.54546 -5.74041,0.02003 -8.42581,0.56397c-2.46977,0.50027 -10.74805,3.37878 -12.64091,0.82997c-1.67057,-2.24949 1.83222,-3.65247 3.01851,-4.57675c-1.32265,0.08068 -2.65694,-0.04009 -3.32585,-0.16569c-3.76205,-0.70637 -7.64094,-1.07713 -11.54305,-1.42484z" fill="#000a12" stroke="none" stroke-width="0.5" stroke-linecap="butt"/><path d="M224.4179,319.85134c1.59852,0.71096 6.00048,3.25548 5.55812,5.12557c-0.47431,2.00512 -1.36363,2.50639 -3.73516,2.10537c-1.60742,-0.2718 -2.20974,-2.05334 -3.4228,-2.98554c-1.90807,-1.46629 -5.34779,-2.5281 -7.66433,-3.51281c-1.17136,-0.49792 -5.48314,-0.57993 -7.78052,-1.00298c-0.20062,-0.02301 -4.14162,-0.63148 -4.32472,-0.69135c-0.9596,-0.31378 2.10758,-0.53566 2.10758,-1.45774c0,-1.19783 1.14848,-2.16886 2.5652,-2.16886c0.3155,0 0.61768,0.04817 0.89685,0.13625c4.86487,-1.09553 11.48982,2.53521 15.79977,4.45209z" fill="#1c1200" stroke="none" stroke-width="0.5" stroke-linecap="butt"/><path d="M284.82338,308.02615c0.2909,-0.11109 0.61092,-0.18435 0.95047,-0.21076c1.52474,-0.11862 2.86601,0.75217 2.99582,1.94496c0.09992,0.9182 4.53906,2.55173 3.5403,2.94455c-0.19056,0.07495 -5.48017,-0.65861 -5.69358,-0.6189c-2.42668,0.61362 -7.05833,1.0563 -8.26504,1.6502c-2.38646,1.17451 -5.97337,2.51989 -7.86802,4.13975c-1.20454,1.02984 -1.65972,2.8543 -3.36024,3.25956c-2.50888,0.59789 -3.52034,0.17318 -4.2481,-1.78379c-0.67875,-1.82518 3.78309,-4.72756 5.42645,-5.56935c4.43084,-2.26968 11.16746,-6.43984 16.52196,-5.75623z" data-paper-data="{&quot;index&quot;:null}" fill="#1c1200" stroke="none" stroke-width="0.5" stroke-linecap="butt"/><g fill="none" stroke="#000000" stroke-width="5" stroke-linecap="round"><path d="M266.3016,251.20906l-4.65809,1.12479l-15.68458,-0.49849l-12.23216,64.62901l-0.31549,11.58576l-38.66434,0.07057l0.71471,-7.88833l13.50676,-5.53101l15.554,-75.87562"/><path d="M281.63579,243.35598c0,0 4.09754,11.39719 5.96005,17.55859c2.06981,6.84717 5.90266,21.68465 5.90266,21.68465l-9.8601,24.06606l12.95896,6.69281l-0.10581,8.03742l-36.85152,-0.08354l0.12404,-15.82921l9.55494,-24.92624c0,0 -3.97165,-7.15792 -6.72958,-14.33871c-2.34945,-6.11721 -3.54969,-12.34048 -3.5618,-13.20314c-0.00723,-0.51632 1.41417,-0.52215 1.41417,-0.52215"/><path d="M282.01827,241.93538l-57.85135,-4.25577"/></g><path d="M231.10871,328.30638c-2.50076,0.99334 -3.7111,-1.06303 -3.7111,-1.06303l-0.62015,-1.19997c-1.22993,-5.2926 -11.31548,-8.25826 -17.11016,-8.89115c0,0 -2.74895,-0.33271 -2.34625,-2.59205c0.40269,-2.25934 3.15163,-1.92663 3.15163,-1.92663c8.55382,1.11091 19.60095,4.97388 21.73475,12.44362l0.1918,0.17953c0,0 1.21033,2.05636 -1.29048,3.04967z" fill="#000000" stroke="none" stroke-width="5" stroke-linecap="butt"/><path d="M282.47927,305.35705c2.36373,1.20157 0.90369,3.1436 0.90369,3.1436l2.64625,0.09275c-8.8469,2.66606 -19.0505,6.45364 -23.60102,13.73656c0,0 -1.27444,2.02849 -3.74318,0.9794c-2.46875,-1.04908 -1.1943,-3.07756 -1.1943,-3.07756c5.25147,-8.31708 22.62484,-16.07629 24.98857,-14.87471z" fill="#000000" stroke="none" stroke-width="5" stroke-linecap="butt"/></g><path d="" fill="#595959" stroke="none" stroke-width="0.5" stroke-linecap="butt"/><path d="M220.89139,241.5746c0,0 -2.42194,-21.66825 -0.74983,-37.64095c1.00622,-9.61176 10.1675,-22.27799 14.56274,-30.17272c1.86472,-3.34941 1.53178,-7.49385 1.53178,-7.49385l60.15946,4.77501c0,0 -3.75448,3.89786 -6.63286,10.37557c-3.89728,8.77066 -7.23008,21.53789 -7.21053,28.90444c0.00509,1.91505 3.03614,5.64888 3.21267,7.61709c1.22447,13.65281 3.04886,25.7924 3.04886,25.7924c0,0 -4.74874,3.01729 -11.89141,4.21184c-6.64112,1.11067 -19.81505,-7.3308 -26.06838,-7.55006c-5.13504,-0.18003 -8.7067,-2.53716 -15.0886,-3.34137c-8.74615,-1.10215 -14.87387,4.52264 -14.87387,4.52264z" fill="#590909" stroke="#000000" stroke-width="5" stroke-linecap="butt"/><path d="M287.87594,167.35557c0,0.32694 -0.83997,2.79463 -1.00811,3.10892c-0.23005,0.42999 0.04286,0.99495 -0.44497,1.36503c-3.15453,2.39314 -12.1162,3.37605 -22.77066,3.37605c-13.50635,0 -27.15901,-8.29174 -27.15901,-11.95851c0,-1.09021 2.01704,-6.15353 3.60331,-8.79959c0.46818,-0.78097 -0.31723,-1.15041 0.31354,-1.3956c4.42012,-1.71826 16.84369,10.92872 25.14909,10.92872c9.64029,0 18.23201,-2.59279 22.21519,-0.39251c1.59738,0.88238 0.10161,2.71792 0.10161,3.76749z" fill="#3e3e3e" stroke="none" stroke-width="0" stroke-linecap="butt"/><g stroke-linecap="butt"><path d="M318.44084,134.9522c-1.54008,24.77948 -24.0042,43.53398 -50.17502,41.88936c-26.17083,-1.64462 -46.13798,-23.06558 -44.5979,-47.84504c1.54008,-24.77945 24.00421,-43.53396 50.17504,-41.88934c6.03435,0.37921 16.40138,-5.17492 24.96057,-4.88339c3.03323,0.10332 4.21834,6.69165 7.15487,6.55011c5.77654,-0.27843 9.093,-6.33886 11.80588,-3.65765c3.52024,3.47915 4.07389,12.24989 3.26531,19.44455c-1.23433,10.98296 -2.09838,22.50165 -2.58874,30.3914z" fill="#f5f5f5" stroke="none" stroke-width="0"/><path d="M273.74286,99.54365c-5.84483,-0.36731 -16.81663,1.17258 -23.98942,4.94831c-12.60242,6.63384 -21.14431,17.35966 -24.4111,16.66194c-1.2676,-0.27073 10.02367,-16.5407 10.12941,-18.24214c0.53338,-8.58196 17.25906,-14.51512 37.35786,-13.25208c6.68088,0.41984 17.51066,-6.70351 24.94502,-7.15402c1.31392,-0.07963 1.87979,2.82375 2.80325,3.54618c2.27241,1.77775 4.26319,2.58383 7.05434,2.43563c8.96414,-0.47596 12.5173,-1.01053 12.26965,2.97396c-0.07831,1.25988 2.79116,1.74981 1.62498,2.67323c-6.77748,5.3665 -30.63585,6.48664 -47.784,5.40901z" fill="#ffffff" stroke="none" stroke-width="0"/><path d="M304.55719,164.25225c-0.53338,8.58196 -17.25906,14.51512 -37.35785,13.25208c-20.09879,-1.26304 -35.95969,-9.244 -35.42631,-17.82596c0.22334,-3.59346 1.76603,-3.56199 6.76666,-1.53385c0.08578,0.03479 4.97619,2.27878 5.1405,2.34935c6.88156,2.95519 15.15839,6.65848 25.64915,7.31774c20.09879,1.26304 35.76126,-12.14132 35.22787,-3.55935z" data-paper-data="{&quot;index&quot;:null}" fill="#cccccc" stroke="none" stroke-width="0"/><path d="M316.80577,135.32293c-0.26872,4.32369 2.42695,10.26467 0.97559,14.14514c-6.86648,18.35883 -29.54627,29.10188 -51.15062,27.74422c-26.17083,-1.64462 -46.13798,-23.06559 -44.59789,-47.84505c0.61552,-9.90357 4.57334,-18.84473 10.77429,-25.90586c9.31429,-10.60631 23.68955,-16.97078 39.40073,-15.98347c3.32189,0.20875 8.98491,0.12248 14.82749,-2.07732c4.00495,-1.50791 6.44201,-12.44071 6.44201,-12.44071c0,0 8.1595,16.46405 9.28197,16.39045c10.63564,-0.6975 13.11634,-18.8303 13.11634,-18.8303c0,0 4.59258,21.06901 3.98756,32.56527c-0.64714,12.29668 -2.63534,25.44575 -3.05746,32.23765z" fill="none" stroke="#000000" stroke-width="5"/><path d="M296.17244,165.83989c-0.15414,2.48002 -2.39195,4.35769 -4.99831,4.19391c-2.60636,-0.16378 -4.59428,-2.30702 -4.44014,-4.78704c0.15414,-2.48001 2.39196,-4.35769 4.99832,-4.19391c2.60636,0.16378 4.59427,2.30702 4.44013,4.78703z" fill="#cccccc" stroke="none" stroke-width="0"/><path d="M288.91028,168.53659c-0.11723,1.88621 -1.81925,3.31431 -3.80155,3.18974c-1.9823,-0.12457 -3.49424,-1.75463 -3.37701,-3.64085c0.11723,-1.88621 1.81924,-3.3143 3.80155,-3.18974c1.9823,0.12457 3.49424,1.75463 3.37701,3.64085z" fill="#cccccc" stroke="none" stroke-width="0"/></g><path d="" fill="#000000" stroke="#000000" stroke-width="1" stroke-linecap="butt"/><g><path d="M361.19495,168.10299c3.26114,4.19885 1.46453,9.51686 -2.57341,12.72937c-4.03794,3.21252 -31.15279,-2.57492 -34.41392,-6.7738c-3.26114,-4.19885 -0.71838,-13.02375 3.31957,-16.23628c4.03794,-3.21254 30.40663,6.08183 33.66775,10.2807z" fill="#0d1522" stroke="#000000" stroke-width="2.5" stroke-linecap="butt"/><path d="M327.96817,150.58551c5.90609,9.54895 3.22429,21.99127 -5.99003,27.79075c-9.2143,5.79948 -21.47178,2.75997 -27.37789,-6.78897c-5.9061,-9.54894 -3.22428,-21.99125 5.99001,-27.79074c9.2143,-5.79948 21.47181,-2.75997 27.37791,6.78896z" fill="#465e85" stroke="#000000" stroke-width="3" stroke-linecap="butt"/><path d="M332.80436,157.47451c0.08882,0.14358 -0.73397,6.12223 -2.24188,10.80992c-1.33384,4.14651 -3.36354,7.08592 -3.44724,6.95062c-0.09377,-0.1516 -2.85972,3.03761 -3.5452,1.81863c-0.52426,-0.93227 -1.19013,-5.8043 -1.29025,-7.2047c-0.09226,-1.29087 0.05365,-3.19657 0.50495,-4.92704c0.35954,-1.37867 1.12794,-3.80729 2.75132,-5.91073c1.8921,-2.45163 4.05994,-4.36753 4.43812,-4.49456c2.3848,-0.80108 2.56319,2.52622 2.83017,2.95788z" fill="#0d1522" stroke="#000000" stroke-width="3" stroke-linecap="butt"/><path d="M309.22211,181.30215c0,0 -5.35149,-0.28344 -7.70119,-1.62016c-2.31033,-1.31431 -6.28099,-6.33407 -6.28099,-6.33407c0,0 9.08495,-5.10411 13.52059,-8.58759c4.99828,-3.92539 14.9832,-13.79777 14.9832,-13.79777c0,0 1.86045,0.40233 1.68422,1.76463c-0.5462,4.22197 -5.39227,26.89789 -5.39227,26.89789z" fill="#313243" stroke="none" stroke-width="0" stroke-linecap="butt"/><path d="M310.38025,140.90924c0,0 5.37899,2.68085 7.55314,4.44558c2.45744,1.99467 6.44598,6.91729 6.44598,6.91729" fill="none" stroke="#000000" stroke-width="2" stroke-linecap="round"/><path d="M293.10436,153.83426c0,0 9.05119,1.36125 13.21505,2.81883c4.21401,1.47512 11.92039,5.97993 11.92039,5.97993" fill="none" stroke="#000000" stroke-width="2" stroke-linecap="round"/><path d="M317.43222,167.24451c0,0 -7.7844,0.48259 -12.07963,-0.80737c-4.40601,-1.32322 -14.03258,-7.03468 -14.03258,-7.03468" fill="none" stroke="#000000" stroke-width="2" stroke-linecap="round"/><path d="M317.49852,170.45115c0,0 -5.74099,2.05933 -9.53012,2.01913c-4.03161,-0.04278 -13.97729,-2.26853 -13.97729,-2.26853" fill="none" stroke="#000000" stroke-width="2" stroke-linecap="round"/><path d="M317.89601,174.47508c0,0 -4.99732,2.74386 -7.90877,3.28586c-3.11738,0.58033 -10.21999,0.08902 -10.21999,0.08902" fill="none" stroke="#000000" stroke-width="2" stroke-linecap="round"/><path d="M315.75789,179.75301c0,0 -2.57085,-4.08652 -3.74087,-8.618c-0.99023,-3.83517 -0.67713,-7.98382 -0.04895,-10.29782c0.43672,-1.60875 1.85131,-4.29393 3.44292,-5.95808c3.6682,-3.83534 8.79925,-6.26181 8.79925,-6.26181" fill="none" stroke="#000000" stroke-width="2" stroke-linecap="round"/><path d="M306.87531,180.04378c0,0 -2.01969,-3.01233 -3.29712,-7.06434c-1.58445,-5.02583 -2.44667,-11.57112 -1.85,-15.00725c0.4459,-2.56798 2.07095,-6.22612 4.29771,-8.93615c3.26326,-3.97154 7.38202,-6.61305 7.38202,-6.61305" fill="none" stroke="#000000" stroke-width="2" stroke-linecap="round"/><path d="M330.49379,154.83175c0.23406,0.37846 -4.80535,2.12669 -6.98479,7.93946c-2.3216,6.19196 1.01009,16.21305 0.76075,15.80992c-0.13114,-0.21205 -3.5072,3.93848 -4.47302,2.2381c-0.73866,-1.30043 -1.91394,-7.96097 -2.13355,-9.86948c-0.20243,-1.75922 -0.13599,-4.33792 0.33708,-6.65864c0.37687,-1.8489 1.21561,-5.09711 3.18218,-7.84774c2.29211,-3.2059 4.97564,-5.66619 5.45708,-5.814c3.03606,-0.93202 3.4809,3.59864 3.85429,4.20235z" fill="#465e85" stroke="#000000" stroke-width="3" stroke-linecap="butt"/><path d="M319.19065,179.87896c-8.81782,3.85947 -19.7139,0.71972 -25.09216,-7.97581c-5.90609,-9.54895 -2.7225,-22.30708 6.4918,-28.10659c8.64342,-5.44017 20.42128,-2.36431 26.66588,5.82795c0.22346,0.29316 -7.18245,5.13581 -9.13059,13.30468c-1.64768,6.90901 1.4616,16.77618 1.06508,16.94975z" fill="none" stroke="#000000" stroke-width="3" stroke-linecap="butt"/><path d="M298.52657,145.97646c0,0 9.49868,1.19263 12.96045,2.97431c3.60565,1.85572 8.25944,7.94692 8.25944,7.94692" fill="none" stroke="#000000" stroke-width="2" stroke-linecap="round"/><path d="M320.77928,170.49891c0.74872,0.12566 1.22997,1.06617 1.07491,2.10068c-0.15506,1.0345 -0.88774,1.77132 -1.63646,1.64566c-0.74872,-0.12565 -1.22998,-1.06616 -1.07492,-2.10067c0.15506,-1.03451 0.88774,-1.77131 1.63647,-1.64565z" fill="#6283b8" stroke="none" stroke-width="0" stroke-linecap="butt"/><path d="M320.64817,163.44989c0.8122,-0.27902 1.33082,0.52315 1.15839,1.7917c-0.17244,1.26854 -0.97064,2.52307 -1.78284,2.8021c-0.81221,0.27901 -1.33081,-0.52313 -1.15839,-1.79167c0.17244,-1.26854 0.97064,-2.52308 1.78284,-2.80211z" fill="#6283b8" stroke="none" stroke-width="0" stroke-linecap="butt"/><path d="M295.15958,172.37269c0,0 0.14819,-10.60629 1.7518,-17.17333c1.60362,-6.56706 5.35169,-11.91662 5.35169,-11.91662" fill="none" stroke="#000000" stroke-width="2" stroke-linecap="round"/><path d="M292.59558,156.82646c0,0 8.19481,2.49347 12.35867,3.95105c4.21401,1.47512 12.77676,4.84772 12.77676,4.84772" fill="none" stroke="#000000" stroke-width="2" stroke-linecap="round"/><path d="M303.02324,158.7937c0.82531,0.56535 0.92443,1.88477 0.22141,2.94695c-0.703,1.0622 -1.94195,1.46495 -2.76726,0.89961c-0.82531,-0.56535 -0.92445,-1.88476 -0.22143,-2.94696c0.703,-1.0622 1.94196,-1.46497 2.76728,-0.89961z" fill="#6283b8" stroke="none" stroke-width="0" stroke-linecap="butt"/><path d="M296.88338,159.42007c1.07039,0.55413 1.35207,2.18175 0.62918,3.63538c-0.72288,1.45361 -2.1766,2.18282 -3.24697,1.62868c-1.07039,-0.55413 -1.35209,-2.18176 -0.62921,-3.63538c0.72288,-1.45361 2.17662,-2.1828 3.247,-1.62868z" fill="#6283b8" stroke="none" stroke-width="0" stroke-linecap="butt"/></g><path d="M333.13368,185.93c-5.67641,-1.95111 -9.53319,-5.53746 -8.61437,-8.01038c0.91881,-2.47292 6.26529,-2.89593 11.94169,-0.94484c5.67641,1.95111 9.53321,5.53747 8.6144,8.01039c-0.91881,2.47292 -6.26531,2.89592 -11.94172,0.94483z" fill="#ffffff" stroke="#000000" stroke-width="5" stroke-linecap="butt"/><path d="M335.57108,184.13023c-7.54628,-2.59382 -11.60335,-10.24196 -9.06169,-17.08261c2.54165,-6.84065 10.71956,-10.28341 18.26584,-7.68959c7.54628,2.59382 11.60333,10.24196 9.06168,17.08262c-2.54165,6.84065 -10.71956,10.2834 -18.26582,7.68959z" fill="#ffffff" stroke="#000000" stroke-width="5" stroke-linecap="butt"/><path d="M272.63479,123.13351c0,5.3673 -2.76319,13.60568 -11.95499,13.60568c-9.1918,0 -11.01735,-9.4345 -11.01735,-14.80178c0,-1.35096 1.16916,-1.07733 2.06203,-1.3331c0.7475,-0.21414 1.17437,-1.17734 1.77981,-0.143c1.54454,2.63866 2.23423,9.10129 7.1755,9.10129c4.77038,0 6.111,-5.34367 7.93075,-7.65003c0.76653,-0.97151 1.38447,-0.6189 2.13937,-0.4906c0.90615,0.15399 1.88487,0.30315 1.88487,1.71159z" fill="#000000" stroke="none" stroke-width="NaN" stroke-linecap="butt"/><path d="M303.21295,124.31076c0,5.933 -2.76319,15.03969 -11.95499,15.03969c-9.1918,0 -11.01735,-10.42886 -11.01735,-16.36185c0,-1.49335 1.16916,-1.19089 2.06203,-1.47362c0.7475,-0.23671 1.17437,-1.30143 1.77981,-0.15808c1.54454,2.91677 2.23423,10.06055 7.1755,10.06055c4.77038,0 6.111,-5.90688 7.93075,-8.45633c0.76653,-1.07391 1.38447,-0.68413 2.13937,-0.5423c0.90615,0.17022 1.88487,0.33511 1.88487,1.89197z" fill="#000000" stroke="none" stroke-width="NaN" stroke-linecap="butt"/><path d="M287.13192,157.67709c-0.73595,3.50994 -3.00054,6.00557 -5.05809,5.57415c-2.05755,-0.43142 -3.12891,-3.62653 -2.39296,-7.13646c0.73595,-3.50994 3.00054,-6.00557 5.05809,-5.57415c2.05755,0.43142 3.12891,3.62653 2.39296,7.13646z" fill="#ff8c8c" stroke="#000000" stroke-width="2.5" stroke-linecap="butt"/><path d="M-34.77476,380.45045v-400.9009h549.54955v400.9009z" fill="none" stroke="none" stroke-width="0" stroke-linecap="butt"/></g></g></svg>