<svg version="1.1" xmlns="http://www.w3.org/2000/svg" xmlns:xlink="http://www.w3.org/1999/xlink" width="549.54955" height="400.9009" viewBox="0,0,549.54955,400.9009"><g transform="translate(34.77476,20.45045)"><g data-paper-data="{&quot;isPaintingLayer&quot;:true}" fill-rule="nonzero" stroke-linejoin="miter" stroke-miterlimit="10" stroke-dasharray="" stroke-dashoffset="0" style="mix-blend-mode: normal"><g><g stroke-width="5"><path d="M214.57843,135.89121c0.13944,0.0843 3.95641,5.50044 3.98014,5.66434c1.06775,7.38034 -8.39407,25.99013 -10.94653,33.35732c-1.48366,4.28234 -1.46532,14.31974 -2.35099,19.56081c-0.79778,4.72108 1.08926,20.09372 -3.42986,21.0792c-1.04441,0.22776 -1.94435,0.21249 -2.71932,0.0043c-1.95704,3.51961 -8.36193,2.47415 -10.75588,-0.93282c-1.88225,-0.88817 -2.35244,-3.18093 -2.85057,-5.81229c-0.39316,-2.0767 -0.05943,-4.09715 0.79181,-5.64619c0.28993,-6.32631 -1.45194,-11.22252 -1.05629,-18.60407c0.50173,-9.36104 6.69278,-21.44434 11.3673,-27.67483c1.26063,-1.68024 2.24817,-4.73433 3.64975,-7.03887c0.16706,-2.4748 1.3519,-4.61067 3.14124,-5.58779c2.70184,-5.50622 6.83503,-10.9953 11.17924,-8.3691z" fill="#590909" stroke="none" stroke-linecap="butt"/><path d="M204.83144,214.00793c1.94224,2.47933 0.17236,4.80055 0.17236,4.80055l-1.47244,1.59222c-4.41097,2.38115 -10.20913,-0.1291 -14.67242,2.12952c0,0 -2.37604,1.20237 -3.49811,-1.97398c-1.12208,-3.17637 1.25398,-4.37874 1.25398,-4.37874c4.42611,-2.23978 10.19137,0.28852 14.57185,-2.07694l-0.06728,-0.25069c0,0 1.76982,-2.32123 3.71206,0.15811z" fill="#000000" stroke="none" stroke-linecap="butt"/><g fill="none" stroke="#000000" stroke-linecap="round"><path d="M187.12113,220.58426c0,0 -1.66594,-17.45625 -1.8916,-25.1113c-0.20581,-6.98088 0.59171,-18.98328 0.59171,-18.98328c0,0 3.80741,-8.79546 8.44896,-17.04361c0.37451,-0.66557 7.43375,-11.18055 8.66288,-13.36476c0.4539,-0.80662 1.38927,-2.56346 3.01543,-4.13321c3.68507,-3.5573 9.28831,-7.58388 9.28831,-7.58388"/><path d="M204.46941,181.41467c0,0 0.48229,7.11065 0.22768,11.09051c-0.37861,5.91799 -0.57547,26.29451 -0.57547,26.29451"/><path d="M213.24098,159.82369c-1.2183,1.44272 -0.64395,10.22972 -1.97416,12.45311c-3.18639,5.32591 -6.85887,7.59771 -6.85887,7.59771"/></g><path d="M215.02297,132.23043c2.03633,-1.78837 3.6655,0.54493 3.6655,0.54493l1.77473,3.59515c-0.07715,8.25924 -1.15807,17.34497 -4.71996,24.53117c0,0 -1.26786,2.53873 -3.54677,1.05625c-2.27891,-1.48245 -1.01104,-4.02117 -1.01104,-4.02117c3.14855,-6.24968 4.03639,-14.53145 4.0622,-21.73303l-0.63183,0.1484c0,0 -1.6292,-2.33334 0.40713,-4.12171z" fill="#000000" stroke="none" stroke-linecap="butt"/></g><g stroke="#000000" stroke-linecap="butt"><path d="M198.80715,238.81994c-8.4703,0.72886 -14.95388,-3.00228 -15.69007,-11.55791c-0.7362,-8.55561 5.53355,-16.08218 14.00385,-16.81104c8.47032,-0.72886 15.93368,5.61599 16.66988,14.17161c0.7362,8.55563 -6.51336,13.46848 -14.98366,14.19733z" fill="#ffffff" stroke-width="5"/><path d="M185.86583,223.4918c0.19406,-2.34923 3.1622,-8.01966 5.21095,-8.19595c0.14861,-0.01279 0.7182,-0.75675 2.18945,-1.41767c1.7336,-0.77879 4.10012,-1.02959 4.26614,-0.99589c0.17526,0.03557 0.68835,0.16377 0.78044,0.05935c1.10767,-1.25607 -2.61028,4.80183 -3.47272,6.68831c-0.39558,0.86526 -1.24313,2.86146 -1.57494,7.44908c-0.15691,2.16937 1.72128,7.09121 2.39471,8.62134c0.08189,0.18608 0.50376,0.62194 0.32601,0.71713c-1.1532,0.61756 -4.51339,-0.69731 -6.66358,-1.88779c-0.95937,-0.53117 -2.42216,-2.26237 -3.19331,-4.41944c-0.4781,-1.33736 -0.49373,-3.03362 -0.5531,-4.11889c-0.06794,-1.24187 0.23165,-1.79369 0.28996,-2.49957z" fill="#c5c5c5" stroke-width="0"/></g></g><g><path d="M262.04447,308.97825l0.37466,0.67185c1.25128,-0.2491 1.30908,-2.17516 2.24618,-3.01961c1.29977,-1.17127 3.10923,-1.73214 4.82006,-2.17983c0.72001,-0.18841 1.46427,-0.35924 2.21767,-0.48751l-0.12652,-0.12607c1.42005,-0.63459 10.17654,-6.53884 11.55791,-0.11092c0.94466,0.03286 1.90744,0.07652 2.83834,0.16364c1.57631,1.39362 3.08359,2.84981 4.5394,3.85864c0,0 2.20002,1.5319 0.62158,3.67262c-1.57842,2.14074 -3.77839,0.60881 -3.77839,0.60881c-1.22032,-0.8534 -2.53364,-2.15575 -3.89895,-3.4205c-1.12814,-0.08783 -2.42758,-0.0314 -3.75597,-0.02828c-0.47381,0.21429 -0.93617,0.41532 -1.34528,0.61273c-2.03145,0.98011 -7.98834,-1.15365 -9.54196,0.81634c-0.56925,0.72183 0.0719,2.00738 -0.56754,2.67134c-0.96227,0.99921 -2.51739,1.22596 -3.77606,1.83893l-3.87114,-0.46683c0,0 -2.60932,-0.69982 -1.88632,-3.23747c0.47197,-1.65659 1.74784,-1.93353 2.57686,-1.92615c-1.50223,-6.30717 7.75745,-6.46183 11.56691,-7.55608c2.65111,-0.76153 3.69959,-2.16735 6.86111,-1.3773c2.2155,0.55365 4.28936,2.19472 6.25576,3.93324c4.42242,0.41391 8.12511,1.80885 5.74374,7.68632c-0.61936,1.52862 -2.06444,2.60242 -3.09664,3.90362c-4.47652,-1.0554 -8.58895,-2.7482 -13.19,-3.08646c-2.30692,-0.1696 -7.53,1.19635 -9.22961,0.79471c-1.73964,-0.41109 -3.76738,-1.31266 -4.44954,-2.92161c-0.20727,-0.48885 -0.35945,-0.94691 -0.46175,-1.37646c0.44092,0.00394 0.75548,0.08827 0.75548,0.08827zM271.37107,306.91891c-0.10618,0.01925 -0.21798,0.03438 -0.3342,0.04636c0.63198,-0.00844 1.2672,0.01938 1.89786,0.02547c0.60296,0.00584 1.21985,0.0167 1.84492,0.03781l-0.92315,-0.91974c-1.02927,0.37077 -1.96035,0.71494 -2.48548,0.81013zM266.70061,308.12508c-0.16573,0.97235 1.84698,-0.87854 2.84655,-1.04283c0.1908,-0.03136 0.38252,-0.055 0.57486,-0.07256c-1.50234,0.02297 -3.21895,-0.07255 -3.42145,1.11539zM286.85011,310.5062c-0.4502,-1.25367 -1.59873,-1.71125 -3.08792,-1.86883c1.11867,0.47366 2.16242,1.08349 3.08792,1.86883zM283.27392,308.44091c-0.41548,-0.38232 -0.83566,-0.75921 -1.25926,-1.11708c-0.23584,0.17296 -0.49349,0.33523 -0.76375,0.48889c0.69153,0.17129 1.36859,0.37822 2.02299,0.62818z" data-paper-data="{&quot;index&quot;:null}" fill="#3c2700" stroke="none" stroke-width="5" stroke-linecap="butt"/><path d="M234.1013,310.60502c-0.08351,0.43355 -0.21565,0.89785 -0.40144,1.39525c-0.61149,1.63709 -2.59814,2.62602 -4.31823,3.11238c-1.68053,0.47519 -6.9581,-0.66229 -9.25546,-0.3925c-4.582,0.53808 -8.61688,2.40816 -13.04325,3.65728c-1.08784,-1.25507 -2.57825,-2.265 -3.2635,-3.76525c-2.63476,-5.76832 1.00374,-7.32298 5.40398,-7.92887c1.88892,-1.82239 3.88945,-3.55214 6.07874,-4.20163c3.12416,-0.92683 4.23278,0.43209 6.91451,1.07758c3.85347,0.92749 13.11112,0.67924 11.88462,7.04578c0.82792,-0.04343 2.1146,0.17775 2.65821,1.81222c0.83272,2.50381 -1.74371,3.31645 -1.74371,3.31645l-3.84717,0.63477c-1.28419,-0.55763 -2.84767,-0.71646 -3.85248,-1.67287c-0.66773,-0.63551 -0.08311,-1.94779 -0.68321,-2.64416c-1.63785,-1.90054 -7.49627,0.49033 -9.56843,-0.4005c-0.41732,-0.17939 -0.88803,-0.36018 -1.37067,-0.55363c-1.32727,0.05466 -2.62794,0.05481 -3.75118,0.19162c-1.309,1.32297 -2.56441,2.68119 -3.74643,3.58684c0,0 -2.13127,1.62617 -3.80131,-0.44389c-1.67004,-2.07004 0.46125,-3.6962 0.46125,-3.6962c1.41058,-1.07119 2.85305,-2.59162 4.36724,-4.05246c0.92623,-0.12755 1.88622,-0.21302 2.82853,-0.28693c1.10045,-6.48192 10.10553,-0.96417 11.5518,-0.39194l-0.1209,0.13144c0.75826,0.09537 1.50922,0.23367 2.23676,0.39059c1.72869,0.37283 3.56082,0.85444 4.91032,1.96807c0.97294,0.80288 1.11446,2.72461 2.37538,2.91904l0.34511,-0.6875c0,0 0.31058,-0.09798 0.75091,-0.12107zM221.42466,308.37314l-0.88222,0.95903c0.62357,-0.04827 1.23941,-0.08593 1.84154,-0.11799c0.62982,-0.03353 1.26321,-0.08898 1.89495,-0.10802c-0.11662,-0.00689 -0.22894,-0.01716 -0.33586,-0.03177c-0.52878,-0.07225 -1.47397,-0.37557 -2.51841,-0.70124zM225.19485,309.11076c0.19294,0.00917 0.38549,0.02443 0.57748,0.04748c1.00581,0.12065 3.0971,1.88222 2.88922,0.91801c-0.25393,-1.17803 -1.9648,-1.00789 -3.4667,-0.96549zM211.63838,311.33018c-1.48092,0.22222 -2.60841,0.72931 -3.00366,2.0014c0.89045,-0.82487 1.90665,-1.47953 3.00366,-2.0014zM214.11141,310.3971c-0.27668,-0.14179 -0.54109,-0.29267 -0.78426,-0.4552c-0.40763,0.37594 -0.81098,0.77071 -1.20949,1.17077c0.64288,-0.27819 1.31033,-0.51434 1.99373,-0.71556z" fill="#3c2700" stroke="none" stroke-width="5" stroke-linecap="butt"/><path d="M239.91819,272.49289c-0.08138,1.79342 0.06568,3.29289 -0.39381,5.01332c-0.95571,6.10942 2.17192,9.30939 0.28057,14.91616c1.92061,2.52094 0.54709,8.51258 -0.98861,13.69699c-0.06529,0.22047 -0.13442,0.4357 -0.20718,0.64585c0.0633,0.42501 0.10058,0.85849 0.11015,1.2989c0.03958,1.81865 0.6934,4.29962 -0.10912,5.81043c-0.91987,1.73167 -3.27011,-3.95878 -8.95402,-7.66008c-5.21003,-3.39271 -13.82999,-4.75369 -13.83513,-4.81912c-0.7212,-9.15431 -2.22657,-17.81689 -0.05485,-26.31315c0.07881,-1.3491 0.10636,-2.62827 0.05822,-3.81854c-0.31441,-7.77375 1.80953,-25.28744 2.93709,-37.35292c0.46037,-4.92631 -0.74423,-10.08817 1.88947,-12.88522c1.76767,-1.8773 6.27802,-2.27731 10.39047,-2.36679c8.11658,-0.17661 19.65435,2.20222 27.77145,2.33392c2.43926,0.03957 5.85586,1.62787 8.13049,2.48266c3.39219,1.27476 7.6659,-2.10314 10.2924,0.34142c1.65373,1.53917 -1.24327,6.38213 -1.12542,9.81819c0.12043,3.51188 1.37928,6.71233 1.27456,9.19258c-0.63972,15.1512 0.45816,28.43267 0.4552,43.44148c-0.00068,3.34292 -1.35705,6.38078 -1.07013,9.78507c0.09573,1.13592 -15.19378,14.90705 -21.44568,13.54756c-1.25844,-0.27364 -1.7899,-2.49457 -2.15339,-4.08537c-0.26889,-1.17674 1.17831,-3.55307 1.71515,-4.46058c0.55319,-0.93518 -2.00758,-5.87724 -2.03053,-6.93181c-0.16548,-7.60442 -1.95503,-20.54708 0.2211,-27.87349c0.40018,-1.3474 -0.93123,-8.7907 -1.07825,-10.45593c-0.37515,-4.24881 0.28734,-6.56055 -0.08071,-10.83175c-0.127,-1.47388 1.16007,-5.53231 -0.35858,-5.62098c-1.91791,-0.11201 -3.94685,-5.07371 -5.86876,-5.02375c-1.5133,0.03933 -2.91924,5.07044 -4.43252,5.1465c-0.1343,2.81224 -1.79273,7.16017 -2.07641,9.82625c0.20292,0.72855 0.34224,2.94185 0.35854,3.69124c0.08004,3.67853 -0.79168,6.67443 -0.32549,10.93735c0.59436,2.9242 0.10007,5.12566 -0.03406,8.08167z" fill="#001525" stroke="none" stroke-width="5" stroke-linecap="butt"/><path d="M241.82419,233.99444c-0.66706,1.26851 -1.58622,2.08343 -2.66815,2.58198c-3.52723,1.62534 -8.78433,-0.11186 -12.6752,-0.45648c-2.70261,-0.23937 -5.43785,1.0431 -7.25194,-1.38976c-1.15683,-1.55141 -1.54504,-4.82814 -0.68866,-6.72484c-0.02253,-0.12121 -0.03637,-0.24559 -0.04082,-0.37251c-0.04299,-1.227 0.80573,-2.27842 1.96453,-2.53031c0.09573,-0.03468 0.19747,-0.05746 0.30618,-0.06638c2.45735,-0.2015 6.6931,1.18372 9.09319,1.75912c6.87283,1.64769 14.41935,1.98384 21.45642,1.88491c0.86674,-0.01218 2.1356,-0.07814 3.39546,0.0209c0.23934,-0.18725 0.56203,-0.33375 1.01729,-0.43873c2.85906,-0.65929 7.32491,-0.38459 9.11467,-0.44776c2.8675,-0.10122 6.73324,-2.9486 9.1217,-0.64149c2.1558,2.08238 3.05069,8.909 -0.68171,9.91938c-2.66953,0.72266 -5.59026,0.219 -8.18384,0.93725c-2.38532,0.66059 -10.33204,4.25907 -12.27854,1.38753c-1.71792,-2.53432 1.63712,-4.27007 2.75524,-5.3753c-1.28499,0.13808 -2.58944,0.0445 -3.24601,-0.07735c-3.69269,-0.68532 -7.48563,-0.98005 -11.30027,-1.24742z" fill="#000a12" stroke="none" stroke-width="0.5" stroke-linecap="butt"/><path d="M231.01856,306.74123c1.58563,0.76444 5.97578,3.54542 5.62041,5.7148c-0.38102,2.32602 -1.22698,2.93383 -3.553,2.5528c-1.57657,-0.25826 -2.23513,-2.28997 -3.45427,-3.32243c-1.91762,-1.62399 -5.31072,-2.72979 -7.60674,-3.78508c-1.16099,-0.53361 -5.3639,-0.48093 -7.61858,-0.88986c-0.19633,-0.01966 -4.05936,-0.58608 -4.24011,-0.64881c-0.9473,-0.32873 2.03113,-0.68898 1.99391,-1.75119c-0.04835,-1.37986 1.03105,-2.53767 2.41092,-2.58602c0.30729,-0.01077 0.60356,0.0344 0.87902,0.12635c4.69408,-1.42805 11.29324,2.52835 15.56844,4.58943z" fill="#1c1200" stroke="none" stroke-width="0.5" stroke-linecap="butt"/><path d="M277.95732,298.60974c0.27885,-0.13791 0.58758,-0.23321 0.91724,-0.27523c1.48028,-0.18869 2.82181,0.76868 2.99639,2.1383c0.13439,1.05433 4.52398,2.7846 3.56705,3.2712c-0.18258,0.09284 -5.36418,-0.57166 -5.57044,-0.51862c-2.33878,0.78969 -6.83206,1.45772 -7.98341,2.18306c-2.27696,1.43446 -5.71625,3.1067 -7.49622,5.0374c-1.13163,1.22746 -1.50132,3.34472 -3.14124,3.8696c-2.41947,0.77438 -3.42176,0.31966 -4.20959,-1.90988c-0.73477,-2.07939 3.49384,-5.57513 5.06046,-6.60093c4.22395,-2.76582 10.61697,-7.79963 15.85977,-7.19488z" data-paper-data="{&quot;index&quot;:null}" fill="#1c1200" stroke="none" stroke-width="0.5" stroke-linecap="butt"/><g fill="none" stroke="#000000" stroke-width="5" stroke-linecap="round"><path d="M259.71743,233.09245l-4.4915,1.45469l-14.80477,0.207l-1.21707,64.86368l0.90486,16.2612l-37.65561,1.4009l0.37769,-9.11151l12.9321,-6.83254l2.76216,-81.08273"/><path d="M275.26317,222.7607l1.49905,74.72047l12.89198,7.26764l0.22139,9.26246l-35.89618,1.16149l-0.51815,-18.23901c0,0 -0.5256,-56.50909 -0.74171,-61.11435c-0.02789,-0.59454 1.3563,-0.64977 1.3563,-0.64977"/><path d="M274.65085,221.87306l-56.51809,-2.92809"/></g><path d="M237.87661,316.25282c-2.39561,1.22963 -3.65746,-1.09792 -3.65746,-1.09792l-0.65246,-1.36118c-1.41157,-6.05494 -11.35445,-9.12707 -17.02393,-9.65838c0,0 -2.69086,-0.28944 -2.38983,-2.90588c0.30101,-2.61644 2.99186,-2.32698 2.99186,-2.32698c8.37613,0.98778 19.29179,5.06078 21.6716,13.59287l0.19405,0.20028c0,0 1.26185,2.32756 -1.1338,3.55718z" fill="#000000" stroke="none" stroke-width="5" stroke-linecap="butt"/><path d="M275.56645,295.615c2.35074,1.3035 1.00707,3.59049 1.00707,3.59049l2.58115,0.01652c-8.50912,3.37315 -18.29438,8.08458 -22.43253,16.62959c0,0 -1.1594,2.38024 -3.60627,1.25598c-2.44687,-1.12426 -1.28745,-3.50448 -1.28745,-3.50448c4.77912,-9.76026 21.38729,-19.29158 23.73803,-17.98806z" fill="#000000" stroke="none" stroke-width="5" stroke-linecap="butt"/></g><g><path d="M323.10776,221.28408c-2.59666,4.52403 -8.10563,4.76423 -12.53954,2.17455c-4.43393,-2.58969 -9.3281,-29.77632 -6.73141,-34.30035c2.59666,-4.52403 11.57415,-5.32887 16.00808,-2.73918c4.43393,2.58969 5.85955,30.34095 3.26288,34.86498z" fill="#0d1522" stroke="#000000" stroke-width="2.5" stroke-linecap="butt"/><path d="M326.59088,184.23619c-6.47101,8.88959 -18.79014,10.86096 -27.51556,4.40315c-8.72541,-6.45779 -10.553,-18.8993 -4.08198,-27.78889c6.47101,-8.88959 18.79013,-10.86095 27.51555,-4.40315c8.72541,6.45779 10.553,18.8993 4.08199,27.78889z" fill="#465e85" stroke="#000000" stroke-width="3" stroke-linecap="butt"/><path d="M322.13793,191.18236c-0.0973,0.13368 -5.84225,1.51242 -10.66989,1.79431c-4.27031,0.24935 -7.70359,-0.57809 -7.61191,-0.70405c0.10273,-0.14113 -3.83351,-1.56103 -2.9818,-2.63242c0.65139,-0.8194 4.83238,-3.18071 6.06834,-3.77488c1.13929,-0.54768 2.92693,-1.09492 4.66959,-1.29657c1.38838,-0.16066 3.88471,-0.31859 6.40559,0.43183c2.93818,0.87463 5.49248,2.19649 5.74966,2.50127c1.62179,1.922 -1.33708,3.27866 -1.6296,3.6805z" fill="#0d1522" stroke="#000000" stroke-width="3" stroke-linecap="butt"/><path d="M291.63633,177.87218c0,0 -1.74688,-5.05813 -1.41151,-7.71312c0.32975,-2.6105 3.40711,-8.08566 3.40711,-8.08566c0,0 8.04462,6.58699 12.87393,9.44799c5.44191,3.2239 18.15972,8.93705 18.15972,8.93705c0,0 0.33105,1.86725 -0.97379,2.19183c-4.04388,1.00589 -26.47971,4.63707 -26.47971,4.63707z" fill="#313243" stroke="none" stroke-width="0" stroke-linecap="butt"/><path d="M328.80179,164.48112c0,0 -0.42293,5.94208 -1.21327,8.58772c-0.89333,2.99038 -3.87567,8.44731 -3.87567,8.44731" fill="none" stroke="#000000" stroke-width="2" stroke-linecap="round"/><path d="M310.57685,153.10801c0,0 2.15265,8.87081 2.38694,13.24939c0.23711,4.4313 -0.97261,13.18215 -0.97261,13.18215" fill="none" stroke="#000000" stroke-width="2" stroke-linecap="round"/><path d="M307.49521,180.44281c0,0 -3.35483,-7.03725 -3.79077,-11.47748c-0.44718,-4.55474 1.14053,-15.51618 1.14053,-15.51618" fill="none" stroke="#000000" stroke-width="2" stroke-linecap="round"/><path d="M304.60405,181.65243c0,0 -4.0232,-4.58001 -5.40603,-8.10397c-1.47131,-3.74947 -3.17289,-13.75832 -3.17289,-13.75832" fill="none" stroke="#000000" stroke-width="2" stroke-linecap="round"/><path d="M301.09376,183.46148c0,0 -4.36712,-3.64611 -5.9506,-6.14865c-1.69548,-2.67957 -3.90928,-9.43406 -3.90928,-9.43406" fill="none" stroke="#000000" stroke-width="2" stroke-linecap="round"/><path d="M295.49332,183.37102c0,0 2.75309,-3.84445 6.43555,-6.55076c3.1166,-2.29045 7.00649,-3.48599 9.34607,-3.73275c1.62653,-0.17156 4.59822,0.17716 6.70772,1.05545c4.86177,2.02421 8.99035,5.90783 8.99035,5.90783" fill="none" stroke="#000000" stroke-width="2" stroke-linecap="round"/><path d="M291.90155,175.24795c0,0 1.98272,-2.94932 5.18894,-5.58343c3.97676,-3.26719 9.60578,-6.4095 12.95396,-7.08726c2.50224,-0.50652 6.43753,-0.31126 9.73604,0.7808c4.83395,1.60038 8.77889,4.46938 8.77889,4.46938" fill="none" stroke="#000000" stroke-width="2" stroke-linecap="round"/><path d="M323.67562,188.09598c-0.25646,0.35232 -3.73396,-3.68929 -9.83627,-3.62651c-6.50036,0.0669 -14.3651,6.74109 -14.09191,6.36579c0.14369,-0.19739 -4.89525,-1.83817 -3.7108,-3.34159c0.90586,-1.14982 6.52242,-4.62336 8.17569,-5.51017c1.52393,-0.81744 3.89378,-1.67926 6.18135,-2.0721c1.82249,-0.31298 5.09047,-0.69925 8.32842,0.1373c3.77393,0.97503 7.01644,2.57961 7.33119,2.97259c1.98482,2.47833 -1.96853,4.51266 -2.37765,5.07469z" fill="#465e85" stroke="#000000" stroke-width="3" stroke-linecap="butt"/><path d="M296.66468,186.59559c-6.81273,-6.78525 -8.03919,-18.00166 -2.14648,-26.09678c6.47101,-8.88959 19.26529,-10.50928 27.99072,-4.05148c8.18483,6.05769 9.79968,18.06797 4.68917,26.78529c-0.18287,0.31195 -7.3608,-4.8135 -15.51898,-3.69283c-6.89998,0.94784 -14.70803,7.36093 -15.01441,7.0558z" fill="none" stroke="#000000" stroke-width="3" stroke-linecap="butt"/><path d="M319.75354,155.31648c0,0 2.47362,9.2249 2.15019,13.06924c-0.33686,4.00412 -4.13267,10.49567 -4.13267,10.49567" fill="none" stroke="#000000" stroke-width="2" stroke-linecap="round"/><path d="M305.78958,184.70825c0.16621,0.73848 -0.50878,1.521 -1.50761,1.74782c-0.99883,0.22681 -1.94331,-0.18797 -2.1095,-0.92646c-0.16621,-0.73847 0.50878,-1.521 1.50761,-1.74782c0.99884,-0.22681 1.9433,0.18798 2.10949,0.92646z" fill="#6283b8" stroke="none" stroke-width="0" stroke-linecap="butt"/><path d="M312.15056,182.06273c0.55797,0.65237 0.02277,1.41997 -1.19537,1.7145c-1.21815,0.29452 -2.65797,0.00442 -3.21594,-0.64795c-0.55797,-0.65237 -0.02279,-1.41995 1.19535,-1.71448c1.21815,-0.29452 2.65798,-0.00443 3.21595,0.64794z" fill="#6283b8" stroke="none" stroke-width="0" stroke-linecap="butt"/><path d="M294.48868,161.64975c0,0 9.70041,-3.6606 16.27292,-4.52681c6.57251,-0.86621 12.84117,0.68978 12.84117,0.68978" fill="none" stroke="#000000" stroke-width="2" stroke-linecap="round"/><path d="M307.66529,153.70819c0,0 0.80228,8.48303 1.03657,12.86161c0.23711,4.4313 0.37777,13.56993 0.37777,13.56993" fill="none" stroke="#000000" stroke-width="2" stroke-linecap="round"/><path d="M309.78252,164.07091c-0.20495,0.96685 -1.36763,1.53112 -2.59689,1.26031c-1.22926,-0.27079 -2.05961,-1.27411 -1.85466,-2.24097c0.20495,-0.96685 1.36762,-1.53113 2.59689,-1.26033c1.22926,0.27079 2.05962,1.27412 1.85467,2.24098z" fill="#6283b8" stroke="none" stroke-width="0" stroke-linecap="butt"/><path d="M306.91297,158.60836c-0.10295,1.18983 -1.47752,2.03355 -3.07017,1.88452c-1.59265,-0.14903 -2.80029,-1.23439 -2.69734,-2.42422c0.10295,-1.18983 1.47751,-2.03357 3.07016,-1.88454c1.59265,0.14903 2.8003,1.23441 2.69736,2.42425z" fill="#6283b8" stroke="none" stroke-width="0" stroke-linecap="butt"/></g><g><path d="M278.67972,157.00986c0.06344,0.42647 1.13249,2.81718 1.08112,3.23305c-0.04727,0.59362 0.48744,0.99941 0.2575,1.52715c-0.55213,1.58865 1.29046,3.63837 1.44263,5.20507c0.68981,7.10182 3.79884,14.33232 5.83697,21.32427c0.51035,1.75076 3.97326,-1.12021 5.47034,-0.07885c5.21689,3.6288 7.22214,12.09393 6.35896,18.04212c-0.71898,4.9545 -11.41499,3.2045 -15.21552,0.56087c-2.07163,-1.44097 -4.74507,-0.95743 -6.08992,-4.22155c-2.34027,-5.68004 -6.18772,-11.97107 -6.82061,-19.96737c-0.576,-7.27731 0.24664,-17.17152 -0.13507,-20.94295c-0.20924,-2.06738 -0.62308,-16.34609 1.75823,-16.7215c0.77357,-0.62129 2.60896,6.79979 3.6696,6.69244c2.59786,-0.26293 1.66163,1.72366 2.35833,4.1475c0.087,0.19831 -0.00669,0.97034 0.02743,1.19978z" fill="#590909" stroke="none" stroke-width="5" stroke-linecap="butt"/><path d="M300.0861,210.88658c-2.57959,0.52435 -3.10397,-2.05526 -3.10397,-2.05526l-0.60312,-2.98352c-0.57515,-5.62209 -2.13255,-10.99455 1.05916,-15.94361c0,0 1.50316,-2.16098 3.66413,-0.65783c2.16098,1.50315 0.65783,3.66413 0.65783,3.66413c-2.38902,3.00327 -0.54392,8.46911 -0.17606,12.14695l0.55727,2.7252c0,0 0.52435,2.57961 -2.05526,3.10397z" fill="#000000" stroke="none" stroke-width="5" stroke-linecap="butt"/><g fill="none" stroke="#000000" stroke-width="5" stroke-linecap="round"><path d="M306.02597,188.31659c0,0 -10.88292,0.73723 -14.14411,-0.42921c-2.19693,-0.7858 -6.13071,-1.58313 -6.13071,-1.58313c0,0 -4.06083,-16.58669 -6.15107,-24.51262c-1.48469,-5.6298 -5.20739,-18.55698 -5.20739,-18.55698"/><path d="M304.48058,212.47916c0,0 -14.00813,-2.41274 -18.72295,-3.69803c-2.53689,-0.69158 -7.3458,-3.40854 -7.3458,-3.40854"/></g><path d="M294.933,200.80119c-0.607,-5.99735 1.10305,-11.08202 3.81949,-11.35696c2.71644,-0.27494 5.41063,4.36399 6.01763,10.36134c0.607,5.99735 -1.10304,11.08205 -3.81949,11.35699c-2.71644,0.27494 -5.41063,-4.36401 -6.01764,-10.36136z" fill="#ffffff" stroke="#000000" stroke-width="5" stroke-linecap="butt"/><path d="M301.27056,200.93415c-0.80695,-7.97294 4.63045,-15.05283 12.14477,-15.81337c7.51432,-0.76054 14.26006,5.08628 15.06701,13.05922c0.80695,7.97294 -4.63045,15.05283 -12.14477,15.81336c-7.51432,0.76054 -14.26006,-5.08628 -15.06701,-13.05921z" fill="#ffffff" stroke="#000000" stroke-width="5" stroke-linecap="butt"/><path d="M304.2757,194.82234c0.34902,-1.03624 0.82035,-2.68071 1.63978,-3.82745c1.32169,-1.8496 3.19382,-3.06268 4.2591,-3.27069c2.38757,-0.46621 5.97196,-0.66427 6.91459,0.3071c0.14529,0.14972 -0.37756,0.43791 -0.50636,0.59252c-1.0591,1.27139 -4.1889,5.45353 -4.62161,7.61353c-0.91506,4.56782 -0.63718,6.78153 -0.48961,7.75015c0.32173,2.11179 2.26678,9.19826 1.53968,7.62062c-0.06044,-0.13115 -0.58824,-0.1715 -0.76632,-0.19327c-0.16868,-0.02062 -2.37654,-1.0255 -3.83383,-2.34031c-1.23676,-1.11583 -1.58426,-2.02244 -1.7237,-2.08266c-1.92237,-0.83025 -3.25073,-7.29881 -2.80536,-9.64567c0.13382,-0.70516 -0.00577,-1.33811 0.39361,-2.52389z" data-paper-data="{&quot;index&quot;:null}" fill="#c5c5c5" stroke="#000000" stroke-width="0" stroke-linecap="butt"/></g><path d="" fill="#595959" stroke="none" stroke-width="0.5" stroke-linecap="butt"/><path d="M214.54686,223.43954c0,0 -3.11248,-28.8985 -2.11257,-50.32865c0.60171,-12.89585 2.72097,-26.08642 6.61553,-36.8104c1.65229,-4.54974 7.32028,-14.17468 7.32028,-14.17468l57.49743,4.16603c0,0 -7.52527,5.35327 -10.02719,14.12551c-3.38755,11.8774 -1.99607,29.08059 -1.70381,38.93491c0.07598,2.56179 3.10266,7.44496 3.34397,10.07153c1.6738,18.2196 3.863,34.39264 3.863,34.39264c0,0 -4.41253,4.21195 -11.17372,6.07385c-6.28641,1.73116 -14.71383,1.12432 -20.68016,1.06198c-4.89936,-0.05118 -11.6003,-2.29998 -17.71087,-3.14014c-8.37429,-1.15142 -15.23186,-4.37255 -15.23186,-4.37255z" fill="#590909" stroke="#000000" stroke-width="5" stroke-linecap="butt"/><path d="M270.73364,147.89064c0,0.34408 -0.83997,2.94111 -1.00811,3.27187c-0.23005,0.45253 0.04286,1.0471 -0.44497,1.43658c-3.15453,2.51857 -12.1162,3.55299 -22.77066,3.55299c-13.50635,0 -27.15901,-8.72632 -27.15901,-12.58528c0,-1.14735 2.01704,-6.47606 3.60331,-9.2608c0.46818,-0.8219 -0.31723,-1.2107 0.31354,-1.46875c4.42012,-1.80832 16.84369,11.50152 25.14909,11.50152c9.64029,0 18.23201,-2.72868 22.21519,-0.41308c1.59738,0.92863 0.10161,2.86037 0.10161,3.96496z" fill="#260404" stroke="none" stroke-width="0" stroke-linecap="butt"/><g stroke-linecap="butt"><path d="M297.14014,108.39039c-1.19121,8.35189 -1.62605,17.48334 -6.54539,23.67661c-10.0869,12.69904 -29.59348,18.23775 -47.04591,15.74854c-11.37751,-1.62276 -21.68456,-7.12007 -28.87536,-14.87978c-9.21885,-9.94824 -13.59842,-23.64286 -11.55701,-37.95575c3.63374,-25.47707 27.62738,-43.12831 53.5913,-39.42513c5.98665,0.85386 16.79703,-4.08906 25.30941,-3.13239c3.01664,0.33904 3.64097,7.23498 6.58189,7.3137c5.78517,0.15484 8.47336,-4.0556 10.95225,-1.07838c3.21662,3.86328 2.32729,10.01632 0.91176,17.38585c-2.16087,11.2499 -2.16596,24.23485 -3.32295,32.34672z" fill="#f5f5f5" stroke="none" stroke-width="0"/><path d="M255.55515,68.39299c-5.79862,-0.82704 -16.8724,-0.07681 -24.34626,3.27381c-13.13139,5.88695 -22.55915,16.31158 -25.75843,15.34069c-1.2414,-0.37673 11.39795,-16.3174 11.64745,-18.06674c1.25848,-8.82357 18.44317,-13.67098 38.38306,-10.82701c6.62806,0.94535 18.03284,-5.583 25.48611,-5.47893c4.55874,0.06364 5.39281,6.84832 9.32572,6.93368c8.98125,0.19495 11.23336,-1.2351 10.64906,2.86155c-0.18475,1.29536 1.42202,4.37889 0.18068,5.24337c-7.21424,5.02403 -28.5548,3.14606 -45.56738,0.71958z" fill="#ffffff" stroke="none" stroke-width="0"/><path d="M280.81206,137.59143c-1.25848,8.82357 -18.44318,13.67098 -38.38306,10.82701c-15.63539,-2.23005 -25.03148,-10.41985 -29.17357,-17.28868c-1.14034,-1.89102 -4.92375,-1.93253 -4.6521,-3.8373c0.52696,-3.69462 2.063,-3.54397 6.879,-1.06607c0.08262,0.04251 4.77043,2.73491 4.92833,2.82039c6.6136,3.57952 14.55552,8.03861 24.96334,9.52307c19.93988,2.84398 36.69655,-9.80196 35.43806,-0.97839z" data-paper-data="{&quot;index&quot;:null}" fill="#cccccc" stroke="none" stroke-width="0"/><path d="M296.71342,109.49184c-0.58576,4.10686 0.59129,12.85131 -0.97554,16.49479c-8.15302,18.95906 -30.83717,26.0366 -52.61576,22.93037c-25.96392,-3.70318 -44.06609,-27.35847 -40.43234,-52.83555c1.45229,-10.18238 6.15677,-19.1147 12.93943,-25.9333c10.18804,-10.24202 25.0649,-15.71496 40.65186,-13.49183c3.29564,0.47004 8.9513,0.81467 14.96499,-1.01004c4.12223,-1.2508 8.73109,-6.4988 8.73109,-6.4988c0,0 5.49207,11.7729 6.61786,11.78285c10.66718,0.09414 15.44905,-9.6225 15.44905,-9.6225c0,0 0.2083,13.06842 -1.00532,27.15202c-1.03774,12.04259 -3.43702,24.80397 -4.32531,31.03203z" fill="none" stroke="#000000" stroke-width="5"/><path d="M272.31458,138.58914c-0.36368,2.54984 -2.75465,4.31792 -5.34041,3.94912c-2.58576,-0.3688 -4.3871,-2.73483 -4.02343,-5.28467c0.36368,-2.54983 2.75466,-4.31792 5.34042,-3.94912c2.58576,0.3688 4.38708,2.73483 4.02341,5.28466z" fill="#cccccc" stroke="none" stroke-width="0"/><path d="M264.84295,140.81839c-0.2766,1.93932 -2.0951,3.28406 -4.06174,3.00356c-1.96663,-0.28049 -3.33667,-2.07999 -3.06007,-4.01933c0.2766,-1.93932 2.0951,-3.28405 4.06173,-3.00356c1.96663,0.28049 3.33667,2.08001 3.06007,4.01932z" fill="#cccccc" stroke="none" stroke-width="0"/></g><path d="M234.78663,94.2013c0.20822,-2.63751 1.38086,-5.5011 3.99162,-8.66888c2.45346,-2.97694 6.71842,-3.31098 7.97533,-3.21175c1.0571,0.08345 4.52737,1.12606 6.14645,3.50676c2.61378,3.8433 2.91858,7.02625 2.68259,10.01561c-0.73674,9.33224 -5.98935,16.52997 -11.73199,16.07661c-5.74264,-0.45335 -9.80074,-8.38611 -9.064,-17.71835z" fill="#000000" stroke="none" stroke-width="5" stroke-linecap="butt"/><path d="M265.34074,101.83354c0.2745,-3.47705 1.68071,-4.21813 3.94028,-4.37092c1.86209,-0.12591 4.3388,0.05267 6.93322,0.25749c2.76365,0.21818 5.77491,0.37312 7.58747,0.8887c1.9538,0.55576 2.59475,1.57634 2.33501,4.86647c-0.50071,6.34246 -5.56198,11.11649 -11.30462,10.66313c-5.74264,-0.45335 -9.99208,-5.96242 -9.49137,-12.30488z" fill="#000000" stroke="none" stroke-width="5" stroke-linecap="butt"/><path d="M226.49706,108.21333c0.03584,-0.01452 0.07201,-0.02775 0.10842,-0.03971c0.27183,-0.13296 0.58174,-0.1971 0.90525,-0.17156c0.46785,0.03693 0.87816,0.25464 1.16777,0.57916c0.17552,0.05503 0.34143,0.14061 0.48917,0.25899c1.82057,1.45886 1.13872,3.51132 3.63334,4.94501c0.9986,0.57391 11.08881,3.34504 11.03553,5.63276c-0.06719,2.8851 -4.85874,0.83028 -6.21755,0.33935c-0.74873,1.33951 -4.14895,1.74041 -5.46695,2.35368c-2.79699,1.30145 -7.64717,3.8436 -10.75247,2.80156c-5.35693,-1.79762 -2.50963,-10.2401 0.29122,-12.84928c1.30872,-1.21915 2.92541,-2.86164 4.57891,-3.68425zM222.07285,118.18451c-0.2317,0.70272 -0.45171,2.91356 0.513,3.28541c1.311,0.50533 6.99418,-1.85592 10.45902,-3.45005c-2.51835,-1.2857 -4.48436,-3.0419 -5.86092,-5.58139c-1.9916,1.69941 -4.10379,2.69095 -5.11111,5.74605z" fill="#000000" stroke="none" stroke-width="0.5" stroke-linecap="butt"/><path d="M227.17978,112.03972c1.37656,2.5395 3.39618,4.35306 5.91452,5.63877c-3.46485,1.59413 -9.23542,3.98039 -10.54642,3.47506c-0.96471,-0.37186 -0.75594,-2.60632 -0.52424,-3.30904c1.00733,-3.05509 3.16454,-4.10538 5.15613,-5.80478z" data-paper-data="{&quot;noHover&quot;:false,&quot;origItem&quot;:[&quot;Path&quot;,{&quot;applyMatrix&quot;:true,&quot;selected&quot;:true,&quot;segments&quot;:[[[457.64025,234.67183],[1.52753,-6.24979],[-0.35136,1.43757]],[[459.1802,241.14152],[-1.98197,-0.58956],[2.6934,0.80118]],[[479.49033,232.61657],[-6.65728,3.72374],[-5.22343,-2.16704]],[[466.92633,222.4109],[3.1443,4.84658],[-3.70336,3.70175]]],&quot;closed&quot;:true}]}" fill="#ff8c8c" stroke="none" stroke-width="0.5" stroke-linecap="butt"/><path d="M-34.77476,380.45045v-400.9009h549.54955v400.9009z" fill="none" stroke="none" stroke-width="0" stroke-linecap="butt"/></g></g></svg>