<svg version="1.1" xmlns="http://www.w3.org/2000/svg" xmlns:xlink="http://www.w3.org/1999/xlink" width="549.54955" height="400.9009" viewBox="0,0,549.54955,400.9009"><g transform="translate(34.77475,20.45045)"><g data-paper-data="{&quot;isPaintingLayer&quot;:true}" fill-rule="nonzero" stroke-linejoin="miter" stroke-miterlimit="10" stroke-dasharray="" stroke-dashoffset="0" style="mix-blend-mode: normal"><path d="M290.77588,134.29275c0.40192,0.15605 4.64969,1.49506 4.98555,1.74562c0.49232,0.335 3.8374,0.05963 4.18204,0.52071c1.10684,1.26632 1.89294,1.23415 3.32945,1.87771c6.51166,2.91717 8.88693,6.00192 15.97076,7.69327c1.77378,0.42351 0.99413,-4.00666 2.64016,-4.79169c5.73587,-2.73564 14.08334,-0.28631 18.82376,3.4089c3.9485,3.07789 -2.86807,11.50412 -7.04671,13.49705c-2.27769,1.08636 -0.72052,5.00177 -4.22232,4.55394c-6.09364,-0.77926 -6.60626,8.42059 -13.86687,5.01107c-4.15726,-1.9522 -13.54289,-6.1059 -20.193,-10.31492c-3.91996,-2.48104 -8.52974,-3.13645 -9.815,-3.70601c-1.89976,-0.84187 -8.98391,-11.39109 -8.13095,-13.64586c-0.15675,-0.97972 4.10011,-1.6183 4.53203,-2.59294c1.0579,-2.38722 2.29326,-6.86398 4.74408,-6.26909c0.21537,0.02261 2.20712,1.29873 2.42335,1.38269z" fill="#590909" stroke="none" stroke-width="5" stroke-linecap="butt"/><path d="M229.80902,127.50984c5.11771,0.25657 5.34049,7.45806 4.37045,13.83622c0.91036,1.89892 0.64711,4.45314 -0.65438,6.70652c-0.18223,2.82808 -1.14262,6.06651 -1.07819,8.26825c0.2389,8.16423 -0.7261,23.12045 -5.75661,31.56778c-3.96674,6.66106 -7.25957,14.7011 -10.69986,20.38114c-0.19758,1.84773 -4.56125,0.33878 -6.09413,1.91736c-1.94227,2.00021 -3.66448,3.72187 -5.73663,3.39321c-3.96015,1.56555 -9.8613,-1.27463 -9.43133,-5.48628c-0.76154,-0.27248 -1.51414,-0.78621 -2.24477,-1.5962c-3.16137,-3.50481 6.39274,-16.59543 8.47961,-21.1747c2.31671,-5.08365 12.47702,-14.84064 13.74188,-19.43943c1.23429,-4.48773 3.33152,-13.32877 5.3443,-21.28556c1.53562,-6.07055 3.369,-13.19063 5.60873,-15.70198c0.11495,-0.12886 3.98671,-1.39455 4.15098,-1.38632z" fill="#590909" stroke="none" stroke-width="5" stroke-linecap="butt"/><path d="M190.90277,203.39527c3.04727,-1.02212 3.15965,2.03612 3.15965,2.03612l-0.20143,0.17895c2.24411,4.6256 8.47922,5.79964 10.83415,10.34247c0,0 1.26419,2.43871 -1.51072,4.54824c-2.77491,2.10952 -4.03908,-0.32918 -4.03908,-0.32918c-2.3747,-4.58104 -8.6265,-5.79004 -10.88668,-10.44716l-0.29068,-2.24911c0,0 -0.1124,-3.05826 2.93484,-4.08038z" fill="#000000" stroke="none" stroke-width="5" stroke-linecap="butt"/><g fill="none" stroke="#000000" stroke-width="5" stroke-linecap="round"><path d="M230.15322,125.79423c0,0 2.28836,6.78849 3.26451,12.04494c0.43076,2.31957 0.18186,4.39754 0.08776,5.36593c-0.25476,2.62225 -0.53734,15.91482 -0.61499,16.71385c-0.96198,9.90232 -1.98433,20.59892 -1.98433,20.59892c0,0 -10.63853,20.50472 -11.33584,21.59281c-5.1196,7.98874 -17.8569,17.38388 -17.8569,17.38388"/><path d="M210.24321,176.3704c0,0 -4.89541,8.1285 -7.00001,11.74407c-3.12951,5.37631 -14.54104,19.87006 -14.54104,19.87006"/></g><g stroke="#000000" stroke-linecap="butt"><path d="M178.89676,207.91345c5.58505,-7.02086 13.87112,-8.69615 20.44708,-3.10099c6.57595,5.59513 7.37923,15.82244 1.7942,22.84331c-5.58505,7.02086 -13.11345,6.47386 -19.68939,0.87872c-6.57595,-5.59513 -8.13694,-13.60017 -2.55188,-20.62104z" fill="#ffffff" stroke-width="5"/><path d="M201.05947,222.76216c-0.3624,0.64896 -0.43581,1.30506 -1.21433,2.34694c-0.68033,0.9105 -1.67994,2.3788 -2.85297,3.26366c-1.892,1.42723 -4.10787,2.07849 -5.20968,1.97933c-2.46941,-0.22225 -6.01114,-1.04476 -6.60493,-2.25799c-0.09153,-0.18702 0.51065,-0.3196 0.68657,-0.43372c1.44658,-0.93839 5.86167,-4.12543 6.99387,-6.10686c2.39433,-4.19014 2.85506,-6.42519 3.03146,-7.41049c0.3846,-2.14818 0.83584,-9.60191 1.0206,-7.85921c0.01535,0.14487 0.51396,0.33369 0.67948,0.40535c0.15679,0.06788 1.96661,1.67217 2.94627,3.36571c0.8314,1.43725 0.86938,2.4188 0.98474,2.51698c1.59055,1.35333 0.74507,8.03046 -0.46107,10.1903z" fill="#c5c5c5" stroke-width="0"/></g><g><path d="M266.53758,295.45763l0.34175,0.71612c1.22635,-0.21458 1.3483,-2.22609 2.28918,-3.07459c1.305,-1.1769 3.08526,-1.69697 4.76567,-2.10234c0.70721,-0.1706 1.43741,2.46941 2.17507,2.36291l-0.11884,-0.13643c1.40377,-0.61142 10.12777,-6.46328 11.25302,0.30745c0.91831,0.06896 1.85389,0.14988 2.75696,0.27506c1.48669,1.51472 2.90403,3.09232 4.28656,4.20034c0,0 2.08901,1.68214 0.47973,3.86235c-1.60928,2.18023 -3.69824,0.49807 -3.69824,0.49807c-1.15862,-0.93689 -2.39245,-2.34656 -3.67816,-3.71882c-1.09501,-0.13315 -2.36167,-0.12176 -3.6547,-0.16715c-0.46846,0.20666 -0.92534,0.3999 -1.33026,0.5913c-2.01063,0.95024 -7.73565,-4.2901 -9.31496,-2.28746c-0.57867,0.73379 0.00152,2.10128 -0.64349,2.77199c-0.97064,1.00938 -2.49197,1.18946 -3.73793,1.78418l-3.75183,-0.62986c0,0 -2.51576,-0.82722 -1.72553,-3.45374c0.51587,-1.71461 1.7671,-1.9574 2.57374,-1.91931c-1.24701,-6.64891 7.77065,-6.47138 11.5157,-7.47583c2.60627,-0.69903 3.6747,-2.13035 6.72483,-1.18857c2.13745,0.65999 4.09996,5.24297 5.95454,7.13255c4.29019,0.59474 7.84642,2.18874 5.3282,8.24615c-0.65495,1.57542 -2.09805,2.6451 -3.14706,3.96762c-4.32097,-1.26737 -8.26585,-3.18777 -12.73248,-3.70996c-2.23952,-0.26183 -7.3697,-1.81645 -9.01022,-2.29862c-1.67915,-0.49351 -3.622,-1.51035 -4.23106,-3.21743c-0.18506,-0.51866 -0.31755,-1.00311 -0.40248,-1.45594c0.42901,0.02028 0.73229,0.11996 0.73229,0.11996zM275.68539,296.43774c-0.104,0.01623 -0.21332,-2.7634 -0.32686,-2.75513c0.61539,0.01432 1.23269,2.85803 1.8463,2.8875c0.58666,0.02819 1.18669,0.06215 1.79435,0.10711l-0.86713,-0.99536c-1.01443,0.34992 -1.93237,0.67562 -2.44672,0.7559zM271.09853,294.73627c-0.19446,1.01048 1.82763,-0.85082 2.8061,-0.98596c0.18678,-0.0258 0.37419,-0.04348 0.56198,-0.0548c-1.46301,-0.03102 -3.13051,-0.19378 -3.36811,1.04075zM290.62868,300.75515c-0.39542,-1.32716 -1.49767,-1.8476 -2.94171,-2.06691c1.07265,0.53618 2.06771,1.21196 2.94171,2.06691zM287.21837,298.46494c-0.39135,-0.41492 -0.78745,-0.82433 -1.18754,-1.21399c-0.23545,0.17219 -0.49174,0.33238 -0.76002,0.48313c0.66722,0.20441 1.31914,0.44555 1.94754,0.73085z" data-paper-data="{&quot;index&quot;:null}" fill="#3c2700" stroke="none" stroke-width="5" stroke-linecap="butt"/><path d="M242.03775,296.53829c-0.09607,0.4502 -0.24052,0.93076 -0.4383,1.44396c-0.65099,1.6891 -2.61831,2.65021 -4.30906,3.09567c-1.65186,0.43522 -6.74967,1.84406 -8.99488,2.04194c-4.47797,0.39468 -8.46888,2.20196 -12.81964,3.34571c-1.01598,-1.35198 -2.43214,-2.46242 -3.04792,-4.05597c-2.36766,-6.12706 0.17992,-8.66586 4.48332,-9.13809c1.90062,-1.83604 4.95347,-5.31572 7.10645,-5.91454c3.07233,-0.85451 4.105,0.6068 6.6931,1.37987c3.71892,1.11082 12.73779,1.19043 11.32692,7.80145c0.8073,-0.01508 2.05206,0.2633 2.52542,1.99198c0.72508,2.64814 -1.81025,3.40333 -1.81025,3.40333l-3.76608,0.52269c-1.23087,-0.63002 -2.74718,-0.85336 -3.69253,-1.89005c-0.62822,-0.68887 -0.01446,-2.03937 -0.57479,-2.78939c-1.52929,-2.04694 -7.31279,0.23801 -9.29923,-0.76923c-0.40006,-0.20283 -0.85202,-0.40908 -1.31518,-0.62901c-1.29369,0.00853 -2.55963,2.75238 -3.65754,2.85426c-1.31915,1.33516 -2.58737,2.70913 -3.76871,3.61264c0,0 -2.12981,1.62201 -3.68464,-0.60333c-1.55483,-2.22532 0.575,-3.84732 0.575,-3.84732c1.40945,-1.06822 2.86524,-2.60491 4.38881,-4.07669c0.90584,-0.09942 1.84311,-0.15361 2.76277,-0.19635c1.29213,-6.73627 9.86852,-3.42914 11.25665,-2.77791l-0.12216,0.13298c0.73476,0.12749 1.46094,0.29958 2.1637,0.49029c1.6698,0.45311 3.43658,1.02373 4.71206,2.23742c0.91957,0.87502 0.99177,2.8893 2.21239,3.13876l0.35933,-0.70612c0,0 0.30563,-0.09105 0.73499,-0.09906zM229.77583,293.74056l-0.89137,0.97031c0.60856,-0.02763 1.20923,-0.04444 1.79638,-0.0559c0.61415,-0.01199 1.23251,-0.04673 1.84803,-0.0435c-0.11327,-0.01148 -0.22223,-0.02634 -0.32581,-0.04552c-0.5122,-0.0949 -1.4218,-0.44664 -2.42723,-0.82538zM233.42015,294.64987c0.18748,0.01666 0.37435,0.03966 0.56043,0.07079c0.97484,0.16298 2.9502,2.08125 2.78075,1.06558c-0.20697,-1.24088 -1.87794,-1.12568 -3.34118,-1.13637zM220.15,299.26488c-1.44895,0.17807 -2.56362,0.66691 -2.9917,1.98234c0.8948,-0.82975 1.90618,-1.47694 2.9917,-1.98234zM222.58883,295.58863c-0.26445,-0.15837 -0.51666,2.46554 -0.74779,2.28671c-0.40957,0.37809 -0.81561,0.77604 -1.21711,1.17969c0.6352,-0.26729 1.29287,-3.28107 1.96488,-3.4664z" fill="#3c2700" stroke="none" stroke-width="5" stroke-linecap="butt"/><path d="M247.07575,255.69615c-0.14037,1.87196 -0.53552,3.6841 -1.04141,5.46589c-1.13855,6.35214 0.75503,12.34732 -1.27702,18.13967c1.78334,2.7059 3.69404,7.35595 2.02254,12.71978c-0.07107,0.2281 -0.14568,0.45057 -0.22367,0.66761c0.0471,0.44666 0.06861,0.90121 0.0629,1.36198c-0.02351,1.90277 0.52825,4.52047 -0.30437,6.07056c-0.95436,1.7767 -3.04776,-4.25852 -8.45364,-8.3363c-4.95517,-3.7378 -13.2985,-5.47644 -13.30128,-5.54502c-0.38973,-9.59686 -1.55946,-20.10406 0.84403,-28.90697c0.12272,-1.40754 0.19316,-2.74386 0.1869,-3.99c-0.0409,-8.13866 -2.19026,-24.72571 -0.68132,-37.29836c0.6161,-5.13339 -0.38029,-10.57402 2.27847,-13.40175c1.78449,-1.89787 6.18802,-2.15084 10.19369,-2.09374c7.90583,0.1127 19.05434,3.02235 26.95016,3.4574c2.37277,0.13073 5.64394,1.9164 7.82867,2.89337c3.25812,1.45698 7.53289,-1.91791 10.00588,0.73399c1.55707,1.66972 -1.42773,6.6267 -1.43021,10.22327c-0.00256,3.67593 1.11351,7.06799 0.927,9.65715c-1.13936,15.81652 1.53762,29.08908 1.02286,44.78006c-0.11467,3.49485 -1.53841,6.62113 -1.37527,10.19068c0.05443,1.19106 -15.29641,15.02809 -21.33498,13.37776c-1.21549,-0.33218 -1.65702,-2.67354 -1.95655,-4.34998c-0.22158,-1.24008 1.26803,-3.67142 1.82147,-4.60051c0.57031,-0.95743 -1.75352,-6.21795 -1.73988,-7.32131c0.0983,-7.95616 -1.20206,-21.55273 1.16583,-29.13247c0.43545,-1.39399 -3.02545,-8.54316 -3.11174,-10.28947c-0.22022,-4.45569 0.78473,-8.12484 0.57218,-12.60369c-0.07335,-1.54554 1.39396,-4.49311 -0.08112,-4.64144c-1.86286,-0.18735 -3.6684,-5.44895 -5.54069,-5.46712c-1.47422,-0.01432 -3.0142,5.194 -4.48966,5.21807c-0.22663,2.93516 -0.77415,5.89701 -1.14118,8.67389c0.17265,0.7691 0.2831,1.54539 0.2734,2.32944c-0.04755,3.84868 0.39613,8.2885 0.70448,12.76228c0.47876,3.0789 0.85491,6.16974 0.62355,9.25521z" fill="#001525" stroke="none" stroke-width="5" stroke-linecap="butt"/><path d="M247.35335,216.97736c-0.69251,1.30174 -1.61492,2.12003 -2.68495,2.6016c-3.48846,1.57001 -8.54591,-0.43875 -12.32111,-0.94158c-2.62227,-0.34926 -5.32819,0.89131 -7.01086,-1.71859c-1.07303,-1.66431 -1.33911,-5.10422 -0.44091,-7.05577c-0.0178,-0.12754 -0.02703,-0.25808 -0.02703,-0.39095c0,-1.28436 0.86192,-2.35247 1.99836,-2.57336c0.09436,-0.03276 0.19416,-0.05284 0.30027,-0.05818c2.3986,-0.12063 6.47397,1.48272 8.79034,2.17221c6.63308,1.97438 13.96659,2.60226 20.8191,2.75663c0.844,0.01902 2.08123,-0.00345 3.30406,0.14624c0.23933,-0.187 0.5584,-0.32834 1.00509,-0.42141c2.80518,-0.58453 7.1424,-0.13372 8.88652,-0.1342c2.79437,-0.00078 6.65398,-2.83598 8.89997,-0.33649c2.0272,2.25602 2.66537,9.42574 -1.00181,10.34532c-2.62288,0.65771 -5.44843,0.02416 -7.99723,0.68005c-2.34415,0.60324 -10.20136,4.07419 -11.99794,1.0008c-1.5856,-2.71247 1.73903,-4.4042 2.86498,-5.51872c-1.25538,0.09728 -2.5218,-0.04834 -3.15668,-0.19978c-3.5707,-0.85174 -7.25229,-1.29883 -10.95593,-1.7181z" fill="#000a12" stroke="none" stroke-width="0.5" stroke-linecap="butt"/><path d="M239.16914,292.38596c1.51721,0.85728 5.69527,3.92551 5.27541,6.18049c-0.45018,2.4178 -1.29427,3.02224 -3.54518,2.53868c-1.52566,-0.32776 -2.09734,-2.47595 -3.2487,-3.60001c-1.81101,-1.76806 -5.07578,-3.04843 -7.2745,-4.23581c-1.11178,-0.6004 -5.20425,-0.6993 -7.38477,-1.20941c-0.19042,-0.02774 -3.93096,2.0299 -4.10474,1.9577c-0.91079,-0.37838 2.00038,-0.64589 2.00038,-1.75775c0,-1.44436 1.09007,-5.4066 2.43473,-5.4066c0.29945,0 0.58626,0.05807 0.85123,0.16429c4.61742,-1.32101 10.9054,3.057 14.99613,5.3684z" fill="#1c1200" stroke="none" stroke-width="0.5" stroke-linecap="butt"/><path d="M282.37915,285.20079c0.27611,-0.13396 0.57984,-0.22228 0.90212,-0.25414c1.44718,-0.14303 2.72023,0.90699 2.84343,2.34527c0.09483,1.10718 4.30819,5.86825 3.36023,6.34193c-0.18087,0.09037 -5.20142,-3.58549 -5.40398,-3.5376c-2.30325,0.73991 -6.69932,4.06504 -7.84465,4.78118c-2.26508,1.41625 -5.66954,0.24716 -7.46782,2.20042c-1.14327,1.2418 -1.57529,3.44176 -3.18932,3.93043c-2.38127,0.72095 -3.34128,0.20884 -4.03202,-2.15091c-0.64423,-2.20083 3.59067,-5.70057 5.15044,-6.71562c4.20547,-2.73681 10.59943,-7.76524 15.68158,-6.94093z" data-paper-data="{&quot;index&quot;:null}" fill="#1c1200" stroke="none" stroke-width="0.5" stroke-linecap="butt"/><g fill="none" stroke="#000000" stroke-width="5" stroke-linecap="round"><path d="M264.79943,216.68988l-4.42116,1.35627l-14.8868,-0.60108l1.41714,67.51841l0.79646,17.3087l-36.69772,2.87644l0.67836,-9.51187l12.81975,-9.46072l0.63983,-84.41814"/><path d="M280.28232,206.45796l0.97205,77.51917l12.29982,10.86164l-0.10043,9.69163l-34.9771,-2.89207l0.11773,-19.0871c0,0 -0.64571,-58.44428 -0.69898,-63.26681c-0.00687,-0.62258 1.34224,-0.62962 1.34224,-0.62962"/><path d="M279.71669,205.50753l-54.90879,-5.13167"/></g><path d="M245.51962,302.58116c-2.37357,1.19777 -3.52234,-1.28181 -3.52234,-1.28181l-0.58861,-1.44696c-1.16737,-6.3819 -10.73992,-9.95793 -16.23987,-10.72108c0,0 -2.60913,-0.40118 -2.22691,-3.12552c0.3822,-2.72435 2.99133,-2.32316 2.99133,-2.32316c8.11874,1.33954 18.60396,5.99757 20.62922,15.00471l0.18204,0.21649c0,0 1.14878,2.47959 -1.22484,3.67734z" fill="#000000" stroke="none" stroke-width="5" stroke-linecap="butt"/><path d="M280.15423,281.98231c2.2435,1.44887 0.85772,3.79059 0.85772,3.79059l2.51166,0.11184c-8.39691,3.21477 -18.08151,7.7819 -22.40058,16.56375c0,0 -1.20962,2.44597 -3.55279,1.18096c-2.34318,-1.265 -1.13355,-3.71095 -1.13355,-3.71095c4.98436,-10.02886 21.47405,-19.38504 23.71755,-17.93615z" fill="#000000" stroke="none" stroke-width="5" stroke-linecap="butt"/></g><path d="M219.46615,206.37846c0,0 -0.54569,-8.95364 1.73726,-21.91893c0.98821,-5.6122 8.79255,-66.37228 10.6079,-71.15475c1.68376,-4.43582 1.20362,-9.82949 1.20362,-9.82949l58.5925,4.06172c0,0 -3.49787,5.21924 -6.04744,13.77185c-3.45207,11.58003 -2.07877,0.59557 -1.78095,10.20317c0.0562,1.81304 1.81072,48.4396 2.29212,53.66376c1.13592,12.32682 0.55098,22.69542 0.55098,22.69542c0,0 -1.46539,2.63654 -8.35535,4.45183c-6.40614,1.68782 -14.35792,-0.08052 -20.43788,-0.1413c-4.99267,-0.04989 -11.49423,-3.62048 -17.72118,-4.43961c-8.53378,-1.12259 -20.64158,-1.36365 -20.64158,-1.36365z" fill="#590909" stroke="#000000" stroke-width="5" stroke-linecap="butt"/><path d="" fill="#595959" stroke="none" stroke-width="0.5" stroke-linecap="butt"/><path d="M281.97585,130.44571c0,0.34408 -0.10817,3.12406 -0.27631,3.45482c-0.23005,0.45253 0.23494,1.51132 -0.25289,1.9008c-3.15453,2.51857 -13.04007,2.90582 -23.69454,2.90582c-11.32372,0 -22.37526,-5.75883 -25.77261,-10.01547c-0.65483,-0.82046 0.39496,-3.54005 0.39496,-4.16366c0,-1.14735 0.23568,-4.88221 1.82195,-7.66695c0.46818,-0.8219 -0.31723,-1.2107 0.31354,-1.46875c4.42012,-1.80832 16.84369,11.50152 25.14909,11.50152c9.64029,0 18.23201,-2.72868 22.21519,-0.41308c1.59738,0.92863 0.10161,2.86037 0.10161,3.96496z" fill="#260404" stroke="none" stroke-width="0" stroke-linecap="butt"/><g stroke-linecap="butt"><path d="M310.92296,81.29599c0.13753,1.91028 0.07238,3.72298 -0.13198,5.48764c-0.36038,3.11201 -1.15368,6.07465 -2.03166,9.15969c-5.1851,18.21935 -21.24883,32.78304 -41.92426,34.21455c-26.16155,1.81136 -48.83897,-17.12806 -50.65144,-42.30236c-1.81247,-25.17429 17.92636,-47.05051 44.08791,-48.86187c6.03221,-0.41765 15.55938,-7.38856 24.08235,-8.22922c3.02039,-0.29791 5.08281,6.18407 7.97436,5.65224c5.68807,-1.04618 14.06751,-2.22611 17.11774,0.11617c3.95799,3.03936 -0.22029,6.43752 -0.05227,13.79472c0.25648,11.23109 0.95217,22.95296 1.52926,30.96843z" fill="#f5f5f5" stroke="none" stroke-width="0"/><path d="M261.84813,51.53911c-5.84277,0.40454 -16.51027,3.41046 -23.11101,8.16591c-11.59735,8.3552 -18.6186,20.2957 -21.95059,20.02559c-1.29289,-0.10481 7.70642,-17.99653 7.58197,-19.72509c-0.62772,-8.71871 15.15093,-16.91434 35.2426,-18.30543c6.67851,-0.4624 16.4529,-9.07594 23.76097,-10.51525c4.46993,-0.88036 6.71396,5.45164 10.57666,4.72134c8.82092,-1.66771 15.21446,-2.57449 15.5059,1.47349c0.09215,1.27996 0.05857,1.29051 -0.9729,2.37559c-5.99457,6.30607 -29.49151,10.59699 -46.63359,11.78386z" fill="#ffffff" stroke="none" stroke-width="0"/><path d="M301.10986,112.66166c0.62772,8.71871 -15.15093,16.91434 -35.2426,18.30543c-20.09166,1.3911 -36.88805,-4.5491 -37.51577,-13.26782c-0.26284,-3.65072 1.27048,-3.82347 6.50028,-2.44249c0.08972,0.02369 5.23935,1.63678 5.41171,1.68611c7.21906,2.06586 15.92187,4.70066 26.40891,3.97457c20.09166,-1.3911 33.80976,-16.97451 34.43747,-8.25579z" data-paper-data="{&quot;index&quot;:null}" fill="#cccccc" stroke="none" stroke-width="0"/><path d="M310.29164,82.79228c0.18838,2.61656 1.94467,6.39796 1.6844,8.92443c-2.24381,21.78112 -22.32993,38.31437 -45.77231,39.93746c-26.16155,1.81136 -48.83897,-17.12806 -50.65143,-42.30237c-0.72439,-10.06138 1.99373,-19.59592 7.1885,-27.53326c7.80294,-11.92244 21.19379,-20.24118 36.8994,-21.32861c3.32072,-0.22992 8.92214,-1.06742 14.41676,-4.05852c3.76643,-2.05033 14.13508,-8.27739 14.13508,-8.27739c0,0 0.87974,10.39644 1.98239,10.1735c10.44783,-2.11249 21.12602,-12.41166 21.12602,-12.41166c0,0 -1.97005,43.52534 -1.00882,56.87642z" fill="none" stroke="#000000" stroke-width="5"/><path d="M293.01304,115.37284c0.1814,2.51954 -1.78366,4.70826 -4.38909,4.88865c-2.60544,0.1804 -4.86462,-1.71585 -5.04601,-4.23539c-0.18139,-2.51953 1.78367,-4.70826 4.3891,-4.88865c2.60544,-0.1804 4.8646,1.71585 5.04599,4.23538z" fill="#cccccc" stroke="none" stroke-width="0"/><path d="M286.17832,119.05281c0.13797,1.91627 -1.35661,3.58093 -3.33821,3.71813c-1.9816,0.1372 -3.69984,-1.30501 -3.83781,-3.22129c-0.13797,-1.91627 1.3566,-3.58093 3.33819,-3.71814c1.9816,-0.1372 3.69985,1.30501 3.83782,3.22129z" fill="#cccccc" stroke="none" stroke-width="0"/></g><g><path d="M360.60441,132.07654c2.02356,4.80778 -1.12528,9.3345 -5.87288,11.29061c-4.7476,1.95612 -29.33536,-10.63389 -31.3589,-15.4417c-2.02356,-4.80778 2.77907,-12.43521 7.52669,-14.39134c4.7476,-1.95613 27.68155,13.73463 29.70509,18.54241z" fill="#0d1522" stroke="#000000" stroke-width="2.5" stroke-linecap="butt"/><path d="M333.25314,106.84587c3.14646,10.53559 -2.75437,21.52773 -13.17993,24.55165c-10.42554,3.02392 -21.42782,-3.06547 -24.5743,-13.60106c-3.14647,-10.53559 2.75437,-21.52771 13.17991,-24.55164c10.42554,-3.02392 21.42784,3.06547 24.57432,13.60105z" fill="#465e85" stroke="#000000" stroke-width="3" stroke-linecap="butt"/><path d="M336.07758,114.59832c0.04732,0.15843 -2.33915,5.56306 -5.04178,9.57322c-2.39062,3.5472 -5.13011,5.77593 -5.1747,5.62665c-0.04995,-0.16726 -3.56554,2.10227 -3.90122,0.7754c-0.25673,-1.01479 0.40017,-5.77137 0.67695,-7.1145c0.25516,-1.23809 0.90372,-2.9915 1.79988,-4.49963c0.71396,-1.20153 2.10179,-3.28253 4.22688,-4.83235c2.47686,-1.80638 5.07666,-3.03634 5.47497,-3.05608c2.51174,-0.12454 1.79678,3.05105 1.93901,3.52732z" fill="#0d1522" stroke="#000000" stroke-width="3" stroke-linecap="butt"/><path d="M307.0005,130.78578c0,0 -5.08163,-1.67732 -6.98973,-3.55364c-1.87612,-1.84488 -4.36464,-7.61158 -4.36464,-7.61158c0,0 10.11554,-2.40418 15.31862,-4.51024c5.86307,-2.37323 18.11686,-9.02362 18.11686,-9.02362c0,0 1.68566,0.86876 1.15273,2.10324c-1.6517,3.82579 -12.3659,23.86969 -12.3659,23.86969z" fill="#313243" stroke="none" stroke-width="0" stroke-linecap="butt"/><path d="M318.88295,93.11087c0,0 4.46913,3.93878 6.09397,6.17127c1.83655,2.52338 4.36819,8.20345 4.36819,8.20345" fill="none" stroke="#000000" stroke-width="2" stroke-linecap="round"/><path d="M298.78927,100.70946c0,0 8.35972,3.66609 11.98389,6.13432c3.66782,2.49795 9.89367,8.76531 9.89367,8.76531" fill="none" stroke="#000000" stroke-width="2" stroke-linecap="round"/><path d="M318.65945,119.73221c0,0 -7.63039,-1.59843 -11.42584,-3.94368c-3.89334,-2.40573 -11.64804,-10.31387 -11.64804,-10.31387" fill="none" stroke="#000000" stroke-width="2" stroke-linecap="round"/><path d="M317.86864,122.7648c0,0 -6.08144,0.42284 -9.72227,-0.61389c-3.87382,-1.10308 -12.86513,-5.81783 -12.86513,-5.81783" fill="none" stroke="#000000" stroke-width="2" stroke-linecap="round"/><path d="M317.17913,126.65317c0,0 -5.54723,1.26253 -8.49743,1.00461c-3.15887,-0.27616 -9.87264,-2.61057 -9.87264,-2.61057" fill="none" stroke="#000000" stroke-width="2" stroke-linecap="round"/><path d="M313.71185,131.05217c0,0 -1.38828,-4.52017 -1.30799,-9.08943c0.06796,-3.86714 1.47547,-7.68545 2.69763,-9.69563c0.84966,-1.39753 2.92861,-3.54939 4.90599,-4.69454c4.55729,-2.63921 10.14879,-3.56804 10.14879,-3.56804" fill="none" stroke="#000000" stroke-width="2" stroke-linecap="round"/><path d="M305.07433,128.98388c0,0 -1.14344,-3.36485 -1.29446,-7.5116c-0.18732,-5.14334 0.72635,-11.52497 2.21723,-14.59857c1.11419,-2.29704 3.65528,-5.30827 6.52352,-7.26938c4.20336,-2.87402 8.87664,-4.27194 8.87664,-4.27194" fill="none" stroke="#000000" stroke-width="2" stroke-linecap="round"/><path d="M334.5553,111.5043c0.12469,0.41755 -5.19773,0.73283 -8.84738,5.62384c-3.88772,5.21007 -3.34804,15.51092 -3.48087,15.06615c-0.06986,-0.23395 -4.42963,2.77862 -4.90716,0.92519c-0.36522,-1.41748 0.27748,-7.99003 0.57454,-9.84244c0.27382,-1.70751 1.02518,-4.11466 2.09965,-6.17205c0.85599,-1.63912 2.53007,-4.4722 5.15839,-6.54007c3.0634,-2.41015 6.30526,-4.01603 6.80861,-4.02809c3.17425,-0.07596 2.39533,4.30135 2.59425,4.96744z" fill="#465e85" stroke="#000000" stroke-width="3" stroke-linecap="butt"/><path d="M316.98639,132.07557c-9.52636,1.30431 -19.18996,-4.52041 -22.05521,-14.11442c-3.14646,-10.53559 3.32212,-21.69239 13.74767,-24.71633c9.77962,-2.83657 20.31,3.16054 24.14429,12.50973c0.13721,0.33456 -8.29057,2.93555 -12.34533,10.1029c-3.4294,6.06195 -3.06302,16.15944 -3.49141,16.21811z" fill="none" stroke="#000000" stroke-width="3" stroke-linecap="butt"/><path d="M306.10904,94.75047c0,0 8.83591,3.62552 11.6971,6.2134c2.98011,2.69542 5.84136,9.64967 5.84136,9.64967" fill="none" stroke="#000000" stroke-width="2" stroke-linecap="round"/><path d="M321.01752,123.67461c0.68805,0.31554 0.90114,1.32675 0.47596,2.25859c-0.42517,0.93183 -1.32764,1.43149 -2.01568,1.11594c-0.68805,-0.31553 -0.90115,-1.32674 -0.47597,-2.25858c0.42517,-0.93184 1.32764,-1.43148 2.01568,-1.11593z" fill="#6283b8" stroke="none" stroke-width="0" stroke-linecap="butt"/><path d="M322.77005,117.01207c0.85708,-0.04823 1.14306,0.84275 0.63877,1.99006c-0.5043,1.14731 -1.6079,2.11648 -2.46498,2.16471c-0.85708,0.04822 -1.14305,-0.84273 -0.63877,-1.99004c0.5043,-1.14731 1.6079,-2.11649 2.46499,-2.16472z" fill="#6283b8" stroke="none" stroke-width="0" stroke-linecap="butt"/><path d="M295.82861,118.68238c0,0 2.96983,-9.93369 6.26561,-15.68573c3.29579,-5.75204 8.33365,-9.79396 8.33365,-9.79396" fill="none" stroke="#000000" stroke-width="2" stroke-linecap="round"/><path d="M297.50143,103.38881c0,0 7.23266,4.5049 10.85682,6.97314c3.66782,2.49795 11.02073,7.92648 11.02073,7.92648" fill="none" stroke="#000000" stroke-width="2" stroke-linecap="round"/><path d="M307.02612,107.98756c0.64465,0.74916 0.3885,2.01589 -0.57212,2.82929c-0.9606,0.81342 -2.26191,0.8655 -2.90657,0.11635c-0.64465,-0.74916 -0.38852,-2.01589 0.5721,-2.8293c0.9606,-0.81342 2.26193,-0.86551 2.90659,-0.11634z" fill="#6283b8" stroke="none" stroke-width="0" stroke-linecap="butt"/><path d="M300.94224,106.95788c0.88382,0.80322 0.72145,2.40788 -0.36264,3.58411c-1.08408,1.17622 -2.67938,1.47862 -3.56319,0.67541c-0.88382,-0.80322 -0.72147,-2.40789 0.36261,-3.58412c1.08408,-1.17622 2.6794,-1.4786 3.56321,-0.6754z" fill="#6283b8" stroke="none" stroke-width="0" stroke-linecap="butt"/></g><path d="M345.19972,146.20372c-0.82173,2.50079 -3.32255,1.67908 -3.32255,1.67908l-2.89075,-0.95331c-5.16929,-2.28409 -10.60807,-3.59122 -13.32746,-8.81472c0,0 -1.13318,-2.37596 1.24277,-3.50915c2.37595,-1.13319 3.50915,1.24278 3.50915,1.24278c1.42634,3.56267 7.0887,4.66606 10.46616,6.16756l2.64361,0.86522c0,0 2.50081,0.82174 1.67907,3.32255z" fill="#000000" stroke="none" stroke-width="5" stroke-linecap="butt"/><g fill="none" stroke="#000000" stroke-width="5" stroke-linecap="round"><path d="M328.53187,129.86755c0,0 -4.7482,9.82019 -7.3764,12.07597c-1.77053,1.51962 -4.41107,4.5425 -4.41107,4.5425c0,0 -12.61778,-8.24739 -20.53886,-10.35593c-5.62635,-1.4977 -11.07964,-8.51608 -11.07964,-8.51608"/><path d="M348.75928,143.17437c0,0 -9.03237,10.97568 -12.48359,14.43552c-1.85699,1.86163 -6.59865,4.69432 -6.59865,4.69432"/></g><path d="M333.88584,145.68698c-5.51109,-2.44225 -9.08196,-6.44562 -7.97576,-8.94182c1.10619,-2.4962 6.47055,-2.53995 11.98163,-0.09772c5.51109,2.44225 9.08198,6.44563 7.97579,8.94183c-1.10619,2.4962 -6.47057,2.53994 -11.98166,0.09771z" fill="#ffffff" stroke="#000000" stroke-width="5" stroke-linecap="butt"/><path d="M337.13947,140.24669c-7.3265,-3.24674 -10.78522,-11.47642 -7.72524,-18.38148c3.05997,-6.90507 11.47991,-9.87074 18.80641,-6.624c7.3265,3.24674 10.7852,11.47641 7.72523,18.38148c-3.05997,6.90507 -11.47991,9.87074 -18.80639,6.624z" fill="#ffffff" stroke="#000000" stroke-width="5" stroke-linecap="butt"/><path d="M333.31751,134.60952c-0.72748,-0.81634 -1.92282,-2.04008 -2.51337,-3.31982c-0.95251,-2.06413 -1.07945,-4.2913 -0.73269,-5.31982c0.77717,-2.30518 2.37992,-5.51738 3.69058,-5.85538c0.20203,-0.0521 0.1935,0.54486 0.26406,0.7333c0.58017,1.54968 2.66391,6.33966 4.32628,7.78514c3.51545,3.05678 5.57633,3.91148 6.49093,4.26288c1.99403,0.76613 9.1139,2.58514 7.38322,2.43568c-0.14387,-0.01243 -0.44027,0.42615 -0.54736,0.57008c-0.10144,0.13635 -2.06771,1.55698 -3.9316,2.17205c-1.58182,0.52199 -2.54157,0.37499 -2.66293,0.46631c-1.67319,1.25907 -7.95086,-0.78976 -9.7693,-2.33876c-0.54639,-0.46542 -1.16541,-0.65756 -1.99787,-1.59169z" data-paper-data="{&quot;index&quot;:null}" fill="#c5c5c5" stroke="#000000" stroke-width="0" stroke-linecap="butt"/><path d="M330.72704,160.65953l-10.59472,10.13848l-34.16613,-15.94679" fill="none" stroke="#000000" stroke-width="5" stroke-linecap="round"/><path d="M210.92844,175.86927l16.68918,-54.82554" fill="none" stroke="#000000" stroke-width="5" stroke-linecap="round"/><path d="M-34.77475,380.45045v-400.9009h549.54955v400.9009z" fill="none" stroke="none" stroke-width="0" stroke-linecap="butt"/><path d="M244.19899,74.91096c0,-3.9989 1.34353,-4.97283 3.58407,-5.35133c1.84641,-0.31193 4.32949,-0.33127 6.93198,-0.33127c2.77225,0 1.87298,0.29671 6.19898,2.2878c6.5571,4.76364 4.14566,-0.38912 4.14566,3.39482c0,7.29436 -4.66985,13.20759 -10.43036,13.20759c-5.76051,0 -10.43033,-5.91322 -10.43033,-13.20759z" fill="#000000" stroke="none" stroke-width="5" stroke-linecap="butt"/><path d="M274.77892,75.04277c0,-4.20373 -1.65673,-0.40102 0.58381,-0.79893c8.36872,-4.11085 7.32975,-5.17475 9.93224,-5.17475c2.77225,0 5.78636,-0.09948 7.63388,0.34807c1.99148,0.48241 2.71076,1.64786 2.71076,5.62563c0,7.66799 -4.66985,13.8841 -10.43036,13.8841c-5.76051,0 -10.43033,-6.21611 -10.43033,-13.8841z" fill="#000000" stroke="none" stroke-width="5" stroke-linecap="butt"/><path d="M236.04437,98.31146c-1.26127,6.09813 6.51761,9.1068 11.16371,6.53573c1.65097,-0.91362 1.84193,-5.76361 3.41173,-8.44515c-2.71463,-0.64715 -5.32582,-1.65589 -7.72635,-3.1583c-0.25838,-0.16171 -1.19316,-0.55736 -1.88971,-0.9219c-1.99125,1.88633 -4.51617,3.84674 -4.95938,5.98963zM253.96574,100.08888c-1.30111,4.73177 -3.2255,9.99097 -9.01454,10.34465c-9.18827,0.56137 -17.9523,-8.27662 -11.23779,-16.80819c0.71764,-0.91185 5.82241,-7.10028 7.78024,-6.11415c0.32734,0.0155 0.63675,0.09954 0.91417,0.23808c1.34478,0.35223 2.7953,1.68908 4.5456,2.68117c1.50373,0.85233 4.96723,1.63004 6.53209,1.91382c2.12526,0.38541 11.75408,-0.7334 12.4685,1.40987c0.95031,2.85094 -3.10065,3.60588 -4.88534,3.6378c-1.8653,0.03336 -3.74408,-0.02017 -5.60482,-0.1994c-0.42468,1.08298 -1.31659,2.23626 -1.49811,2.89637z" fill="#000000" stroke="none" stroke-width="0.5" stroke-linecap="butt"/><path d="M236.13134,98.33396c0.44299,-2.14181 2.99768,-4.14011 4.98794,-6.02549c0.69619,0.36435 1.64222,0.75752 1.90046,0.91914c2.39932,1.50165 5.05533,2.54018 7.76859,3.187c-1.56901,2.68019 -1.77726,7.58123 -3.4274,8.4944c-4.64376,2.56979 -12.49022,-0.47999 -11.22958,-6.57506z" data-paper-data="{&quot;noHover&quot;:false,&quot;origItem&quot;:[&quot;Path&quot;,{&quot;applyMatrix&quot;:true,&quot;segments&quot;:[[[234.18404,99.68008],[0,0],[-1.37308,6.6387]],[[246.33736,106.79517],[-5.05795,2.79899],[1.79732,-0.99461]],[[250.05152,97.6014],[-1.70895,2.91924],[-2.95527,-0.70452]],[[241.64027,94.16313],[2.61332,1.63559],[-0.28128,-0.17604]],[[239.58304,93.15951],[0.75829,0.39685],[-2.16777,2.05354]],[[234.18404,99.68009],[0.4825,-2.33284],[0,0]]],&quot;closed&quot;:true,&quot;fillColor&quot;:[0,0,0,1]}]}" fill="#ff8c8c" stroke="none" stroke-width="0.5" stroke-linecap="butt"/></g></g></svg>