<svg version="1.1" xmlns="http://www.w3.org/2000/svg" xmlns:xlink="http://www.w3.org/1999/xlink" width="347" height="286" viewBox="0,0,347,286"><defs><linearGradient x1="301.33801" y1="104.89196" x2="301.33801" y2="128.55862" gradientUnits="userSpaceOnUse" id="color-1"><stop offset="0" stop-color="#00cdff" stop-opacity="0"/><stop offset="1" stop-color="#00cdff"/></linearGradient><linearGradient x1="303.65935" y1="111.89196" x2="303.65935" y2="128.55862" gradientUnits="userSpaceOnUse" id="color-2"><stop offset="0" stop-color="#000000" stop-opacity="0"/><stop offset="1" stop-color="#000000"/></linearGradient><linearGradient x1="212.40893" y1="150.52733" x2="215.21397" y2="164.92325" gradientUnits="userSpaceOnUse" id="color-3"><stop offset="0" stop-color="#00cdff" stop-opacity="0"/><stop offset="1" stop-color="#00cdff"/></linearGradient><linearGradient x1="214.65061" y1="154.51015" x2="216.62599" y2="164.64812" gradientUnits="userSpaceOnUse" id="color-4"><stop offset="0" stop-color="#000000" stop-opacity="0"/><stop offset="1" stop-color="#000000"/></linearGradient></defs><g transform="translate(-85,-40.50003)"><g data-paper-data="{&quot;isPaintingLayer&quot;:true}" fill-rule="nonzero" stroke-linejoin="miter" stroke-miterlimit="10" stroke-dasharray="" stroke-dashoffset="0" style="mix-blend-mode: normal"><text transform="translate(211.22476,115.34676) scale(0.20352,0.20352)" font-size="40" xml:space="preserve" fill="#000000" fill-rule="nonzero" stroke="none" stroke-width="1" stroke-linecap="butt" stroke-linejoin="miter" stroke-miterlimit="10" stroke-dasharray="" stroke-dashoffset="0" font-family="Sans Serif" font-weight="normal" text-anchor="start" style="mix-blend-mode: normal"><tspan x="0" dy="0">Polargaming64</tspan><tspan x="0" dy="46.150000000000006px"> </tspan><tspan x="0" dy="46.150000000000006px">MeIzAwezomeDede</tspan><tspan x="0" dy="46.150000000000006px"> </tspan><tspan x="0" dy="46.150000000000006px">AwezomeXD</tspan></text><path d="M310.22476,213.97595c0,6.72542 -24.46734,9.63291 -28.33333,9.63291c-3.86599,0 -2,-9.81409 -2,-16.5395c0,-3.84489 -1.06515,-12.40353 -0.39859,-18.09547c0.49937,-4.26432 4.0761,-7.53169 5.73192,-7.53169c1.48938,0 12.20834,1.56808 16.62775,7.25088c3.70313,4.76177 0.99736,13.2788 3.92419,17.81156c2.64688,4.0992 4.44806,5.50793 4.44806,7.47132z" fill="#fddfbd" stroke="#000000" stroke-width="3.5" stroke-linecap="butt"/><path d="M302.47476,194.35886l-0.03607,6.68333c0,0 -3.41138,2.54174 -11.96856,-1.20931c-2.77819,-1.21783 -7.99536,-5.72402 -7.99536,-5.72402c0,0 -4.29227,-8.93709 -0.71407,-9.86081c0.76847,-0.19838 5.43616,-1.56383 10.28677,0.93895c5.1261,2.64492 10.4273,9.17186 10.4273,9.17186z" fill="#f89486" stroke="none" stroke-width="0" stroke-linecap="butt"/><path d="M247.22476,198.60887c0,5.33875 -33.06429,8.66667 -37.66667,8.66667c-4.60237,0 -7.33333,-1.99458 -7.33333,-7.33333c0,-5.33875 0.73096,-18 5.33333,-18c0.78933,0 9.95988,0.33286 16.14763,-1.88785c7.31946,-2.62687 13.3626,-16.82871 14.90623,-16.10722c4.76031,2.22494 8.61281,31.32168 8.61281,34.66174z" fill="#d38ddd" stroke="#000000" stroke-width="3.5" stroke-linecap="butt"/><path d="M224.55809,205.77554c0,0 -9.89982,9.16667 -18,9.16667c-8.10018,0 -26.33133,0.86748 -26.33133,-5.66789c0,-6.53537 19.06449,-20.99877 27.16467,-20.99877c8.10018,0 16.16667,13.5 16.16667,13.5z" fill="#f89587" stroke="#000000" stroke-width="3.5" stroke-linecap="butt"/><g><g stroke-linecap="butt"><path d="M186.42661,179.48473c0,0 10.72996,-1.45318 11.45054,3.08419c0.07446,0.46881 0.39817,16.23829 -9.81554,15.08027c-2.21287,-0.25089 -9.50523,-1.40205 -11.39654,-4.33762c-3.69994,-5.74287 -1.27893,-15.05846 -1.62434,-15.01499c-4.56632,0.5749 -18.40227,12.61037 -18.79321,9.50528c-0.20052,-1.59271 3.4281,-6.67453 8.83366,-12.7857c1.50292,-1.6991 3.74991,-3.78622 5.23861,-5.29523c0.43787,-0.44383 1.39686,-1.94477 1.80404,-2.35014c2.93648,-2.92342 5.07714,-4.80056 6.45849,-4.97446c4.56632,-0.5749 7.84426,17.08839 7.84426,17.08839z" fill="#fddfbd" stroke="#000000" stroke-width="3"/><path d="M196.62233,183.60066c0,0 0.48037,1.81653 -0.23162,5.06497c-0.72201,3.29413 -3.73936,7.4037 -6.22238,7.71632c-2.17861,0.27428 -10.26397,0.58584 -12.25582,-2.29258c-2.51701,-3.63735 1.2924,-10.73693 1.22019,-11.31048c-0.12935,-1.02741 5.16714,6.78269 10.09877,6.1618c4.93163,-0.62088 7.39084,-5.34003 7.39084,-5.34003z" fill="#f49285" stroke="none" stroke-width="0"/></g><g><path d="M200.73598,228.17639c0.10197,6.99252 -6.10001,11.08647 -13.00053,11.18708c-6.90052,0.10062 -35.28938,-31.81574 -35.39136,-38.80828c-0.10197,-6.99252 9.72133,-14.13858 16.62185,-14.23922c6.90052,-0.10062 31.66806,34.86788 31.77004,41.86041z" fill="#465e85" stroke="#000000" stroke-width="2.5" stroke-linecap="butt"/><path d="M167.14882,168.74741c-1.38138,14.6887 -14.26654,25.4898 -28.77984,24.12494c-14.5133,-1.36487 -25.15883,-14.37885 -23.77746,-29.06757c1.38138,-14.6887 14.26654,-25.48979 28.77984,-24.12493c14.5133,1.36487 25.15883,14.37885 23.77746,29.06757z" fill="#465e85" stroke="#000000" stroke-width="3" stroke-linecap="butt"/><path d="M166.76677,179.80666c-0.02077,0.22087 -5.71456,5.78523 -11.10056,9.45481c-4.76421,3.24594 -9.29959,4.67576 -9.28002,4.46763c0.02193,-0.2332 -5.50109,0.8652 -5.2516,-0.95489c0.1908,-1.39201 3.4032,-7.00019 4.42408,-8.53884c0.94103,-1.41829 2.63168,-3.28542 4.50738,-4.7247c1.49435,-1.1467 4.27108,-3.05815 7.69917,-3.94401c3.99556,-1.03251 7.8542,-1.28561 8.36047,-1.11402c3.19259,1.08204 0.7035,4.69002 0.64105,5.35402z" fill="#0d1522" stroke="#000000" stroke-width="3" stroke-linecap="butt"/><path d="M133.8923,157.25097c0.42628,1.25183 -0.53042,2.70535 -2.13682,3.24651c-1.6064,0.54116 -3.2542,-0.03495 -3.68048,-1.28679c-0.42628,-1.25183 0.53041,-2.70536 2.13681,-3.24652c1.6064,-0.54116 3.25421,0.03495 3.68049,1.2868z" fill="#6283b8" stroke="none" stroke-width="0" stroke-linecap="butt"/><path d="M126.82931,152.96978c0.6971,1.43707 -0.31279,3.35822 -2.25564,4.29102c-1.94285,0.9328 -4.08295,0.524 -4.78006,-0.91307c-0.6971,-1.43707 0.31277,-3.35822 2.25562,-4.29102c1.94285,-0.9328 4.08296,-0.52399 4.78008,0.91306z" fill="#6283b8" stroke="none" stroke-width="0" stroke-linecap="butt"/><path d="M122.38672,185.66941c0,0 -5.48814,-4.59509 -6.92159,-7.875c-1.40941,-3.22494 -1.60818,-11.64236 -1.60818,-11.64236c0,0 13.81511,1.98503 21.35867,1.92177c8.50044,-0.07129 27.11704,-2.32824 27.11704,-2.32824c0,0 1.66331,1.91383 0.37793,3.19076c-3.98361,3.95738 -27.42226,23.6755 -27.42226,23.6755z" fill="#313243" stroke="none" stroke-width="0" stroke-linecap="butt"/><path d="M156.15434,144.53967c0,0 3.5868,7.11359 4.48799,10.69809c1.01862,4.05159 1.31474,12.38222 1.31474,12.38222" fill="none" stroke="#000000" stroke-width="2" stroke-linecap="round"/><path d="M127.29109,144.11694c0,0 8.57216,8.69012 11.84612,13.55359c3.3134,4.92201 7.91737,15.8049 7.91737,15.8049" fill="none" stroke="#000000" stroke-width="2" stroke-linecap="round"/><path d="M142.47804,177.62834c0,0 -8.70392,-5.75229 -12.25322,-10.54677c-3.64081,-4.9181 -9.32414,-18.60034 -9.32414,-18.60034" fill="none" stroke="#000000" stroke-width="2" stroke-linecap="round"/><path d="M139.96639,181.0206c0,0 -7.791,-2.46856 -11.80614,-5.55503c-4.27209,-3.28397 -13.10351,-13.59304 -13.10351,-13.59304" fill="none" stroke="#000000" stroke-width="2" stroke-linecap="round"/><path d="M137.15032,185.53005c0,0 -7.54791,-1.15826 -11.09439,-2.93326c-3.79735,-1.90055 -10.98861,-8.11915 -10.98861,-8.11915" fill="none" stroke="#000000" stroke-width="2" stroke-linecap="round"/><path d="M130.6158,189.30785c0,0 0.54494,-6.3209 2.94457,-11.97955c2.03089,-4.78914 5.70647,-8.85749 8.24107,-10.76224c1.76213,-1.32427 5.4357,-2.98365 8.47606,-3.4376c7.00715,-1.04623 14.44226,0.54997 14.44226,0.54997" fill="none" stroke="#000000" stroke-width="2" stroke-linecap="round"/><path d="M120.89331,182.47342c0,0 0.26857,-4.75951 2.16731,-10.00524c2.35506,-6.50642 6.70529,-14.01471 10.10993,-17.11324c2.54443,-2.31569 7.2264,-4.8191 11.78754,-5.85178c6.68432,-1.51343 13.21127,-0.95454 13.21127,-0.95454" fill="none" stroke="#000000" stroke-width="2" stroke-linecap="round"/><path d="M114.55652,165.07197c0,0 8.70009,-10.92503 15.70184,-16.47466c7.00177,-5.54962 15.31371,-8.10839 15.31371,-8.10839" fill="none" stroke="#000000" stroke-width="2" stroke-linecap="round"/><path d="M166.42701,175.19827c-0.05474,0.58215 -6.84579,-1.64667 -13.85518,2.65488c-7.46661,4.58214 -11.97823,17.69395 -11.91991,17.07382c0.03067,-0.32617 -6.91822,1.28299 -6.58052,-1.26363c0.25826,-1.94764 4.36691,-9.82746 5.66935,-11.99123c1.20056,-1.99451 3.34829,-4.62627 5.72259,-6.66267c1.8916,-1.6224 5.40348,-4.33078 9.71936,-5.61478c5.03029,-1.49652 9.87825,-1.90212 10.51155,-1.66919c3.99371,1.46902 0.82011,6.54412 0.73277,7.47278z" fill="#465e85" stroke="#000000" stroke-width="3" stroke-linecap="butt"/><path d="M134.1812,192.19724c-12.52738,-3.0664 -21.63795,-15.09082 -20.38001,-28.4668c1.38138,-14.6887 15.05687,-25.41548 29.57018,-24.0506c13.6141,1.28031 23.71803,13.94673 23.79085,27.49476c0.00261,0.48481 -11.80841,-0.42333 -20.46821,6.51738c-7.32424,5.87029 -11.94943,18.64312 -12.51279,18.50523z" fill="none" stroke="#000000" stroke-width="3" stroke-linecap="butt"/><path d="M139.41139,140.29154c0,0 9.18594,8.87411 11.44894,13.51092c2.35703,4.8295 2.42264,14.91152 2.42264,14.91152" fill="none" stroke="#000000" stroke-width="2" stroke-linecap="round"/><path d="M143.43243,183.70647c0.6986,0.73245 0.45524,2.09847 -0.54356,3.0511c-0.99879,0.95263 -2.3748,1.13112 -3.07339,0.39868c-0.69859,-0.73245 -0.45524,-2.09847 0.54356,-3.05111c0.9988,-0.95263 2.3748,-1.13111 3.07339,-0.39868z" fill="#6283b8" stroke="none" stroke-width="0" stroke-linecap="butt"/><path d="M148.96933,176.26113c1.0923,0.36207 1.00025,1.61407 -0.20556,2.79643c-1.20582,1.18234 -3.06881,1.84731 -4.16109,1.48523c-1.0923,-0.36207 -1.00026,-1.61407 0.20555,-2.79643c1.20582,-1.18234 3.06882,-1.84731 4.1611,-1.48523z" fill="#6283b8" stroke="none" stroke-width="0" stroke-linecap="butt"/><path d="M191.64245,234.96136c0.24501,0.69416 -0.40048,1.55483 -1.44174,1.92232c-1.04125,0.36751 -2.08397,0.10269 -2.32897,-0.59147c-0.24501,-0.69416 0.40048,-1.55483 1.44174,-1.92232c1.04125,-0.36751 2.08397,-0.10269 2.32897,0.59147z" fill="#6283b8" stroke="none" stroke-width="0" stroke-linecap="butt"/></g><g stroke-linecap="butt"><path d="M189.80311,204.15512c0.12415,0.98616 9.48896,-3.15944 12.50289,5.04923c1.61088,4.38737 -4.57368,11.40167 -5.82729,15.40154c-1.76144,5.62022 -18.77049,12.93103 -20.25566,12.21775c-3.16903,-1.52197 -7.32358,-7.9407 -7.32358,-7.9407c0,0 -0.35901,-1.52774 -4.68118,0.54314c-2.05591,0.98506 -2.60978,0.0233 -4.0342,-0.9199c-3.54786,-2.34928 -6.98862,-8.90736 -6.98862,-8.90736c0,0 -3.30649,0.36503 -7.14554,0.20748c-1.8357,-0.07535 -3.86407,0.71057 -5.57793,-0.56019c-4.44428,-3.29528 -3.32059,-11.00242 -4.00506,-16.43919c-0.59458,-4.72266 3.16308,-8.59625 7.9783,-13.38536c7.33648,-7.29666 16.04849,-12.56917 24.64994,-13.65208c3.05911,-0.38513 6.71209,1.67936 9.45374,5.5196c1.28435,1.799 2.65234,3.11624 2.94146,4.70637c0.63405,3.48733 -1.97404,5.6255 -1.97404,5.6255c0,0 5.55522,1.65912 7.90665,2.86455c2.48243,1.27257 2.02249,6.82915 2.38011,9.66965z" fill="#fddfbd" stroke="#000000" stroke-width="2.5"/><path d="M141.24398,204.72521c0.20412,1.62124 2.22193,3.47598 2.95775,5.28755c0.24551,0.60443 3.92312,0.87425 7.61168,-0.61786c8.16918,-3.30463 19.3491,-11.20809 18.8521,-11.14552c-0.02477,0.00312 -7.71426,11.90575 -4.99109,16.56439c1.28315,2.19515 4.52595,3.74914 6.27076,4.94376c2.54235,1.74067 9.39507,-5.33753 9.39507,-5.33753c0,0 -4.94657,7.54147 -1.58517,8.02123c4.6834,0.66847 23.45039,-12.3893 23.45039,-12.3893c0,0 -1.92223,6.70509 -4.23476,11.94248c-2.06907,4.686 -7.73846,7.30154 -10.27171,8.48817c-6.05657,2.83703 -11.76782,2.5244 -11.62878,3.31261c0.13392,0.75909 -2.46485,-0.33357 -4.34114,-2.534c-2.17375,-2.54929 -3.68526,-6.28805 -3.753,-5.61874c-0.21083,2.08312 -7.55752,1.26878 -7.84012,1.80583c-1.31834,2.50555 -4.91161,-11.03864 -7.84732,-8.85722c-2.833,2.10507 -7.51178,-0.51476 -9.82645,-0.1902c-4.15264,0.58228 -4.78285,-10.02972 -4.94486,-11.31659c-0.43116,-3.42474 1.1046,-13.24168 1.1046,-13.24168c0,0 1.19091,7.45787 1.62207,10.88262z" fill="#f49285" stroke="none" stroke-width="0"/><path d="M179.82033,188.90767c1.3699,-0.17247 0.91516,1.26488 1.08762,2.63478c0.17247,1.3699 -3.24744,3.18056 -4.61733,3.35303c-1.3699,0.17247 -12.70546,9.15879 -12.70546,9.15879c0,0 14.86527,-14.97414 16.23516,-15.1466z" fill="#000000" stroke="none" stroke-width="0"/><path d="M190.31479,204.2167c0.12073,0.95894 2.97614,0.12926 1.67472,0.2931c-1.3014,0.16384 -13.25956,13.76408 -13.25956,13.76408c0,0 9.5384,-14.80743 10.83981,-14.97128c1.3014,-0.16384 0.6243,-0.04483 0.74501,0.91409z" fill="#000000" stroke="none" stroke-width="0"/><path d="M189.98869,203.6278c0.12415,0.98616 9.05534,-2.6009 12.06927,5.60777c0.69807,1.90126 -0.03141,11.73633 -5.35499,16.45423c-6.96117,6.16919 -19.60889,9.7705 -20.45046,9.36632c-3.16903,-1.52197 -8.22207,-7.07167 -8.22207,-7.07167c0,0 -0.91825,-0.26139 -2.45234,-0.05997c-1.54659,0.20307 -2.75104,0.49447 -3.46953,0.1005c-3.58897,-1.968 -8.07705,-9.79133 -8.07705,-9.79133c0,0 -1.96062,0.56214 -5.21452,0.72785c-2.30245,0.11726 -5.34474,0.29925 -7.54019,-1.32861c-4.44428,-3.29528 -4.25089,-11.80456 -3.60266,-17.24577c0.24502,-2.05665 2.88559,-6.7975 7.70082,-11.58661c7.33648,-7.29666 15.02509,-12.6923 23.62654,-13.77521c3.29233,-0.41449 6.66487,2.40343 9.43339,6.19804c0.14906,0.20431 2.29064,3.2038 2.49694,4.33844c0.63405,3.48733 -1.41551,6.05912 -1.41551,6.05912c0,0 6.05129,1.59667 8.40272,2.80209c2.48243,1.27257 1.71199,6.3643 2.06961,9.20477z" fill="none" stroke="#000000" stroke-width="2.5"/><path d="M189.98869,203.6278c0.12415,0.98616 9.05534,-2.6009 12.06927,5.60777c0.69807,1.90126 -0.03141,11.73633 -5.35499,16.45423c-6.96117,6.16919 -18.7104,8.90146 -19.55199,8.49728c-3.16903,-1.52197 -8.28452,-7.56776 -8.28452,-7.56776c0,0 -1.87919,0.11156 -3.4133,0.31299c-1.54659,0.20307 -2.75104,0.49447 -3.46953,0.1005c-3.58897,-1.968 -7.58097,-9.85379 -7.58097,-9.85379c0,0 -2.70473,0.65584 -5.95864,0.82152c-2.30245,0.11726 -4.84866,0.23679 -7.0441,-1.39107c-4.44428,-3.29528 -4.37403,-10.78117 -3.72578,-16.22238c0.24502,-2.05665 2.88559,-6.7975 7.70082,-11.58661c7.33648,-7.29666 15.02509,-12.6923 23.62654,-13.77521c3.29233,-0.41449 6.66487,2.40343 9.43339,6.19804c0.14906,0.20431 2.29064,3.2038 2.49694,4.33844c0.63405,3.48733 -1.41551,6.05912 -1.41551,6.05912c0,0 6.05129,1.59667 8.40272,2.80209c2.48243,1.27257 1.71199,6.3643 2.06961,9.20477z" fill="none" stroke="#000000" stroke-width="2.5"/></g></g><path d="M286.86158,212.61033c0.71358,-0.83873 2.04241,-1.30425 2.87086,-0.53418c2.64604,2.45959 9.04711,6.94833 12.0029,7.62816c3.33819,0.76779 9.06398,-4.60777 9.06398,-4.60777c0,0 6.06209,5.95932 6.33851,12.42496c0.14168,3.31393 -2.69846,5.87812 -5.32461,8.81462c-3.63256,4.06187 -7.54069,8.1511 -8.73629,9.76742c-1.23021,1.66309 -5.70907,6.59239 -9.04657,6.60237c-1.18597,0.00355 -5.67182,-4.10308 -8.28632,-9.56372c-2.86381,-5.98135 -4.13196,-12.83749 -5.76518,-12.16068c-4.11515,1.70532 -12.16853,3.19836 -15.91571,8.26333c-0.36822,0.49771 -0.44023,4.24866 -0.44023,4.24866c0,0 -4.99074,-0.09146 -7.25509,-0.35981c-1.99322,-0.23622 -6.12166,-1.16624 -6.12166,-1.16624c0,0 -2.07213,-4.42458 -5.06823,-7.12547c-2.65367,-2.3922 -10.64411,-8.49216 -11.25606,-8.01649c-1.10684,0.86034 -2.02065,3.69125 -4.51191,6.89002c-2.1633,2.77767 -6.2537,4.62251 -6.2537,4.62251c0,0 -13.1268,-14.04339 -17.45857,-13.59367c-3.6307,0.37693 -5.65406,0.14275 -8.23922,0.57813c-6.03427,1.01626 -9.30221,1.68221 -9.30221,1.68221c0,0 0.4698,-4.40395 1.31386,-6.87344c1.07102,-3.13353 3.32837,-9.26472 4.59509,-10.41456c0.75294,-0.68347 4.25311,1.42056 7.00523,2.38783c3.36424,1.18242 11.71513,4.19175 11.71513,4.19175c0,0 14.04593,-13.62492 20.6207,-13.62492c12.93628,0 29.20606,5.46061 37.7763,10.50115c7.34582,4.3204 7.9737,7.08218 7.9737,7.08218c0,0 6.05442,-5.70395 7.7053,-7.64435z" fill="#0066cc" stroke="#000000" stroke-width="3.5" stroke-linecap="butt"/><path d="M232.83125,226.57968c0,0 -1.80488,2.82066 -4.05005,5.46243c-2.01157,2.3669 -4.45548,4.59019 -4.97495,4.51257c-1.09446,-0.16352 -3.83768,-2.40147 -5.0632,-4.62109c-0.55741,-1.00955 0.30953,-1.69807 -0.16469,-2.74389c-1.60333,-3.53589 -5.3471,-11.31002 -5.3471,-11.31002l6.725,-8.175c0,0 5.55298,-8.88472 17.6009,-8.70053c12.48608,0.19089 31.60249,9.48049 38.67529,11.22594c2.50715,0.61872 2.1264,9.96369 2.45582,10.38816c0.59366,0.76497 -10.59267,6.85916 -23.69684,7.98905c-8.69805,0.74998 -19.23389,-4.68175 -19.23389,-4.68175z" fill="#0f1b82" stroke="none" stroke-width="0" stroke-linecap="butt"/><path d="M233.83125,227.62968l-4.7,-6.9c0,0 3.60999,2.7342 5.20188,3.99096c1.57459,1.2431 4.09812,3.70904 4.09812,3.70904z" fill="#000000" stroke="none" stroke-width="0" stroke-linecap="butt"/><path d="M280.87147,215.52553c0,0 -5.91435,3.91667 -30.43222,3.91667c-34.80015,0 -40.7145,-18.58334 -40.7145,-18.58334c0,0 11.67644,-10.68256 24.37915,-17.33343c12.25478,-6.41635 7.04233,-23.62123 18.74008,-23.4999c1.19054,0.01235 37.32949,-14.18812 46.75687,-16.07306c7.64429,-1.52842 0.28013,12.09126 4.71714,18.42103c1.52315,2.1729 -1.19601,8.66483 -0.43025,13.3924c0.8185,5.05321 6.84885,12.78909 6.52029,14.51507c-0.58551,3.07583 -6.97183,5.76705 -12.06724,5.21891c-6.39336,-0.68778 -15.66303,-8.65767 -15.66303,-8.65767c0,0 -1.93011,9.06754 -2.23196,17.1829c-0.24568,6.60523 0.42567,11.50042 0.42567,11.50042z" fill="#feebf7" stroke="#000000" stroke-width="3.5" stroke-linecap="butt"/><path d="M314.33125,223.32968l1.64984,5.20247c0,0 -4.77033,6.68823 -9.77761,12.75712c-4.39933,5.33205 -9.58158,9.94041 -11.27223,9.94041c-0.84176,0 -4.41023,-2.60498 -6.52619,-6.32829c-3.44539,-6.06264 -5.68182,-14.42983 -5.68182,-14.42983c0,0 9.65913,11.75812 13.00801,11.75812c5.41239,0 18.6,-18.9 18.6,-18.9z" fill="#0f1b82" stroke="none" stroke-width="0" stroke-linecap="butt"/><path d="M303.22476,167.98383l-62.25,13.5c0,0 4.20495,-14.79204 8.30352,-17.2423c3.89631,-2.32934 52.19648,-18.5077 52.19648,-18.5077c0,0 0.83136,17.50907 1.66947,18.70638c0.90652,1.29503 0.08053,3.54362 0.08053,3.54362z" fill="#cb8ad4" stroke="none" stroke-width="0" stroke-linecap="butt"/><path d="M284.80808,187.02553l-1.75,2.125l-7.5,-13.375z" fill="#000000" stroke="none" stroke-width="0" stroke-linecap="butt"/><path d="M281.8424,185.72426c0,0 -0.9091,3.38831 -1.55606,5.28157c-0.75247,2.20201 -1.19767,8.39471 -1.19767,8.39471c0,0 -2.59029,-10.17445 -3.24461,-14.26836c-0.63004,-3.94201 -1.10877,-10.85664 -1.10877,-10.85664z" fill="#d991e5" stroke="none" stroke-width="0" stroke-linecap="butt"/><path d="M248.73936,206.65053c-6.88212,2.17004 -15.5478,-1.08908 -15.5478,-5.75c0,-4.37262 5.38489,-11.23267 12.22254,-12.85967c3.73276,-0.88819 15.24247,-4.90606 20.45426,-0.28232c2.95204,2.61897 -4.44325,14.89198 -17.129,18.89198z" fill="none" stroke="#ff0c0d" stroke-width="4.5" stroke-linecap="butt"/><path d="M251.35139,205.15053l-5.97035,-17" fill="none" stroke="#ff0c0d" stroke-width="4.5" stroke-linecap="round"/><path d="M253.39146,258.02549c0,4.87365 -0.80165,7.39012 -6.63824,11.57472c-6.63988,4.76054 -19.59,-0.37331 -31.11873,3.8003c-42.60923,15.42529 -64.9311,2.98695 -64.9311,2.98695c0,0 -1.64525,-3.7106 -1.64525,-11.02863c0,-5.09699 16.77865,-19.23488 37.52878,-24.78399c1.80978,-0.48398 2.47122,-1.46601 2.47122,-1.46601c0,0 -8.12644,-7.3777 -3.31289,-10.22073c1.04169,-0.61525 15.3137,-5.94882 22.86768,-3.1114c6.74282,2.53274 13.66597,13.89488 13.66597,13.89488c0,0 4.89149,-4.51481 7.01376,-6.69058c1.76381,-1.80828 4.84458,-5.46671 4.84458,-5.46671c0,0 8.24465,3.83113 12.89074,10.89554c4.9701,7.55706 6.3635,18.41716 6.3635,19.61568z" fill="#ff2d32" stroke="#000000" stroke-width="3.5" stroke-linecap="butt"/><path d="M252.29557,260.85881c0,5.72996 -14.74439,16.125 -37.25,16.125c-22.50561,0 -42.75,7.10496 -42.75,1.375c0,-3.33766 -2.38558,-14.22705 7.58554,-20.23299c3.06757,-1.8477 9.61826,-5.91209 16.66769,-9.9499c9.37449,-5.36956 20.99677,-11.94211 20.99677,-11.94211l3.87393,4.83417l-4.20246,3.29598c0,0 4.90575,0.62414 7.74876,0.05969c3.47601,-0.69012 14.77733,-10.66648 18.43447,-7.89004c0.31145,0.23645 2.51129,2.05113 4.41666,6.5471c2.77184,6.54053 4.47863,17.27286 4.47863,17.77811z" fill="#ab164a" stroke="none" stroke-width="0" stroke-linecap="butt"/><path d="M248.29556,275.23384c-2.9109,1.67171 -8.30455,3.51894 -18.24822,4.03428c-5.32293,0.27587 -12.12805,-0.9001 -20.15577,-0.29893c-7.00778,0.52479 -11.38027,8.82215 -40.42359,9.41051c-20.9262,0.42392 -27.08908,-9.98005 -27.83908,-12.39585c-0.22075,-0.71105 -0.29236,-2.8705 1.01111,-5.58458c1.32898,-2.76719 3.92097,-5.11609 3.92097,-5.11609c0,0 1.28508,4.81382 3.49429,5.9215c4.55774,2.28523 23.67023,4.6902 34.22792,4.69419c10.62003,0.00401 25.57496,-9.66503 31.76237,-9.91503c8.39745,-0.33929 19.65926,0.73355 27.1872,-1.31062c7.17562,-1.9485 10.82157,-7.02618 10.82157,-7.02618c0,0 3.27045,2.99115 2.42191,6.70679c-1.01338,4.43748 -6.30305,9.8017 -8.18068,10.88001z" fill="#feecf8" stroke="#000000" stroke-width="4.5" stroke-linecap="butt"/><path d="M255.56917,264.23381c0,0 -1.88814,5.17215 -7.20111,8.82115c-1.89463,1.30124 -4.87947,1.69072 -7.45604,2.38725c-14.03863,3.79503 -28.83316,-0.14117 -34.1682,1.86186c-8.88769,3.33686 -7.82856,6.31703 -21.74176,7.61932c-6.4082,0.59981 -12.18288,1.31055 -12.18288,1.31055c0,0 -2.17505,-3.48381 -2.76762,-5.24426c-0.46662,-1.38628 -1.00105,-3.2172 -1.00105,-3.2172c0,0 13.33791,-0.53873 18.64366,-0.53873c4.73946,0 18.49068,-8.13765 26.6706,-10.01482c7.76538,-1.78204 17.68493,-0.41974 24.47885,-0.83825c5.24824,-0.3233 4.3507,-0.64996 7.17902,-1.15663c1.67577,-0.30021 7.32621,-5.80604 7.32621,-5.80604z" fill="#db93e6" stroke="none" stroke-width="0" stroke-linecap="butt"/><path d="M222.40353,238.35885c0,0.29172 3.46479,-0.39877 3.46479,-0.39877c0,0 -1.9634,5.689 -3.62228,6.80511c-2.5392,1.70839 -10.84251,1.39366 -10.84251,1.39366c0,0 4.52598,-1.67928 7.11178,-3.65361c2.71123,-2.07011 3.88822,-4.82483 3.88822,-4.14639z" fill="#000000" stroke="none" stroke-width="0" stroke-linecap="butt"/><path d="M243.04518,237.19773c0.41295,1.21559 -0.27293,2.54773 -1.53193,2.97543c-1.25901,0.42769 -2.61438,-0.21103 -3.02733,-1.42661c-0.41295,-1.21559 0.27293,-2.54773 1.53193,-2.97543c1.25901,-0.42769 2.61438,0.21103 3.02733,1.42661z" fill="#000000" stroke="none" stroke-width="0" stroke-linecap="butt"/><path d="M244.86364,243.92095c0,1.25621 -1.05348,2.27458 -2.35301,2.27458c-1.29953,0 -2.35301,-1.01837 -2.35301,-2.27458c0,-1.25621 1.05348,-2.27457 2.35301,-2.27457c1.29953,0 2.35301,1.01836 2.35301,2.27457z" fill="#000000" stroke="none" stroke-width="0" stroke-linecap="butt"/><path d="M209.62303,248.22975c0,1.013 -0.5012,3.90774 -2.17248,5.19963c-1.18881,0.91894 -4.62778,-0.13342 -4.93312,-0.35941c-1.9253,-1.42492 -3.51537,-3.71057 -5.53311,-4.88673c-4.74785,-2.76758 -9.60381,-1.47965 -9.60381,-6.11856c0,-3.03655 4.67329,-2.24898 10.7464,-2.24898c6.0731,0 11.49613,5.3775 11.49613,8.41405z" fill="#feebf7" stroke="#000000" stroke-width="3" stroke-linecap="butt"/><path d="M208.15618,249.14818c0,1.84034 -0.39138,3.58216 -2.41575,3.58216c-2.02437,0 -6.16482,-4.33197 -6.16482,-4.33197c0,0 3.1407,-4.58191 5.16507,-4.58191c2.02437,0 3.4155,3.49139 3.4155,5.33172z" fill="#dd94e8" stroke="none" stroke-width="0" stroke-linecap="butt"/><path d="M198.2423,257.27115c0,1.4972 -0.58577,2.1047 -1.05483,2.58024c-0.41748,0.42325 -0.58668,0.79391 -2.56927,0.79391c-1.99617,0 -4.22969,-4.68131 -8.12966,-8.06633c-4.32546,-3.75431 -9.9908,-6.81651 -9.9908,-8.30457c0,-1.64327 1.31951,-2.51585 3.25048,-2.9587c0.74607,-0.1711 6.88234,2.7428 11.72928,6.85218c4.21084,3.57008 6.7648,7.78775 6.7648,9.10327z" fill="#feebf7" stroke="#000000" stroke-width="3" stroke-linecap="butt"/><path d="M196.99261,257.14618c0,1.38036 -0.48109,2.24944 -1.9995,2.24944c-1.51841,0 -5.24869,-4.99875 -5.24869,-4.99875c0,0 1.37174,-1.91424 2.01873,-2.34556c0.599,-0.39933 1.73034,-0.15381 1.73034,-0.15381c0,0 3.49912,3.86832 3.49912,5.24868z" fill="#dd94e8" stroke="none" stroke-width="0" stroke-linecap="butt"/><path d="M188.91792,261.97542c0,1.07477 -2.10827,4.33188 -3.99867,2.99899c-2.02633,-1.42872 -4.23695,-6.07406 -8.02549,-9.22955c-5.21008,-4.33949 -9.92015,-6.67979 -9.75464,-8.11179c0.24413,-2.1122 2.08216,-2.35461 3.11605,-3.28322c1.06908,-0.96021 5.99827,2.37402 10.89084,7.40062c3.67912,3.77989 7.77192,7.61827 7.77192,10.22495z" fill="#feebf7" stroke="#000000" stroke-width="3" stroke-linecap="butt"/><path d="M187.66406,261.47972c0,1.38036 -0.41474,2.24944 -1.72373,2.24944c-1.30899,0 -4.52479,-4.99875 -4.52479,-4.99875c0,0 0.84933,-1.58102 1.40708,-2.01234c0.51638,-0.39933 1.15847,-0.48703 1.15847,-0.48703c0,0 3.68297,3.86832 3.68297,5.24868z" fill="#dd94e8" stroke="none" stroke-width="0" stroke-linecap="butt"/><path d="M344.52471,276.15506c0,6.90125 -28.55013,21.24365 -44.65306,21.24365c-9.55993,0 -26.01972,2.42813 -36.81438,-4.16472c-2.58621,-1.57953 -6.49639,-9.80222 -8.01048,-11.65006c-2.81125,-3.43092 1.38923,-14.4734 1.82534,-15.73299c1.58946,-4.59075 -1.50793,-8.3782 -2.79995,-9.53053c-1.91834,-1.71093 -9.19953,-0.64137 -12.90285,-0.15334c-1.5601,0.20559 -2.24194,-3.07379 -1.72752,-5.53222c0.60452,-2.88907 2.89931,-6.10631 3.49831,-6.43315c0.41956,-0.22893 2.78864,-2.78455 7.23554,-2.77478c3.66424,0.00806 9.55391,3.97344 12.39711,3.39243c1.52992,-0.31265 -0.30282,-4.82253 2.00362,-6.57629c4.41728,-3.35879 6.53488,-5.39057 10.59203,-6.50668c3.10514,-0.85422 6.65795,-1.17207 6.78637,-0.57771c0.22659,1.04869 1.12509,7.10317 3.76098,12.05406c2.45254,4.6065 6.83104,8.10958 7.20171,8.16361c2.74086,0.39955 1.05448,0.25385 3.81871,-0.1576c2.16922,-0.32288 10.84144,-9.88737 15.00557,-15.68901c3.62363,-5.0486 9.45509,-8.88318 10.90278,-8.93226c2.15109,-0.07293 7.78957,5.55332 6.18252,9.51305c-0.33387,0.82263 -10.69311,9.40329 -10.31632,9.50671c8.47503,2.32617 17.07315,8.6345 22.04638,15.85533c3.53917,5.13866 3.96759,12.19788 3.96759,14.68251z" fill="#ff2d32" stroke="#000000" stroke-width="3.5" stroke-linecap="butt"/><path d="M340.65345,274.73071c0,5.24539 -33.5497,20.49487 -52.7368,20.49487c-19.1871,0 -29.49262,-9.9975 -29.49262,-9.9975c0,0 16.05417,-20.74473 35.24126,-20.74473c4.60995,0 17.87731,-4.92835 26.48892,-3.55514c4.85958,0.77491 8.89561,9.21236 8.89561,9.21236c0,0 2.30562,-2.18897 3.05999,-4.3198c0.91918,-2.59632 1.80905,-9.88945 1.80905,-9.88945c0,0 2.10541,1.96864 3.30651,2.27389c5.82639,1.48071 3.42807,14.53741 3.42807,16.5255z" fill="#ab164a" stroke="none" stroke-width="0" stroke-linecap="butt"/><path d="M347.15181,274.48079c0,5.93558 -10.7601,19.24518 -37.11571,24.99374c-16.25142,3.54469 -35.80488,2.56163 -45.40644,-0.4261c-19.18825,-5.97085 -17.20289,-19.48856 -17.20289,-21.5684c0,-2.1552 6.27317,-5.24624 6.27317,-5.24624c0,0 0.69646,10.91468 5.24398,13.20446c9.97179,5.02101 29.89418,4.28872 41.09468,4.28872c10.01461,0 28.46189,-6.25507 36.12492,-15.98895c3.42608,-4.35195 2.09665,-16.74846 2.09665,-16.74846c0,0 0.30518,-0.5435 2.13001,-0.31856c8.28661,1.02148 6.76163,16.07399 6.76163,17.80978z" fill="#f9e8f4" stroke="#000000" stroke-width="4" stroke-linecap="butt"/><path d="M286.91397,248.69768l-8.83039,1.33289c0,0 0.79269,-4.88527 0.87597,-7.00905c0.12299,-3.13624 1.78981,-10.65172 1.78981,-10.65172c0,0 1.3736,5.13181 2.48972,9.2423c0.95177,3.50521 3.67488,7.08558 3.67488,7.08558z" fill="#ab164a" stroke="none" stroke-width="0" stroke-linecap="butt"/><path d="M325.90096,230.53707c0,0 2.918,3.13363 1.41588,5.51472c-1.96431,3.11375 -8.98121,6.84212 -10.91271,7.98078c-0.49584,0.29231 -1.84972,0.51003 -3.09677,1.15471c-2.89594,1.49713 -6.34627,5.49916 -7.94627,5.94249c-3.20894,0.88914 -1.4528,-3.26515 -1.4528,-3.26515c0,0 4.06225,-7.05362 9.62712,-11.67581c5.25603,-4.36566 12.36554,-5.65175 12.36554,-5.65175z" fill="#ab164a" stroke="none" stroke-width="0" stroke-linecap="butt"/><path d="M274.25153,257.19482l-2.66577,0.83306l-8.33056,-13.4955l0.66645,-3.83205z" fill="#000000" stroke="none" stroke-width="0" stroke-linecap="butt"/><path d="M344.65244,263.48354c0,0 1.79099,12.11569 -0.79271,15.88786c-1.58474,2.31369 -8.84946,8.67081 -18.40433,13.20631c-8.01225,3.80325 -18.47831,6.52871 -22.54251,6.89682c-24.83517,2.24944 -39.74006,-2.74931 -39.74006,-2.74931c0,0 20.63225,5.84006 51.62664,-3.8391c7.10332,-2.21828 16.12815,-5.86496 22.2695,-11.7421c5.38585,-5.15415 7.58348,-17.66048 7.58348,-17.66048z" fill="#db93e6" stroke="none" stroke-width="0" stroke-linecap="butt"/><path d="M293.57841,264.19248c0,2.48445 -27.99066,-0.51454 -27.99066,-3.99867c0,-1.25098 4.94701,-5.91216 10.19004,-8.90865c5.16965,-2.95455 10.63635,-4.25362 10.63635,-4.25362l4.26807,5.28695c0,0 2.56423,1.54527 3.90055,1.48954c1.20155,-0.05012 3.08964,-0.80921 3.08964,-0.80921c0,0 2.04868,-3.74668 5.39648,-4.78334c3.05535,-0.9461 8.80404,3.0873 8.14532,4.13187c-1.33207,2.11234 -17.63578,11.58477 -17.63578,11.84514z" fill="#fcecf8" stroke="#000000" stroke-width="2.5" stroke-linecap="butt"/><path d="M289.57975,254.36245c0,0.88438 2.94365,-0.36437 9.00189,-0.24153c2.38979,0.04845 0.7492,-4.83163 6.10334,-4.96823c5.29181,-0.13501 5.97301,6.83029 5.8894,7.20946c-0.48212,2.18656 -15.93205,7.66375 -17.16258,7.66375c-2.48445,0 -12.82906,-13.66211 -12.82906,-13.66211l5.16494,-2.33255c0,0 3.83206,3.38669 3.83206,6.33122z" fill="#db93e6" stroke="none" stroke-width="0" stroke-linecap="butt"/><path d="M317.32433,257.91499c-3.52562,2.06802 -13.80392,3.35447 -22.65862,3.71069c-8.73157,0.35126 -18.642,4.60812 -23.48854,4.97682c-1.99195,0.15154 -2.58168,-0.54022 -2.72767,-1.75448c-0.34051,-2.83213 11.65711,-8.6395 25.22884,-11.18642c6.03472,-1.1325 14.56883,-1.04275 19.13304,0.19548c4.60146,1.24835 5.20569,3.65157 4.51295,4.05791z" fill="#feeffb" stroke="#000000" stroke-width="2.5" stroke-linecap="butt"/><path d="M323.32851,263.57482c-3.74205,2.01797 -14.97332,1.85485 -24.28512,2.39938c-9.88881,0.57828 -20.39277,6.36933 -25.50001,6.66948c-2.0991,0.12336 -2.4038,-2.24244 -2.53941,-3.45864c-0.31629,-2.83665 11.09572,-6.12472 25.42001,-8.47955c6.36935,-1.04708 16.73598,-2.20413 21.5221,-0.90149c4.82518,1.31327 6.1177,3.37431 5.38243,3.77081z" fill="#feeffb" stroke="#000000" stroke-width="2.5" stroke-linecap="butt"/><path d="M262.25553,252.19651c0,0 -3.34358,2.54372 -6.62291,3.08434c-1.45963,0.24063 -2.90653,-1.25162 -4.0402,-1.25162c-3.68067,0 -6.22254,1.93219 -9.99667,0.49983c-2.25265,-0.85492 0,-5.49816 0,-5.49816c0,0 5.19136,-0.75898 7.64436,-0.6285c2.73642,0.14556 13.01541,3.79411 13.01541,3.79411z" fill="#ab164a" stroke="none" stroke-width="0" stroke-linecap="butt"/><path d="M303.24186,254.52906l-3.18684,4.50323l-8.30933,1.32816l-4.83173,-3.83206c0,0 5.41264,-2.10713 8.96098,-2.49523c3.56035,-0.38942 7.3669,0.49589 7.3669,0.49589z" fill="#db93e6" stroke="none" stroke-width="0" stroke-linecap="butt"/><path d="M252.59209,254.52907c0,0.70149 7.03568,-0.08349 5.43598,0.28576c-1.54788,0.35728 -1.71504,3.54629 -2.93681,3.54629c-1.03898,0 -1.51152,-1.48672 -4.03613,-2.15442c-3.51236,-0.92892 -9.12614,-1.20782 -9.12614,-2.01086c0,-1.38025 3.34694,-3.49883 5.83139,-3.49883c2.48445,0 4.83172,2.45181 4.83172,3.83206z" fill="#000000" stroke="none" stroke-width="0" stroke-linecap="butt"/><path d="M327.23385,236.36846c0,0.84587 -4.34276,5.43105 -5.60334,8.44163c-0.9045,2.16017 0.89661,4.03481 0.89661,4.03481l-10.13792,-3.06493c0,0 0.7133,-1.48177 3.4169,-2.33931c2.1574,-0.68429 3.43042,-1.39545 3.43042,-1.74066c0,-0.90533 -0.06662,-4.00494 1.70172,-5.13204c2.18576,-1.39316 6.29561,-1.31855 6.29561,-0.19951z" fill="#000000" stroke="none" stroke-width="0" stroke-linecap="butt"/><path d="M85,326.50003v-286h347v286z" fill="none" stroke="none" stroke-width="0" stroke-linecap="butt"/><g stroke-linecap="butt"><path d="M361.56349,154.56271c-3.24591,1.3861 -0.61728,0.9384 -11.87188,-0.29362c-5.20473,-0.56975 -13.08943,-4.59933 -16.98576,-7.23198c-4.52902,-3.06014 -5.79185,-3.71265 -5.43649,-6.95893c0.66108,-6.03906 11.85538,-5.57636 23.10997,-4.34433c6.75195,0.73913 13.00964,1.85657 14.83811,3.39657c1.55818,1.31237 1.13414,6.15765 0.3919,8.93336c-0.74498,2.78595 -0.79994,5.11281 -4.04585,6.49891z" fill="#0066cc" stroke="#000000" stroke-width="5"/><path d="M363.52368,148.90908c0,0 -0.57777,3.68036 -3.13863,4.19247c-1.35703,0.27138 -10.23575,0.03487 -16.12407,-2.54444c-4.53714,-1.98744 -9.76424,-3.88889 -12.27712,-6.0332c-1.6277,-1.38896 -1.45538,-3.58599 -1.45538,-3.58599c0,0 11.29385,3.33477 16.84445,4.84794c5.4078,1.47423 16.15074,3.12322 16.15074,3.12322z" fill="#0f1980" stroke="none" stroke-width="0"/><path d="M188.36913,158.03636c0.43833,-4.00414 4.36611,-4.77007 9.50359,-6.56517c4.67525,-1.63359 8.99871,-1.90224 8.99871,-1.90224c0,0 -2.0755,-8.4102 -2.86585,-12.22451c-0.83175,-4.01415 -2.26557,-11.99025 -2.26557,-11.99025c0,0 27.50412,-15.50965 54.44481,-13.74248c25.03372,1.64206 49.88305,22.61261 52.22584,26.86563c0.20954,0.38039 0.39271,6.71762 -1.3616,11.6995c-1.30435,3.70408 -3.61486,6.06622 -8.1265,7.82132c-14.50049,5.64092 -32.72782,11.51993 -49.66768,13.55738c-10.77491,1.29595 -26.40735,2.56572 -39.41686,-0.61392c-11.94205,-2.91873 -21.95454,-8.46883 -21.46889,-12.90526z" fill="#fddfbd" stroke="#000000" stroke-width="3.5"/><path d="M306.9424,139.32824c0,0 1.13154,8.29214 -2.53975,12.76936c-3.52176,4.29485 -12.48219,6.89302 -12.48219,6.89302l-4.42258,-6.0439l-10.46825,10.02492l-12.53462,-24.24585l-21.00227,12.02583l-3.18878,-19.20883l-33.63926,11.24275l-3.80614,-16.02485c0,0 68.35758,-12.13348 74.85413,-11.42231c6.49656,0.71117 29.2297,23.98986 29.2297,23.98986z" fill="#f99587" stroke="none" stroke-width="0"/><path d="M308.38971,140.72897c-6.8552,-1.44234 -32.87845,-8.1501 -42.40336,-15.30074c-18.37365,-13.79366 -30.48488,-18.11395 -40.80167,-19.24332c-19.58119,-2.14352 -32.17707,5.99761 -31.16541,-3.24397c0.2355,-2.15138 1.37091,-41.32931 3.14471,-43.04705c5.84585,-5.66112 33.38716,-13.01296 67.64891,-9.39402c14.43537,1.52475 34.60449,9.42502 36.22525,10.33304c15.04096,8.4266 28.41729,51.61721 27.55197,59.52194c0,0 1.06868,3.64425 -1.06734,6.42247c-2.30163,2.99362 -6.69326,3.72741 -10.29344,6.47523c-3.91807,2.99046 -7.02854,7.85749 -8.83963,7.47643z" fill="#ff2d32" stroke="#000000" stroke-width="5"/><path d="M248.28198,137.6013c0,0 -1.46409,-4.73624 -1.70696,-7.12725c-0.2538,-2.49868 -0.11587,-7.59233 -0.11587,-7.59233c0,0 -13.81727,2.47686 -20.73619,4.26182c-7.08486,1.82776 -22.68491,7.097 -22.68491,7.097l0.91536,5.02829c0,0 -9.17073,1.8526 -14.00213,3.48939c-5.64632,1.91287 -17.81369,7.28919 -17.81369,7.28919c0,0 2.86844,-10.17331 5.75576,-14.89857c2.86107,-4.68232 11.49016,-13.32531 11.49016,-13.32531c0,0 -3.62541,-0.12039 -5.73022,-0.35081c-10.79709,-1.18196 -21.97327,1.61851 -21.97327,1.61851c0,0 27.74294,-46.92639 38.54005,-45.74445c1.42065,0.15552 8.58898,2.66114 15.74012,6.93833c7.57059,4.52804 14.25486,9.40288 14.25486,9.40288c0,0 0.31421,-4.9161 3.96081,-12.62456c3.02431,-6.39295 10.8315,-11.66638 10.8315,-11.66638c0,0 3.68078,17.05238 6.48085,25.85944c2.95951,9.30859 10.82439,28.5709 10.82439,28.5709c0,0 -6.44076,5.62154 -8.94704,8.03968c-1.79122,1.72824 -5.08356,5.73425 -5.08356,5.73425z" fill="#66ffff" stroke="#000000" stroke-width="3.5"/><path d="M237.79779,107.78338c0,0 0.51874,-10.27862 1.70025,-15.48278c1.41869,-6.2489 4.83325,-18.93538 4.83325,-18.93538c0,0 4.11542,16.90657 6.81146,24.9967c2.98896,8.96913 9.48539,25.01935 9.48539,25.01935c0,0 -4.00026,3.09051 -5.88854,5.00302c-1.912,1.93653 -5.71198,6.52329 -5.71198,6.52329c0,0 -0.74739,-3.8712 -0.95262,-6.12242c-0.22789,-2.50013 -0.18224,-7.93977 -0.18224,-7.93977c0,0 -17.1644,3.20616 -25.08331,5.38999c-6.85441,1.89026 -19.9309,6.01234 -19.9309,6.01234l-0.99807,5.50621c0,0 -5.46692,1.01993 -8.5493,1.95621c-3.56444,1.08271 -11.60203,4.16483 -11.60203,4.16483l32.10967,-33.18146c0,0 -8.84609,0.36536 -13.81106,1.02726c-6.40456,0.8538 -21.40903,3.66802 -21.40903,3.66802c0,0 8.37291,-7.84156 12.64185,-11.52245c4.18395,-3.60759 12.72194,-10.34739 12.72194,-10.34739c0,0 12.32092,4.19358 17.95331,6.56949c5.63935,2.37887 15.86193,7.69494 15.86193,7.69494z" fill="#50a5eb" stroke="none" stroke-width="0"/><path d="M308.1262,141.88079l-2.46753,19.09487c0,0 -9.15131,-9.29295 -12.86514,-12.8909c-2.6553,-2.57248 -7.32772,-6.672 -7.32772,-6.672l-6.88178,10.24318c0,0 -5.32838,-11.29325 -7.781,-15.93899c-2.14274,-4.05882 -6.13099,-10.4132 -6.13099,-10.4132z" fill="#67fcfd" stroke="#000000" stroke-width="3"/><path d="M306.52629,142.71161l-1.63228,14.91092l-19.45061,-17.84298l-6.31527,8.29674l0.80843,-12.74177l-8.82912,-2.26668l-2.97968,-4.8709c0,0 13.84991,4.99016 19.87661,7.24999c5.97113,2.23899 18.52195,7.26469 18.52195,7.26469z" fill="#51a7ee" stroke="none" stroke-width="0"/><path d="M317.80548,132.27773c-3.54982,3.89206 -8.95985,7.99261 -8.95985,7.99261c0,0 -8.80285,-3.67157 -13.51615,-5.36086c-5.12611,-1.83726 -18.16932,-6.32025 -18.16932,-6.32025c0,0 0.82358,-5.4059 2.09696,-12.46117c3.40884,-18.88709 12.15303,-53.32753 21.48611,-52.30587c1.03731,0.11355 1.88437,-0.31891 1.88437,-0.31891c0,0 6.3585,6.50104 12.22653,17.51623c6.68086,12.54095 13.19521,31.29394 12.87464,37.8755c-0.01144,0.23504 0.46008,4.53078 -0.04241,5.51966c0,0 -6.53325,4.19268 -9.88089,7.86306z" fill="#ab164a" stroke="#000000" stroke-width="2.5"/><path d="M330.27167,126.11759c2.12783,3.42829 0.24815,16.19076 -4.38356,26.74634c-2.95989,6.74554 -5.47372,10.85126 -8.40374,10.53052c-5.3412,-0.58469 -9.5704,-8.16309 -9.5704,-8.16309l1.13582,-13.43797c0,0 18.42137,-20.18788 21.22187,-15.6758z" fill="#fddfbd" stroke="#000000" stroke-width="4.5"/><path d="M318.59425,150.96672l4.80068,2.47465c0,0 -1.07307,2.489 -1.85031,3.8919c-0.73354,1.324 -2.10615,4.73469 -3.93093,4.16664c-1.8248,-0.56806 -8.50088,-4.24744 -8.17067,-7.2639c0.08713,-0.79589 0.37967,-2.82217 0.45948,-4.47018c0.11226,-2.31804 0.12692,-4.59523 1.1155,-5.40948c0.97237,-0.80089 0.27234,1.0373 0.27234,1.0373l9.27426,-4.70094z" fill="#fa9789" stroke="none" stroke-width="0"/><path d="M316.36721,155.24518c-0.65902,0.36812 -5.80124,-8.30953 -5.76552,-9.29888c0.04444,-1.23085 8.46075,-6.32128 9.13397,-5.4067c0.76937,1.04518 -2.19481,14.05001 -3.36846,14.70557z" fill="none" stroke="#000000" stroke-width="2"/><path d="M226.43256,149.30196c-1.18645,-0.4925 -2.8417,-2.99027 -3.86959,-7.17026c-1.80177,-7.32709 -1.29752,-17.23789 -1.29752,-17.23789c0,0 8.41401,4.49696 10.30765,11.7637c0.08428,0.32344 0.96341,4.55668 1.42394,8.19167c0.18655,1.47244 -0.28111,3.76084 -1.89937,4.58282c-1.47783,0.75065 -4.08127,0.11234 -4.66512,-0.13003z" fill="#000000" stroke="none" stroke-width="0"/><path d="M269.14908,140.91412c-1.24634,0.59713 -6.89943,4.82978 -10.86118,5.82626c-3.6683,0.92267 -7.02965,1.69042 -7.36002,0.41534c-0.49984,-1.92923 -0.05074,-4.68867 0.16733,-6.68073c0.2301,-2.10196 0.98331,-4.84719 0.98331,-4.84719l11.71683,-10.34094c0,0 -0.35279,8.48493 -1.24122,16.60091c0,0 7.82022,-1.56069 6.59495,-0.97365z" fill="#000000" stroke="none" stroke-width="0"/><path d="M304.1922,93.32384c0,0 -21.63979,17.7682 -32.36513,26.86425c-10.32172,8.75374 -30.82254,26.72457 -30.82254,26.72457c0,0 -15.21807,-12.81831 -21.34097,-21.53299c-6.24895,-8.8941 -16.11348,-31.34056 -16.11348,-31.34056c0,0 11.94213,20.88507 18.59476,29.33817c5.91436,7.51502 19.6986,18.93422 19.6986,18.93422c0,0 15.30582,-13.49071 24.05858,-21.59029c20.62433,-19.08522 38.29021,-27.39739 38.29021,-27.39739z" fill="#000000" stroke="none" stroke-width="0"/><path d="M276.02846,148.58264l10.40902,8.27467c0,0 -16.25523,2.86816 -23.68381,3.75432c-20.34506,2.42696 -27.59988,7.81928 -27.59988,7.81928c0,0 15.42651,-11.17701 23.06692,-13.841c6.76711,-2.3595 17.80775,-6.00727 17.80775,-6.00727z" fill="#000000" stroke="none" stroke-width="0"/><path d="M280.76487,155.92193c0,0 -6.1288,0.79523 -9.81923,1.27408c-4.76913,0.61881 -16.73171,3.46108 -16.73171,3.46108c0,0 5.52314,-3.07856 8.93674,-4.51515c3.6291,-1.52729 12.23095,-4.39314 12.23095,-4.39314z" fill="#ffffff" stroke="none" stroke-width="0"/></g><path d="M305.32602,119.55862c0,4.60237 0.42809,9 -2.33334,9c-2.76142,0 -5.66666,-0.73096 -5.66666,-8.33333c0,-4.60237 0.23858,-15.33333 3,-15.33333c0.62115,0 1.48042,3.90667 2.68444,7.55066c0.91802,2.77839 2.31556,5.12498 2.31556,7.11601z" fill="url(#color-1)" stroke="url(#color-2)" stroke-width="1" stroke-linecap="butt"/><path d="M216.57309,158.97608c0.54548,2.79952 1.3271,5.42377 -0.35262,5.75106c-1.67971,0.32729 -3.53354,0.227 -4.4346,-4.39736c-0.54548,-2.79952 -1.67222,-9.35522 0.00749,-9.68251c0.37783,-0.07362 1.36354,2.20088 2.52781,4.27474c0.88771,1.58123 2.01593,2.84297 2.25191,4.05407z" fill="url(#color-3)" stroke="url(#color-4)" stroke-width="1" stroke-linecap="butt"/></g></g></svg>