<svg version="1.1" xmlns="http://www.w3.org/2000/svg" xmlns:xlink="http://www.w3.org/1999/xlink" width="549.54955" height="400.9009" viewBox="0,0,549.54955,400.9009"><g transform="translate(34.77477,20.45045)"><g data-paper-data="{&quot;isPaintingLayer&quot;:true}" fill-rule="nonzero" stroke-linejoin="miter" stroke-miterlimit="10" stroke-dasharray="" stroke-dashoffset="0" style="mix-blend-mode: normal"><g><g stroke-width="5"><path d="M240.77001,132.03989c0.1059,0.12576 2.02335,6.60235 1.99416,6.76971c-1.31516,7.53577 -16.18141,22.7456 -20.93267,29.13911c-2.76176,3.71637 -5.91296,13.51783 -8.40911,18.3564c-2.24848,4.35852 -6.50082,19.67156 -11.10639,19.22345c-1.06439,-0.10357 -1.91479,-0.39923 -2.58551,-0.84419c-2.97083,2.82431 -8.72731,-0.1942 -9.92675,-4.266c-1.50831,-1.45403 -1.23134,-3.83826 -0.87404,-6.56168c0.28196,-2.14936 1.2369,-4.01705 2.53485,-5.26324c2.27261,-6.08355 2.16298,-11.40532 4.86917,-18.48571c3.4319,-8.97913 14.32239,-18.56182 20.73139,-23.18393c1.72838,-1.24649 3.63095,-3.91895 5.69037,-5.73075c0.94,-2.3631 2.74019,-4.07791 4.74904,-4.47324c4.30574,-4.53072 9.96628,-8.59818 13.2655,-4.67989z" fill="#590909" stroke="none" stroke-linecap="butt"/><path d="M205.65481,204.95681c1.06301,3.02558 -1.35165,4.73876 -1.35165,4.73876l-1.90188,1.09451c-4.94339,0.94767 -9.66088,-3.31106 -14.61532,-2.49928c0,0 -2.63749,0.43214 -2.70107,-3.0178c-0.06358,-3.44996 2.57393,-3.88209 2.57393,-3.88209c4.91315,-0.80499 9.59369,3.4611 14.50315,2.51922l0.0152,-0.26564c0,0 2.41463,-1.71319 3.47764,1.3124z" fill="#000000" stroke="none" stroke-linecap="butt"/><g fill="none" stroke="#000000" stroke-linecap="round"><path d="M186.74886,205.84951c0,0 3.92749,-17.55572 6.1296,-25.09689c2.00815,-6.87702 6.55497,-18.34165 6.55497,-18.34165c0,0 7.58743,-7.11764 14.60204,-13.71913c0.566,-0.53271 10.59372,-8.59219 12.45126,-10.34034c0.68597,-0.6456 2.12945,-2.06832 4.17031,-3.09295c4.62487,-2.32199 11.22068,-4.50351 11.22068,-4.50351"/><path d="M216.79257,173.31352c0,0 -1.78639,7.08993 -3.2847,10.89453c-2.22798,5.6574 -10.04027,25.20369 -10.04027,25.20369"/><path d="M231.94399,154.97893c-1.61318,1.0279 -3.84127,9.78253 -5.80724,11.53738c-4.7093,4.20359 -8.91638,5.27496 -8.91638,5.27496"/></g><path d="M242.34812,128.60595c2.49965,-1.11002 3.31126,1.67539 3.31126,1.67539l0.5516,4.06228c-2.6806,8.03633 -6.57599,16.5661 -12.22937,22.46804c0,0 -2.00626,2.08206 -3.70391,-0.07571c-1.69765,-2.15774 0.30863,-4.23979 0.30863,-4.23979c4.96495,-5.11692 8.42304,-12.92232 10.72098,-19.94247l-0.64728,-0.05228c0,0 -0.81162,-2.78545 1.68804,-3.89546z" fill="#000000" stroke="none" stroke-linecap="butt"/></g><g stroke="#000000" stroke-linecap="butt"><path d="M192.09729,227.292c-8.27934,-1.93126 -13.26276,-7.59534 -11.26152,-16.17467c2.00125,-8.57931 10.33533,-13.96863 18.61466,-12.03736c8.27935,1.93127 12.01698,9.50768 10.01573,18.087c-2.00126,8.57933 -9.08955,12.0563 -17.36887,10.12503z" fill="#ffffff" stroke-width="5"/><path d="M184.6381,208.29543c0.92603,-2.23213 5.53667,-6.84003 7.53923,-6.3729c0.14526,0.03388 0.92139,-0.51447 2.52816,-0.70048c1.89328,-0.21918 4.22132,0.27437 4.36845,0.35905c0.15532,0.08939 0.60244,0.37458 0.72291,0.3014c1.44913,-0.88024 -3.99638,3.87187 -5.41146,5.44386c-0.64907,0.72102 -2.08464,2.40474 -3.84818,6.77839c-0.83395,2.06818 -0.60285,7.45749 -0.44593,9.16088c0.01908,0.20714 0.28239,0.76414 0.08342,0.80158c-1.29083,0.24292 -4.06891,-2.08861 -5.7364,-3.92126c-0.744,-0.8177 -1.58757,-2.96359 -1.63943,-5.30931c-0.03216,-1.45432 0.48846,-3.11462 0.77465,-4.19227c0.32747,-1.23316 0.78637,-1.67824 1.06461,-2.34893z" fill="#c5c5c5" stroke-width="0"/></g></g><g><path d="M278.55774,310.23506l0.35091,0.68456c1.25923,-0.20513 1.38445,-2.12799 2.35055,-2.9391c1.33999,-1.12504 3.16798,-1.62219 4.89344,-2.00969c0.72617,-0.16308 1.47595,-0.30775 2.23339,-0.40955l-0.12203,-0.13042c1.4414,-0.58447 10.39929,-6.17845 11.55471,0.2939c0.94293,0.06592 1.90359,0.14327 2.83087,0.26294c1.52654,1.44797 2.98189,2.95605 4.40148,4.01524c0,0 2.14502,1.60801 0.49259,3.69214c-1.65242,2.08415 -3.79739,0.47612 -3.79739,0.47612c-1.18968,-0.89561 -2.45659,-2.24315 -3.77677,-3.55494c-1.12437,-0.12728 -2.42499,-0.11639 -3.75268,-0.15979c-0.48102,0.19756 -0.95015,0.38228 -1.36592,0.56524c-2.06453,0.90837 -7.94304,-1.4327 -9.56469,0.48168c-0.59418,0.70145 0.00156,2.00867 -0.66074,2.64983c-0.99667,0.9649 -2.55878,1.13705 -3.83814,1.70556l-3.85242,-0.60211c0,0 -2.58321,-0.79076 -1.77179,-3.30154c0.5297,-1.63905 1.81448,-1.87114 2.64274,-1.83473c-1.28044,-6.35591 7.97898,-6.1862 11.82443,-7.14638c2.67615,-0.66822 3.77322,-2.03647 6.90513,-1.13619c2.19475,0.6309 4.20987,2.34359 6.11418,4.1499c4.40521,0.56853 8.05678,2.09228 5.47105,7.88275c-0.67251,1.506 -2.1543,2.52853 -3.23144,3.79278c-4.43682,-1.21152 -8.48745,-3.04729 -13.07383,-3.54647c-2.29956,-0.25029 -7.56728,0.93192 -9.25178,0.471c-1.72417,-0.47176 -3.7191,-1.44379 -4.34449,-3.07564c-0.19002,-0.49581 -0.32607,-0.95891 -0.41327,-1.39178c0.44051,0.01938 0.75193,0.11467 0.75193,0.11467zM287.95073,308.5036c-0.10679,0.01552 -0.21904,0.02672 -0.33562,0.03462c0.63189,0.01369 1.26574,0.06375 1.8958,0.09192c0.60239,0.02695 1.21851,0.05941 1.84246,0.10239l-0.89037,-0.9515c-1.04163,0.3345 -1.98418,0.64585 -2.51232,0.72259zM283.24089,309.54547c-0.19968,0.96595 1.87662,-0.81332 2.88133,-0.94251c0.19178,-0.02466 0.38422,-0.04157 0.57705,-0.05239c-1.50223,-0.02965 -3.21444,-0.18523 -3.45841,0.99489zM303.29463,312.63075c-0.40602,-1.26867 -1.53782,-1.76618 -3.02058,-1.97582c1.1014,0.51255 2.12315,1.15855 3.02058,1.97582zM299.79297,310.4415c-0.40184,-0.39664 -0.80856,-0.788 -1.21937,-1.16049c-0.24176,0.1646 -0.50493,0.31774 -0.7804,0.46184c0.68511,0.1954 1.35451,0.42591 1.99975,0.69864z" data-paper-data="{&quot;index&quot;:null}" fill="#3c2700" stroke="none" stroke-width="5" stroke-linecap="butt"/><path d="M245.51231,307.06139c-0.09864,0.43036 -0.24696,0.88974 -0.45005,1.38033c-0.66845,1.61467 -2.68851,2.53342 -4.42458,2.95925c-1.69614,0.41604 -6.93063,-0.90555 -9.23603,-0.71638c-4.59803,0.37729 -8.69593,2.10493 -13.16333,3.19827c-1.04322,-1.2924 -2.49735,-2.3539 -3.12964,-3.87723c-2.43114,-5.85705 1.25957,-7.28334 5.67833,-7.73476c1.95158,-1.75513 4.01146,-3.41375 6.22215,-3.98618c3.1547,-0.81685 4.21505,0.58006 6.87253,1.31906c3.81862,1.06187 13.07929,1.13797 11.63059,7.45765c0.82894,-0.01441 2.10708,0.25169 2.59312,1.9042c0.74452,2.53144 -1.85878,3.25335 -1.85878,3.25335l-3.86704,0.49966c-1.26387,-0.60226 -2.82083,-0.81575 -3.79153,-1.80676c-0.64507,-0.65851 -0.01485,-1.9495 -0.5902,-2.66647c-1.57029,-1.95673 -7.50885,0.22752 -9.54854,-0.73533c-0.41078,-0.19389 -0.87487,-0.39105 -1.35044,-0.60129c-1.32837,0.00815 -2.62825,-0.03725 -3.75559,0.06014c-1.35452,1.27632 -2.65674,2.58974 -3.86975,3.45344c0,0 -2.18691,1.55054 -3.78343,-0.57674c-1.59652,-2.12726 0.59041,-3.67778 0.59041,-3.67778c1.44723,-1.02114 2.94206,-2.49012 4.50648,-3.89704c0.93013,-0.09504 1.89252,-0.14684 2.83684,-0.1877c1.32677,-6.43941 10.13309,-0.60968 11.55844,0.01284l-0.12543,0.12712c0.75446,0.12187 1.50011,0.28638 2.22171,0.46868c1.71457,0.43314 3.52871,0.97861 4.83839,2.13882c0.94422,0.83646 1.01836,2.76197 2.2717,3.00044l0.36897,-0.675c0,0 0.31382,-0.08704 0.75469,-0.0947zM232.92165,304.38694l-0.91526,0.92755c0.62488,-0.02641 1.24165,-0.04248 1.84454,-0.05343c0.63061,-0.01146 1.26555,-0.04468 1.89757,-0.04159c-0.11631,-0.01097 -0.22819,-0.02517 -0.33454,-0.04351c-0.52593,-0.09072 -1.45992,-0.42696 -2.49231,-0.78901zM236.66368,305.25614c0.1925,0.01592 0.38439,0.03791 0.57546,0.06767c1.00097,0.1558 3.02929,1.98953 2.8553,1.01863c-0.21252,-1.1862 -1.92829,-1.07608 -3.43076,-1.0863zM223.03779,306.99945c-1.48779,0.17022 -2.63235,0.63752 -3.07191,1.89498c0.91879,-0.79318 1.95729,-1.41185 3.07191,-1.89498zM225.54197,306.15356c-0.27154,-0.15139 -0.53051,-0.31144 -0.76784,-0.48239c-0.42055,0.36143 -0.83747,0.74184 -1.24974,1.1277c0.65223,-0.25551 1.32753,-0.46814 2.01756,-0.64531z" fill="#3c2700" stroke="none" stroke-width="5" stroke-linecap="butt"/><path d="M252.5225,269.04703c-0.14413,1.78947 -0.54987,3.82792 -1.06933,5.5312c-1.16908,6.07221 -1.06183,11.8032 -3.14836,17.34029c1.83115,2.58666 3.79308,5.69761 2.07676,10.82506c-0.07297,0.21805 -0.14959,0.43072 -0.22967,0.63819c0.04837,0.42697 0.07045,0.86149 0.06459,1.30196c-0.02414,1.81892 0.54241,4.32126 -0.31253,5.80304c-0.97995,1.6984 -3.12947,-4.07086 -8.68028,-7.96894c-5.08802,-3.57308 -13.65503,-5.2351 -13.65788,-5.30066c-0.40018,-9.17395 -1.60127,-17.88394 0.86666,-26.29893c0.12601,-1.34551 0.19834,-2.62294 0.19191,-3.81416c-0.04199,-7.78 5.63971,-20.76357 7.18911,-32.78216c0.63261,-4.90717 -0.39049,-10.10804 2.33955,-12.81115c1.83233,-1.81424 6.35392,-2.05606 10.46698,-2.00147c8.11778,0.10773 19.56518,2.88916 27.67268,3.30504c2.43638,0.12497 5.79526,1.83195 8.03856,2.76587c3.34547,1.39277 7.73485,-1.8334 10.27413,0.70164c1.59881,1.59614 -1.46601,6.33467 -1.46856,9.77275c-0.00263,3.51394 1.14337,6.75652 0.95186,9.23158c-1.16991,15.11951 1.57884,27.80718 1.05028,42.80668c-0.11774,3.34084 -1.57966,6.32934 -1.41214,9.74159c0.05589,1.13857 -15.7065,14.36583 -21.90696,12.78823c-1.24808,-0.31754 -1.70145,-2.55572 -2.00901,-4.15828c-0.22752,-1.18543 1.30202,-3.50963 1.8703,-4.39778c0.5856,-0.91524 -1.80053,-5.94394 -1.78653,-6.99867c0.10093,-7.60555 -1.23428,-20.60294 1.19709,-27.84865c0.44712,-1.33256 -3.10656,-8.16668 -3.19517,-9.83603c-0.22613,-4.25934 0.80577,-7.7668 0.58752,-12.04827c-0.07531,-1.47743 1.43133,-4.2951 -0.08329,-4.4369c-1.91281,-0.1791 -3.76675,-5.20882 -5.68923,-5.22619c-1.51375,-0.01369 -3.09502,4.9651 -4.61003,4.98812c-0.2327,2.80581 -1.81204,-1.71188 -2.18891,0.94263c0.17728,0.73521 -0.05817,5.7948 -0.06813,6.5443c-0.04883,3.67908 0.92632,-7.53323 1.24294,-3.2566c0.49159,2.94322 -1.57165,16.61432 -1.80921,19.56382z" fill="#001525" stroke="none" stroke-width="5" stroke-linecap="butt"/><path d="M258.85909,235.21323c-0.71107,1.24437 -1.65821,2.0266 -2.75693,2.48695c-3.58199,1.50082 -8.77503,-0.41942 -12.65144,-0.90008c-2.69257,-0.33387 -5.47104,0.85203 -7.19882,-1.64286c-1.10179,-1.59097 -1.37501,-4.87928 -0.45273,-6.74483c-0.01827,-0.12192 -0.02775,-0.24671 -0.02775,-0.37372c0,-1.22776 0.88503,-2.24881 2.05193,-2.45996c0.09689,-0.03131 0.19936,-0.05051 0.30832,-0.05561c2.4629,-0.11532 6.64754,1.41738 9.02601,2.07648c6.81091,1.88737 14.34103,2.48758 21.37725,2.63515c0.86663,0.01818 2.13702,-0.0033 3.39264,0.1398c0.24575,-0.17876 0.57337,-0.31387 1.03203,-0.40284c2.88039,-0.55877 7.33388,-0.12783 9.12476,-0.12829c2.86928,-0.00074 6.83237,-2.711 9.13857,-0.32166c2.08155,2.1566 2.73683,9.01037 -1.02866,9.88942c-2.6932,0.62873 -5.5945,0.02309 -8.21164,0.65008c-2.40699,0.57665 -10.47486,3.89464 -12.3196,0.95669c-1.62811,-2.59293 1.78565,-4.21012 2.94179,-5.27552c-1.28903,0.093 -2.58941,-0.04621 -3.24131,-0.19098c-3.66643,-0.81421 -7.44672,-1.24159 -11.24965,-1.64238z" fill="#000a12" stroke="none" stroke-width="0.5" stroke-linecap="butt"/><path d="M242.5668,303.092c1.55789,0.8195 5.84796,3.75252 5.41684,5.90812c-0.46225,2.31125 -1.32897,2.88906 -3.64022,2.42681c-1.56656,-0.31331 -2.15357,-2.36684 -3.3358,-3.44136c-1.85957,-1.69015 -5.21186,-2.91409 -7.46952,-4.04914c-1.14159,-0.57394 -5.34377,-0.66848 -7.58275,-1.15612c-0.19552,-0.02652 -4.03635,-0.72788 -4.21479,-0.7969c-0.93521,-0.3617 2.05401,-0.61743 2.05401,-1.68029c0,-1.38071 1.11929,-2.5 2.5,-2.5c0.30748,0 0.60198,0.05551 0.87405,0.15705c4.74121,-1.26279 11.19777,2.92228 15.39817,5.13182z" fill="#1c1200" stroke="none" stroke-width="0.5" stroke-linecap="butt"/><path d="M294.82395,300.43017c0.28351,-0.12806 0.59539,-0.21249 0.92631,-0.24294c1.48598,-0.13673 2.79316,0.86702 2.91967,2.24192c0.09738,1.05839 4.42369,2.94132 3.45031,3.39411c-0.18572,0.08639 -5.34087,-0.75916 -5.54886,-0.71338c-2.365,0.70731 -6.87892,1.21757 -8.05496,1.90215c-2.3258,1.35384 -5.82154,2.90461 -7.66803,4.77179c-1.17392,1.18708 -1.61753,3.29009 -3.27483,3.75722c-2.44511,0.68918 -3.43086,0.19963 -4.14012,-2.05613c-0.6615,-2.10384 3.68693,-5.44935 5.28852,-6.41967c4.31822,-2.6162 10.8836,-7.42304 16.102,-6.63506z" data-paper-data="{&quot;index&quot;:null}" fill="#1c1200" stroke="none" stroke-width="0.5" stroke-linecap="butt"/><g fill="none" stroke="#000000" stroke-width="5" stroke-linecap="round"><path d="M276.77293,234.93841l-4.53969,1.29651l-15.28591,-0.5746l-6.43356,60.33629l0.81781,16.54593l-37.68157,0.08135l0.69654,-9.0927l13.16344,-6.37547l8.54568,-76.49128"/><path d="M292.67094,225.1574l0.99811,74.10304l12.62957,7.71465l-0.10312,9.26454l-35.91483,-0.0963l0.12089,-18.24596c0,0 -0.66301,-55.86874 -0.71772,-60.47875c-0.00705,-0.59515 1.37822,-0.60187 1.37822,-0.60187"/><path d="M235.70923,219.34333l56.38088,4.90553"/></g><path d="M249.08754,312.83793c-2.4372,1.14499 -3.61677,-1.22533 -3.61677,-1.22533l-0.60439,-1.38319c-1.19867,-6.10066 -11.02786,-9.5191 -16.67525,-10.24862c0,0 -2.67908,-0.3835 -2.28661,-2.98779c0.39245,-2.60429 3.07152,-2.22078 3.07152,-2.22078c2.34037,0.35949 4.87227,-0.23147 7.3497,0.64987c6.34716,2.25799 12.33685,7.50064 13.83259,13.6936l0.18692,0.20695c0,0 1.17957,2.37032 -1.25768,3.51529z" fill="#000000" stroke="none" stroke-width="5" stroke-linecap="butt"/><path d="M292.53939,297.35354c2.30365,1.38502 0.88072,3.62355 0.88072,3.62355l2.57899,0.10691c-8.62203,3.0731 -18.56627,7.43896 -23.00113,15.83381c0,0 -1.24205,2.33818 -3.64804,1.12892c-2.406,-1.20926 -1.16394,-3.54742 -1.16394,-3.54742c5.11799,-9.58691 22.04976,-18.53077 24.35341,-17.14573z" fill="#000000" stroke="none" stroke-width="5" stroke-linecap="butt"/></g><g><path d="M337.47285,222.01382c-3.03902,4.23956 -8.54417,3.9238 -12.69477,0.9008c-4.15062,-3.02301 -6.28229,-30.56428 -3.24325,-34.80384c3.03902,-4.23956 12.05192,-4.1363 16.20254,-1.11329c4.15062,3.02301 2.77452,30.77677 -0.26451,35.01633z" fill="#0d1522" stroke="#000000" stroke-width="2.5" stroke-linecap="butt"/><path d="M344.66888,185.50499c-7.33328,8.19279 -19.7883,8.91364 -27.81909,1.61003c-8.03078,-7.30359 -8.59625,-19.86589 -1.26297,-28.05869c7.33328,-8.19279 19.78829,-8.91363 27.81908,-1.61003c8.03078,7.30359 8.59625,19.86589 1.26298,28.05869z" fill="#465e85" stroke="#000000" stroke-width="3" stroke-linecap="butt"/><path d="M339.53911,191.96745c-0.11027,0.1232 -5.96485,0.91643 -10.79634,0.71076c-4.27371,-0.18193 -7.60622,-1.35088 -7.50232,-1.46697c0.11642,-0.13007 -3.65683,-1.93912 -2.70157,-2.9193c0.73059,-0.74964 5.12811,-2.67794 6.41762,-3.14463c1.18865,-0.43017 3.02231,-0.79462 4.77642,-0.81976c1.3975,-0.02004 3.89705,0.07421 6.32955,1.07466c2.83517,1.16605 5.24338,2.7384 5.46856,3.06753c1.42001,2.07554 -1.66044,3.12735 -1.99193,3.4977z" fill="#0d1522" stroke="#000000" stroke-width="3" stroke-linecap="butt"/><path d="M310.53284,175.6535c0,0 -1.22866,-5.20833 -0.62765,-7.81605c0.59094,-2.56403 4.204,-7.70147 4.204,-7.70147c0,0 7.34044,7.36358 11.85711,10.69634c5.08961,3.7555 17.16748,10.72026 17.16748,10.72026c0,0 0.14134,1.89109 -1.18955,2.08263c-4.12462,0.59357 -26.81206,1.94707 -26.81206,1.94707z" fill="#313243" stroke="none" stroke-width="0" stroke-linecap="butt"/><path d="M348.85784,166.07296c0,0 -1.01913,5.86929 -2.07186,8.4219c-1.18991,2.88522 -4.70659,8.0141 -4.70659,8.0141" fill="none" stroke="#000000" stroke-width="2" stroke-linecap="round"/><path d="M331.87078,152.92246c0,0 1.24844,9.04249 1.04063,13.4224c-0.21031,4.43265 -2.29507,13.01721 -2.29507,13.01721" fill="none" stroke="#000000" stroke-width="2" stroke-linecap="round"/><path d="M326.05223,179.80801c0,0 -2.62915,-7.3393 -2.61575,-11.80086c0.01374,-4.57662 2.69717,-15.32246 2.69717,-15.32246" fill="none" stroke="#000000" stroke-width="2" stroke-linecap="round"/><path d="M323.05399,180.72035c0,0 -3.54156,-4.96186 -4.5625,-8.60715c-1.08627,-3.87857 -1.77134,-14.00789 -1.77134,-14.00789" fill="none" stroke="#000000" stroke-width="2" stroke-linecap="round"/><path d="M319.37938,182.16673c0,0 -3.97777,-4.06733 -5.3012,-6.71661c-1.41704,-2.83668 -2.93943,-9.77976 -2.93943,-9.77976" fill="none" stroke="#000000" stroke-width="2" stroke-linecap="round"/><path d="M313.81651,181.51278c0,0 3.12622,-3.54768 7.06248,-5.86942c3.3314,-1.96498 7.32191,-2.76274 9.67444,-2.77265c1.63554,-0.0069 4.55701,0.63929 6.56734,1.72553c4.63323,2.50349 8.34975,6.7831 8.34975,6.7831" fill="none" stroke="#000000" stroke-width="2" stroke-linecap="round"/><path d="M311.06096,173.06931c0,0 2.26963,-2.73467 5.7248,-5.03254c4.28554,-2.85013 10.20237,-5.40965 13.60178,-5.74681c2.54053,-0.25198 6.43615,0.33856 9.60793,1.75722c4.64823,2.07901 8.28421,5.33067 8.28421,5.33067" fill="none" stroke="#000000" stroke-width="2" stroke-linecap="round"/><path d="M341.37978,189.0516c-0.29063,0.3247 -3.34348,-4.04654 -9.42109,-4.59856c-6.47406,-0.58801 -14.97089,5.2603 -14.6613,4.91442c0.16284,-0.18192 -4.68527,-2.32176 -3.35545,-3.69827c1.01704,-1.05276 6.95483,-3.94307 8.68899,-4.65889c1.5985,-0.65983 4.04309,-1.27863 6.35859,-1.43912c1.84474,-0.12787 5.13501,-0.1831 8.27226,0.97525c3.65656,1.3501 6.72102,3.27303 6.9946,3.69571c1.72517,2.6656 -2.41294,4.2915 -2.87657,4.80947z" fill="#465e85" stroke="#000000" stroke-width="3" stroke-linecap="butt"/><path d="M314.65719,184.83891c-6.09485,-7.43678 -6.18561,-18.71968 0.4923,-26.18028c7.33328,-8.19279 20.22562,-8.5159 28.25642,-1.2123c7.53323,6.85109 7.93048,18.96293 1.96813,27.12133c-0.21335,0.29195 -6.83868,-5.53025 -15.06824,-5.23678c-6.96035,0.24821 -15.3745,5.84246 -15.64859,5.50803z" fill="none" stroke="#000000" stroke-width="3" stroke-linecap="butt"/><path d="M340.77844,156.04377c0,0 1.53212,9.4271 0.82322,13.21933c-0.73835,3.94985 -5.16855,10.02617 -5.16855,10.02617" fill="none" stroke="#000000" stroke-width="2" stroke-linecap="round"/><path d="M323.92576,183.88001c0.091,0.75146 -0.65935,1.46204 -1.67595,1.58712c-1.01659,0.12508 -1.9145,-0.3827 -2.00549,-1.13417c-0.091,-0.75145 0.65935,-1.46204 1.67595,-1.58712c1.0166,-0.12508 1.91449,0.38271 2.00548,1.13417z" fill="#6283b8" stroke="none" stroke-width="0" stroke-linecap="butt"/><path d="M330.5208,181.88847c0.48944,0.70524 -0.12033,1.41505 -1.36194,1.58541c-1.24162,0.17036 -2.64491,-0.26325 -3.13435,-0.96849c-0.48944,-0.70524 0.12031,-1.41503 1.36192,-1.5854c1.24162,-0.17036 2.64492,0.26324 3.13436,0.96848z" fill="#6283b8" stroke="none" stroke-width="0" stroke-linecap="butt"/><path d="M315.00424,159.80075c0,0 10.01972,-2.66519 16.64604,-2.86516c6.62633,-0.19997 12.70644,1.97934 12.70644,1.97934" fill="none" stroke="#000000" stroke-width="2" stroke-linecap="round"/><path d="M328.91358,153.2264c0,0 -0.05602,8.5207 -0.26383,12.90062c-0.21031,4.43265 -0.9906,13.539 -0.9906,13.539" fill="none" stroke="#000000" stroke-width="2" stroke-linecap="round"/><path d="M329.97654,163.74965c-0.30127,0.9413 -1.51486,1.38562 -2.7106,0.9924c-1.19574,-0.3932 -1.92084,-1.47503 -1.61957,-2.41634c0.30127,-0.9413 1.51485,-1.38563 2.7106,-0.99242c1.19574,0.3932 1.92085,1.47504 1.61958,2.41635z" fill="#6283b8" stroke="none" stroke-width="0" stroke-linecap="butt"/><path d="M327.67165,158.02591c-0.22224,1.17342 -1.67478,1.87443 -3.24433,1.56578c-1.56955,-0.30865 -2.66176,-1.5101 -2.43952,-2.68351c0.22224,-1.17342 1.67477,-1.87445 3.24432,-1.5658c1.56955,0.30865 2.66176,1.51012 2.43953,2.68354z" fill="#6283b8" stroke="none" stroke-width="0" stroke-linecap="butt"/></g><g><path d="M299.74283,153.59252c0.02017,0.43069 0.84305,2.9169 0.75007,3.32548c-0.10681,0.58584 0.38433,1.04341 0.10241,1.54532c-0.7093,1.52498 0.91753,3.74982 0.91116,5.32388c-0.02883,7.13518 2.33631,14.642 3.66001,21.80365c0.33146,1.79325 4.06587,-0.71442 5.45047,0.4724c4.82496,4.13568 5.96761,12.75971 4.50985,18.59074c-1.21423,4.85692 -11.67965,2.03875 -15.19466,-0.97414c-1.916,-1.64225 -4.62454,-1.43038 -5.63387,-4.81333c-1.75641,-5.88683 -4.95081,-12.53331 -4.77528,-20.55269c0.15973,-7.29832 1.97451,-17.0594 1.97451,-20.8501c0,-2.07794 -0.20362,-12.39068 2.20339,-12.52439c0.8322,-0.54024 3.14069,3.09287 4.20675,3.09287c2.61113,0 1.47962,1.88222 1.9287,4.3639c0.06659,0.20606 -0.10437,0.96473 -0.09352,1.19644z" fill="#590909" stroke="none" stroke-width="5" stroke-linecap="butt"/><path d="M315.61519,209.35096c-2.61928,0.26193 -2.88123,-2.35737 -2.88123,-2.35737l-0.29962,-3.02909c-0.0061,-5.65143 -1.01459,-11.15341 2.65925,-15.75592c0,0 1.71312,-1.99863 3.71175,-0.28552c1.99863,1.71311 0.28552,3.71175 0.28552,3.71175c-2.6793,2.74744 -1.39397,8.37129 -1.39833,12.06748l0.28002,2.76746c0,0 0.26193,2.6193 -2.35737,2.88123z" fill="#000000" stroke="none" stroke-width="5" stroke-linecap="butt"/><g fill="none" stroke="#000000" stroke-width="5" stroke-linecap="round"><path d="M323.79761,187.49382c0,0 -10.90184,-0.3624 -14.029,-1.8513c-2.10664,-1.00303 -5.94013,-2.19243 -5.94013,-2.19243c0,0 -2.36996,-16.9113 -3.65145,-25.00742c-0.91024,-5.75069 -3.31228,-18.98703 -3.31228,-18.98703"/><path d="M319.82695,211.37795c0,0 -13.69397,-3.81106 -18.2554,-5.56458c-2.45436,-0.94352 -6.96523,-4.13092 -6.96523,-4.13092"/></g><path d="M311.50386,198.79793c0,-6.02799 2.21337,-10.91462 4.94369,-10.91462c2.73032,0 4.94369,4.88664 4.94369,10.91463c0,6.02799 -2.21337,10.91465 -4.94369,10.91465c-2.73032,0 -4.94369,-4.88666 -4.94369,-10.91465z" fill="#ffffff" stroke="#000000" stroke-width="5" stroke-linecap="butt"/><path d="M317.79584,199.56839c0,-8.01367 6.12269,-14.51005 13.6754,-14.51005c7.55271,0 13.6754,6.49638 13.6754,14.51005c0,8.01367 -6.12269,14.51004 -13.6754,14.51004c-7.55271,0 -13.6754,-6.49638 -13.6754,-14.51004z" fill="#ffffff" stroke="#000000" stroke-width="5" stroke-linecap="butt"/><path d="M321.40113,193.79025c0.45159,-0.99583 1.08612,-2.58448 2.01686,-3.64287c1.50122,-1.70711 3.48599,-2.7255 4.5668,-2.82519c2.42238,-0.22342 6.0085,-0.05953 6.84852,1.00182c0.12948,0.16359 -0.41974,0.39766 -0.56345,0.53852c-1.18174,1.15828 -4.71676,5.004 -5.36478,7.10945c-1.37038,4.45246 -1.31682,6.6829 -1.26754,7.66145c0.10744,2.13345 1.32902,9.37976 0.76448,7.73693c-0.04693,-0.13657 -0.56798,-0.22986 -0.74296,-0.26945c-0.16575,-0.0375 -2.2612,-1.2596 -3.57868,-2.71447c-1.11811,-1.2347 -1.37255,-2.17169 -1.50522,-2.24565c-1.82899,-1.01961 -2.49924,-7.58905 -1.81981,-9.87913c0.20415,-0.6881 0.129,-1.33189 0.64576,-2.47143z" data-paper-data="{&quot;index&quot;:null}" fill="#c5c5c5" stroke="#000000" stroke-width="0" stroke-linecap="butt"/></g><path d="" fill="#595959" stroke="none" stroke-width="0.5" stroke-linecap="butt"/><path d="M229.9669,221.06414c0,0 -4.70268,-28.70348 -1.84663,-50.0578c5.81831,-20.87334 10.25361,-31.54715 14.22234,-42.53963c1.68376,-4.66365 1.20362,-10.33433 1.20362,-10.33433l58.5925,4.27033c0,0 -3.49787,5.4873 -6.04744,14.47917c-3.45207,12.17477 -9.26665,28.58394 -8.96883,38.68498c0.07743,2.62593 3.46793,9.77465 3.71384,12.46698c1.70568,18.67576 3.3242,36.47846 3.3242,36.47846c0,0 -7.55842,2.48029 -14.44838,4.38881c-6.40614,1.7745 -11.93221,1.15247 -18.01217,1.08857c-4.99267,-0.05246 -16.72019,-1.13282 -22.94714,-1.99402c-8.53378,-1.18025 -8.78592,-6.93153 -8.78592,-6.93153z" fill="#590909" stroke="#000000" stroke-width="5" stroke-linecap="butt"/><path d="M291.93427,144.70572c0,0.34408 -0.83997,2.94111 -1.00811,3.27187c-0.23005,0.45253 0.04286,1.0471 -0.44497,1.43658c-3.15453,2.51857 -12.1162,3.55299 -22.77066,3.55299c-13.50635,0 -27.15901,-8.72632 -27.15901,-12.58528c0,-1.14735 2.01704,-6.47606 3.60331,-9.2608c0.46818,-0.8219 -0.31723,-1.2107 0.31354,-1.46875c4.42012,-1.80832 16.84369,11.50152 25.14909,11.50152c9.64029,0 18.23201,-2.72868 22.21519,-0.41308c1.59738,0.92863 0.10161,2.86037 0.10161,3.96496z" fill="#260404" stroke="none" stroke-width="0" stroke-linecap="butt"/><g stroke-linecap="butt"><path d="M329.5277,99.85253c-0.40683,9.36486 0.80942,19.28536 -4.35715,26.37589c-9.01794,12.37612 -28.44991,18.84003 -45.10807,18.11636c-26.20196,-1.13828 -46.53739,-22.90366 -45.42046,-48.61431c1.11693,-25.71065 23.26327,-45.63051 49.46523,-44.49223c6.04153,0.26246 16.31488,-5.71711 24.88005,-5.60011c3.03535,0.04147 4.33315,6.84291 7.2676,6.63274c5.77246,-0.41343 8.03464,-4.86727 10.79364,-2.14758c3.58009,3.52909 3.29866,9.7397 2.6129,17.21255c-1.04684,11.40762 0.2219,24.33044 -0.13373,32.51668z" fill="#f5f5f5" stroke="none" stroke-width="0"/><path d="M284.21959,64.12751c-5.85179,-0.25422 -16.79855,1.57873 -23.90767,5.64637c-12.49055,7.14674 -20.85019,18.44593 -24.12928,17.79357c-1.27237,-0.25313 9.74225,-17.35682 9.81894,-19.1222c0.38683,-8.90447 17.0131,-15.41431 37.1358,-14.54013c6.68883,0.29058 17.39817,-7.32508 24.8257,-7.95267c4.543,-0.38388 6.03862,6.28626 9.96093,5.9854c8.95705,-0.68705 11.05801,-2.33114 10.87841,1.80308c-0.05679,1.30723 1.84473,4.21826 0.69419,5.20035c-6.68659,5.70751 -28.10844,5.93209 -45.277,5.18624z" fill="#ffffff" stroke="none" stroke-width="0"/><path d="M316.14297,130.5145c-0.38683,8.90447 -17.0131,15.41431 -37.1358,14.54013c-14.91491,-0.64794 -24.91657,-6.49453 -30.30751,-12.41794c-1.88234,-2.06826 -5.52757,-2.98338 -5.42745,-5.28787c0.16198,-3.7285 1.70538,-3.72925 6.74124,-1.73575c0.08639,0.0342 5.0157,2.25374 5.18123,2.32331c6.93285,2.91346 15.2739,6.57196 25.77714,7.02825c20.1227,0.87418 35.55799,-13.35459 35.17115,-4.45011z" data-paper-data="{&quot;index&quot;:null}" fill="#cccccc" stroke="none" stroke-width="0"/><path d="M329.2111,100.99053c-0.18005,4.14451 1.84913,12.73131 0.64729,16.51092c-6.25383,19.66741 -28.13426,28.93612 -50.11252,27.98133c-26.20196,-1.13828 -46.53739,-22.90366 -45.42045,-48.61432c0.4464,-10.27574 4.25194,-19.62648 10.33298,-27.07756c9.13417,-11.19205 23.40238,-18.09801 39.13225,-17.41467c3.32585,0.14448 8.98804,-0.06737 14.79372,-2.47323c3.97965,-1.64916 9.81668,-6.88266 9.81668,-6.88266c0,0 4.85526,10.73604 5.9766,10.6355c10.62496,-0.95276 17.19663,-9.017 17.19663,-9.017c0,0 -1.77081,42.71616 -2.36317,56.3517z" fill="none" stroke="#000000" stroke-width="5"/><path d="M307.78438,132.34099c-0.11179,2.57322 -2.31778,4.56732 -4.92724,4.45396c-2.60946,-0.11336 -4.63423,-2.29126 -4.52244,-4.86448c0.11179,-2.57321 2.31779,-4.56732 4.92725,-4.45396c2.60946,0.11336 4.63421,2.29126 4.52242,4.86447z" fill="#cccccc" stroke="none" stroke-width="0"/><path d="M300.56746,135.29245c-0.08502,1.9571 -1.76284,3.47374 -3.7475,3.38752c-1.98466,-0.08622 -3.52462,-1.74264 -3.4396,-3.69975c0.08502,-1.9571 1.76283,-3.47374 3.74749,-3.38753c1.98466,0.08622 3.52463,1.74265 3.43961,3.69975z" fill="#cccccc" stroke="none" stroke-width="0"/></g><path d="M264.29839,114.62841c-0.43586,0.79061 -1.44397,3.06837 0.19261,3.44586c1.9155,0.44183 4.34124,-1.29059 6.49648,-2.75713c-1.52886,-0.74821 -2.9997,-1.6298 -4.41299,-2.60315c-1.00373,0.73808 -2.00751,1.42723 -2.27609,1.91442zM266.29684,121.69528c-8.80153,1.34472 -6.95544,-11.84877 0.41875,-12.71632c0.07551,-0.00995 0.15254,-0.01508 0.23076,-0.01508c0.28971,0 0.56297,0.0704 0.80363,0.19502c0.77016,0.24131 1.11242,0.55578 1.16316,0.91502c2.97314,2.00869 6.29516,3.62202 9.86122,4.10738l0.55047,-0.01759c0,0 1.75,0 1.75,1.75c0,1.75 -1.75,1.75 -1.75,1.75l-1.04544,-0.01758c-1.1034,-0.16378 -2.18217,-0.40969 -3.23646,-0.72642c-2.1563,2.30925 -7.1088,4.52544 -8.74609,4.77558z" fill="#000000" stroke="none" stroke-width="0.5" stroke-linecap="butt"/><path d="M264.2501,114.61548c0.26858,-0.48719 1.30794,-1.21176 2.31167,-1.94984c1.41329,0.97335 2.94683,1.90178 4.47569,2.64999c-2.15524,1.46654 -4.66729,3.23482 -6.58279,2.79299c-1.63658,-0.37749 -0.64044,-2.70253 -0.20458,-3.49314z" data-paper-data="{&quot;noHover&quot;:false,&quot;origItem&quot;:[&quot;Path&quot;,{&quot;applyMatrix&quot;:true,&quot;segments&quot;:[[[260.92385,111.00746],[0,0],[-0.43586,0.79061]],[[261.11646,114.45332],[-1.63658,-0.37749],[1.9155,0.44183]],[[267.61294,111.69619],[-2.15524,1.46654],[-1.52886,-0.74821]],[[263.19995,109.09304],[1.41329,0.97335],[-1.00373,0.73808]],[[260.92386,111.00746],[0.26858,-0.48719],[0,0]]],&quot;closed&quot;:true,&quot;fillColor&quot;:[0,0,0,1]}]}" fill="#ff8c8c" stroke="none" stroke-width="0.5" stroke-linecap="butt"/><path d="M-34.77476,380.45045v-400.9009h549.54955v400.9009z" fill="none" stroke="none" stroke-width="0" stroke-linecap="butt"/><path d="M300.44439,92.57889c0,-2.15142 1.16219,-1.47614 1.28924,-1.78659c0.19391,-0.47385 -0.4653,-1.17555 0.88836,-1.48637c1.84641,-0.42397 5.73596,-4.45063 8.33845,-4.45063c2.77225,0 5.78636,-0.12862 7.63388,0.45003c1.99148,0.62373 2.71076,2.13058 2.71076,7.27357c0,9.91423 -4.66985,17.95127 -10.43036,17.95127c-5.76051,0 -10.43033,-8.03704 -10.43033,-17.95127z" fill="#000000" stroke="none" stroke-width="5" stroke-linecap="butt"/><path d="M268.58058,99.53816c0,-3.31422 1.34353,-4.12141 3.58407,-4.43511c1.84641,-0.25852 4.32949,-0.27455 6.93198,-0.27455c2.77225,0 7.66166,2.7035 9.50918,3.05634c1.99148,0.38033 0.83547,-1.48275 0.83547,1.65332c0,6.04546 -4.66985,10.94625 -10.43036,10.94625c-5.76051,0 -10.43033,-4.90079 -10.43033,-10.94625z" fill="#000000" stroke="none" stroke-width="5" stroke-linecap="butt"/></g></g></svg>