<svg version="1.1" xmlns="http://www.w3.org/2000/svg" xmlns:xlink="http://www.w3.org/1999/xlink" width="549.54955" height="400.9009" viewBox="0,0,549.54955,400.9009"><g transform="translate(34.77475,20.45045)"><g data-paper-data="{&quot;isPaintingLayer&quot;:true}" fill-rule="nonzero" stroke-linejoin="miter" stroke-miterlimit="10" stroke-dasharray="" stroke-dashoffset="0" style="mix-blend-mode: normal"><g><g stroke-width="5"><path d="M216.75211,132.68617c0.1317,0.09594 3.47028,5.81938 3.47987,5.98471c0.43109,7.44471 -10.59134,25.1748 -13.766,32.29604c-1.84533,4.13938 -2.68758,14.14139 -4.01931,19.28724c-1.19959,4.6353 -0.63742,20.11312 -5.22438,20.70755c-1.06009,0.13738 -1.95541,0.04502 -2.70968,-0.22885c-2.25158,3.33887 -8.54326,1.74816 -10.63631,-1.8515c-1.79918,-1.04627 -2.07107,-3.3709 -2.34178,-6.03527c-0.21367,-2.10276 0.29204,-4.08716 1.27295,-5.55752c0.83123,-6.27816 -0.48447,-11.30568 0.54255,-18.62613c1.30242,-9.28356 8.5066,-20.79161 13.69805,-26.5984c1.40004,-1.56598 2.64577,-4.52416 4.23977,-6.70006c0.37861,-2.45137 1.7422,-4.47779 3.60872,-5.29791c3.16395,-5.25431 7.75251,-10.36884 11.85558,-7.37987z" fill="#590909" stroke="none" stroke-linecap="butt"/><path d="M200.3439,209.67966c1.72253,2.63671 -0.23983,4.79765 -0.23983,4.79765l-1.60352,1.46012c-4.59887,1.99422 -10.16047,-1.00387 -14.80097,0.86379c0,0 -2.47037,0.99424 -3.316,-2.26661c-0.84563,-3.26087 1.62476,-4.25511 1.62476,-4.25511c4.60183,-1.85208 10.12911,1.16118 14.69626,-0.82003l-0.04554,-0.25554c0,0 1.96231,-2.16095 3.68484,0.47577z" fill="#000000" stroke="none" stroke-linecap="butt"/><g fill="none" stroke="#000000" stroke-linecap="round"><path d="M182.13507,214.71344c0,0 -0.16326,-17.5348 0.26819,-25.18102c0.39343,-6.97282 2.217,-18.86266 2.217,-18.86266c0,0 4.54744,-8.43666 9.87903,-16.25652c0.43019,-0.63101 8.36491,-10.50208 9.77677,-12.57287c0.52138,-0.76474 1.60392,-2.43492 3.35867,-3.85948c3.97648,-3.22828 9.90429,-6.75966 9.90429,-6.75966"/><path d="M202.77748,177.17536c0,0 -0.12909,7.12582 -0.72396,11.0692c-0.88457,5.86374 -2.82762,26.14836 -2.82762,26.14836"/><path d="M213.36781,156.41587c-1.3375,1.33296 -1.51859,10.13685 -3.03452,12.23801c-3.63126,5.03313 -7.48498,6.98172 -7.48498,6.98172"/></g><path d="M217.50888,129.07698c2.18215,-1.60721 3.60529,0.85717 3.60529,0.85717l1.45998,3.73406c-0.78494,8.22222 -2.64082,17.18183 -6.80568,24.0362c0,0 -1.48084,2.42069 -3.62427,0.74829c-2.14343,-1.67237 -0.66258,-4.09304 -0.66258,-4.09304c3.67275,-5.95674 5.26733,-14.1319 5.91045,-21.30476l-0.64223,0.09369c0,0 -1.42316,-2.46442 0.75899,-4.07163z" fill="#000000" stroke="none" stroke-linecap="butt"/></g><g stroke="#000000" stroke-linecap="butt"><path d="M192.21466,233.88384c-8.5016,0 -14.64143,-4.27325 -14.64143,-12.86049c0,-8.58723 6.89193,-15.54857 15.39353,-15.54857c8.50162,0 15.39355,6.96133 15.39355,15.54857c0,8.58725 -7.64405,12.86049 -16.14565,12.86049z" fill="#ffffff" stroke-width="5"/><path d="M180.63509,217.50266c0.39475,-2.32394 3.8381,-7.71903 5.89442,-7.71903c0.14916,0 0.78043,-0.69239 2.30293,-1.22475c1.79398,-0.6273 4.17329,-0.67429 4.33581,-0.62648c0.17157,0.05046 0.67178,0.22218 0.77248,0.12604c1.21128,-1.15648 -3.01234,4.56037 -4.03333,6.36596c-0.4683,0.82816 -1.48387,2.74435 -2.20776,7.28663c-0.34232,2.14793 1.107,7.21267 1.64677,8.7949c0.06564,0.19242 0.44859,0.66284 0.26333,0.74244c-1.2019,0.51642 -4.43699,-1.08168 -6.4772,-2.45212c-0.9103,-0.61146 -2.21929,-2.4617 -2.80267,-4.67694c-0.36169,-1.37342 -0.23184,-3.06478 -0.19795,-4.15114c0.03878,-1.24312 0.38457,-1.76723 0.50318,-2.46551z" fill="#c5c5c5" stroke-width="0"/></g></g><g><path d="M260.51358,307.75352l0.37466,0.67185c1.25128,-0.2491 1.30908,-2.17516 2.24618,-3.01961c1.29977,-1.17127 3.10923,-1.73214 4.82006,-2.17983c0.72001,-0.18841 1.46427,-0.35924 2.21767,-0.48751l-0.12652,-0.12607c1.42005,-0.63459 10.17654,-6.53884 11.55791,-0.11092c0.94466,0.03286 1.90744,0.07652 2.83834,0.16364c1.57631,1.39362 3.08359,2.84981 4.5394,3.85864c0,0 2.20002,1.5319 0.62158,3.67262c-1.57842,2.14074 -3.77839,0.60881 -3.77839,0.60881c-1.22032,-0.8534 -2.53364,-2.15575 -3.89895,-3.4205c-1.12814,-0.08783 -2.42758,-0.0314 -3.75597,-0.02828c-0.47381,0.21429 -0.93617,0.41532 -1.34528,0.61273c-2.03145,0.98011 -7.98834,-1.15365 -9.54196,0.81634c-0.56925,0.72183 0.0719,2.00738 -0.56754,2.67134c-0.96227,0.99921 -2.51739,1.22596 -3.77606,1.83893l-3.87114,-0.46683c0,0 -2.60932,-0.69982 -1.88632,-3.23747c0.47197,-1.65659 1.74784,-1.93353 2.57686,-1.92615c-1.50223,-6.30717 7.75745,-6.46183 11.56691,-7.55608c2.65111,-0.76153 3.69959,-2.16735 6.86111,-1.3773c2.2155,0.55365 4.28936,2.19472 6.25576,3.93324c4.42242,0.41391 8.12511,1.80885 5.74374,7.68632c-0.61936,1.52862 -2.06444,2.60242 -3.09664,3.90362c-4.47652,-1.0554 -8.58895,-2.7482 -13.19,-3.08646c-2.30692,-0.1696 -7.53,1.19635 -9.22961,0.79471c-1.73964,-0.41109 -3.76738,-1.31266 -4.44954,-2.92161c-0.20727,-0.48885 -0.35945,-0.94691 -0.46175,-1.37646c0.44092,0.00394 0.75548,0.08827 0.75548,0.08827zM269.84018,305.69418c-0.10618,0.01925 -0.21798,0.03438 -0.3342,0.04636c0.63198,-0.00844 1.2672,0.01938 1.89786,0.02547c0.60296,0.00584 1.21985,0.0167 1.84492,0.03781l-0.92315,-0.91974c-1.02927,0.37077 -1.96035,0.71494 -2.48548,0.81013zM265.16972,306.90035c-0.16573,0.97235 1.84698,-0.87854 2.84655,-1.04283c0.1908,-0.03136 0.38252,-0.055 0.57486,-0.07256c-1.50234,0.02297 -3.21895,-0.07255 -3.42145,1.11539zM285.31919,309.28147c-0.4502,-1.25367 -1.59873,-1.71125 -3.08792,-1.86883c1.11867,0.47366 2.16242,1.08349 3.08792,1.86883zM281.74303,307.21618c-0.41548,-0.38232 -0.83566,-0.75921 -1.25926,-1.11708c-0.23584,0.17296 -0.49349,0.33523 -0.76375,0.48889c0.69153,0.17129 1.36859,0.37822 2.02299,0.62818z" data-paper-data="{&quot;index&quot;:null}" fill="#3c2700" stroke="none" stroke-width="5" stroke-linecap="butt"/><path d="M232.57037,309.38029c-0.08351,0.43355 -0.21565,0.89785 -0.40144,1.39525c-0.61149,1.63709 -2.59814,2.62602 -4.31823,3.11238c-1.68053,0.47519 -6.9581,-0.66229 -9.25546,-0.3925c-4.582,0.53808 -8.61688,2.40816 -13.04325,3.65728c-1.08784,-1.25507 -2.57825,-2.265 -3.2635,-3.76525c-2.63476,-5.76832 1.00374,-7.32298 5.40398,-7.92887c1.88892,-1.82239 3.88945,-3.55214 6.07874,-4.20163c3.12416,-0.92683 4.23278,0.43209 6.91451,1.07758c3.85347,0.92749 13.11112,0.67924 11.88462,7.04578c0.82792,-0.04343 2.1146,0.17775 2.65821,1.81222c0.83272,2.50381 -1.74371,3.31645 -1.74371,3.31645l-3.84717,0.63477c-1.28419,-0.55763 -2.84767,-0.71646 -3.85248,-1.67287c-0.66773,-0.63551 -0.08311,-1.94779 -0.68321,-2.64416c-1.63785,-1.90054 -7.49627,0.49033 -9.56843,-0.4005c-0.41732,-0.17939 -0.88803,-0.36018 -1.37067,-0.55363c-1.32727,0.05466 -2.62794,0.05481 -3.75118,0.19162c-1.309,1.32297 -2.56441,2.68119 -3.74643,3.58684c0,0 -2.13127,1.62617 -3.80131,-0.44389c-1.67004,-2.07004 0.46125,-3.6962 0.46125,-3.6962c1.41058,-1.07119 2.85305,-2.59162 4.36724,-4.05246c0.92623,-0.12755 1.88622,-0.21302 2.82853,-0.28693c1.10045,-6.48192 10.10553,-0.96417 11.5518,-0.39194l-0.1209,0.13144c0.75826,0.09537 1.50922,0.23367 2.23676,0.39059c1.72869,0.37283 3.56082,0.85444 4.91032,1.96807c0.97294,0.80288 1.11446,2.72461 2.37538,2.91904l0.34511,-0.6875c0,0 0.31058,-0.09798 0.75091,-0.12107zM219.89377,307.14841l-0.88222,0.95903c0.62357,-0.04827 1.23941,-0.08593 1.84154,-0.11799c0.62982,-0.03353 1.26321,-0.08898 1.89495,-0.10802c-0.11662,-0.00689 -0.22894,-0.01716 -0.33586,-0.03177c-0.52878,-0.07225 -1.47397,-0.37557 -2.51841,-0.70124zM223.66392,307.88603c0.19294,0.00917 0.38549,0.02443 0.57748,0.04748c1.00581,0.12065 3.0971,1.88222 2.88922,0.91801c-0.25393,-1.17803 -1.9648,-1.00789 -3.4667,-0.96549zM210.10747,310.10545c-1.48092,0.22222 -2.60841,0.72931 -3.00366,2.0014c0.89045,-0.82487 1.90665,-1.47953 3.00366,-2.0014zM212.58048,309.17237c-0.27668,-0.14179 -0.54109,-0.29267 -0.78426,-0.4552c-0.40763,0.37594 -0.81098,0.77071 -1.20949,1.17077c0.64288,-0.27819 1.31033,-0.51434 1.99373,-0.71556z" fill="#3c2700" stroke="none" stroke-width="5" stroke-linecap="butt"/><path d="M238.3873,271.26816c-0.08138,1.79342 0.06568,3.29289 -0.39381,5.01332c-0.95571,6.10942 2.17192,9.30939 0.28057,14.91616c1.92061,2.52094 0.54709,8.51258 -0.98861,13.69699c-0.06529,0.22047 -0.13442,0.4357 -0.20718,0.64585c0.0633,0.42501 0.10058,0.85849 0.11015,1.2989c0.03958,1.81865 0.6934,4.29962 -0.10912,5.81043c-0.91987,1.73167 -3.27011,-3.95878 -8.95402,-7.66008c-5.21003,-3.39271 -13.82999,-4.75369 -13.83513,-4.81912c-0.7212,-9.15431 -2.22657,-17.81689 -0.05485,-26.31315c0.07881,-1.3491 0.10636,-2.62827 0.05822,-3.81854c-0.31441,-7.77375 1.80953,-25.28744 2.93709,-37.35292c0.46037,-4.92631 -0.74423,-10.08817 1.88947,-12.88522c1.76767,-1.8773 6.27802,-2.27731 10.39047,-2.36679c8.11658,-0.17661 19.65435,2.20222 27.77145,2.33392c2.43926,0.03957 5.85586,1.62787 8.13049,2.48266c3.39219,1.27476 7.6659,-2.10314 10.2924,0.34142c1.65373,1.53917 -1.24327,6.38213 -1.12542,9.81819c0.12043,3.51188 1.37928,6.71233 1.27456,9.19258c-0.63972,15.1512 0.45816,28.43267 0.4552,43.44148c-0.00068,3.34292 -1.35705,6.38078 -1.07013,9.78507c0.09573,1.13592 -15.19378,14.90705 -21.44568,13.54756c-1.25844,-0.27364 -1.7899,-2.49457 -2.15339,-4.08537c-0.26889,-1.17674 1.17831,-3.55307 1.71515,-4.46058c0.55319,-0.93518 -2.00758,-5.87724 -2.03053,-6.93181c-0.16548,-7.60442 -1.95503,-20.54708 0.2211,-27.87349c0.40018,-1.3474 -0.93123,-8.7907 -1.07825,-10.45593c-0.37515,-4.24881 0.28734,-6.56055 -0.08071,-10.83175c-0.127,-1.47388 1.16007,-5.53231 -0.35858,-5.62098c-1.91791,-0.11201 -3.94685,-5.07371 -5.86876,-5.02375c-1.5133,0.03933 -2.91924,5.07044 -4.43252,5.1465c-0.1343,2.81224 -1.79273,7.16017 -2.07641,9.82625c0.20292,0.72855 0.34224,2.94185 0.35854,3.69124c0.08004,3.67853 -0.79168,6.67443 -0.32549,10.93735c0.59436,2.9242 0.10007,5.12566 -0.03406,8.08167z" fill="#001525" stroke="none" stroke-width="5" stroke-linecap="butt"/><path d="M240.2933,232.76971c-0.66706,1.26851 -1.58622,2.08343 -2.66815,2.58198c-3.52723,1.62534 -8.78433,-0.11186 -12.6752,-0.45648c-2.70261,-0.23937 -5.43785,1.0431 -7.25194,-1.38976c-1.15683,-1.55141 -1.54504,-4.82814 -0.68866,-6.72484c-0.02253,-0.12121 -0.03637,-0.24559 -0.04082,-0.37251c-0.04299,-1.227 0.80573,-2.27842 1.96453,-2.53031c0.09573,-0.03468 0.19747,-0.05746 0.30618,-0.06638c2.45735,-0.2015 6.6931,1.18372 9.09319,1.75912c6.87283,1.64769 14.41935,1.98384 21.45642,1.88491c0.86674,-0.01218 2.1356,-0.07814 3.39546,0.0209c0.23934,-0.18725 0.56203,-0.33375 1.01729,-0.43873c2.85906,-0.65929 7.32491,-0.38459 9.11467,-0.44776c2.8675,-0.10122 6.73324,-2.9486 9.1217,-0.64149c2.1558,2.08238 3.05069,8.909 -0.68171,9.91938c-2.66953,0.72266 -5.59026,0.219 -8.18384,0.93725c-2.38532,0.66059 -10.33204,4.25907 -12.27854,1.38753c-1.71792,-2.53432 1.63712,-4.27007 2.75524,-5.3753c-1.28499,0.13808 -2.58944,0.0445 -3.24601,-0.07735c-3.69269,-0.68532 -7.48563,-0.98005 -11.30027,-1.24742z" fill="#000a12" stroke="none" stroke-width="0.5" stroke-linecap="butt"/><path d="M229.48763,305.5165c1.58563,0.76444 5.97578,3.54542 5.62041,5.7148c-0.38102,2.32602 -1.22698,2.93383 -3.553,2.5528c-1.57657,-0.25826 -2.23513,-2.28997 -3.45427,-3.32243c-1.91762,-1.62399 -5.31072,-2.72979 -7.60674,-3.78508c-1.16099,-0.53361 -5.3639,-0.48093 -7.61858,-0.88986c-0.19633,-0.01966 -4.05936,-0.58608 -4.24011,-0.64881c-0.9473,-0.32873 2.03113,-0.68898 1.99391,-1.75119c-0.04835,-1.37986 1.03105,-2.53767 2.41092,-2.58602c0.30729,-0.01077 0.60356,0.0344 0.87902,0.12635c4.69408,-1.42805 11.29324,2.52835 15.56844,4.58943z" fill="#1c1200" stroke="none" stroke-width="0.5" stroke-linecap="butt"/><path d="M276.42643,297.38501c0.27885,-0.13791 0.58758,-0.23321 0.91724,-0.27523c1.48028,-0.18869 2.82181,0.76868 2.99639,2.1383c0.13439,1.05433 4.52398,2.7846 3.56705,3.2712c-0.18258,0.09284 -5.36418,-0.57166 -5.57044,-0.51862c-2.33878,0.78969 -6.83206,1.45772 -7.98341,2.18306c-2.27696,1.43446 -5.71625,3.1067 -7.49622,5.0374c-1.13163,1.22746 -1.50132,3.34472 -3.14124,3.8696c-2.41947,0.77438 -3.42176,0.31966 -4.20959,-1.90988c-0.73477,-2.07939 3.49384,-5.57513 5.06046,-6.60093c4.22395,-2.76582 10.61697,-7.79963 15.85977,-7.19488z" data-paper-data="{&quot;index&quot;:null}" fill="#1c1200" stroke="none" stroke-width="0.5" stroke-linecap="butt"/><g fill="none" stroke="#000000" stroke-width="5" stroke-linecap="round"><path d="M258.18654,231.86772l-4.4915,1.45469l-14.80477,0.207l-1.21707,64.86368l0.90486,16.2612l-37.65561,1.4009l0.37769,-9.11151l12.9321,-6.83254l2.76216,-81.08273"/><path d="M273.73224,221.53597l1.49905,74.72047l12.89198,7.26764l0.22139,9.26246l-35.89618,1.16149l-0.51815,-18.23901c0,0 -0.5256,-56.50909 -0.74171,-61.11435c-0.02789,-0.59454 1.3563,-0.64977 1.3563,-0.64977"/><path d="M273.11994,220.64833l-56.51809,-2.92809"/></g><path d="M236.34569,315.02809c-2.39561,1.22963 -3.65746,-1.09792 -3.65746,-1.09792l-0.65246,-1.36118c-1.41157,-6.05494 -11.35445,-9.12707 -17.02393,-9.65838c0,0 -2.69086,-0.28944 -2.38983,-2.90588c0.30101,-2.61644 2.99186,-2.32698 2.99186,-2.32698c8.37613,0.98778 19.29179,5.06078 21.6716,13.59287l0.19405,0.20028c0,0 1.26185,2.32756 -1.1338,3.55718z" fill="#000000" stroke="none" stroke-width="5" stroke-linecap="butt"/><path d="M274.03556,294.39027c2.35074,1.3035 1.00707,3.59049 1.00707,3.59049l2.58115,0.01652c-8.50912,3.37315 -18.29438,8.08458 -22.43253,16.62959c0,0 -1.1594,2.38024 -3.60627,1.25598c-2.44687,-1.12426 -1.28745,-3.50448 -1.28745,-3.50448c4.77912,-9.76026 21.38729,-19.29158 23.73803,-17.98806z" fill="#000000" stroke="none" stroke-width="5" stroke-linecap="butt"/></g><g><path d="M317.67069,222.05401c-3.03902,4.23956 -8.54417,3.9238 -12.69477,0.9008c-4.15062,-3.02301 -6.28229,-30.56428 -3.24325,-34.80384c3.03902,-4.23956 12.05192,-4.1363 16.20254,-1.11329c4.15062,3.02301 2.77452,30.77677 -0.26451,35.01633z" fill="#0d1522" stroke="#000000" stroke-width="2.5" stroke-linecap="butt"/><path d="M324.86672,185.54518c-7.33328,8.19279 -19.7883,8.91364 -27.81909,1.61003c-8.03078,-7.30359 -8.59625,-19.86589 -1.26297,-28.05869c7.33328,-8.19279 19.78829,-8.91363 27.81908,-1.61003c8.03078,7.30359 8.59625,19.86589 1.26298,28.05869z" fill="#465e85" stroke="#000000" stroke-width="3" stroke-linecap="butt"/><path d="M319.73695,192.00764c-0.11027,0.1232 -5.96485,0.91643 -10.79634,0.71076c-4.27371,-0.18193 -7.60622,-1.35088 -7.50232,-1.46697c0.11642,-0.13007 -3.65683,-1.93912 -2.70157,-2.9193c0.73059,-0.74964 5.12811,-2.67794 6.41762,-3.14463c1.18865,-0.43017 3.02231,-0.79462 4.77642,-0.81976c1.3975,-0.02004 3.89705,0.07421 6.32955,1.07466c2.83517,1.16605 5.24338,2.7384 5.46856,3.06753c1.42001,2.07554 -1.66044,3.12735 -1.99193,3.4977z" fill="#0d1522" stroke="#000000" stroke-width="3" stroke-linecap="butt"/><path d="M290.73069,175.69369c0,0 -1.22866,-5.20833 -0.62765,-7.81605c0.59094,-2.56403 4.204,-7.70147 4.204,-7.70147c0,0 7.34044,7.36358 11.85711,10.69634c5.08961,3.7555 17.16748,10.72026 17.16748,10.72026c0,0 0.14134,1.89109 -1.18955,2.08263c-4.12462,0.59357 -26.81206,1.94707 -26.81206,1.94707z" fill="#313243" stroke="none" stroke-width="0" stroke-linecap="butt"/><path d="M329.05566,166.11315c0,0 -1.01913,5.86929 -2.07186,8.4219c-1.18991,2.88522 -4.70659,8.0141 -4.70659,8.0141" fill="none" stroke="#000000" stroke-width="2" stroke-linecap="round"/><path d="M312.06863,152.96265c0,0 1.24844,9.04249 1.04063,13.4224c-0.21031,4.43265 -2.29507,13.01721 -2.29507,13.01721" fill="none" stroke="#000000" stroke-width="2" stroke-linecap="round"/><path d="M306.25007,179.8482c0,0 -2.62915,-7.3393 -2.61575,-11.80086c0.01374,-4.57662 2.69717,-15.32246 2.69717,-15.32246" fill="none" stroke="#000000" stroke-width="2" stroke-linecap="round"/><path d="M303.25183,180.76054c0,0 -3.54156,-4.96186 -4.5625,-8.60715c-1.08627,-3.87857 -1.77134,-14.00789 -1.77134,-14.00789" fill="none" stroke="#000000" stroke-width="2" stroke-linecap="round"/><path d="M299.57723,182.20692c0,0 -3.97777,-4.06733 -5.3012,-6.71661c-1.41704,-2.83668 -2.93943,-9.77976 -2.93943,-9.77976" fill="none" stroke="#000000" stroke-width="2" stroke-linecap="round"/><path d="M294.01435,181.55297c0,0 3.12622,-3.54768 7.06248,-5.86942c3.3314,-1.96498 7.32191,-2.76274 9.67444,-2.77265c1.63554,-0.0069 4.55701,0.63929 6.56734,1.72553c4.63323,2.50349 8.34975,6.7831 8.34975,6.7831" fill="none" stroke="#000000" stroke-width="2" stroke-linecap="round"/><path d="M291.25881,173.1095c0,0 2.26963,-2.73467 5.7248,-5.03254c4.28554,-2.85013 10.20237,-5.40965 13.60178,-5.74681c2.54053,-0.25198 6.43615,0.33856 9.60793,1.75722c4.64823,2.07901 8.28421,5.33067 8.28421,5.33067" fill="none" stroke="#000000" stroke-width="2" stroke-linecap="round"/><path d="M321.57761,189.09179c-0.29063,0.3247 -3.34348,-4.04654 -9.42109,-4.59856c-6.47406,-0.58801 -14.97089,5.2603 -14.6613,4.91442c0.16284,-0.18192 -4.68527,-2.32176 -3.35545,-3.69827c1.01704,-1.05276 6.95483,-3.94307 8.68899,-4.65889c1.5985,-0.65983 4.04309,-1.27863 6.35859,-1.43912c1.84474,-0.12787 5.13501,-0.1831 8.27226,0.97525c3.65656,1.3501 6.72102,3.27303 6.9946,3.69571c1.72517,2.6656 -2.41294,4.2915 -2.87657,4.80947z" fill="#465e85" stroke="#000000" stroke-width="3" stroke-linecap="butt"/><path d="M294.85506,184.8791c-6.09485,-7.43678 -6.18561,-18.71968 0.4923,-26.18028c7.33328,-8.19279 20.22562,-8.5159 28.25642,-1.2123c7.53323,6.85109 7.93048,18.96293 1.96813,27.12133c-0.21335,0.29195 -6.83868,-5.53025 -15.06824,-5.23678c-6.96035,0.24821 -15.3745,5.84246 -15.64859,5.50803z" fill="none" stroke="#000000" stroke-width="3" stroke-linecap="butt"/><path d="M320.9763,156.08396c0,0 1.53212,9.4271 0.82322,13.21933c-0.73835,3.94985 -5.16855,10.02617 -5.16855,10.02617" fill="none" stroke="#000000" stroke-width="2" stroke-linecap="round"/><path d="M304.12361,183.9202c0.091,0.75146 -0.65935,1.46204 -1.67595,1.58712c-1.01659,0.12508 -1.9145,-0.3827 -2.00549,-1.13417c-0.091,-0.75145 0.65935,-1.46204 1.67595,-1.58712c1.0166,-0.12508 1.91449,0.38271 2.00548,1.13417z" fill="#6283b8" stroke="none" stroke-width="0" stroke-linecap="butt"/><path d="M310.71864,181.92866c0.48944,0.70524 -0.12033,1.41505 -1.36194,1.58541c-1.24162,0.17036 -2.64491,-0.26325 -3.13435,-0.96849c-0.48944,-0.70524 0.12031,-1.41503 1.36192,-1.5854c1.24162,-0.17036 2.64492,0.26324 3.13436,0.96848z" fill="#6283b8" stroke="none" stroke-width="0" stroke-linecap="butt"/><path d="M295.20207,159.84094c0,0 10.01972,-2.66519 16.64604,-2.86516c6.62633,-0.19997 12.70644,1.97934 12.70644,1.97934" fill="none" stroke="#000000" stroke-width="2" stroke-linecap="round"/><path d="M309.11141,153.26659c0,0 -0.05602,8.5207 -0.26383,12.90062c-0.21031,4.43265 -0.9906,13.539 -0.9906,13.539" fill="none" stroke="#000000" stroke-width="2" stroke-linecap="round"/><path d="M310.17438,163.78984c-0.30127,0.9413 -1.51486,1.38562 -2.7106,0.9924c-1.19574,-0.3932 -1.92084,-1.47503 -1.61957,-2.41634c0.30127,-0.9413 1.51485,-1.38563 2.7106,-0.99242c1.19574,0.3932 1.92085,1.47504 1.61958,2.41635z" fill="#6283b8" stroke="none" stroke-width="0" stroke-linecap="butt"/><path d="M307.86949,158.0661c-0.22224,1.17342 -1.67478,1.87443 -3.24433,1.56578c-1.56955,-0.30865 -2.66176,-1.5101 -2.43952,-2.68351c0.22224,-1.17342 1.67477,-1.87445 3.24432,-1.5658c1.56955,0.30865 2.66176,1.51012 2.43953,2.68354z" fill="#6283b8" stroke="none" stroke-width="0" stroke-linecap="butt"/></g><g><path d="M279.94068,153.63271c0.02017,0.43069 0.84305,2.9169 0.75007,3.32548c-0.10681,0.58584 0.38433,1.04341 0.10241,1.54532c-0.7093,1.52498 0.91753,3.74982 0.91116,5.32388c-0.02883,7.13518 2.33631,14.642 3.66001,21.80365c0.33146,1.79325 4.06587,-0.71442 5.45047,0.4724c4.82496,4.13568 5.96761,12.75971 4.50985,18.59074c-1.21423,4.85692 -11.67965,2.03875 -15.19466,-0.97414c-1.916,-1.64225 -4.62454,-1.43038 -5.63387,-4.81333c-1.75641,-5.88683 -4.95081,-12.53331 -4.77528,-20.55269c0.15973,-7.29832 1.97451,-17.0594 1.97451,-20.8501c0,-2.07794 1.02609,-16.32575 3.4331,-16.45946c0.8322,-0.54024 1.91098,7.02794 2.97704,7.02794c2.61113,0 1.47962,1.88222 1.9287,4.3639c0.06659,0.20606 -0.10437,0.96473 -0.09352,1.19644z" fill="#590909" stroke="none" stroke-width="5" stroke-linecap="butt"/><path d="M295.81307,209.39115c-2.61928,0.26193 -2.88123,-2.35737 -2.88123,-2.35737l-0.29962,-3.02909c-0.0061,-5.65143 -1.01459,-11.15341 2.65925,-15.75592c0,0 1.71312,-1.99863 3.71175,-0.28552c1.99863,1.71311 0.28552,3.71175 0.28552,3.71175c-2.6793,2.74744 -1.39397,8.37129 -1.39833,12.06748l0.28002,2.76746c0,0 0.26193,2.6193 -2.35737,2.88123z" fill="#000000" stroke="none" stroke-width="5" stroke-linecap="butt"/><g fill="none" stroke="#000000" stroke-width="5" stroke-linecap="round"><path d="M303.99546,187.53401c0,0 -10.90184,-0.3624 -14.029,-1.8513c-2.10664,-1.00303 -5.94013,-2.19243 -5.94013,-2.19243c0,0 -2.36996,-16.9113 -3.65145,-25.00742c-0.91024,-5.75069 -3.31228,-18.98703 -3.31228,-18.98703"/><path d="M300.02482,211.41814c0,0 -13.69397,-3.81106 -18.2554,-5.56458c-2.45436,-0.94352 -6.96523,-4.13092 -6.96523,-4.13092"/></g><path d="M291.70169,198.83812c0,-6.02799 2.21337,-10.91462 4.94369,-10.91462c2.73032,0 4.94369,4.88664 4.94369,10.91463c0,6.02799 -2.21337,10.91465 -4.94369,10.91465c-2.73032,0 -4.94369,-4.88666 -4.94369,-10.91465z" fill="#ffffff" stroke="#000000" stroke-width="5" stroke-linecap="butt"/><path d="M297.99368,199.60858c0,-8.01367 6.12269,-14.51005 13.6754,-14.51005c7.55271,0 13.6754,6.49638 13.6754,14.51005c0,8.01367 -6.12269,14.51004 -13.6754,14.51004c-7.55271,0 -13.6754,-6.49638 -13.6754,-14.51004z" fill="#ffffff" stroke="#000000" stroke-width="5" stroke-linecap="butt"/><path d="M301.59898,193.83044c0.45159,-0.99583 1.08612,-2.58448 2.01686,-3.64287c1.50122,-1.70711 3.48599,-2.7255 4.5668,-2.82519c2.42238,-0.22342 6.0085,-0.05953 6.84852,1.00182c0.12948,0.16359 -0.41974,0.39766 -0.56345,0.53852c-1.18174,1.15828 -4.71676,5.004 -5.36478,7.10945c-1.37038,4.45246 -1.31682,6.6829 -1.26754,7.66145c0.10744,2.13345 1.32902,9.37976 0.76448,7.73693c-0.04693,-0.13657 -0.56798,-0.22986 -0.74296,-0.26945c-0.16575,-0.0375 -2.2612,-1.2596 -3.57868,-2.71447c-1.11811,-1.2347 -1.37255,-2.17169 -1.50522,-2.24565c-1.82899,-1.01961 -2.49924,-7.58905 -1.81981,-9.87913c0.20415,-0.6881 0.129,-1.33189 0.64576,-2.47143z" data-paper-data="{&quot;index&quot;:null}" fill="#c5c5c5" stroke="#000000" stroke-width="0" stroke-linecap="butt"/></g><path d="" fill="#595959" stroke="none" stroke-width="0.5" stroke-linecap="butt"/><path d="M211.87143,171.88616c0.60171,-12.89585 2.72097,-26.08642 6.61553,-36.8104c1.65229,-4.54974 7.32028,-14.17468 7.32028,-14.17468l57.49743,4.16603c0,0 -7.52527,5.35327 -10.02719,14.12551c-3.38755,11.8774 -1.99607,29.08059 -1.70381,38.93491c0.07598,2.56179 3.10266,7.44496 3.34397,10.07153c1.6738,18.2196 12.57549,34.39264 12.57549,34.39264c0,0 -7.31669,3.2439 -14.07788,5.1058c-6.28641,1.73116 -12.77772,0.64029 -18.74405,0.57795c-4.89936,-0.05118 -14.98849,-0.36387 -21.09906,-1.20403c-8.37429,-1.15142 -18.13602,-4.37255 -18.13602,-4.37255c0,0 -4.56459,-29.38256 -3.56468,-50.81271z" fill="#590909" stroke="#000000" stroke-width="5" stroke-linecap="butt"/><path d="M269.81507,147.27827c0,0.34408 -0.83997,2.94111 -1.00811,3.27187c-0.23005,0.45253 0.04286,1.0471 -0.44497,1.43658c-3.15453,2.51857 -12.1162,3.55299 -22.77066,3.55299c-13.50635,0 -27.15901,-8.72632 -27.15901,-12.58528c0,-1.14735 2.01704,-6.47606 3.60331,-9.2608c0.46818,-0.8219 -0.31723,-1.2107 0.31354,-1.46875c4.42012,-1.80832 16.84369,11.50152 25.14909,11.50152c9.64029,0 18.23201,-2.72868 22.21519,-0.41308c1.59738,0.92863 0.10161,2.86037 0.10161,3.96496z" fill="#260404" stroke="none" stroke-width="0" stroke-linecap="butt"/><g stroke-linecap="butt"><path d="M300.14135,108.99063c-1.19121,8.35189 -1.62604,17.48334 -6.54538,23.67661c-10.0869,12.69903 -29.59348,18.23775 -47.04591,15.74854c-11.37751,-1.62276 -21.68456,-7.12007 -28.87536,-14.87978c-9.21886,-9.94824 -13.59843,-23.64286 -11.55701,-37.95575c3.63374,-25.47707 27.62738,-43.12831 53.5913,-39.42513c5.98664,0.85386 16.79703,-4.08906 25.30941,-3.13239c3.01664,0.33904 3.64097,7.23498 6.58188,7.3137c5.78518,0.15484 8.47336,-4.0556 10.95225,-1.07838c3.21662,3.86327 2.32729,10.01632 0.91176,17.38585c-2.16086,11.2499 -2.16596,24.23485 -3.32295,32.34672z" fill="#f5f5f5" stroke="none" stroke-width="0"/><path d="M258.55636,68.99324c-5.79863,-0.82705 -16.8724,-0.07681 -24.34626,3.27382c-13.1314,5.88695 -22.55915,16.31158 -25.75844,15.34068c-1.2414,-0.37673 11.39795,-16.31739 11.64746,-18.06674c1.25848,-8.82357 18.44317,-13.67098 38.38306,-10.82701c6.62806,0.94535 18.03284,-5.583 25.48611,-5.47893c4.55874,0.06364 5.39281,6.84833 9.32572,6.93369c8.98124,0.19495 11.23336,-1.23511 10.64905,2.86155c-0.18476,1.29536 1.42202,4.37888 0.18069,5.24337c-7.21424,5.02403 -28.5548,3.14606 -45.56738,0.71959z" fill="#ffffff" stroke="none" stroke-width="0"/><path d="M283.81327,138.19168c-1.25848,8.82357 -18.44317,13.67098 -38.38306,10.82701c-15.63539,-2.23005 -25.03148,-10.41985 -29.17357,-17.28868c-1.14035,-1.89102 -4.92375,-1.93253 -4.6521,-3.83731c0.52696,-3.69462 2.06299,-3.54396 6.879,-1.06607c0.08262,0.04251 4.77042,2.73491 4.92833,2.82038c6.6136,3.57952 14.55552,8.03861 24.96334,9.52307c19.93988,2.84399 36.69656,-9.80196 35.43806,-0.97839z" data-paper-data="{&quot;index&quot;:null}" fill="#cccccc" stroke="none" stroke-width="0"/><path d="M299.71466,110.09208c-0.58576,4.10686 0.59128,12.8513 -0.97554,16.49478c-8.15302,18.95905 -30.83717,26.0366 -52.61576,22.93037c-25.96392,-3.70318 -44.06609,-27.35847 -40.43234,-52.83554c1.45229,-10.18239 6.15677,-19.11471 12.93943,-25.9333c10.18804,-10.24201 25.0649,-15.71496 40.65187,-13.49183c3.29563,0.47004 8.95129,0.81467 14.96499,-1.01005c4.12223,-1.2508 11.99267,-5.84649 11.99267,-5.84649c0,0 2.23048,11.12058 3.35628,11.13053c10.66718,0.09414 19.36294,-7.66554 19.36294,-7.66554c0,0 -3.70559,11.11147 -4.91921,25.19506c-1.03774,12.04259 -3.43702,24.80397 -4.32531,31.03203z" fill="none" stroke="#000000" stroke-width="5"/><path d="M275.31579,139.18938c-0.36369,2.54984 -2.75465,4.31792 -5.34041,3.94912c-2.58575,-0.3688 -4.3871,-2.73482 -4.02343,-5.28466c0.36369,-2.54983 2.75466,-4.31792 5.34042,-3.94912c2.58575,0.3688 4.38708,2.73482 4.02341,5.28465z" fill="#cccccc" stroke="none" stroke-width="0"/><path d="M267.84416,141.41864c-0.2766,1.93932 -2.09511,3.28405 -4.06174,3.00355c-1.96662,-0.2805 -3.33667,-2.07999 -3.06007,-4.01933c0.2766,-1.93932 2.0951,-3.28405 4.06173,-3.00356c1.96662,0.2805 3.33668,2.08001 3.06008,4.01933z" fill="#cccccc" stroke="none" stroke-width="0"/></g><path d="M262.90245,94.9309c0.07871,-1.72071 2.26796,-1.62493 3.66853,-2.56115c2.63247,-1.75969 5.45224,-3.6643 7.14737,-3.50716c2.76639,0.25645 5.77949,0.41802 7.59898,1.11645c1.96126,0.75285 2.61619,2.19308 2.40173,6.8816c-0.41341,9.03816 -5.40853,15.93301 -11.15687,15.40013c-5.74834,-0.53288 -10.07315,-8.29171 -9.65974,-17.32987z" fill="#000000" stroke="none" stroke-width="5" stroke-linecap="butt"/><path d="M-34.77475,380.45045v-400.9009h549.54955v400.9009z" fill="none" stroke="none" stroke-width="0" stroke-linecap="butt"/><path d="M225.08628,112.73756c1.37656,2.5395 3.39618,4.35306 5.91452,5.63877c-3.46485,1.59413 -9.23542,3.98039 -10.54642,3.47506c-0.96471,-0.37186 -0.75594,-2.60632 -0.52424,-3.30904c1.00733,-3.05509 3.16454,-4.10538 5.15613,-5.80478z" data-paper-data="{&quot;noHover&quot;:false,&quot;origItem&quot;:[&quot;Path&quot;,{&quot;applyMatrix&quot;:true,&quot;selected&quot;:true,&quot;segments&quot;:[[[457.64025,234.67183],[1.52753,-6.24979],[-0.35136,1.43757]],[[459.1802,241.14152],[-1.98197,-0.58956],[2.6934,0.80118]],[[479.49033,232.61657],[-6.65728,3.72374],[-5.22343,-2.16704]],[[466.92633,222.4109],[3.1443,4.84658],[-3.70336,3.70175]]],&quot;closed&quot;:true}]}" fill="#ff8c8c" stroke="none" stroke-width="0.5" stroke-linecap="butt"/><path d="M224.75246,108.91117c0.03584,-0.01452 0.07201,-0.02775 0.10842,-0.03971c0.27183,-0.13296 0.58174,-0.1971 0.90525,-0.17156c0.46785,0.03693 0.87816,0.25464 1.16777,0.57916c0.17552,0.05503 0.34143,0.14061 0.48917,0.25899c1.82057,1.45886 1.13872,3.51132 3.63334,4.94501c0.9986,0.57391 11.08881,3.34504 11.03553,5.63276c-0.06719,2.8851 -4.85874,0.83028 -6.21755,0.33935c-0.74873,1.33951 -4.14895,1.74041 -5.46695,2.35368c-2.79699,1.30145 -7.64717,3.8436 -10.75247,2.80156c-5.35693,-1.79762 -2.50963,-10.2401 0.29122,-12.84928c1.30872,-1.21915 2.92541,-2.86164 4.57891,-3.68425zM220.32827,118.88235c-0.2317,0.70272 -0.45171,2.91356 0.513,3.28541c1.311,0.50533 6.99418,-1.85592 10.45902,-3.45005c-2.51835,-1.2857 -4.48436,-3.0419 -5.86092,-5.58139c-1.9916,1.69941 -4.10379,2.69095 -5.11111,5.74605z" fill="#000000" stroke="none" stroke-width="0.5" stroke-linecap="butt"/><path d="M232.61209,91.20811c0.20822,-3.06956 1.38086,-6.40224 3.99162,-10.08894c2.45346,-3.4646 6.71842,-3.85336 7.97533,-3.73787c1.0571,0.09712 4.52737,1.31052 6.14645,4.08121c2.61378,4.47288 2.91858,8.17723 2.68259,11.65628c-0.73674,10.86096 -5.98935,19.23776 -11.73199,18.71014c-5.74264,-0.52761 -9.80074,-9.75985 -9.064,-20.62081z" fill="#000000" stroke="none" stroke-width="5" stroke-linecap="butt"/></g></g></svg>