<svg version="1.1" xmlns="http://www.w3.org/2000/svg" xmlns:xlink="http://www.w3.org/1999/xlink" width="549.54955" height="400.9009" viewBox="0,0,549.54955,400.9009"><g transform="translate(34.77478,20.45045)"><g data-paper-data="{&quot;isPaintingLayer&quot;:true}" fill-rule="nonzero" stroke-linejoin="miter" stroke-miterlimit="10" stroke-dasharray="" stroke-dashoffset="0" style="mix-blend-mode: normal"><g><g stroke-width="5"><path d="M225.67394,141.28007c0.1317,0.09618 3.47028,5.83462 3.47987,6.00038c0.43109,7.4642 -10.59134,25.24072 -13.766,32.3806c-1.84533,4.15022 -2.68758,14.17841 -4.01931,19.33773c-1.19959,4.64744 -0.63742,20.16578 -5.22438,20.76177c-1.06009,0.13774 -1.95541,0.04514 -2.70968,-0.22945c-2.25158,3.34761 -8.54326,1.75274 -10.63631,-1.85635c-1.79918,-1.04901 -2.07107,-3.37972 -2.34178,-6.05107c-0.21367,-2.10827 0.29204,-4.09786 1.27295,-5.57207c0.83123,-6.2946 -0.48447,-11.33528 0.54255,-18.67489c1.30242,-9.30787 8.5066,-20.84605 13.69805,-26.66804c1.40004,-1.57008 2.64577,-4.536 4.23977,-6.7176c0.37861,-2.45779 1.7422,-4.48951 3.60872,-5.31178c3.16395,-5.26806 7.75251,-10.39599 11.85558,-7.39919z" fill="#590909" stroke="none" stroke-linecap="butt"/><path d="M209.26572,218.47515c1.72253,2.64361 -0.23983,4.81021 -0.23983,4.81021l-1.60352,1.46395c-4.59887,1.99944 -10.16047,-1.0065 -14.80097,0.86605c0,0 -2.47037,0.99684 -3.316,-2.27254c-0.84563,-3.26941 1.62476,-4.26625 1.62476,-4.26625c4.60183,-1.85693 10.12911,1.16422 14.69626,-0.82218l-0.04554,-0.25621c0,0 1.96231,-2.16661 3.68484,0.47701z" fill="#000000" stroke="none" stroke-linecap="butt"/><g fill="none" stroke="#000000" stroke-linecap="round"><path d="M191.05691,223.52211c0,0 -0.16326,-17.58071 0.26819,-25.24695c0.39343,-6.99107 2.217,-18.91205 2.217,-18.91205c0,0 4.54744,-8.45874 9.87903,-16.29908c0.43019,-0.63266 8.36491,-10.52959 9.77677,-12.60579c0.52138,-0.76675 1.60392,-2.44129 3.35867,-3.86958c3.97648,-3.23673 9.90429,-6.77736 9.90429,-6.77736"/><path d="M211.69929,185.88574c0,0 -0.12909,7.14447 -0.72396,11.09818c-0.88457,5.8791 -2.82762,26.21682 -2.82762,26.21682"/><path d="M222.28963,165.07191c-1.3375,1.33645 -1.51859,10.16339 -3.03452,12.27005c-3.63126,5.0463 -7.48498,6.99999 -7.48498,6.99999"/></g><path d="M226.43067,137.66144c2.18215,-1.61142 3.60529,0.85941 3.60529,0.85941l1.45998,3.74384c-0.78494,8.24375 -2.64082,17.22682 -6.80568,24.09913c0,0 -1.48084,2.42702 -3.62427,0.75025c-2.14343,-1.67674 -0.66258,-4.10376 -0.66258,-4.10376c3.67275,-5.97234 5.26733,-14.1689 5.91045,-21.36054l-0.64223,0.09394c0,0 -1.42316,-2.47088 0.75899,-4.08229z" fill="#000000" stroke="none" stroke-linecap="butt"/></g><g stroke="#000000" stroke-linecap="butt"><path d="M201.13651,242.7427c-8.5016,0 -14.64143,-4.28444 -14.64143,-12.89417c0,-8.60971 6.89193,-15.58928 15.39353,-15.58928c8.50162,0 15.39355,6.97955 15.39355,15.58928c0,8.60973 -7.64405,12.89417 -16.14565,12.89417z" fill="#ffffff" stroke-width="5"/><path d="M189.55691,226.31863c0.39475,-2.33003 3.8381,-7.73924 5.89442,-7.73924c0.14916,0 0.78043,-0.6942 2.30293,-1.22796c1.79398,-0.62895 4.17329,-0.67605 4.33581,-0.62812c0.17157,0.0506 0.67178,0.22276 0.77248,0.12636c1.21128,-1.15951 -3.01234,4.57231 -4.03333,6.38263c-0.4683,0.83033 -1.48387,2.75154 -2.20776,7.30571c-0.34232,2.15356 1.107,7.23155 1.64677,8.81793c0.06564,0.19292 0.44859,0.66458 0.26333,0.74438c-1.2019,0.51778 -4.43699,-1.08451 -6.4772,-2.45854c-0.9103,-0.61306 -2.21929,-2.46815 -2.80267,-4.68918c-0.36169,-1.37702 -0.23184,-3.07281 -0.19795,-4.16201c0.03878,-1.24638 0.38457,-1.77186 0.50318,-2.47196z" fill="#c5c5c5" stroke-width="0"/></g></g><g><path d="M268.23855,310.71936l0.35651,0.65455c1.27933,-0.19614 1.40655,-2.03472 2.38807,-2.81028c1.36138,-1.07573 3.21854,-1.55108 4.97154,-1.9216c0.73776,-0.15593 1.49951,-0.29427 2.26904,-0.3916l-0.12398,-0.1247c1.46441,-0.55886 10.56527,-5.90765 11.73913,0.28102c0.95798,0.06303 1.93397,0.13698 2.87605,0.25141c1.55091,1.38451 3.02948,2.82649 4.47173,3.83925c0,0 2.17926,1.53753 0.50045,3.53031c-1.67879,1.9928 -3.858,0.45525 -3.858,0.45525c-1.20867,-0.85636 -2.4958,-2.14484 -3.83705,-3.39913c-1.14232,-0.1217 -2.4637,-0.11129 -3.81258,-0.15278c-0.4887,0.1889 -0.96532,0.36552 -1.38772,0.54046c-2.09748,0.86856 -8.06982,-1.36991 -9.71735,0.46057c-0.60366,0.6707 0.00158,1.92063 -0.67129,2.53368c-1.01258,0.92261 -2.59962,1.08722 -3.8994,1.63081l-3.91391,-0.57572c0,0 -2.62444,-0.7561 -1.80007,-3.15684c0.53815,-1.56721 1.84344,-1.78913 2.68492,-1.75432c-1.30088,-6.07733 8.10633,-5.91506 12.01316,-6.83316c2.71886,-0.63894 3.83344,-1.94722 7.01534,-1.08639c2.22978,0.60325 4.27706,2.24087 6.21177,3.96801c4.47552,0.54361 8.18537,2.00058 5.55837,7.53725c-0.68324,1.43999 -2.18868,2.41771 -3.28302,3.62655c-4.50764,-1.15842 -8.62292,-2.91373 -13.2825,-3.39103c-2.33626,-0.23932 -7.68806,0.89107 -9.39945,0.45036c-1.75169,-0.45109 -3.77846,-1.38051 -4.41383,-2.94083c-0.19305,-0.47408 -0.33127,-0.91688 -0.41987,-1.33078c0.44754,0.01853 0.76393,0.10965 0.76393,0.10965zM277.78146,309.06379c-0.10849,0.01484 -0.22254,0.02555 -0.34098,0.0331c0.64198,0.01309 1.28594,0.06095 1.92606,0.08789c0.612,0.02577 1.23796,0.0568 1.87187,0.09791l-0.90458,-0.9098c-1.05826,0.31984 -2.01585,0.61755 -2.55242,0.69093zM272.99645,310.05999c-0.20287,0.92361 1.90657,-0.77768 2.92732,-0.9012c0.19484,-0.02358 0.39035,-0.03975 0.58626,-0.05009c-1.52621,-0.02835 -3.26575,-0.17711 -3.51361,0.95128zM293.37028,313.01005c-0.4125,-1.21307 -1.56237,-1.68877 -3.06879,-1.88922c1.11898,0.49009 2.15704,1.10777 3.06879,1.88922zM289.81271,310.91675c-0.40825,-0.37926 -0.82147,-0.75346 -1.23883,-1.10962c-0.24562,0.15738 -0.51299,0.30381 -0.79286,0.4416c0.69605,0.18683 1.37613,0.40724 2.03167,0.66801z" data-paper-data="{&quot;index&quot;:null}" fill="#3c2700" stroke="none" stroke-width="5" stroke-linecap="butt"/><path d="M242.68031,310.43142c-0.10021,0.4115 -0.2509,0.85074 -0.45723,1.31984c-0.67912,1.5439 -2.73142,2.42238 -4.4952,2.82955c-1.72321,0.39781 -7.04125,-0.86586 -9.38345,-0.68499c-4.67142,0.36076 -8.83473,2.01267 -13.37343,3.05809c-1.05987,-1.23575 -2.53721,-2.25073 -3.17959,-3.70729c-2.46994,-5.60035 1.27967,-6.96412 5.76896,-7.39575c1.98273,-1.6782 4.07549,-3.26413 6.32146,-3.81147c3.20505,-0.78105 4.28233,0.55464 6.98222,1.26124c3.87957,1.01533 13.28805,1.0881 11.81623,7.13079c0.84217,-0.01378 2.14071,0.24066 2.63451,1.82074c0.7564,2.42049 -1.88845,3.11076 -1.88845,3.11076l-3.92876,0.47776c-1.28404,-0.57586 -2.86585,-0.77999 -3.85205,-1.72756c-0.65537,-0.62964 -0.01509,-1.86407 -0.59962,-2.5496c-1.59535,-1.87097 -7.6287,0.21755 -9.70094,-0.7031c-0.41734,-0.18539 -0.88883,-0.37391 -1.37199,-0.57493c-1.34957,0.00779 -2.6702,-0.03561 -3.81553,0.05751c-1.37614,1.22038 -2.69914,2.47623 -3.93151,3.30208c0,0 -2.22182,1.48258 -3.84382,-0.55146c-1.622,-2.03403 0.59983,-3.51659 0.59983,-3.51659c1.47033,-0.97639 2.98902,-2.38098 4.57841,-3.72623c0.94498,-0.09087 1.92273,-0.14041 2.88212,-0.17947c1.34795,-6.15718 10.29482,-0.58295 11.74292,0.01228l-0.12743,0.12154c0.7665,0.11653 1.52405,0.27383 2.25717,0.44813c1.74194,0.41416 3.58503,0.93572 4.91562,2.04507c0.95929,0.7998 1.03461,2.64091 2.30796,2.86893l0.37486,-0.64541c0,0 0.31883,-0.08322 0.76674,-0.09055zM229.88866,307.87419l-0.92987,0.8869c0.63485,-0.02525 1.26147,-0.04062 1.87398,-0.05109c0.64068,-0.01096 1.28575,-0.04272 1.92786,-0.03976c-0.11817,-0.01049 -0.23183,-0.02407 -0.33988,-0.0416c-0.53432,-0.08674 -1.48322,-0.40825 -2.53209,-0.75443zM233.69042,308.7053c0.19557,0.01522 0.39053,0.03625 0.58464,0.0647c1.01695,0.14897 3.07764,1.90233 2.90087,0.97399c-0.21591,-1.13421 -1.95907,-1.02892 -3.48552,-1.03869zM219.84704,310.37219c-1.51154,0.16276 -2.67436,0.60958 -3.12094,1.81193c0.93345,-0.75842 1.98853,-1.34997 3.12094,-1.81193zM222.39126,309.56338c-0.27587,-0.14475 -0.53898,-0.29779 -0.7801,-0.46124c-0.42726,0.34559 -0.85084,0.70933 -1.26969,1.07828c0.66264,-0.24431 1.34872,-0.44763 2.04976,-0.61703z" fill="#3c2700" stroke="none" stroke-width="5" stroke-linecap="butt"/><path d="M247.93594,274.37596c-0.14643,1.71104 -0.55865,3.36739 -1.0864,4.99602c-1.18774,5.80607 0.78765,11.28587 -1.33218,16.58028c1.86038,2.47329 3.85362,5.4479 2.10991,10.35061c-0.07413,0.20849 -0.15198,0.41185 -0.23334,0.61022c0.04914,0.40826 0.07157,0.82373 0.06562,1.2449c-0.02453,1.7392 0.55107,4.13186 -0.31752,5.5487c-0.99559,1.62396 -3.17942,-3.89244 -8.81883,-7.61967c-5.16923,-3.41647 -13.87298,-5.00565 -13.87587,-5.06834c-0.40657,-8.77186 -1.62683,-17.1001 0.88049,-25.14627c0.12802,-1.28653 0.20151,-2.50798 0.19497,-3.64699c-0.04266,-7.43901 -2.28488,-22.60015 -0.71075,-34.09198c0.64271,-4.69209 -0.39672,-9.66501 2.37689,-12.24965c1.86158,-1.73472 6.45533,-1.96594 10.63404,-1.91375c8.24735,0.103 19.87746,2.76254 28.11436,3.16019c2.47527,0.11949 5.88776,1.75165 8.16686,2.64464c3.39887,1.33172 7.85831,-1.75305 10.43812,0.67089c1.62433,1.52618 -1.48941,6.05703 -1.492,9.34442c-0.00267,3.35993 1.16162,6.46039 0.96705,8.82697c-1.18858,14.45684 1.60404,26.58841 1.06704,40.9305c-0.11962,3.19442 -1.60487,6.05192 -1.43468,9.31462c0.05678,1.08867 -15.95719,13.73619 -22.25662,12.22774c-1.268,-0.30363 -1.72861,-2.4437 -2.04108,-3.97603c-0.23115,-1.13347 1.3228,-3.3558 1.90015,-4.20503c0.59495,-0.87513 -1.82927,-5.68342 -1.81504,-6.69193c0.10254,-7.2722 -1.25398,-19.69993 1.2162,-26.62807c0.45426,-1.27416 -3.15614,-7.80874 -3.24617,-9.40493c-0.22974,-4.07266 0.81863,-7.42639 0.5969,-11.52021c-0.07651,-1.41267 1.45418,-4.10685 -0.08462,-4.24243c-1.94334,-0.17125 -3.82687,-4.98053 -5.78004,-4.99713c-1.53791,-0.01309 -3.14442,4.74749 -4.68361,4.76949c-0.23641,2.68284 -0.80759,5.39006 -1.19047,7.92824c0.18011,0.70298 0.29533,1.41254 0.28521,2.12919c-0.04961,3.51783 0.41324,7.57598 0.73492,11.66517c0.49944,2.81422 0.89184,5.63935 0.65049,8.45957z" fill="#001525" stroke="none" stroke-width="5" stroke-linecap="butt"/><path d="M248.22552,238.98567c-0.72242,1.18983 -1.68468,1.93778 -2.80093,2.37795c-3.63916,1.43504 -8.91509,-0.40104 -12.85337,-0.86063c-2.73555,-0.31923 -5.55836,0.81468 -7.31372,-1.57086c-1.11938,-1.52124 -1.39696,-4.66542 -0.45996,-6.44921c-0.01856,-0.11657 -0.02819,-0.2359 -0.02819,-0.35734c0,-1.17395 0.89916,-2.15025 2.08468,-2.35215c0.09844,-0.02994 0.20254,-0.04829 0.31324,-0.05317c2.50221,-0.11026 6.75364,1.35526 9.17007,1.98547c6.91962,1.80465 14.56993,2.37855 21.71845,2.51965c0.88046,0.01739 2.17113,-0.00316 3.44679,0.13368c0.24967,-0.17092 0.58252,-0.30012 1.0485,-0.38518c2.92636,-0.53428 7.45094,-0.12223 9.2704,-0.12267c2.91508,-0.0007 6.94142,-2.59218 9.28443,-0.30757c2.11477,2.06208 2.78051,8.61546 -1.04508,9.45598c-2.73619,0.60117 -5.68379,0.02207 -8.34271,0.62158c-2.44541,0.55137 -10.64205,3.72394 -12.51623,0.91476c-1.6541,-2.47929 1.81415,-4.0256 2.98874,-5.0443c-1.3096,0.08892 -2.63074,-0.04418 -3.29304,-0.1826c-3.72495,-0.77852 -7.56558,-1.18718 -11.42921,-1.5704z" fill="#000a12" stroke="none" stroke-width="0.5" stroke-linecap="butt"/><path d="M239.68782,306.63601c1.58276,0.78358 5.9413,3.58805 5.5033,5.64918c-0.46963,2.20995 -1.35018,2.76244 -3.69832,2.32045c-1.59156,-0.29958 -2.18794,-2.2631 -3.38904,-3.29052c-1.88925,-1.61608 -5.29505,-2.78637 -7.58874,-3.87167c-1.15981,-0.54879 -5.42906,-0.63918 -7.70378,-1.10544c-0.19864,-0.02536 -4.10077,-0.69598 -4.28206,-0.76197c-0.95014,-0.34585 2.08679,-0.59037 2.08679,-1.60665c0,-1.3202 1.13715,-2.39043 2.5399,-2.39043c0.31239,0 0.61159,0.05308 0.888,0.15017c4.81688,-1.20744 11.3765,2.7942 15.64394,4.9069z" fill="#1c1200" stroke="none" stroke-width="0.5" stroke-linecap="butt"/><path d="M284.76437,301.34421c0.28804,-0.12245 0.60489,-0.20318 0.94109,-0.2323c1.5097,-0.13074 2.83774,0.82901 2.96627,2.14366c0.09893,1.012 4.4943,2.8124 3.50538,3.24535c-0.18868,0.0826 -5.42612,-0.72588 -5.63743,-0.68211c-2.40275,0.67631 -6.98871,1.16421 -8.18352,1.81879c-2.36292,1.29451 -5.91446,2.77731 -7.79042,4.56264c-1.19266,1.13505 -1.64335,3.14588 -3.3271,3.59254c-2.48414,0.65897 -3.48562,0.19088 -4.2062,-1.96601c-0.67206,-2.01163 3.74578,-5.21051 5.37293,-6.1383c4.38714,-2.50153 11.05731,-7.09769 16.359,-6.34425z" data-paper-data="{&quot;index&quot;:null}" fill="#1c1200" stroke="none" stroke-width="0.5" stroke-linecap="butt"/><g fill="none" stroke="#000000" stroke-width="5" stroke-linecap="round"><path d="M266.42528,238.7229l-4.61215,1.23969l-15.52989,-0.54942l1.47836,60.43843l0.83086,15.82074l-38.283,0.07778l0.70766,-8.69417l13.37354,-6.09604l0.66748,-75.88536"/><path d="M282.57705,229.37058l1.01404,70.85517l12.83115,7.37652l-0.10477,8.85848l-36.48807,-0.09207l0.12282,-17.44626c0,0 -0.67359,-53.42006 -0.72918,-57.82802c-0.00716,-0.56907 1.40022,-0.57549 1.40022,-0.57549"/><path d="M224.70617,223.81133l57.28077,4.69053"/></g><path d="M246.31264,315.95478c-2.4761,1.0948 -3.6745,-1.17163 -3.6745,-1.17163l-0.61404,-1.32257c-1.2178,-5.83327 -11.20388,-9.10189 -16.9414,-9.79943c0,0 -2.72184,-0.36669 -2.32311,-2.85684c0.39871,-2.49015 3.12054,-2.12344 3.12054,-2.12344c8.46946,1.22439 19.40763,5.48198 21.52038,13.7148l0.1899,0.19789c0,0 1.1984,2.26643 -1.27775,3.36122z" fill="#000000" stroke="none" stroke-width="5" stroke-linecap="butt"/><path d="M282.44336,298.40243c2.34042,1.32432 0.89478,3.46473 0.89478,3.46473l2.62015,0.10222c-8.75965,2.93841 -18.86261,7.11292 -23.36825,15.13983c0,0 -1.26187,2.2357 -3.70627,1.07944c-2.4444,-1.15626 -1.18252,-3.39193 -1.18252,-3.39193c5.19968,-9.16672 22.4017,-17.71859 24.74211,-16.39425z" fill="#000000" stroke="none" stroke-width="5" stroke-linecap="butt"/></g><g><path d="M326.24357,228.16582c-3.03902,4.14335 -8.54417,3.83476 -12.69477,0.88036c-4.15062,-2.95441 -6.28229,-29.87068 -3.24325,-34.01403c3.03902,-4.14335 12.05192,-4.04244 16.20254,-1.08803c4.15062,2.95441 2.77452,30.07834 -0.26451,34.22169z" fill="#0d1522" stroke="#000000" stroke-width="2.5" stroke-linecap="butt"/><path d="M333.43962,192.4855c-7.33328,8.00687 -19.7883,8.71136 -27.81909,1.57349c-8.03078,-7.13785 -8.59625,-19.41507 -1.26297,-27.42194c7.33328,-8.00687 19.78829,-8.71135 27.81908,-1.57349c8.03078,7.13785 8.59625,19.41507 1.26298,27.42194z" fill="#465e85" stroke="#000000" stroke-width="3" stroke-linecap="butt"/><path d="M328.30985,198.80131c-0.11027,0.1204 -5.96485,0.89564 -10.79634,0.69463c-4.27371,-0.1778 -7.60622,-1.32023 -7.50232,-1.43368c0.11642,-0.12712 -3.65683,-1.89511 -2.70157,-2.85305c0.73059,-0.73263 5.12811,-2.61717 6.41762,-3.07327c1.18865,-0.42041 3.02231,-0.77659 4.77642,-0.80116c1.3975,-0.01959 3.89705,0.07252 6.32955,1.05027c2.83517,1.13959 5.24338,2.67626 5.46856,2.99792c1.42001,2.02844 -1.66044,3.05638 -1.99193,3.41833z" fill="#0d1522" stroke="#000000" stroke-width="3" stroke-linecap="butt"/><path d="M299.30359,182.85757c0,0 -1.22866,-5.09013 -0.62765,-7.63868c0.59094,-2.50584 4.204,-7.5267 4.204,-7.5267c0,0 7.34044,7.19648 11.85711,10.4536c5.08961,3.67028 17.16748,10.47698 17.16748,10.47698c0,0 0.14134,1.84818 -1.18955,2.03537c-4.12462,0.5801 -26.81206,1.90288 -26.81206,1.90288z" fill="#313243" stroke="none" stroke-width="0" stroke-linecap="butt"/><path d="M337.62875,173.49445c0,0 -1.01913,5.73609 -2.07186,8.23078c-1.18991,2.81974 -4.70659,7.83224 -4.70659,7.83224" fill="none" stroke="#000000" stroke-width="2" stroke-linecap="round"/><path d="M320.64153,160.64238c0,0 1.24844,8.83729 1.04063,13.1178c-0.21031,4.33206 -2.29507,12.72181 -2.29507,12.72181" fill="none" stroke="#000000" stroke-width="2" stroke-linecap="round"/><path d="M314.823,186.9178c0,0 -2.62915,-7.17275 -2.61575,-11.53306c0.01374,-4.47276 2.69717,-14.97474 2.69717,-14.97474" fill="none" stroke="#000000" stroke-width="2" stroke-linecap="round"/><path d="M311.8248,187.80944c0,0 -3.54156,-4.84926 -4.5625,-8.41183c-1.08627,-3.79055 -1.77134,-13.69 -1.77134,-13.69" fill="none" stroke="#000000" stroke-width="2" stroke-linecap="round"/><path d="M308.15013,189.223c0,0 -3.97777,-3.97503 -5.3012,-6.56419c-1.41704,-2.77231 -2.93943,-9.55782 -2.93943,-9.55782" fill="none" stroke="#000000" stroke-width="2" stroke-linecap="round"/><path d="M302.58723,188.58389c0,0 3.12622,-3.46717 7.06248,-5.73622c3.3314,-1.92039 7.32191,-2.70004 9.67444,-2.70973c1.63554,-0.00674 4.55701,0.62478 6.56734,1.68637c4.63323,2.44668 8.34975,6.62917 8.34975,6.62917" fill="none" stroke="#000000" stroke-width="2" stroke-linecap="round"/><path d="M299.83169,180.33203c0,0 2.26963,-2.67261 5.7248,-4.91834c4.28554,-2.78545 10.20237,-5.28688 13.60178,-5.61639c2.54053,-0.24626 6.43615,0.33088 9.60793,1.71734c4.64823,2.03183 8.28421,5.2097 8.28421,5.2097" fill="none" stroke="#000000" stroke-width="2" stroke-linecap="round"/><path d="M330.15054,195.95163c-0.29063,0.31733 -3.34348,-3.95471 -9.42109,-4.49421c-6.47406,-0.57466 -14.97089,5.14093 -14.6613,4.8029c0.16284,-0.17779 -4.68527,-2.26907 -3.35545,-3.61434c1.01704,-1.02887 6.95483,-3.85359 8.68899,-4.55316c1.5985,-0.64486 4.04309,-1.24961 6.35859,-1.40646c1.84474,-0.12497 5.13501,-0.17894 8.27226,0.95312c3.65656,1.31946 6.72102,3.19875 6.9946,3.61184c1.72517,2.60511 -2.41294,4.19411 -2.87657,4.70033z" fill="#465e85" stroke="#000000" stroke-width="3" stroke-linecap="butt"/><path d="M303.42792,191.83454c-6.09485,-7.26802 -6.18561,-18.29487 0.4923,-25.58616c7.33328,-8.00687 20.22562,-8.32265 28.25642,-1.18479c7.53323,6.69562 7.93048,18.5326 1.96813,26.50586c-0.21335,0.28532 -6.83868,-5.40475 -15.06824,-5.11794c-6.96035,0.24258 -15.3745,5.70988 -15.64859,5.38304z" fill="none" stroke="#000000" stroke-width="3" stroke-linecap="butt"/><path d="M329.54918,163.69285c0,0 1.53212,9.21317 0.82322,12.91934c-0.73835,3.86021 -5.16855,9.79864 -5.16855,9.79864" fill="none" stroke="#000000" stroke-width="2" stroke-linecap="round"/><path d="M312.69651,190.8974c0.091,0.73441 -0.65935,1.42886 -1.67595,1.5511c-1.01659,0.12224 -1.9145,-0.37401 -2.00549,-1.10843c-0.091,-0.7344 0.65935,-1.42886 1.67595,-1.5511c1.0166,-0.12224 1.91449,0.37402 2.00548,1.10843z" fill="#6283b8" stroke="none" stroke-width="0" stroke-linecap="butt"/><path d="M319.29157,188.95105c0.48944,0.68924 -0.12033,1.38294 -1.36194,1.54943c-1.24162,0.1665 -2.64491,-0.25728 -3.13435,-0.94651c-0.48944,-0.68924 0.12031,-1.38292 1.36192,-1.54942c1.24162,-0.1665 2.64492,0.25727 3.13436,0.9465z" fill="#6283b8" stroke="none" stroke-width="0" stroke-linecap="butt"/><path d="M303.775,167.36458c0,0 10.01972,-2.60471 16.64604,-2.80014c6.62633,-0.19543 12.70644,1.93442 12.70644,1.93442" fill="none" stroke="#000000" stroke-width="2" stroke-linecap="round"/><path d="M317.68431,160.93942c0,0 -0.05602,8.32734 -0.26383,12.60786c-0.21031,4.33206 -0.9906,13.23176 -0.9906,13.23176" fill="none" stroke="#000000" stroke-width="2" stroke-linecap="round"/><path d="M318.74735,171.22386c-0.30127,0.91994 -1.51486,1.35417 -2.7106,0.96988c-1.19574,-0.38428 -1.92084,-1.44156 -1.61957,-2.3615c0.30127,-0.91994 1.51485,-1.35419 2.7106,-0.9699c1.19574,0.38428 1.92085,1.44157 1.61958,2.36152z" fill="#6283b8" stroke="none" stroke-width="0" stroke-linecap="butt"/><path d="M316.44237,165.63001c-0.22224,1.14679 -1.67478,1.83189 -3.24433,1.53025c-1.56955,-0.30165 -2.66176,-1.47583 -2.43952,-2.62261c0.22224,-1.14679 1.67477,-1.83191 3.24432,-1.53027c1.56955,0.30165 2.66176,1.47585 2.43953,2.62264z" fill="#6283b8" stroke="none" stroke-width="0" stroke-linecap="butt"/></g><g><path d="M289.56032,164.08857c0.02017,0.42092 0.84305,2.85071 0.75007,3.25002c-0.10681,0.57254 0.38433,1.01973 0.10241,1.51025c-0.7093,1.49037 0.91753,3.66472 0.91116,5.20306c-0.02883,6.97326 2.33631,14.30973 3.66001,21.30886c0.33146,1.75255 4.06587,-0.69821 5.45047,0.46168c4.82496,4.04183 5.96761,12.47015 4.50985,18.16885c-1.21423,4.7467 -11.67965,1.99249 -15.19466,-0.95203c-1.916,-1.60498 -4.62454,-1.39792 -5.63387,-4.7041c-1.75641,-5.75324 -4.95081,-12.24889 -4.77528,-20.08628c0.15973,-7.1327 1.97451,-16.67227 1.97451,-20.37695c0,-2.03079 -0.20362,-12.10949 2.20339,-12.24017c0.8322,-0.52798 3.14069,3.02268 4.20675,3.02268c2.61113,0 1.47962,1.8395 1.9287,4.26487c0.06659,0.20138 -0.10437,0.94284 -0.09352,1.16929z" fill="#590909" stroke="none" stroke-width="5" stroke-linecap="butt"/><path d="M305.43269,218.58167c-2.61928,0.25598 -2.88123,-2.30387 -2.88123,-2.30387l-0.29962,-2.96035c-0.0061,-5.52318 -1.01459,-10.90031 2.65925,-15.39837c0,0 1.71312,-1.95327 3.71175,-0.27904c1.99863,1.67423 0.28552,3.62752 0.28552,3.62752c-2.6793,2.68509 -1.39397,8.18132 -1.39833,11.79363l0.28002,2.70466c0,0 0.26193,2.55986 -2.35737,2.81584z" fill="#000000" stroke="none" stroke-width="5" stroke-linecap="butt"/><g fill="none" stroke="#000000" stroke-width="5" stroke-linecap="round"><path d="M313.6151,197.22054c0,0 -10.90184,-0.35418 -14.029,-1.80929c-2.10664,-0.98027 -5.94013,-2.14268 -5.94013,-2.14268c0,0 -2.36996,-16.52753 -3.65145,-24.43992c-0.91024,-5.62019 -3.31228,-18.55615 -3.31228,-18.55615"/><path d="M309.64446,220.56266c0,0 -13.69397,-3.72457 -18.2554,-5.4383c-2.45436,-0.92211 -6.96523,-4.03717 -6.96523,-4.03717"/></g><path d="M301.32138,208.26812c0,-5.89119 2.21337,-10.66693 4.94369,-10.66693c2.73032,0 4.94369,4.77575 4.94369,10.66694c0,5.89119 -2.21337,10.66696 -4.94369,10.66696c-2.73032,0 -4.94369,-4.77576 -4.94369,-10.66696z" fill="#ffffff" stroke="#000000" stroke-width="5" stroke-linecap="butt"/><path d="M307.61334,209.0211c0,-7.83181 6.12269,-14.18077 13.6754,-14.18077c7.55271,0 13.6754,6.34896 13.6754,14.18077c0,7.83181 -6.12269,14.18076 -13.6754,14.18076c-7.55271,0 -13.6754,-6.34896 -13.6754,-14.18076z" fill="#ffffff" stroke="#000000" stroke-width="5" stroke-linecap="butt"/><path d="M311.21862,203.37408c0.45159,-0.97323 1.08612,-2.52583 2.01686,-3.5602c1.50122,-1.66837 3.48599,-2.66365 4.5668,-2.76108c2.42238,-0.21835 6.0085,-0.05817 6.84852,0.97909c0.12948,0.15988 -0.41974,0.38864 -0.56345,0.5263c-1.18174,1.13199 -4.71676,4.89044 -5.36478,6.94811c-1.37038,4.35142 -1.31682,6.53125 -1.26754,7.48759c0.10744,2.08504 1.32902,9.1669 0.76448,7.56135c-0.04693,-0.13347 -0.56798,-0.22465 -0.74296,-0.26334c-0.16575,-0.03665 -2.2612,-1.23101 -3.57868,-2.65287c-1.11811,-1.20668 -1.37255,-2.12241 -1.50522,-2.19469c-1.82899,-0.99647 -2.49924,-7.41683 -1.81981,-9.65494c0.20415,-0.67249 0.129,-1.30166 0.64576,-2.41534z" data-paper-data="{&quot;index&quot;:null}" fill="#c5c5c5" stroke="#000000" stroke-width="0" stroke-linecap="butt"/></g><path d="" fill="#595959" stroke="none" stroke-width="0.5" stroke-linecap="butt"/><path d="M220.9664,225.21602c0,0 -3.17176,-28.1171 -2.15281,-48.96777c0.61317,-12.54714 9.02887,-29.36315 12.9976,-39.79716c1.68376,-4.42671 1.20362,-9.8093 1.20362,-9.8093l58.5925,4.05338c0,0 -3.49787,5.20851 -6.04744,13.74356c-3.45207,11.55623 -6.2048,28.29426 -5.90698,37.88212c0.07743,2.49252 3.16175,7.24365 3.40766,9.7992c1.70568,17.72695 3.93657,33.46267 3.93657,33.46267c0,0 -4.49657,4.09805 -11.38653,5.90961c-6.40614,1.68435 -14.99406,1.09392 -21.07402,1.03327c-4.99267,-0.0498 -11.82123,-2.23779 -18.04818,-3.05524c-8.53378,-1.12028 -15.52196,-4.25431 -15.52196,-4.25431z" fill="#590909" stroke="#000000" stroke-width="5" stroke-linecap="butt"/><path d="M281.40286,149.47183c0,0.33627 -0.83997,2.87436 -1.00811,3.19762c-0.23005,0.44226 0.04286,1.02334 -0.44497,1.40398c-3.15453,2.46142 -12.1162,3.47236 -22.77066,3.47236c-13.50635,0 -27.15901,-8.52829 -27.15901,-12.29968c0,-1.12131 2.01704,-6.3291 3.60331,-9.05064c0.46818,-0.80325 -0.31723,-1.18323 0.31354,-1.43542c4.42012,-1.76728 16.84369,11.24051 25.14909,11.24051c9.64029,0 18.23201,-2.66676 22.21519,-0.40371c1.59738,0.90756 0.10161,2.79546 0.10161,3.87498z" fill="#260404" stroke="none" stroke-width="0" stroke-linecap="butt"/><g stroke-linecap="butt"><path d="M314.55472,109.87351c-0.58104,8.17798 -0.35104,17.05802 -4.80724,23.40736c-9.13725,13.01905 -28.18968,19.76424 -45.77687,18.58446c-11.46536,-0.76912 -22.1447,-5.36869 -29.88046,-12.38083c-9.91752,-8.98984 -15.28084,-21.95206 -14.28509,-35.96692c1.77244,-24.94657 24.41972,-43.74694 50.58412,-41.9918c6.03287,0.40469 16.45541,-5.14896 25.01481,-4.82301c3.0333,0.11552 4.15718,6.75432 7.09604,6.62291c5.78113,-0.2585 8.15619,-4.5287 10.84491,-1.81853c3.4889,3.51675 3.04913,9.5425 2.17296,16.78432c-1.3375,11.05493 -0.39883,23.63907 -0.96318,31.58203z" fill="#f5f5f5" stroke="none" stroke-width="0"/><path d="M270.17265,74.04866c-5.8434,-0.39198 -16.83336,1.11712 -24.04393,4.89205c-12.6688,6.63244 -21.31395,17.4008 -24.57534,16.68584c-1.2655,-0.27742 10.18185,-16.61821 10.30355,-18.33112c0.61385,-8.63984 17.40078,-14.55111 37.49463,-13.20319c6.67924,0.44806 17.57937,-6.68402 25.02049,-7.10954c4.55131,-0.26027 5.87629,6.25589 9.805,6.06087c8.97166,-0.44535 11.11388,-1.99027 10.82887,2.02108c-0.09012,1.26838 1.73652,4.14317 0.5613,5.06861c-6.83001,5.3783 -28.25062,5.06546 -45.39457,3.91541z" fill="#ffffff" stroke="none" stroke-width="0"/><path d="M300.39214,139.3255c-0.61385,8.63984 -17.40078,14.55111 -37.49463,13.20319c-15.75612,-1.05695 -25.7226,-8.33016 -30.35297,-14.69424c-1.27477,-1.75207 -5.05119,-1.5251 -4.91869,-3.39021c0.25704,-3.61769 1.79996,-3.58016 6.78332,-1.51894c0.08549,0.03536 4.95658,2.31352 5.12028,2.3852c6.85627,3.00186 15.10128,6.76232 25.58946,7.46589c20.09385,1.34793 35.88709,-12.09071 35.27323,-3.45086z" data-paper-data="{&quot;index&quot;:null}" fill="#cccccc" stroke="none" stroke-width="0"/><path d="M314.20917,110.97107c-0.28572,4.02134 1.52376,12.4125 0.22589,16.05406c-6.7535,18.94909 -28.86326,27.40998 -50.81001,25.93775c-26.1644,-1.75515 -45.93798,-23.40119 -44.16553,-48.34776c0.70839,-9.97036 4.75122,-18.95895 11.02036,-26.04589c9.4167,-10.64508 23.85644,-16.99957 39.56376,-15.94591c3.32108,0.22278 8.98683,0.15734 14.852,-2.0357c4.02042,-1.50328 7.03518,-10.41406 7.03518,-10.41406c0,0 7.53368,14.52074 8.65722,14.45088c10.64581,-0.66211 14.70882,-12.7492 14.70882,-12.7492c0,0 1.15756,14.98291 0.97076,28.71709c-0.15974,11.74381 -1.62515,24.28037 -2.05844,30.37875z" fill="none" stroke="#000000" stroke-width="5"/><path d="M291.98967,140.89249c-0.1774,2.49675 -2.43354,4.37906 -5.03926,4.20426c-2.60572,-0.17479 -4.57427,-2.3405 -4.39688,-4.83725c0.1774,-2.49674 2.43355,-4.37906 5.03927,-4.20426c2.60572,0.17479 4.57425,2.3405 4.39686,4.83724z" fill="#cccccc" stroke="none" stroke-width="0"/><path d="M284.69982,143.58053c-0.13492,1.89893 -1.85088,3.33055 -3.8327,3.19761c-1.98181,-0.13294 -3.47902,-1.78009 -3.3441,-3.67904c0.13492,-1.89893 1.85087,-3.33055 3.83269,-3.19762c1.98181,0.13294 3.47903,1.78011 3.34411,3.67904z" fill="#cccccc" stroke="none" stroke-width="0"/></g><path d="M258.0775,102.69389c0,-4.28562 1.34353,-5.32938 3.58407,-5.73503c1.84641,-0.33429 4.32949,-0.35502 6.93198,-0.35502c2.77225,0 5.78637,-0.10141 7.63389,0.35485c1.99148,0.49181 2.71076,1.67996 2.71076,5.73521c0,7.81736 -4.66985,14.15456 -10.43036,14.15456c-5.76051,0 -10.43033,-6.3372 -10.43033,-14.15456z" fill="#000000" stroke="none" stroke-width="5" stroke-linecap="butt"/><path d="M287.39266,101.71054c0,-4.53964 1.34353,-5.64524 3.58407,-6.07494c1.84641,-0.35411 4.32949,-0.37607 6.93198,-0.37607c2.77225,0 5.78636,-0.10743 7.63388,0.37588c1.99148,0.52097 2.71076,1.77953 2.71076,6.07513c0,8.2807 -4.66985,14.9935 -10.43036,14.9935c-5.76051,0 -10.43033,-6.7128 -10.43033,-14.9935z" fill="#000000" stroke="none" stroke-width="5" stroke-linecap="butt"/><path d="M262.046,120.28458c3.11293,5.11241 -3.48962,4.08922 -5.84063,3.71936c-1.22431,-0.19261 -3.14022,0.26769 -3.61295,-0.87798c-0.2885,-0.19502 -0.54067,-0.45376 -0.73362,-0.77064c-0.01836,-0.03016 -0.03601,-0.06056 -0.05295,-0.09117c-0.98466,-1.72658 -0.49575,-2.7105 0.68365,-3.20577c0.06518,-0.04899 0.13334,-0.09526 0.20443,-0.13855c0.61908,-0.37695 1.33703,-0.45298 1.98333,-0.26955c2.98502,-0.12537 6.92131,0.89948 7.36874,1.6343z" fill="#000000" stroke="none" stroke-width="0.5" stroke-linecap="butt"/><path d="M-34.77477,380.45045v-400.9009h549.54955v400.9009z" fill="none" stroke="none" stroke-width="0" stroke-linecap="butt"/></g></g></svg>