<svg version="1.1" xmlns="http://www.w3.org/2000/svg" xmlns:xlink="http://www.w3.org/1999/xlink" width="549.54955" height="400.9009" viewBox="0,0,549.54955,400.9009"><g transform="translate(34.77478,20.45045)"><g data-paper-data="{&quot;isPaintingLayer&quot;:true}" fill-rule="nonzero" stroke-linejoin="miter" stroke-miterlimit="10" stroke-dasharray="" stroke-dashoffset="0" style="mix-blend-mode: normal"><g><g stroke-width="5"><path d="M225.67396,136.26978c0.1317,0.09753 3.47028,5.91591 3.47987,6.08398c0.43109,7.56819 -10.59134,25.59237 -13.766,32.83173c-1.84533,4.20804 -2.68758,14.37595 -4.01931,19.60715c-1.19959,4.71218 -0.63742,20.44673 -5.22438,21.05102c-1.06009,0.13966 -1.95541,0.04577 -2.70968,-0.23265c-2.25158,3.39425 -8.54326,1.77716 -10.63631,-1.88221c-1.79918,-1.06363 -2.07107,-3.42681 -2.34178,-6.13538c-0.21367,-2.13764 0.29204,-4.15495 1.27295,-5.64971c0.83123,-6.3823 -0.48447,-11.49321 0.54255,-18.93508c1.30242,-9.43755 8.5066,-21.13648 13.69805,-27.03958c1.40004,-1.59196 2.64577,-4.5992 4.23977,-6.8112c0.37861,-2.49203 1.7422,-4.55206 3.60872,-5.38578c3.16395,-5.34146 7.75251,-10.54083 11.85558,-7.50228z" fill="#590909" stroke="none" stroke-linecap="butt"/><path d="M209.26574,214.54036c1.72253,2.68045 -0.23983,4.87723 -0.23983,4.87723l-1.60352,1.48434c-4.59887,2.0273 -10.16047,-1.02052 -14.80097,0.87812c0,0 -2.47037,1.01073 -3.316,-2.3042c-0.84563,-3.31495 1.62476,-4.32568 1.62476,-4.32568c4.60183,-1.8828 10.12911,1.18044 14.69626,-0.83363l-0.04554,-0.25978c0,0 1.96231,-2.1968 3.68484,0.48366z" fill="#000000" stroke="none" stroke-linecap="butt"/><g fill="none" stroke="#000000" stroke-linecap="round"><path d="M191.05691,219.65763c0,0 -0.16326,-17.82565 0.26819,-25.59869c0.39343,-7.08848 2.217,-19.17553 2.217,-19.17553c0,0 4.54744,-8.57659 9.87903,-16.52616c0.43019,-0.64147 8.36491,-10.67628 9.77677,-12.78142c0.52138,-0.77743 1.60392,-2.47531 3.35867,-3.9235c3.97648,-3.28183 9.90429,-6.87178 9.90429,-6.87178"/><path d="M211.69936,181.49691c0,0 -0.12909,7.24401 -0.72396,11.2528c-0.88457,5.961 -2.82762,26.58208 -2.82762,26.58208"/><path d="M222.2897,160.39309c-1.3375,1.35507 -1.51859,10.30499 -3.03452,12.44099c-3.63126,5.11661 -7.48498,7.09752 -7.48498,7.09752"/></g><path d="M226.43074,132.60073c2.18215,-1.63387 3.60529,0.87139 3.60529,0.87139l1.45998,3.796c-0.78494,8.3586 -2.64082,17.46683 -6.80568,24.43488c0,0 -1.48084,2.46084 -3.62427,0.7607c-2.14343,-1.70011 -0.66258,-4.16093 -0.66258,-4.16093c3.67275,-6.05555 5.26733,-14.36631 5.91045,-21.65814l-0.64223,0.09525c0,0 -1.42316,-2.5053 0.75899,-4.13916z" fill="#000000" stroke="none" stroke-linecap="butt"/></g><g stroke="#000000" stroke-linecap="butt"><path d="M201.13651,239.14601c-8.5016,0 -14.64143,-4.34413 -14.64143,-13.07381c0,-8.72966 6.89193,-15.80648 15.39353,-15.80648c8.50162,0 15.39355,7.07679 15.39355,15.80648c0,8.72968 -7.64405,13.07381 -16.14565,13.07381z" fill="#ffffff" stroke-width="5"/><path d="M189.55698,222.49312c0.39475,-2.36249 3.8381,-7.84707 5.89442,-7.84707c0.14916,0 0.78043,-0.70387 2.30293,-1.24506c1.79398,-0.63771 4.17329,-0.68547 4.33581,-0.63688c0.17157,0.0513 0.67178,0.22586 0.77248,0.12813c1.21128,-1.17566 -3.01234,4.63601 -4.03333,6.47155c-0.4683,0.8419 -1.48387,2.78987 -2.20776,7.40749c-0.34232,2.18356 1.107,7.3323 1.64677,8.94078c0.06564,0.19561 0.44859,0.67384 0.26333,0.75476c-1.2019,0.52499 -4.43699,-1.09962 -6.4772,-2.49279c-0.9103,-0.62161 -2.21929,-2.50254 -2.80267,-4.75452c-0.36169,-1.3962 -0.23184,-3.11562 -0.19795,-4.21999c0.03878,-1.26374 0.38457,-1.79654 0.50318,-2.5064z" fill="#c5c5c5" stroke-width="0"/></g></g><g><path d="M268.0263,310.39563l0.35091,0.67835c1.25923,-0.20327 1.38445,-2.10867 2.35055,-2.91242c1.33999,-1.11483 3.16798,-1.60746 4.89344,-1.99145c0.72617,-0.1616 1.47595,-0.30496 2.23339,-0.40583l-0.12203,-0.12924c1.4414,-0.57916 10.39929,-6.12237 11.55471,0.29123c0.94293,0.06532 1.90359,0.14197 2.83087,0.26055c1.52654,1.43483 2.98189,2.92922 4.40148,3.97879c0,0 2.14502,1.59341 0.49259,3.65863c-1.65242,2.06523 -3.79739,0.4718 -3.79739,0.4718c-1.18968,-0.88748 -2.45659,-2.22279 -3.77677,-3.52267c-1.12437,-0.12612 -2.42499,-0.11533 -3.75268,-0.15834c-0.48102,0.19577 -0.95015,0.37881 -1.36592,0.56011c-2.06453,0.90012 -7.94304,-1.41969 -9.56469,0.47731c-0.59418,0.69508 0.00156,1.99044 -0.66074,2.62578c-0.99667,0.95614 -2.55878,1.12673 -3.83814,1.69008l-3.85242,-0.59664c0,0 -2.58321,-0.78358 -1.77179,-3.27157c0.5297,-1.62417 1.81448,-1.85416 2.64274,-1.81808c-1.28044,-6.29822 7.97898,-6.13005 11.82443,-7.08151c2.67615,-0.66215 3.77322,-2.01798 6.90513,-1.12588c2.19475,0.62517 4.20987,2.32232 6.11418,4.11223c4.40521,0.56337 8.05678,2.07329 5.47105,7.8112c-0.67251,1.49233 -2.1543,2.50558 -3.23144,3.75835c-4.43682,-1.20052 -8.48745,-3.01963 -13.07383,-3.51428c-2.29956,-0.24802 -7.56728,0.92346 -9.25178,0.46672c-1.72417,-0.46748 -3.7191,-1.43068 -4.34449,-3.04772c-0.19002,-0.49131 -0.32607,-0.95021 -0.41327,-1.37915c0.44051,0.0192 0.75193,0.11363 0.75193,0.11363zM277.41929,308.67989c-0.10679,0.01538 -0.21904,0.02648 -0.33562,0.03431c0.63189,0.01357 1.26574,0.06317 1.8958,0.09109c0.60239,0.02671 1.21851,0.05887 1.84246,0.10146l-0.89037,-0.94286c-1.04163,0.33146 -1.98418,0.63999 -2.51232,0.71603zM272.70948,309.71231c-0.19968,0.95718 1.87662,-0.80594 2.88133,-0.93395c0.19178,-0.02444 0.38422,-0.04119 0.57705,-0.05191c-1.50223,-0.02938 -3.21444,-0.18355 -3.45841,0.98586zM292.76322,312.76955c-0.40602,-1.25715 -1.53782,-1.75015 -3.02058,-1.95788c1.1014,0.5079 2.12315,1.14803 3.02058,1.95788zM289.26153,310.6002c-0.40184,-0.39304 -0.80856,-0.78085 -1.21937,-1.14996c-0.24176,0.16311 -0.50493,0.31486 -0.7804,0.45765c0.68511,0.19363 1.35451,0.42204 1.99975,0.6923z" data-paper-data="{&quot;index&quot;:null}" fill="#3c2700" stroke="none" stroke-width="5" stroke-linecap="butt"/><path d="M242.86966,310.09722c-0.09864,0.42645 -0.24696,0.88166 -0.45005,1.3678c-0.66845,1.60001 -2.68851,2.51042 -4.42458,2.93239c-1.69614,0.41226 -6.93063,-0.89733 -9.23603,-0.70988c-4.59803,0.37387 -8.69593,2.08582 -13.16333,3.16924c-1.04322,-1.28067 -2.49735,-2.33253 -3.12964,-3.84204c-2.43114,-5.80388 1.25957,-7.21723 5.67833,-7.66455c1.95158,-1.7392 4.01146,-3.38276 6.22215,-3.95c3.1547,-0.80944 4.21505,0.57479 6.87253,1.30709c3.81862,1.05223 13.07929,1.12764 11.63059,7.38995c0.82894,-0.01428 2.10708,0.24941 2.59312,1.88691c0.74452,2.50846 -1.85878,3.22382 -1.85878,3.22382l-3.86704,0.49512c-1.26387,-0.59679 -2.82083,-0.80835 -3.79153,-1.79036c-0.64507,-0.65253 -0.01485,-1.9318 -0.5902,-2.64227c-1.57029,-1.93897 -7.50885,0.22545 -9.54854,-0.72866c-0.41078,-0.19213 -0.87487,-0.3875 -1.35044,-0.59583c-1.32837,0.00808 -2.62825,-0.03691 -3.75559,0.05959c-1.35452,1.26473 -2.65674,2.56623 -3.86975,3.42209c0,0 -2.18691,1.53647 -3.78343,-0.5715c-1.59652,-2.10795 0.59041,-3.6444 0.59041,-3.6444c1.44723,-1.01187 2.94206,-2.46752 4.50648,-3.86167c0.93013,-0.09418 1.89252,-0.14551 2.83684,-0.186c1.32677,-6.38096 10.13309,-0.60415 11.55844,0.01272l-0.12543,0.12597c0.75446,0.12076 1.50011,0.28378 2.22171,0.46443c1.71457,0.42921 3.52871,0.96973 4.83839,2.11941c0.94422,0.82887 1.01836,2.7369 2.2717,2.9732l0.36897,-0.66887c0,0 0.31382,-0.08625 0.75469,-0.09384zM230.27896,307.44705l-0.91526,0.91913c0.62488,-0.02617 1.24165,-0.04209 1.84454,-0.05294c0.63061,-0.01136 1.26555,-0.04427 1.89757,-0.04121c-0.11631,-0.01087 -0.22819,-0.02494 -0.33454,-0.04312c-0.52593,-0.0899 -1.45992,-0.42308 -2.49231,-0.78185zM234.02099,308.30836c0.1925,0.01578 0.38439,0.03757 0.57546,0.06706c1.00097,0.15439 3.02929,1.97147 2.8553,1.00938c-0.21252,-1.17543 -1.92829,-1.06631 -3.43076,-1.07644zM220.3951,310.03585c-1.48779,0.16867 -2.63235,0.63173 -3.07191,1.87778c0.91879,-0.78598 1.95729,-1.39903 3.07191,-1.87778zM222.8993,309.19764c-0.27154,-0.15002 -0.53051,-0.30861 -0.76784,-0.47801c-0.42055,0.35815 -0.83747,0.73511 -1.24974,1.11746c0.65223,-0.25319 1.32753,-0.46389 2.01756,-0.63945z" fill="#3c2700" stroke="none" stroke-width="5" stroke-linecap="butt"/><path d="M248.04269,272.73132c-0.14413,1.77323 -0.54987,3.48977 -1.06933,5.17759c-1.16908,6.01709 0.77528,11.69606 -1.31125,17.18289c1.83115,2.56318 3.79308,5.64589 2.07676,10.7268c-0.07297,0.21607 -0.14959,0.42681 -0.22967,0.6324c0.04837,0.42309 0.07045,0.85367 0.06459,1.29014c-0.02414,1.80241 0.54241,4.28203 -0.31253,5.75036c-0.97995,1.68298 -3.12947,-4.03391 -8.68028,-7.8966c-5.08802,-3.54065 -13.65503,-5.18758 -13.65788,-5.25254c-0.40018,-9.09068 -1.60127,-17.7216 0.86666,-26.06021c0.12601,-1.3333 0.19834,-2.59913 0.19191,-3.77954c-0.04199,-7.70938 -2.24898,-23.42155 -0.69958,-35.33104c0.63261,-4.86263 -0.39049,-10.01629 2.33955,-12.69486c1.83233,-1.79777 6.35392,-2.0374 10.46698,-1.9833c8.11778,0.10675 19.56518,2.86293 27.67268,3.27504c2.43638,0.12384 5.79526,1.81532 8.03856,2.74076c3.34547,1.38013 7.73485,-1.81676 10.27413,0.69527c1.59881,1.58165 -1.46601,6.27717 -1.46856,9.68404c-0.00263,3.48204 1.14337,6.69519 0.95186,9.14778c-1.16991,14.98227 1.57884,27.55477 1.05028,42.41811c-0.11774,3.31051 -1.57966,6.27189 -1.41214,9.65316c0.05589,1.12823 -15.7065,14.23543 -21.90696,12.67215c-1.24808,-0.31466 -1.70145,-2.53252 -2.00901,-4.12053c-0.22752,-1.17467 1.30202,-3.47777 1.8703,-4.35786c0.5856,-0.90693 -1.80053,-5.88998 -1.78653,-6.93514c0.10093,-7.53651 -1.23428,-20.41592 1.19709,-27.59586c0.44712,-1.32046 -3.10656,-8.09255 -3.19517,-9.74675c-0.22613,-4.22068 0.80577,-7.6963 0.58752,-11.9389c-0.07531,-1.46402 1.43133,-4.25611 -0.08329,-4.39662c-1.91281,-0.17747 -3.76675,-5.16154 -5.68923,-5.17875c-1.51375,-0.01357 -3.09502,4.92003 -4.61003,4.94284c-0.2327,2.78034 -0.7949,5.58597 -1.17177,8.21638c0.17728,0.72854 0.29069,1.46387 0.28073,2.20657c-0.04883,3.64568 0.40675,7.85132 0.72337,12.08913c0.49159,2.9165 0.87783,5.84431 0.64027,8.76704z" fill="#001525" stroke="none" stroke-width="5" stroke-linecap="butt"/><path d="M248.3277,236.0548c-0.71107,1.23307 -1.65821,2.0082 -2.75693,2.46438c-3.58199,1.4872 -8.77503,-0.41561 -12.65144,-0.89191c-2.69257,-0.33084 -5.47104,0.8443 -7.19882,-1.62795c-1.10179,-1.57653 -1.37501,-4.83499 -0.45273,-6.6836c-0.01827,-0.12081 -0.02775,-0.24447 -0.02775,-0.37033c0,-1.21662 0.88503,-2.2284 2.05193,-2.43763c0.09689,-0.03103 0.19936,-0.05005 0.30832,-0.05511c2.4629,-0.11427 6.64754,1.40451 9.02601,2.05763c6.81091,1.87024 14.34103,2.465 21.37725,2.61123c0.86663,0.01801 2.13702,-0.00327 3.39264,0.13853c0.24575,-0.17714 0.57337,-0.31102 1.03203,-0.39918c2.88039,-0.5537 7.33388,-0.12667 9.12476,-0.12713c2.86928,-0.00073 6.83237,-2.68639 9.13857,-0.31874c2.08155,2.13702 2.73683,8.92858 -1.02866,9.79965c-2.6932,0.62302 -5.5945,0.02288 -8.21164,0.64418c-2.40699,0.57142 -10.47486,3.85929 -12.3196,0.94801c-1.62811,-2.56939 1.78565,-4.1719 2.94179,-5.22763c-1.28903,0.09216 -2.58941,-0.04579 -3.24131,-0.18925c-3.66643,-0.80682 -7.44672,-1.23032 -11.24965,-1.62747z" fill="#000a12" stroke="none" stroke-width="0.5" stroke-linecap="butt"/><path d="M239.92411,306.16387c1.55789,0.81206 5.84796,3.71846 5.41684,5.85449c-0.46225,2.29027 -1.32897,2.86284 -3.64022,2.40478c-1.56656,-0.31047 -2.15357,-2.34536 -3.3358,-3.41012c-1.85957,-1.67481 -5.21186,-2.88764 -7.46952,-4.01238c-1.14159,-0.56873 -5.34377,-0.66241 -7.58275,-1.14563c-0.19552,-0.02628 -4.03635,-0.72127 -4.21479,-0.78967c-0.93521,-0.35842 2.05401,-0.61183 2.05401,-1.66504c0,-1.36818 1.11929,-2.47731 2.5,-2.47731c0.30748,0 0.60198,0.05501 0.87405,0.15562c4.74121,-1.25133 11.19777,2.89575 15.39817,5.08524z" fill="#1c1200" stroke="none" stroke-width="0.5" stroke-linecap="butt"/><path d="M284.29249,300.67975c0.28351,-0.1269 0.59539,-0.21056 0.92631,-0.24073c1.48598,-0.13549 2.79316,0.85915 2.91967,2.22157c0.09738,1.04878 4.42369,2.91462 3.45031,3.3633c-0.18572,0.08561 -5.34087,-0.75227 -5.54886,-0.7069c-2.365,0.70089 -6.87892,1.20652 -8.05496,1.88488c-2.3258,1.34155 -5.82154,2.87824 -7.66803,4.72847c-1.17392,1.1763 -1.61753,3.26022 -3.27483,3.72311c-2.44511,0.68292 -3.43086,0.19782 -4.14012,-2.03747c-0.6615,-2.08474 3.68693,-5.39988 5.28852,-6.3614c4.31822,-2.59245 10.8836,-7.35566 16.102,-6.57483z" data-paper-data="{&quot;index&quot;:null}" fill="#1c1200" stroke="none" stroke-width="0.5" stroke-linecap="butt"/><g fill="none" stroke="#000000" stroke-width="5" stroke-linecap="round"><path d="M266.24154,235.78248l-4.53969,1.28474l-15.28591,-0.56938l1.45513,62.63505l0.81781,16.39574l-37.68157,0.08061l0.69654,-9.01016l13.16344,-6.3176l0.65699,-78.6434"/><path d="M282.13955,226.09025l0.99811,73.43038l12.62957,7.64462l-0.10312,9.18044l-35.91483,-0.09543l0.12089,-18.08034c0,0 -0.66301,-55.3616 -0.71772,-59.92976c-0.00705,-0.58975 1.37822,-0.59641 1.37822,-0.59641"/><path d="M281.55874,225.18996l-56.38088,-4.861"/></g><path d="M246.44482,315.82133c-2.4372,1.1346 -3.61677,-1.21421 -3.61677,-1.21421l-0.60439,-1.37063c-1.19867,-6.04528 -11.02786,-9.43269 -16.67525,-10.15559c0,0 -2.67908,-0.38002 -2.28661,-2.96067c0.39245,-2.58065 3.07152,-2.20062 3.07152,-2.20062c8.3364,1.26889 19.10273,5.68123 21.18229,14.21327l0.18692,0.20507c0,0 1.17957,2.3488 -1.25768,3.48338z" fill="#000000" stroke="none" stroke-width="5" stroke-linecap="butt"/><path d="M282.00795,297.63104c2.30365,1.37245 0.88072,3.59066 0.88072,3.59066l2.57899,0.10594c-8.62203,3.0452 -18.56627,7.37143 -23.00113,15.69008c0,0 -1.24205,2.31696 -3.64804,1.11867c-2.406,-1.19828 -1.16394,-3.51522 -1.16394,-3.51522c5.11799,-9.49989 22.04976,-18.36256 24.35341,-16.99009z" fill="#000000" stroke="none" stroke-width="5" stroke-linecap="butt"/></g><g><path d="M326.94142,225.41764c-3.03902,4.20108 -8.54417,3.88818 -12.69477,0.89262c-4.15062,-2.99557 -6.28229,-30.28684 -3.24325,-34.48791c3.03902,-4.20108 12.05192,-4.09875 16.20254,-1.10318c4.15062,2.99557 2.77452,30.4974 -0.26451,34.69848z" fill="#0d1522" stroke="#000000" stroke-width="2.5" stroke-linecap="butt"/><path d="M334.13754,189.24022c-7.33328,8.11842 -19.7883,8.83273 -27.81909,1.59542c-8.03078,-7.23729 -8.59625,-19.68556 -1.26297,-27.80399c7.33328,-8.11842 19.78829,-8.83272 27.81908,-1.59542c8.03078,7.23729 8.59625,19.68556 1.26298,27.80399z" fill="#465e85" stroke="#000000" stroke-width="3" stroke-linecap="butt"/><path d="M329.00766,195.64402c-0.11027,0.12208 -5.96485,0.90811 -10.79634,0.70431c-4.27371,-0.18028 -7.60622,-1.33862 -7.50232,-1.45365c0.11642,-0.12889 -3.65683,-1.92152 -2.70157,-2.8928c0.73059,-0.74284 5.12811,-2.65363 6.41762,-3.11609c1.18865,-0.42627 3.02231,-0.78741 4.77642,-0.81232c1.3975,-0.01986 3.89705,0.07354 6.32955,1.0649c2.83517,1.15547 5.24338,2.71354 5.46856,3.03969c1.42001,2.0567 -1.66044,3.09896 -1.99193,3.46595z" fill="#0d1522" stroke="#000000" stroke-width="3" stroke-linecap="butt"/><path d="M300.00147,179.47815c0,0 -1.22866,-5.16105 -0.62765,-7.7451c0.59094,-2.54076 4.204,-7.63156 4.204,-7.63156c0,0 7.34044,7.29674 11.85711,10.59925c5.08961,3.72141 17.16748,10.62295 17.16748,10.62295c0,0 0.14134,1.87392 -1.18955,2.06373c-4.12462,0.58818 -26.81206,1.9294 -26.81206,1.9294z" fill="#313243" stroke="none" stroke-width="0" stroke-linecap="butt"/><path d="M338.32647,169.98458c0,0 -1.01913,5.81601 -2.07186,8.34545c-1.18991,2.85903 -4.70659,7.94135 -4.70659,7.94135" fill="none" stroke="#000000" stroke-width="2" stroke-linecap="round"/><path d="M321.33934,156.95344c0,0 1.24844,8.96041 1.04063,13.30056c-0.21031,4.39241 -2.29507,12.89905 -2.29507,12.89905" fill="none" stroke="#000000" stroke-width="2" stroke-linecap="round"/><path d="M315.52087,183.59495c0,0 -2.62915,-7.27268 -2.61575,-11.69374c0.01374,-4.53508 2.69717,-15.18337 2.69717,-15.18337" fill="none" stroke="#000000" stroke-width="2" stroke-linecap="round"/><path d="M312.52261,184.49901c0,0 -3.54156,-4.91682 -4.5625,-8.52902c-1.08627,-3.84336 -1.77134,-13.88074 -1.77134,-13.88074" fill="none" stroke="#000000" stroke-width="2" stroke-linecap="round"/><path d="M308.84805,185.93226c0,0 -3.97777,-4.03041 -5.3012,-6.65564c-1.41704,-2.81093 -2.93943,-9.69099 -2.93943,-9.69099" fill="none" stroke="#000000" stroke-width="2" stroke-linecap="round"/><path d="M303.28508,185.28425c0,0 3.12622,-3.51548 7.06248,-5.81614c3.3314,-1.94714 7.32191,-2.73766 9.67444,-2.74748c1.63554,-0.00684 4.55701,0.63349 6.56734,1.70987c4.63323,2.48076 8.34975,6.72153 8.34975,6.72153" fill="none" stroke="#000000" stroke-width="2" stroke-linecap="round"/><path d="M300.52952,176.91742c0,0 2.26963,-2.70985 5.7248,-4.98686c4.28554,-2.82426 10.20237,-5.36054 13.60178,-5.69464c2.54053,-0.24969 6.43615,0.33549 9.60793,1.74127c4.64823,2.06014 8.28421,5.28228 8.28421,5.28228" fill="none" stroke="#000000" stroke-width="2" stroke-linecap="round"/><path d="M330.84841,192.75463c-0.29063,0.32175 -3.34348,-4.00981 -9.42109,-4.55682c-6.47406,-0.58267 -14.97089,5.21255 -14.6613,4.86981c0.16284,-0.18027 -4.68527,-2.30068 -3.35545,-3.6647c1.01704,-1.0432 6.95483,-3.90728 8.68899,-4.6166c1.5985,-0.65384 4.04309,-1.26702 6.35859,-1.42606c1.84474,-0.12671 5.13501,-0.18144 8.27226,0.9664c3.65656,1.33784 6.72102,3.24332 6.9946,3.66216c1.72517,2.6414 -2.41294,4.25254 -2.87657,4.76581z" fill="#465e85" stroke="#000000" stroke-width="3" stroke-linecap="butt"/><path d="M304.12577,188.58018c-6.09485,-7.36927 -6.18561,-18.54976 0.4923,-25.94263c7.33328,-8.11842 20.22562,-8.4386 28.25642,-1.2013c7.53323,6.7889 7.93048,18.7908 1.96813,26.87514c-0.21335,0.2893 -6.83868,-5.48005 -15.06824,-5.18924c-6.96035,0.24596 -15.3745,5.78943 -15.64859,5.45803z" fill="none" stroke="#000000" stroke-width="3" stroke-linecap="butt"/><path d="M330.24705,160.04643c0,0 1.53212,9.34153 0.82322,13.09933c-0.73835,3.914 -5.16855,9.93516 -5.16855,9.93516" fill="none" stroke="#000000" stroke-width="2" stroke-linecap="round"/><path d="M313.39441,187.62999c0.091,0.74464 -0.65935,1.44877 -1.67595,1.57271c-1.01659,0.12394 -1.9145,-0.37923 -2.00549,-1.12387c-0.091,-0.74463 0.65935,-1.44877 1.67595,-1.57271c1.0166,-0.12394 1.91449,0.37924 2.00548,1.12387z" fill="#6283b8" stroke="none" stroke-width="0" stroke-linecap="butt"/><path d="M319.98944,185.65653c0.48944,0.69884 -0.12033,1.40221 -1.36194,1.57102c-1.24162,0.16881 -2.64491,-0.26086 -3.13435,-0.9597c-0.48944,-0.69884 0.12031,-1.40219 1.36192,-1.57101c1.24162,-0.16881 2.64492,0.26085 3.13436,0.95969z" fill="#6283b8" stroke="none" stroke-width="0" stroke-linecap="butt"/><path d="M304.47287,163.7693c0,0 10.01972,-2.641 16.64604,-2.83915c6.62633,-0.19815 12.70644,1.96137 12.70644,1.96137" fill="none" stroke="#000000" stroke-width="2" stroke-linecap="round"/><path d="M318.38221,157.25463c0,0 -0.05602,8.44335 -0.26383,12.78352c-0.21031,4.39241 -0.9906,13.4161 -0.9906,13.4161" fill="none" stroke="#000000" stroke-width="2" stroke-linecap="round"/><path d="M319.44516,167.68236c-0.30127,0.93276 -1.51486,1.37304 -2.7106,0.98339c-1.19574,-0.38963 -1.92084,-1.46164 -1.61957,-2.39441c0.30127,-0.93276 1.51485,-1.37305 2.7106,-0.98341c1.19574,0.38963 1.92085,1.46165 1.61958,2.39442z" fill="#6283b8" stroke="none" stroke-width="0" stroke-linecap="butt"/><path d="M317.14027,162.01057c-0.22224,1.16277 -1.67478,1.85742 -3.24433,1.55157c-1.56955,-0.30585 -2.66176,-1.49639 -2.43952,-2.65915c0.22224,-1.16277 1.67477,-1.85744 3.24432,-1.55159c1.56955,0.30585 2.66176,1.49641 2.43953,2.65918z" fill="#6283b8" stroke="none" stroke-width="0" stroke-linecap="butt"/></g><g><path d="M289.21144,157.61743c0.02017,0.42678 0.84305,2.89042 0.75007,3.29529c-0.10681,0.58052 0.38433,1.03394 0.10241,1.53129c-0.7093,1.51114 0.91753,3.71578 0.91116,5.27555c-0.02883,7.07041 2.33631,14.50909 3.66001,21.60573c0.33146,1.77697 4.06587,-0.70793 5.45047,0.46811c4.82496,4.09814 5.96761,12.64389 4.50985,18.42199c-1.21423,4.81283 -11.67965,2.02024 -15.19466,-0.9653c-1.916,-1.62734 -4.62454,-1.4174 -5.63387,-4.76964c-1.75641,-5.83339 -4.95081,-12.41954 -4.77528,-20.36613c0.15973,-7.23207 1.97451,-16.90455 1.97451,-20.66084c0,-2.05908 -0.20362,-12.27821 2.20339,-12.4107c0.8322,-0.53534 3.14069,3.0648 4.20675,3.0648c2.61113,0 1.47962,1.86513 1.9287,4.32429c0.06659,0.20419 -0.10437,0.95597 -0.09352,1.18558z" fill="#590909" stroke="none" stroke-width="5" stroke-linecap="butt"/><path d="M305.08382,212.86973c-2.61928,0.25955 -2.88123,-2.33597 -2.88123,-2.33597l-0.29962,-3.00159c-0.0061,-5.60013 -1.01459,-11.05217 2.65925,-15.6129c0,0 1.71312,-1.98049 3.71175,-0.28293c1.99863,1.69756 0.28552,3.67806 0.28552,3.67806c-2.6793,2.7225 -1.39397,8.2953 -1.39833,11.95794l0.28002,2.74234c0,0 0.26193,2.59552 -2.35737,2.85508z" fill="#000000" stroke="none" stroke-width="5" stroke-linecap="butt"/><g fill="none" stroke="#000000" stroke-width="5" stroke-linecap="round"><path d="M313.26617,191.21099c0,0 -10.90184,-0.35911 -14.029,-1.8345c-2.10664,-0.99393 -5.94013,-2.17253 -5.94013,-2.17253c0,0 -2.36996,-16.75779 -3.65145,-24.78042c-0.91024,-5.69849 -3.31228,-18.81468 -3.31228,-18.81468"/><path d="M309.29553,214.87832c0,0 -13.69397,-3.77647 -18.2554,-5.51407c-2.45436,-0.93496 -6.96523,-4.09342 -6.96523,-4.09342"/></g><path d="M300.97245,202.41249c0,-5.97327 2.21337,-10.81554 4.94369,-10.81554c2.73032,0 4.94369,4.84228 4.94369,10.81555c0,5.97327 -2.21337,10.81557 -4.94369,10.81557c-2.73032,0 -4.94369,-4.8423 -4.94369,-10.81557z" fill="#ffffff" stroke="#000000" stroke-width="5" stroke-linecap="butt"/><path d="M307.26446,203.17596c0,-7.94093 6.12269,-14.37834 13.6754,-14.37834c7.55271,0 13.6754,6.43741 13.6754,14.37834c0,7.94093 -6.12269,14.37833 -13.6754,14.37833c-7.55271,0 -13.6754,-6.43741 -13.6754,-14.37833z" fill="#ffffff" stroke="#000000" stroke-width="5" stroke-linecap="butt"/><path d="M310.86969,197.45027c0.45159,-0.98679 1.08612,-2.56102 2.01686,-3.6098c1.50122,-1.69161 3.48599,-2.70076 4.5668,-2.79954c2.42238,-0.22139 6.0085,-0.05899 6.84852,0.99273c0.12948,0.16211 -0.41974,0.39405 -0.56345,0.53363c-1.18174,1.14777 -4.71676,4.95858 -5.36478,7.04492c-1.37038,4.41204 -1.31682,6.62224 -1.26754,7.5919c0.10744,2.11408 1.32902,9.29462 0.76448,7.6667c-0.04693,-0.13533 -0.56798,-0.22777 -0.74296,-0.267c-0.16575,-0.03716 -2.2612,-1.24817 -3.57868,-2.68983c-1.11811,-1.22349 -1.37255,-2.15198 -1.50522,-2.22527c-1.82899,-1.01035 -2.49924,-7.52016 -1.81981,-9.78945c0.20415,-0.68185 0.129,-1.3198 0.64576,-2.449z" data-paper-data="{&quot;index&quot;:null}" fill="#c5c5c5" stroke="#000000" stroke-width="0" stroke-linecap="butt"/></g><path d="" fill="#595959" stroke="none" stroke-width="0.5" stroke-linecap="butt"/><path d="M220.96647,222.94436c0,0 -3.17176,-29.35314 -2.15281,-51.12043c0.61317,-13.09873 9.02887,-30.65397 12.9976,-41.54667c1.68376,-4.62132 1.20362,-10.24052 1.20362,-10.24052l58.5925,4.23157c0,0 -3.49787,5.43749 -6.04744,14.34774c-3.45207,12.06426 -6.2048,29.5381 -5.90698,39.54745c0.07743,2.60209 3.16175,7.56209 3.40766,10.22998c1.70568,18.50623 3.93657,34.93371 3.93657,34.93371c0,0 -4.49657,4.27821 -11.38653,6.16941c-6.40614,1.75839 -14.99406,1.14201 -21.07402,1.07869c-4.99267,-0.05198 -11.82123,-2.33616 -18.04818,-3.18954c-8.53378,-1.16954 -15.52196,-4.44134 -15.52196,-4.44134z" fill="#590909" stroke="#000000" stroke-width="5" stroke-linecap="butt"/><path d="M281.40288,146.36886c0,0.34096 -0.83997,2.91441 -1.00811,3.24217c-0.23005,0.44842 0.04286,1.0376 -0.44497,1.42354c-3.15453,2.49571 -12.1162,3.52074 -22.77066,3.52074c-13.50635,0 -27.15901,-8.64711 -27.15901,-12.47104c0,-1.13694 2.01704,-6.41727 3.60331,-9.17674c0.46818,-0.81444 -0.31723,-1.19971 0.31354,-1.45542c4.42012,-1.79191 16.84369,11.39712 25.14909,11.39712c9.64029,0 18.23201,-2.70391 22.21519,-0.40933c1.59738,0.9202 0.10161,2.83441 0.10161,3.92897z" fill="#260404" stroke="none" stroke-width="0" stroke-linecap="butt"/><g stroke-linecap="butt"><path d="M315.15495,106.21168c-0.58104,8.41638 -0.35104,17.55528 -4.80724,24.08971c-9.13725,13.39857 -28.18968,20.34039 -45.77687,19.12622c-11.46536,-0.79154 -22.1447,-5.52519 -29.88046,-12.74175c-9.91752,-9.2519 -15.28084,-22.59199 -14.28509,-37.0154c1.77244,-25.67379 24.41972,-45.02222 50.58412,-43.21591c6.03287,0.41649 16.45541,-5.29906 25.01481,-4.96361c3.0333,0.11889 4.15718,6.95122 7.09604,6.81598c5.78113,-0.26604 8.15619,-4.66072 10.84491,-1.87154c3.4889,3.61927 3.04913,9.82068 2.17296,17.2736c-1.3375,11.3772 -0.39883,24.32818 -0.96318,32.50269z" fill="#f5f5f5" stroke="none" stroke-width="0"/><path d="M270.77288,69.34249c-5.8434,-0.40341 -16.83336,1.14969 -24.04393,5.03466c-12.6688,6.82578 -21.31395,17.90805 -24.57534,17.17225c-1.2655,-0.28551 10.18185,-17.10265 10.30355,-18.8655c0.61385,-8.8917 17.40078,-14.97529 37.49463,-13.58808c6.67924,0.46112 17.57937,-6.87887 25.02049,-7.31679c4.55131,-0.26786 5.87629,6.43826 9.805,6.23755c8.97166,-0.45833 11.11388,-2.04829 10.82887,2.08c-0.09012,1.30536 1.73652,4.26395 0.5613,5.21637c-6.83001,5.53508 -28.25062,5.21312 -45.39457,4.02955z" fill="#ffffff" stroke="none" stroke-width="0"/><path d="M300.99237,136.52223c-0.61385,8.8917 -17.40078,14.97529 -37.49463,13.58808c-15.75612,-1.08776 -25.7226,-8.57299 -30.35297,-15.1226c-1.27477,-1.80314 -5.05119,-1.56956 -4.91869,-3.48904c0.25704,-3.72315 1.79996,-3.68453 6.78332,-1.56322c0.08549,0.03639 4.95658,2.38096 5.12028,2.45473c6.85627,3.08937 15.10128,6.95945 25.58946,7.68353c20.09385,1.38722 35.88709,-12.44317 35.27323,-3.55146z" data-paper-data="{&quot;index&quot;:null}" fill="#cccccc" stroke="none" stroke-width="0"/><path d="M314.8094,107.34123c-0.28572,4.13857 1.52376,12.77434 0.22589,16.52206c-6.7535,19.50148 -28.86326,28.20901 -50.81001,26.69387c-26.1644,-1.80631 -45.93798,-24.08336 -44.16553,-49.75716c0.70839,-10.26101 4.75122,-19.51163 11.02036,-26.80516c9.4167,-10.9554 23.85644,-17.49513 39.56376,-16.41075c3.32108,0.22927 8.98683,0.16193 14.852,-2.09504c4.02042,-1.5471 10.03638,-7.1162 10.03638,-7.1162c0,0 4.53248,11.3426 5.65602,11.2707c10.64581,-0.68141 15.9093,-8.31893 15.9093,-8.31893c0,0 -0.04292,10.61776 -0.22972,24.7523c-0.15974,12.08616 -1.62516,24.98817 -2.05844,31.26433z" fill="none" stroke="#000000" stroke-width="5"/><path d="M292.58991,138.1349c-0.1774,2.56953 -2.43354,4.50671 -5.03926,4.32682c-2.60572,-0.17989 -4.57427,-2.40873 -4.39688,-4.97826c0.1774,-2.56952 2.43355,-4.50671 5.03927,-4.32682c2.60572,0.17989 4.57425,2.40873 4.39686,4.97825z" fill="#cccccc" stroke="none" stroke-width="0"/><path d="M285.30006,140.9013c-0.13492,1.95429 -1.85088,3.42764 -3.8327,3.29082c-1.98181,-0.13682 -3.47902,-1.83198 -3.3441,-3.78629c0.13492,-1.95429 1.85087,-3.42764 3.83269,-3.29083c1.98181,0.13682 3.47903,1.832 3.34411,3.78629z" fill="#cccccc" stroke="none" stroke-width="0"/></g><path d="M258.67774,100.9511c0,-3.9046 1.34353,-4.85556 3.58407,-5.22515c1.84641,-0.30458 4.32949,-0.32347 6.93198,-0.32347c2.77225,0 5.78637,-0.0924 7.63389,0.3233c1.99148,0.44809 2.71076,1.53061 2.71076,5.22531c0,7.12235 -4.66985,12.89613 -10.43036,12.89613c-5.76051,0 -10.43033,-5.77378 -10.43033,-12.89613z" fill="#000000" stroke="none" stroke-width="5" stroke-linecap="butt"/><path d="M287.99289,101.22618c0,-3.7776 1.34353,-4.69761 3.58407,-5.05519c1.84641,-0.29466 4.32949,-0.31294 6.93198,-0.31294c2.77225,0 5.78636,-0.08939 7.63388,0.31278c1.99148,0.43351 2.71076,1.48081 2.71076,5.05535c0,6.89068 -4.66985,12.47666 -10.43036,12.47666c-5.76051,0 -10.43033,-5.58598 -10.43033,-12.47666z" fill="#000000" stroke="none" stroke-width="5" stroke-linecap="butt"/><path d="M262.64624,117.28338c3.11293,5.11241 -3.48962,4.08922 -5.84063,3.71936c-1.22431,-0.19261 -3.14022,0.26769 -3.61295,-0.87798c-0.2885,-0.19502 -0.54067,-0.45376 -0.73362,-0.77064c-0.01836,-0.03016 -0.03601,-0.06056 -0.05295,-0.09117c-0.98466,-1.72658 -0.49575,-2.7105 0.68365,-3.20577c0.06518,-0.04899 0.13334,-0.09526 0.20443,-0.13855c0.61908,-0.37695 1.33703,-0.45298 1.98333,-0.26955c2.98502,-0.12537 6.92131,0.89948 7.36874,1.6343z" fill="#000000" stroke="none" stroke-width="0.5" stroke-linecap="butt"/><path d="M-34.77477,380.45045v-400.9009h549.54955v400.9009z" fill="none" stroke="none" stroke-width="0" stroke-linecap="butt"/></g></g></svg>