<svg version="1.1" xmlns="http://www.w3.org/2000/svg" xmlns:xlink="http://www.w3.org/1999/xlink" width="347" height="286" viewBox="0,0,347,286"><defs><linearGradient x1="301.33801" y1="108.05863" x2="301.33801" y2="131.72529" gradientUnits="userSpaceOnUse" id="color-1"><stop offset="0" stop-color="#00cdff" stop-opacity="0"/><stop offset="1" stop-color="#00cdff"/></linearGradient><linearGradient x1="303.65935" y1="115.05863" x2="303.65935" y2="131.72529" gradientUnits="userSpaceOnUse" id="color-2"><stop offset="0" stop-color="#000000" stop-opacity="0"/><stop offset="1" stop-color="#000000"/></linearGradient><linearGradient x1="212.40893" y1="153.694" x2="215.21397" y2="168.08992" gradientUnits="userSpaceOnUse" id="color-3"><stop offset="0" stop-color="#00cdff" stop-opacity="0"/><stop offset="1" stop-color="#00cdff"/></linearGradient><linearGradient x1="214.65061" y1="157.67682" x2="216.62599" y2="167.81479" gradientUnits="userSpaceOnUse" id="color-4"><stop offset="0" stop-color="#000000" stop-opacity="0"/><stop offset="1" stop-color="#000000"/></linearGradient></defs><g transform="translate(-85,-40.50003)"><g data-paper-data="{&quot;isPaintingLayer&quot;:true}" fill-rule="nonzero" stroke-linejoin="miter" stroke-miterlimit="10" stroke-dasharray="" stroke-dashoffset="0" style="mix-blend-mode: normal"><text transform="translate(211.22476,115.34676) scale(0.20352,0.20352)" font-size="40" xml:space="preserve" fill="#000000" fill-rule="nonzero" stroke="none" stroke-width="1" stroke-linecap="butt" stroke-linejoin="miter" stroke-miterlimit="10" stroke-dasharray="" stroke-dashoffset="0" font-family="Sans Serif" font-weight="normal" text-anchor="start" style="mix-blend-mode: normal"><tspan x="0" dy="0">Polargaming64</tspan><tspan x="0" dy="46.150000000000006px"> </tspan><tspan x="0" dy="46.150000000000006px">MeIzAwezomeDede</tspan><tspan x="0" dy="46.150000000000006px"> </tspan><tspan x="0" dy="46.150000000000006px">AwezomeXD</tspan></text><path d="M310.22476,213.97595c0,6.72542 -24.46734,9.63291 -28.33333,9.63291c-3.86599,0 -2,-9.81409 -2,-16.5395c0,-3.84489 -1.06515,-12.40353 -0.39859,-18.09547c0.49937,-4.26432 4.0761,-7.53169 5.73192,-7.53169c1.48938,0 12.20834,1.56808 16.62775,7.25088c3.70313,4.76177 0.99736,13.2788 3.92419,17.81156c2.64688,4.0992 4.44806,5.50793 4.44806,7.47132z" fill="#fddfbd" stroke="#000000" stroke-width="3.5" stroke-linecap="butt"/><path d="M302.47476,194.35886l-0.03607,6.68333c0,0 -3.41138,2.54174 -11.96856,-1.20931c-2.77819,-1.21783 -7.99536,-5.72402 -7.99536,-5.72402c0,0 -4.29227,-8.93709 -0.71407,-9.86081c0.76847,-0.19838 5.43616,-1.56383 10.28677,0.93895c5.1261,2.64492 10.4273,9.17186 10.4273,9.17186z" fill="#f89486" stroke="none" stroke-width="0" stroke-linecap="butt"/><path d="M247.05809,198.60887c0,5.33875 -33.06429,8.66667 -37.66667,8.66667c-4.60237,0 -7.33333,-1.99458 -7.33333,-7.33333c0,-5.33875 0.73096,-18 5.33333,-18c0.78933,0 9.95988,0.33286 16.14763,-1.88785c7.31946,-2.62687 13.3626,-16.82871 14.90623,-16.10722c4.76031,2.22494 8.61281,31.32168 8.61281,34.66174z" fill="#d38ddd" stroke="#000000" stroke-width="3.5" stroke-linecap="butt"/><path d="M224.39142,205.77554c0,0 -9.89982,9.16667 -18,9.16667c-8.10018,0 -26.33133,0.86748 -26.33133,-5.66789c0,-6.53537 19.06449,-20.99877 27.16467,-20.99877c8.10018,0 16.16667,13.5 16.16667,13.5z" fill="#f89587" stroke="#000000" stroke-width="3.5" stroke-linecap="butt"/><g><g stroke-linecap="butt"><path d="M185.68913,178.8423c0,0 10.69361,-1.70016 11.5186,2.81939c0.08525,0.46697 0.77242,16.22479 -9.46527,15.30255c-2.21807,-0.19981 -9.53503,-1.18254 -11.49351,-4.07373c-3.83135,-5.65605 -1.62575,-15.02497 -1.97006,-14.97355c-4.55185,0.68002 -18.10666,13.03126 -18.56908,9.93601c-0.23718,-1.58766 3.27331,-6.75179 8.53655,-12.98595c1.46335,-1.7333 3.66163,-3.87166 5.11514,-5.41459c0.42752,-0.45381 1.35165,-1.97646 1.74938,-2.39111c2.8683,-2.99034 4.96512,-4.91633 6.34209,-5.12203c4.55185,-0.68002 8.23613,16.90301 8.23613,16.90301z" fill="#fddfbd" stroke="#000000" stroke-width="3"/><path d="M195.97703,182.72209c0,0 0.52212,1.80497 -0.11479,5.06896c-0.64588,3.3099 -3.56768,7.48794 -6.04283,7.85772c-2.17171,0.32443 -10.24774,0.82231 -12.30542,-2.00943c-2.6002,-3.57836 1.04453,-10.76387 0.95911,-11.3356c-0.153,-1.02415 5.32213,6.66176 10.23814,5.92735c4.91601,-0.73441 7.26577,-5.509 7.26577,-5.509z" fill="#f49285" stroke="none" stroke-width="0"/></g><g><path d="M201.11723,227.19113c0.26315,6.98831 -5.8428,11.22415 -12.73917,11.48382c-6.89637,0.25968 -36.01348,-30.99372 -36.27664,-37.98206c-0.26315,-6.98831 9.3928,-14.35894 16.28916,-14.61863c6.89637,-0.25968 32.46349,34.12854 32.72664,41.11686z" fill="#465e85" stroke="#000000" stroke-width="2.5" stroke-linecap="butt"/><path d="M166.16893,168.55227c-1.04238,14.71664 -13.67511,25.81193 -28.21602,24.78202c-14.54091,-1.02992 -25.48363,-13.79502 -24.44126,-28.51168c1.04238,-14.71664 13.67511,-25.81192 28.21602,-24.78201c14.54091,1.02992 25.48363,13.79502 24.44126,28.51168z" fill="#465e85" stroke="#000000" stroke-width="3" stroke-linecap="butt"/><path d="M166.04194,179.61738c-0.01567,0.22129 -5.57967,5.91544 -10.87964,9.70821c-4.68811,3.35491 -9.18932,4.88891 -9.17456,4.68038c0.01655,-0.23364 -5.47968,0.99179 -5.27222,-0.83357c0.15866,-1.39604 3.24091,-7.07679 4.22605,-8.63856c0.90808,-1.43961 2.55524,-3.34522 4.39726,-4.82736c1.46752,-1.18085 4.19944,-3.1558 7.6062,-4.12046c3.97069,-1.12435 7.82247,-1.46634 8.33257,-1.30647c3.21669,1.00815 0.81144,4.67256 0.76431,5.33782z" fill="#0d1522" stroke="#000000" stroke-width="3" stroke-linecap="butt"/><path d="M132.65621,157.82557c0.45503,1.24167 -0.46791,2.71686 -2.06141,3.29491c-1.5935,0.57805 -3.25414,0.04008 -3.70917,-1.2016c-0.45503,-1.24167 0.4679,-2.71687 2.0614,-3.29492c1.5935,-0.57805 3.25415,-0.04008 3.70918,1.20161z" fill="#6283b8" stroke="none" stroke-width="0" stroke-linecap="butt"/><path d="M125.49639,153.70835c0.73004,1.42062 -0.23529,3.36454 -2.15612,4.34188c-1.92083,0.97734 -4.06978,0.61799 -4.79984,-0.80263c-0.73004,-1.42062 0.23527,-3.36454 2.1561,-4.34188c1.92083,-0.97734 4.06979,-0.61798 4.79986,0.80262z" fill="#6283b8" stroke="none" stroke-width="0" stroke-linecap="butt"/><path d="M121.80884,186.50171c0,0 -5.59262,-4.46735 -7.1013,-7.71334c-1.48338,-3.19159 -1.87615,-11.60219 -1.87615,-11.60219c0,0 13.8572,1.66601 21.3973,1.42886c8.49654,-0.26724 27.05616,-2.95278 27.05616,-2.95278c0,0 1.70699,1.87498 0.45139,3.1812c-3.89132,4.04817 -26.86916,24.3014 -26.86916,24.3014z" fill="#313243" stroke="none" stroke-width="0" stroke-linecap="butt"/><path d="M154.61928,144.60443c0,0 3.74984,7.02901 4.73343,10.59178c1.11175,4.02703 1.59985,12.34862 1.59985,12.34862" fill="none" stroke="#000000" stroke-width="2" stroke-linecap="round"/><path d="M125.75396,144.84722c0,0 8.77022,8.49019 12.15544,13.27689c3.42599,4.84431 8.27963,15.61817 8.27963,15.61817" fill="none" stroke="#000000" stroke-width="2" stroke-linecap="round"/><path d="M141.70944,177.99959c0,0 -8.83422,-5.5501 -12.49311,-10.26148c-3.75322,-4.83286 -9.75047,-18.38044 -9.75047,-18.38044" fill="none" stroke="#000000" stroke-width="2" stroke-linecap="round"/><path d="M139.27666,181.44886c0,0 -7.84584,-2.28829 -11.93107,-5.28138c-4.34666,-3.18461 -13.4134,-13.28734 -13.4134,-13.28734" fill="none" stroke="#000000" stroke-width="2" stroke-linecap="round"/><path d="M136.5653,186.02203c0,0 -7.57261,-0.98394 -11.15906,-2.67671c-3.84016,-1.8125 -11.17287,-7.86366 -11.17287,-7.86366" fill="none" stroke="#000000" stroke-width="2" stroke-linecap="round"/><path d="M130.11961,189.94947c0,0 0.39907,-6.33178 2.66761,-12.04425c1.91994,-4.83469 5.50075,-8.98669 7.99077,-10.94937c1.73113,-1.36454 5.36547,-3.10817 8.39456,-3.63209c6.98117,-1.20749 14.4511,0.21687 14.4511,0.21687" fill="none" stroke="#000000" stroke-width="2" stroke-linecap="round"/><path d="M120.24215,183.341c0,0 0.15877,-4.76444 1.93607,-10.05255c2.20444,-6.55898 6.38041,-14.16557 9.71272,-17.34177c2.49037,-2.37373 7.11338,-4.98442 11.6495,-6.12197c6.64765,-1.66713 13.18575,-1.25886 13.18575,-1.25886" fill="none" stroke="#000000" stroke-width="2" stroke-linecap="round"/><path d="M113.50587,166.09026c0,0 8.44591,-11.1227 15.31786,-16.83227c6.87197,-5.70956 15.12271,-8.45928 15.12271,-8.45928" fill="none" stroke="#000000" stroke-width="2" stroke-linecap="round"/><path d="M165.59602,175.01805c-0.0413,0.58326 -6.88193,-1.48841 -13.79029,2.97359c-7.35899,4.75306 -11.56713,17.96539 -11.52312,17.34408c0.02314,-0.32679 -6.8868,1.44214 -6.6079,-1.11159c0.21329,-1.95308 4.13919,-9.92552 5.3914,-12.11874c1.15426,-2.02166 3.24075,-4.70223 5.56747,-6.79283c1.85369,-1.66558 5.3022,-4.4542 9.58733,-5.83736c4.99445,-1.61209 9.83177,-2.12935 10.47027,-1.91108c4.02652,1.37656 0.97076,6.52347 0.90485,7.4539z" fill="#465e85" stroke="#000000" stroke-width="3" stroke-linecap="butt"/><path d="M133.75068,192.7559c-12.59474,-2.77678 -21.9801,-14.58797 -21.03087,-27.98939c1.04238,-14.71664 14.46694,-25.75585 29.00786,-24.72592c13.64,0.96611 24.03325,13.39623 24.41839,26.93898c0.01379,0.48462 -11.81503,-0.15099 -20.31252,6.98752c-7.18696,6.03758 -11.51646,18.91365 -12.08285,18.78878z" fill="none" stroke="#000000" stroke-width="3" stroke-linecap="butt"/><path d="M137.78285,140.74342c0,0 9.38808,8.65998 11.75738,13.24339c2.46774,4.77388 2.76577,14.85171 2.76577,14.85171" fill="none" stroke="#000000" stroke-width="2" stroke-linecap="round"/><path d="M142.8037,184.05411c0.7153,0.71615 0.5035,2.08742 -0.47308,3.06282c-0.97656,0.9754 -2.34809,1.18557 -3.06338,0.46943c-0.71529,-0.71615 -0.5035,-2.08742 0.47308,-3.06283c0.97657,-0.9754 2.34809,-1.18556 3.06338,-0.46943z" fill="#6283b8" stroke="none" stroke-width="0" stroke-linecap="butt"/><path d="M148.16749,176.4831c1.10036,0.33679 1.03719,1.59058 -0.14104,2.80043c-1.17824,1.20982 -3.02541,1.91757 -4.12574,1.58076c-1.10036,-0.33679 -1.0372,-1.59058 0.14103,-2.80043c1.17824,-1.20982 3.02542,-1.91757 4.12575,-1.58077z" fill="#6283b8" stroke="none" stroke-width="0" stroke-linecap="butt"/><path d="M192.18254,234.18394c0.26095,0.68833 -0.36453,1.56365 -1.39704,1.95505c-1.0325,0.39142 -2.08105,0.15071 -2.34199,-0.53762c-0.26095,-0.68833 0.36453,-1.56365 1.39704,-1.95505c1.0325,-0.39142 2.08105,-0.15071 2.34199,0.53762z" fill="#6283b8" stroke="none" stroke-width="0" stroke-linecap="butt"/></g><g stroke-linecap="butt"><path d="M189.63348,203.42829c0.14685,0.98304 9.4136,-3.37736 12.61597,4.75965c1.7116,4.34907 -4.30961,11.50408 -5.47068,15.53179c-1.6314,5.65933 -18.46739,13.36033 -19.96861,12.68148c-3.20328,-1.44851 -7.5047,-7.76975 -7.5047,-7.76975c0,0 -0.39414,-1.51906 -4.66741,0.65092c-2.03265,1.0322 -2.60855,0.08346 -4.05434,-0.82665c-3.60108,-2.26686 -7.19211,-8.74388 -7.19211,-8.74388c0,0 -3.2972,0.44116 -7.13886,0.37216c-1.83695,-0.03301 -3.84666,0.79946 -5.58936,-0.43145c-4.51907,-3.19195 -3.57336,-10.92294 -4.38298,-16.34249c-0.7033,-4.7077 2.96406,-8.66689 7.66759,-13.56573c7.16631,-7.46386 15.75446,-12.93581 24.32865,-14.21673c3.04942,-0.45555 6.74902,1.52417 9.57848,5.30019c1.32548,1.76891 2.72348,3.05426 3.04918,4.63731c0.71428,3.47179 -1.84383,5.66951 -1.84383,5.66951c0,0 5.59199,1.53061 7.97059,2.68151c2.51111,1.215 2.17939,6.78071 2.6024,9.61221z" fill="#fddfbd" stroke="#000000" stroke-width="2.5"/><path d="M141.1004,205.11771c0.24144,1.6161 2.30147,3.42383 3.07886,5.21796c0.25938,0.59861 3.94223,0.78357 7.59541,-0.79318c8.09082,-3.49208 19.08557,-11.65118 18.59014,-11.57717c-0.02469,0.00369 -7.43774,12.08043 -4.60789,16.67505c1.33342,2.16498 4.61118,3.6438 6.38307,4.79788c2.5818,1.6816 9.26952,-5.5527 9.26952,-5.5527c0,0 -4.77139,7.6535 -1.39983,8.05564c4.69757,0.56032 23.15854,-12.92663 23.15854,-12.92663c0,0 -1.76714,6.74762 -3.95831,12.03693c-1.96049,4.73245 -7.56807,7.478 -10.07329,8.72272c-5.98956,2.9759 -11.7065,2.79502 -11.54932,3.57982c0.15138,0.7558 -2.47189,-0.27666 -4.3984,-2.43325c-2.23194,-2.4985 -3.82924,-6.20142 -3.88154,-5.53073c-0.16275,2.08743 -7.52626,1.44267 -7.7964,1.9861c-1.26023,2.53528 -5.16479,-10.92247 -8.04943,-8.67395c-2.78372,2.16982 -7.52165,-0.34145 -9.82822,0.03639c-4.13811,0.67786 -5.0128,-9.91679 -5.20444,-11.19958c-0.51,-3.41389 0.79903,-13.26363 0.79903,-13.26363c0,0 1.36253,7.42843 1.87253,10.84233z" fill="#f49285" stroke="none" stroke-width="0"/><path d="M179.30184,188.41504c1.36556,-0.20401 0.94408,1.24345 1.14807,2.60901c0.20401,1.36556 -3.17325,3.25458 -4.5388,3.45859c-1.36556,0.20401 -12.49094,9.44927 -12.49094,9.44927c0,0 14.51611,-15.31286 15.88166,-15.51686z" fill="#000000" stroke="none" stroke-width="0"/><path d="M190.14645,203.47806c0.14281,0.9559 2.97833,0.06061 1.68103,0.25441c-1.29728,0.1938 -12.93872,14.06611 -12.93872,14.06611c0,0 9.1945,-15.02339 10.49178,-15.2172c1.29728,-0.1938 0.6231,-0.05921 0.76589,0.89667z" fill="#000000" stroke="none" stroke-width="0"/><path d="M189.80686,202.89684c0.14685,0.98304 8.99297,-2.80897 12.19534,5.32804c0.74172,1.88466 0.23917,11.73393 -4.97423,16.57331c-6.8171,6.32803 -19.37843,10.21997 -20.22909,9.83529c-3.20328,-1.44851 -8.38291,-6.88024 -8.38291,-6.88024c0,0 -0.92403,-0.24015 -2.45307,-0.00342c-1.5415,0.23867 -2.73891,0.55776 -3.46629,0.18046c-3.63339,-1.88474 -8.30063,-9.60252 -8.30063,-9.60252c0,0 -1.94714,0.60719 -5.19635,0.84787c-2.29913,0.17031 -5.33642,0.42239 -7.56882,-1.15443c-4.51907,-3.19195 -4.5219,-11.70342 -3.99929,-17.15813c0.19754,-2.06175 2.72811,-6.86222 7.43166,-11.76106c7.16631,-7.46386 14.72849,-13.03531 23.30269,-14.31623c3.2819,-0.49028 6.71851,2.24914 9.57377,5.97892c0.15373,0.20082 2.36389,3.15014 2.59629,4.27972c0.71428,3.47179 -1.27545,6.09014 -1.27545,6.09014c0,0 6.08649,1.45674 8.46509,2.60763c2.51111,1.215 1.85826,6.32314 2.28127,9.15461z" fill="none" stroke="#000000" stroke-width="2.5"/><path d="M189.80686,202.89684c0.14685,0.98304 8.99297,-2.80897 12.19534,5.32804c0.74172,1.88466 0.23917,11.73393 -4.97423,16.57331c-6.8171,6.32803 -18.50021,9.33044 -19.3509,8.94577c-3.20328,-1.44851 -8.45678,-7.37476 -8.45678,-7.37476c0,0 -1.87612,0.15485 -3.40518,0.3916c-1.5415,0.23867 -2.73891,0.55776 -3.46629,0.18046c-3.63339,-1.88474 -7.80612,-9.6764 -7.80612,-9.6764c0,0 -2.68889,0.71802 -5.93812,0.95867c-2.29913,0.17031 -4.84191,0.34851 -7.0743,-1.22831c-4.51907,-3.19195 -4.62142,-10.67747 -4.09878,-16.13217c0.19754,-2.06175 2.72811,-6.86222 7.43166,-11.76106c7.16631,-7.46386 14.72849,-13.03531 23.30269,-14.31623c3.2819,-0.49028 6.71851,2.24914 9.57377,5.97892c0.15373,0.20082 2.36389,3.15014 2.59629,4.27972c0.71428,3.47179 -1.27545,6.09014 -1.27545,6.09014c0,0 6.08649,1.45674 8.46509,2.60763c2.51111,1.215 1.85826,6.32314 2.28127,9.15461z" fill="none" stroke="#000000" stroke-width="2.5"/></g></g><path d="M286.86158,212.61033c0.71358,-0.83873 2.04241,-1.30425 2.87086,-0.53418c2.64604,2.45959 9.04711,6.94833 12.0029,7.62816c3.33819,0.76779 9.06398,-4.60777 9.06398,-4.60777c0,0 6.06209,5.95932 6.33851,12.42496c0.14168,3.31393 -2.69846,5.87812 -5.32461,8.81462c-3.63256,4.06187 -7.54069,8.1511 -8.73629,9.76742c-1.23021,1.66309 -5.70907,6.59239 -9.04657,6.60237c-1.18597,0.00355 -5.67182,-4.10308 -8.28632,-9.56372c-2.86381,-5.98135 -4.13196,-12.83749 -5.76518,-12.16068c-4.11515,1.70532 -12.16853,3.19836 -15.91571,8.26333c-0.36822,0.49771 -0.44023,4.24866 -0.44023,4.24866c0,0 -4.99074,-0.09146 -7.25509,-0.35981c-1.99322,-0.23622 -6.12166,-1.16624 -6.12166,-1.16624c0,0 -2.07213,-4.42458 -5.06823,-7.12547c-2.65367,-2.3922 -10.64411,-8.49216 -11.25606,-8.01649c-1.10684,0.86034 -2.02065,3.69125 -4.51191,6.89002c-2.1633,2.77767 -6.2537,4.62251 -6.2537,4.62251c0,0 -13.1268,-14.04339 -17.45857,-13.59367c-3.6307,0.37693 -5.65406,0.14275 -8.23922,0.57813c-6.03427,1.01626 -9.30221,1.68221 -9.30221,1.68221c0,0 0.4698,-4.40395 1.31386,-6.87344c1.07102,-3.13353 3.32837,-9.26472 4.59509,-10.41456c0.75294,-0.68347 4.25311,1.42056 7.00523,2.38783c3.36424,1.18242 11.71513,4.19175 11.71513,4.19175c0,0 14.04593,-13.62492 20.6207,-13.62492c12.93628,0 29.20606,5.46061 37.7763,10.50115c7.34582,4.3204 7.9737,7.08218 7.9737,7.08218c0,0 6.05442,-5.70395 7.7053,-7.64435z" fill="#0066cc" stroke="#000000" stroke-width="3.5" stroke-linecap="butt"/><path d="M232.83125,226.57968c0,0 -1.80488,2.82066 -4.05005,5.46243c-2.01157,2.3669 -4.45548,4.59019 -4.97495,4.51257c-1.09446,-0.16352 -3.83768,-2.40147 -5.0632,-4.62109c-0.55741,-1.00955 0.30953,-1.69807 -0.16469,-2.74389c-1.60333,-3.53589 -5.3471,-11.31002 -5.3471,-11.31002l6.725,-8.175c0,0 5.55298,-8.88472 17.6009,-8.70053c12.48608,0.19089 31.60249,9.48049 38.67529,11.22594c2.50715,0.61872 2.1264,9.96369 2.45582,10.38816c0.59366,0.76497 -10.59267,6.85916 -23.69684,7.98905c-8.69805,0.74998 -19.23389,-4.68175 -19.23389,-4.68175z" fill="#0f1b82" stroke="none" stroke-width="0" stroke-linecap="butt"/><path d="M233.83125,227.62968l-4.7,-6.9c0,0 3.60999,2.7342 5.20188,3.99096c1.57459,1.2431 4.09812,3.70904 4.09812,3.70904z" fill="#000000" stroke="none" stroke-width="0" stroke-linecap="butt"/><path d="M314.33125,223.32968l1.64984,5.20247c0,0 -4.77033,6.68823 -9.77761,12.75712c-4.39933,5.33205 -9.58158,9.94041 -11.27223,9.94041c-0.84176,0 -4.41023,-2.60498 -6.52619,-6.32829c-3.44539,-6.06264 -5.68182,-14.42983 -5.68182,-14.42983c0,0 9.65913,11.75812 13.00801,11.75812c5.41239,0 18.6,-18.9 18.6,-18.9z" fill="#0f1b82" stroke="none" stroke-width="0" stroke-linecap="butt"/><path d="M280.57802,215.52553c0,0 -5.97308,3.91667 -30.73444,3.91667c-35.14575,0 -41.11883,-18.58334 -41.11883,-18.58334c0,0 11.7924,-10.68256 24.62126,-17.33343c12.37648,-6.41635 7.11227,-23.62123 18.92619,-23.4999c1.20236,0.01235 37.7002,-14.18812 47.22121,-16.07306c7.7202,-1.52842 0.28291,12.09126 4.76399,18.42103c1.53828,2.1729 -1.20789,8.66483 -0.43452,13.3924c0.82663,5.05321 6.91686,12.78909 6.58504,14.51507c-0.59132,3.07583 -7.04107,5.76705 -12.18708,5.21891c-6.45685,-0.68778 -15.81858,-8.65767 -15.81858,-8.65767c0,0 -1.94928,9.06754 -2.25413,17.1829c-0.24812,6.60523 0.4299,11.50042 0.4299,11.50042z" fill="#feebf7" stroke="#000000" stroke-width="3.5" stroke-linecap="butt"/><path d="M303.1533,167.98383l-62.8682,13.5c0,0 4.24671,-14.79204 8.38598,-17.2423c3.935,-2.32934 52.71484,-18.5077 52.71484,-18.5077c0,0 0.83962,17.50907 1.68605,18.70638c0.91552,1.29503 0.08133,3.54362 0.08133,3.54362z" fill="#cb8ad4" stroke="none" stroke-width="0" stroke-linecap="butt"/><path d="M284.55372,187.02553l-1.76738,2.125l-7.57448,-13.375z" fill="#000000" stroke="none" stroke-width="0" stroke-linecap="butt"/><path d="M281.55859,185.72426c0,0 -0.91813,3.38831 -1.57151,5.28157c-0.75994,2.20201 -1.20956,8.39471 -1.20956,8.39471c0,0 -2.61601,-10.17445 -3.27683,-14.26836c-0.6363,-3.94201 -1.11978,-10.85664 -1.11978,-10.85664z" fill="#d991e5" stroke="none" stroke-width="0" stroke-linecap="butt"/><path d="M248.12681,206.65053c-6.95047,2.17004 -15.7022,-1.08908 -15.7022,-5.75c0,-4.37262 5.43837,-11.23267 12.34392,-12.85967c3.76983,-0.88819 15.39384,-4.90606 20.65739,-0.28232c2.98136,2.61897 -4.48738,14.89198 -17.29911,18.89198z" fill="none" stroke="#ff0c0d" stroke-width="4.5" stroke-linecap="butt"/><path d="M244.73514,188.15053l6.02964,17" fill="none" stroke="#ff0c0d" stroke-width="4.5" stroke-linecap="round"/><path d="M253.37059,258.02549c0,4.87365 -0.80508,7.39012 -6.66667,11.57472c-6.66831,4.76054 -19.67389,-0.37331 -31.25199,3.8003c-42.79169,15.42529 -65.20915,2.98695 -65.20915,2.98695c0,0 -1.6523,-3.7106 -1.6523,-11.02863c0,-5.09699 16.8505,-19.23488 37.68949,-24.78399c1.81753,-0.48398 2.4818,-1.46601 2.4818,-1.46601c0,0 -8.16124,-7.3777 -3.32708,-10.22073c1.04615,-0.61525 15.37928,-5.94882 22.9656,-3.1114c6.77169,2.53274 13.72449,13.89488 13.72449,13.89488c0,0 4.91244,-4.51481 7.04379,-6.69058c1.77136,-1.80828 4.86533,-5.46671 4.86533,-5.46671c0,0 8.27996,3.83113 12.94594,10.89554c4.99138,7.55706 6.39075,18.41716 6.39075,19.61568z" fill="#ff2d32" stroke="#000000" stroke-width="3.5" stroke-linecap="butt"/><path d="M252.27001,260.85881c0,5.72996 -14.80753,16.125 -37.40951,16.125c-22.60198,0 -42.93307,7.10496 -42.93307,1.375c0,-3.33766 -2.3958,-14.22705 7.61802,-20.23299c3.08071,-1.8477 9.65945,-5.91209 16.73906,-9.9499c9.41463,-5.36956 21.08668,-11.94211 21.08668,-11.94211l3.89052,4.83417l-4.22046,3.29598c0,0 4.92676,0.62414 7.78194,0.05969c3.4909,-0.69012 14.84061,-10.66648 18.51341,-7.89004c0.31278,0.23645 2.52204,2.05113 4.43557,6.5471c2.78371,6.54053 4.49781,17.27286 4.49781,17.77811z" fill="#ab164a" stroke="none" stroke-width="0" stroke-linecap="butt"/><path d="M248.25287,275.23384c-2.92337,1.67171 -8.34011,3.51894 -18.32636,4.03428c-5.34572,0.27587 -12.17999,-0.9001 -20.24208,-0.29893c-7.03779,0.52479 -11.429,8.82215 -40.59669,9.41051c-21.01581,0.42392 -27.20508,-9.98005 -27.95829,-12.39585c-0.2217,-0.71105 -0.29361,-2.8705 1.01544,-5.58458c1.33467,-2.76719 3.93776,-5.11609 3.93776,-5.11609c0,0 1.29058,4.81382 3.50925,5.9215c4.57726,2.28523 23.77159,4.6902 34.37449,4.69419c10.66551,0.00401 25.68448,-9.66503 31.89838,-9.91503c8.43341,-0.33929 19.74345,0.73355 27.30362,-1.31062c7.20635,-1.9485 10.86791,-7.02618 10.86791,-7.02618c0,0 3.28445,2.99115 2.43228,6.70679c-1.01772,4.43748 -6.33004,9.8017 -8.21571,10.88001z" fill="#feecf8" stroke="#000000" stroke-width="4.5" stroke-linecap="butt"/><path d="M255.55763,264.23381c0,0 -1.89623,5.17215 -7.23195,8.82115c-1.90274,1.30124 -4.90036,1.69072 -7.48797,2.38725c-14.09875,3.79503 -28.95663,-0.14117 -34.31452,1.86186c-8.92575,3.33686 -7.86208,6.31703 -21.83486,7.61932c-6.43564,0.59981 -12.23505,1.31055 -12.23505,1.31055c0,0 -2.18436,-3.48381 -2.77947,-5.24426c-0.46862,-1.38628 -1.00534,-3.2172 -1.00534,-3.2172c0,0 13.39503,-0.53873 18.7235,-0.53873c4.75976,0 18.56986,-8.13765 26.78481,-10.01482c7.79863,-1.78204 17.76066,-0.41974 24.58367,-0.83825c5.27071,-0.3233 4.36933,-0.64996 7.20976,-1.15663c1.68295,-0.30021 7.35758,-5.80604 7.35758,-5.80604z" fill="#db93e6" stroke="none" stroke-width="0" stroke-linecap="butt"/><path d="M222.24996,238.35885c0,0.29172 3.47963,-0.39877 3.47963,-0.39877c0,0 -1.97181,5.689 -3.63779,6.80511c-2.55007,1.70839 -10.88894,1.39366 -10.88894,1.39366c0,0 4.54536,-1.67928 7.14223,-3.65361c2.72284,-2.07011 3.90487,-4.82483 3.90487,-4.14639z" fill="#000000" stroke="none" stroke-width="0" stroke-linecap="butt"/><path d="M242.98001,237.19773c0.41472,1.21559 -0.2741,2.54773 -1.53849,2.97543c-1.2644,0.42769 -2.62558,-0.21103 -3.04029,-1.42661c-0.41472,-1.21559 0.2741,-2.54773 1.53849,-2.97543c1.2644,-0.42769 2.62558,0.21103 3.04029,1.42661z" fill="#000000" stroke="none" stroke-width="0" stroke-linecap="butt"/><path d="M244.80625,243.92095c0,1.25621 -1.05799,2.27458 -2.36309,2.27458c-1.30509,0 -2.36309,-1.01837 -2.36309,-2.27458c0,-1.25621 1.05799,-2.27457 2.36309,-2.27457c1.30509,0 2.36309,1.01836 2.36309,2.27457z" fill="#000000" stroke="none" stroke-width="0" stroke-linecap="butt"/><path d="M209.41474,248.22975c0,1.013 -0.50335,3.90774 -2.18178,5.19963c-1.1939,0.91894 -4.6476,-0.13342 -4.95424,-0.35941c-1.93354,-1.42492 -3.53042,-3.71057 -5.5568,-4.88673c-4.76818,-2.76758 -9.64494,-1.47965 -9.64494,-6.11856c0,-3.03655 4.6933,-2.24898 10.79242,-2.24898c6.09911,0 11.54536,5.3775 11.54536,8.41405z" fill="#feebf7" stroke="#000000" stroke-width="3" stroke-linecap="butt"/><path d="M207.9416,249.14818c0,1.84034 -0.39306,3.58216 -2.42609,3.58216c-2.03304,0 -6.19122,-4.33197 -6.19122,-4.33197c0,0 3.15415,-4.58191 5.18719,-4.58191c2.03304,0 3.43013,3.49139 3.43013,5.33172z" fill="#dd94e8" stroke="none" stroke-width="0" stroke-linecap="butt"/><path d="M197.98527,257.27115c0,1.4972 -0.58828,2.1047 -1.05935,2.58024c-0.41927,0.42325 -0.58919,0.79391 -2.58027,0.79391c-2.00472,0 -4.2478,-4.68131 -8.16447,-8.06633c-4.34398,-3.75431 -10.03358,-6.81651 -10.03358,-8.30457c0,-1.64327 1.32516,-2.51585 3.2644,-2.9587c0.74926,-0.1711 6.91181,2.7428 11.77951,6.85218c4.22887,3.57008 6.79377,7.78775 6.79377,9.10327z" fill="#feebf7" stroke="#000000" stroke-width="3" stroke-linecap="butt"/><path d="M196.73023,257.14618c0,1.38036 -0.48315,2.24944 -2.00806,2.24944c-1.52491,0 -5.27117,-4.99875 -5.27117,-4.99875c0,0 1.37761,-1.91424 2.02737,-2.34556c0.60157,-0.39933 1.73775,-0.15381 1.73775,-0.15381c0,0 3.5141,3.86832 3.5141,5.24868z" fill="#dd94e8" stroke="none" stroke-width="0" stroke-linecap="butt"/><path d="M188.62096,261.97542c0,1.07477 -2.1173,4.33188 -4.01579,2.99899c-2.03501,-1.42872 -4.25509,-6.07406 -8.05986,-9.22955c-5.23239,-4.33949 -9.96263,-6.67979 -9.79641,-8.11179c0.24518,-2.1122 2.09108,-2.35461 3.12939,-3.28322c1.07366,-0.96021 6.02396,2.37402 10.93748,7.40062c3.69487,3.77989 7.8052,7.61827 7.8052,10.22495z" fill="#feebf7" stroke="#000000" stroke-width="3" stroke-linecap="butt"/><path d="M187.36173,261.47972c0,1.38036 -0.41652,2.24944 -1.73111,2.24944c-1.3146,0 -4.54417,-4.99875 -4.54417,-4.99875c0,0 0.85297,-1.58102 1.41311,-2.01234c0.51859,-0.39933 1.16343,-0.48703 1.16343,-0.48703c0,0 3.69874,3.86832 3.69874,5.24868z" fill="#dd94e8" stroke="none" stroke-width="0" stroke-linecap="butt"/><path d="M345.01204,276.15506c0,6.90125 -28.68232,21.24365 -44.85981,21.24365c-9.60419,0 -26.14019,2.42813 -36.98483,-4.16472c-2.59818,-1.57953 -6.52647,-9.80222 -8.04757,-11.65006c-2.82427,-3.43092 1.39566,-14.4734 1.83379,-15.73299c1.59682,-4.59075 -1.51491,-8.3782 -2.81291,-9.53053c-1.92722,-1.71093 -9.24212,-0.64137 -12.96259,-0.15334c-1.56732,0.20559 -2.25232,-3.07379 -1.73552,-5.53222c0.60732,-2.88907 2.91273,-6.10631 3.51451,-6.43315c0.4215,-0.22893 2.80155,-2.78455 7.26904,-2.77478c3.68121,0.00806 9.59815,3.97344 12.45451,3.39243c1.537,-0.31265 -0.30422,-4.82253 2.0129,-6.57629c4.43773,-3.35879 6.56514,-5.39057 10.64107,-6.50668c3.11952,-0.85422 6.68878,-1.17207 6.81779,-0.57771c0.22764,1.04869 1.1303,7.10317 3.77839,12.05406c2.4639,4.6065 6.86267,8.10958 7.23505,8.16361c2.75355,0.39955 1.05936,0.25385 3.83639,-0.1576c2.17926,-0.32288 10.89164,-9.88737 15.07505,-15.68901c3.64041,-5.0486 9.49887,-8.88318 10.95326,-8.93226c2.16105,-0.07293 7.82564,5.55332 6.21115,9.51305c-0.33542,0.82263 -10.74262,9.40329 -10.36409,9.50671c8.51427,2.32617 17.1522,8.6345 22.14846,15.85533c3.55556,5.13866 3.98596,12.19788 3.98596,14.68251z" fill="#ff2d32" stroke="#000000" stroke-width="3.5" stroke-linecap="butt"/><path d="M341.12285,274.73071c0,5.24539 -33.70504,20.49487 -52.98098,20.49487c-19.27594,0 -29.62917,-9.9975 -29.62917,-9.9975c0,0 16.1285,-20.74473 35.40443,-20.74473c4.63129,0 17.96008,-4.92835 26.61157,-3.55514c4.88208,0.77491 8.9368,9.21236 8.9368,9.21236c0,0 2.3163,-2.18897 3.07416,-4.3198c0.92344,-2.59632 1.81743,-9.88945 1.81743,-9.88945c0,0 2.11516,1.96864 3.32182,2.27389c5.85337,1.48071 3.44394,14.53741 3.44394,16.5255z" fill="#ab164a" stroke="none" stroke-width="0" stroke-linecap="butt"/><path d="M347.6513,274.48079c0,5.93558 -10.80992,19.24518 -37.28756,24.99374c-16.32667,3.54469 -35.97066,2.56163 -45.61668,-0.4261c-19.27709,-5.97085 -17.28254,-19.48856 -17.28254,-21.5684c0,-2.1552 6.30222,-5.24624 6.30222,-5.24624c0,0 0.69968,10.91468 5.26826,13.20446c10.01796,5.02101 30.03259,4.28872 41.28495,4.28872c10.06098,0 28.59367,-6.25507 36.29218,-15.98895c3.44194,-4.35195 2.10636,-16.74846 2.10636,-16.74846c0,0 0.30659,-0.5435 2.13987,-0.31856c8.32498,1.02148 6.79294,16.07399 6.79294,17.80978z" fill="#f9e8f4" stroke="#000000" stroke-width="4" stroke-linecap="butt"/><path d="M287.13455,248.69768l-8.87128,1.33289c0,0 0.79636,-4.88527 0.88003,-7.00905c0.12356,-3.13624 1.7981,-10.65172 1.7981,-10.65172c0,0 1.37996,5.13181 2.50125,9.2423c0.95618,3.50521 3.69189,7.08558 3.69189,7.08558z" fill="#ab164a" stroke="none" stroke-width="0" stroke-linecap="butt"/><path d="M326.30206,230.53707c0,0 2.93151,3.13363 1.42244,5.51472c-1.9734,3.11375 -9.02279,6.84212 -10.96324,7.98078c-0.49814,0.29231 -1.85828,0.51003 -3.11111,1.15471c-2.90935,1.49713 -6.37565,5.49916 -7.98306,5.94249c-3.2238,0.88914 -1.45953,-3.26515 -1.45953,-3.26515c0,0 4.08106,-7.05362 9.67169,-11.67581c5.28037,-4.36566 12.42279,-5.65175 12.42279,-5.65175z" fill="#ab164a" stroke="none" stroke-width="0" stroke-linecap="butt"/><path d="M274.41349,257.19482l-2.67811,0.83306l-8.36913,-13.4955l0.66954,-3.83205z" fill="#000000" stroke="none" stroke-width="0" stroke-linecap="butt"/><path d="M345.14036,263.48354c0,0 1.79928,12.11569 -0.79638,15.88786c-1.59208,2.31369 -8.89043,8.67081 -18.48954,13.20631c-8.04935,3.80325 -18.56387,6.52871 -22.64688,6.89682c-24.95016,2.24944 -39.92406,-2.74931 -39.92406,-2.74931c0,0 20.72778,5.84006 51.86568,-3.8391c7.13621,-2.21828 16.20282,-5.86496 22.37261,-11.7421c5.41079,-5.15415 7.61859,-17.66048 7.61859,-17.66048z" fill="#db93e6" stroke="none" stroke-width="0" stroke-linecap="butt"/><path d="M293.82985,264.19248c0,2.48445 -28.12026,-0.51454 -28.12026,-3.99867c0,-1.25098 4.96992,-5.91216 10.23722,-8.90865c5.19359,-2.95455 10.6856,-4.25362 10.6856,-4.25362l4.28783,5.28695c0,0 2.5761,1.54527 3.91861,1.48954c1.20711,-0.05012 3.10395,-0.80921 3.10395,-0.80921c0,0 2.05817,-3.74668 5.42147,-4.78334c3.0695,-0.9461 8.8448,3.0873 8.18303,4.13187c-1.33824,2.11234 -17.71743,11.58477 -17.71743,11.84514z" fill="#fcecf8" stroke="#000000" stroke-width="2.5" stroke-linecap="butt"/><path d="M289.81268,254.36245c0,0.88438 2.95728,-0.36437 9.04357,-0.24153c2.40085,0.04845 0.75267,-4.83163 6.1316,-4.96823c5.31631,-0.13501 6.00067,6.83029 5.91667,7.20946c-0.48435,2.18656 -16.00582,7.66375 -17.24204,7.66375c-2.49595,0 -12.88846,-13.66211 -12.88846,-13.66211l5.18885,-2.33255c0,0 3.8498,3.38669 3.8498,6.33122z" fill="#db93e6" stroke="none" stroke-width="0" stroke-linecap="butt"/><path d="M317.68572,257.91499c-3.54194,2.06802 -13.86783,3.35447 -22.76353,3.71069c-8.772,0.35126 -18.72831,4.60812 -23.59729,4.97682c-2.00117,0.15154 -2.59363,-0.54022 -2.7403,-1.75448c-0.34209,-2.83213 11.71108,-8.6395 25.34565,-11.18642c6.06266,-1.1325 14.63628,-1.04275 19.22163,0.19548c4.62277,1.24835 5.22979,3.65157 4.53385,4.05791z" fill="#feeffb" stroke="#000000" stroke-width="2.5" stroke-linecap="butt"/><path d="M323.7177,263.57482c-3.75938,2.01797 -15.04265,1.85485 -24.39756,2.39938c-9.9346,0.57828 -20.48719,6.36933 -25.61808,6.66948c-2.10882,0.12336 -2.41493,-2.24244 -2.55117,-3.45864c-0.31775,-2.83665 11.14709,-6.12472 25.53771,-8.47955c6.39884,-1.04708 16.81347,-2.20413 21.62175,-0.90149c4.84752,1.31327 6.14603,3.37431 5.40735,3.77081z" fill="#feeffb" stroke="#000000" stroke-width="2.5" stroke-linecap="butt"/><path d="M262.36194,252.19651c0,0 -3.35906,2.54372 -6.65357,3.08434c-1.46639,0.24063 -2.91999,-1.25162 -4.05891,-1.25162c-3.69771,0 -6.25135,1.93219 -10.04296,0.49983c-2.26308,-0.85492 0,-5.49816 0,-5.49816c0,0 5.2154,-0.75898 7.67975,-0.6285c2.74909,0.14556 13.07567,3.79411 13.07567,3.79411z" fill="#ab164a" stroke="none" stroke-width="0" stroke-linecap="butt"/><path d="M303.53804,254.52906l-3.2016,4.50323l-8.3478,1.32816l-4.8541,-3.83206c0,0 5.4377,-2.10713 9.00247,-2.49523c3.57683,-0.38942 7.40101,0.49589 7.40101,0.49589z" fill="#db93e6" stroke="none" stroke-width="0" stroke-linecap="butt"/><path d="M327.64112,236.36846c0,0.84587 -4.36287,5.43105 -5.62928,8.44163c-0.90869,2.16017 0.90076,4.03481 0.90076,4.03481l-10.18486,-3.06493c0,0 0.7166,-1.48177 3.43272,-2.33931c2.16739,-0.68429 3.4463,-1.39545 3.4463,-1.74066c0,-0.90533 -0.06693,-4.00494 1.7096,-5.13204c2.19588,-1.39316 6.32476,-1.31855 6.32476,-0.19951z" fill="#000000" stroke="none" stroke-width="0" stroke-linecap="butt"/><path d="M85,326.50003v-286h347v286z" fill="none" stroke="none" stroke-width="0" stroke-linecap="butt"/><g stroke-linecap="butt"><path d="M361.06349,156.06271c-3.24591,1.3861 -0.61728,0.9384 -11.87188,-0.29362c-5.20473,-0.56975 -13.08943,-4.59933 -16.98576,-7.23198c-4.52902,-3.06014 -5.79185,-3.71265 -5.43649,-6.95893c0.66108,-6.03906 11.85538,-5.57636 23.10997,-4.34433c6.75195,0.73913 13.00964,1.85657 14.83811,3.39657c1.55818,1.31237 1.13414,6.15765 0.3919,8.93336c-0.74498,2.78595 -0.79994,5.11281 -4.04585,6.49891z" fill="#0066cc" stroke="#000000" stroke-width="5"/><path d="M363.02368,150.40908c0,0 -0.57777,3.68036 -3.13863,4.19247c-1.35703,0.27138 -10.23575,0.03487 -16.12407,-2.54444c-4.53714,-1.98744 -9.76424,-3.88889 -12.27712,-6.0332c-1.6277,-1.38896 -1.45538,-3.58599 -1.45538,-3.58599c0,0 11.29385,3.33477 16.84445,4.84794c5.4078,1.47423 16.15074,3.12322 16.15074,3.12322z" fill="#0f1980" stroke="none" stroke-width="0"/><path d="M187.86913,159.53636c0.43833,-4.00414 4.36611,-4.77007 9.50359,-6.56517c4.67525,-1.63359 8.99871,-1.90224 8.99871,-1.90224c0,0 -2.0755,-8.4102 -2.86585,-12.22451c-0.83175,-4.01415 -2.26557,-11.99025 -2.26557,-11.99025c0,0 27.50412,-15.50965 54.44481,-13.74248c25.03372,1.64206 49.88305,22.61261 52.22584,26.86563c0.20954,0.38039 0.39271,6.71762 -1.3616,11.6995c-1.30435,3.70408 -3.61486,6.06622 -8.1265,7.82132c-14.50049,5.64092 -32.72782,11.51993 -49.66768,13.55738c-10.77491,1.29595 -26.40735,2.56572 -39.41686,-0.61392c-11.94205,-2.91873 -21.95454,-8.46883 -21.46889,-12.90526z" fill="#fddfbd" stroke="#000000" stroke-width="3.5"/><path d="M306.4424,140.82824c0,0 1.13154,8.29214 -2.53975,12.76936c-3.52176,4.29485 -12.48219,6.89302 -12.48219,6.89302l-4.42258,-6.0439l-10.46825,10.02492l-12.53462,-24.24585l-21.00227,12.02583l-3.18878,-19.20883l-33.63926,11.24275l-3.80614,-16.02485c0,0 68.35758,-12.13348 74.85413,-11.42231c6.49656,0.71117 29.2297,23.98986 29.2297,23.98986z" fill="#f99587" stroke="none" stroke-width="0"/><path d="M307.88971,142.22897c-6.8552,-1.44234 -32.87845,-8.1501 -42.40336,-15.30074c-18.37365,-13.79366 -30.48488,-18.11395 -40.80167,-19.24332c-19.58119,-2.14352 -32.17707,5.99761 -31.16541,-3.24397c0.2355,-2.15138 1.37091,-41.32931 3.14471,-43.04705c5.84585,-5.66112 33.38716,-13.01296 67.64891,-9.39402c14.43537,1.52475 34.60449,9.42502 36.22525,10.33304c15.04096,8.4266 28.41729,51.61721 27.55197,59.52194c0,0 1.06868,3.64425 -1.06734,6.42247c-2.30163,2.99362 -6.69326,3.72741 -10.29344,6.47523c-3.91807,2.99046 -7.02854,7.85749 -8.83963,7.47643z" fill="#ff2d32" stroke="#000000" stroke-width="5"/><path d="M247.78198,139.1013c0,0 -1.46409,-4.73624 -1.70696,-7.12725c-0.2538,-2.49868 -0.11587,-7.59233 -0.11587,-7.59233c0,0 -13.81727,2.47686 -20.73619,4.26182c-7.08486,1.82776 -22.68491,7.097 -22.68491,7.097l0.91536,5.02829c0,0 -9.17073,1.8526 -14.00213,3.48939c-5.64632,1.91287 -17.81369,7.28919 -17.81369,7.28919c0,0 2.86844,-10.17331 5.75576,-14.89857c2.86107,-4.68232 11.49016,-13.32531 11.49016,-13.32531c0,0 -3.62541,-0.12039 -5.73022,-0.35081c-10.79709,-1.18196 -21.97327,1.61851 -21.97327,1.61851c0,0 27.74294,-46.92639 38.54005,-45.74445c1.42065,0.15552 8.58898,2.66114 15.74012,6.93833c7.57059,4.52804 14.25486,9.40288 14.25486,9.40288c0,0 0.31421,-4.9161 3.96081,-12.62456c3.02431,-6.39295 10.8315,-11.66638 10.8315,-11.66638c0,0 3.68078,17.05238 6.48085,25.85944c2.95951,9.30859 10.82439,28.5709 10.82439,28.5709c0,0 -6.44076,5.62154 -8.94704,8.03968c-1.79122,1.72824 -5.08356,5.73425 -5.08356,5.73425z" fill="#66ffff" stroke="#000000" stroke-width="3.5"/><path d="M237.29779,109.28338c0,0 0.51874,-10.27862 1.70025,-15.48278c1.41869,-6.2489 4.83325,-18.93538 4.83325,-18.93538c0,0 4.11542,16.90657 6.81146,24.9967c2.98896,8.96913 9.48539,25.01935 9.48539,25.01935c0,0 -4.00026,3.09051 -5.88854,5.00302c-1.912,1.93653 -5.71198,6.52329 -5.71198,6.52329c0,0 -0.74739,-3.8712 -0.95262,-6.12242c-0.22789,-2.50013 -0.18224,-7.93977 -0.18224,-7.93977c0,0 -17.1644,3.20616 -25.08331,5.38999c-6.85441,1.89026 -19.9309,6.01234 -19.9309,6.01234l-0.99807,5.50621c0,0 -5.46692,1.01993 -8.5493,1.95621c-3.56444,1.08271 -11.60203,4.16483 -11.60203,4.16483l32.10967,-33.18146c0,0 -8.84609,0.36536 -13.81106,1.02726c-6.40456,0.8538 -21.40903,3.66802 -21.40903,3.66802c0,0 8.37291,-7.84156 12.64185,-11.52245c4.18395,-3.60759 12.72194,-10.34739 12.72194,-10.34739c0,0 12.32092,4.19358 17.95331,6.56949c5.63935,2.37887 15.86193,7.69494 15.86193,7.69494z" fill="#50a5eb" stroke="none" stroke-width="0"/><path d="M307.6262,143.38079l-2.46753,19.09487c0,0 -9.15131,-9.29295 -12.86514,-12.8909c-2.6553,-2.57248 -7.32772,-6.672 -7.32772,-6.672l-6.88178,10.24318c0,0 -5.32838,-11.29325 -7.781,-15.93899c-2.14274,-4.05882 -6.13099,-10.4132 -6.13099,-10.4132z" fill="#67fcfd" stroke="#000000" stroke-width="3"/><path d="M306.02629,144.21161l-1.63228,14.91092l-19.45061,-17.84298l-6.31527,8.29674l0.80843,-12.74177l-8.82912,-2.26668l-2.97968,-4.8709c0,0 13.84991,4.99016 19.87661,7.24999c5.97113,2.23899 18.52195,7.26469 18.52195,7.26469z" fill="#51a7ee" stroke="none" stroke-width="0"/><path d="M317.30548,133.77773c-3.54982,3.89206 -8.95985,7.99261 -8.95985,7.99261c0,0 -8.80285,-3.67157 -13.51615,-5.36086c-5.12611,-1.83726 -18.16932,-6.32025 -18.16932,-6.32025c0,0 0.82358,-5.4059 2.09696,-12.46117c3.40884,-18.88709 12.15303,-53.32753 21.48611,-52.30587c1.03731,0.11355 1.88437,-0.31891 1.88437,-0.31891c0,0 6.3585,6.50104 12.22653,17.51623c6.68086,12.54095 13.19521,31.29394 12.87464,37.8755c-0.01144,0.23504 0.46008,4.53078 -0.04241,5.51966c0,0 -6.53325,4.19268 -9.88089,7.86306z" fill="#ab164a" stroke="#000000" stroke-width="2.5"/><path d="M329.77167,127.61759c2.12783,3.42829 0.24815,16.19076 -4.38356,26.74634c-2.95989,6.74554 -5.47372,10.85126 -8.40374,10.53052c-5.3412,-0.58469 -9.5704,-8.16309 -9.5704,-8.16309l1.13582,-13.43797c0,0 18.42137,-20.18788 21.22187,-15.6758z" fill="#fddfbd" stroke="#000000" stroke-width="4.5"/><path d="M318.09425,152.46672l4.80068,2.47465c0,0 -1.07307,2.489 -1.85031,3.8919c-0.73354,1.324 -2.10615,4.73469 -3.93093,4.16664c-1.8248,-0.56806 -8.50088,-4.24744 -8.17067,-7.2639c0.08713,-0.79589 0.37967,-2.82217 0.45948,-4.47018c0.11226,-2.31804 0.12692,-4.59523 1.1155,-5.40948c0.97237,-0.80089 0.27234,1.0373 0.27234,1.0373l9.27426,-4.70094z" fill="#fa9789" stroke="none" stroke-width="0"/><path d="M315.86721,156.74518c-0.65902,0.36812 -5.80124,-8.30953 -5.76552,-9.29888c0.04444,-1.23085 8.46075,-6.32128 9.13397,-5.4067c0.76937,1.04518 -2.19481,14.05001 -3.36846,14.70557z" fill="none" stroke="#000000" stroke-width="2"/><path d="M225.93256,150.13529c-1.18645,-0.4925 -2.8417,-2.3236 -3.86959,-6.50359c-1.80177,-7.32709 -1.29752,-17.23789 -1.29752,-17.23789c0,0 8.41401,4.49696 10.30765,11.7637c0.08428,0.32344 0.96341,4.55668 1.42394,8.19167c0.18655,1.47244 -0.28111,3.42751 -1.89937,4.24949c-1.0827,0.54995 -4.50902,-0.39856 -4.66512,-0.46336z" fill="#000000" stroke="none" stroke-width="0"/><path d="M268.31575,140.41412c-1.24634,0.59713 -5.89943,6.49645 -9.86118,7.49293c-3.6683,0.92267 -7.69632,2.02375 -8.02669,0.74867c-0.49984,-1.92923 -0.05074,-4.68867 0.16733,-6.68073c0.2301,-2.10196 0.98331,-4.84719 0.98331,-4.84719l11.71683,-10.34094c0,0 -0.68612,7.81826 -1.57455,15.93424c0,0 7.82022,-2.89402 6.59495,-2.30698z" fill="#000000" stroke="none" stroke-width="0"/><path d="M303.6922,94.82384c0,0 -21.63979,17.7682 -32.36513,26.86425c-10.32172,8.75374 -30.82254,26.72457 -30.82254,26.72457c0,0 -15.21807,-12.81831 -21.34097,-21.53299c-6.24895,-8.8941 -16.11348,-31.34056 -16.11348,-31.34056c0,0 11.94213,20.88507 18.59476,29.33817c5.91436,7.51502 19.6986,18.93422 19.6986,18.93422c0,0 15.30582,-13.49071 24.05858,-21.59029c20.62433,-19.08522 38.29021,-27.39739 38.29021,-27.39739z" fill="#000000" stroke="none" stroke-width="0"/><path d="M276.86179,150.08264l9.07569,8.27467c0,0 -16.25523,3.36816 -23.68381,4.25432c-20.34506,2.42696 -27.59988,7.98595 -27.59988,7.98595c0,0 14.42651,-11.51034 22.06692,-14.17433c6.76711,-2.3595 20.14108,-6.3406 20.14108,-6.3406z" fill="#000000" stroke="none" stroke-width="0"/><path d="M280.26487,157.42193c0,0 -6.1288,0.79523 -9.81923,1.27408c-4.76913,0.61881 -17.39838,3.46108 -17.39838,3.46108c0,0 6.18981,-3.07856 9.60341,-4.51515c3.6291,-1.52729 13.23095,-4.39314 13.23095,-4.39314z" fill="#ffffff" stroke="none" stroke-width="0"/></g><path d="M305.32602,122.72529c0,4.60237 0.42809,9 -2.33334,9c-2.76142,0 -5.66666,-0.73096 -5.66666,-8.33333c0,-4.60237 0.23858,-15.33333 3,-15.33333c0.62115,0 1.48042,3.90667 2.68444,7.55066c0.91802,2.77839 2.31556,5.12498 2.31556,7.11601z" fill="url(#color-1)" stroke="url(#color-2)" stroke-width="1" stroke-linecap="butt"/><path d="M216.57309,162.14275c0.54548,2.79952 1.3271,5.42377 -0.35262,5.75106c-1.67971,0.32729 -3.53354,0.227 -4.4346,-4.39736c-0.54548,-2.79952 -1.67222,-9.35522 0.00749,-9.68251c0.37783,-0.07362 1.36354,2.20088 2.52781,4.27474c0.88771,1.58123 2.01593,2.84297 2.25191,4.05407z" fill="url(#color-3)" stroke="url(#color-4)" stroke-width="1" stroke-linecap="butt"/><path d="M253.65571,254.52907c0,0.70149 7.78363,-0.08349 6.01387,0.28576c-1.71243,0.35728 -1.89736,3.54629 -3.24902,3.54629c-1.14943,0 -1.67221,-1.48672 -4.4652,-2.15442c-3.88575,-0.92892 -10.09632,-1.20782 -10.09632,-2.01086c0,-1.38025 3.70275,-3.49883 6.45132,-3.49883c2.74857,0 5.34537,2.45181 5.34537,3.83206z" fill="#000000" stroke="none" stroke-width="0" stroke-linecap="butt"/></g></g></svg>