<svg version="1.1" xmlns="http://www.w3.org/2000/svg" xmlns:xlink="http://www.w3.org/1999/xlink" width="549.54955" height="400.9009" viewBox="0,0,549.54955,400.9009"><g transform="translate(34.77477,20.45045)"><g data-paper-data="{&quot;isPaintingLayer&quot;:true}" fill-rule="nonzero" stroke-linejoin="miter" stroke-miterlimit="10" stroke-dasharray="" stroke-dashoffset="0" style="mix-blend-mode: normal"><g><g stroke-width="5"><path d="M226.02281,132.34803c0.1317,0.09842 3.47028,5.9701 3.47987,6.13971c0.43109,7.63752 -10.59134,25.82681 -13.766,33.13248c-1.84533,4.24659 -2.68758,14.50764 -4.01931,19.78676c-1.19959,4.75535 -0.63742,20.63403 -5.22438,21.24386c-1.06009,0.14094 -1.95541,0.04619 -2.70968,-0.23478c-2.25158,3.42534 -8.54326,1.79344 -10.63631,-1.89945c-1.79918,-1.07337 -2.07107,-3.4582 -2.34178,-6.19158c-0.21367,-2.15722 0.29204,-4.19301 1.27295,-5.70146c0.83123,-6.44076 -0.48447,-11.59849 0.54255,-19.10853c1.30242,-9.524 8.5066,-21.3301 13.69805,-27.28728c1.40004,-1.60654 2.64577,-4.64133 4.23977,-6.87359c0.37861,-2.51486 1.7422,-4.59376 3.60872,-5.43512c3.16395,-5.39039 7.75251,-10.63739 11.85558,-7.571z" fill="#590909" stroke="none" stroke-linecap="butt"/><path d="M209.61466,211.3356c1.72253,2.705 -0.23983,4.92191 -0.23983,4.92191l-1.60352,1.49794c-4.59887,2.04587 -10.16047,-1.02987 -14.80097,0.88616c0,0 -2.47037,1.01999 -3.316,-2.32531c-0.84563,-3.34532 1.62476,-4.36531 1.62476,-4.36531c4.60183,-1.90005 10.12911,1.19125 14.69626,-0.84127l-0.04554,-0.26216c0,0 1.96231,-2.21692 3.68484,0.48809z" fill="#000000" stroke="none" stroke-linecap="butt"/><g fill="none" stroke="#000000" stroke-linecap="round"><path d="M191.40576,216.49975c0,0 -0.16326,-17.98894 0.26819,-25.83319c0.39343,-7.15341 2.217,-19.35119 2.217,-19.35119c0,0 4.54744,-8.65516 9.87903,-16.67755c0.43019,-0.64735 8.36491,-10.77408 9.77677,-12.8985c0.52138,-0.78455 1.60392,-2.49798 3.35867,-3.95944c3.97648,-3.31189 9.90429,-6.93473 9.90429,-6.93473"/><path d="M212.04822,177.98946c0,0 -0.12909,7.31037 -0.72396,11.35588c-0.88457,6.01561 -2.82762,26.82558 -2.82762,26.82558"/><path d="M222.63857,156.69232c-1.3375,1.36748 -1.51859,10.39939 -3.03452,12.55496c-3.63126,5.16348 -7.48498,7.16254 -7.48498,7.16254"/></g><path d="M226.7796,128.64537c2.18215,-1.64884 3.60529,0.87937 3.60529,0.87937l1.45998,3.83077c-0.78494,8.43517 -2.64082,17.62683 -6.80568,24.65872c0,0 -1.48084,2.48338 -3.62427,0.76767c-2.14343,-1.71568 -0.66258,-4.19905 -0.66258,-4.19905c3.67275,-6.11102 5.26733,-14.49791 5.91045,-21.85654l-0.64223,0.09612c0,0 -1.42316,-2.52825 0.75899,-4.17708z" fill="#000000" stroke="none" stroke-linecap="butt"/></g><g stroke="#000000" stroke-linecap="butt"><path d="M201.48536,236.16665c-8.5016,0 -14.64143,-4.38392 -14.64143,-13.19357c0,-8.80963 6.89193,-15.95127 15.39353,-15.95127c8.50162,0 15.39355,7.14162 15.39355,15.95127c0,8.80965 -7.64405,13.19357 -16.14565,13.19357z" fill="#ffffff" stroke-width="5"/><path d="M189.90585,219.36121c0.39475,-2.38413 3.8381,-7.91895 5.89442,-7.91895c0.14916,0 0.78043,-0.71032 2.30293,-1.25647c1.79398,-0.64355 4.17329,-0.69175 4.33581,-0.64271c0.17157,0.05177 0.67178,0.22793 0.77248,0.1293c1.21128,-1.18643 -3.01234,4.67848 -4.03333,6.53083c-0.4683,0.84961 -1.48387,2.81543 -2.20776,7.47535c-0.34232,2.20356 1.107,7.39947 1.64677,9.02268c0.06564,0.1974 0.44859,0.68001 0.26333,0.76167c-1.2019,0.5298 -4.43699,-1.10969 -6.4772,-2.51563c-0.9103,-0.6273 -2.21929,-2.52546 -2.80267,-4.79807c-0.36169,-1.40899 -0.23184,-3.14416 -0.19795,-4.25865c0.03878,-1.27532 0.38457,-1.813 0.50318,-2.52936z" fill="#c5c5c5" stroke-width="0"/></g></g><g><path d="M268.0263,309.82954l0.35091,0.68456c1.25923,-0.20513 1.38445,-2.12799 2.35055,-2.9391c1.33999,-1.12504 3.16798,-1.62219 4.89344,-2.00969c0.72617,-0.16308 1.47595,-0.30775 2.23339,-0.40955l-0.12203,-0.13042c1.4414,-0.58447 10.39929,-6.17845 11.55471,0.2939c0.94293,0.06592 1.90359,0.14327 2.83087,0.26294c1.52654,1.44797 2.98189,2.95605 4.40148,4.01524c0,0 2.14502,1.60801 0.49259,3.69214c-1.65242,2.08415 -3.79739,0.47612 -3.79739,0.47612c-1.18968,-0.89561 -2.45659,-2.24315 -3.77677,-3.55494c-1.12437,-0.12728 -2.42499,-0.11639 -3.75268,-0.15979c-0.48102,0.19756 -0.95015,0.38228 -1.36592,0.56524c-2.06453,0.90837 -7.94304,-1.4327 -9.56469,0.48168c-0.59418,0.70145 0.00156,2.00867 -0.66074,2.64983c-0.99667,0.9649 -2.55878,1.13705 -3.83814,1.70556l-3.85242,-0.60211c0,0 -2.58321,-0.79076 -1.77179,-3.30154c0.5297,-1.63905 1.81448,-1.87114 2.64274,-1.83473c-1.28044,-6.35591 7.97898,-6.1862 11.82443,-7.14638c2.67615,-0.66822 3.77322,-2.03647 6.90513,-1.13619c2.19475,0.6309 4.20987,2.34359 6.11418,4.1499c4.40521,0.56853 8.05678,2.09228 5.47105,7.88275c-0.67251,1.506 -2.1543,2.52853 -3.23144,3.79278c-4.43682,-1.21152 -8.48745,-3.04729 -13.07383,-3.54647c-2.29956,-0.25029 -7.56728,0.93192 -9.25178,0.471c-1.72417,-0.47176 -3.7191,-1.44379 -4.34449,-3.07564c-0.19002,-0.49581 -0.32607,-0.95891 -0.41327,-1.39178c0.44051,0.01938 0.75193,0.11467 0.75193,0.11467zM277.41929,308.09808c-0.10679,0.01552 -0.21904,0.02672 -0.33562,0.03462c0.63189,0.01369 1.26574,0.06375 1.8958,0.09192c0.60239,0.02695 1.21851,0.05941 1.84246,0.10239l-0.89037,-0.9515c-1.04163,0.3345 -1.98418,0.64585 -2.51232,0.72259zM272.70946,309.13995c-0.19968,0.96595 1.87662,-0.81332 2.88133,-0.94251c0.19178,-0.02466 0.38422,-0.04157 0.57705,-0.05239c-1.50223,-0.02965 -3.21444,-0.18523 -3.45841,0.99489zM292.7632,312.22523c-0.40602,-1.26867 -1.53782,-1.76618 -3.02058,-1.97582c1.1014,0.51255 2.12315,1.15855 3.02058,1.97582zM289.26153,310.03598c-0.40184,-0.39664 -0.80856,-0.788 -1.21937,-1.16049c-0.24176,0.1646 -0.50493,0.31774 -0.7804,0.46184c0.68511,0.1954 1.35451,0.42591 1.99975,0.69864z" data-paper-data="{&quot;index&quot;:null}" fill="#3c2700" stroke="none" stroke-width="5" stroke-linecap="butt"/><path d="M242.86959,309.5284c-0.09864,0.43036 -0.24696,0.88974 -0.45005,1.38033c-0.66845,1.61467 -2.68851,2.53342 -4.42458,2.95925c-1.69614,0.41604 -6.93063,-0.90555 -9.23603,-0.71638c-4.59803,0.37729 -8.69593,2.10493 -13.16333,3.19827c-1.04322,-1.2924 -2.49735,-2.3539 -3.12964,-3.87723c-2.43114,-5.85705 1.25957,-7.28334 5.67833,-7.73476c1.95158,-1.75513 4.01146,-3.41375 6.22215,-3.98618c3.1547,-0.81685 4.21505,0.58006 6.87253,1.31906c3.81862,1.06187 13.07929,1.13797 11.63059,7.45765c0.82894,-0.01441 2.10708,0.25169 2.59312,1.9042c0.74452,2.53144 -1.85878,3.25335 -1.85878,3.25335l-3.86704,0.49966c-1.26387,-0.60226 -2.82083,-0.81575 -3.79153,-1.80676c-0.64507,-0.65851 -0.01485,-1.9495 -0.5902,-2.66647c-1.57029,-1.95673 -7.50885,0.22752 -9.54854,-0.73533c-0.41078,-0.19389 -0.87487,-0.39105 -1.35044,-0.60129c-1.32837,0.00815 -2.62825,-0.03725 -3.75559,0.06014c-1.35452,1.27632 -2.65674,2.58974 -3.86975,3.45344c0,0 -2.18691,1.55054 -3.78343,-0.57674c-1.59652,-2.12726 0.59041,-3.67778 0.59041,-3.67778c1.44723,-1.02114 2.94206,-2.49012 4.50648,-3.89704c0.93013,-0.09504 1.89252,-0.14684 2.83684,-0.1877c1.32677,-6.43941 10.13309,-0.60968 11.55844,0.01284l-0.12543,0.12712c0.75446,0.12187 1.50011,0.28638 2.22171,0.46868c1.71457,0.43314 3.52871,0.97861 4.83839,2.13882c0.94422,0.83646 1.01836,2.76197 2.2717,3.00044l0.36897,-0.675c0,0 0.31382,-0.08704 0.75469,-0.0947zM230.27889,306.85395l-0.91526,0.92755c0.62488,-0.02641 1.24165,-0.04248 1.84454,-0.05343c0.63061,-0.01146 1.26555,-0.04468 1.89757,-0.04159c-0.11631,-0.01097 -0.22819,-0.02517 -0.33454,-0.04351c-0.52593,-0.09072 -1.45992,-0.42696 -2.49231,-0.78901zM234.02092,307.72315c0.1925,0.01592 0.38439,0.03791 0.57546,0.06767c1.00097,0.1558 3.02929,1.98953 2.8553,1.01863c-0.21252,-1.1862 -1.92829,-1.07608 -3.43076,-1.0863zM220.39503,309.46646c-1.48779,0.17022 -2.63235,0.63752 -3.07191,1.89498c0.91879,-0.79318 1.95729,-1.41185 3.07191,-1.89498zM222.89923,308.62057c-0.27154,-0.15139 -0.53051,-0.31144 -0.76784,-0.48239c-0.42055,0.36143 -0.83747,0.74184 -1.24974,1.1277c0.65223,-0.25551 1.32753,-0.46814 2.01756,-0.64531z" fill="#3c2700" stroke="none" stroke-width="5" stroke-linecap="butt"/><path d="M248.04267,271.82023c-0.14413,1.78947 -0.54987,3.52174 -1.06933,5.22502c-1.16908,6.07221 0.77528,11.8032 -1.31125,17.34029c1.83115,2.58666 3.79308,5.69761 2.07676,10.82506c-0.07297,0.21805 -0.14959,0.43072 -0.22967,0.63819c0.04837,0.42697 0.07045,0.86149 0.06459,1.30196c-0.02414,1.81892 0.54241,4.32126 -0.31253,5.80304c-0.97995,1.6984 -3.12947,-4.07086 -8.68028,-7.96894c-5.08802,-3.57308 -13.65503,-5.2351 -13.65788,-5.30066c-0.40018,-9.17395 -1.60127,-17.88394 0.86666,-26.29893c0.12601,-1.34551 0.19834,-2.62294 0.19191,-3.81416c-0.04199,-7.78 -2.24898,-23.6361 -0.69958,-35.65469c0.63261,-4.90717 -0.39049,-10.10804 2.33955,-12.81115c1.83233,-1.81424 6.35392,-2.05606 10.46698,-2.00147c8.11778,0.10773 19.56518,2.88916 27.67268,3.30504c2.43638,0.12497 5.79526,1.83195 8.03856,2.76587c3.34547,1.39277 7.73485,-1.8334 10.27413,0.70164c1.59881,1.59614 -1.46601,6.33467 -1.46856,9.77275c-0.00263,3.51394 1.14337,6.75652 0.95186,9.23158c-1.16991,15.11951 1.57884,27.80718 1.05028,42.80668c-0.11774,3.34084 -1.57966,6.32934 -1.41214,9.74159c0.05589,1.13857 -15.7065,14.36583 -21.90696,12.78823c-1.24808,-0.31754 -1.70145,-2.55572 -2.00901,-4.15828c-0.22752,-1.18543 1.30202,-3.50963 1.8703,-4.39778c0.5856,-0.91524 -1.80053,-5.94394 -1.78653,-6.99867c0.10093,-7.60555 -1.23428,-20.60294 1.19709,-27.84865c0.44712,-1.33256 -3.10656,-8.16668 -3.19517,-9.83603c-0.22613,-4.25934 0.80577,-7.7668 0.58752,-12.04827c-0.07531,-1.47743 1.43133,-4.2951 -0.08329,-4.4369c-1.91281,-0.1791 -3.76675,-5.20882 -5.68923,-5.22619c-1.51375,-0.01369 -3.09502,4.9651 -4.61003,4.98812c-0.2327,2.80581 -0.7949,5.63714 -1.17177,8.29165c0.17728,0.73521 0.29069,1.47728 0.28073,2.22678c-0.04883,3.67908 0.40675,7.92324 0.72337,12.19987c0.49159,2.94322 0.87783,5.89785 0.64027,8.84735z" fill="#001525" stroke="none" stroke-width="5" stroke-linecap="butt"/><path d="M248.32768,234.80771c-0.71107,1.24437 -1.65821,2.0266 -2.75693,2.48695c-3.58199,1.50082 -8.77503,-0.41942 -12.65144,-0.90008c-2.69257,-0.33387 -5.47104,0.85203 -7.19882,-1.64286c-1.10179,-1.59097 -1.37501,-4.87928 -0.45273,-6.74483c-0.01827,-0.12192 -0.02775,-0.24671 -0.02775,-0.37372c0,-1.22776 0.88503,-2.24881 2.05193,-2.45996c0.09689,-0.03131 0.19936,-0.05051 0.30832,-0.05561c2.4629,-0.11532 6.64754,1.41738 9.02601,2.07648c6.81091,1.88737 14.34103,2.48758 21.37725,2.63515c0.86663,0.01818 2.13702,-0.0033 3.39264,0.1398c0.24575,-0.17876 0.57337,-0.31387 1.03203,-0.40284c2.88039,-0.55877 7.33388,-0.12783 9.12476,-0.12829c2.86928,-0.00074 6.83237,-2.711 9.13857,-0.32166c2.08155,2.1566 2.73683,9.01037 -1.02866,9.88942c-2.6932,0.62873 -5.5945,0.02309 -8.21164,0.65008c-2.40699,0.57665 -10.47486,3.89464 -12.3196,0.95669c-1.62811,-2.59293 1.78565,-4.21012 2.94179,-5.27552c-1.28903,0.093 -2.58941,-0.04621 -3.24131,-0.19098c-3.66643,-0.81421 -7.44672,-1.24159 -11.24965,-1.64238z" fill="#000a12" stroke="none" stroke-width="0.5" stroke-linecap="butt"/><path d="M239.92404,305.55901c1.55789,0.8195 5.84796,3.75252 5.41684,5.90812c-0.46225,2.31125 -1.32897,2.88906 -3.64022,2.42681c-1.56656,-0.31331 -2.15357,-2.36684 -3.3358,-3.44136c-1.85957,-1.69015 -5.21186,-2.91409 -7.46952,-4.04914c-1.14159,-0.57394 -5.34377,-0.66848 -7.58275,-1.15612c-0.19552,-0.02652 -4.03635,-0.72788 -4.21479,-0.7969c-0.93521,-0.3617 2.05401,-0.61743 2.05401,-1.68029c0,-1.38071 1.11929,-2.5 2.5,-2.5c0.30748,0 0.60198,0.05551 0.87405,0.15705c4.74121,-1.26279 11.19777,2.92228 15.39817,5.13182z" fill="#1c1200" stroke="none" stroke-width="0.5" stroke-linecap="butt"/><path d="M284.29249,300.02465c0.28351,-0.12806 0.59539,-0.21249 0.92631,-0.24294c1.48598,-0.13673 2.79316,0.86702 2.91967,2.24192c0.09738,1.05839 4.42369,2.94132 3.45031,3.39411c-0.18572,0.08639 -5.34087,-0.75916 -5.54886,-0.71338c-2.365,0.70731 -6.87892,1.21757 -8.05496,1.90215c-2.3258,1.35384 -5.82154,2.90461 -7.66803,4.77179c-1.17392,1.18708 -1.61753,3.29009 -3.27483,3.75722c-2.44511,0.68918 -3.43086,0.19963 -4.14012,-2.05613c-0.6615,-2.10384 3.68693,-5.44935 5.28852,-6.41967c4.31822,-2.6162 10.8836,-7.42304 16.102,-6.63506z" data-paper-data="{&quot;index&quot;:null}" fill="#1c1200" stroke="none" stroke-width="0.5" stroke-linecap="butt"/><g fill="none" stroke="#000000" stroke-width="5" stroke-linecap="round"><path d="M266.2415,234.53289l-4.53969,1.29651l-15.28591,-0.5746l1.45513,63.20882l0.81781,16.54593l-37.68157,0.08135l0.69654,-9.0927l13.16344,-6.37547l0.65699,-79.36381"/><path d="M282.13951,224.75188l0.99811,74.10304l12.62957,7.71465l-0.10312,9.26454l-35.91483,-0.0963l0.12089,-18.24596c0,0 -0.66301,-55.86874 -0.71772,-60.47875c-0.00705,-0.59515 1.37822,-0.60187 1.37822,-0.60187"/><path d="M225.17779,218.93781l56.38088,4.90553"/></g><path d="M246.4448,315.30494c-2.4372,1.14499 -3.61677,-1.22533 -3.61677,-1.22533l-0.60439,-1.38319c-1.19867,-6.10066 -11.02786,-9.5191 -16.67525,-10.24862c0,0 -2.67908,-0.3835 -2.28661,-2.98779c0.39245,-2.60429 3.07152,-2.22078 3.07152,-2.22078c8.3364,1.28051 19.10273,5.73327 21.18229,14.34347l0.18692,0.20695c0,0 1.17957,2.37032 -1.25768,3.51529z" fill="#000000" stroke="none" stroke-width="5" stroke-linecap="butt"/><path d="M282.00795,296.94802c2.30365,1.38502 0.88072,3.62355 0.88072,3.62355l2.57899,0.10691c-8.62203,3.0731 -18.56627,7.43896 -23.00113,15.83381c0,0 -1.24205,2.33818 -3.64804,1.12892c-2.406,-1.20926 -1.16394,-3.54742 -1.16394,-3.54742c5.11799,-9.58691 22.04976,-18.53077 24.35341,-17.14573z" fill="#000000" stroke="none" stroke-width="5" stroke-linecap="butt"/></g><g><path d="M326.94142,221.6083c-3.03902,4.23956 -8.54417,3.9238 -12.69477,0.9008c-4.15062,-3.02301 -6.28229,-30.56428 -3.24325,-34.80384c3.03902,-4.23956 12.05192,-4.1363 16.20254,-1.11329c4.15062,3.02301 2.77452,30.77677 -0.26451,35.01633z" fill="#0d1522" stroke="#000000" stroke-width="2.5" stroke-linecap="butt"/><path d="M334.13748,185.09947c-7.33328,8.19279 -19.7883,8.91364 -27.81909,1.61003c-8.03078,-7.30359 -8.59625,-19.86589 -1.26297,-28.05869c7.33328,-8.19279 19.78829,-8.91363 27.81908,-1.61003c8.03078,7.30359 8.59625,19.86589 1.26298,28.05869z" fill="#465e85" stroke="#000000" stroke-width="3" stroke-linecap="butt"/><path d="M329.00766,191.56193c-0.11027,0.1232 -5.96485,0.91643 -10.79634,0.71076c-4.27371,-0.18193 -7.60622,-1.35088 -7.50232,-1.46697c0.11642,-0.13007 -3.65683,-1.93912 -2.70157,-2.9193c0.73059,-0.74964 5.12811,-2.67794 6.41762,-3.14463c1.18865,-0.43017 3.02231,-0.79462 4.77642,-0.81976c1.3975,-0.02004 3.89705,0.07421 6.32955,1.07466c2.83517,1.16605 5.24338,2.7384 5.46856,3.06753c1.42001,2.07554 -1.66044,3.12735 -1.99193,3.4977z" fill="#0d1522" stroke="#000000" stroke-width="3" stroke-linecap="butt"/><path d="M300.0014,175.24798c0,0 -1.22866,-5.20833 -0.62765,-7.81605c0.59094,-2.56403 4.204,-7.70147 4.204,-7.70147c0,0 7.34044,7.36358 11.85711,10.69634c5.08961,3.7555 17.16748,10.72026 17.16748,10.72026c0,0 0.14134,1.89109 -1.18955,2.08263c-4.12462,0.59357 -26.81206,1.94707 -26.81206,1.94707z" fill="#313243" stroke="none" stroke-width="0" stroke-linecap="butt"/><path d="M338.32646,165.66744c0,0 -1.01913,5.86929 -2.07186,8.4219c-1.18991,2.88522 -4.70659,8.0141 -4.70659,8.0141" fill="none" stroke="#000000" stroke-width="2" stroke-linecap="round"/><path d="M321.33934,152.51694c0,0 1.24844,9.04249 1.04063,13.4224c-0.21031,4.43265 -2.29507,13.01721 -2.29507,13.01721" fill="none" stroke="#000000" stroke-width="2" stroke-linecap="round"/><path d="M315.52081,179.40249c0,0 -2.62915,-7.3393 -2.61575,-11.80086c0.01374,-4.57662 2.69717,-15.32246 2.69717,-15.32246" fill="none" stroke="#000000" stroke-width="2" stroke-linecap="round"/><path d="M312.52257,180.31483c0,0 -3.54156,-4.96186 -4.5625,-8.60715c-1.08627,-3.87857 -1.77134,-14.00789 -1.77134,-14.00789" fill="none" stroke="#000000" stroke-width="2" stroke-linecap="round"/><path d="M308.84799,181.76121c0,0 -3.97777,-4.06733 -5.3012,-6.71661c-1.41704,-2.83668 -2.93943,-9.77976 -2.93943,-9.77976" fill="none" stroke="#000000" stroke-width="2" stroke-linecap="round"/><path d="M303.28508,181.10726c0,0 3.12622,-3.54768 7.06248,-5.86942c3.3314,-1.96498 7.32191,-2.76274 9.67444,-2.77265c1.63554,-0.0069 4.55701,0.63929 6.56734,1.72553c4.63323,2.50349 8.34975,6.7831 8.34975,6.7831" fill="none" stroke="#000000" stroke-width="2" stroke-linecap="round"/><path d="M300.52952,172.66379c0,0 2.26963,-2.73467 5.7248,-5.03254c4.28554,-2.85013 10.20237,-5.40965 13.60178,-5.74681c2.54053,-0.25198 6.43615,0.33856 9.60793,1.75722c4.64823,2.07901 8.28421,5.33067 8.28421,5.33067" fill="none" stroke="#000000" stroke-width="2" stroke-linecap="round"/><path d="M330.84835,188.64608c-0.29063,0.3247 -3.34348,-4.04654 -9.42109,-4.59856c-6.47406,-0.58801 -14.97089,5.2603 -14.6613,4.91442c0.16284,-0.18192 -4.68527,-2.32176 -3.35545,-3.69827c1.01704,-1.05276 6.95483,-3.94307 8.68899,-4.65889c1.5985,-0.65983 4.04309,-1.27863 6.35859,-1.43912c1.84474,-0.12787 5.13501,-0.1831 8.27226,0.97525c3.65656,1.3501 6.72102,3.27303 6.9946,3.69571c1.72517,2.6656 -2.41294,4.2915 -2.87657,4.80947z" fill="#465e85" stroke="#000000" stroke-width="3" stroke-linecap="butt"/><path d="M304.12577,184.43339c-6.09485,-7.43678 -6.18561,-18.71968 0.4923,-26.18028c7.33328,-8.19279 20.22562,-8.5159 28.25642,-1.2123c7.53323,6.85109 7.93048,18.96293 1.96813,27.12133c-0.21335,0.29195 -6.83868,-5.53025 -15.06824,-5.23678c-6.96035,0.24821 -15.3745,5.84246 -15.64859,5.50803z" fill="none" stroke="#000000" stroke-width="3" stroke-linecap="butt"/><path d="M330.24699,155.63825c0,0 1.53212,9.4271 0.82322,13.21933c-0.73835,3.94985 -5.16855,10.02617 -5.16855,10.02617" fill="none" stroke="#000000" stroke-width="2" stroke-linecap="round"/><path d="M313.39432,183.47449c0.091,0.75146 -0.65935,1.46204 -1.67595,1.58712c-1.01659,0.12508 -1.9145,-0.3827 -2.00549,-1.13417c-0.091,-0.75145 0.65935,-1.46204 1.67595,-1.58712c1.0166,-0.12508 1.91449,0.38271 2.00548,1.13417z" fill="#6283b8" stroke="none" stroke-width="0" stroke-linecap="butt"/><path d="M319.98938,181.48295c0.48944,0.70524 -0.12033,1.41505 -1.36194,1.58541c-1.24162,0.17036 -2.64491,-0.26325 -3.13435,-0.96849c-0.48944,-0.70524 0.12031,-1.41503 1.36192,-1.5854c1.24162,-0.17036 2.64492,0.26324 3.13436,0.96848z" fill="#6283b8" stroke="none" stroke-width="0" stroke-linecap="butt"/><path d="M304.47281,159.39523c0,0 10.01972,-2.66519 16.64604,-2.86516c6.62633,-0.19997 12.70644,1.97934 12.70644,1.97934" fill="none" stroke="#000000" stroke-width="2" stroke-linecap="round"/><path d="M318.38212,152.82088c0,0 -0.05602,8.5207 -0.26383,12.90062c-0.21031,4.43265 -0.9906,13.539 -0.9906,13.539" fill="none" stroke="#000000" stroke-width="2" stroke-linecap="round"/><path d="M319.44512,163.34413c-0.30127,0.9413 -1.51486,1.38562 -2.7106,0.9924c-1.19574,-0.3932 -1.92084,-1.47503 -1.61957,-2.41634c0.30127,-0.9413 1.51485,-1.38563 2.7106,-0.99242c1.19574,0.3932 1.92085,1.47504 1.61958,2.41635z" fill="#6283b8" stroke="none" stroke-width="0" stroke-linecap="butt"/><path d="M317.14023,157.62039c-0.22224,1.17342 -1.67478,1.87443 -3.24433,1.56578c-1.56955,-0.30865 -2.66176,-1.5101 -2.43952,-2.68351c0.22224,-1.17342 1.67477,-1.87445 3.24432,-1.5658c1.56955,0.30865 2.66176,1.51012 2.43953,2.68354z" fill="#6283b8" stroke="none" stroke-width="0" stroke-linecap="butt"/></g><g><path d="M289.21142,153.187c0.02017,0.43069 0.84305,2.9169 0.75007,3.32548c-0.10681,0.58584 0.38433,1.04341 0.10241,1.54532c-0.7093,1.52498 0.91753,3.74982 0.91116,5.32388c-0.02883,7.13518 2.33631,14.642 3.66001,21.80365c0.33146,1.79325 4.06587,-0.71442 5.45047,0.4724c4.82496,4.13568 5.96761,12.75971 4.50985,18.59074c-1.21423,4.85692 -11.67965,2.03875 -15.19466,-0.97414c-1.916,-1.64225 -4.62454,-1.43038 -5.63387,-4.81333c-1.75641,-5.88683 -4.95081,-12.53331 -4.77528,-20.55269c0.15973,-7.29832 1.97451,-17.0594 1.97451,-20.8501c0,-2.07794 -0.20362,-12.39068 2.20339,-12.52439c0.8322,-0.54024 3.14069,3.09287 4.20675,3.09287c2.61113,0 1.47962,1.88222 1.9287,4.3639c0.06659,0.20606 -0.10437,0.96473 -0.09352,1.19644z" fill="#590909" stroke="none" stroke-width="5" stroke-linecap="butt"/><path d="M305.08376,208.94544c-2.61928,0.26193 -2.88123,-2.35737 -2.88123,-2.35737l-0.29962,-3.02909c-0.0061,-5.65143 -1.01459,-11.15341 2.65925,-15.75592c0,0 1.71312,-1.99863 3.71175,-0.28552c1.99863,1.71311 0.28552,3.71175 0.28552,3.71175c-2.6793,2.74744 -1.39397,8.37129 -1.39833,12.06748l0.28002,2.76746c0,0 0.26193,2.6193 -2.35737,2.88123z" fill="#000000" stroke="none" stroke-width="5" stroke-linecap="butt"/><g fill="none" stroke="#000000" stroke-width="5" stroke-linecap="round"><path d="M313.26617,187.0883c0,0 -10.90184,-0.3624 -14.029,-1.8513c-2.10664,-1.00303 -5.94013,-2.19243 -5.94013,-2.19243c0,0 -2.36996,-16.9113 -3.65145,-25.00742c-0.91024,-5.75069 -3.31228,-18.98703 -3.31228,-18.98703"/><path d="M309.29553,210.97243c0,0 -13.69397,-3.81106 -18.2554,-5.56458c-2.45436,-0.94352 -6.96523,-4.13092 -6.96523,-4.13092"/></g><path d="M300.97243,198.39241c0,-6.02799 2.21337,-10.91462 4.94369,-10.91462c2.73032,0 4.94369,4.88664 4.94369,10.91463c0,6.02799 -2.21337,10.91465 -4.94369,10.91465c-2.73032,0 -4.94369,-4.88666 -4.94369,-10.91465z" fill="#ffffff" stroke="#000000" stroke-width="5" stroke-linecap="butt"/><path d="M307.26442,199.16287c0,-8.01367 6.12269,-14.51005 13.6754,-14.51005c7.55271,0 13.6754,6.49638 13.6754,14.51005c0,8.01367 -6.12269,14.51004 -13.6754,14.51004c-7.55271,0 -13.6754,-6.49638 -13.6754,-14.51004z" fill="#ffffff" stroke="#000000" stroke-width="5" stroke-linecap="butt"/><path d="M310.86969,193.38473c0.45159,-0.99583 1.08612,-2.58448 2.01686,-3.64287c1.50122,-1.70711 3.48599,-2.7255 4.5668,-2.82519c2.42238,-0.22342 6.0085,-0.05953 6.84852,1.00182c0.12948,0.16359 -0.41974,0.39766 -0.56345,0.53852c-1.18174,1.15828 -4.71676,5.004 -5.36478,7.10945c-1.37038,4.45246 -1.31682,6.6829 -1.26754,7.66145c0.10744,2.13345 1.32902,9.37976 0.76448,7.73693c-0.04693,-0.13657 -0.56798,-0.22986 -0.74296,-0.26945c-0.16575,-0.0375 -2.2612,-1.2596 -3.57868,-2.71447c-1.11811,-1.2347 -1.37255,-2.17169 -1.50522,-2.24565c-1.82899,-1.01961 -2.49924,-7.58905 -1.81981,-9.87913c0.20415,-0.6881 0.129,-1.33189 0.64576,-2.47143z" data-paper-data="{&quot;index&quot;:null}" fill="#c5c5c5" stroke="#000000" stroke-width="0" stroke-linecap="butt"/></g><path d="" fill="#595959" stroke="none" stroke-width="0.5" stroke-linecap="butt"/><path d="M220.9664,221.57717c0,0 -3.17176,-29.62203 -2.15281,-51.58872c0.61317,-13.21872 9.02887,-30.93478 12.9976,-41.92726c1.68376,-4.66365 1.20362,-10.33433 1.20362,-10.33433l58.5925,4.27033c0,0 -3.49787,5.4873 -6.04744,14.47917c-3.45207,12.17477 -6.2048,29.80868 -5.90698,39.90972c0.07743,2.62593 3.16175,7.63136 3.40766,10.32369c1.70568,18.67576 3.93657,35.25372 3.93657,35.25372c0,0 -4.49657,4.3174 -11.38653,6.22592c-6.40614,1.7745 -14.99406,1.15247 -21.07402,1.08857c-4.99267,-0.05246 -11.82123,-2.35756 -18.04818,-3.21876c-8.53378,-1.18025 -15.52196,-4.48202 -15.52196,-4.48202z" fill="#590909" stroke="#000000" stroke-width="5" stroke-linecap="butt"/><path d="M281.40286,144.3002c0,0.34408 -0.83997,2.94111 -1.00811,3.27187c-0.23005,0.45253 0.04286,1.0471 -0.44497,1.43658c-3.15453,2.51857 -12.1162,3.55299 -22.77066,3.55299c-13.50635,0 -27.15901,-8.72632 -27.15901,-12.58528c0,-1.14735 2.01704,-6.47606 3.60331,-9.2608c0.46818,-0.8219 -0.31723,-1.2107 0.31354,-1.46875c4.42012,-1.80832 16.84369,11.50152 25.14909,11.50152c9.64029,0 18.23201,-2.72868 22.21519,-0.41308c1.59738,0.92863 0.10161,2.86037 0.10161,3.96496z" fill="#260404" stroke="none" stroke-width="0" stroke-linecap="butt"/><g stroke-linecap="butt"><path d="M313.3542,103.21048c-0.58104,8.41638 -0.35104,17.55528 -4.80724,24.08971c-9.13725,13.39857 -28.18968,20.34039 -45.77687,19.12622c-11.46536,-0.79154 -22.1447,-5.52519 -29.88046,-12.74175c-9.91752,-9.2519 -15.28084,-22.59199 -14.28509,-37.0154c1.77244,-25.67379 24.41972,-45.02222 50.58412,-43.21591c6.03287,0.41649 16.45541,-5.29906 25.01481,-4.96361c3.0333,0.11889 4.15718,6.95122 7.09604,6.81598c5.78113,-0.26604 8.15619,-4.66072 10.84491,-1.87154c3.4889,3.61927 3.04913,9.82068 2.17296,17.2736c-1.3375,11.3772 -0.39883,24.32818 -0.96318,32.50269z" fill="#f5f5f5" stroke="none" stroke-width="0"/><path d="M268.97216,66.34129c-5.8434,-0.40341 -16.83336,1.14969 -24.04393,5.03466c-12.6688,6.82578 -21.31395,17.90805 -24.57534,17.17225c-1.2655,-0.28551 10.18185,-17.10265 10.30355,-18.8655c0.61385,-8.8917 17.40078,-14.97529 37.49463,-13.58808c6.67924,0.46112 17.57937,-6.87887 25.02049,-7.31679c4.55131,-0.26786 5.87629,6.43826 9.805,6.23755c8.97166,-0.45833 11.11388,-2.04829 10.82887,2.08c-0.09012,1.30536 1.73652,4.26395 0.5613,5.21637c-6.83001,5.53508 -28.25062,5.21312 -45.39457,4.02955z" fill="#ffffff" stroke="none" stroke-width="0"/><path d="M299.19165,133.52103c-0.61385,8.8917 -17.40078,14.97529 -37.49463,13.58808c-15.75612,-1.08776 -25.7226,-8.57299 -30.35297,-15.1226c-1.27477,-1.80314 -5.05119,-1.56956 -4.91869,-3.48904c0.25704,-3.72315 1.79996,-3.68453 6.78332,-1.56322c0.08549,0.03639 4.95658,2.38096 5.12028,2.45473c6.85627,3.08937 15.10128,6.95945 25.58946,7.68353c20.09385,1.38722 35.88709,-12.44317 35.27323,-3.55146z" data-paper-data="{&quot;index&quot;:null}" fill="#cccccc" stroke="none" stroke-width="0"/><path d="M313.0087,104.34003c-0.28572,4.13857 1.52376,12.77434 0.22589,16.52206c-6.7535,19.50148 -28.86326,28.20901 -50.81001,26.69387c-26.1644,-1.80631 -45.93798,-24.08336 -44.16553,-49.75716c0.70839,-10.26101 4.75122,-19.51163 11.02036,-26.80516c9.4167,-10.9554 23.85644,-17.49513 39.56376,-16.41075c3.32108,0.22927 8.98683,0.16193 14.852,-2.09504c4.02042,-1.5471 8.23566,-7.1162 8.23566,-7.1162c0,0 6.3332,11.3426 7.45674,11.2707c10.64581,-0.68141 14.70882,-10.71989 14.70882,-10.71989c0,0 1.15757,13.01872 0.97076,27.15327c-0.15973,12.08616 -1.62516,24.98817 -2.05844,31.26432z" fill="none" stroke="#000000" stroke-width="5"/><path d="M290.78918,135.1337c-0.1774,2.56953 -2.43354,4.50671 -5.03926,4.32682c-2.60572,-0.17989 -4.57427,-2.40873 -4.39688,-4.97826c0.1774,-2.56952 2.43355,-4.50671 5.03927,-4.32682c2.60572,0.17989 4.57425,2.40873 4.39686,4.97825z" fill="#cccccc" stroke="none" stroke-width="0"/><path d="M283.49933,137.9001c-0.13492,1.95429 -1.85088,3.42764 -3.8327,3.29082c-1.98181,-0.13682 -3.47902,-1.83198 -3.3441,-3.78629c0.13492,-1.95429 1.85087,-3.42764 3.83269,-3.29083c1.98181,0.13682 3.47903,1.832 3.34411,3.78629z" fill="#cccccc" stroke="none" stroke-width="0"/></g><path d="M256.87701,94.59411c0,-4.92065 1.34353,-6.11906 3.58407,-6.58482c1.84641,-0.38383 4.32949,-0.40763 6.93198,-0.40763c2.77225,0 5.78637,-0.11644 7.63389,0.40743c1.99148,0.56469 2.71076,1.92889 2.71076,6.58503c0,8.97571 -4.66985,16.25193 -10.43036,16.25193c-5.76051,0 -10.43033,-7.27622 -10.43033,-16.25193z" fill="#000000" stroke="none" stroke-width="5" stroke-linecap="butt"/><path d="M286.19217,94.44971c0,-4.92065 1.34353,-6.11905 3.58407,-6.58482c1.84641,-0.38383 4.32949,-0.40764 6.93198,-0.40764c2.77225,0 5.78636,-0.11644 7.63388,0.40743c1.99148,0.56469 2.71076,1.92889 2.71076,6.58503c0,8.97571 -4.66985,16.25193 -10.43036,16.25193c-5.76051,0 -10.43033,-7.27622 -10.43033,-16.25193z" fill="#000000" stroke="none" stroke-width="5" stroke-linecap="butt"/><path d="M260.84551,114.28218c3.11293,5.11241 -3.48962,4.08922 -5.84063,3.71936c-1.22431,-0.19261 -3.14022,0.26769 -3.61295,-0.87798c-0.2885,-0.19502 -0.54067,-0.45376 -0.73362,-0.77064c-0.01836,-0.03016 -0.03601,-0.06056 -0.05295,-0.09117c-0.98466,-1.72658 -0.49575,-2.7105 0.68365,-3.20577c0.06518,-0.04899 0.13334,-0.09526 0.20443,-0.13855c0.61908,-0.37695 1.33703,-0.45298 1.98333,-0.26955c2.98502,-0.12537 6.92131,0.89948 7.36874,1.6343z" fill="#000000" stroke="none" stroke-width="0.5" stroke-linecap="butt"/><path d="M-34.77477,380.45045v-400.9009h549.54955v400.9009z" fill="none" stroke="none" stroke-width="0" stroke-linecap="butt"/></g></g></svg>