<svg version="1.1" xmlns="http://www.w3.org/2000/svg" xmlns:xlink="http://www.w3.org/1999/xlink" width="549.54955" height="400.9009" viewBox="0,0,549.54955,400.9009"><g transform="translate(34.77475,20.45045)"><g data-paper-data="{&quot;isPaintingLayer&quot;:true}" fill-rule="nonzero" stroke-linejoin="miter" stroke-miterlimit="10" stroke-dasharray="" stroke-dashoffset="0" style="mix-blend-mode: normal"><path d="M290.69005,136.53853c0.41235,0.12594 4.74741,1.14758 5.10086,1.37265c0.51572,0.29773 3.83132,-0.22394 4.20908,0.21043c1.19734,1.18112 1.97892,1.09098 3.45903,1.62669c6.70932,2.42829 9.30593,5.32919 16.49532,6.49275c1.80021,0.29135 0.69551,-4.06914 2.27906,-4.97359c5.51817,-3.15179 14.02373,-1.32564 19.02411,2.00938c4.16503,2.77787 -2.01061,11.68452 -6.03065,13.98062c-2.19124,1.25161 -0.34915,5.04132 -3.87446,4.85334c-6.13455,-0.32709 -5.96632,8.88549 -13.45891,6.02151c-4.29008,-1.63984 -13.95685,-5.08903 -20.89965,-8.79541c-4.09249,-2.18476 -8.73809,-2.49793 -10.0619,-2.97101c-1.95675,-0.69927 -9.80065,-10.69648 -9.11655,-13.00809c-0.22868,-0.96547 3.96939,-1.91669 4.32815,-2.92057c0.8787,-2.45883 1.78006,-7.0146 4.26813,-6.60234c0.21645,0.00664 2.29701,1.13218 2.51885,1.19994z" fill="#590909" stroke="none" stroke-width="5" stroke-linecap="butt"/><path d="M229.80904,130.41401c5.11771,0.25657 5.34049,7.45806 4.37045,13.83622c0.91036,1.89892 0.64711,4.45314 -0.65438,6.70652c-0.18223,2.82808 -1.14262,6.06651 -1.07819,8.26825c0.2389,8.16423 -0.7261,23.12045 -5.75661,31.56778c-3.96674,6.66106 -7.25957,14.7011 -10.69986,20.38114c-0.19758,1.84773 -1.09705,3.80298 -2.62993,5.38156c-1.94227,2.00021 -3.66448,3.72187 -5.73663,3.39321c-3.96015,1.56555 -9.8613,-1.27463 -9.43133,-5.48628c-0.76154,-0.27248 -1.51414,-0.78621 -2.24477,-1.5962c-3.16137,-3.50481 6.39274,-16.59543 8.47961,-21.1747c2.31671,-5.08365 9.01282,-18.30484 10.27768,-22.90363c1.23429,-4.48773 3.33152,-13.32877 5.3443,-21.28556c1.53562,-6.07055 3.369,-13.19063 5.60873,-15.70198c0.11495,-0.12886 3.98671,-1.39455 4.15098,-1.38632z" fill="#590909" stroke="none" stroke-width="5" stroke-linecap="butt"/><path d="M194.36697,209.76364c3.04727,-1.02212 3.15965,2.03612 3.15965,2.03612l-0.20143,0.17895c2.24411,4.6256 8.47922,5.79964 10.83415,10.34247c0,0 1.26419,2.43871 -1.51072,4.54824c-2.77491,2.10952 -4.03908,-0.32918 -4.03908,-0.32918c-2.3747,-4.58104 -8.6265,-5.79004 -10.88668,-10.44716l-0.29068,-2.24911c0,0 -0.1124,-3.05826 2.93484,-4.08038z" fill="#000000" stroke="none" stroke-width="5" stroke-linecap="butt"/><g fill="none" stroke="#000000" stroke-width="5" stroke-linecap="round"><path d="M230.15324,128.6984c0,0 2.28836,6.78849 3.26451,12.04494c0.43076,2.31957 0.18186,4.39754 0.08776,5.36593c-0.25476,2.62225 -0.53734,15.91482 -0.61499,16.71385c-0.96198,9.90232 -1.98433,20.59892 -1.98433,20.59892c0,0 -10.63853,20.50472 -11.33584,21.59281c-5.1196,7.98874 -14.3927,20.84808 -14.3927,20.84808"/><path d="M192.16639,214.35291c0,0 8.99139,-18.36597 12.1209,-23.74228c2.1046,-3.61557 8.93612,-13.68018 8.93612,-13.68018"/></g><g stroke="#000000" stroke-linecap="butt"><path d="M182.36098,214.28182c5.58505,-7.02086 13.87112,-8.69615 20.44708,-3.10099c6.57595,5.59513 7.37923,15.82244 1.7942,22.84331c-5.58505,7.02086 -13.11345,6.47386 -19.68939,0.87872c-6.57595,-5.59513 -8.13694,-13.60017 -2.55188,-20.62104z" fill="#ffffff" stroke-width="5"/><path d="M204.5237,229.13054c-0.3624,0.64896 -0.43581,1.30506 -1.21433,2.34694c-0.68033,0.9105 -1.67994,2.3788 -2.85297,3.26366c-1.892,1.42723 -4.10787,2.07849 -5.20968,1.97933c-2.46941,-0.22225 -6.01114,-1.04476 -6.60493,-2.25799c-0.09153,-0.18702 0.51065,-0.3196 0.68657,-0.43372c1.44658,-0.93839 5.86167,-4.12543 6.99387,-6.10686c2.39433,-4.19014 2.85506,-6.42519 3.03146,-7.41049c0.3846,-2.14818 0.83584,-9.60191 1.0206,-7.85921c0.01535,0.14487 0.51396,0.33369 0.67948,0.40535c0.15679,0.06788 1.96661,1.67217 2.94627,3.36571c0.8314,1.43725 0.86938,2.4188 0.98474,2.51698c1.59055,1.35333 0.74507,8.03046 -0.46107,10.1903z" fill="#c5c5c5" stroke-width="0"/></g><g><path d="M266.53758,298.36179l0.34175,0.71612c1.22635,-0.21458 1.3483,-2.22609 2.28918,-3.07459c1.305,-1.1769 3.08526,-1.69697 4.76567,-2.10234c0.70721,-0.1706 1.43741,2.46942 2.17507,2.36292l-0.11884,-0.13643c1.40377,-0.61142 10.12777,-6.46328 11.25302,0.30745c0.91831,0.06896 1.85389,0.14988 2.75696,0.27506c1.48669,1.51472 2.90403,3.09232 4.28656,4.20034c0,0 2.08901,1.68214 0.47973,3.86235c-1.60928,2.18023 -3.69824,0.49807 -3.69824,0.49807c-1.15862,-0.93689 -2.39245,-2.34656 -3.67816,-3.71882c-1.09501,-0.13315 -2.36167,-0.12176 -3.6547,-0.16715c-0.46846,0.20666 -0.92534,0.3999 -1.33026,0.5913c-2.01063,0.95024 -7.73565,-4.2901 -9.31496,-2.28747c-0.57867,0.73379 0.00152,2.10128 -0.64349,2.77199c-0.97064,1.00938 -2.49197,1.18946 -3.73793,1.78418l-3.75183,-0.62986c0,0 -2.51576,-0.82722 -1.72553,-3.45374c0.51587,-1.71461 1.7671,-1.9574 2.57374,-1.91931c-1.24701,-6.64891 7.77065,-6.47138 11.5157,-7.47583c2.60627,-0.69903 3.6747,-2.13035 6.72483,-1.18857c2.13745,0.65999 4.09996,5.24298 5.95454,7.13256c4.29019,0.59474 7.84642,2.18874 5.3282,8.24615c-0.65495,1.57542 -2.09805,2.6451 -3.14706,3.96762c-4.32097,-1.26737 -8.26585,-3.18777 -12.73248,-3.70996c-2.23952,-0.26183 -7.3697,-1.81646 -9.01022,-2.29863c-1.67915,-0.49351 -3.622,-1.51035 -4.23106,-3.21743c-0.18506,-0.51866 -0.31755,-1.00311 -0.40248,-1.45594c0.42901,0.02028 0.73229,0.11996 0.73229,0.11996zM275.68539,299.34191c-0.104,0.01623 -0.21332,-2.7634 -0.32686,-2.75514c0.61539,0.01432 1.23269,2.85804 1.8463,2.88751c0.58666,0.02819 1.18669,0.06215 1.79435,0.10711l-0.86713,-0.99536c-1.01443,0.34992 -1.93237,0.67562 -2.44672,0.7559zM271.09853,297.64043c-0.19446,1.01048 1.82763,-0.85082 2.8061,-0.98596c0.18678,-0.0258 0.37419,-0.04348 0.56198,-0.0548c-1.46301,-0.03102 -3.13051,-0.19378 -3.36811,1.04075zM290.6287,303.65932c-0.39542,-1.32716 -1.49767,-1.8476 -2.94171,-2.06691c1.07265,0.53618 2.06771,1.21196 2.94171,2.06691zM287.21837,301.36911c-0.39135,-0.41492 -0.78745,-0.82433 -1.18754,-1.21399c-0.23545,0.17219 -0.49174,0.33238 -0.76002,0.48313c0.66722,0.20441 1.31914,0.44555 1.94754,0.73085z" data-paper-data="{&quot;index&quot;:null}" fill="#3c2700" stroke="none" stroke-width="5" stroke-linecap="butt"/><path d="M242.03776,299.44246c-0.09607,0.4502 -0.24052,0.93076 -0.4383,1.44396c-0.65099,1.6891 -2.61831,2.65021 -4.30906,3.09567c-1.65186,0.43522 -6.74967,1.84406 -8.99488,2.04194c-4.47797,0.39468 -8.46888,2.20196 -12.81964,3.34571c-1.01598,-1.35198 -2.43214,-2.46242 -3.04792,-4.05597c-2.36766,-6.12706 0.17992,-8.66586 4.48331,-9.13809c1.90062,-1.83604 4.95348,-5.31572 7.10645,-5.91454c3.07233,-0.85451 4.105,0.6068 6.6931,1.37987c3.71892,1.11082 12.73779,1.19043 11.32692,7.80145c0.8073,-0.01508 2.05206,0.2633 2.52542,1.99198c0.72508,2.64814 -1.81025,3.40333 -1.81025,3.40333l-3.76608,0.52269c-1.23087,-0.63002 -2.74718,-0.85336 -3.69253,-1.89005c-0.62822,-0.68887 -0.01446,-2.03937 -0.57479,-2.78939c-1.52929,-2.04694 -7.31279,0.23801 -9.29923,-0.76923c-0.40006,-0.20283 -0.85202,-0.40908 -1.31518,-0.62901c-1.29369,0.00853 -2.55963,2.75238 -3.65754,2.85426c-1.31915,1.33516 -2.58737,2.70913 -3.76871,3.61264c0,0 -2.12981,1.62201 -3.68464,-0.60333c-1.55483,-2.22532 0.575,-3.84732 0.575,-3.84732c1.40945,-1.06822 2.86524,-2.60491 4.38881,-4.07669c0.90584,-0.09942 1.84311,-0.15361 2.76277,-0.19635c1.29213,-6.73627 9.86852,-3.42914 11.25665,-2.77791l-0.12216,0.13298c0.73476,0.12749 1.46094,0.29958 2.1637,0.49029c1.6698,0.45311 3.43658,1.02373 4.71206,2.23742c0.91957,0.87502 0.99177,2.8893 2.21239,3.13876l0.35933,-0.70612c0,0 0.30563,-0.09105 0.73499,-0.09906zM229.77584,296.64473l-0.89137,0.97031c0.60856,-0.02763 1.20923,-0.04444 1.79638,-0.0559c0.61415,-0.01199 1.23251,-0.04673 1.84803,-0.0435c-0.11327,-0.01148 -0.22223,-0.02634 -0.32581,-0.04552c-0.5122,-0.0949 -1.4218,-0.44664 -2.42723,-0.82538zM233.42017,297.55404c0.18748,0.01666 0.37435,0.03966 0.56043,0.07079c0.97484,0.16298 2.9502,2.08125 2.78075,1.06558c-0.20697,-1.24088 -1.87794,-1.12568 -3.34118,-1.13637zM220.15002,302.16906c-1.44895,0.17807 -2.56362,0.66691 -2.9917,1.98234c0.8948,-0.82975 1.90618,-1.47694 2.9917,-1.98234zM222.58885,298.4928c-0.26445,-0.15837 -0.51666,2.46555 -0.74779,2.28672c-0.40957,0.37809 -0.81561,0.77604 -1.21711,1.17969c0.6352,-0.26729 1.29287,-3.28108 1.96488,-3.46641z" fill="#3c2700" stroke="none" stroke-width="5" stroke-linecap="butt"/><path d="M247.07577,258.60031c-0.14037,1.87196 -0.53552,3.6841 -1.04141,5.46589c-1.13855,6.35214 0.75503,12.34732 -1.27702,18.13967c1.78334,2.7059 3.69404,7.35594 2.02254,12.71977c-0.07107,0.2281 -0.14568,0.45057 -0.22367,0.66761c0.0471,0.44666 0.06861,0.90121 0.0629,1.36198c-0.02351,1.90277 0.52825,4.52047 -0.30437,6.07056c-0.95436,1.7767 -3.04776,-4.25852 -8.45364,-8.3363c-4.95517,-3.7378 -13.2985,-5.47644 -13.30128,-5.54502c-0.38973,-9.59686 -1.55946,-20.10405 0.84403,-28.90697c0.12272,-1.40754 0.19316,-2.74386 0.1869,-3.99c-0.0409,-8.13866 -2.19026,-24.72571 -0.68132,-37.29836c0.6161,-5.13339 -0.38029,-10.57402 2.27847,-13.40175c1.78449,-1.89787 6.18802,-2.15084 10.19369,-2.09374c7.90583,0.1127 19.05434,3.02235 26.95016,3.4574c2.37277,0.13073 5.64394,1.9164 7.82867,2.89337c3.25812,1.45698 7.53289,-1.91791 10.00588,0.73399c1.55707,1.66972 -1.42773,6.6267 -1.43021,10.22327c-0.00256,3.67593 1.11351,7.06799 0.927,9.65715c-1.13936,15.81652 1.53762,29.08908 1.02286,44.78006c-0.11467,3.49485 -1.53841,6.62113 -1.37527,10.19068c0.05443,1.19106 -15.29641,15.02809 -21.33498,13.37776c-1.21549,-0.33218 -1.65702,-2.67354 -1.95655,-4.34998c-0.22158,-1.24008 1.26803,-3.67142 1.82147,-4.60051c0.57031,-0.95743 -1.75352,-6.21795 -1.73988,-7.32131c0.0983,-7.95616 -1.20206,-21.55273 1.16583,-29.13247c0.43545,-1.39399 -3.02545,-8.54316 -3.11174,-10.28947c-0.22022,-4.45569 0.78473,-8.12484 0.57218,-12.60369c-0.07335,-1.54554 1.39396,-4.49311 -0.08112,-4.64144c-1.86286,-0.18735 -3.6684,-5.44895 -5.54069,-5.46712c-1.47422,-0.01432 -3.0142,5.194 -4.48966,5.21807c-0.22663,2.93516 -0.77415,5.89701 -1.14118,8.67389c0.17265,0.7691 0.2831,1.54539 0.2734,2.32944c-0.04755,3.84868 0.39613,8.2885 0.70448,12.76228c0.47876,3.0789 0.85491,6.16974 0.62355,9.25521z" fill="#001525" stroke="none" stroke-width="5" stroke-linecap="butt"/><path d="M247.35337,219.88154c-0.69251,1.30174 -1.61492,2.12003 -2.68495,2.6016c-3.48846,1.57001 -8.54591,-0.43875 -12.32111,-0.94158c-2.62227,-0.34926 -5.32819,0.89131 -7.01086,-1.71859c-1.07303,-1.66431 -1.33911,-5.10422 -0.44091,-7.05577c-0.0178,-0.12754 -0.02703,-0.25808 -0.02703,-0.39095c0,-1.28436 0.86192,-2.35247 1.99836,-2.57336c0.09436,-0.03276 0.19416,-0.05284 0.30027,-0.05818c2.3986,-0.12063 6.47397,1.48272 8.79034,2.17221c5.46085,1.62546 14.98417,-2.22793 20.73525,-1.94061c1.23454,0.06168 2.46057,1.40838 3.67158,1.43566c0.844,0.01902 1.10276,0.64887 2.32559,0.79856c0.23933,-0.187 2.51535,0.32398 2.96204,0.23091c2.80518,-0.58453 2.57619,1.82323 4.32031,1.82275c2.79437,-0.00078 6.65398,-2.83598 8.89997,-0.33649c2.0272,2.25602 2.66537,9.42574 -1.00181,10.34532c-2.62288,0.65771 -5.44843,0.02416 -7.99723,0.68005c-2.34415,0.60324 -10.20136,4.07419 -11.99794,1.0008c-1.5856,-2.71247 1.73903,-4.4042 2.86498,-5.51872c-1.25538,0.09728 -2.5218,-0.04834 -3.15668,-0.19978c-3.5707,-0.85174 -7.25229,-1.29883 -10.95593,-1.7181z" fill="#000a12" stroke="none" stroke-width="0.5" stroke-linecap="butt"/><path d="M239.16916,295.29013c1.51721,0.85728 5.69527,3.92551 5.27541,6.18049c-0.45018,2.4178 -1.29427,3.02224 -3.54518,2.53868c-1.52566,-0.32776 -2.09734,-2.47595 -3.2487,-3.60001c-1.81101,-1.76806 -5.07578,-3.04843 -7.2745,-4.23581c-1.11178,-0.6004 -5.20425,-0.6993 -7.38477,-1.20941c-0.19042,-0.02774 -3.93096,2.02991 -4.10474,1.95771c-0.91079,-0.37838 2.00038,-0.64589 2.00038,-1.75775c0,-1.44436 1.09007,-5.4066 2.43473,-5.4066c0.29945,0 0.58626,0.05807 0.85123,0.16429c4.61742,-1.32101 10.9054,3.057 14.99613,5.3684z" fill="#1c1200" stroke="none" stroke-width="0.5" stroke-linecap="butt"/><path d="M282.37915,288.10497c0.27611,-0.13396 0.57984,-0.22228 0.90212,-0.25414c1.44718,-0.14303 2.72023,0.90699 2.84343,2.34527c0.09483,1.10718 4.30819,5.86826 3.36023,6.34193c-0.18087,0.09037 -5.20142,-3.5855 -5.40398,-3.53761c-2.30325,0.73991 -6.69932,4.06505 -7.84465,4.78119c-2.26508,1.41625 -5.66954,0.24716 -7.46782,2.20042c-1.14327,1.2418 -1.57529,3.44176 -3.18932,3.93043c-2.38127,0.72095 -3.34128,0.20884 -4.03202,-2.15091c-0.64423,-2.20083 3.59067,-5.70057 5.15044,-6.71562c4.20547,-2.73681 10.59943,-7.76524 15.68158,-6.94093z" data-paper-data="{&quot;index&quot;:null}" fill="#1c1200" stroke="none" stroke-width="0.5" stroke-linecap="butt"/><g fill="none" stroke="#000000" stroke-width="5" stroke-linecap="round"><path d="M264.79945,219.59405l-4.42116,1.35627l-14.8868,-0.60108l1.41714,67.5184l0.79646,17.3087l-36.69772,2.87645l0.67836,-9.51187l12.81975,-9.46073l0.63983,-84.41813"/><path d="M280.28234,209.36213l0.97205,77.51917l12.29982,10.86164l-0.10043,9.69163l-34.9771,-2.89208l0.11773,-19.0871c0,0 -0.64571,-58.44428 -0.69898,-63.26681c-0.00687,-0.62258 1.34224,-0.62962 1.34224,-0.62962"/><path d="M224.80792,203.28003l54.90879,5.13167"/></g><path d="M245.51964,305.48533c-2.37357,1.19777 -3.52234,-1.28181 -3.52234,-1.28181l-0.58861,-1.44696c-1.16737,-6.3819 -10.73992,-9.95793 -16.23987,-10.72108c0,0 -2.60913,-0.40118 -2.22691,-3.12552c0.3822,-2.72435 2.99133,-2.32316 2.99133,-2.32316c8.11874,1.33954 18.60396,5.99757 20.62922,15.00471l0.18204,0.21649c0,0 1.14878,2.47959 -1.22484,3.67734z" fill="#000000" stroke="none" stroke-width="5" stroke-linecap="butt"/><path d="M280.15423,284.88649c2.2435,1.44887 0.85772,3.79059 0.85772,3.79059l2.51166,0.11184c-8.39691,3.21477 -18.08151,7.7819 -22.40058,16.56375c0,0 -1.20962,2.44597 -3.55279,1.18096c-2.34318,-1.265 -1.13355,-3.71095 -1.13355,-3.71095c4.98436,-10.02886 21.47405,-19.38504 23.71755,-17.93615z" fill="#000000" stroke="none" stroke-width="5" stroke-linecap="butt"/></g><path d="M219.46617,209.28263c0,0 -0.54569,-8.95364 1.73726,-21.91893c0.98821,-5.6122 8.79255,-66.37228 10.6079,-71.15475c1.68376,-4.43582 1.20362,-9.82949 1.20362,-9.82949l58.5925,4.06172c0,0 -3.49787,5.21924 -6.04744,13.77185c-3.45207,11.58003 -2.07877,0.59557 -1.78095,10.20317c0.0562,1.81304 1.81072,48.4396 2.29212,53.66376c1.13592,12.32682 0.55098,22.69542 0.55098,22.69542c0,0 -1.46539,2.63654 -8.35535,4.45183c-6.40614,1.68782 -14.84195,-5.88885 -20.92191,-5.94963c-4.99267,-0.04989 -11.0102,2.18785 -17.23715,1.36872c-8.53378,-1.12259 -20.64158,-1.36365 -20.64158,-1.36365z" fill="#590909" stroke="#000000" stroke-width="5" stroke-linecap="butt"/><path d="" fill="#595959" stroke="none" stroke-width="0.5" stroke-linecap="butt"/><path d="M281.97587,133.34988c0,0.34408 -0.10817,3.12406 -0.27631,3.45482c-0.23005,0.45253 0.23494,1.51132 -0.25289,1.9008c-3.15453,2.51857 -13.04007,2.90582 -23.69454,2.90582c-11.32372,0 -22.37526,-5.75883 -25.77261,-10.01547c-0.65483,-0.82046 0.39496,-3.54005 0.39496,-4.16366c0,-1.14735 0.23568,-4.88221 1.82195,-7.66695c0.46818,-0.8219 -0.31723,-1.2107 0.31354,-1.46875c4.42012,-1.80832 16.84369,11.50152 25.14909,11.50152c9.64029,0 18.23201,-2.72868 22.21519,-0.41308c1.59738,0.92863 0.10161,2.86037 0.10161,3.96496z" fill="#260404" stroke="none" stroke-width="0" stroke-linecap="butt"/><g stroke-linecap="butt"><path d="M311.40698,83.23209c1.81247,25.17432 -17.92635,47.05053 -44.0879,48.86189c-26.16155,1.81136 -48.83897,-17.12806 -50.65144,-42.30236c-1.81247,-25.17429 17.92636,-47.05051 44.08791,-48.86187c6.03221,-0.41765 15.55938,-7.38856 24.08235,-8.22922c3.02039,-0.29791 5.08281,6.18407 7.97436,5.65224c5.68807,-1.04618 14.06751,-2.22611 17.11774,0.11617c3.95799,3.03936 -0.22029,6.43752 -0.05227,13.79472c0.25648,11.23109 0.95217,22.95296 1.52926,30.96843z" fill="#f5f5f5" stroke="none" stroke-width="0"/><path d="M262.33214,53.47521c-5.84277,0.40454 -16.51027,3.41046 -23.11101,8.16591c-11.59735,8.3552 -18.6186,20.2957 -21.95059,20.02559c-1.29289,-0.10481 7.70642,-17.99653 7.58197,-19.72509c-0.62772,-8.71871 15.15093,-16.91434 35.2426,-18.30543c6.67851,-0.4624 16.4529,-9.07594 23.76097,-10.51525c4.46993,-0.88036 6.71396,5.45164 10.57666,4.72134c8.82092,-1.66771 15.21446,-2.57449 15.5059,1.47349c0.09215,1.27996 0.05857,1.29051 -0.9729,2.37559c-5.99457,6.30607 -29.49151,10.59699 -46.63359,11.78386z" fill="#ffffff" stroke="none" stroke-width="0"/><path d="M301.59389,114.59776c0.62772,8.71871 -15.15093,16.91434 -35.2426,18.30543c-20.09166,1.3911 -36.88805,-4.5491 -37.51577,-13.26782c-0.26284,-3.65072 1.27048,-3.82347 6.50028,-2.44249c0.08972,0.02369 5.23935,1.63678 5.41171,1.68611c7.21906,2.06586 15.92187,4.70066 26.40891,3.97457c20.09166,-1.3911 33.80976,-16.97451 34.43747,-8.25579z" data-paper-data="{&quot;index&quot;:null}" fill="#cccccc" stroke="none" stroke-width="0"/><path d="M310.77565,84.72838c0.23143,3.21451 3.11268,8.17597 2.67283,11.24803c-3.0048,20.98661 -23.93977,36.03379 -46.76074,37.61386c-26.16155,1.81136 -48.83897,-17.12806 -50.65143,-42.30237c-0.72439,-10.06138 1.99373,-19.59592 7.1885,-27.53326c7.80294,-11.92244 21.19379,-20.24118 36.8994,-21.32861c3.32072,-0.22992 8.92214,-1.06742 14.41676,-4.05852c3.76643,-2.05033 13.59917,-5.59786 13.59917,-5.59786c0,0 1.41565,7.71691 2.5183,7.49397c10.44783,-2.11249 21.66193,-5.44489 21.66193,-5.44489c0,0 -2.50596,36.55857 -1.54473,49.90965z" fill="none" stroke="#000000" stroke-width="5"/><path d="M293.49701,117.30894c0.1814,2.51954 -1.78366,4.70826 -4.38909,4.88865c-2.60544,0.1804 -4.86462,-1.71585 -5.04601,-4.23539c-0.18139,-2.51953 1.78367,-4.70826 4.3891,-4.88865c2.60544,-0.1804 4.8646,1.71585 5.04599,4.23538z" fill="#cccccc" stroke="none" stroke-width="0"/><path d="M286.66231,120.98891c0.13797,1.91627 -1.35661,3.58093 -3.33821,3.71813c-1.9816,0.1372 -3.69984,-1.30501 -3.83781,-3.22129c-0.13797,-1.91627 1.3566,-3.58093 3.33819,-3.71814c1.9816,-0.1372 3.69985,1.30501 3.83782,3.22129z" fill="#cccccc" stroke="none" stroke-width="0"/></g><g><path d="M360.16425,129.17124c2.37311,4.6452 -0.43282,9.39211 -5.02298,11.69351c-4.59017,2.30141 -30.0406,-8.43831 -32.41369,-13.08354c-2.37311,-4.6452 1.85309,-12.6065 6.44327,-14.90792c4.59017,-2.30142 28.62031,11.65272 30.9934,16.29793z" fill="#0d1522" stroke="#000000" stroke-width="2.5" stroke-linecap="butt"/><path d="M331.02428,106.02947c3.91596,10.27444 -1.15694,21.67236 -11.3307,25.45799c-10.17374,3.78563 -21.5957,-1.47456 -25.51168,-11.749c-3.91597,-10.27444 1.15694,-21.67234 11.33068,-25.45798c10.17374,-3.78563 21.59572,1.47456 25.5117,11.74899z" fill="#465e85" stroke="#000000" stroke-width="3" stroke-linecap="butt"/><path d="M334.41348,113.55216c0.05889,0.1545 -1.92191,5.72062 -4.32099,9.91943c-2.12212,3.71407 -4.68952,6.13904 -4.74502,5.99346c-0.06217,-0.16311 -3.40054,2.35986 -3.8333,1.0614c-0.33098,-0.99306 -0.02716,-5.78516 0.14967,-7.14507c0.16303,-1.25355 0.68032,-3.05007 1.46265,-4.62027c0.62327,-1.25098 1.85362,-3.42879 3.85845,-5.13133c2.33669,-1.98437 4.83855,-3.40298 5.23431,-3.45208c2.49568,-0.3097 2.01721,2.91002 2.19422,3.37448z" fill="#0d1522" stroke="#000000" stroke-width="3" stroke-linecap="butt"/><path d="M306.61141,131.84288c0,0 -5.19163,-1.29744 -7.23309,-3.02771c-2.00725,-1.70128 -4.91487,-7.26845 -4.91487,-7.26845c0,0 9.91036,-3.14469 14.94369,-5.62927c5.67179,-2.79976 17.40095,-10.33698 17.40095,-10.33698c0,0 1.74522,0.74189 1.30491,2.01236c-1.36464,3.93733 -10.56925,24.71778 -10.56925,24.71778z" fill="#313243" stroke="none" stroke-width="0" stroke-linecap="butt"/><path d="M315.67897,93.39328c0,0 4.74782,3.59796 6.5331,5.70435c2.0179,2.38085 4.96212,7.85844 4.96212,7.85844" fill="none" stroke="#000000" stroke-width="2" stroke-linecap="round"/><path d="M296.20133,102.45512c0,0 8.60765,3.03868 12.40421,5.23251c3.84229,2.22024 10.51401,8.01068 10.51401,8.01068" fill="none" stroke="#000000" stroke-width="2" stroke-linecap="round"/><path d="M317.42211,119.95843c0,0 -7.7276,-1.03053 -11.68589,-3.08906c-4.06038,-2.11162 -12.37795,-9.42545 -12.37795,-9.42545" fill="none" stroke="#000000" stroke-width="2" stroke-linecap="round"/><path d="M316.85749,123.04114c0,0 -6.0336,0.87082 -9.74106,0.10582c-3.94471,-0.81397 -13.25967,-4.8518 -13.25967,-4.8518" fill="none" stroke="#000000" stroke-width="2" stroke-linecap="round"/><path d="M316.45705,126.9698c0,0 -5.43884,1.66877 -8.40003,1.62944c-3.17064,-0.04211 -10.03848,-1.87431 -10.03848,-1.87431" fill="none" stroke="#000000" stroke-width="2" stroke-linecap="round"/><path d="M313.32408,131.61287c0,0 -1.71832,-4.4053 -1.97571,-8.96801c-0.21783,-3.8616 0.90384,-7.77343 1.9742,-9.86838c0.74413,-1.45646 2.65847,-3.75599 4.54588,-5.04405c4.34993,-2.96858 9.85756,-4.30783 9.85756,-4.30783" fill="none" stroke="#000000" stroke-width="2" stroke-linecap="round"/><path d="M304.55742,130.18815c0,0 -1.38883,-3.27121 -1.84569,-7.39548c-0.56667,-5.11546 -0.1268,-11.54714 1.13301,-14.72245c0.9415,-2.37305 3.25326,-5.56373 5.96883,-7.73132c3.97962,-3.17661 8.5369,-4.91585 8.5369,-4.91585" fill="none" stroke="#000000" stroke-width="2" stroke-linecap="round"/><path d="M332.66693,110.57902c0.15519,0.4072 -5.12941,1.1147 -8.40787,6.2619c-3.49232,5.48297 -2.19335,15.71583 -2.35867,15.28208c-0.08695,-0.22815 -4.21232,3.09818 -4.82543,1.28508c-0.46891,-1.38664 -0.31337,-7.9887 -0.15393,-9.85799c0.14697,-1.72307 0.7185,-4.17914 1.63808,-6.31026c0.7326,-1.69786 2.19287,-4.64684 4.66129,-6.90318c2.87703,-2.62981 5.99144,-4.47073 6.49253,-4.51993c3.15997,-0.31018 2.70646,4.1127 2.95403,4.76228z" fill="#465e85" stroke="#000000" stroke-width="3" stroke-linecap="butt"/><path d="M316.66531,132.39163c-9.40402,2.00431 -19.4714,-3.09081 -23.03739,-12.44701c-3.91596,-10.27444 1.71097,-21.8785 11.88472,-25.66415c9.54342,-3.55109 20.48795,1.65193 25.00225,10.69241c0.16154,0.32351 -8.05113,3.53983 -11.56547,10.98706c-2.97233,6.29867 -1.86121,16.34153 -2.2841,16.43167z" fill="none" stroke="#000000" stroke-width="3" stroke-linecap="butt"/><path d="M303.06102,95.97181c0,0 9.07954,2.96305 12.12404,5.33255c3.17104,2.46797 6.53808,9.19191 6.53808,9.19191" fill="none" stroke="#000000" stroke-width="2" stroke-linecap="round"/><path d="M320.06494,123.71591c0.70947,0.26386 0.99666,1.25657 0.64147,2.21727c-0.35519,0.96069 -1.21829,1.52563 -1.92776,1.26176c-0.70947,-0.26385 -0.99667,-1.25656 -0.64148,-2.21726c0.35519,-0.9607 1.21829,-1.52562 1.92776,-1.26175z" fill="#6283b8" stroke="none" stroke-width="0" stroke-linecap="butt"/><path d="M321.32066,116.94213c0.85118,-0.1114 1.20218,0.75603 0.784,1.93745c-0.41819,1.18142 -1.4472,2.22945 -2.29838,2.34085c-0.85118,0.11139 -1.20217,-0.75601 -0.784,-1.93743c0.41819,-1.18142 1.4472,-2.22946 2.29838,-2.34086z" fill="#6283b8" stroke="none" stroke-width="0" stroke-linecap="butt"/><path d="M294.57615,120.59763c0,0 2.22807,-10.1259 5.09004,-16.10563c2.86198,-5.97974 7.58757,-10.38269 7.58757,-10.38269" fill="none" stroke="#000000" stroke-width="2" stroke-linecap="round"/><path d="M295.11485,105.22228c0,0 7.54561,3.95844 11.34217,6.15228c3.84229,2.22024 11.57604,7.09091 11.57604,7.09091" fill="none" stroke="#000000" stroke-width="2" stroke-linecap="round"/><path d="M304.95315,109.10503c0.69822,0.6995 0.53632,1.98169 -0.3616,2.86382c-0.8979,0.88214 -2.19181,1.03019 -2.89004,0.33069c-0.69822,-0.6995 -0.53634,-1.98169 0.36158,-2.86383c0.8979,-0.88214 2.19183,-1.0302 2.89006,-0.33069z" fill="#6283b8" stroke="none" stroke-width="0" stroke-linecap="butt"/><path d="M298.80987,108.52747c0.94073,0.73575 0.89731,2.34802 -0.09695,3.6011c-0.99425,1.25307 -2.56286,1.67247 -3.50358,0.93672c-0.94073,-0.73575 -0.89733,-2.34803 0.09692,-3.60111c0.99425,-1.25307 2.56288,-1.67245 3.5036,-0.93671z" fill="#6283b8" stroke="none" stroke-width="0" stroke-linecap="butt"/></g><path d="M345.845,144.39754c-0.63479,2.55465 -3.18947,1.91988 -3.18947,1.91988l-2.95326,-0.73721c-5.32386,-1.89608 -10.84433,-2.79796 -13.94207,-7.80636c0,0 -1.30556,-2.28578 0.98021,-3.59135c2.28577,-1.30557 3.59135,0.98022 3.59135,0.98022c1.68556,3.4476 7.41395,4.12979 10.89308,5.37775l2.70029,0.66762c0,0 2.55467,0.6348 1.91987,3.18947z" fill="#000000" stroke="none" stroke-width="5" stroke-linecap="butt"/><g fill="none" stroke="#000000" stroke-width="5" stroke-linecap="round"><path d="M328.01613,129.33697c0,0 -4.00997,10.14405 -6.46439,12.58777c-1.65346,1.64623 -4.06354,4.85587 -4.06354,4.85587c0,0 -13.19243,-7.29299 -21.2476,-8.81077c-5.7216,-1.07808 -11.67833,-7.67455 -11.67833,-7.67455"/><path d="M349.17109,141.11357c0,0 -8.1971,11.61278 -11.38337,15.31806c-1.71443,1.99369 -6.23393,5.16884 -6.23393,5.16884"/></g><path d="M334.52383,144.71779c-5.67641,-2.02856 -9.53319,-5.75728 -8.61437,-8.32836c0.91881,-2.57108 6.26529,-3.01089 11.94169,-0.98235c5.67641,2.02856 9.53321,5.75729 8.6144,8.32837c-0.91881,2.57108 -6.26531,3.01088 -11.94172,0.98234z" fill="#ffffff" stroke="#000000" stroke-width="5" stroke-linecap="butt"/><path d="M337.36679,139.05206c-7.54628,-2.69678 -11.60335,-10.64854 -9.06169,-17.76074c2.54165,-7.1122 10.71956,-10.69162 18.26584,-7.99484c7.54628,2.69678 11.60333,10.64854 9.06168,17.76074c-2.54165,7.1122 -10.71956,10.69162 -18.26582,7.99484z" fill="#ffffff" stroke="#000000" stroke-width="5" stroke-linecap="butt"/><path d="M333.13885,133.71255c-0.78578,-0.76038 -2.06824,-1.8925 -2.75169,-3.12513c-1.10235,-1.98815 -1.39343,-4.19986 -1.12358,-5.25118c0.6048,-2.35628 1.96594,-5.67808 3.24806,-6.11195c0.19763,-0.06688 0.23321,0.52908 0.3175,0.7118c0.69304,1.5026 3.12485,6.12561 4.88943,7.44437c3.73161,2.7888 5.84998,3.48896 6.78804,3.77186c2.04517,0.61677 9.27993,1.90498 7.54294,1.88375c-0.1444,-0.00177 -0.40759,0.4575 -0.50376,0.60895c-0.09109,0.14347 -1.94707,1.70544 -3.76045,2.45648c-1.53895,0.63739 -2.50693,0.56167 -2.62122,0.66171c-1.57563,1.3792 -7.98747,-0.2004 -9.91535,-1.61087c-0.57927,-0.4238 -1.21079,-0.56969 -2.10997,-1.43979z" data-paper-data="{&quot;index&quot;:null}" fill="#c5c5c5" stroke="#000000" stroke-width="0" stroke-linecap="butt"/><path d="M332.47943,159.88273l-9.81702,10.89326l-35.25056,-13.37993" fill="none" stroke="#000000" stroke-width="5" stroke-linecap="round"/><path d="M227.61762,123.94791l-14.19303,53.9335" fill="none" stroke="#000000" stroke-width="5" stroke-linecap="round"/><path d="M274.28704,72.3949c0,-5.37776 -1.65673,-0.51301 0.58381,-1.02205c8.36872,-5.25893 7.32975,-6.61997 9.93224,-6.61997c2.77225,0 5.78636,-0.12726 7.63388,0.44528c1.99148,0.61714 2.71076,2.10807 2.71076,7.19677c0,9.80952 -4.66985,17.76168 -10.43036,17.76168c-5.76051,0 -10.43033,-7.95216 -10.43033,-17.76168z" fill="#000000" stroke="none" stroke-width="5" stroke-linecap="butt"/><path d="M243.95305,72.1279c0,-5.28831 1.34353,-6.57629 3.58407,-7.07684c1.84641,-0.41251 4.32949,-0.43808 6.93198,-0.43808c2.77225,0 1.87298,0.39238 6.19897,3.02549c6.55709,6.29965 4.14567,-0.51459 4.14567,4.48946c0,9.64638 -4.66985,17.4663 -10.43036,17.4663c-5.76051,0 -10.43033,-7.81989 -10.43033,-17.4663z" fill="#000000" stroke="none" stroke-width="5" stroke-linecap="butt"/><path d="M-34.77475,380.45045v-400.9009h549.54955v400.9009z" fill="none" stroke="none" stroke-width="0" stroke-linecap="butt"/><path d="M234.18404,99.68008c-1.37308,6.6387 7.09537,9.91408 12.15332,7.11509c1.79732,-0.99461 2.00521,-6.27453 3.71416,-9.19377c-2.95527,-0.70452 -5.79793,-1.80268 -8.41125,-3.43827c-0.28128,-0.17604 -1.29893,-0.60677 -2.05722,-1.00362c-2.16777,2.05354 -4.91651,4.18774 -5.39901,6.52058zM253.69406,101.61506c-1.41645,5.15122 -3.51142,10.87662 -9.81364,11.26166c-10.00277,0.61113 -19.54369,-9.0103 -12.23397,-18.29816c0.78126,-0.99268 6.33854,-7.72969 8.46992,-6.65614c0.35636,0.01687 0.69319,0.10836 0.99521,0.25918c1.46399,0.38345 3.04309,1.83881 4.94855,2.91884c1.63703,0.92788 5.40755,1.77453 7.11113,2.08347c2.31365,0.41957 12.79602,-0.79841 13.57377,1.53485c1.03455,3.10366 -3.37551,3.92552 -5.3184,3.96027c-2.03065,0.03632 -4.07597,-0.02196 -6.10166,-0.21708c-0.46233,1.17898 -1.4333,2.43449 -1.63091,3.15312z" fill="#000000" stroke="none" stroke-width="0.5" stroke-linecap="butt"/><path d="M234.13429,99.67503c0.4825,-2.33284 3.26505,-4.50938 5.43282,-6.56292c0.75829,0.39685 1.78869,0.82508 2.06997,1.00112c2.61332,1.63559 5.50622,2.76674 8.46149,3.47126c-1.70895,2.91924 -1.93578,8.25742 -3.7331,9.25203c-5.05795,2.79899 -13.60425,-0.5228 -12.23117,-7.1615z" data-paper-data="{&quot;noHover&quot;:false,&quot;origItem&quot;:[&quot;Path&quot;,{&quot;applyMatrix&quot;:true,&quot;segments&quot;:[[[234.18404,99.68008],[0,0],[-1.37308,6.6387]],[[246.33736,106.79517],[-5.05795,2.79899],[1.79732,-0.99461]],[[250.05152,97.6014],[-1.70895,2.91924],[-2.95527,-0.70452]],[[241.64027,94.16313],[2.61332,1.63559],[-0.28128,-0.17604]],[[239.58304,93.15951],[0.75829,0.39685],[-2.16777,2.05354]],[[234.18404,99.68009],[0.4825,-2.33284],[0,0]]],&quot;closed&quot;:true,&quot;fillColor&quot;:[0,0,0,1]}]}" fill="#ff8c8c" stroke="none" stroke-width="0.5" stroke-linecap="butt"/></g></g></svg>