<svg version="1.1" xmlns="http://www.w3.org/2000/svg" xmlns:xlink="http://www.w3.org/1999/xlink" width="549.54955" height="400.9009" viewBox="0,0,549.54955,400.9009"><g transform="translate(10.28819,21.24034)"><g data-paper-data="{&quot;isPaintingLayer&quot;:true}" fill-rule="nonzero" stroke-linejoin="miter" stroke-miterlimit="10" stroke-dasharray="" stroke-dashoffset="0" style="mix-blend-mode: normal"><g fill="#ff0000" stroke="#ff0000" stroke-width="20"><path d="M290.8469,184.48585c0.21421,-0.07859 0.43973,-0.14721 0.67603,-0.21128l0.73341,-0.68516c-0.5573,-0.1498 -1.12582,-0.29992 -1.67918,-0.4828c0.05259,0.41983 0.10915,0.83694 0.22083,1.2186c0.01472,0.05029 0.03107,0.1039 0.04891,0.16064zM295.16,197.07593c-0.0032,0.00416 -0.00642,0.00832 -0.00966,0.01245c0.02124,0.00642 0.04243,0.01303 0.06357,0.01986c0.04808,0.01552 0.00971,-0.00146 -0.05391,-0.03231zM289.4065,164.22718c0.28615,4.11223 -1.23281,10.43346 2.02498,13.85434c2.54366,2.67101 9.01007,0.5879 10.18183,5.78049c1.02388,4.53727 -3.72855,4.45497 -4.15694,7.76645c-0.53252,4.11641 6.13372,3.45205 1.29308,9.01531c-0.95843,1.10151 -2.7891,0.94045 -4.24084,1.09658c-4.87765,0.52456 -7.41986,-3.00316 -10.4546,-6.03619c-2.91998,-3.0689 -3.34486,-6.2295 -3.46012,-9.65652c-0.96902,-0.34426 -1.66289,-1.26929 -1.66289,-2.3564c0,-0.1348 0.01067,-0.26711 0.0312,-0.39613l0.35046,-2.45321c0.07562,-1.05925 0.1336,-2.20531 0.21337,-3.3864c-0.43401,-0.72592 -0.99547,-1.30579 -1.54591,-1.93738c-0.52473,-0.32892 -0.91863,-0.84727 -1.08584,-1.45922c-0.23206,-0.39613 -0.43777,-0.83874 -0.60025,-1.35195c-1.96563,-6.20851 2.43048,-12.40002 3.59708,-18.21285c0.74561,-3.71513 -0.00574,-7.24206 0.9538,-10.96404c0,0 0.64415,-2.41558 3.05974,-1.77143c2.41558,0.64416 1.77143,3.05974 1.77143,3.05974c-0.37473,1.34701 -0.49023,2.67531 -0.52711,4.00242c1.2672,0.12169 2.25807,1.18935 2.25807,2.48844c0,0.06018 -0.00213,0.11987 -0.00631,0.17898l-0.17808,2.84931c-0.0306,3.55203 1.68579,6.37823 2.18385,9.88966zM285.12276,176.65371c-0.02907,0.12648 -0.05798,0.25272 -0.08664,0.37868c0.06961,0.01398 0.13817,0.03086 0.20556,0.05049c-0.04195,-0.1422 -0.08155,-0.28528 -0.11892,-0.42917z" stroke-linecap="butt"/><g><path d="M223.62868,127.4689c0.1317,0.09842 3.47028,5.9701 3.47987,6.13971c0.43109,7.63752 -10.59134,25.82681 -13.766,33.13248c-1.84533,4.24659 -2.68758,14.50764 -4.01931,19.78677c-1.19959,4.75535 -0.63742,20.63403 -5.22438,21.24385c-1.06009,0.14094 -1.95541,0.04619 -2.70968,-0.23478c-2.25158,3.42534 -8.54326,1.79345 -10.63631,-1.89944c-1.79918,-1.07337 -2.07107,-3.4582 -2.34178,-6.19159c-0.21367,-2.15722 0.29204,-4.19301 1.27295,-5.70146c0.83123,-6.44076 -0.48447,-11.59849 0.54255,-19.10853c1.30242,-9.524 8.5066,-21.3301 13.69805,-27.28728c1.40004,-1.60654 2.64577,-4.64133 4.23977,-6.87359c0.37861,-2.51486 1.7422,-4.59376 3.60872,-5.43512c3.16395,-5.39039 7.75251,-10.63739 11.85558,-7.571z" stroke-linecap="butt"/><path d="M207.2205,206.45647c1.72253,2.705 -0.23983,4.92191 -0.23983,4.92191l-1.60352,1.49794c-4.59887,2.04587 -10.16047,-1.02987 -14.80097,0.88617c0,0 -2.47037,1.01999 -3.316,-2.32531c-0.84563,-3.34532 1.62476,-4.36532 1.62476,-4.36532c4.60183,-1.90005 10.12911,1.19126 14.69626,-0.84126l-0.04554,-0.26217c0,0 1.96231,-2.21692 3.68484,0.48809z" stroke-linecap="butt"/><g stroke-linecap="round"><path d="M189.01163,211.62062c0,0 -0.16326,-17.98895 0.26819,-25.8332c0.14368,-2.61245 -12.93353,-6.87258 -12.93353,-6.87258l12.70105,-1.76214c0,0 6.99692,-19.37163 12.32851,-27.39402c0.43019,-0.64735 8.36491,-10.77408 9.77677,-12.8985c0.52138,-0.78455 1.60392,-2.49798 3.35867,-3.95944c3.97648,-3.31189 9.90429,-6.93473 9.90429,-6.93473"/><path d="M209.65407,173.11033c0,0 -0.12909,7.31036 -0.72396,11.35587c-0.88457,6.01561 -2.82762,26.82558 -2.82762,26.82558"/><path d="M220.24438,151.81319c-1.3375,1.36748 -1.51859,10.39939 -3.03452,12.55496c-3.63126,5.16348 -7.48498,7.16254 -7.48498,7.16254"/></g><path d="M224.38545,123.76624c2.18215,-1.64884 3.60529,0.87937 3.60529,0.87937l1.45998,3.83077c-0.78494,8.43517 -2.64082,17.62683 -6.80568,24.65872c0,0 -1.48084,2.48338 -3.62427,0.76767c-2.14343,-1.71568 -0.66258,-4.19905 -0.66258,-4.19905c3.67275,-6.11102 5.26733,-14.49791 5.91045,-21.85654l-0.64223,0.09612c0,0 -1.42316,-2.52825 0.75899,-4.17708z" stroke-linecap="butt"/></g><g stroke-linecap="butt"><path d="M196.63624,233.74251c-8.5016,0 -14.64143,-4.38392 -14.64143,-13.19357c0,-8.80963 6.89193,-15.95127 15.39353,-15.95127c8.50162,0 15.39355,7.14162 15.39355,15.95127c0,8.80965 -7.64405,13.19357 -16.14565,13.19357z"/><path d="M185.05668,216.93707c0.39475,-2.38413 3.8381,-7.91895 5.89442,-7.91895c0.14916,0 0.78043,-0.71032 2.30293,-1.25647c1.79398,-0.64355 4.17329,-0.69175 4.33581,-0.64271c0.17157,0.05177 0.67178,0.22793 0.77248,0.1293c1.21128,-1.18643 -3.01234,4.67848 -4.03333,6.53083c-0.4683,0.84961 -1.48387,2.81543 -2.20776,7.47535c-0.34232,2.20356 1.107,7.39947 1.64677,9.02268c0.06564,0.1974 0.44859,0.68 0.26333,0.76166c-1.2019,0.5298 -4.43699,-1.10969 -6.4772,-2.51563c-0.9103,-0.6273 -2.21929,-2.52545 -2.80267,-4.79806c-0.36169,-1.40899 -0.23184,-3.14417 -0.19795,-4.25866c0.03878,-1.27532 0.38457,-1.813 0.50318,-2.52936z"/></g><path d="M265.63216,304.67763l0.35091,0.68456c1.25923,-0.20513 1.38445,-2.12799 2.35055,-2.9391c1.33999,-1.12504 3.16798,-1.62219 4.89344,-2.00969c0.72617,-0.16308 1.47595,-0.30775 2.23339,-0.40955l-0.12203,-0.13042c1.4414,-0.58447 10.39929,-6.17845 11.55471,0.2939c0.94293,0.06592 1.90359,0.14328 2.83087,0.26294c1.52654,1.44797 2.98189,2.95605 4.40148,4.01524c0,0 2.14503,1.60801 0.4926,3.69214c-1.65242,2.08415 -3.7974,0.47612 -3.7974,0.47612c-1.18968,-0.89561 -2.45659,-2.24315 -3.77676,-3.55494c-1.12437,-0.12728 -2.42499,-0.11639 -3.75269,-0.15979c-0.48102,0.19756 -0.95015,0.38228 -1.36592,0.56524c-2.06453,0.90837 -7.94304,-1.4327 -9.56469,0.48168c-0.59418,0.70145 0.00157,2.00867 -0.66074,2.64983c-0.99667,0.9649 -2.55878,1.13705 -3.83814,1.70556l-3.85241,-0.60212c0,0 -2.58321,-0.79076 -1.7718,-3.30154c0.5297,-1.63905 1.81448,-1.87113 2.64274,-1.83473c-1.28044,-6.35591 7.97898,-6.1862 11.82443,-7.14638c2.67615,-0.66822 3.77322,-2.03647 6.90513,-1.13619c2.19475,0.6309 4.20987,2.34359 6.11418,4.1499c4.40521,0.56853 8.05678,2.09228 5.47105,7.88275c-0.67251,1.506 -2.1543,2.52853 -3.23144,3.79278c-4.43682,-1.21152 -8.48745,-3.04729 -13.07383,-3.54647c-2.29956,-0.25029 -7.56728,0.93192 -9.25178,0.471c-1.72417,-0.47176 -3.7191,-1.44379 -4.34449,-3.07564c-0.19002,-0.49581 -0.32607,-0.95892 -0.41327,-1.39179c0.44051,0.01938 0.75194,0.11468 0.75194,0.11468zM275.02515,302.94618c-0.10679,0.01552 -0.21904,0.02672 -0.33562,0.03462c0.63189,0.01369 1.26574,0.06375 1.8958,0.09191c0.60239,0.02695 1.21852,0.05942 1.84247,0.1024l-0.89037,-0.9515c-1.04163,0.3345 -1.98418,0.64585 -2.51232,0.72259zM270.31532,303.98805c-0.19968,0.96595 1.87662,-0.81332 2.88133,-0.94251c0.19178,-0.02466 0.38423,-0.04157 0.57706,-0.05239c-1.50223,-0.02965 -3.21444,-0.18522 -3.45841,0.9949zM290.36907,307.07333c-0.40602,-1.26867 -1.53782,-1.76618 -3.02058,-1.97582c1.1014,0.51255 2.12315,1.15855 3.02058,1.97582zM286.8674,304.88408c-0.40184,-0.39664 -0.80856,-0.788 -1.21937,-1.16049c-0.24176,0.1646 -0.50493,0.31774 -0.7804,0.46184c0.68511,0.1954 1.35451,0.42591 1.99974,0.69864z" data-paper-data="{&quot;index&quot;:null}" stroke-linecap="butt"/><path d="M240.47544,304.37649c-0.09864,0.43036 -0.24696,0.88974 -0.45005,1.38033c-0.66845,1.61467 -2.68851,2.53342 -4.42458,2.95925c-1.69614,0.41604 -6.93063,-0.90555 -9.23603,-0.71638c-4.59803,0.37729 -8.69593,2.10493 -13.16333,3.19827c-1.04322,-1.2924 -2.49735,-2.35391 -3.12964,-3.87724c-2.43114,-5.85705 1.25957,-7.28333 5.67833,-7.73475c1.95158,-1.75513 4.01146,-3.41376 6.22215,-3.98618c3.1547,-0.81685 4.21505,0.58006 6.87253,1.31906c3.81862,1.06187 13.07929,1.13797 11.63059,7.45765c0.82894,-0.01441 2.10708,0.25169 2.59312,1.9042c0.74452,2.53144 -1.85878,3.25335 -1.85878,3.25335l-3.86704,0.49966c-1.26387,-0.60226 -2.82083,-0.81575 -3.79153,-1.80676c-0.64507,-0.65851 -0.01485,-1.9495 -0.5902,-2.66647c-1.57029,-1.95673 -7.50885,0.22752 -9.54854,-0.73533c-0.41078,-0.19389 -0.87487,-0.39105 -1.35044,-0.60129c-1.32837,0.00815 -2.62825,-0.03725 -3.75559,0.06014c-1.35452,1.27632 -2.65674,2.58974 -3.86975,3.45344c0,0 -2.18691,1.55054 -3.78343,-0.57674c-1.59652,-2.12726 0.59041,-3.67778 0.59041,-3.67778c1.44723,-1.02114 2.94206,-2.49011 4.50648,-3.89703c0.93013,-0.09504 1.89252,-0.14684 2.83684,-0.1877c1.32677,-6.43941 10.13309,-0.60968 11.55844,0.01284l-0.12543,0.12712c0.75446,0.12187 1.50011,0.28638 2.22171,0.46868c1.71457,0.43314 3.52871,0.97861 4.83839,2.13882c0.94422,0.83646 1.01836,2.76197 2.2717,3.00044l0.36897,-0.675c0,0 0.31382,-0.08704 0.75469,-0.0947zM227.88476,301.70204l-0.91526,0.92755c0.62488,-0.02641 1.24165,-0.04248 1.84454,-0.05343c0.63061,-0.01146 1.26555,-0.04468 1.89757,-0.0416c-0.11631,-0.01097 -0.22819,-0.02516 -0.33454,-0.0435c-0.52593,-0.09072 -1.45992,-0.42696 -2.49231,-0.78901zM231.62679,302.57124c0.1925,0.01592 0.38439,0.03791 0.57546,0.06767c1.00097,0.1558 3.02929,1.98953 2.8553,1.01863c-0.21252,-1.1862 -1.92829,-1.07608 -3.43076,-1.0863zM218.0009,304.31456c-1.48779,0.17022 -2.63235,0.63752 -3.07191,1.89498c0.91879,-0.79318 1.95729,-1.41185 3.07191,-1.89498zM220.50509,303.46866c-0.27154,-0.15139 -0.53051,-0.31144 -0.76784,-0.48239c-0.42055,0.36143 -0.83747,0.74184 -1.24974,1.1277c0.65223,-0.25551 1.32753,-0.46814 2.01756,-0.64531z" stroke-linecap="butt"/><path d="M243.26792,289.23364c1.83115,2.58666 3.79308,5.69761 2.07676,10.82506c-0.07297,0.21805 -0.1496,0.43072 -0.22968,0.63819c0.04837,0.42697 0.07046,0.86149 0.06459,1.30196c-0.02414,1.81892 0.54241,4.32125 -0.31253,5.80304c-0.97995,1.6984 -3.12947,-4.07086 -8.68028,-7.96894c-5.08802,-3.57308 -13.65503,-5.2351 -13.65788,-5.30066c-0.40018,-9.17395 -1.60127,-17.88394 0.86666,-26.29893c0.12601,-1.34551 0.19834,-2.62294 0.19191,-3.81416c-0.04199,-7.78 -2.24898,-23.63611 -0.69958,-35.6547c0.63261,-4.90717 -0.39049,-10.10804 2.33955,-12.81115c1.83233,-1.81424 6.35392,-2.05605 10.46698,-2.00146c8.11778,0.10773 19.56518,2.88916 27.67268,3.30504c2.43638,0.12497 5.79526,1.83195 8.03856,2.76587c3.34547,1.39277 7.73485,-1.83341 10.27413,0.70163c1.59881,1.59614 -1.466,6.33468 -1.46855,9.77276c-0.00263,3.51394 1.14337,6.75652 0.95186,9.23158c-1.16991,15.11951 1.57884,27.80718 1.05028,42.80668c-0.11774,3.34084 -1.57966,6.32934 -1.41214,9.74159c0.05589,1.13857 -15.7065,14.36583 -21.90696,12.78823c-1.24808,-0.31754 -1.70145,-2.55572 -2.00901,-4.15828c-0.22752,-1.18543 1.30202,-3.50963 1.8703,-4.39778c0.5856,-0.91524 -1.80053,-5.94394 -1.78653,-6.99867c0.05425,-4.08749 -0.30632,-9.73233 -0.27408,-15.20471c0.11534,-1.06174 0.11236,-2.1698 0.07146,-3.21279c0.14531,-3.53785 0.53343,-6.84957 1.39971,-9.43115c0.28849,-0.8598 -1.08859,-4.00995 -2.12583,-6.58535c0.7868,-3.26687 1.66808,-7.19377 -0.57568,-9.01598c-0.01656,-0.39838 -0.03702,-0.79745 -0.06172,-1.19725c0.02899,-0.36068 0.0492,-0.71677 0.05917,-1.06698c0.07576,-0.5919 0.11792,-1.18436 0.10753,-1.77733c0.02695,-0.72806 0.02809,-1.47225 -0.01112,-2.24141c-0.07531,-1.47743 1.43133,-4.2951 -0.08329,-4.43689c-1.91281,-0.1791 -3.76675,-5.20882 -5.68923,-5.22619c-1.51375,-0.01369 -3.09502,4.96509 -4.61003,4.98811c-0.2327,2.80581 -0.79489,5.63714 -1.17176,8.29165c0.17728,0.73521 0.29069,1.47728 0.28073,2.22679c-0.01102,0.83057 0.00366,1.68992 0.03665,2.57195c-0.11732,0.94633 -0.23651,1.89423 -0.3591,2.84452c-0.83471,6.47015 -0.52696,12.43401 0.35851,18.46501c-0.10064,1.08348 -0.83834,7.4866 -0.05562,11.1801c0.08199,2.91236 0.0557,5.75638 -0.9974,8.55101z" stroke-linecap="butt"/><path d="M245.93352,229.6558c-0.71107,1.24437 -1.65821,2.02661 -2.75693,2.48696c-3.58199,1.50082 -8.77503,-0.41942 -12.65144,-0.90008c-2.69257,-0.33387 -5.47104,0.85204 -7.19882,-1.64285c-1.10179,-1.59097 -1.37501,-4.87929 -0.45273,-6.74484c-0.01827,-0.12192 -0.02775,-0.2467 -0.02775,-0.37371c0,-1.22776 0.88503,-2.24882 2.05193,-2.45997c0.09689,-0.03131 0.19936,-0.0505 0.30832,-0.0556c2.4629,-0.11532 6.64755,1.41737 9.02602,2.07647c6.81091,1.88737 14.34102,2.48758 21.37724,2.63515c0.86663,0.01818 2.13702,-0.0033 3.39264,0.1398c0.24575,-0.17876 0.57337,-0.31387 1.03203,-0.40284c2.88039,-0.55877 7.33388,-0.12784 9.12476,-0.1283c2.86928,-0.00074 6.83237,-2.71099 9.13857,-0.32165c2.08155,2.1566 2.73683,9.01037 -1.02866,9.88942c-2.6932,0.62873 -5.5945,0.02309 -8.21164,0.65008c-2.40699,0.57665 -10.47486,3.89463 -12.3196,0.95668c-1.62811,-2.59293 1.78565,-4.21012 2.94179,-5.27552c-1.28903,0.093 -2.58941,-0.04621 -3.24131,-0.19098c-3.66643,-0.81421 -7.44672,-1.24159 -11.24965,-1.64238z" stroke-linecap="butt"/><path d="M237.5299,300.4071c1.55789,0.8195 5.84796,3.75252 5.41684,5.90812c-0.46225,2.31125 -1.32897,2.88905 -3.64022,2.42681c-1.56656,-0.31331 -2.15358,-2.36684 -3.33581,-3.44136c-1.85957,-1.69015 -5.21186,-2.91409 -7.46952,-4.04914c-1.14159,-0.57394 -5.34376,-0.66848 -7.58274,-1.15612c-0.19552,-0.02652 -4.03636,-0.72788 -4.2148,-0.7969c-0.93521,-0.3617 2.05401,-0.61743 2.05401,-1.68029c0,-1.38071 1.11929,-2.5 2.5,-2.5c0.30748,0 0.60198,0.05551 0.87405,0.15705c4.74121,-1.26279 11.19777,2.92228 15.39817,5.13181z" stroke-linecap="butt"/><path d="M281.89836,294.87274c0.28351,-0.12806 0.59539,-0.21249 0.92631,-0.24293c1.48598,-0.13673 2.79317,0.86702 2.91967,2.24192c0.09738,1.05839 4.42368,2.94133 3.4503,3.39411c-0.18572,0.08639 -5.34087,-0.75916 -5.54886,-0.71339c-2.365,0.70731 -6.87892,1.21757 -8.05496,1.90215c-2.3258,1.35384 -5.82154,2.90462 -7.66803,4.77179c-1.17392,1.18708 -1.61753,3.29009 -3.27483,3.75722c-2.44511,0.68918 -3.43086,0.19963 -4.14012,-2.05613c-0.6615,-2.10384 3.68693,-5.44935 5.28852,-6.41967c4.31822,-2.6162 10.8836,-7.42305 16.102,-6.63506z" data-paper-data="{&quot;index&quot;:null}" stroke-linecap="butt"/><g stroke-linecap="round"><path d="M263.84737,229.38099l-4.53969,1.2965l-15.28591,-0.5746l0.39812,17.29386c-0.14907,1.21081 -0.30046,2.42383 -0.45746,3.64076c-0.83471,6.47015 -0.52696,12.43401 0.35851,18.46501c-0.12126,1.3056 -1.16756,10.33542 0.63602,13.0408c0.08675,0.13011 0.18055,0.2565 0.28076,0.3788l0.23918,10.38959l0.81781,16.54593l-37.68157,0.08135l0.69654,-9.0927l13.16344,-6.37547l0.65699,-79.36381z"/><path d="M279.74538,219.59998l0.99811,74.10304l12.62957,7.71465l-0.10312,9.26454l-35.91483,-0.09631l0.12089,-18.24595c0,0 -0.663,-55.86874 -0.71771,-60.47875c-0.00705,-0.59515 1.37822,-0.60188 1.37822,-0.60188z"/><path d="M222.78366,213.7859l56.38087,4.90553"/></g><g><path d="M286.81727,148.03509c0.02017,0.43069 0.84305,2.9169 0.75007,3.32548c-0.10681,0.58584 0.38433,1.04341 0.10241,1.54532c-0.7093,1.52498 0.91753,3.74982 0.91116,5.32388c-0.02883,7.13518 2.33631,14.642 3.66001,21.80365c0.33146,1.79325 4.06587,-0.71442 5.45047,0.4724c4.82496,4.13568 5.96761,12.75971 4.50985,18.59074c-1.21423,4.85692 -11.67965,2.03875 -15.19466,-0.97414c-1.916,-1.64225 -4.62454,-1.43038 -5.63387,-4.81333c-1.75641,-5.88683 -4.95081,-12.5333 -4.77528,-20.55268c0.15973,-7.29832 1.97451,-17.05941 1.97451,-20.85011c0,-2.07794 -0.20362,-12.39068 2.20339,-12.52439c0.8322,-0.54024 3.14069,3.09287 4.20675,3.09287c2.61113,0 1.47962,1.88222 1.9287,4.3639c0.06659,0.20606 -0.10437,0.96473 -0.09352,1.19644z" stroke-linecap="butt"/><path d="M302.68963,203.79353c-2.61928,0.26193 -2.88123,-2.35737 -2.88123,-2.35737l-0.29962,-3.02909c-0.0061,-5.65143 -1.01458,-11.15341 2.65926,-15.75592c0,0 1.71312,-1.99863 3.71175,-0.28552c1.99863,1.71311 0.28551,3.71175 0.28551,3.71175c-2.6793,2.74744 -1.39396,8.3713 -1.39832,12.06749l0.28002,2.76746c0,0 0.26193,2.61929 -2.35737,2.88123z" stroke-linecap="butt"/><g stroke-linecap="round"><path d="M310.87204,181.9364c0,0 -10.90184,-0.3624 -14.029,-1.8513c-2.10664,-1.00303 -5.94013,-2.19243 -5.94013,-2.19243c0,0 -2.36996,-16.9113 -3.65145,-25.00742c-0.91024,-5.75069 -3.31228,-18.98703 -3.31228,-18.98703"/><path d="M306.90138,205.82053c0,0 -13.69397,-3.81106 -18.2554,-5.56458c-2.45436,-0.94352 -6.96523,-4.13092 -6.96523,-4.13092"/></g><path d="M298.57829,193.2405c0,-6.02799 2.21337,-10.91462 4.94369,-10.91462c2.73032,0 4.94369,4.88664 4.94369,10.91463c0,6.02799 -2.21337,10.91466 -4.94369,10.91466c-2.73032,0 -4.94369,-4.88667 -4.94369,-10.91466z" stroke-linecap="butt"/><path d="M304.87027,194.01096c0,-8.01367 6.12269,-14.51005 13.6754,-14.51005c7.55271,0 13.6754,6.49638 13.6754,14.51005c0,8.01367 -6.12269,14.51005 -13.6754,14.51005c-7.55271,0 -13.6754,-6.49639 -13.6754,-14.51005z" stroke-linecap="butt"/><path d="M308.47556,188.23282c0.45159,-0.99583 1.08612,-2.58447 2.01686,-3.64287c1.50122,-1.70711 3.48599,-2.7255 4.5668,-2.82519c2.42238,-0.22342 6.0085,-0.05954 6.84852,1.00181c0.12948,0.16359 -0.41975,0.39766 -0.56346,0.53852c-1.18174,1.15828 -4.71676,5.00401 -5.36478,7.10945c-1.37038,4.45246 -1.31682,6.6829 -1.26754,7.66145c0.10744,2.13345 1.32902,9.37976 0.76447,7.73693c-0.04693,-0.13657 -0.56797,-0.22986 -0.74295,-0.26945c-0.16575,-0.0375 -2.26121,-1.2596 -3.57869,-2.71447c-1.11811,-1.2347 -1.37254,-2.17169 -1.50521,-2.24565c-1.82899,-1.01961 -2.49924,-7.58904 -1.81981,-9.87912c0.20415,-0.6881 0.129,-1.3319 0.64576,-2.47144z" data-paper-data="{&quot;index&quot;:null}" stroke-linecap="butt"/></g><path d="M222.9367,218.06193c0,0 -6.1723,-31.53147 -5.15336,-53.49816c0.61317,-13.21872 7.66499,-30.662 11.63371,-41.65448c1.68376,-4.66365 1.20362,-10.33433 1.20362,-10.33433l58.5925,4.27033c0,0 -3.49787,5.4873 -6.04744,14.47917c-3.45207,12.17477 -6.2048,29.80868 -5.90698,39.90972c0.07743,2.62593 -0.11157,10.63191 0.13434,13.32424c1.70568,18.67576 2.84546,37.70871 2.84546,37.70871c0,0 -0.13214,-1.13814 -7.0221,0.77039c-6.40614,1.7745 -14.99406,1.15246 -21.07402,1.08856c-4.99267,-0.05246 -11.82123,-2.35755 -18.04818,-3.21875c-8.53378,-1.18025 -11.15756,-2.84539 -11.15756,-2.84539z" stroke-linecap="butt"/><path d="M279.00871,139.14829c0,0.34408 -0.83997,2.94111 -1.00811,3.27187c-0.23005,0.45253 0.04286,1.0471 -0.44497,1.43658c-3.15453,2.51857 -12.1162,3.55299 -22.77066,3.55299c-13.50635,0 -27.15901,-8.72632 -27.15901,-12.58528c0,-1.14735 2.01704,-6.47606 3.60331,-9.2608c0.46818,-0.8219 -0.31723,-1.2107 0.31354,-1.46875c4.42012,-1.80832 16.84369,11.50153 25.14909,11.50153c9.64029,0 18.23201,-2.72869 22.21519,-0.41309c1.59738,0.92863 0.10161,2.86037 0.10161,3.96496z" stroke-linecap="butt"/><g stroke-linecap="butt"><path d="M316.14314,92.08149c0,25.73493 -21.26091,46.59719 -47.48758,46.59719c-26.22667,0 -47.48759,-20.86228 -47.48759,-46.59718c0,-25.7349 21.26092,-46.59718 47.48759,-46.59718c26.22667,0 47.48758,20.86228 47.48758,46.59718z"/><path d="M269.32722,58.66276c-14.27597,0 -59.35246,17.63956 -59.35246,17.63956l17.37744,-5.84965c0,0 20.30846,-21.9557 40.45014,-21.9557c7.03344,0 22.97834,-9.62454 22.97834,-9.62454l8.69279,7.54621c0,0 3.84492,-1.48148 5.09454,-2.37165c1.60997,-1.14687 3.31976,-2.17145 3.31976,-2.17145c0,0 -1.77858,10.11329 -1.77858,11.12459c0,8.91287 -16.6403,5.66264 -36.78198,5.66264z"/><path d="M304.1018,123.29549c0,8.91287 -16.32806,16.13818 -36.46974,16.13818c-20.14168,0 -36.46974,-7.22531 -36.46974,-16.13818c0,-3.73202 1.54192,-3.79977 6.65955,-2.02671c0.08779,0.03042 5.10879,2.03393 5.27718,2.09625c7.05276,2.60982 15.54474,5.90287 26.05789,5.90287c20.14168,0 34.94487,-14.88527 34.94487,-5.9724z" data-paper-data="{&quot;index&quot;:null}"/><path d="M315.40595,93.55906c0,25.73493 -21.26092,46.59719 -47.48759,46.59719c-26.22667,0 -47.48759,-20.86228 -47.48759,-46.59719c0,-25.7349 21.26092,-46.59718 47.48759,-46.59718c26.22667,0 47.48759,20.86228 47.48759,46.59718z"/><path d="M295.83037,125.48303c0,2.57565 -2.11737,4.66361 -4.72929,4.66361c-2.61192,0 -4.7293,-2.08797 -4.7293,-4.66361c0,-2.57564 2.11739,-4.66361 4.7293,-4.66361c2.61192,0 4.72929,2.08797 4.72929,4.66361z"/><path d="M288.74833,128.74493c0,1.95894 -1.61041,3.54697 -3.59694,3.54697c-1.98653,0 -3.59693,-1.58802 -3.59693,-3.54697c0,-1.95894 1.6104,-3.54699 3.59693,-3.54699c1.98653,0 3.59694,1.58804 3.59694,3.54699z"/></g><path d="M278.21174,86.89211c0,6.56902 -4.67976,11.89426 -10.45253,11.89426c-5.77277,0 -10.45253,-5.32524 -10.45253,-11.89426c0,-6.56902 4.67976,-11.89427 10.45253,-11.89427c5.77277,0 10.45253,5.32525 10.45253,11.89427z" stroke-linecap="butt"/><path d="M307.31405,87.21921c0,6.56902 -4.67976,11.89426 -10.45254,11.89426c-5.77278,0 -10.45253,-5.32524 -10.45253,-11.89426c0,-6.56902 4.67976,-11.89427 10.45253,-11.89427c5.77278,0 10.45254,5.32525 10.45254,11.89427z" stroke-linecap="butt"/><path d="M325.36756,181.24609c-0.0922,-0.64539 0.00795,-1.14652 0.2064,-1.53474c-0.9479,0.18644 -1.89154,0.3946 -2.8302,0.62338c0.07943,0.32486 0.07793,0.6555 -0.03174,0.9845c-0.15477,0.46431 -0.31758,0.85229 -0.49843,1.16896c0.81636,0.34366 1.61271,0.67819 2.38266,0.94599c0.97806,0.34018 1.96615,0.54738 2.90161,0.78772c0.15639,-0.20472 0.33717,-0.36324 0.52746,-0.4857c-0.02488,-0.1222 -0.04027,-0.23979 -0.04726,-0.35285c-0.6121,0.01911 -2.32126,-0.11247 -2.61052,-2.13726zM321.98882,208.20961c-0.32355,-0.14182 -0.6582,-0.36256 -0.91612,-0.70615c-3.70645,0.70884 -7.14556,-0.41418 -9.23569,-2.67449c-1.42328,0.54093 -2.91049,0.81981 -4.16938,0.6234c-4.74448,-0.74019 0.16943,-5.16842 -0.32573,-6.49393c-0.20104,-0.53817 -2.58172,-2.36663 -2.90562,-2.8763c-2.45921,-3.86966 -2.03228,-7.82742 -0.35817,-12.00484c0.52348,-1.30624 1.13859,-2.87306 2.17677,-3.91392c0.59066,-0.59218 1.2137,-1.1342 1.86444,-1.6163c-0.76995,-4.2605 1.07849,-9.42976 5.04845,-10.71158c0.51059,-0.16485 1.09692,0.08517 1.57619,0.32637c3.57911,1.80119 5.8029,2.64243 5.51895,6.66651c-0.01914,0.27133 -0.05307,0.61634 -0.10533,1.00711c5.31471,-1.41109 10.8047,-2.29529 16.31617,-2.16963c3.40629,0.07766 4.73682,-0.42429 7.06599,3.04694c0.92159,1.37348 1.0457,4.94685 1.18086,6.65958l0.00736,0.60276c0,0 0,2.36549 -2.30096,2.49453c-0.24363,0.20937 -0.44047,0.31673 -0.44047,0.31673c-0.33158,0.13152 -0.65715,0.30747 -0.98143,0.49309c0.33887,0.37085 0.6217,0.77819 0.83453,1.22619c0.55813,1.17481 -0.1522,2.59684 -0.2283,3.89526l-0.74168,2.11087c0,0 -0.60649,1.61733 -2.15558,1.65915c0.26788,0.28412 0.49073,0.59952 0.65307,0.95179c0.82167,1.78297 -0.55152,5.18183 -1.1382,6.96068l-0.12577,0.72726c0,0 -0.49029,2.45145 -2.94174,1.96116c-0.09483,-0.01897 -0.18525,-0.04086 -0.27147,-0.06544c0.71917,5.44774 -5.31336,7.60126 -9.60082,5.28565c-1.47311,-0.79561 -2.2165,-2.48299 -3.30033,-3.78245zM326.41433,205.95157c0.02649,0.03956 0.05302,0.07906 0.07962,0.11849l0.06605,-0.02028c-0.04263,-0.02702 -0.09186,-0.05975 -0.14567,-0.09821zM331.11124,198.04848c-0.00349,0.00778 -0.00698,0.01556 -0.01048,0.02334l0.06258,0.00606c-0.01705,-0.00941 -0.03443,-0.01922 -0.0521,-0.0294z" stroke-linecap="butt"/><path d="M207.8663,215.46962c1.38675,-2.08013 3.46687,-0.69338 3.46687,-0.69338l-1.11524,0.59446c4.79265,-1.57757 -0.65022,-3.28088 -2.47072,-5.19306c-0.8431,-0.88555 -1.41124,-1.99711 -2.11686,-2.99566c0,0 -1.42302,-2.05549 0.63246,-3.47851c2.05548,-1.42302 3.4785,0.63245 3.4785,0.63245c2.91912,4.33089 11.60492,7.97619 5.57722,14.17265c-0.81448,0.83728 -2.11835,0.98501 -3.17753,1.47751l-3.58134,-1.0496c0,0 -2.08012,-1.38674 -0.69337,-3.46687z" stroke-linecap="butt"/></g><g fill="#000000" stroke="#000000"><path d="M291.97209,184.90088c0.21421,-0.07859 0.43973,-0.14721 0.67603,-0.21128l0.73341,-0.68516c-0.5573,-0.1498 -1.12582,-0.29992 -1.67918,-0.4828c0.05259,0.41983 0.10915,0.83694 0.22084,1.2186c0.01472,0.05029 0.03107,0.1039 0.04891,0.16064zM296.28519,197.49096c-0.0032,0.00416 -0.00642,0.00832 -0.00966,0.01245c0.02124,0.00642 0.04243,0.01303 0.06357,0.01986c0.04807,0.01552 0.0097,-0.00146 -0.05391,-0.03231zM290.53169,164.64221c0.28614,4.11223 -1.23281,10.43346 2.02497,13.85434c2.54366,2.67101 9.01007,0.5879 10.18183,5.78049c1.02389,4.53727 -3.72855,4.45497 -4.15694,7.76645c-0.53252,4.11641 6.13372,3.45205 1.29308,9.01531c-0.95843,1.10151 -2.78911,0.94045 -4.24084,1.09658c-4.87765,0.52456 -7.41986,-3.00316 -10.45459,-6.03619c-2.91998,-3.0689 -3.34486,-6.2295 -3.46012,-9.65652c-0.96902,-0.34426 -1.66289,-1.26929 -1.66289,-2.3564c0,-0.1348 0.01067,-0.26711 0.0312,-0.39613l0.35046,-2.45321c0.07562,-1.05925 0.1336,-2.20531 0.21337,-3.3864c-0.43401,-0.72592 -0.99547,-1.30579 -1.54591,-1.93738c-0.52473,-0.32892 -0.91863,-0.84727 -1.08585,-1.45922c-0.23206,-0.39613 -0.43776,-0.83874 -0.60025,-1.35195c-1.96563,-6.20851 2.43048,-12.40002 3.59708,-18.21285c0.74561,-3.71513 -0.00574,-7.24206 0.9538,-10.96404c0,0 0.64415,-2.41558 3.05974,-1.77143c2.41559,0.64416 1.77143,3.05974 1.77143,3.05974c-0.37473,1.34701 -0.49023,2.67531 -0.52711,4.00242c1.2672,0.12169 2.25807,1.18935 2.25807,2.48844c0,0.06018 -0.00213,0.11987 -0.00631,0.17898l-0.17808,2.84931c-0.0306,3.55203 1.68579,6.37823 2.18385,9.88966zM286.24795,177.06874c-0.02907,0.12648 -0.05798,0.25272 -0.08664,0.37868c0.06961,0.01398 0.13817,0.03086 0.20556,0.05049c-0.04194,-0.1422 -0.08155,-0.28528 -0.11892,-0.42917z" stroke-width="0.5" stroke-linecap="butt"/><g stroke-width="5"><path d="M224.75387,127.88393c0.1317,0.09842 3.47028,5.9701 3.47987,6.13971c0.43109,7.63752 -10.59134,25.82681 -13.766,33.13248c-1.84533,4.24659 -2.68758,14.50764 -4.01931,19.78677c-1.19959,4.75535 -0.63742,20.63403 -5.22438,21.24385c-1.06009,0.14094 -1.95541,0.04619 -2.70968,-0.23478c-2.25158,3.42534 -8.54326,1.79345 -10.63631,-1.89944c-1.79918,-1.07337 -2.07107,-3.4582 -2.34178,-6.19159c-0.21367,-2.15722 0.29204,-4.19301 1.27295,-5.70146c0.83123,-6.44076 -0.48447,-11.59849 0.54255,-19.10853c1.30242,-9.524 8.5066,-21.3301 13.69805,-27.28728c1.40004,-1.60654 2.64577,-4.64133 4.23977,-6.87359c0.37861,-2.51486 1.7422,-4.59376 3.60872,-5.43512c3.16395,-5.39039 7.75251,-10.63739 11.85558,-7.571z" stroke-linecap="butt"/><path d="M208.34569,206.8715c1.72253,2.705 -0.23983,4.92191 -0.23983,4.92191l-1.60352,1.49794c-4.59887,2.04587 -10.16047,-1.02987 -14.80097,0.88617c0,0 -2.47037,1.01999 -3.316,-2.32531c-0.84563,-3.34532 1.62476,-4.36532 1.62476,-4.36532c4.60183,-1.90005 10.12911,1.19126 14.69626,-0.84126l-0.04554,-0.26217c0,0 1.96231,-2.21692 3.68484,0.48809z" stroke-linecap="butt"/><g stroke-linecap="round"><path d="M190.13682,212.03565c0,0 -0.16326,-17.98895 0.26819,-25.8332c0.39343,-7.15341 2.217,-19.35119 2.217,-19.35119c0,0 4.54744,-8.65516 9.87903,-16.67755c0.43019,-0.64735 8.36491,-10.77408 9.77677,-12.8985c0.52138,-0.78455 1.60392,-2.49798 3.35867,-3.95944c3.97648,-3.31189 9.90429,-6.93473 9.90429,-6.93473"/><path d="M210.77926,173.52536c0,0 -0.12909,7.31036 -0.72396,11.35587c-0.88457,6.01561 -2.82762,26.82558 -2.82762,26.82558"/><path d="M221.36957,152.22822c-1.3375,1.36748 -1.51859,10.39939 -3.03452,12.55496c-3.63126,5.16348 -7.48498,7.16254 -7.48498,7.16254"/></g><path d="M225.51064,124.18127c2.18215,-1.64884 3.60529,0.87937 3.60529,0.87937l1.45998,3.83077c-0.78494,8.43517 -2.64082,17.62683 -6.80568,24.65872c0,0 -1.48084,2.48338 -3.62427,0.76767c-2.14343,-1.71568 -0.66258,-4.19905 -0.66258,-4.19905c3.67275,-6.11102 5.26733,-14.49791 5.91045,-21.85654l-0.64223,0.09612c0,0 -1.42316,-2.52825 0.75899,-4.17708z" stroke-linecap="butt"/></g><g stroke-linecap="butt"><path d="M197.76143,234.15754c-8.5016,0 -14.64143,-4.38392 -14.64143,-13.19357c0,-8.80963 6.89193,-15.95127 15.39353,-15.95127c8.50162,0 15.39355,7.14162 15.39355,15.95127c0,8.80965 -7.64405,13.19357 -16.14565,13.19357z" stroke-width="5"/><path d="M186.18187,217.3521c0.39475,-2.38413 3.8381,-7.91895 5.89442,-7.91895c0.14916,0 0.78043,-0.71032 2.30293,-1.25647c1.79398,-0.64355 4.17329,-0.69175 4.33581,-0.64271c0.17157,0.05177 0.67178,0.22793 0.77248,0.1293c1.21128,-1.18643 -3.01234,4.67848 -4.03333,6.53083c-0.4683,0.84961 -1.48387,2.81543 -2.20776,7.47535c-0.34232,2.20356 1.107,7.39947 1.64677,9.02268c0.06564,0.1974 0.44859,0.68 0.26333,0.76166c-1.2019,0.5298 -4.43699,-1.10969 -6.4772,-2.51563c-0.9103,-0.6273 -2.21929,-2.52545 -2.80267,-4.79806c-0.36169,-1.40899 -0.23184,-3.14417 -0.19795,-4.25866c0.03878,-1.27532 0.38457,-1.813 0.50318,-2.52936z" stroke-width="0"/></g><path d="M266.75735,305.09266l0.35091,0.68456c1.25923,-0.20513 1.38445,-2.12799 2.35055,-2.9391c1.33999,-1.12504 3.16798,-1.62219 4.89344,-2.00969c0.72617,-0.16308 1.47595,-0.30775 2.23339,-0.40955l-0.12203,-0.13043c1.4414,-0.58447 10.39929,-6.17845 11.55471,0.2939c0.94293,0.06592 1.90359,0.14328 2.83087,0.26295c1.52654,1.44797 2.98189,2.95605 4.40148,4.01524c0,0 2.14502,1.60801 0.49259,3.69214c-1.65242,2.08415 -3.79739,0.47612 -3.79739,0.47612c-1.18968,-0.89561 -2.45659,-2.24315 -3.77677,-3.55494c-1.12437,-0.12728 -2.42499,-0.11639 -3.75268,-0.15979c-0.48102,0.19756 -0.95015,0.38228 -1.36592,0.56524c-2.06453,0.90837 -7.94304,-1.4327 -9.56469,0.48168c-0.59418,0.70145 0.00156,2.00867 -0.66073,2.64983c-0.99667,0.9649 -2.55879,1.13705 -3.83814,1.70556l-3.85242,-0.60212c0,0 -2.58321,-0.79076 -1.77179,-3.30154c0.5297,-1.63905 1.81448,-1.87113 2.64274,-1.83472c-1.28044,-6.35591 7.97898,-6.1862 11.82443,-7.14638c2.67615,-0.66822 3.77322,-2.03647 6.90513,-1.13619c2.19475,0.6309 4.20987,2.34359 6.11418,4.1499c4.40521,0.56853 8.05678,2.09229 5.47105,7.88276c-0.67251,1.506 -2.1543,2.52853 -3.23144,3.79278c-4.43682,-1.21152 -8.48745,-3.04729 -13.07383,-3.54647c-2.29956,-0.25029 -7.56728,0.93192 -9.25178,0.471c-1.72417,-0.47176 -3.7191,-1.44379 -4.34449,-3.07564c-0.19002,-0.49581 -0.32608,-0.95892 -0.41327,-1.39179c0.44051,0.01938 0.75194,0.11468 0.75194,0.11468zM276.15034,303.36121c-0.10679,0.01552 -0.21904,0.02672 -0.33562,0.03462c0.63189,0.01369 1.26574,0.06374 1.8958,0.09191c0.60239,0.02695 1.21852,0.05942 1.84247,0.1024l-0.89038,-0.9515c-1.04163,0.3345 -1.98417,0.64585 -2.51232,0.72259zM271.44051,304.40308c-0.19968,0.96595 1.87662,-0.81333 2.88133,-0.94252c0.19178,-0.02466 0.38423,-0.04157 0.57705,-0.05239c-1.50223,-0.02965 -3.21444,-0.18522 -3.45841,0.9949zM291.49426,307.48836c-0.40602,-1.26867 -1.53782,-1.76618 -3.02058,-1.97582c1.1014,0.51255 2.12315,1.15855 3.02058,1.97582zM287.99259,305.29911c-0.40184,-0.39664 -0.80856,-0.788 -1.21937,-1.16049c-0.24176,0.1646 -0.50493,0.31774 -0.7804,0.46184c0.68511,0.1954 1.35451,0.42591 1.99975,0.69864z" data-paper-data="{&quot;index&quot;:null}" stroke-width="5" stroke-linecap="butt"/><path d="M241.60063,304.79152c-0.09864,0.43036 -0.24696,0.88975 -0.45005,1.38034c-0.66845,1.61467 -2.68851,2.53342 -4.42458,2.95925c-1.69614,0.41604 -6.93063,-0.90555 -9.23603,-0.71639c-4.59803,0.37729 -8.69593,2.10494 -13.16333,3.19828c-1.04322,-1.2924 -2.49735,-2.35391 -3.12964,-3.87724c-2.43114,-5.85705 1.25957,-7.28333 5.67833,-7.73475c1.95158,-1.75513 4.01146,-3.41376 6.22215,-3.98619c3.1547,-0.81685 4.21505,0.58006 6.87253,1.31906c3.81862,1.06187 13.07929,1.13797 11.63059,7.45765c0.82894,-0.01441 2.10708,0.25169 2.59312,1.9042c0.74452,2.53144 -1.85878,3.25335 -1.85878,3.25335l-3.86704,0.49966c-1.26387,-0.60226 -2.82083,-0.81575 -3.79153,-1.80676c-0.64507,-0.65851 -0.01485,-1.9495 -0.5902,-2.66647c-1.57029,-1.95673 -7.50885,0.22752 -9.54854,-0.73533c-0.41078,-0.19389 -0.87487,-0.39105 -1.35044,-0.60129c-1.32837,0.00815 -2.62825,-0.03726 -3.75559,0.06014c-1.35452,1.27632 -2.65674,2.58974 -3.86975,3.45344c0,0 -2.18691,1.55054 -3.78343,-0.57674c-1.59652,-2.12726 0.59041,-3.67778 0.59041,-3.67778c1.44723,-1.02114 2.94206,-2.49011 4.50648,-3.89703c0.93013,-0.09504 1.89252,-0.14684 2.83684,-0.1877c1.32677,-6.43941 10.13309,-0.60968 11.55844,0.01284l-0.12543,0.12712c0.75446,0.12187 1.50011,0.28638 2.22171,0.46868c1.71457,0.43314 3.52871,0.97861 4.83839,2.13882c0.94422,0.83646 1.01836,2.76196 2.2717,3.00043l0.36897,-0.675c0,0 0.31382,-0.08704 0.75469,-0.0947zM229.00995,302.11707l-0.91526,0.92755c0.62488,-0.02641 1.24165,-0.04248 1.84454,-0.05343c0.63061,-0.01146 1.26555,-0.04469 1.89757,-0.0416c-0.11631,-0.01097 -0.22819,-0.02516 -0.33454,-0.0435c-0.52593,-0.09072 -1.45992,-0.42696 -2.49231,-0.78902zM232.75198,302.98627c0.1925,0.01592 0.38439,0.03791 0.57546,0.06767c1.00097,0.1558 3.02929,1.98953 2.8553,1.01863c-0.21252,-1.1862 -1.92829,-1.07608 -3.43076,-1.0863zM219.12609,304.72959c-1.48779,0.17022 -2.63235,0.63752 -3.07191,1.89498c0.91879,-0.79318 1.95729,-1.41185 3.07191,-1.89498zM221.63028,303.88369c-0.27154,-0.15139 -0.53051,-0.31144 -0.76784,-0.48239c-0.42055,0.36143 -0.83747,0.74184 -1.24974,1.1277c0.65223,-0.25551 1.32753,-0.46814 2.01756,-0.64531z" stroke-width="5" stroke-linecap="butt"/><path d="M244.39311,289.64867c1.83115,2.58666 3.79308,5.69761 2.07676,10.82506c-0.07297,0.21805 -0.1496,0.43072 -0.22968,0.63819c0.04837,0.42697 0.07046,0.86149 0.06459,1.30196c-0.02414,1.81892 0.54241,4.32125 -0.31253,5.80303c-0.97995,1.6984 -3.12947,-4.07086 -8.68028,-7.96894c-5.08802,-3.57308 -13.65503,-5.2351 -13.65788,-5.30066c-0.40018,-9.17395 -1.60127,-17.88394 0.86666,-26.29892c0.12601,-1.34551 0.19834,-2.62294 0.19191,-3.81416c-0.04199,-7.78 -2.24898,-23.63611 -0.69958,-35.6547c0.63261,-4.90717 -0.39049,-10.10804 2.33955,-12.81115c1.83233,-1.81424 6.35392,-2.05605 10.46698,-2.00146c8.11778,0.10773 19.56518,2.88916 27.67268,3.30504c2.43638,0.12497 5.79526,1.83195 8.03856,2.76587c3.34547,1.39277 7.73485,-1.83341 10.27413,0.70163c1.59881,1.59614 -1.466,6.33468 -1.46855,9.77276c-0.00263,3.51394 1.14337,6.75652 0.95186,9.23158c-1.16991,15.11951 1.57884,27.80717 1.05028,42.80667c-0.11774,3.34084 -1.57966,6.32935 -1.41214,9.7416c0.05589,1.13857 -15.7065,14.36583 -21.90696,12.78823c-1.24808,-0.31754 -1.70145,-2.55572 -2.00901,-4.15828c-0.22752,-1.18543 1.30202,-3.50963 1.8703,-4.39778c0.5856,-0.91524 -1.80053,-5.94394 -1.78653,-6.99867c0.05425,-4.08749 -0.30632,-9.73233 -0.27408,-15.20471c0.11534,-1.06174 0.11236,-2.1698 0.07146,-3.21279c0.14531,-3.53785 0.53343,-6.84957 1.39971,-9.43115c0.28849,-0.8598 -1.08859,-4.00995 -2.12583,-6.58535c0.7868,-3.26687 1.66808,-7.19377 -0.57568,-9.01598c-0.01656,-0.39838 -0.03702,-0.79745 -0.06172,-1.19725c0.02899,-0.36068 0.0492,-0.71677 0.05917,-1.06698c0.07576,-0.5919 0.11792,-1.18436 0.10753,-1.77733c0.02695,-0.72806 0.02809,-1.47225 -0.01112,-2.24141c-0.07531,-1.47743 1.43133,-4.2951 -0.08329,-4.43689c-1.91281,-0.1791 -3.76675,-5.20882 -5.68923,-5.22619c-1.51375,-0.01369 -3.09502,4.96509 -4.61003,4.98811c-0.2327,2.80581 -0.79489,5.63715 -1.17176,8.29165c0.17728,0.73521 0.29069,1.47727 0.28073,2.22678c-0.01102,0.83057 0.00366,1.68992 0.03665,2.57196c-0.11732,0.94633 -0.23651,1.89423 -0.3591,2.84452c-0.83471,6.47014 -0.52696,12.43401 0.35851,18.465c-0.10064,1.08348 -0.83834,7.4866 -0.05562,11.1801c0.08199,2.91235 0.0557,5.75638 -0.9974,8.55101z" stroke-width="5" stroke-linecap="butt"/><path d="M247.05871,230.07083c-0.71107,1.24437 -1.65821,2.02661 -2.75693,2.48696c-3.58199,1.50082 -8.77503,-0.41942 -12.65144,-0.90008c-2.69257,-0.33387 -5.47104,0.85204 -7.19882,-1.64285c-1.10179,-1.59097 -1.37501,-4.87929 -0.45273,-6.74484c-0.01827,-0.12192 -0.02775,-0.2467 -0.02775,-0.37371c0,-1.22776 0.88503,-2.24882 2.05193,-2.45997c0.09689,-0.03131 0.19936,-0.0505 0.30832,-0.0556c2.4629,-0.11532 6.64755,1.41737 9.02602,2.07647c6.81091,1.88737 14.34102,2.48758 21.37724,2.63515c0.86663,0.01818 2.13702,-0.0033 3.39264,0.1398c0.24575,-0.17876 0.57337,-0.31387 1.03203,-0.40284c2.88039,-0.55877 7.33388,-0.12784 9.12476,-0.1283c2.86928,-0.00074 6.83237,-2.71099 9.13857,-0.32165c2.08155,2.1566 2.73683,9.01037 -1.02866,9.88942c-2.6932,0.62873 -5.5945,0.02309 -8.21164,0.65008c-2.40699,0.57665 -10.47486,3.89463 -12.3196,0.95668c-1.62811,-2.59293 1.78565,-4.21012 2.94179,-5.27552c-1.28903,0.093 -2.58941,-0.04621 -3.24131,-0.19098c-3.66643,-0.81421 -7.44672,-1.24159 -11.24965,-1.64238z" stroke-width="0.5" stroke-linecap="butt"/><path d="M238.65509,300.82213c1.55789,0.8195 5.84796,3.75252 5.41684,5.90812c-0.46225,2.31125 -1.32897,2.88905 -3.64022,2.42681c-1.56656,-0.31331 -2.15358,-2.36683 -3.33581,-3.44135c-1.85957,-1.69015 -5.21186,-2.9141 -7.46952,-4.04915c-1.14159,-0.57394 -5.34376,-0.66848 -7.58274,-1.15612c-0.19552,-0.02652 -4.03636,-0.72787 -4.2148,-0.7969c-0.93521,-0.3617 2.05401,-0.61743 2.05401,-1.68029c0,-1.38071 1.11929,-2.5 2.5,-2.5c0.30748,0 0.60198,0.05551 0.87405,0.15705c4.74121,-1.26279 11.19777,2.92227 15.39817,5.13181z" stroke-width="0.5" stroke-linecap="butt"/><path d="M283.02355,295.28777c0.28351,-0.12806 0.59539,-0.21249 0.92631,-0.24293c1.48598,-0.13673 2.79317,0.86701 2.91967,2.24192c0.09738,1.05839 4.42368,2.94133 3.4503,3.39411c-0.18572,0.08639 -5.34087,-0.75916 -5.54886,-0.71339c-2.365,0.70731 -6.87892,1.21757 -8.05496,1.90215c-2.3258,1.35384 -5.82154,2.90461 -7.66803,4.77179c-1.17392,1.18708 -1.61753,3.29009 -3.27483,3.75722c-2.44511,0.68918 -3.43086,0.19964 -4.14012,-2.05613c-0.6615,-2.10384 3.68693,-5.44935 5.28852,-6.41967c4.31822,-2.6162 10.8836,-7.42305 16.10201,-6.63506z" data-paper-data="{&quot;index&quot;:null}" stroke-width="0.5" stroke-linecap="butt"/><g stroke-width="5" stroke-linecap="round"><path d="M264.97256,229.79602l-4.53969,1.2965l-15.28591,-0.5746l0.39812,17.29386c-0.14907,1.21081 -0.30046,2.42384 -0.45746,3.64077c-0.83471,6.47014 -0.52696,12.43401 0.35851,18.465c-0.12126,1.3056 -1.16756,10.33542 0.63602,13.0408c0.08675,0.13011 0.18055,0.2565 0.28076,0.3788l0.23918,10.38959l0.81781,16.54593l-37.68157,0.08134l0.69654,-9.09269l13.16344,-6.37547l0.65699,-79.36381z"/><path d="M280.87057,220.01501l0.99811,74.10304l12.62957,7.71465l-0.10312,9.26454l-35.91483,-0.09631l0.12089,-18.24595c0,0 -0.663,-55.86874 -0.71771,-60.47875c-0.00705,-0.59515 1.37822,-0.60188 1.37822,-0.60188z"/><path d="M223.90885,214.20093l56.38088,4.90553"/></g><g><path d="M287.94246,148.45012c0.02017,0.43069 0.84305,2.9169 0.75007,3.32548c-0.10681,0.58584 0.38434,1.04341 0.10242,1.54532c-0.7093,1.52498 0.91753,3.74982 0.91116,5.32388c-0.02883,7.13518 2.33631,14.642 3.66001,21.80365c0.33146,1.79325 4.06587,-0.71442 5.45047,0.4724c4.82496,4.13568 5.96761,12.75971 4.50985,18.59074c-1.21423,4.85692 -11.67965,2.03875 -15.19466,-0.97414c-1.916,-1.64225 -4.62454,-1.43038 -5.63387,-4.81333c-1.75641,-5.88683 -4.95081,-12.5333 -4.77528,-20.55268c0.15973,-7.29832 1.97451,-17.05941 1.97451,-20.85011c0,-2.07794 -0.20362,-12.39068 2.20339,-12.52439c0.8322,-0.54024 3.14069,3.09287 4.20675,3.09287c2.61113,0 1.47962,1.88222 1.9287,4.3639c0.06659,0.20606 -0.10437,0.96473 -0.09352,1.19644z" stroke-width="5" stroke-linecap="butt"/><path d="M303.81482,204.20856c-2.61928,0.26193 -2.88123,-2.35737 -2.88123,-2.35737l-0.29962,-3.02909c-0.0061,-5.65143 -1.01458,-11.15341 2.65926,-15.75592c0,0 1.71312,-1.99863 3.71175,-0.28552c1.99863,1.71311 0.28551,3.71175 0.28551,3.71175c-2.6793,2.74744 -1.39396,8.3713 -1.39832,12.06749l0.28002,2.76746c0,0 0.26193,2.61929 -2.35737,2.88123z" stroke-width="5" stroke-linecap="butt"/><g stroke-width="5" stroke-linecap="round"><path d="M311.99723,182.35143c0,0 -10.90184,-0.3624 -14.029,-1.8513c-2.10664,-1.00303 -5.94013,-2.19243 -5.94013,-2.19243c0,0 -2.36996,-16.9113 -3.65145,-25.00742c-0.91024,-5.75069 -3.31228,-18.98703 -3.31228,-18.98703"/><path d="M308.02657,206.23556c0,0 -13.69397,-3.81106 -18.2554,-5.56458c-2.45436,-0.94352 -6.96523,-4.13092 -6.96523,-4.13092"/></g><path d="M299.70348,193.65553c0,-6.02799 2.21337,-10.91462 4.94369,-10.91462c2.73032,0 4.94369,4.88664 4.94369,10.91463c0,6.02799 -2.21337,10.91466 -4.94369,10.91466c-2.73032,0 -4.94369,-4.88667 -4.94369,-10.91466z" stroke-width="5" stroke-linecap="butt"/><path d="M305.99546,194.42599c0,-8.01367 6.12269,-14.51005 13.6754,-14.51005c7.55271,0 13.6754,6.49638 13.6754,14.51005c0,8.01367 -6.12269,14.51005 -13.6754,14.51005c-7.55271,0 -13.6754,-6.49639 -13.6754,-14.51005z" stroke-width="5" stroke-linecap="butt"/><path d="M309.60075,188.64785c0.45159,-0.99583 1.08612,-2.58447 2.01686,-3.64287c1.50122,-1.70711 3.48599,-2.7255 4.5668,-2.82519c2.42238,-0.22342 6.0085,-0.05954 6.84852,1.00181c0.12948,0.16359 -0.41975,0.39766 -0.56346,0.53852c-1.18174,1.15828 -4.71676,5.00401 -5.36478,7.10945c-1.37038,4.45246 -1.31682,6.6829 -1.26754,7.66145c0.10744,2.13345 1.32902,9.37976 0.76448,7.73693c-0.04693,-0.13657 -0.56797,-0.22986 -0.74295,-0.26945c-0.16575,-0.0375 -2.26121,-1.2596 -3.57869,-2.71447c-1.11811,-1.2347 -1.37254,-2.17169 -1.50521,-2.24565c-1.82899,-1.01961 -2.49924,-7.58904 -1.81981,-9.87912c0.20415,-0.6881 0.129,-1.3319 0.64576,-2.47144z" data-paper-data="{&quot;index&quot;:null}" stroke-width="0" stroke-linecap="butt"/></g><path d="M219.88087,227.08493c0,0 -6.1723,-31.53147 -5.15336,-53.49816c0.61317,-13.21872 7.66499,-30.662 11.63371,-41.65448c1.68376,-4.66365 1.20362,-10.33433 1.20362,-10.33433l58.5925,4.27034c0,0 -3.49787,5.48729 -6.04744,14.47916c-3.45207,12.17477 -6.2048,29.80868 -5.90698,39.90972c0.07743,2.62593 -0.11157,10.63191 0.13434,13.32424c0.39569,4.33245 7.08004,27.64147 7.40765,31.77029c1.08462,13.66916 -4.56219,5.93842 -4.56219,5.93842c0,0 -0.13214,-1.13814 -7.0221,0.77039c-6.40614,1.7745 -14.99406,1.15246 -21.07402,1.08856c-4.99267,-0.05246 -11.82123,-2.35755 -18.04818,-3.21875c-8.53378,-1.18025 -11.15756,-2.84539 -11.15756,-2.84539z" stroke-width="5" stroke-linecap="butt"/><path d="M280.1339,139.56332c0,0.34408 -0.83997,2.94111 -1.00811,3.27187c-0.23005,0.45253 0.04286,1.0471 -0.44497,1.43658c-3.15453,2.51857 -12.1162,3.55299 -22.77066,3.55299c-1.06839,0 9.71064,-4.79394 8.64725,-4.89642c-12.37976,-1.19302 -35.80626,-4.13516 -35.80626,-7.68886c0,-1.14735 2.01704,-6.47606 3.60331,-9.2608c0.46818,-0.8219 -0.31723,-1.2107 0.31354,-1.46875c4.42012,-1.80832 16.84369,11.50153 25.14909,11.50153c9.64029,0 18.23201,-2.72869 22.21519,-0.41309c1.59738,0.92863 0.10161,2.86037 0.10161,3.96496z" stroke-width="0" stroke-linecap="butt"/><g stroke-linecap="butt"><path d="M317.26833,92.49652c0,25.73493 -21.26091,46.59719 -47.48758,46.59719c-26.22667,0 -47.48759,-20.86228 -47.48759,-46.59718c0,-25.7349 21.26092,-46.59718 47.48759,-46.59718c26.22667,0 47.48758,20.86228 47.48758,46.59718z" stroke-width="0"/><path d="M270.45241,58.77161c-20.14168,0 -37.99461,14.88526 -37.99461,5.97239c0,-8.91287 16.32806,-16.13818 36.46974,-16.13818c20.14168,0 36.46974,7.22531 36.46974,16.13818c0,8.91287 -14.80319,-5.97239 -34.94487,-5.97239z" stroke-width="0"/><path d="M305.22699,123.71052c0,8.91287 -16.32806,16.13818 -36.46974,16.13818c-20.14168,0 -36.46973,-7.22531 -36.46973,-16.13818c0,-3.73202 1.54192,-3.79977 6.65955,-2.02671c0.08779,0.03042 5.10879,2.03393 5.27718,2.09625c7.05276,2.60982 15.54474,5.90287 26.05789,5.90287c20.14168,0 34.94487,-14.88527 34.94487,-5.9724z" data-paper-data="{&quot;index&quot;:null}" stroke-width="0"/><path d="M316.53114,93.97409c0,25.73493 -21.26092,46.59719 -47.48759,46.59719c-26.22667,0 -47.48759,-20.86228 -47.48759,-46.59719c0,-25.7349 21.26092,-46.59718 47.48759,-46.59718c26.22667,0 47.48759,20.86228 47.48759,46.59718z" stroke-width="5"/><path d="M296.95556,125.89806c0,2.57565 -2.11737,4.66361 -4.72929,4.66361c-2.61192,0 -4.7293,-2.08797 -4.7293,-4.66361c0,-2.57564 2.11739,-4.66361 4.7293,-4.66361c2.61192,0 4.72929,2.08797 4.72929,4.66361z" stroke-width="0"/><path d="M289.87352,129.15996c0,1.95894 -1.61041,3.54697 -3.59694,3.54697c-1.98653,0 -3.59693,-1.58802 -3.59693,-3.54697c0,-1.95894 1.6104,-3.54699 3.59693,-3.54699c1.98653,0 3.59694,1.58804 3.59694,3.54699z" stroke-width="0"/></g><path d="M326.49275,181.66112c-0.0922,-0.64539 0.00795,-1.14652 0.2064,-1.53474c-0.9479,0.18644 -1.89155,0.3946 -2.8302,0.62338c0.07943,0.32486 0.07793,0.6555 -0.03174,0.9845c-0.15477,0.46431 -0.31758,0.85229 -0.49843,1.16896c0.81636,0.34366 1.61271,0.67819 2.38266,0.94599c0.97806,0.34018 1.96615,0.54738 2.90161,0.78772c0.15639,-0.20472 0.33717,-0.36324 0.52746,-0.4857c-0.02488,-0.1222 -0.04028,-0.23979 -0.04726,-0.35285c-0.6121,0.01911 -2.32126,-0.11247 -2.61051,-2.13726zM323.11401,208.62464c-0.32355,-0.14182 -0.6582,-0.36256 -0.91612,-0.70615c-3.70645,0.70884 -7.14556,-0.41418 -9.23569,-2.67449c-1.42328,0.54093 -2.91049,0.81981 -4.16938,0.6234c-4.74448,-0.74019 0.16943,-5.16842 -0.32573,-6.49393c-0.20104,-0.53817 -2.58172,-2.36663 -2.90562,-2.8763c-2.45921,-3.86966 -2.03228,-7.82742 -0.35817,-12.00484c0.52348,-1.30624 1.13859,-2.87306 2.17677,-3.91392c0.59066,-0.59218 1.2137,-1.1342 1.86444,-1.6163c-0.76995,-4.2605 1.07849,-9.42976 5.04845,-10.71158c0.51059,-0.16485 1.09692,0.08517 1.57619,0.32637c3.57911,1.80119 5.8029,2.64243 5.51895,6.66651c-0.01914,0.27133 -0.05307,0.61634 -0.10533,1.00711c5.31471,-1.41109 10.8047,-2.29529 16.31616,-2.16963c3.40629,0.07766 4.73683,-0.42429 7.066,3.04694c0.92159,1.37348 1.04569,4.94685 1.18085,6.65958l0.00737,0.60276c0,0 0,2.36549 -2.30096,2.49453c-0.24363,0.20937 -0.44047,0.31673 -0.44047,0.31673c-0.33158,0.13152 -0.65715,0.30747 -0.98143,0.49309c0.33886,0.37085 0.6217,0.77819 0.83453,1.22619c0.55813,1.17481 -0.1522,2.59684 -0.2283,3.89526l-0.74169,2.11087c0,0 -0.60649,1.61733 -2.15558,1.65915c0.26788,0.28412 0.49074,0.59952 0.65308,0.95179c0.82167,1.78297 -0.55152,5.18183 -1.1382,6.96068l-0.12577,0.72726c0,0 -0.4903,2.45145 -2.94175,1.96116c-0.09483,-0.01897 -0.18525,-0.04086 -0.27147,-0.06544c0.71917,5.44774 -5.31336,7.60126 -9.60082,5.28565c-1.47311,-0.79561 -2.2165,-2.48299 -3.30032,-3.78245zM327.53951,206.3666c0.02649,0.03956 0.05303,0.07906 0.07963,0.11849l0.06604,-0.02028c-0.04262,-0.02702 -0.09186,-0.05975 -0.14567,-0.09821zM332.23642,198.46351c-0.00349,0.00778 -0.00698,0.01556 -0.01047,0.02334l0.06257,0.00606c-0.01705,-0.00941 -0.03443,-0.01922 -0.0521,-0.0294z" stroke-width="0.5" stroke-linecap="butt"/><path d="M208.99149,215.88465c1.38675,-2.08013 3.46687,-0.69338 3.46687,-0.69338l-1.11524,0.59446c4.79265,-1.57757 -0.65022,-3.28088 -2.47072,-5.19306c-0.8431,-0.88555 -1.41124,-1.99711 -2.11686,-2.99566c0,0 -1.42302,-2.05549 0.63246,-3.47851c2.05548,-1.42302 3.4785,0.63245 3.4785,0.63245c2.91912,4.33089 11.60492,7.97619 5.57722,14.17265c-0.81448,0.83728 -2.11835,0.98501 -3.17753,1.47751l-3.58134,-1.0496c0,0 -2.08012,-1.38674 -0.69337,-3.46687z" stroke-width="0.5" stroke-linecap="butt"/></g><path d="" fill="#ffffff" stroke="#ffffff" stroke-width="0.5" stroke-linecap="butt"/><path d="" fill="#ffffff" stroke="#ffffff" stroke-width="0.5" stroke-linecap="butt"/><path d="M257.97695,88.65447c0,-1.38071 1.11929,-2.5 2.5,-2.5c1.38071,0 2.5,1.11929 2.5,2.5c0,1.38071 -1.11929,2.5 -2.5,2.5c-1.38071,0 -2.5,-1.11929 -2.5,-2.5z" fill="#ffffff" stroke="none" stroke-width="0.5" stroke-linecap="butt"/><path d="M291.36926,89.80854c0,-1.38071 1.11929,-2.5 2.5,-2.5c1.38071,0 2.5,1.11929 2.5,2.5c0,1.38071 -1.11929,2.5 -2.5,2.5c-1.38071,0 -2.5,-1.11929 -2.5,-2.5z" fill="#ffffff" stroke="none" stroke-width="0.5" stroke-linecap="butt"/><path d="M-10.28819,379.66056v-400.9009h549.54955v400.9009z" fill="none" stroke="none" stroke-width="0" stroke-linecap="butt"/></g></g></svg>