<svg version="1.1" xmlns="http://www.w3.org/2000/svg" xmlns:xlink="http://www.w3.org/1999/xlink" width="347" height="294.00003" viewBox="0,0,347,294.00003"><g transform="translate(-85,-32.5)"><g data-paper-data="{&quot;isPaintingLayer&quot;:true}" fill-rule="nonzero" stroke-linejoin="miter" stroke-miterlimit="10" stroke-dasharray="" stroke-dashoffset="0" style="mix-blend-mode: normal"><path d="M85,326.50003v-286h347v286z" fill="none" stroke="none" stroke-width="0" stroke-linecap="butt"/><text transform="translate(240.22476,116.84676) scale(0.20352,0.20352)" font-size="40" xml:space="preserve" fill="#000000" fill-rule="nonzero" stroke="none" stroke-width="1" stroke-linecap="butt" stroke-linejoin="miter" stroke-miterlimit="10" stroke-dasharray="" stroke-dashoffset="0" font-family="Sans Serif" font-weight="normal" text-anchor="start" style="mix-blend-mode: normal"><tspan x="0" dy="0">Polargaming64</tspan><tspan x="0" dy="46.150000000000006px"> </tspan><tspan x="0" dy="46.150000000000006px">MeIzAwezomeDede</tspan><tspan x="0" dy="46.150000000000006px"> </tspan><tspan x="0" dy="46.150000000000006px">AwezomeXD</tspan></text><path d="M247.22476,198.60887c0,5.33875 -33.06429,8.66667 -37.66667,8.66667c-4.60237,0 -7.33333,-1.99458 -7.33333,-7.33333c0,-5.33875 2.23096,-13 6.83333,-13c0.78933,0 8.95988,-5.16714 15.14763,-7.38785c7.31946,-2.62687 12.8626,-16.32871 14.40623,-15.60722c4.76031,2.22494 8.61281,31.32168 8.61281,34.66174z" fill="#d38ddd" stroke="#000000" stroke-width="3.5" stroke-linecap="butt"/><path d="M216.55809,202.77554c0,0 -1.89982,12.16667 -10,12.16667c-8.10018,0 -26.33133,0.86748 -26.33133,-5.66789c0,-6.53537 19.06449,-20.99877 27.16467,-20.99877c8.10018,0 9.16667,14.5 9.16667,14.5z" fill="#f89587" stroke="#000000" stroke-width="3.5" stroke-linecap="butt"/><g stroke-linecap="butt"><path d="M320.6169,213.97595c0,6.72542 -26.61714,9.63291 -30.82282,9.63291c-4.20567,0 -2.17573,-9.81409 -2.17573,-16.5395c0,-3.84489 -1.15873,-12.40353 -0.43361,-18.09547c0.54325,-4.26432 4.43423,-7.53169 6.23554,-7.53169c1.62024,0 13.28102,1.56808 18.08873,7.25088c4.02851,4.76177 1.085,13.2788 4.26899,17.81156c2.87945,4.0992 4.83888,5.50793 4.83888,7.47132z" fill="#aa96c7" stroke="#000000" stroke-width="3.5"/><path d="M312.18596,194.35886l0.30055,9.68333c0,0 -12.9509,-3.14778 -20.66368,-3.29544c-2.25309,-0.04313 0.57374,4.93417 -1.53084,4.08613c-3.02229,-1.21783 -4.53272,-19.66111 -0.64011,-20.58483c0.836,-0.19838 5.91381,-1.56383 11.19061,0.93895c5.5765,2.64492 11.34349,9.17186 11.34349,9.17186z" fill="#a7649a" stroke="none" stroke-width="0"/><path d="M301.04236,212.40948c2.87853,2.45959 7.12369,6.61499 10.3392,7.29483c3.63151,0.76779 9.86038,-4.60777 9.86038,-4.60777c0,0 6.59474,5.95932 6.89544,12.42496c0.15414,3.31393 -2.93555,5.87812 -5.79245,8.81462c-3.95174,4.06187 -8.20325,8.1511 -9.5039,9.76742c-1.3383,1.66309 -6.21069,6.59239 -9.84143,6.60237c-1.29017,0.00355 -6.17018,-4.10308 -9.01438,-9.56372c-3.11543,-5.98135 -4.49502,-12.83749 -6.27174,-12.16068c-4.47672,1.70532 -13.23771,3.19836 -17.31413,8.26333c-0.40058,0.49771 -0.47891,4.24866 -0.47891,4.24866c0,0 -5.42925,-0.09146 -7.89255,-0.35981c-2.16835,-0.23622 -6.65954,-1.16624 -6.65954,-1.16624c0,0 -2.25419,-4.42458 -5.51354,-7.12547c-2.88683,-2.3922 -8.77608,1.75784 -9.44179,2.23351c-1.20409,0.86034 -5.00147,-6.55875 -7.71162,-3.35998c-2.35337,2.77767 -6.80318,4.62251 -6.80318,4.62251c0,0 -14.28018,-14.04339 -18.99257,-13.59367c-3.9497,0.37693 -6.15085,0.14275 -8.96315,0.57813c-6.56446,1.01626 -10.11954,1.68221 -10.11954,1.68221c0,0 0.51108,-4.40395 1.4293,-6.87344c1.16512,-3.13353 3.62081,-9.26472 4.99882,-10.41456c0.81911,-0.68347 4.62682,1.42056 7.62074,2.38783c3.65983,1.18242 12.74446,4.19175 12.74446,4.19175c0,0 -0.08779,-2.10177 1.04469,-3.05238c0.54439,-0.45696 1.9572,0.50547 2.68893,-0.08461c4.98918,-4.02335 13.7722,-10.48793 18.69892,-10.48793c14.07292,0 31.77224,5.46061 41.09549,10.50115c7.99124,4.3204 8.6743,7.08218 8.6743,7.08218c0,0 13.32253,-8.61527 14.22377,-7.8452z" fill="#0044d5" stroke="#000000" stroke-width="3.5"/><path d="M237.69748,232.57968c0,0 -1.70861,1.82066 -4.15106,4.46243c-2.18831,2.3669 -6.37601,-0.40981 -6.94115,-0.48743c-1.19063,-0.16352 7.77381,2.34853 6.44062,0.12891c-0.60639,-1.00955 -16.64789,2.88526 -17.16378,1.83944c-1.17189,-2.3757 -6.65051,-23.6993 -5.43697,-30.87453c0.59266,-3.5041 8.21516,3.98117 8.21516,3.98117l3.75669,-1.925c0,0 6.04089,-8.88472 19.1474,-8.70053c13.58317,0.19089 34.37922,9.48049 42.07347,11.22594c2.72744,0.61872 2.65304,9.96369 3.01141,10.38816c0.20394,0.24157 2.34844,7.32816 2.34844,7.32816l-11.56403,2.26021c0,0 2.31939,-7.18861 1.4325,-6.88626c-4.5666,1.55687 -30.56814,0.78695 -30.56814,0.78695l3.4462,6.32655l-9.62307,-0.0083z" fill="#0a1297" stroke="none" stroke-width="0"/><path d="M243.35958,230.62968l-6.13542,-9.4c0,0 4.94962,5.2342 6.68138,6.49096c1.71294,1.2431 5.22272,3.20904 5.22272,3.20904z" fill="#000000" stroke="none" stroke-width="0"/><path d="M325.08421,223.32968l1.7948,5.20247c0,0 -5.18947,6.68823 -10.63671,12.75712c-4.78587,5.33205 -10.42346,9.94041 -12.26265,9.94041c-0.91573,0 -4.79775,-2.60498 -7.09963,-6.32829c-3.74811,-6.06264 -2.44333,-5.42983 -2.44333,-5.42983c0,0 6.77013,2.75812 10.41325,2.75812c2.24021,0 7.14162,-14.27551 7.14162,-14.27551l-12.71351,-13.21959c0,0 -0.67636,-1.96219 2.39159,-0.16898c2.29644,1.34226 5.71114,4.68754 7.06674,5.28831c2.41145,1.06869 5.35235,0.82377 5.35235,0.82377l6.9142,-3.74765z" fill="#0a1297" stroke="none" stroke-width="0"/></g><g><path d="M290.67223,216.02553c0,0 -5.31114,3.41667 -33.73939,3.41667c-40.35046,0 -47.2081,-18.58334 -47.2081,-18.58334c0,0 13.53872,-10.68256 28.2674,-17.33343c14.20931,-6.41635 8.16551,-23.62123 21.72895,-23.4999c1.38043,0.01235 43.28321,-14.18812 54.21416,-16.07306c8.86349,-1.52842 2.32583,1.59126 7.47051,7.92103c0.29847,0.36723 1.72996,5.35782 1.79069,5.94242c0.17658,1.69977 10.51113,4.49982 8.12632,9.49639c-1.64809,3.453 -11.21767,7.68147 -10.91614,9.28692c0.94905,5.05321 10.68633,3.95576 10.30536,9.01507c-0.67889,7.40917 -12.3297,10.43371 -18.23777,9.88557c-7.41304,-0.68778 -14.66143,-1.90767 -14.66143,-1.90767c0,0 -7.11232,4.65087 -7.46231,12.76623c-0.28487,6.60523 0.32176,9.6671 0.32176,9.6671z" fill="#ada0fb" stroke="#000000" stroke-width="3.5" stroke-linecap="butt"/><path d="M327.48682,169.81717c0,0 -1.63195,0.19863 -3.75909,1.5294c-1.303,0.81518 -2.57711,2.67995 -4.40637,3.34916c-9.00009,3.29262 -23.58304,11.69613 -37.95841,12.47279c-1.69381,0.09151 -5.15613,-3.729 -6.89333,-3.99267c-5.53467,-0.84005 -9.28221,0.87181 -12.83778,2.18511c-4.57547,1.69001 -5.90358,9.02271 -8.05884,9.35647c-15.02894,2.3274 -9.64324,-12.7336 -9.64324,-12.7336c0,0 2.68227,-2.48159 3.74345,-5.11434c1.83817,-4.56037 4.90062,-11.07451 7.91351,-12.62796c4.51774,-2.32934 60.52134,-18.5077 60.52134,-18.5077c0,0 8.37011,7.75907 9.34188,8.95638c0.37104,0.45714 -1.51157,3.65068 -0.7692,5.48192c0.84019,2.07258 5.64508,2.53505 5.26773,4.27784c-0.23375,6.07958 -2.46165,5.36719 -2.46165,5.36719z" fill="#9665ee" stroke="none" stroke-width="0" stroke-linecap="butt"/><path d="M299.18886,192.02553l-4.43478,3.125c0,0 -4.06138,-1.88128 -4.79515,-4.42477c-0.85451,-2.96197 -2.08707,-8.28357 -2.08707,-8.28357c0,0 3.31709,4.56785 5.34239,6.69552c1.84468,1.93791 5.9746,2.88782 5.9746,2.88782z" fill="#000000" stroke="none" stroke-width="0" stroke-linecap="butt"/><path d="M294.23139,194.34926c0,0 -3.50271,3.26331 -4.25286,5.15657c-0.87248,2.20201 -1.54528,5.89472 -1.54528,5.89472c0,0 -0.15846,-9.17446 -0.91715,-13.26837c-0.73053,-3.94201 -0.78535,-9.85664 -0.78535,-9.85664c0,0 -0.37203,-1.12943 0.35474,0.65217c0.40287,0.9876 0.98154,1.58786 1.59672,3.07536c1.10514,2.67223 2.32806,6.35175 2.86122,7.09874c0.79033,1.10732 2.68796,1.24745 2.68796,1.24745z" fill="#9665ee" stroke="none" stroke-width="0" stroke-linecap="butt"/><path d="M263.20982,208.3172c-7.97976,2.17004 -21.80785,-6.42242 -21.80785,-11.08334c0,-4.37262 6.24374,-8.23267 14.17193,-9.85967c4.3281,-0.88819 17.67349,-6.90606 23.71652,-2.28232c3.42286,2.61897 1.03408,18.89198 -13.67494,22.89198z" fill="none" stroke="#ac1e52" stroke-width="4.5" stroke-linecap="butt"/><path d="M257.59754,188.48387l7.26623,17" fill="none" stroke="#ac1e52" stroke-width="4.5" stroke-linecap="round"/></g><path d="M368.66118,154.28456c-4.37403,-2.87777 -9.55811,-10.05631 -11.82777,-14.17468c-2.63821,-4.7871 -3.46525,-5.94318 -1.67033,-8.67133c3.33908,-5.0752 13.09413,0.4353 22.55244,6.65815c5.67432,3.73328 10.73631,7.57823 11.66269,9.78201c0.78946,1.87804 -1.79491,5.99845 -3.71992,8.13147c-1.93213,2.14089 -3.04086,4.18736 -6.56185,3.94296c0,0 -0.97693,0.55428 -10.43526,-5.66858z" fill="#0066cc" stroke="#000000" stroke-width="5" stroke-linecap="butt"/><path d="M383.41653,155.81275c0,0 -2.19062,3.0133 -4.7037,2.30283c-1.33171,-0.37648 -9.1283,-4.63096 -13.19564,-9.60911c-3.13401,-3.83582 -6.92142,-7.90936 -8.18187,-10.96285c-0.81645,-1.97789 0.33764,-3.85532 0.33764,-3.85532c0,0 8.53555,8.11271 12.7878,11.98791c4.14287,3.77549 12.95578,10.13651 12.95578,10.13651z" fill="#0a1296" stroke="none" stroke-width="0" stroke-linecap="butt"/><path d="M218.8474,177.01565c0.19987,-2.14734 3.81058,-9.57119 9.37009,-15.81134c4.82434,-5.41497 10.20179,-7.2512 10.20179,-7.2512c0,0 -3.72345,-10.10404 -4.57559,-13.90503c-0.89677,-4.00012 0.5637,-12.85897 0.5637,-12.85897c0,0 27.24885,-15.95387 54.21466,-14.62407c25.05707,1.23567 50.24339,21.80025 52.65487,26.0147c0.21568,0.37694 0.50166,6.71037 -1.17159,11.72005c-1.24407,3.72476 -1.3995,0.68174 -5.88205,2.50981c1.09471,2.11932 -10.1353,11.83472 -17.65149,15.6198c-11.10747,5.59361 -25.27398,9.98597 -31.48733,10.83577c-10.75246,1.47061 -30.59518,3.2962 -43.65456,0.32808c-11.98784,-2.72459 -22.58251,-2.57759 -22.58251,-2.57759z" fill="#aa96c7" stroke="#000000" stroke-width="3.5" stroke-linecap="butt"/><path d="M339.82268,139.45435c0,0 -0.0674,4.93935 -3.66557,9.47555c-3.45161,4.35143 -11.03537,12.09464 -11.03537,12.09464l-4.85341,-9.97134l-11.971,9.84389c0,0 -2.46756,-6.95912 -4.4111,-11.42014c-2.27022,-5.21086 -8.38307,-17.9464 -8.38307,-17.9464l-20.76004,22.62524l-10.3431,-22.07129l-27.18574,13.05374l-5.66565,-16.56099c0,0 72.15172,-13.24102 78.65895,-12.63535c6.50725,0.60566 29.6151,23.51244 29.6151,23.51244z" fill="#a7649a" stroke="none" stroke-width="0" stroke-linecap="butt"/><path d="M341.29252,140.83142c-6.8777,-1.33093 -33.00636,-7.61555 -42.64605,-14.61071c-18.59503,-13.49373 -30.77479,-17.61694 -41.10853,-18.57876c-19.61339,-1.82552 -26.40885,2.85224 -25.54727,-6.40453c0.20057,-2.15492 -15.29986,-27.01279 -13.55417,-28.75908c5.75323,-5.75523 38.50497,-19.21964 72.82091,-16.15709c14.45821,1.29033 33.08619,12.8623 34.72148,13.74391c15.17571,8.18144 34.25106,45.48266 33.51412,53.40039c0,0 2.79435,0.2931 0.70368,3.1056c-2.25275,3.03057 -6.6319,3.83552 -10.18702,6.64139c-3.86903,3.05365 -6.90013,7.97049 -8.71716,7.61888z" fill="#ac1e52" stroke="#000000" stroke-width="5" stroke-linecap="butt"/><path d="M276.6529,131.58082c-0.29432,-2.49423 -0.23904,-7.58945 -0.23904,-7.58945c0,0 -11.10859,2.70072 -17.99763,4.59771c-7.05427,1.94248 -26.23345,7.79748 -26.23345,7.79748l1.33015,5.67945c0,0 -5.80613,1.00114 -10.61034,2.71612c-5.61454,2.00423 -19.35975,12.9106 -19.35975,12.9106c0,0 2.60633,-11.82925 4.42822,-17.14552c1.6439,-4.79691 6.02415,-13.35447 6.02415,-13.35447c0,0 1.03978,0.27177 -1.06849,0.07554c-10.81486,-1.00661 -21.27745,2.30816 -21.27745,2.30816c0,0 7.92835,-13.7315 16.72657,-25.88991c7.7072,-10.65071 16.31454,-19.93919 17.73283,-19.80718c0.60554,0.05636 7.65259,0.82985 17.01616,3.75457c8.39469,2.62208 16.24001,8.76447 16.24001,8.76447c0,0 0.06448,-6.77326 1.34937,-12.31261c0.96129,-4.14428 2.8992,-6.71737 4.4061,-10.04122c0.93985,-2.07308 1.14585,3.57523 1.14585,3.57523l9.16159,-12.41582c0,0 0.13127,9.19513 1.20391,14.60326c1.66778,8.40872 4.66634,14.74986 5.69567,17.8143c3.11015,9.25935 12.61987,27.05817 12.61987,27.05817c0,0 -6.3487,5.72531 -8.81541,8.18379c-1.76293,1.75708 -7.98984,5.81597 -7.98984,5.81597c0,0 -1.2074,-4.71186 -1.48905,-7.09863z" fill="#44acff" stroke="#000000" stroke-width="3.5" stroke-linecap="butt"/><path d="M271.842,107.03555l1.97419,-32.51964c0,0 5.72253,18.1709 8.54949,26.21622c3.1341,8.91945 10.89009,23.52881 10.89009,23.52881c0,0 -3.94959,3.15501 -5.80658,5.0979c-1.88033,1.96729 -7.93873,6.6151 -7.93873,6.6151c0,0 -1.14344,-4.19188 -1.38516,-6.43949c-0.26842,-2.49611 0.02229,-7.2691 0.02229,-7.2691c0,0 -14.77678,3.1509 -22.65921,5.46294c-6.82283,2.00122 -24.4974,7.33494 -24.4974,7.33494l0.75807,5.52168c0,0 -2.44965,0.1085 -5.51643,1.09467c-3.54641,1.1404 -12.93667,6.99809 -12.93667,6.99809c0,0 5.15073,-9.72998 8.27705,-14.67558c3.19575,-5.05543 10.69374,-15.33474 10.69374,-15.33474l-18.15389,-1.35108l29.02022,-21.32796z" fill="#356fee" stroke="none" stroke-width="0" stroke-linecap="butt"/><path d="M341.04774,141.98736l-2.15738,19.13238c0,0 -9.30089,-9.14324 -13.0726,-12.68045c-2.69669,-2.52907 -7.43502,-6.55222 -7.43502,-6.55222l-6.71467,10.35349c0,0 -5.51092,-11.20532 -8.0386,-15.81064c-2.20832,-4.02352 -6.29915,-10.31234 -6.29915,-10.31234z" fill="#44acff" stroke="#000000" stroke-width="3" stroke-linecap="butt"/><path d="M339.46151,142.84403l-1.39013,14.93545l-19.73757,-17.52503l-6.17982,8.39811l0.60158,-12.75321l-8.86473,-2.12313l-3.05832,-4.82191c0,0 13.92905,4.76477 19.99163,6.92653c6.00668,2.14181 18.63739,6.9632 18.63739,6.9632z" fill="#356fee" stroke="none" stroke-width="0" stroke-linecap="butt"/><path d="M350.56992,132.22851c-3.48619,3.94914 -8.82899,8.13693 -8.82899,8.13693c0,0 -8.86127,-3.52826 -13.60135,-5.14085c-5.15525,-1.75385 -21.60282,-7.02461 -21.60282,-7.02461c0,0 -0.59757,-6.41855 0.56116,-13.49356c1.51367,-9.24219 1.33952,-25.97269 6.22596,-33.85555c5.12727,-8.27138 10.62091,-10.14148 10.62091,-10.14148c0,0 13.46314,7.39702 19.50913,18.31554c6.88347,12.4309 15.03455,29.40906 14.82082,35.99496c-0.00762,0.2352 -2.13313,0.85605 -2.61951,1.85295c0,0 -1.79771,1.63147 -5.08535,5.35569z" fill="#730e67" stroke="#000000" stroke-width="2.5" stroke-linecap="butt"/><path d="M362.93452,125.86691c2.18317,3.39332 0.51081,16.1846 -3.949,26.81395c-2.85005,6.79268 -5.29693,10.93864 -8.23177,10.66549c-5.34999,-0.49795 -9.70159,-8.00673 -9.70159,-8.00673l0.91763,-13.45463c0,0 18.09139,-20.48411 20.96473,-16.01807z" fill="#aa96c7" stroke="#000000" stroke-width="4.5" stroke-linecap="butt"/><path d="M351.66182,150.90224l4.8402,2.39645c0,0 -1.03255,2.50609 -1.78692,3.92142c-0.71195,1.33572 -2.02905,4.76823 -3.86281,4.22987c-1.83379,-0.53838 -8.56867,-4.10896 -8.28746,-7.13037c0.0742,-0.7972 0.33383,-2.82796 0.38689,-4.47704c0.07463,-2.31955 0.05234,-4.59669 1.02758,-5.42686c0.95926,-0.81657 0.28912,1.03275 0.28912,1.03275l9.19676,-4.8508z" fill="#a7649a" stroke="none" stroke-width="0" stroke-linecap="butt"/><path d="M349.50451,155.21628c-0.65296,0.37876 -5.93531,-8.21432 -5.91564,-9.20412c0.02446,-1.23141 8.35706,-6.45773 9.04504,-5.5542c0.78622,1.03256 -1.96656,14.08377 -3.1294,14.75829z" fill="none" stroke="#000000" stroke-width="2" stroke-linecap="butt"/><g stroke-linecap="butt"><path d="M257.00853,258.35803c0,4.7753 -0.79256,7.24099 -6.56296,11.34114c-6.56457,4.66447 -19.36784,-0.36578 -30.76582,3.72361c-42.126,15.114 -64.19471,2.92667 -64.19471,2.92667c0,0 -1.6266,-3.63572 -1.6266,-10.80607c0,-2.87346 6.9745,-8.92441 15.54577,-14.37277c6.32581,-4.02102 12.84611,-7.60228 21.5574,-9.91107c1.78926,-0.47421 2.4432,-1.43643 2.4432,-1.43643c0,0 -8.03428,-7.22882 -3.27532,-10.01447c1.02988,-0.60283 15.14003,-5.82877 22.60834,-3.04861c6.66635,2.48163 13.51099,13.61448 13.51099,13.61448c0,0 4.83602,-3.93379 6.93422,-6.06565c1.74381,-1.77179 13.48577,-3.14675 13.48577,-3.14675c0,0 1.92667,0.3194 6.52007,7.24125c4.91373,7.40456 3.81968,18.78036 3.81968,19.95469z" fill="#ac1e52" stroke="#000000" stroke-width="3.5"/><path d="M255.67791,259.66444c0,5.61433 -14.57718,15.79959 -36.82756,15.79959c-22.25038,0 -42.26517,6.96158 -42.26517,1.34725c0,-3.27031 -2.35852,-13.93994 7.49951,-19.82468c3.03278,-1.81041 9.50918,-5.79278 16.47867,-9.74911c9.26817,-5.2612 20.75865,-11.70111 20.75865,-11.70111l3.82999,4.73662l1.40127,2.4946c0,0 -0.70596,1.34641 2.1048,0.79335c3.43659,-0.67619 14.60975,-10.45123 18.2254,-7.73082c0.30792,0.23168 2.48281,2.00974 4.36657,6.41498c2.74041,6.40854 4.42784,16.92429 4.42784,17.41934z" fill="#730e67" stroke="none" stroke-width="0"/><path d="M251.72326,273.74938c-2.87788,1.63797 -8.21036,3.44793 -18.04127,3.95287c-5.26257,0.2703 -11.99051,-0.88194 -19.92718,-0.2929c-6.9283,0.5142 -16.44166,8.64412 -45.15561,9.2206c-20.68888,0.41537 -23.2472,-8.74946 -23.88684,-11.1457c-1.07676,-4.03372 6.76536,-9.48473 6.76536,-9.48473c0,0 0.93524,6.71668 3.11939,7.802c4.50605,2.23911 22.73125,2.59555 33.16921,2.59946c10.49959,0.00393 25.95545,-11.46999 32.0727,-11.71494c8.30221,-0.33244 19.43631,0.71875 26.87888,-1.28417c7.09425,-1.90918 10.69883,-6.88439 10.69883,-6.88439c0,0 3.23336,2.93079 2.39445,6.57144c-1.00189,4.34793 -6.23157,9.6039 -8.0879,10.66045z" fill="#ada0fb" stroke="#000000" stroke-width="4.5"/><path d="M258.91438,262.97134c0,0 -1.86673,5.06777 -7.11944,8.64314c-1.87314,1.27498 -4.82414,1.6566 -7.37148,2.33907c-13.87942,3.71845 -28.50617,-0.13832 -33.7807,1.82429c-8.7869,3.26952 -7.73978,6.18955 -21.49518,7.46556c-6.33552,0.58771 -15.01069,0.79419 -15.01069,0.79419c0,0 -1.4089,-2.9236 -1.99474,-4.64852c-0.46132,-1.3583 0.84572,-0.64219 0.84572,-0.64219c0,0 14.24627,-2.03795 19.49184,-2.03795c4.68571,0 17.61042,-8.97343 25.69758,-10.81272c7.67731,-1.74608 17.48437,-0.41127 24.20123,-0.82133c5.18872,-0.31678 4.30137,-0.63684 7.09761,-1.13329c1.65677,-0.29415 7.24313,-5.68887 7.24313,-5.68887z" fill="#9665ee" stroke="none" stroke-width="0"/><path d="M226.12487,237.61854c0,0.28583 3.42549,-0.39072 3.42549,-0.39072c0,0 -1.43603,9.73843 -3.07611,10.83201c-1.14133,0.76103 -9.37362,0.49654 -11.6777,-0.28547c-2.76382,-0.93805 0.45305,-2.51323 0.45305,-2.51323c0,0 7.00014,2.7638 9.55662,0.82931c2.68049,-2.02833 1.31865,-9.13665 1.31865,-8.4719z" fill="#000000" stroke="none" stroke-width="0"/><path d="M246.53243,236.48085c0.40827,1.19106 -0.26983,2.49632 -1.51456,2.91538c-1.24473,0.41906 -2.58473,-0.20677 -2.993,-1.39782c-0.40827,-1.19106 0.26983,-2.49632 1.51456,-2.91538c1.24473,-0.41906 2.58473,0.20677 2.993,1.39782z" fill="#000000" stroke="none" stroke-width="0"/><path d="M248.33027,243.06839c0,1.23086 -1.04153,2.22868 -2.32632,2.22868c-1.28478,0 -2.32632,-0.99782 -2.32632,-2.22868c0,-1.23086 1.04153,-2.22867 2.32632,-2.22867c1.28478,0 2.32632,0.99781 2.32632,2.22867z" fill="#000000" stroke="none" stroke-width="0"/><path d="M213.48932,247.04529c0,0.99256 -0.49552,3.82888 -2.14784,5.0947c-1.17533,0.9004 -5.31679,0.84909 -5.61866,0.62766c-1.90346,-1.39616 -2.734,-4.61551 -4.72886,-5.76793c-4.694,-2.71173 -8.0119,-2.18466 -8.0119,-6.72995c0,-2.97527 3.38448,-1.71369 9.3887,-1.71369c6.00422,0 11.11859,5.51394 11.11859,8.48921z" fill="#ada0fb" stroke="#000000" stroke-width="3"/><path d="M212.03911,248.19014c0,1.8032 -0.38695,3.50987 -2.38836,3.50987c-0.68984,0 -2.36973,0.2306 -3.30337,-0.43032c-1.7751,-1.25656 -2.79153,-3.81424 -2.79153,-3.81424c0,0 3.10508,-4.48945 5.10649,-4.48945c2.00141,0 3.37676,3.42093 3.37676,5.22412z" fill="#9665ee" stroke="none" stroke-width="0"/><path d="M201.45847,257.61891c0,1.46699 -0.81013,3.77691 -1.27387,4.24285c-0.41275,0.41471 -1.59023,-0.9368 -3.55033,-0.9368c-1.97352,0 -2.16133,-6.05657 -6.01706,-9.37328c-4.2764,-3.67855 -9.8775,-6.67895 -9.8775,-8.13698c0,-1.61011 4.02336,-2.46508 5.93243,-2.89899c0.73761,-0.16765 6.30995,2.68745 11.10193,6.7139c3.88206,3.2619 3.74981,5.21177 3.91885,6.67068c0.01224,0.10561 -0.23444,3.71861 -0.23444,3.71861z" fill="#ada0fb" stroke="#000000" stroke-width="3"/><path d="M200.01398,260.68033c-0.69093,0 -1.89207,0.23912 -2.99323,-0.82488c-1.29133,-1.24776 -2.44311,-6.7675 -2.44311,-6.7675c0,0 1.60335,-2.12056 2.243,-2.54318c0.59221,-0.39127 1.95788,-0.39566 1.95788,-0.39566c0,0 0.73645,1.37225 1.18568,3.53048c0.61907,2.97427 0.91973,7.00074 0.04979,7.00074z" fill="#9665ee" stroke="none" stroke-width="0"/><path d="M193.48104,263.69798c0,1.05308 -3.09455,2.77473 -4.96352,1.46874c-2.00335,-1.39989 -1.6634,-7.42121 -5.40898,-10.51302c-5.15099,-4.25192 -9.80765,-6.54499 -9.64401,-7.94809c0.24137,-2.06958 3.29437,-2.30709 4.31654,-3.21696c1.05696,-0.94083 4.69442,2.32611 9.5315,7.25127c1.95124,1.98676 3.83667,4.59106 4.93126,7.48703c0.94588,2.50254 1.23723,5.47103 1.23723,5.47103z" fill="#ada0fb" stroke="#000000" stroke-width="3"/><path d="M192.49933,262.72237c0,1.3525 -1.67277,1.46918 -2.96692,1.46918c-1.29414,0 -3.21073,-6.85751 -3.21073,-6.85751c0,0 0.8397,-1.54911 1.39112,-1.97173c0.51052,-0.39127 1.14533,-0.4772 1.14533,-0.4772c0,0 3.6412,6.48476 3.6412,7.83726z" fill="#9665ee" stroke="none" stroke-width="0"/></g><g stroke-linecap="butt"><path d="M348.29035,276.16229c0,6.76159 -22.84668,21.30363 -40.30774,21.30363c-10.36623,0 -28.21424,2.37899 -39.91932,-4.08044c-2.80435,-1.54757 -7.0443,-9.60386 -8.6861,-11.4143c-3.04836,-3.36149 1.50639,-14.18051 1.97929,-15.41461c1.72352,-4.49785 -1.63511,-8.20865 -3.03609,-9.33767c-2.08013,-1.67631 -9.97542,-0.62839 -13.99109,-0.15024c-1.69168,0.20143 -2.43102,-3.01159 -1.87322,-5.42027c0.6555,-2.83061 3.14383,-5.98274 3.79336,-6.30297c0.45495,-0.2243 3.02383,-2.7282 7.84578,-2.71863c3.97327,0.0079 10.3597,3.89303 13.44269,3.32378c1.65895,-0.30632 -0.32835,-4.72494 2.1726,-6.44321c4.78983,-3.29082 7.08604,-5.28148 11.48538,-6.37501c3.36703,-0.83693 7.21947,-1.14835 7.35873,-0.56602c0.24569,1.02747 1.21998,6.95943 4.07818,11.81013c2.65939,4.51328 7.40718,7.94547 7.80911,7.99841c2.97203,0.39146 1.14342,0.24871 4.14078,-0.15441c2.35218,-0.31635 11.75582,-9.68728 16.27114,-15.37152c3.92924,-4.94643 10.25253,-8.70342 11.82232,-8.7515c2.33251,-0.07145 8.44655,5.44094 6.70396,9.32054c-0.36204,0.80598 -11.59498,9.213 -11.1864,9.31433c9.18982,2.2791 12.17609,5.0306 17.56877,12.1053c3.83767,5.03467 0.75349,5.82752 0.75349,8.26187z" fill="#ac1e52" stroke="#000000" stroke-width="3.5"/><path d="M347.64132,269.86795c0,5.13924 -31.81665,25.46882 -52.622,25.46882c-20.80534,0 -31.98004,-9.79519 -31.98004,-9.79519c0,0 17.40818,-20.32493 38.21353,-20.32493c4.99876,0 19.38511,-4.82862 28.72301,-3.4832c5.26945,0.75923 9.64586,9.02593 9.64586,9.02593c0,0 2.50008,-2.14467 3.31808,-4.23238c0.99671,-2.54378 1.96163,-9.68932 1.96163,-9.68932c0,0 2.28298,1.9288 3.58538,2.22787c6.31779,1.45075 -0.84545,3.71077 -0.84545,5.65862z" fill="#730e67" stroke="none" stroke-width="0"/><path d="M351.39251,270.84779c0,5.81546 -9.63977,20.81525 -38.21822,26.44748c-17.62207,3.47296 -32.99462,4.71426 -43.40599,1.78699c-20.8066,-5.85002 -18.6538,-19.09418 -18.6538,-21.13193c0,-2.11159 6.80226,-5.14007 6.80226,-5.14007c0,0 0.75519,10.6938 5.68625,12.93725c10.81282,4.9194 31.14807,2.97723 43.29324,2.97723c10.85924,0 25.03233,-7.59813 33.34165,-17.13503c3.71504,-4.26388 -0.00783,-16.89941 -0.00783,-16.89941c0,0 1.85179,-0.04262 3.83052,0.17777c8.9855,1.00081 7.3319,15.97974 7.3319,15.97974z" fill="#ada0fb" stroke="#000000" stroke-width="4"/><path d="M293.93207,249.75043l-9.57514,1.30592c0,0 0.85953,-4.78641 0.94985,-6.86721c0.13337,-3.07277 1.94077,-10.43617 1.94077,-10.43617c0,0 1.48946,5.02796 2.6997,9.05527c1.03204,3.43428 3.98483,6.94219 3.98483,6.94219z" fill="#730e67" stroke="none" stroke-width="0"/><path d="M336.20725,231.95733c0,0 3.16411,3.07022 1.53531,5.40312c-2.12998,3.05074 -9.73868,6.70366 -11.8331,7.81928c-0.53765,0.28639 -2.00572,0.49971 -3.35796,1.13134c-3.14017,1.46683 -6.88153,5.38788 -8.61647,5.82223c-3.47957,0.87115 -1.57533,-3.19907 -1.57533,-3.19907c0,0 4.40487,-6.91088 10.43907,-11.43953c5.69932,-4.27731 13.40846,-5.53738 13.40846,-5.53738z" fill="#730e67" stroke="none" stroke-width="0"/><path d="M280.20168,258.07562l-2.89061,0.8162l-9.03317,-13.2224l0.72266,-3.7545z" fill="#000000" stroke="none" stroke-width="0"/><path d="M346.14752,257.86862c0,0 2.54494,-0.34582 3.40466,6.22278c0.60762,4.64241 -1.0208,12.61941 -3.15788,15.45614c-3.44688,4.57535 -13.64153,11.24728 -15.53684,12.19256c-5.47301,2.72964 -12.57532,3.75272 -16.81142,4.4557c-2.93124,0.48644 -13.65522,2.30683 -16.83503,2.5522c-17.41035,1.34345 -29.02244,-1.94194 -29.02244,-1.94194c0,0 21.35845,4.25223 54.96692,-5.23106c4.62441,-1.30487 18.00538,-9.08002 22.49144,-19.78412c2.98591,-7.12463 0.50059,-13.92227 0.50059,-13.92227z" fill="#9665ee" stroke="none" stroke-width="0"/><path d="M301.15859,264.93167c0,2.43417 -30.3514,-0.50413 -30.3514,-3.91775c0,-1.22566 5.36422,-5.79252 11.04947,-8.72837c5.60566,-2.89476 11.53343,-4.16754 11.53343,-4.16754l4.62804,5.17996c0,0 2.78049,1.514 4.22952,1.4594c1.30289,-0.04911 3.35021,-0.79283 3.35021,-0.79283c0,0 2.22146,-3.67086 5.85163,-4.68654c3.31304,-0.92695 9.54658,3.02482 8.83229,4.04826c-1.44442,2.06959 -19.1232,11.35033 -19.1232,11.60544z" fill="#ada0fb" stroke="#000000" stroke-width="2.5"/><path d="M296.82267,255.30057c0,0.86648 3.19192,-0.357 9.76111,-0.23664c2.59135,0.04747 0.81239,-4.73385 6.6181,-4.86769c5.73813,-0.13228 6.47677,6.69207 6.38612,7.06357c-0.52277,2.14231 -17.27577,7.50866 -18.61009,7.50866c-2.69399,0 -13.91107,-13.38564 -13.91107,-13.38564l5.60055,-2.28535c0,0 4.15527,3.31816 4.15527,6.2031z" fill="#9665ee" stroke="none" stroke-width="0"/><path d="M325.38635,258.78122c-3.82297,2.02617 -14.96814,3.28659 -24.56965,3.6356c-9.46799,0.34415 -20.21427,4.51487 -25.46956,4.87611c-2.15994,0.14847 -2.79943,-0.52929 -2.95772,-1.71898c-0.36924,-2.77482 12.64028,-8.46467 27.35666,-10.96005c6.5437,-1.10958 15.79757,-1.02165 20.74674,0.19152c4.98955,1.22309 5.64473,3.57767 4.89357,3.97579z" fill="#ada0fb" stroke="#000000" stroke-width="2.5"/><path d="M329.52743,264.57145c-4.05766,1.97713 -15.8945,1.81731 -25.99167,2.35082c-10.72283,0.56658 -22.11271,6.24044 -27.65069,6.53451c-2.27614,0.12086 -2.60653,-2.19706 -2.7536,-3.38865c-0.34297,-2.77925 12.03154,-6.00078 27.56394,-8.30795c6.90654,-1.02589 18.1475,-2.15953 23.3373,-0.88325c5.23215,1.28669 6.63367,3.30603 5.83639,3.6945z" fill="#ada0fb" stroke="#000000" stroke-width="2.5"/><path d="M267.19392,253.17846c0,0 -3.62556,2.49224 -7.18149,3.02192c-1.58272,0.23576 -3.15168,-1.22629 -4.38095,-1.22629c-3.9911,0 -6.74735,1.89309 -10.83979,0.48972c-2.44264,-0.83762 0,-5.3869 0,-5.3869c0,0 5.62921,-0.74362 8.28909,-0.61578c2.96721,0.14261 14.11315,3.71733 14.11315,3.71733z" fill="#730e67" stroke="none" stroke-width="0"/><path d="M310.87662,255.46381l-3.45562,4.4121l-9.01015,1.30128l-5.23924,-3.75451c0,0 5.86915,-2.06449 9.71675,-2.44474c3.86064,-0.38154 7.98822,0.48585 7.98822,0.48585z" fill="#9665ee" stroke="none" stroke-width="0"/><path d="M256.71547,255.46382c0,0.68729 7.62909,-0.0818 5.89446,0.27998c-1.67843,0.35005 -1.85969,3.47453 -3.18452,3.47453c-1.1266,0 -1.63901,-1.45663 -4.37654,-2.11082c-3.80859,-0.91012 -9.89584,-1.18338 -9.89584,-1.97017c0,-1.35232 3.62921,-3.42803 6.3232,-3.42803c2.694,0 5.23924,2.40219 5.23924,3.75451z" fill="#000000" stroke="none" stroke-width="0"/><path d="M337.65255,237.67071c0,0.82875 -4.70903,5.32114 -6.07593,8.2708c-0.98079,2.11646 0.97224,3.95316 0.97224,3.95316l-10.99296,-3.00291c0,0 0.77346,-1.45178 3.70508,-2.29197c2.33936,-0.67044 3.71975,-1.36721 3.71975,-1.70544c0,-0.88701 -0.07225,-3.92389 1.84524,-5.02819c2.37011,-1.36497 6.82658,-1.29187 6.82658,-0.19547z" fill="#000000" stroke="none" stroke-width="0"/></g><g><path d="M201.47055,234.69106c0,0 -7.73618,6.44621 -12.22692,5.47642c-0.464,-0.1002 -5.15199,-6.86531 -0.37721,-15.96818c1.03449,-1.97219 1.7026,-7.12294 5.12356,-7.82408c6.69245,-1.3716 7.81831,-5.45147 7.90273,-5.78921c1.11608,-4.46499 1.58438,-12.01083 4.62056,-11.2519c1.55736,0.38928 4.98215,5.61064 8.72367,12.86099c1.04027,2.01584 2.17307,4.86572 3.04128,6.79951c0.25535,0.56878 1.30768,2.00583 1.53826,2.5321c1.66302,3.79522 0.99533,5.74738 0.65771,7.09807c-0.66545,2.66216 -6.65232,4.37867 -11.82841,3.85545c-1.82354,-0.18432 -5.02356,-0.3417 -5.02356,-0.3417z" fill="#a7649a" stroke="#000000" stroke-width="3" stroke-linecap="butt"/><path d="M157.20558,220.57855c-6.55575,-2.43476 -8.12857,-9.69777 -5.72583,-16.16725c2.40272,-6.46947 42.42784,-21.38833 48.9836,-18.95356c6.55574,2.43475 9.66377,14.178 7.26105,20.64747c-2.40272,6.46947 -43.96307,16.90808 -50.51883,14.47333z" fill="#303f97" stroke="#000000" stroke-width="2.5" stroke-linecap="butt"/><path d="M154.17016,209.64628c-0.73578,-0.02273 -1.30463,-0.93588 -1.27049,-2.03956c0.0341,-1.10368 0.65822,-1.97996 1.39401,-1.95721c0.73578,0.02273 1.30463,0.93588 1.27049,2.03956c-0.0341,1.10368 -0.65823,1.97996 -1.39401,1.9572z" fill="#303f97" stroke="none" stroke-width="0" stroke-linecap="butt"/><path d="M173.07373,228.33631c-4.67296,-0.08553 -9.91752,-6.95277 -13.19291,-9.56858c-4.60225,-3.67543 -3.07052,-23.0436 -1.86823,-24.17012c2.56539,-2.40373 10.05238,-3.95462 10.05238,-3.95462c0,0 5.56576,-3.22889 6.96041,-4.2156c0.73968,-0.5233 2.87427,-4.9238 6.21148,-6.26381c3.3372,-1.34001 5.48265,2.41871 7.94705,0.57863c0.5185,-0.38714 3.97094,-4.27297 4.45557,-4.57856c4.67994,-2.95102 5.1137,-6.98034 10.42983,-5.65149c4.61786,1.1543 11.16414,11.25777 13.88674,17.47944c4.14814,9.47935 1.65603,13.63909 -0.4463,22.04967c-0.74771,2.99122 -3.10618,8.1864 -7.67818,9.35296c-2.14179,0.54649 -4.75253,-1.1913 -6.33953,-1.49704c-3.48049,-0.67059 -6.6024,1.84337 -6.6024,1.84337c0,0 -3.80776,0.88849 -5.78226,2.64451c-2.08448,1.85388 -5.16414,0.87329 -7.94161,0.17902c0,0 -2.98801,5.62979 -10.09202,5.77221z" fill="#aa96c7" stroke="#000000" stroke-width="2.5" stroke-linecap="butt"/><path d="M211.16753,217.68667c-0.45804,2.48222 -13.33103,-1.08214 -13.33103,-1.08214c0,0 -3.5474,3.99573 -9.47021,5.80759c-1.69866,0.51963 -7.07521,0.24447 -7.07521,0.24447c0,0 -1.51093,2.84315 -6.52295,4.25377c-6.24413,1.75743 -13.29537,-8.56374 -13.29537,-8.56374c0,0 5.40327,1.46386 6.66182,-0.57535c1.33273,-2.15943 2.02322,-4.09294 2.87179,-8.04745c0.43566,-2.03019 1.81985,-7.67082 1.81985,-7.67082c0,0 1.24184,2.25354 2.37816,5.20708c1.16122,3.01828 1.91618,6.69798 4.44319,8.64705c1.67262,1.29008 4.62248,-0.04431 6.63706,-0.10191c2.91089,-0.08324 4.54426,-19.78748 4.54426,-19.78748c0,0 2.30928,10.53815 4.79937,15.99571c0.79702,1.74684 -2.81361,-7.92025 -2.02932,-7.20197c1.26612,1.15956 5.24332,2.53487 8.89759,1.50494c4.33241,-1.22107 8.31859,-5.00762 8.31859,-5.00762c0,0 4.84447,4.46084 5.01844,7.8114c0.18057,3.47765 -4.603,8.22502 -4.66601,8.56646z" fill="#a7649a" stroke="none" stroke-width="0" stroke-linecap="butt"/><path d="M196.62177,218.80832c-0.57257,-0.14312 -3.34369,-2.98461 -4.38035,-7.28738c-0.74729,-3.10184 -0.28959,-6.59537 -0.40629,-10.46349c-0.10011,-3.31909 -5.04207,-6.40307 -5.04207,-6.40307c0,0 5.36499,0.03152 6.15766,3.80783c0.79268,3.77644 1.23246,10.41476 2.43733,13.19288c1.83902,4.24033 4.51966,6.31223 4.37473,6.89201c0,0 -1.8015,0.59605 -3.14101,0.26122z" fill="#000000" stroke="none" stroke-width="0" stroke-linecap="butt"/><path d="M181.3758,224.8963c0.12762,-0.5105 -3.8637,-5.17606 -5.42798,-8.45647c-1.10036,-2.3075 -1.37134,-5.81281 -1.35026,-8.87444c0.02362,-3.43498 -5.08252,-6.43524 -5.08252,-6.43524c0,0 3.27597,0.80045 5.15103,2.65954c1.61479,1.60104 1.84632,3.97558 2.07482,7.43626c0.14149,2.14307 1.46357,4.15 2.50693,5.74523c1.65337,2.52793 4.33326,5.15939 4.21953,5.6143c-0.3181,1.27251 -0.38456,0.30701 -1.32218,0.07261c0,0 -1.0875,3.51072 -0.7694,2.23817z" fill="#000000" stroke="none" stroke-width="0" stroke-linecap="butt"/><g><g data-paper-data="{&quot;index&quot;:null}"><path d="M253.46367,182.34125c8.42381,10.25352 6.56329,23.8 -3.81413,32.32564c-10.37743,8.52563 -25.61884,7.12492 -34.04265,-3.12861c-3.8764,-4.71838 -2.07209,-6.71455 -1.82841,-12.40081c0.28586,-6.67056 -0.23626,-16.99941 5.36576,-21.6018c0,0 8.20865,-4.45207 17.0271,-4.49671c6.48993,-0.03285 13.44431,3.27843 17.01555,7.62535z" fill="#303f97" stroke="#000000" stroke-width="3" stroke-linecap="butt"/><path d="M237.4064,179.43425c0.41016,1.48758 -0.19897,2.94985 -1.36053,3.26603c-1.16158,0.31617 -2.4357,-0.63341 -2.84586,-2.12097c-0.41016,-1.48758 0.19895,-2.94985 1.36052,-3.26604c1.16159,-0.31618 2.43571,0.6334 2.84587,2.12098z" fill="#303f97" stroke="none" stroke-width="0" stroke-linecap="butt"/><path d="M244.30408,181.16788c1.43928,-0.20623 2.83801,1.2 3.12413,3.14094c0.28612,1.94092 -0.64871,3.68153 -2.08797,3.88781c-1.43929,0.20624 -2.83803,-1.19997 -3.12415,-3.14091c-0.28612,-1.94092 0.64869,-3.68158 2.08798,-3.88783z" fill="#303f97" stroke="none" stroke-width="0" stroke-linecap="butt"/><path d="M217.37293,213.72957c0,0 -3.74198,-11.73932 -2.81862,-19.85781c0.39473,-3.47071 6.39712,5.95294 14.5215,12.27568c8.52312,6.63307 19.64883,8.32588 19.64883,8.32588c0,0 -6.68721,5.1103 -9.83817,5.69003c-3.20469,0.58963 -9.46728,-1.20956 -9.46728,-1.20956z" fill="#242464" stroke="none" stroke-width="0" stroke-linecap="butt"/><path d="M215.44443,187.84096c0,0 6.98905,-6.93605 14.68754,-8.26029c3.16329,-1.14634 21.54709,2.70881 21.54709,2.70881" fill="none" stroke="#000000" stroke-width="2" stroke-linecap="round"/><path d="M214.71308,197.19054c0,0 5.99084,-7.44551 20.96365,-8.73242c9.46003,-0.03644 22.35527,6.59768 22.35527,6.59768" fill="none" stroke="#000000" stroke-width="2" stroke-linecap="round"/><path d="M215.24272,204.97952c0,0 9.09793,-5.84153 14.63105,-6.21263c6.94757,-0.46595 25.24306,3.98997 25.24306,3.98997" fill="none" stroke="#000000" stroke-width="2" stroke-linecap="round"/><path d="M217.92686,210.63864c0,0 9.51456,-4.47419 14.78067,-4.33996c5.71555,0.14569 18.27483,5.18252 18.27483,5.18252" fill="none" stroke="#000000" stroke-width="2" stroke-linecap="round"/><path d="M232.17817,219.33637c0,0 -3.87151,-15.05984 -3.28964,-22.62224c0.62355,-8.10404 6.91449,-24.48954 6.91449,-24.48954" fill="none" stroke="#000000" stroke-width="2" stroke-linecap="round"/><path d="M242.28305,218.84369c0,0 -5.40501,-10.13898 -5.06018,-22.19078c0.76159,-10.74151 8.53676,-20.98316 8.53676,-20.98316" fill="none" stroke="#000000" stroke-width="2" stroke-linecap="round"/><path d="M248.44896,213.4268c0,0 -3.87952,2.41374 -1.59687,-15.73672c0.61943,-8.10954 5.31373,-14.98592 5.31373,-14.98592" fill="none" stroke="#000000" stroke-width="2" stroke-linecap="round"/><path d="M210.45823,181.32835c0.65609,-0.53902 6.71543,-7.43685 8.14923,-2.87955c0.54962,1.74696 -6.33461,10.55939 -6.02211,18.21312c0.42822,10.4881 4.38145,17.48869 3.88743,18.5519c-0.96878,2.08495 -7.53578,-4.57872 -7.76621,-4.3894c-0.43813,0.35994 -4.04181,-5.3612 -4.38909,-13.32852c-0.32599,-7.47942 5.72945,-15.82965 6.14074,-16.16753z" fill="#303f97" stroke="#000000" stroke-width="3" stroke-linecap="butt"/><path d="M210.71146,188.34916c0.90846,0.15386 1.47485,1.28285 1.26504,2.52168c-0.20981,1.23884 -1.11635,2.11839 -2.02483,1.96452c-0.90846,-0.15386 -1.47485,-1.28286 -1.26504,-2.52169c0.2098,-1.23883 1.11635,-2.11838 2.02483,-1.96451z" fill="#6283b8" stroke="none" stroke-width="0" stroke-linecap="butt"/><path d="M213.90729,181.51094c0.82966,0.63954 0.88868,2.14658 0.61105,3.65864c-0.27767,1.51205 -0.7868,2.45655 -1.61644,1.81699c-0.82964,-0.63955 -1.27714,-2.38379 -0.99952,-3.89583c0.27764,-1.51205 1.17526,-2.21935 2.0049,-1.57978z" fill="#6283b8" stroke="none" stroke-width="0" stroke-linecap="butt"/></g><path d="M224.47261,217.42602c0,0 -5.69804,-15.34489 -5.39783,-20.49463c0.3002,-5.14974 8.14609,-22.46051 8.14609,-22.46051" fill="none" stroke="#000000" stroke-width="2" stroke-linecap="round"/></g></g><path d="M266.63333,156.96667c0,3.86599 -4.17072,7.33334 -9.23333,7.33334c-4.42971,0 -8.43178,-1.33587 -9.36319,-4.35967c-0.13308,-0.43203 -0.20347,-1.29036 -0.20347,-1.77367c0,-3.86599 2.83739,-8.33333 7.9,-8.33333c5.06261,0 11.1,2.46733 11.1,6.33333z" data-paper-data="{&quot;index&quot;:null}" fill="#000000" stroke="none" stroke-width="0" stroke-linecap="butt"/><path d="M307.83333,157.83334c0,0.67862 -1.24397,0.70143 -4.64883,2.34733c-4.0288,1.94751 -9.8158,3.73425 -15.68205,5.66015c-4.05432,1.33104 -7.98727,3.90268 -11.0245,4.92717c-11.02008,3.71717 -12.97796,4.0789 -12.97796,2.06535c0,-1.94053 8.94791,-8.3948 19.31102,-12.06302c11.26581,-3.98775 25.02231,-5.04654 25.02231,-2.93698z" fill="#93396b" stroke="#000000" stroke-width="4" stroke-linecap="butt"/><path d="M297.3,146.7c0,4.23418 -0.60558,7.06667 -5.3,7.06667c-4.69442,0 -10.1,-1.96582 -10.1,-6.20001c0,-4.23418 3.73891,-9.33333 8.43333,-9.33333c4.69442,0 7.16667,4.03248 7.16667,8.26666z" fill="#000000" stroke="none" stroke-width="0" stroke-linecap="butt"/><path d="M310.16667,48.83334l-0.66667,46.66667" fill="none" stroke="#000000" stroke-width="2" stroke-linecap="round"/><path d="M316.5,35.16667l-0.33333,66.66667" fill="none" stroke="#000000" stroke-width="2" stroke-linecap="round"/><path d="M322.5,33.5l-1.33333,73.33334" fill="none" stroke="#000000" stroke-width="2" stroke-linecap="round"/><path d="M328.16667,39.16667l0.66667,72.33334" fill="none" stroke="#000000" stroke-width="2" stroke-linecap="round"/><path d="M335.5,119.16667v-71.33333" fill="none" stroke="#000000" stroke-width="2" stroke-linecap="round"/><path d="M342.16667,54.5l-1.33333,52" fill="none" stroke="#000000" stroke-width="2" stroke-linecap="round"/><path d="M346.83334,70.83334l0.33333,32.33333" fill="none" stroke="#000000" stroke-width="2" stroke-linecap="round"/><path d="M352.5,88.5v13.66666" fill="none" stroke="#000000" stroke-width="2" stroke-linecap="round"/></g></g></svg>