<svg version="1.1" xmlns="http://www.w3.org/2000/svg" xmlns:xlink="http://www.w3.org/1999/xlink" width="347" height="286" viewBox="0,0,347,286"><g transform="translate(-85,-40.50003)"><g data-paper-data="{&quot;isPaintingLayer&quot;:true}" fill-rule="nonzero" stroke-linejoin="miter" stroke-miterlimit="10" stroke-dasharray="" stroke-dashoffset="0" style="mix-blend-mode: normal"><path d="M85,326.50003v-286h347v286z" fill="none" stroke="none" stroke-width="0" stroke-linecap="butt"/><text transform="translate(254.22476,93.84676) scale(0.20352,0.20352)" font-size="40" xml:space="preserve" fill="#000000" fill-rule="nonzero" stroke="none" stroke-width="1" stroke-linecap="butt" stroke-linejoin="miter" stroke-miterlimit="10" stroke-dasharray="" stroke-dashoffset="0" font-family="Sans Serif" font-weight="normal" text-anchor="start" style="mix-blend-mode: normal"><tspan x="0" dy="0">Polargaming64</tspan><tspan x="0" dy="46.150000000000006px"> </tspan><tspan x="0" dy="46.150000000000006px">MeIzAwezomeDede</tspan><tspan x="0" dy="46.150000000000006px"> </tspan><tspan x="0" dy="46.150000000000006px">AwezomeXD</tspan></text><path d="M268.22476,182.85887c0,5.33875 -33.06429,8.66667 -37.66667,8.66667c-4.60237,0 -7.33333,-1.99458 -7.33333,-7.33333c0,-5.33875 -7.01904,-6 -2.41667,-6c0.49529,0 12.45596,-26.10934 18.35692,-29.3471c3.50333,-1.92222 12.48562,4.28652 14.79071,3.45925c7.31946,-2.62687 4.1126,-4.82871 5.65623,-4.10722c4.76031,2.22494 8.61281,31.32168 8.61281,34.66174z" fill="#9363ea" stroke="#000000" stroke-width="3.5" stroke-linecap="butt"/><g stroke-linecap="butt"><path d="M304.19862,233.10829c-7.32281,2.10215 -20.05642,-7.68458 -22.30719,-7.68458c-3.86599,0 -13,-7.96364 -13,-14.53735c0,-3.75816 0.93485,-18.64004 1.60141,-24.20359c0.49937,-4.16813 14.40943,-10.29413 16.06525,-10.29413c0.77544,0 18.44833,4.95906 21.77598,8.93549c1.11927,1.33749 5.22282,6.56618 3.63157,8.99657c-2.76443,4.22224 -16.95767,11.0368 -15.61313,12.7267c3.70313,4.65436 18.37225,12.5416 18.37225,14.4607c0,0 -5.27103,10.09161 -10.52614,11.60019z" fill="#aa96c7" stroke="#000000" stroke-width="3.5"/><path d="M294.89143,177.80718l15.88059,16.62468l-13.27384,8.50703c0,0 -2.95752,-4.8259 -8.75104,-6.77097c-4.44212,-1.49136 -11.99844,1.09763 -14.52702,0.01422c-2.77819,-1.19036 20.6713,-18.37498 20.6713,-18.37498z" fill="#a7649a" stroke="none" stroke-width="0"/><path d="M283.46096,209.50073c2.64604,2.40411 18.11915,19.18315 21.07494,19.84765c3.33819,0.75047 6.36737,-11.67345 6.36737,-11.67345c0,0 12.93837,5.64326 13.21479,11.96306c0.14168,3.23918 -7.08604,6.72022 -9.71219,9.59048c-3.63256,3.97025 -10.13335,6.60268 -11.32895,8.18254c-1.23021,1.62558 -5.70907,6.44369 -9.04657,6.45344c-1.18597,0.00347 -5.67182,-4.01053 -8.28632,-9.348c-2.86381,-5.84643 -7.13196,-7.21458 -8.76518,-6.55304c-4.11515,1.66685 -9.16853,-2.20711 -12.91571,2.74361c-0.36822,0.48648 9.95977,18.95283 9.95977,18.95283c0,0 -15.39074,-14.8894 -17.65509,-15.15169c-1.99322,-0.23089 -6.12166,-1.13993 -6.12166,-1.13993c0,0 -2.07213,-4.32478 -5.06823,-6.96475c-2.65367,-2.33824 -10.64411,-8.30061 -11.25606,-7.83567c-1.10684,0.84093 -2.02065,3.60799 -4.51191,6.73461c-2.1633,2.71502 -6.2537,4.51824 -6.2537,4.51824c0,0 -13.1268,-13.72662 -17.45857,-13.28705c-3.6307,0.36843 -5.65406,0.13953 -8.23922,0.56509c-6.03427,0.99334 -7.16574,1.24943 -6.32168,-1.16436c1.07102,-3.06285 -3.67163,-10.359 -2.40491,-11.4829c0.75294,-0.66805 9.6719,-5.15976 9.6719,-5.15976l10.04846,-2.41909c0,0 13.63213,-11.69189 21.36947,-15.09294c8.82241,-3.878 12.08177,0.47209 15.58456,0.47209c12.93628,0 27.41667,22.39974 27.41667,22.39974c0,0 5.61345,-3.00271 7.26433,-4.89934z" fill="#0044d4" stroke="#000000" stroke-width="3.5"/><path d="M243.2812,236.74067c-2.01157,2.31351 -14.12215,-0.66498 -14.64162,-0.74085c-1.09446,-0.15983 -8.08768,-15.63615 -9.3132,-17.80571c-0.55741,-0.98678 -18.09512,-7.41109 -18.09512,-7.41109l13.05833,-9.70175c0,0 5.55298,-8.68431 17.6009,-8.50428c12.48608,0.18658 31.60249,9.26664 38.67529,10.97272c2.50715,0.60476 2.1264,12.99709 2.45582,13.41198c0.59366,0.74772 -19.926,-7.95721 -33.03017,-6.85281c-8.69805,0.73306 -15.40056,5.4934 -15.40056,5.4934z" fill="#0a1296" stroke="none" stroke-width="0"/><path d="M318.66458,222.87013l4.48317,5.24803c0,0 -4.27033,9.4697 -9.27761,15.4017c-4.39933,5.21178 -17.24825,8.90166 -18.9389,8.90166c-0.84176,0 -4.41023,-2.54622 -6.52619,-6.18555c-3.44539,-5.92589 -12.68182,-17.27979 -12.68182,-17.27979c0,0 22.45405,10.83091 25.80293,10.83091c5.41239,0 17.13841,-16.91695 17.13841,-16.91695z" fill="#0a1296" stroke="none" stroke-width="0"/></g><path d="M229.80809,191.02554c0,0 -0.4466,2.86008 -1.82995,5.80684c-1.46983,3.13098 -2.4972,-1.14017 -6.67005,-1.14017c-1.86788,0 -5.77447,7.54613 -8.37199,7.53697c-8.66684,-0.03054 -19.45934,-0.67653 -19.45934,-5.70486c0,-6.53537 18.06449,-17.99877 26.16467,-17.99877c8.10018,0 10.16667,11.5 10.16667,11.5z" fill="#a7649a" stroke="#000000" stroke-width="3.5" stroke-linecap="butt"/><g><path d="M272.53814,214.9162c0,0 -1.05714,-0.35179 -2.58942,-2.51414c-2.8868,-4.07383 -17.90965,-12.88059 -33.92613,-12.88059c-8.20127,0 -10.44817,1.44972 -16.00174,3.15942c-5.65096,1.73968 -9.80752,4.72599 -12.21793,5.7506c-1.35532,0.57612 -4.19667,-4.41554 -1.83362,-6.19232c3.19503,-2.40235 6.10434,-6.77954 11.16006,-9.96441c4.64327,-2.92505 11.4883,-1.65229 13.54577,-4.08482c4.82231,-5.70136 18.40844,-22.31132 22.74973,-28.22701c9.31461,-12.6926 -4.31062,-11.73389 1.41913,-11.6758c1.19054,0.01207 35.32949,1.11939 44.75687,-0.72303c7.64429,-1.49394 1.61347,3.34734 6.05048,9.53434c0.72857,1.01593 -1.74031,13.13984 1.76552,18.45459c3.82345,5.79625 11.97037,20.29467 10.40785,25.76386c-0.58551,3.00645 -21.97183,-14.97143 -27.06724,-15.50721c-10.7267,-0.99809 -12.89031,8.06345 -14.73316,12.68526c-1.43262,3.59296 -3.48616,16.42125 -3.48616,16.42125z" fill="#ab9ef8" stroke="#000000" stroke-width="3.5" stroke-linecap="butt"/><path d="M241.89142,233.1568l-7.75,-4.11341l-7.5,-10.14098z" fill="#000000" stroke="none" stroke-width="0" stroke-linecap="butt"/><path d="M282.75906,184.43062c0,0 -6.1591,8.08945 -6.80606,9.94001c-0.75247,2.15234 -2.031,5.43594 -2.031,5.43594l-0.21203,-11.19576c0,0 -4.15022,-3.54443 -11.96265,-5.97813c-9.41837,-2.93398 -24.25096,-1.68183 -23.74954,-2.02901c0.62781,-0.43469 26.84937,-30.9891 26.84937,-30.9891l39.72147,20.59362l4.12132,9.94402c0,0 -10.88288,4.00948 -15.61348,4.23614c-4.06017,0.19454 -10.3174,0.04227 -10.3174,0.04227z" fill="#9363ea" stroke="none" stroke-width="0" stroke-linecap="butt"/><path d="M250.73937,191.25391c-6.88212,2.12109 -15.21447,4.80015 -15.21447,0.24436c0,-4.27399 7.46822,-6.25186 14.30587,-7.84216c3.73276,-0.86816 14.40914,-3.85993 19.62093,0.65952c2.95204,2.5599 -4.69325,2.37687 -17.379,6.28664z" fill="none" stroke="#ac002b" stroke-width="4.5" stroke-linecap="butt"/><path d="M253.8514,190.08286c0,0 -4.60739,-3.62489 -5.44244,-4.88389" fill="none" stroke="#ac002b" stroke-width="4.5" stroke-linecap="round"/></g><g stroke-linecap="butt"><path d="M253.13143,258.04703c0,5.24795 -0.44929,3.48931 -6.3192,7.99528c-6.6778,5.12615 -20.05879,4.06639 -31.65333,8.56053c-42.8525,16.60993 -65.30181,3.21634 -65.30181,3.21634c0,0 -1.32132,1.6711 -1.32132,-6.20895c0,-5.48843 13.56754,-22.32897 34.43613,-28.30425c1.82011,-0.52116 -5.03405,-7.01908 -0.19302,-10.08047c1.04763,-0.6625 14.33031,-8.86328 21.92741,-5.80795c6.78133,2.72725 13.92245,10.86598 13.92245,10.86598c0,0 2.73884,-9.94678 4.87322,-12.28965c1.77388,-1.94715 17.16537,3.5635 21.83799,11.17046c4.99848,8.13744 7.79149,19.59212 7.79149,20.88269z" fill="#ac1e52" stroke="#000000" stroke-width="3.5"/><path d="M242.51914,267.34735c-6.19506,3.96697 -19.3733,9.32663 -33.6636,9.32663c-22.63411,0 -43.35101,10.62953 -43.35101,4.45951c0,-3.59399 -0.61448,-13.23443 9.41356,-19.70162c0.89871,-0.57958 3.55174,-1.94131 4.25598,-3.62088c1.24527,-2.96988 0.65067,-6.93351 3.85755,-9.32384c1.20526,-0.89837 5.49209,1.88084 6.86461,1.03912c4.92967,-3.02322 -11.89808,-7.9707 -7.13041,-11.04935c1.76701,-1.14103 7.13533,-4.66441 12.88804,-5.27953c8.41089,-0.89936 17.64345,1.38439 17.64345,1.38439l4.11021,4.60965l1.78185,5.10283l11.7669,-9.56033c0,0 -1.78485,-6.91922 -0.82519,-7.05962c1.30282,-0.19062 12.29282,7.12655 13.03989,9.01394c0.51005,1.28862 3.50879,4.57981 4.43694,6.25213c1.34213,2.41826 -0.34669,3.80849 0.10301,5.91803c0.93896,4.40478 -1.74963,13.13055 -1.74963,13.43111c0,0 0.17505,2.74158 -3.44212,5.05782z" fill="#730e67" stroke="none" stroke-width="0"/><path d="M225.56449,273.85239c-6.47002,2.49277 -11.80843,6.59981 -19.57203,9.96131c-11.91486,5.15891 -26.63921,6.68828 -37.26363,6.91872c-21.04567,0.45647 -26.95762,-8.18616 -27.7119,-10.7875c-0.222,-0.76566 7.03737,-7.70772 9.2592,-6.51497c4.58376,2.46074 17.73736,5.64618 28.35532,5.65047c10.68066,0.00432 36.78617,-15.76932 43.00891,-16.03853c8.44539,-0.36536 10.84795,-0.69957 18.41887,-2.90073c7.21658,-2.09814 13.38195,-3.69319 13.38195,-3.69319c0,0 3.64607,4.41243 2.79268,8.41342c-0.58409,2.73845 -9.1338,6.60602 -16.55014,7.14749c-2.11266,0.15425 -11.24577,0.73645 -14.11921,1.84352z" fill="#ac9ff9" stroke="#000000" stroke-width="4.5"/><path d="M259.96181,265.62582c0,0 0.95661,-2.77158 -4.38669,1.15765c-1.90545,1.40117 -12.76005,3.31002 -15.35133,4.06005c-2.74143,0.79347 -6.36797,0.18486 -9.25289,0.40535c-0.42538,0.03251 -4.35645,0.88652 -8.71045,2.54021c-4.46354,1.69527 -9.37153,4.2006 -11.40275,5.01712c-6.24092,2.50876 -6.8912,4.67017 -11.90897,6.58317c-2.16883,0.82686 -5.73412,2.09177 -9.95693,2.51497c-6.44478,0.64587 -15.10797,0.21964 -15.10797,0.21964l-0.57771,-7.32394c0,0 9.4877,-2.06955 14.82375,-2.06955c2.02514,0 7.04785,-2.09019 13.00237,-4.93626c8.06049,-3.85267 17.53131,-8.24666 20.80352,-8.99015c4.25993,-0.9679 10.42681,-1.73769 13.3523,-1.93064c5.2782,-0.34813 12.29481,-3.49398 15.13927,-4.03957c1.68534,-0.32326 7.30149,1.60633 7.30149,1.60633z" fill="#9564ed" stroke="none" stroke-width="0"/><path d="M215.89858,237.34665c0,0.31411 5.98315,-0.90602 5.98315,-0.90602l-2.41135,10.61578c0,0 -3.57181,-10.44028 -3.57181,-9.70974z" fill="#000000" stroke="none" stroke-width="0"/><path d="M237.54698,244.30013c-0.68904,0.50428 -6.08993,2.04138 -7.12735,1.49609c-1.68768,-0.88708 1.92319,-2.81234 2.84989,-3.56946c0.88987,-0.72704 5.52654,-3.15354 6.70477,-2.44711c1.55389,0.93166 -1.33564,3.72154 -2.42731,4.52048z" fill="#000000" stroke="none" stroke-width="0"/></g><g stroke-linecap="butt"><path d="M346.89519,204.72914c-4.55005,-2.59053 -10.85172,-21.08749 -13.38152,-25.05137c-2.94059,-4.60753 -3.84028,-5.70802 -2.22452,-8.54598c3.00579,-5.27944 4.09502,-5.07436 13.93394,0.52737c3.21128,1.82831 11.66878,9.44658 12.26586,18.45546c0.50041,7.55038 -6.10759,17.16868 -10.59376,14.61451z" fill="#0066cc" stroke="#000000" stroke-width="5"/><path d="M334.51617,176.41792c-0.94196,-1.92128 0.08899,-3.86904 0.08899,-3.86904c0,0 -0.9604,-0.78632 3.53228,2.80739c4.37708,3.50124 16.91416,14.61567 16.91416,14.61567c0,0 -0.10823,9.40332 -3.48963,12.01083c-1.0909,0.84123 -2.22383,1.27377 -4.19413,0.06464c-3.78439,-2.32241 -12.38773,-24.68318 -12.85168,-25.62949z" fill="#0f1980" stroke="none" stroke-width="0"/><path d="M204.01915,128.76486c1.99298,-3.50047 5.90179,-2.64299 11.32959,-2.24941c4.93946,0.35818 9.01385,1.8292 9.01385,1.8292c0,0 1.43641,-8.54259 2.2264,-12.35697c0.8314,-4.01423 2.68421,-11.90353 2.68421,-11.90353c0,0 31.40209,-3.30676 55.4236,9.01765c22.32117,11.45201 36.79456,40.56857 37.25496,45.4023c0.04118,0.43232 -2.30831,6.3208 -5.89738,10.19575c-2.66851,2.88107 -5.72728,4.13092 -10.56487,3.94925c-15.5481,-0.58389 -34.61091,-2.42983 -50.96608,-7.28971c-10.40301,-3.09123 -25.25338,-8.13621 -35.92907,-16.22244c-9.79972,-7.42271 -16.78335,-16.4937 -14.57522,-20.37208z" fill="#aa96c7" stroke="#000000" stroke-width="3.5"/><path d="M320.26629,158.70168c0,0 -2.25577,8.05924 -7.40358,10.70952c-4.93814,2.54231 -14.19331,1.36697 -14.19331,1.36697l-1.65757,-7.30344l-4.00494,4.43847l-12.78867,-33.46068c0,0 -10.14231,-0.40963 -15.16422,-0.61246c-4.95709,-0.20021 -15.10863,-2.59675 -15.10863,-2.59675l12.75956,-12.49296c0,0 -9.477,-2.75392 -14.16751,-3.17109c-5.38205,-0.47867 -20.83638,2.62481 -20.83638,2.62481l2.03992,-12.38478c0,0 17.16489,-5.09775 30.51811,-1.80965c19.99405,4.92335 39.30826,19.12576 42.71346,21.06449c5.67938,3.23352 17.29378,33.62757 17.29378,33.62757z" fill="#a7649a" stroke="none" stroke-width="0"/><path d="M321.03804,160.56209c-5.71803,-4.04698 -25.93486,-23.0409 -31.83518,-33.38701c-11.38178,-19.95774 -21.77998,-26.23388 -30.79906,-31.36884c-17.11815,-9.74608 -31.91164,-7.27889 -27.31186,-15.35801c1.0708,-1.88077 10.17689,-26.3834 12.48711,-27.25511c7.61374,-2.87287 33.30911,-10.92839 63.31354,6.0038c12.64165,7.13397 29.26239,21.89661 30.38904,23.37377c3.07596,4.03294 16.82439,17.26989 17.65998,24.94672c2.00467,18.41753 -4.49468,37.49483 -7.2716,42.37224c0,0 -0.46701,3.76889 -3.53095,5.4699c-3.30148,1.83289 -7.6232,0.76164 -12.01872,1.85309c-4.78363,1.18783 -9.57163,4.41863 -11.08229,3.34944z" fill="#ac1e52" stroke="#000000" stroke-width="5"/><path d="M276.29431,117.08062c0,0 -16.49745,-6.8828 -23.55608,-7.99341c-7.2279,-1.13724 -25.80409,3.66763 -25.80409,3.66763l-1.15754,4.97812c0,0 -8.15197,-4.1931 -13.23602,-4.61038c-5.94157,-0.48765 -17.74344,-4.63749 -17.74344,-4.63749c0,0 3.9239,-4.44654 8.45079,-7.63588c4.48574,-3.16037 16.75494,-6.91401 16.75494,-6.91401c0,0 -2.69589,-3.05073 -4.53595,-4.09837c-9.43896,-5.37402 -21.3079,-6.74396 -21.3079,-6.74396c0,0 0.86446,-1.05922 1.91029,-1.67947c1.94956,-1.15622 8.87567,-4.71734 8.87567,-4.71734l-3.56975,-4.04572c0,0 25.25149,-7.05739 37.6331,-11.0288c9.1165,-2.92413 10.62588,-1.37398 12.69179,-0.19777c1.24196,0.70711 4.32494,2.85427 9.18838,9.62036c5.14871,7.16294 8.59626,13.29205 8.59626,13.29205c0,0 0.74136,-2.38669 7.15017,-8.01209c2.29453,-2.01402 21.13697,-9.82118 21.13697,-9.82118c0,0 0.1597,-0.56479 -0.32927,0.59796c-0.83568,1.98724 -3.89589,8.57537 -3.89589,8.57537c0,0 8.5449,-2.43002 11.15401,-3.01933c1.41031,-0.31854 1.92563,0.43058 1.92563,0.43058c0,0 -19.56316,23.19461 -20.49229,32.38925c-0.98205,9.71824 -0.66672,21.26977 -0.66672,21.26977l-21.34916,-0.04178z" fill="#44acff" stroke="#000000" stroke-width="3.5"/><path d="M270.77242,91.28396c0,0 2.8926,-4.49439 4.96477,-6.89531c3.46929,-4.0197 14.6308,-10.83872 14.6308,-10.83872c0,0 -9.0722,14.0714 -7.59872,12.05804c3.78442,-5.17103 20.52933,-10.88554 20.52933,-10.88554c0,0 -17.36827,21.15013 -18.10805,29.64551c-0.82017,9.41842 -1.09174,20.55 -1.09174,20.55l-16.64155,0.46922l9.46167,-8.10574c0,0 -15.19219,-8.20989 -23.32696,-9.35171c-7.04125,-0.98834 -26.01248,2.93296 -26.01248,2.93296l-3.10337,4.65657c0,0 -5.08886,-2.23583 -8.28953,-2.60113c-3.70122,-0.42242 -11.96844,-3.45371 -11.96844,-3.45371l31.69213,-11.25542c0,0 -0.0546,-0.72676 -0.20545,-3.02243c-0.03235,-0.49237 -4.51075,-1.42439 -4.51075,-1.42439c0,0 4.23766,-2.47472 4.13151,-3.62486c-0.12671,-1.37296 -0.27822,-2.69639 -0.4584,-3.70083c-0.35007,-1.95154 -5.93944,-9.72596 -5.93944,-9.72596c0,0 4.72268,0.45318 9.71257,0.62993c2.27567,0.08061 4.53627,1.07444 6.94283,1.14817c3.18607,0.09762 6.47742,-0.66471 8.9195,0.0998c1.62116,0.50752 3.12759,1.93278 3.93541,2.70241c1.61732,1.54085 12.33436,9.99313 12.33436,9.99313z" fill="#356fee" stroke="none" stroke-width="0"/><path d="M320.33863,161.51444l-7.85023,16.29315c0,0 -2.4564,-10.66368 -4.43524,-15.44091c-1.41482,-3.41563 -8.32411,-10.28398 -8.32411,-10.28398l-2.63471,5.16628c0,0 -10.27668,-26.28958 -11.82332,-29.51415c-0.83934,-1.74994 2.77512,0.0539 2.77512,0.0539z" fill="#44acff" stroke="#000000" stroke-width="3"/><path d="M313.11876,174.42665c0,0 -1.95884,-8.88189 -4.02279,-12.8608c-2.18317,-4.20873 -9.73865,-11.74085 -9.73865,-11.74085l-1.84157,6.85509l-1.19622,-12.372l-4.45203,-4.58767l-4.29941,-9.90377c0,0 12.22767,12.3316 16.86064,16.79967c4.59025,4.42687 20.36161,12.025 20.36161,12.025z" fill="#356fee" stroke="none" stroke-width="0"/><path d="M326.63864,159.32234c0,0 -11.6198,-5.8665 -15.27411,-9.2892c-3.97437,-3.72249 -14.16321,-13.01819 -14.16321,-13.01819c0,0 22.67803,-19.5326 28.05939,-26.17885c3.77621,-4.6638 5.08166,-13.7224 10.27462,-15.05048c8.54126,-2.18439 20.1282,10.16277 22.55577,17.89906c2.74893,12.36295 3.87721,29.06057 0.96838,34.97313c-0.10387,0.21116 -14.72771,14.89068 -15.5817,15.59856z" fill="#730e67" stroke="#000000" stroke-width="2.5"/><path d="M344.6738,172.3462c0.59078,3.99146 -26.23236,16.33745 -28.79383,14.87911c-4.66935,-2.65845 -6.53985,-11.5433 -6.53985,-11.5433l5.96092,1.56874c0,0 3.98531,-5.62602 5.5244,-8.22896c1.80753,-3.05694 5.14549,-9.7206 5.14549,-9.7206c0,0 17.17532,5.29175 17.95285,10.54504z" fill="#aa96c7" stroke="#000000" stroke-width="4.5"/><path d="M334.75814,177.9394c0,0 -6.97355,3.10787 -8.24416,4.08653c-1.19915,0.92363 -9.31376,4.00833 -10.76269,2.76211c-1.44895,-1.24624 -3.86254,-6.41204 -3.86254,-6.41204l5.38187,0.22372l7.0762,-10.6045z" fill="#a7649a" stroke="none" stroke-width="0"/><path d="M321.41196,167.2288c0.52976,-1.1119 11.27569,6.22679 11.53018,7.33356c0.15605,0.67864 -16.73012,3.09444 -17.34997,3.15717c0,0 5.39397,-9.59699 5.81979,-10.49073z" fill="none" stroke="#000000" stroke-width="2"/></g><path d="M210.35895,248.39274c-1.3836,0.4568 -5.55491,-2.64144 -9.7759,-4.14954c-4.44708,-1.58889 -8.94929,-1.60932 -10.30461,-1.7994c-2.73892,-0.38412 -5.97625,0.09762 -5.97625,-1.20045c0,-2.55007 5.02056,-3.57469 12.31449,-3.57469c2.71502,0 9.23386,0.09262 11.47725,2.32071c3.78349,3.75769 4.28171,7.73756 2.26502,8.40338z" fill="#ac9ff9" stroke="#000000" stroke-width="3" stroke-linecap="butt"/><path d="M200.00763,256.4358c-4.29458,2.3457 -7.33505,-4.08429 -13.49763,-6.47934c-7.05263,-2.74096 -13.9869,-3.16291 -13.9869,-5.13842c0,-2.27515 8.31155,-3.49778 15.60303,-2.71204c4.57196,0.49268 9.13274,2.64269 9.78013,3.12089c4.88179,3.60602 5.42811,9.39184 2.10137,11.2089z" fill="#ac9ff9" stroke="#000000" stroke-width="3" stroke-linecap="butt"/><path d="M189.28278,262.9265c-1.53095,2.2069 -7.24448,-3.27619 -13.64215,-6.36735c-6.39767,-3.09115 -11.7707,-5.00295 -10.23974,-7.20985c1.53095,-2.2069 8.67225,-1.78795 15.06992,1.3032c6.39767,3.09115 10.34292,10.0671 8.81197,12.274z" fill="#ac9ff9" stroke="#000000" stroke-width="3" stroke-linecap="butt"/><path d="M210.78051,244.28733c0,1.82618 0.15361,2.7704 -2.03457,2.7704c-2.18818,0 -5.24704,-3.12786 -5.24704,-3.12786l3.42664,-2.7704c0,0 3.85497,1.30169 3.85497,3.12786z" fill="#9564ed" stroke="none" stroke-width="0" stroke-linecap="butt"/><path d="M201.14308,252.24103c0,1.77683 -0.77654,3.57469 -3.31956,3.57469c-2.54302,0 -5.67538,-3.75343 -5.67538,-3.75343l6.1037,-4.6471c0,0 2.89123,3.049 2.89123,4.82584z" fill="#9564ed" stroke="none" stroke-width="0" stroke-linecap="butt"/><path d="M187.86485,259.56915c0,1.77682 0.42833,3.03849 0.42833,3.03849l-6.42495,-4.1109l3.42664,-2.50228c0,0 2.56999,1.79787 2.56999,3.57469z" fill="#9564ed" stroke="none" stroke-width="0" stroke-linecap="butt"/><path d="M288.50842,185.95215c0,0 -4.06985,-0.3998 -6.49141,0.51056c-2.61857,0.98442 -9.67526,6.21376 -9.67526,6.21376c0,0 4.43521,-5.84697 8.04002,-7.60483c3.93049,-1.91667 13.54331,-0.71472 13.54331,-0.71472c0,0 5.57676,4.74278 4.70232,5.0003c-0.92794,0.27328 -10.11898,-3.40508 -10.11898,-3.40508z" fill="#000000" stroke="none" stroke-width="0" stroke-linecap="butt"/><g><path d="M201.41612,212.54694c0,0 -1.1235,8.39453 -5.52264,10.36955c-0.45452,0.20407 -12.23915,3.27272 -13.86845,-7.39257c-0.35299,-2.31071 -2.91224,-10.4711 -0.45714,-13.19269c4.80292,-5.32419 3.21549,-9.47319 3.07665,-9.81118c-1.83537,-4.46841 -6.13555,-11.13766 -3.09705,-12.3857c1.55856,-0.64016 7.70261,1.64163 15.37708,5.44121c2.13376,1.05642 2.3234,-7.21097 4.26067,-6.11684c0.56979,0.32182 4.10509,6.59775 4.62748,6.89907c3.76747,2.17281 4.53749,8.97866 5.09269,10.3304c1.0943,2.66421 -1.17991,5.78922 -5.88039,8.56821c-1.65598,0.97905 -3.16478,5.34399 -3.16478,5.34399z" fill="#a7649a" stroke="#000000" stroke-width="3" stroke-linecap="butt"/><path d="M155.94725,228.7284c-7.05619,2.02195 -12.90554,-3.13796 -14.90087,-10.10132c-1.99534,-6.96334 22.54976,-44.48163 29.60597,-46.50358c7.05618,-2.02195 16.99126,5.9693 18.98661,12.93264c1.99534,6.96334 -26.63552,41.6503 -33.69172,43.67226z" fill="#304098" stroke="#000000" stroke-width="2.5" stroke-linecap="butt"/><path d="M146.57822,221.3774c-0.63602,0.43868 -1.6851,0.0209 -2.3431,-0.93319c-0.65803,-0.95405 -0.67585,-2.0831 -0.0398,-2.52179c0.63602,-0.43868 1.6851,-0.0209 2.3431,0.93319c0.65803,0.95405 0.67584,2.08312 0.0398,2.52178z" fill="#304098" stroke="none" stroke-width="0" stroke-linecap="butt"/><path d="M174.187,225.41013c-4.00286,2.83581 -12.70927,0.29542 -17.10554,0.12289c-6.17717,-0.2424 -16.93591,-17.56576 -16.6208,-19.2661c0.67237,-3.62817 6.03527,-9.59836 6.03527,-9.59836c0,0 2.69479,-6.19282 3.2595,-7.89471c0.29951,-0.90262 -0.63487,-5.95039 1.35184,-9.15981c1.9867,-3.20944 6.13922,-1.36769 7.07701,-4.45661c0.19732,-0.64987 0.69707,-6.08277 0.91652,-6.64266c2.11902,-5.40669 -0.02193,-9.08224 5.29829,-11.26745c4.6214,-1.8982 16.44205,2.56739 22.61514,6.13164c9.4053,5.43052 9.8877,10.49728 13.34491,18.9143c1.22955,2.99353 2.46926,8.85227 -0.66904,12.68354c-1.47016,1.79479 -4.75825,1.95073 -6.28987,2.67996c-3.35906,1.59922 -4.43321,5.66688 -4.43321,5.66688c0,0 -2.66543,3.12063 -3.24147,5.83361c-0.6081,2.86415 -3.8213,3.95191 -6.60091,5.0936c0,0 0.97809,6.61786 -4.93763,11.15928z" fill="#aa96c7" stroke="#000000" stroke-width="2.5" stroke-linecap="butt"/><path d="M199.7566,192.70211c1.15762,2.38304 -11.94093,7.38164 -11.94093,7.38164c0,0 -0.51163,5.58487 -4.39007,10.8022c-1.11233,1.49633 -5.82786,4.60974 -5.82786,4.60974c0,0 0.49232,3.34334 -2.86601,7.65474c-4.1839,5.37129 -16.56681,1.03594 -16.56681,1.03594c0,0 5.47789,-2.12534 5.27257,-4.63213c-0.21745,-2.65457 -0.83711,-4.71849 -2.5809,-8.58897c-0.89523,-1.98706 -3.23561,-7.61598 -3.23561,-7.61598c0,0 2.45204,1.13188 5.25054,2.92106c2.85983,1.82842 5.78791,4.4687 9.13672,4.54343c2.21655,0.04948 3.87939,-2.91415 5.54627,-4.21657c2.4085,-1.88188 -8.47347,-19.55256 -8.47347,-19.55256c0,0 7.53725,7.28823 13.03827,10.35134c1.76077,0.98043 3.04652,0.26096 4.15641,0.37999c3.91604,0.41992 6.41154,-16.80039 6.41154,-16.80039c0,0 3.44976,-1.1414 5.68193,1.58225c2.31686,2.82698 1.22817,9.81644 1.38741,10.14424z" fill="#a7649a" stroke="none" stroke-width="0" stroke-linecap="butt"/><path d="M188.16045,202.70237c-0.573,0.23535 -4.68353,-0.44174 -8.23745,-3.43333c-2.56197,-2.15663 -4.34925,-5.39424 -6.85511,-8.59097c-2.15019,-2.74301 -6.5311,-4.72226 -6.5311,-4.72226c0,0 2.83885,-0.86398 5.85892,1.8345c3.02018,2.69858 7.52309,8.03564 10.27035,9.6339c4.19323,2.43948 7.74832,2.52243 7.98665,3.10267c0,0 -1.15171,1.62491 -2.49224,2.17552z" fill="#000000" stroke="none" stroke-width="0" stroke-linecap="butt"/><path d="M179.06315,217.33599c-0.20982,-0.51091 -6.48683,-1.97036 -9.85045,-3.76949c-2.36605,-1.26555 -4.77654,-4.05961 -6.66407,-6.66044c-2.11772,-2.91797 -6.76689,-3.75151 -6.76689,-3.75151c0,0 5.78465,-0.50254 10.85653,5.51159c1.45329,1.72329 3.81968,2.59679 5.6943,3.29579c2.97064,1.10769 6.87335,1.66403 7.06033,2.1193c0.52307,1.2735 -0.13396,0.49882 -1.07233,0.88421c0,0 1.26565,3.64408 0.74257,2.37054z" fill="#000000" stroke="none" stroke-width="0" stroke-linecap="butt"/><g><g data-paper-data="{&quot;index&quot;:null}"><path d="M212.23156,135.26066c13.50092,3.42398 21.63635,17.27656 18.17103,30.94065c-3.46535,13.6641 -17.21921,21.96538 -30.72013,18.54139c-6.21274,-1.57561 -5.93001,-4.38566 -9.26277,-9.34339c-3.90966,-5.8159 -10.7789,-14.22101 -8.90824,-21.59727c0,0 4.16737,-8.8714 11.59301,-14.39711c5.4649,-4.06662 13.40349,-5.59582 19.12713,-4.14425z" fill="#314099" stroke="#000000" stroke-width="3" stroke-linecap="butt"/><path d="M198.1283,144.04168c1.27243,1.00206 1.66761,2.61706 0.88262,3.60719c-0.78502,0.99013 -2.45287,0.98045 -3.72528,-0.02161c-1.27243,-1.00206 -1.66763,-2.61704 -0.88262,-3.60717c0.78501,-0.99014 2.45286,-0.98047 3.72528,0.0216z" fill="#314099" stroke="none" stroke-width="0" stroke-linecap="butt"/><path d="M205.03717,141.21434c1.08813,-1.07002 3.14549,-0.75194 4.59523,0.7105c1.44973,1.46242 1.74284,3.51538 0.65472,4.5854c-1.08814,1.07002 -3.14549,0.75196 -4.59523,-0.71047c-1.44973,-1.46242 -1.74286,-3.5154 -0.65473,-4.58542z" fill="#314099" stroke="none" stroke-width="0" stroke-linecap="butt"/><path d="M202.53882,185.49574c0,0 -10.46845,-7.59342 -14.74039,-15.02987c-1.82628,-3.17912 9.11157,1.05036 19.91318,1.33837c11.33175,0.30213 21.78878,-5.19093 21.78878,-5.19093c0,0 -2.4718,8.48091 -4.77423,10.93185c-2.34169,2.49273 -8.75457,4.86943 -8.75457,4.86943z" fill="#232362" stroke="none" stroke-width="0" stroke-linecap="butt"/><path d="M184.79761,164.81465c0,0 1.59069,-10.21189 7.2734,-16.12214c1.96024,-2.9375 19.89753,-11.11987 19.89753,-11.11987" fill="none" stroke="#000000" stroke-width="2" stroke-linecap="round"/><path d="M189.99799,173.17213c0,0 0.42996,-10.02127 12.2842,-20.42697c7.973,-5.91804 23.00076,-8.33591 23.00076,-8.33591" fill="none" stroke="#000000" stroke-width="2" stroke-linecap="round"/><path d="M195.29295,179.42581c0,0 4.05428,-10.59922 8.49997,-14.35627c5.58217,-4.71749 23.8187,-12.33712 23.8187,-12.33712" fill="none" stroke="#000000" stroke-width="2" stroke-linecap="round"/><path d="M201.08342,182.53853c0,0 5.25736,-9.70281 9.79185,-12.8666c4.9215,-3.43382 18.67126,-6.99263 18.67126,-6.99263" fill="none" stroke="#000000" stroke-width="2" stroke-linecap="round"/><path d="M218.54159,181.02093c0,0 -12.6444,-10.31934 -16.8589,-17.07325c-4.51634,-7.23764 -9.39635,-25.00183 -9.39635,-25.00183" fill="none" stroke="#000000" stroke-width="2" stroke-linecap="round"/><path d="M226.77571,174.31595c0,0 -10.87815,-5.20585 -18.08685,-15.60672c-6.04104,-9.55276 -5.84308,-23.04778 -5.84308,-23.04778" fill="none" stroke="#000000" stroke-width="2" stroke-linecap="round"/><path d="M228.61611,165.90034c0,0 -1.77687,4.45444 -11.1431,-12.30703c-4.52326,-7.23972 -4.83495,-15.9731 -4.83495,-15.9731" fill="none" stroke="#000000" stroke-width="2" stroke-linecap="round"/><path d="M176.53027,162.41319c0.2191,-0.86389 1.04776,-10.46488 5.09576,-7.50531c1.55174,1.1345 1.21734,12.86707 6.24461,19.1416c6.88898,8.59813 14.58695,12.05488 14.83106,13.26094c0.4787,2.36512 -9.21875,0.81977 -9.2957,1.1232c-0.14631,0.57688 -6.7526,-2.016 -12.00441,-8.53392c-4.93018,-6.1188 -5.00866,-16.94493 -4.87132,-17.48647z" fill="#303f99" stroke="#000000" stroke-width="3" stroke-linecap="butt"/><path d="M181.11356,168.18965c0.8636,-0.43531 2.04491,0.16643 2.63854,1.34407c0.59364,1.17764 0.37479,2.48522 -0.48883,2.92054c-0.8636,0.43531 -2.04491,-0.16644 -2.63854,-1.34407c-0.59365,-1.17763 -0.37479,-2.48521 0.48882,-2.92053z" fill="#6382ce" stroke="none" stroke-width="0" stroke-linecap="butt"/><path d="M179.55907,160.42108c1.09923,0.02423 2.08698,1.26127 2.79333,2.71204c0.7063,1.45078 0.86378,2.56595 -0.23546,2.54169c-1.09922,-0.02425 -2.56295,-1.22001 -3.26928,-2.67076c-0.70633,-1.45077 -0.38782,-2.60721 0.7114,-2.58294z" fill="#6382ce" stroke="none" stroke-width="0" stroke-linecap="butt"/></g><path d="M210.83993,184.20167c0,0 -14.36559,-9.42356 -17.3167,-13.963c-2.95111,-4.53942 -7.09267,-24.05333 -7.09267,-24.05333" fill="none" stroke="#000000" stroke-width="2" stroke-linecap="round"/></g></g><g stroke-linecap="butt"><path d="M344.52893,277.32173c0,6.90125 -22.17977,21.74365 -39.13112,21.74365c-10.06363,0 -27.39062,2.42813 -38.75403,-4.16472c-2.72249,-1.57953 -6.83868,-9.80222 -8.43254,-11.65006c-2.95937,-3.43092 0.46243,-13.2734 0.92151,-14.53299c1.6732,-4.59075 -1.38738,-7.1782 -2.74747,-8.33053c-2.01941,-1.71093 -8.88423,-3.04137 -12.78268,-2.55334c-1.6423,0.20559 -2.36006,-3.07379 -1.81855,-5.53222c0.63637,-2.88907 3.05206,-6.10631 3.68264,-6.43315c0.44167,-0.22893 2.93556,-2.78455 7.61675,-2.77478c3.85729,0.00806 12.25729,8.57344 15.25029,7.99243c1.61052,-0.31265 -10.51877,-16.42253 -8.09082,-18.17629c4.65001,-3.35879 7.54585,-2.05724 11.81677,-3.17335c3.26873,-0.85422 10.6754,9.4946 10.81059,10.08895c0.23852,1.04869 14.81676,13.16364 15.20695,13.21767c2.88527,0.39955 1.11003,0.25385 4.0199,-0.1576c2.28352,-0.32288 11.74599,-6.22071 16.12952,-12.02235c3.81454,-5.0486 11.28659,-2.54984 12.81055,-2.59892c2.26442,-0.07293 7.86665,3.88665 6.17493,7.84638c-0.16305,0.38163 -6.53434,0.21336 -11.13466,1.00575c-5.31601,0.91568 -8.93784,2.77884 -8.7252,2.83428c8.92156,2.32617 19.48732,2.46784 24.72259,9.68867c3.72564,5.13866 7.73149,13.61455 7.73149,16.09918z" fill="#ac1e52" stroke="#000000" stroke-width="3.5"/><path d="M348.5655,275.56404c0,5.24539 -35.55456,21.32821 -55.75257,21.32821c-20.19801,0 -31.04651,-9.9975 -31.04651,-9.9975c0,0 -6.12253,-2.15899 -6.14881,-7.98702c-0.01799,-3.98919 4.32912,-11.22497 5.45542,-16.60792c0.63392,-3.02968 -4.41206,16.6108 -3.60671,14.67404c1.06178,-2.55346 10.9873,-4.35311 11.40482,-4.77481c3.36363,-3.39729 5.2785,2.58058 12.33322,-1.18138c5.27794,-2.81448 11.30582,-4.86765 17.66011,-4.86765c4.85284,0 18.81923,-4.92835 27.88455,-3.55514c5.11563,0.77491 15.69763,1.21236 15.69763,1.21236z" fill="#730e67" stroke="none" stroke-width="0"/><path d="M339.13917,292.29715c-5.52688,4.81629 -13.85574,6.59871 -25.89898,9.09405c-17.10767,3.54469 -34.83374,2.31163 -44.94119,-0.6761c-4.95122,-1.46357 -12.62331,-4.02148 -15.34587,-7.07992c-1.56476,-1.75781 -3.66235,-4.59352 -4.03042,-7.24484c-0.51489,-3.70898 1.07889,-7.3761 1.00781,-10.03734c-0.15038,-5.6298 -0.74079,-7.00584 -0.74079,-7.87297c0,-2.1552 7.93702,-5.57957 7.93702,-5.57957c0,0 1.75361,2.45864 1.7753,6.76334c0.018,3.57308 -3.44597,8.06243 -2.76437,11.30728c0.76974,3.66444 4.55453,5.35825 6.17601,6.13384c5.80516,2.77672 20.32557,4.93288 33.95149,4.83864c11.01315,-0.07617 22.21644,-2.96918 25.18133,-4.4836c4.54392,-2.32097 28.35404,-13.60936 28.35404,-13.60936c0,0 0.10492,2.92607 -0.30228,4.85096c-1.16102,5.48837 -3.44211,8.72029 -6.35909,11.26224z" fill="#ac9ff9" stroke="#000000" stroke-width="4"/><path d="M291.75741,250.36435l-15.9623,8.66623c0,0 -5.46979,6.13506 -7.01689,3.54044c-0.33591,-0.56336 -6.88011,-6.37928 -6.66683,-8.29849c0.22516,-2.02612 7.22582,-0.19026 7.52637,-2.01082c0.27052,-1.63865 0.6172,-2.52241 0.39955,-2.88742c-1.45069,-2.43293 -3.98675,-6.68609 -3.98675,-6.68609l11.55079,-7.31839z" fill="#730e67" stroke="none" stroke-width="0"/><path d="M336.62236,243.38512c-0.57182,0.86105 -0.65232,1.33578 -1.95944,1.59607c-3.41972,0.68098 -10.05723,0.89426 -11.52824,1.71805c-0.52197,0.29231 -2.28051,-0.48997 -3.59328,0.15471c-3.04852,1.49713 -6.68064,5.49916 -8.36494,5.94249c-3.378,0.88914 -1.52936,-3.26515 -1.52936,-3.26515c0,0 3.27628,-3.72029 9.13434,-8.34248c5.53295,-4.36566 19.42217,-0.18478 17.84091,2.19631z" fill="#730e67" stroke="none" stroke-width="0"/><path d="M347.49232,278.03932c-0.21355,5.31589 -2.82272,6.87652 -4.216,8.82092c-0.67537,0.94252 -2.1473,3.28028 -4.73962,4.89702c-1.76277,1.09938 -4.4545,1.46216 -6.16788,2.39456c-7.21027,3.92377 -18.66956,5.49845 -21.26075,5.95054c-2.84567,0.49649 -13.00185,1.35448 -16.08884,1.60491c-16.90213,1.3712 -27.9205,-2.98205 -27.9205,-2.98205c0,0 22.51824,5.09006 55.14565,-4.5891c4.48943,-1.33182 25.3524,-18.69657 25.24795,-16.09679z" fill="#9564ed" stroke="none" stroke-width="0"/><path d="M298.77298,266.52581c0,2.48445 -30.79874,-0.51454 -30.79874,-3.99867c0,-1.25098 6.54097,-5.91216 12.06026,-8.90865c5.44203,-2.95455 11.19675,-4.25362 11.19675,-4.25362l4.49294,5.28695c0,0 2.69933,1.54527 4.10607,1.48954c1.26486,-0.05012 3.25242,-0.80921 3.25242,-0.80921c0,0 2.15661,-3.74668 5.68081,-4.78334c3.21634,-0.9461 9.26791,3.0873 8.57448,4.13187c-1.40225,2.11234 -18.56498,11.58477 -18.56498,11.84514z" fill="#ac9ff9" stroke="#000000" stroke-width="2.5"/><path d="M296.36364,257.22911c0,0.88438 1.29874,-1.56437 7.67618,-1.44153c0.84907,0.01635 0.32595,0.13796 0.65463,-0.59667c0.64517,-1.442 2.0363,-4.28107 5.77027,-4.37157c2.48811,-0.0603 4.63086,1.6292 5.24881,3.18233c0.76558,1.92417 -0.33375,3.81731 -0.38245,4.02713c-0.50752,2.18656 -15.43813,7.66375 -16.7335,7.66375c-2.61536,0 -13.505,-13.66211 -13.505,-13.66211l5.43707,-2.33255c0,0 4.03397,3.38669 4.03397,6.33122z" fill="#9564ed" stroke="none" stroke-width="0"/><path d="M319.62686,261.24832c-3.71138,2.06802 -14.53122,3.35447 -23.85245,3.71069c-9.19162,0.35126 -19.6242,4.60812 -24.72608,4.97682c-2.0969,0.15154 -2.71771,-0.54022 -2.87139,-1.75448c-0.35845,-2.83213 12.27131,-8.6395 26.5581,-11.18642c6.35268,-1.1325 15.33642,-1.04275 20.14111,0.19548c4.8439,1.24835 5.47996,3.65157 4.75074,4.05791z" fill="#ac9ff9" stroke="#000000" stroke-width="2.5"/><path d="M298.4141,268.89087c-10.40983,0.57828 -21.46722,6.36933 -26.84355,6.66948c-2.2097,0.12336 -2.53044,-2.24244 -2.67322,-3.45864c-0.33296,-2.83665 11.68032,-6.12472 26.75932,-8.47955c6.70494,-1.04708 17.61777,-2.20413 22.65606,-0.90149c5.07941,1.31327 6.44002,3.37431 5.66601,3.77081c0,0 -15.76221,1.85486 -25.56463,2.39939z" fill="#ac9ff9" stroke="#000000" stroke-width="2.5"/><path d="M268.79978,258.86318c0,0 -2.18754,3.43218 -1.83036,4.71067c0.3027,1.08345 2.82207,0.94378 2.23001,1.90272c-1.61115,2.60953 -6.41604,2.88021 -8.18646,2.59787c-0.7202,-0.11485 -1.01704,-1.97322 -1.33297,-5.11469c-0.2228,-2.21548 -2.2551,-4.6744 -2.65208,-4.61223c-1.53653,0.24063 -1.25967,-2.65162 -2.45307,-2.65162c-3.87459,0 -6.55039,1.93219 -10.52337,0.49983c-2.37133,-0.85492 0,-5.49816 0,-5.49816c0,0 5.46489,-0.75898 8.04712,-0.6285c2.88059,0.14556 13.70117,3.79411 13.70117,3.79411z" fill="#730e67" stroke="none" stroke-width="0"/><path d="M308.20734,256.86239l-3.35475,4.50323l-8.74713,1.32816l-5.08631,-3.83206c0,0 5.69781,-2.10713 9.43311,-2.49523c3.74794,-0.38942 7.75504,0.49589 7.75504,0.49589z" fill="#9564ed" stroke="none" stroke-width="0"/><path d="M255.6272,256.19574c0,0.70149 3.91699,3.83205 2.63084,3.83205c-1.09372,0 -1.59116,-1.48672 -4.24879,-2.15442c-3.69742,-0.92892 -9.40697,-0.60782 -9.40697,-1.41086c0,-1.38025 3.32327,-4.09883 5.93863,-4.09883c2.61535,0 5.0863,2.45181 5.0863,3.83206z" fill="#000000" stroke="none" stroke-width="0"/><path d="M323.97943,246.47957c0,0.84587 -5.01601,4.31994 -6.34301,7.33052c-0.95216,2.16017 -1.27837,-0.40964 -1.27837,-0.40964c0,0 -6.57509,-4.02191 -6.57509,-4.36712c0,-0.90533 5.26319,-2.33827 7.12471,-3.46537c2.30092,-1.39316 7.07175,0.91161 7.07175,0.91161z" fill="#000000" stroke="none" stroke-width="0"/></g><path d="M315.89576,55.21467l-0.66667,45.33333" fill="none" stroke="#000000" stroke-width="2" stroke-linecap="round"/><path d="M321.56243,49.88133v71" fill="none" stroke="#000000" stroke-width="2" stroke-linecap="round"/><path d="M330.89576,44.548l-1,72.33333" fill="none" stroke="#000000" stroke-width="2" stroke-linecap="round"/><path d="M338.56243,49.548l-1.33333,77.33333" fill="none" stroke="#000000" stroke-width="2" stroke-linecap="round"/><path d="M343.56243,126.88133l3,-71.33333" fill="none" stroke="#000000" stroke-width="2" stroke-linecap="round"/><path d="M353.89576,67.548l-3,62" fill="none" stroke="#000000" stroke-width="2" stroke-linecap="round"/><path d="M250.74135,139.29425c-0.4628,2.72237 -7.15641,0.27681 -13.10024,-0.73364c-5.94383,-1.01045 -9.88708,-3.86983 -9.42428,-6.5922c0.4628,-2.72237 6.65641,-1.27681 12.60024,-0.26636c5.94383,1.01045 10.38708,4.86983 9.92428,7.5922z" fill="#000000" stroke="none" stroke-width="0" stroke-linecap="butt"/><path d="M289.45721,154.56164c-1.15298,1.99151 -8.68927,0.31904 -14.98243,-3.32437c-6.29316,-3.64341 -10.29344,-7.37808 -9.14046,-9.36959c1.15298,-1.99151 10.0226,-0.31904 16.31576,3.32437c6.29316,3.64341 8.96011,7.37808 7.80713,9.36959z" fill="#000000" stroke="none" stroke-width="0" stroke-linecap="butt"/><path d="M282.31098,163.33362c-1.2747,3.60102 -16.18953,-1.075 -27.5566,-5.09874c-11.36706,-4.02374 -22.21521,-9.70482 -20.94051,-13.30584c1.2747,-3.60102 9.53802,-1.53758 27.0566,5.76541c13.42771,5.59762 22.71521,9.03816 21.44051,12.63917z" fill="#b34783" stroke="#000000" stroke-width="2.5" stroke-linecap="butt"/><path d="M358.56243,91.21467l-0.33333,34.33333" fill="none" stroke="#000000" stroke-width="2" stroke-linecap="round"/></g></g></svg>