<svg version="1.1" xmlns="http://www.w3.org/2000/svg" xmlns:xlink="http://www.w3.org/1999/xlink" width="347" height="286" viewBox="0,0,347,286"><g transform="translate(-85,-40.50003)"><g data-paper-data="{&quot;isPaintingLayer&quot;:true}" fill-rule="nonzero" stroke-linejoin="miter" stroke-miterlimit="10" stroke-dasharray="" stroke-dashoffset="0" style="mix-blend-mode: normal"><path d="M85,326.50003v-286h347v286z" fill="none" stroke="none" stroke-width="0" stroke-linecap="butt"/><text transform="translate(211.22476,115.34676) scale(0.20352,0.20352)" font-size="40" xml:space="preserve" fill="#000000" fill-rule="nonzero" stroke="none" stroke-width="1" stroke-linecap="butt" stroke-linejoin="miter" stroke-miterlimit="10" stroke-dasharray="" stroke-dashoffset="0" font-family="Sans Serif" font-weight="normal" text-anchor="start" style="mix-blend-mode: normal"><tspan x="0" dy="0">Polargaming64</tspan><tspan x="0" dy="46.150000000000006px"> </tspan><tspan x="0" dy="46.150000000000006px">MeIzAwezomeDede</tspan><tspan x="0" dy="46.150000000000006px"> </tspan><tspan x="0" dy="46.150000000000006px">AwezomeXD</tspan></text><g stroke-linecap="butt"><path d="M306.43694,232.8997c-6.78582,1.68143 -22.04604,-5.04084 -24.04552,-5.04084c-3.86599,0 -7.25,-8.31409 -7.25,-15.0395c0,-3.84489 6.93485,-13.90353 7.60141,-19.59547c0.49937,-4.26432 4.0761,-7.53169 5.73192,-7.53169c1.48938,0 6.70834,0.81808 11.12775,6.50088c3.70313,4.76177 -0.25264,11.2788 2.67419,15.81156c2.64688,4.0992 14.69806,0.75793 14.69806,2.72132c0,0 -4.20328,20.60413 -10.53781,22.17374z" fill="#aa96c7" stroke="#000000" stroke-width="3.5"/><path d="M300.22476,193.35886c0,0 -0.91865,6.75844 -0.60298,9.32466c0.22192,1.80411 1.06691,5.60868 1.06691,5.60868c0,0 -7.65285,5.78832 -12.25992,6.56172c-3.8132,0.64013 -10.454,-0.99506 -10.454,-0.99506c0,0 -3.79227,-15.18709 -0.21407,-16.11081c0.76847,-0.19838 3.68616,-12.06383 8.53677,-9.56105c5.1261,2.64492 13.92729,5.17186 13.92729,5.17186z" fill="#a7649a" stroke="none" stroke-width="0"/><path d="M286.54623,227.85559c5.56819,1.75247 16.01876,0.50782 19.66798,-1.23549c6.5571,-3.13247 9.83512,-15.77355 9.83512,-15.77355c0,0 10.56209,5.45932 10.83851,11.92496c0.14168,3.31393 -5.19846,17.37812 -8.07461,21.56462c-2.88256,5.31187 -8.04069,6.6511 -10.73629,7.26742c-3.23021,0.16309 -13.96839,-5.00071 -16.58289,-10.46135c-1.45368,-3.03616 -5.09745,0.47134 -5.09745,0.47134c0,0 -6.86353,-4.96528 -7.66773,-4.63202c-3.78114,1.56691 -1.38715,1.95459 -5.42258,6.09859c-0.35647,0.36606 -3.43899,1.50364 -3.74313,1.91474c-0.36822,0.49771 -5.94023,-1.50134 -5.94023,-1.50134c0,0 -6.99074,-4.23432 -9.25509,-4.50267c-1.99322,-0.23622 -7.12166,-0.02338 -7.12166,-0.02338c0,0 0.92787,-1.42458 -2.06823,-4.12547c-2.65367,-2.3922 -10.64411,-8.49216 -11.25606,-8.01649c-1.10684,0.86034 -2.02065,3.69125 -4.51191,6.89002c-2.1633,2.77767 -6.2537,4.62251 -6.2537,4.62251c0,0 -13.1268,-14.04339 -17.45857,-13.59367c-3.6307,0.37693 -5.65406,0.14275 -8.23922,0.57813c-6.03427,1.01626 -9.30221,1.68221 -9.30221,1.68221c0,0 0.4698,-4.40395 1.31386,-6.87344c1.07102,-3.13353 3.32837,-9.26472 4.59509,-10.41456c0.75294,-0.68347 4.25311,1.42056 7.00523,2.38783c3.36424,1.18242 11.71513,4.19175 11.71513,4.19175c0,0 14.04593,-13.62492 20.6207,-13.62492c12.93628,0 29.20606,5.46061 37.7763,10.50115c4.63482,2.72594 2.96625,7.167 5.31708,9.80092c1.37505,1.54063 6.08567,3.36959 7.39657,3.78216z" fill="#0066cc" stroke="#000000" stroke-width="3.5"/><path d="M229.05625,248.05468c-1.09446,-0.16352 -3.83768,-2.40147 -5.0632,-4.62109c-0.55741,-1.00955 0.30953,-1.69807 -0.16469,-2.74389c-1.60333,-3.53589 -5.3471,-11.31002 -5.3471,-11.31002l6.725,-8.175c0,0 5.55298,-8.88472 17.6009,-8.70053c12.48608,0.19089 31.60249,9.48049 38.67529,11.22594c1.59877,0.39455 2.06304,3.31762 4.01414,5.34912c1.10856,1.15425 2.72233,0.68524 2.84168,0.83904c0.22403,0.28868 1.33407,8.53164 -1.00111,11.64708c-3.85275,5.14008 -11.68676,7.83848 -19.84573,8.54197c-4.17061,0.35961 -14.85914,8.49665 -20.24596,7.05471c-5.84772,-1.56532 -6.23793,-12.73646 -6.23793,-12.73646c0,0 -11.43182,3.70675 -11.95129,3.62913z" fill="#0f1b82" stroke="none" stroke-width="0"/><path d="M233.83126,227.62968l-4.7,-6.9c0,0 3.60999,2.7342 5.20188,3.99096c1.57459,1.2431 4.09812,3.70904 4.09812,3.70904z" fill="#000000" stroke="none" stroke-width="0"/><path d="M317.58126,212.32968l7.64984,8.20247c0,0 0.95009,2.4704 -0.36328,5.76482c-1.72119,4.31741 -3.32422,12.80004 -6.16433,16.2423c-4.39933,5.33205 -6.83158,8.19041 -11.77223,8.69041c-0.83748,0.08475 -9.16023,7.39502 -11.27619,3.67171c-1.60075,-2.81675 -9.92623,-14.96906 -11.42207,-17.5371c-1.72374,-2.9593 4.24025,-7.49273 4.24025,-7.49273c0,0 10.34979,0.15977 16.0611,-1.06611c1.42719,-0.30633 -11.31004,6.10989 -11.31004,6.10989c0,0 11.03917,12.31433 13.25696,12.31433c4.83827,0 10.00843,-27.35905 10.00843,-27.35905z" fill="#0f1b82" stroke="none" stroke-width="0"/></g><path d="M303.22476,167.98383l-64,14c0,0 2.31331,-2.48159 3.22853,-5.11434c1.58532,-4.56037 4.22653,-11.07451 6.82499,-12.62796c3.89631,-2.32934 52.19648,-18.5077 52.19648,-18.5077c0,0 0.83136,17.50907 1.66947,18.70638c0.90652,1.29503 0.08053,3.54362 0.08053,3.54362z" fill="#cb8ad4" stroke="none" stroke-width="0" stroke-linecap="butt"/><path d="M241.43926,240.27553c-34.80015,0 -31.7145,-40.08323 -31.7145,-40.08323c0,0 11.67644,-10.88552 24.37915,-17.66275c12.25478,-6.53826 7.04233,-24.07002 18.74008,-23.94638c1.19054,0.01258 37.32949,-14.45768 46.75687,-16.37844c7.64429,-1.55746 0.28013,12.32099 4.71714,18.77102c1.52315,2.21418 -1.19601,8.82946 -0.43025,13.64685c0.8185,5.14922 -0.65115,11.50358 -0.97971,13.26235c-0.58551,3.13427 -5.47183,16.96437 -11.06724,17.42481c-2.29722,0.11001 -4.31986,0.49427 -6.24482,0.42659c-3.64186,-0.12805 -6.41821,-0.37534 -6.41821,-0.37534c0,0 -2.43011,4.6854 -2.73196,9.89795c-0.24568,6.73073 8.84234,13.29492 8.84234,13.29492c0,0 -19.33102,11.72165 -43.84889,11.72165z" fill="#a99cf6" stroke="#000000" stroke-width="3.5" stroke-linecap="butt"/><path d="M299.17573,175.59916c0,0 4.06667,3.33516 3.14334,9.64497c-0.65695,4.48942 -6.27967,16.30892 -7.74195,17.20579c-1.44201,0.88444 -4.65049,1.71412 -7.62504,1.55119c-3.88529,-0.21282 -8.26824,-0.90981 -8.47129,-0.30428c-0.16259,0.48483 -1.57024,0.68759 -2.37431,4.50249c-0.92064,4.36802 -1.43446,8.68861 -1.43446,8.68861c0,0 2.1383,4.09741 3.50508,5.94292c1.36362,1.84124 4.68613,5.11733 4.68613,5.11733l-11.88724,5.28135c0,0 0.09241,-23.85583 -0.13191,-25.28605c-0.07731,-0.4929 -14.57652,7.00619 -26.04081,8.97347c-10.78774,1.85119 -19.58276,1.14947 -19.6171,0.44271c-0.22661,-4.66306 9.21579,-30.66908 9.21579,-30.66908z" fill="#9363ea" stroke="none" stroke-width="0" stroke-linecap="butt"/><path d="M279.64142,203.57726l-1.75,2.50504c0,0 -1.56661,0.45263 -3.26202,0.04621c-1.26152,-0.30241 -2.59435,-1.37802 -3.40616,-1.88455c-1.93011,-1.20429 -6.16516,-6.01646 -6.16516,-6.01646c0,0 5.96681,3.36275 8.31856,4.252c2.01153,0.7606 6.26477,1.09776 6.26477,1.09776z" fill="#000000" stroke="none" stroke-width="0" stroke-linecap="butt"/><path d="M264.70829,210.42352c1.76187,2.03555 3.58379,5.63451 -0.14583,9.74912c-4.37088,4.82207 -14.98174,1.30006 -20.80488,-1.16745c-0.63039,-0.26712 -1.35477,-0.63896 -2.08034,-1.0421" fill="none" stroke="#ac0023" stroke-width="3.5" stroke-linecap="round"/><path d="M266.83334,215.45128c0,0 -8.5093,0.74139 -12.78288,-0.18162c-0.67619,-0.14604 -1.46186,-0.36592 -2.31543,-0.63717" fill="none" stroke="#ac0023" stroke-width="3.5" stroke-linecap="round"/><path d="M246.61319,197.44896c0,0 7.75538,4.30879 10.63151,6.36215c2.4459,1.74621 7.02225,6.18017 7.02225,6.18017" fill="none" stroke="#4d003b" stroke-width="3.5" stroke-linecap="round"/><path d="M242.10254,218.15529l-11.61354,-7.48649l4.28925,-5.3265l17.04551,9.40433" fill="none" stroke="#4d003b" stroke-width="3.5" stroke-linecap="round"/><path d="M317.47445,178.2056c-4.92715,-2.36635 -0.8717,-5.82756 -0.99394,-9.09094c-0.22741,-6.07088 1.11455,-5.04697 12.42843,-5.47076c4.16319,-0.15595 15.85445,4.46192 20.33065,11.26568c2.82164,4.28886 0.24521,12.81582 -0.91813,13.52917c0,0 -2.75892,2.79966 -6.52991,1.41109c-2.87883,-1.06006 -5.74465,-6.14977 -8.8669,-8.97843c-0.47444,-0.42982 -1.3548,-2.20745 -1.84202,-2.51079c-0.43051,-0.26802 -0.50768,0.91053 -1.01875,0.72808c-4.39121,-1.56766 -11.28532,-0.25679 -12.58943,-0.8831z" fill="#0045d8" stroke="#000000" stroke-width="5" stroke-linecap="butt"/><path d="M345.54238,187.96524c-2.40465,0.54533 -5.07343,-0.35243 -7.35016,-3.34561c-1.08555,-1.42714 -3.11881,-3.32054 -4.25809,-4.76204c-1.14441,-1.44798 -1.19577,-3.44179 -2.71452,-3.85621c-1.43469,-0.39149 -1.92978,0.94025 -3.39542,0.98892c-3.41607,0.11345 -7.67219,0.86217 -9.63081,-0.36563c-1.81299,-1.13651 -1.96317,-4.73518 -1.96317,-4.73518c0,0 8.25964,-0.5493 13.97164,0.13754c3.35514,0.40344 9.00149,3.786 12.95681,5.13811c2.60523,0.89059 4.47682,-0.60557 4.47682,-0.60557c0,0 0.69591,2.40381 0.45911,5.06242c-0.22553,2.53204 -1.35285,5.91378 -2.55221,6.34325z" fill="#0a1293" stroke="none" stroke-width="0" stroke-linecap="butt"/><path d="M182.48871,200.35332c-0.15078,-4.02524 -12.37684,-0.35622 -7.55638,-2.88193c2.1332,-1.1177 3.95059,-5.47804 8.33721,-9.14933c4.63414,-3.87845 11.78751,-7.04593 11.78751,-7.04593c0,0 1.21924,-0.01721 -0.11935,-3.67533c-1.40871,-3.84977 -3.99131,-11.53119 -3.99131,-11.53119c0,0 24.94592,-19.35785 51.85605,-21.54167c25.00532,-2.02926 52.64924,15.08992 55.58769,18.95546c0.26281,0.34573 1.36895,6.58837 0.36054,11.77295c-0.74976,3.85479 -2.69076,6.52885 -6.89793,8.92365c-13.52191,7.69689 -30.69599,16.17327 -47.15709,20.66132c-10.47038,2.85469 -25.75011,6.39245 -39.08438,5.14562c-12.24017,-1.1445 -22.95548,-5.17382 -23.12253,-9.63363z" fill="#aa96c7" stroke="#000000" stroke-width="3.5" stroke-linecap="butt"/><path d="M297.06174,164.53951c0,0 2.32968,8.03819 -0.64883,13.00331c-2.8572,4.76287 -11.34247,8.64101 -11.34247,8.64101l-5.25735,-5.3337l-9.7037,11.09948l-11.03189,-17.88148l-5.29653,11.47067l-5.46227,-14.98271l-23.50038,14.04779l-1.01774,-17.24042c0,0 -9.06006,0.28496 -13.52262,1.55007c-5.12487,1.45286 -14.51551,6.68202 -14.51551,6.68202l-3.50424,-8.29773c0,0 65.85467,-21.98049 72.38545,-22.22513c6.53079,-0.24463 32.41807,19.46682 32.41807,19.46682z" fill="#a7649a" stroke="none" stroke-width="0" stroke-linecap="butt"/><path d="M298.69801,165.71399c-6.9923,-0.42637 -33.7159,-3.26414 -44.18246,-8.94803c-20.19011,-10.96427 -32.8022,-13.47064 -43.17335,-13.08216c-19.68436,0.73735 -30.95715,10.6297 -31.30515,1.33942c-0.08101,-2.16271 -8.67588,-33.08682 -7.17178,-35.04506c4.957,-6.45372 12.63038,-26.24654 66.05343,-28.66694c14.50334,-0.59846 39.10953,9.77349 40.84546,10.43524c16.10978,6.1411 35.64663,42.9169 35.94429,50.8633c0,0 1.58913,3.44925 -0.11854,6.50948c-1.84006,3.2975 -6.07757,4.6644 -9.23814,7.90824c-3.43964,3.53029 -5.80646,8.79918 -7.65377,8.68653z" fill="#ac1e52" stroke="#000000" stroke-width="5" stroke-linecap="butt"/><path d="M234.62577,155.69676c0,0 -5.22689,1.07006 -11.17122,1.99142c-5.4616,0.84654 -11.49769,1.50522 -15.32089,2.45125c-8.34223,2.04223 -16.00617,9.13191 -16.00617,9.13191l0.43945,3.84085c0,0 -5.53803,2.28444 -8.96704,4.67795c-3.98715,2.7831 -14.33493,11.62879 -14.33493,11.62879c0,0 -1.87636,-12.28426 -1.61748,-17.76424c0.25502,-5.39836 4.35938,-14.67447 4.35938,-14.67447l-24.4218,-12.10248c0,0 11.79308,-10.31419 22.47244,-20.11547c5.34363,-4.90426 8.75863,-14.02855 12.37841,-14.16415c0.72673,-0.02722 7.94215,1.19721 15.24718,3.38875c4.9773,1.49321 10.40985,4.06953 12.93905,5.10265c1.05343,0.43031 1.27258,0.09699 1.27258,0.09699c0,0 -0.65583,-5.33935 -0.9975,-8.12104c-0.36106,-2.93952 -2.71392,-9.26875 -2.71392,-9.26875c0,0 0.78898,0.27389 2.08322,1.12057c2.74249,1.79411 7.7537,5.46208 12.33431,9.64207c2.41437,2.2032 10.07425,7.83475 15.55402,15.777c8.38864,12.15829 14.89261,27.5821 14.89261,27.5821l-20.07001,14.67423c0,0 0.04068,-2.81287 -0.04572,-4.98886c-0.09641,-2.42826 1.69401,-9.90706 1.69401,-9.90706z" fill="#44acff" stroke="#000000" stroke-width="3.5" stroke-linecap="butt"/><path d="M222.18976,132.32833c-0.79667,-2.43041 -4.51393,-8.86922 -4.51393,-8.86922l9.95134,10.52135l-3.93351,-18.15939c0,0 3.60993,2.44602 7.30771,6.12452c3.25018,3.23324 6.47727,7.50964 8.63284,10.6619c4.53151,6.6268 11.48175,23.31548 11.48175,23.31548l-16.394,11.296c0,0 0.47722,-4.48066 0.82853,-6.80512c0.36914,-2.44232 1.33548,-6.7127 1.33548,-6.7127c0,0 -6.34383,1.20945 -13.4154,2.28044c-5.24527,0.7944 -13.18089,1.44273 -16.55175,2.68464c-6.50513,2.87044 -15.63996,8.85692 -15.63996,8.85692l-0.18374,4.79291c0,0 -4.85952,2.40692 -7.77224,3.78305c-3.16824,1.99136 -7.26993,5.41358 -7.26993,5.41358c0,0 -1.96845,-10.43532 -0.30763,-15.49486c1.87971,-5.72635 11.01071,-17.1111 11.01071,-17.1111l-15.16332,-9.52949c0,0 14.01174,-3.98657 19.21255,-6.41676c3.97329,-1.85661 10.31318,-6.91252 10.31318,-6.91252c0,0 4.53637,1.0268 7.08949,2.13842c3.975,1.73069 14.44556,7.23785 14.44556,7.23785c0,0 0.25811,-0.89381 -0.46372,-3.09589z" fill="#356fee" stroke="none" stroke-width="0" stroke-linecap="butt"/><path d="M299.08212,165.19373c0,0 -9.24445,-2.34746 -14.15383,-3.33074c-5.33937,-1.06941 -18.89721,-3.60072 -18.89721,-3.60072c0,0 -4.47424,-4.96821 -4.24423,-12.13379c0.2554,-7.95681 -1.09517,-17.90457 2.00268,-26.26246c4.37048,-11.79142 14.12867,-20.91357 19.61919,-21.11924c1.04277,-0.03906 3.31765,0.40947 3.31765,0.40947c0,0 2.23926,-3.49661 9.65214,6.54417c8.4397,11.43157 24.62133,32.53296 25.26478,39.09083c0.01087,0.11069 0.03973,4.58942 -1.80802,7.60792c-2.06152,3.36773 -6.09183,5.40736 -7.55578,7.57984z" fill="#730e67" stroke="#000000" stroke-width="2.5" stroke-linecap="butt"/><path d="M318.67976,159.19869c2.60541,3.08102 2.14191,4.84782 -0.89961,15.96638c-1.94367,7.1053 -8.83134,14.20063 -11.77679,14.31097c-2.50362,0.09378 -10.85933,-8.0122 -10.85933,-8.0122l1.67138,-3.92065l1.15499,-3.67058l0.14873,-5.17167l1.38726,-2.03028c0,0 2.03711,-3.823 5.48568,-6.14962c4.28765,-2.89272 10.92052,-4.23644 12.82101,-1.98902z" fill="#aa96c7" stroke="#000000" stroke-width="4.5" stroke-linecap="butt"/><path d="M313.99795,178.70022c0,0 -5.25503,9.31167 -7.14317,9.01603c-0.79239,-0.12407 -3.40041,-1.30521 -5.23209,-2.63437c-2.53303,-1.83809 -4.51128,-4.35923 -4.51128,-4.35923c0,0 2.05701,-8.25392 2.91616,-9.20373c0.84506,-0.93423 13.62082,-3.81356 13.62082,-3.81356l-3.71116,8.9958z" fill="#a7649a" stroke="none" stroke-width="0" stroke-linecap="butt"/><path d="M301.24778,171.55261c-0.13568,-1.22415 11.44754,-4.68846 12.24704,-3.88193c0.91368,0.9217 -4.92068,13.61989 -5.98607,14.43973c0,0 -6.1519,-9.57383 -6.26097,-10.5578z" fill="none" stroke="#000000" stroke-width="2" stroke-linecap="butt"/><path d="M312.49703,262.81432l-4.2346,1.95895l-5.08556,-0.19059c0,0 1.55144,-0.59127 4.40127,-1.12562c2.84983,-0.53434 4.91889,-0.64275 4.91889,-0.64275z" fill="#db93e6" stroke="none" stroke-width="0" stroke-linecap="butt"/><g stroke-linecap="butt"><path d="M253.25137,256.89919c0,5.00239 -0.83647,7.58534 -6.92657,11.88048c-6.92828,4.88629 -20.4409,-0.38317 -32.47038,3.90069c-44.45997,15.83276 -67.7514,3.06585 -67.7514,3.06585c0,0 1.28329,0.79138 1.28329,-6.71996c0,-5.23163 22.50744,-19.34299 44.15885,-25.03868c1.88839,-0.49676 -5.42144,-6.50474 -5.42144,-6.50474c0,0 -8.47941,-7.57259 -3.45679,-10.49072c1.08694,-0.6315 15.97885,-6.10596 23.86094,-3.19359c7.0357,2.59964 14.25956,14.26193 14.25956,14.26193l1.87341,4.45743c0,0 14.55849,-3.84323 21.10406,-1.32375c1.74075,0.67004 2.24484,8.69579 3.26326,10.21905c5.18598,7.75669 6.22323,4.25586 6.22323,5.48604z" fill="#ac1e52" stroke="#000000" stroke-width="3.5"/><path d="M252.10788,259.80736c0,5.88132 -15.38482,16.55096 -38.86796,16.55096c-23.48315,0 -44.60686,7.29264 -44.60686,1.41132c0,-3.42583 -2.4892,-14.60287 7.91502,-20.76746c3.20081,-1.89651 10.03603,-6.06826 17.39166,-10.21274c2.90856,-1.6388 -3.1755,-10.18678 -0.23268,-11.83411c6.95406,-3.89274 22.14145,-0.42346 22.14145,-0.42346l4.0422,4.96187l-4.38499,3.38305c0,0 5.11883,0.64063 8.08533,0.06127c3.62699,-0.70835 16.00252,-2.78723 19.81851,0.06255c0.32498,0.2427 -0.65344,1.79335 1.33469,6.40809c2.89224,6.7133 7.36364,9.88008 7.36364,10.39868z" fill="#750e69" stroke="none" stroke-width="0"/><path d="M247.93412,274.56212c-3.03734,1.71587 -8.41526,2.07227 -18.79084,2.60123c-5.55413,0.28316 -12.90484,0.61575 -21.28124,1.2328c-7.31216,0.53865 -11.87458,9.0552 -42.1794,9.6591c-21.83514,0.43512 -24.2657,-6.84368 -25.04828,-9.3233c-0.23034,-0.72983 -0.10506,-3.14633 1.25503,-5.9321c1.3867,-2.84029 5.29128,-3.45124 5.29128,-3.45124c0,0 3.7409,1.34098 6.04607,2.47792c4.75571,2.3456 16.89835,3.4141 27.91462,3.41819c11.08131,0.00412 26.68582,-9.92034 33.14198,-10.17695c8.7622,-0.34825 20.51317,0.75293 28.36808,-1.34524c7.48729,-1.99997 11.29161,-7.21178 11.29161,-7.21178c0,0 3.4125,3.07016 2.52711,6.88396c-1.0574,4.5547 -6.57682,10.06062 -8.53601,11.16742z" fill="#a99cf6" stroke="#000000" stroke-width="4.5"/><path d="M255.52367,263.27151c0,0 -1.97015,5.30878 -7.51389,9.05417c-1.97692,1.33561 -4.09141,1.22217 -6.7799,1.9371c-14.6484,3.89528 -31.08554,0.36831 -36.6523,2.42425c-9.27373,3.42501 -8.1686,6.4839 -22.68612,7.82059c-6.68654,0.61565 -12.71205,1.34517 -12.71205,1.34517c0,0 -2.26952,-3.57584 -2.88783,-5.38279c-0.48689,-1.4229 -1.04453,-3.30219 -1.04453,-3.30219c0,0 13.91725,-0.55296 19.45345,-0.55296c4.94532,0 19.29383,-8.35261 27.82904,-10.27937c8.10267,-1.82911 18.45308,-0.43083 25.5421,-0.86039c5.4762,-0.33184 4.53967,-0.66713 7.49084,-1.18718c1.74856,-0.30814 7.64443,-5.95941 7.64443,-5.95941z" fill="#9363ea" stroke="none" stroke-width="0"/><path d="M220.91748,236.71304c0,0.29943 3.61528,-0.4093 3.61528,-0.4093c0,0 -2.04868,5.83928 -3.77961,6.98487c-2.64949,1.75352 -11.31346,1.43047 -11.31346,1.43047c0,0 4.72257,-1.72364 7.42068,-3.75012c2.82899,-2.12479 4.05711,-4.95228 4.05711,-4.25592z" fill="#000000" stroke="none" stroke-width="0"/><path d="M204.18185,250.44469c0,1.03976 -0.52297,4.01097 -2.26684,5.33698c-1.24045,0.94321 -4.82879,-0.13694 -5.14739,-0.3689c-2.00893,-1.46256 -3.66806,-3.80859 -5.77344,-5.01582c-4.95407,-2.84069 -10.02095,-1.51874 -10.02095,-6.28019c0,-3.11676 4.87628,-2.30839 11.21317,-2.30839c6.33689,0 11.99547,5.51955 11.99547,8.63632z" fill="#9363ea" stroke="#000000" stroke-width="3"/><path d="M196.30679,258.92493c0,1.53675 -0.61121,2.1603 -1.10065,2.6484c-0.43561,0.43443 -0.61216,0.81488 -2.68087,0.81488c-2.08287,0 -4.41341,-4.80497 -8.48277,-8.27941c-4.51334,-3.85348 -10.42475,-6.99657 -10.42475,-8.52394c0,-1.68668 1.37682,-2.58231 3.39167,-3.03686c0.77848,-0.17562 7.18128,2.81525 12.23874,7.03319c4.39374,3.66439 7.05863,7.99347 7.05863,9.34374z" fill="#9363ea" stroke="#000000" stroke-width="3"/></g><g stroke-linecap="butt"><path d="M351.19517,277.649c0,6.48056 -31.98705,19.94866 -50.02848,19.94866c-10.71077,0 -29.15203,2.28011 -41.24617,-3.91085c-2.89754,-1.48324 -7.27844,-9.20469 -8.9748,-10.93989c-1.61138,-1.64827 -1.04806,-6.13997 0.60318,-9.22255c1.57634,-2.94276 6.63183,-4.50418 6.87047,-5.08186c1.7808,-4.3109 -1.14184,-7.88113 -2.58939,-8.96321c-2.14927,-1.60664 -8.56889,-0.52767 -12.21802,-1.00842c-2.58124,-0.27647 -4.58326,-0.97467 -4.00691,-3.28324c0.67729,-2.71296 2.39119,-3.71314 3.0623,-4.02006c0.05678,-0.02597 2.01566,-0.33094 2.40746,-0.34569c2.8517,-0.10734 11.50222,-0.40446 14.30289,-0.88415c1.71409,-0.29359 6.16073,-0.13907 8.74482,-1.78593c2.03065,-1.29414 3.69073,-3.43259 7.31115,-5.81484c5.20317,-3.42369 12.32445,-3.53583 12.4093,-3.2067c0.25387,0.98476 3.26053,1.99637 6.21373,6.64546c2.74778,4.3257 8.90337,6.97807 9.31867,7.02881c3.07081,0.37519 2.43142,-0.12747 5.52841,-0.51384c2.43035,-0.3032 9.72988,-5.90561 14.3953,-11.35359c1.58129,-1.84653 0.38359,-1.3165 4.5327,-2.05115c6.50347,-1.15152 16.57331,-5.36432 17.56353,-5.39245c2.41004,-0.06849 6.263,2.12938 4.46249,5.84773c-0.37406,0.77248 -15.48037,11.17768 -15.05822,11.2748c4.35631,1.00216 14.93478,3.32571 17.95037,6.99549c3.96522,4.82541 -1.55478,17.70431 -1.55478,20.03748z" fill="#ac1e52" stroke="#000000" stroke-width="3.5"/><path d="M346.85789,276.31148c0,4.92564 -37.58848,19.24553 -59.08536,19.24553c-21.49688,0 -29.043,-7.04046 -29.043,-7.04046c0,0 7.39849,-10.81108 20.15798,-16.52859c5.38113,-2.41127 8.94898,-5.29917 15.32569,-5.29917c5.1649,0 20.02942,-4.62793 29.67771,-3.33842c5.44459,0.72767 -0.53352,-8.2862 -0.53352,-8.2862c0,0 5.99384,3.10905 6.2805,0.57905c0.35168,-3.1038 6.42469,-2.8348 6.42469,-2.8348c0,0 3.65266,0.84811 6.95392,1.8893c2.73041,0.86114 5.14146,1.93334 5.75063,2.0631c6.52778,1.39044 -1.90925,17.68376 -1.90925,19.55066z" fill="#750e69" stroke="none" stroke-width="0"/><path d="M355.95996,273.47924c0,5.57375 -14.01971,18.38905 -43.54806,23.78718c-18.2078,3.32861 -41.97228,6.11457 -52.7297,3.30898c-21.49817,-5.60688 -17.27381,-19.72913 -17.27381,-21.68219c0,-2.02382 7.02835,-4.92643 7.02835,-4.92643c0,0 -0.2197,11.96362 4.87526,14.11382c4.95354,2.09051 9.22226,4.55191 16.70914,5.19823c0.3395,0.02931 2.82318,0.62572 3.16522,0.64613c9.12742,0.54466 20.43475,-3.53136 27.16738,-3.53136c11.22019,0 31.88819,-5.87376 40.47371,-15.01428c1.96977,-2.0971 8.03651,-10.46601 8.12147,-13.94779c0.0806,-3.3032 -0.27242,-6.7797 -0.27242,-6.7797c0,0 -1.15808,-1.01037 0.88642,-0.79915c9.28417,0.95921 5.93275,16.1185 5.93275,17.74848z" fill="#a99cf6" stroke="#000000" stroke-width="4"/><path d="M273.9343,267.79316c0,0 -9.59682,2.11708 -12.69711,0.53956c-1.29066,-0.65672 -0.476,-2.2025 -0.48841,-3.29889c-0.01594,-1.40812 -0.65386,-2.44612 -0.99798,-3.8425c-0.49631,-2.01395 -3.93293,-3.48689 -3.9065,-4.05184c0.1378,-2.94506 32.64813,-14.92667 32.64813,-14.92667c0,0 4.77056,4.99931 6.20194,6.75678c1.49561,1.83633 4.8375,5.3978 4.8375,5.3978l-9.38273,4.30605z" fill="#750e69" stroke="none" stroke-width="0"/><path d="M348.32946,236.65638c0,0 0.8407,0.52793 -0.84224,2.76387c-2.20078,2.92394 -8.77668,6.02259 -10.94069,7.09184c-0.55553,0.27449 -3.21525,3.83266 -4.61243,4.43804c-0.46747,0.20256 1.72646,0.56435 3.57694,1.36001c1.92817,0.82906 3.69297,2.08893 3.69297,2.08893c0,0 -21.37185,5.56011 -22.63706,5.85394c-3.59524,0.83494 -5.19912,-5.95031 -5.19912,-5.95031c0,0 4.86148,-4.41188 6.766,-6.73851c2.04603,-2.49949 5.11611,-7.77702 5.11611,-7.77702c0,0 1.17051,0.85612 2.21791,0.95189c1.09416,0.10003 3.21289,-0.36394 3.21289,-0.36394c0,0 0.39048,4.71698 1.22314,4.13733c5.88876,-4.09953 18.42557,-7.85605 18.42557,-7.85605z" fill="#750e69" stroke="none" stroke-width="0"/><path d="M278.21237,257.0493l-1.55811,2.21085c0,0 -8.97217,-1.2188 -10.59014,-3.41566c-1.48105,-2.01097 -1.17184,-5.54289 -1.17184,-5.54289l3.49668,-2.18989c0,0 -0.17437,4.31584 1.6941,6.81646c1.98257,2.65333 8.12931,2.12112 8.12931,2.12112z" fill="#000000" stroke="none" stroke-width="0"/><path d="M354.62399,261.17849c0,0 1.72088,11.52869 -1.17385,15.07092c-1.77551,2.17265 -13.20049,12.15967 -23.90559,16.41869c-8.97678,3.57141 -20.41706,5.59413 -24.97051,5.9398c-27.82488,2.11232 -44.52405,0.50018 -44.52405,0.50018c0,0 23.116,3.3412 57.84156,-5.74793c7.95843,-2.08306 19.21255,-8.07887 26.09321,-13.59775c6.03421,-4.83996 10.63924,-18.58392 10.63924,-18.58392z" fill="#9363ea" stroke="none" stroke-width="0"/><path d="M305.11585,263.8242c0,1.82829 -19.97357,11.27049 -28.30649,9.03316c-2.30035,-0.61762 -2.87517,-5.366 -2.87517,-6.07379c0,-0.48071 2.33208,-6.33751 3.63336,-7.71253c1.87873,-1.98518 4.88437,-4.45496 8.35481,-6.11735c5.79198,-2.77445 10.88106,-4.38718 10.88106,-4.38718l5.06758,4.10752c0,0 2.87292,1.45107 4.37011,1.39874c1.34619,-0.04706 3.46158,-0.75989 3.46158,-0.75989c0,0 2.17021,-1.61293 4.6578,-3.01329c0.63583,-0.35794 0.62477,-1.2803 1.38832,-1.47847c3.42316,-0.88842 9.86389,2.8991 9.12587,3.88c-1.49243,1.98357 -19.75881,10.87857 -19.75881,11.12307z" fill="#a99cf6" stroke="#000000" stroke-width="2.5"/><path d="M310.16186,254.32999c2.16438,0.03678 0.48035,-2.9507 3.43513,-4.16481c0.70047,-0.28783 2.92005,-0.47598 4.0696,-0.50056c5.92885,-0.12678 7.12062,6.27107 7.02695,6.62712c-0.54016,2.05327 -18.27855,7.33944 -19.65722,7.33944c-2.78353,0 -15.01631,-10.89024 -15.01631,-10.89024l6.57242,-3.41511c0,0 6.88861,2.79262 6.88861,5.55765c0,0 -0.10674,-0.66883 6.68081,-0.55348z" fill="#9363ea" stroke="none" stroke-width="0"/><path d="M325.72035,259.55542c-3.95004,1.94196 -8.13233,3.463 -18.05298,3.7975c-7.84548,0.26453 -18.04116,5.56252 -24.57229,7.82899c-1.61267,0.55964 -5.85906,5.36302 -6.93432,5.43158c-2.23174,0.1423 -1.85676,-2.00252 -2.02032,-3.14276c-0.12792,-0.89176 4.23523,-7.29404 7.24687,-9.04428c5.96996,-3.46949 16.73358,-7.74496 26.84049,-9.33466c6.76119,-1.06347 12.48932,-2.07473 17.60298,-0.91198c5.15539,1.17226 0.66569,4.99405 -0.11044,5.37562z" fill="#a99cf6" stroke="#000000" stroke-width="2.5"/><path d="M327.614,265.92005c-4.19253,1.89496 -5.22822,0.35416 -15.66099,0.86549c-8.73913,0.42834 -19.13984,7.51779 -25.65002,9.8473c-1.74325,0.62378 -7.68733,4.18228 -8.89592,4.24181c-2.35179,0.11584 -2.33603,-1.47972 -2.48797,-2.62177c-0.14651,-1.10131 7.23967,-6.43611 10.55319,-8.78486c4.70086,-3.33216 12.41829,-6.97994 21.83169,-8.27698c1.02344,-0.14102 2.13899,-0.30669 3.31501,-0.48344c7.02395,-1.05566 11.20472,-2.03693 15.79796,-0.98913c5.40604,1.23321 2.85416,5.82923 2.03038,6.20156z" fill="#a99cf6" stroke="#000000" stroke-width="2.5"/><path d="M315.19356,259.1435l-13.16676,1.95148l-4.91338,-2.64941c0,0 7.31422,-1.97868 11.28972,-2.34312c3.98895,-0.36568 11.75374,-1.25591 11.75374,-1.25591z" fill="#9363ea" stroke="none" stroke-width="0"/><path d="M257.95742,258.26669c0,0.65873 10.68561,-1.68435 10.68561,-1.68435c0,0 -9.01674,5.59581 -10.38559,5.59581c-1.16405,0 0.80652,-1.7091 -2.02201,-2.3361c-3.93518,-0.8723 -10.22476,-1.1342 -10.22476,-1.88828c0,-1.29611 4.24985,-2.50301 7.03338,-2.50301c2.78353,0 4.91337,1.51982 4.91337,2.81593z" fill="#000000" stroke="none" stroke-width="0"/><path d="M341.8228,243.57439c0,0.7943 -4.86555,5.09998 -6.27788,7.92703c-1.01339,2.02849 -16.3538,1.8498 -16.3538,1.8498c0,0 8.29917,-1.62621 11.32823,-2.43147c2.41711,-0.64258 2.34338,-2.01466 2.34338,-2.33883c0,-0.85015 0.17536,-3.05652 2.15658,-4.11492c2.44889,-1.30823 6.80349,-1.94245 6.80349,-0.89163z" fill="#000000" stroke="none" stroke-width="0"/></g><path d="M274.82506,267.28208c0,0 -4.3484,0.68493 -8.32371,2.00574c-2.85309,0.94796 -10.17584,1.83146 -10.17584,1.83146l2.33289,-7.28035c0,0 4.15849,1.73162 6.58281,2.33279c4.07167,1.00968 9.58386,1.11036 9.58386,1.11036z" fill="#000000" stroke="none" stroke-width="0" stroke-linecap="butt"/><path d="M223.01369,253.70119c0,0 8.61132,-2.22541 11.1647,-2.47904c2.61196,-0.25945 9.46148,-1.92528 9.46148,-1.92528" fill="none" stroke="#000000" stroke-width="2.5" stroke-linecap="round"/><path d="M313.52745,261.46166l-3.71429,2.14286l-3.57143,-0.85714z" fill="#9363ea" stroke="none" stroke-width="0" stroke-linecap="butt"/><path d="M168.33569,157.31161c0,0 -7.14523,-3.70235 -10.80546,-3.76138c-4.45083,-0.07179 -14.99454,1.16138 -14.99454,1.16138c0,0 4.07531,-1.74585 6.95277,-2.56022c2.28447,-0.64655 8.94723,-1.93978 8.94723,-1.93978z" fill="#000000" stroke="none" stroke-width="0" stroke-linecap="butt"/><path d="M298.40542,161.89194c0,0 -0.47058,4.96077 -0.01728,7.29788c0.61303,3.16067 3.36311,9.95265 3.36311,9.95265c0,0 -13.20964,-0.85778 -17.40883,-3.87516c-3.00232,-2.15738 -9.62304,-6.73106 -9.62304,-6.73106l-4.91308,10.3379c0,0 -5.9196,-8.39462 -9.02401,-12.63266c-1.8816,-2.56871 -4.80318,-5.5008 -6.41614,-7.42326c-0.71201,-0.84863 -1.16903,-1.9836 -1.16903,-1.9836z" fill="#44acff" stroke="#000000" stroke-width="3" stroke-linecap="butt"/><path d="M301.10541,177.73686c0,0 -8.18041,-0.25791 -12.053,-1.73247c-4.45975,-1.69813 -14.59355,-9.28059 -14.59355,-9.28059l-5.03671,8.92962l-4.9617,-6.36171l-1.49821,-7.36161l-6.1241,-3.13763c0,0 13.4717,1.56177 20.17387,2.22934c6.52855,0.65027 19.73197,2.12556 19.73197,2.12556c0,0 -0.06525,5.98088 0.77708,8.59366c0.81023,2.51318 3.58435,5.99584 3.58435,5.99584z" fill="#356fee" stroke="none" stroke-width="0" stroke-linecap="butt"/><path d="M257.33568,173.61161l-6.2,-16l5.2,1.8z" fill="#000000" stroke="none" stroke-width="0" stroke-linecap="butt"/><path d="M237,128.25c0,0 -2.19701,-10.52308 -2.75914,-15.58231c-0.5175,-4.65748 0.75914,-14.66769 0.75914,-14.66769c0,0 1.35828,14.05247 3.22803,20.25663c1.79377,5.95206 6.52197,17.24338 6.52197,17.24338z" fill="#000000" stroke="none" stroke-width="0" stroke-linecap="butt"/><path d="M272.45561,74.6l1.33334,49" fill="none" stroke="#000000" stroke-width="2" stroke-linecap="round"/><path d="M280.45561,129.93334l-0.33333,-65.66667" fill="none" stroke="#000000" stroke-width="2" stroke-linecap="round"/><path d="M286.45561,61.26667l0.33334,74.33333" fill="none" stroke="#000000" stroke-width="2" stroke-linecap="round"/><path d="M294.45561,67.93334l0.33334,73.66666" fill="none" stroke="#000000" stroke-width="2" stroke-linecap="round"/><path d="M300.45561,138.26666l-0.33333,-66.66666" fill="none" stroke="#000000" stroke-width="2" stroke-linecap="round"/><path d="M307.78896,134.93334l0.33333,-48.33334" fill="none" stroke="#000000" stroke-width="2" stroke-linecap="round"/><path d="M224.6439,183.93685c0.76728,3.39374 -1.76628,7.79399 -6.399,8.84139c-4.63272,1.0474 -9.41029,0.74532 -10.17757,-2.64843c-0.76728,-3.39374 2.16628,-7.79399 6.799,-8.84139c4.63272,-1.0474 9.01029,-0.74532 9.77757,2.64843z" fill="#000000" stroke="none" stroke-width="0" stroke-linecap="butt"/><path d="M264.25562,194.43333c1.72622,3.88648 -7.78584,10.33043 -16.6,12.1c-16.922,3.39735 -18.6,1.3526 -18.6,-2.9c0,-4.2526 10.29466,-6.32939 19.6,-9.5c7.63067,-2.6 13.8,-3.7526 15.6,0.3z" fill="#ad447f" stroke="#000000" stroke-width="2.5" stroke-linecap="butt"/><path d="M261.6556,184.33334c0,3.97645 -2.07095,6.2 -10.3,6.2c-8.22905,0 -12.1,-0.82355 -12.1,-4.8c0,-3.97645 3.67095,-8 11.9,-8c8.22905,0 10.5,2.62355 10.5,6.6z" fill="#000000" stroke="none" stroke-width="0" stroke-linecap="butt"/><g><path d="M177.4668,253.37483c0,0 -6.7412,4.65714 -11.01734,2.79245c-0.44183,-0.19266 -10.30603,-6.63361 -3.73003,-14.73905c1.42474,-1.7561 5.60228,-8.89764 9.14815,-8.91054c6.93677,-0.02519 8.87453,-3.86112 9.0262,-4.18042c2.00515,-4.22124 3.98241,-11.63908 6.85283,-10.2756c1.47234,0.69938 3.836,6.5829 6.10868,14.54962c0.63187,2.21502 6.67446,-3.02801 7.15148,-0.92914c0.14029,0.61734 -2.05299,7.23165 -1.92886,7.80171c0.89547,4.11103 -3.47634,9.09027 -4.08292,10.36724c-1.19553,2.51684 -4.91257,2.92171 -9.96039,1.36434c-1.77836,-0.54865 -5.88517,1.21094 -5.88517,1.21094z" fill="#a7649a" stroke="#000000" stroke-width="3" stroke-linecap="butt"/><path d="M132.90826,230.8358c-6.03845,-3.73653 -6.14973,-11.28155 -2.46235,-17.24054c3.68736,-5.95899 46.51852,-12.79505 52.55698,-9.05851c6.03844,3.73652 6.78077,16.0489 3.09342,22.00789c-3.68736,5.95899 -47.1496,8.02769 -53.18807,4.29116z" fill="#303f97" stroke="#000000" stroke-width="2.5" stroke-linecap="butt"/><path d="M132.07579,219.34525c-0.72789,-0.16997 -1.1113,-1.19289 -0.85629,-2.28474c0.25495,-1.09183 1.05172,-1.83916 1.77962,-1.66917c0.72789,0.16997 1.1113,1.19289 0.8563,2.28473c-0.25495,1.09183 -1.05174,1.83917 -1.77962,1.66917z" fill="#303f97" stroke="none" stroke-width="0" stroke-linecap="butt"/><path d="M142.65092,255.23603c-4.63464,-1.02092 -8.48024,-21.15726 -8.71695,-25.66709c-0.59535,-6.58038 6.05797,-19.55399 7.48038,-20.43462c3.0351,-1.87911 8.29872,-5.92367 8.29872,-5.92367c0,0 6.18712,-2.0997 7.77303,-2.80263c0.84112,-0.37281 3.84725,-4.3259 7.43766,-4.99155c3.59042,-0.66565 4.97344,3.50565 7.79514,2.16744c0.59366,-0.28153 4.8086,-3.45841 5.35224,-3.66555c5.24968,-2.00046 6.48835,-5.92466 11.51425,-3.53725c4.36576,2.0738 8.85911,13.44237 10.32347,20.18104c2.23106,10.26704 -1.08274,13.9089 -4.85979,21.8603c-1.34333,2.82792 -4.73145,7.52725 -9.51632,7.77297c-2.24152,0.11512 -4.49241,-2.13761 -6.011,-2.75976c-3.33041,-1.36453 -6.9416,0.51286 -6.9416,0.51286c0,0 -3.96842,0.12195 -6.28562,1.47459c-2.44627,1.42804 -5.31561,-0.1648 -7.94145,-1.41213c0,0 -5.65497,0.33711 -5.98259,1.98827c-1.07784,5.43209 1.72561,17.21906 -3.71957,16.23682c0,0 -2.31563,0.36846 -3.30497,0.09864c-0.80628,-0.21989 -2.69504,-1.09865 -2.69504,-1.09865z" fill="#aa96c7" stroke="#000000" stroke-width="2.5" stroke-linecap="butt"/><path d="M174.15074,235.01625c0,0 -4.33148,3.26725 -10.59026,3.88481c-1.79501,0.17713 -7.09209,-1.17346 -7.09209,-1.17346c0,0 1.92658,-0.22232 -3.34519,0.17824c-0.43463,0.03302 -1.71741,0.32495 -1.96707,2.45033c-0.45691,3.88971 -0.05286,11.73361 -1.01556,13.85897c-1.47227,3.25036 -8.16995,-0.38313 -9.29422,-1.74826c-2.27396,-2.76115 -4.37981,-12.0265 -5.3048,-19.04573c-0.62437,-4.73803 -0.43852,-8.45266 -0.43852,-8.45266c0,0 7.58563,7.03925 9.24683,5.2613c1.75912,-1.88276 2.83367,-3.66922 4.4703,-7.43588c0.84024,-1.93375 3.34771,-7.2716 3.34771,-7.2716c0,0 0.78491,2.49198 1.32464,5.65969c0.55153,3.23713 0.5662,7.05135 2.69143,9.4976c1.40667,1.61918 4.6104,0.88156 6.62737,1.22763c2.91435,0.50005 8.48617,-18.78775 8.48617,-18.78775c0,0 -0.31438,10.13821 1.07153,16.06965c0.44361,1.89853 1.79525,2.35102 2.43213,3.22309c2.24715,3.07697 16.19996,-6.33995 16.19996,-6.33995c0,0 3.06163,1.72733 2.56385,5.09751c-0.25176,1.70451 1.76279,2.9731 0.29054,4.37647c-1.54914,1.47667 -6.58364,3.04897 -6.65086,3.21677c0,0 -1.4226,0.51992 -2.69906,0.15355c-2.36282,-0.67819 -10.35484,-3.90034 -10.35484,-3.90034z" fill="#a7649a" stroke="none" stroke-width="0" stroke-linecap="butt"/><path d="M172.50021,236.9668c-0.5413,-0.25714 -2.73086,-3.64066 -2.90117,-8.13152c-0.12275,-3.23742 1.03246,-6.62345 1.6909,-10.49739c0.56498,-3.32409 -0.86818,-7.74841 -0.86818,-7.74841c0,0 2.46556,1.47043 2.4984,5.38835c0.03284,3.91806 -0.85871,10.61434 -0.21563,13.62113c0.98155,4.58936 3.23512,7.18868 2.97475,7.73683c0,0 -1.9127,0.2326 -3.17907,-0.36896z" fill="#000000" stroke="none" stroke-width="0" stroke-linecap="butt"/><path d="M156.1042,239.97412c0.22929,-0.48262 -2.80966,-5.9263 -3.70992,-9.50509c-0.63328,-2.5174 -0.20109,-6.06105 0.433,-9.10459c0.71138,-3.41467 -1.71661,-7.28565 -1.71661,-7.28565c0,0 4.12333,3.81469 3.1172,11.35882c-0.2883,2.1617 0.62588,4.42425 1.34506,6.22121c1.13964,2.84756 3.28044,6.00374 3.07613,6.43382c-0.57148,1.20305 -0.4443,0.22862 -1.33074,-0.19248c0,0 -1.78561,3.27702 -1.21412,2.07394z" fill="#000000" stroke="none" stroke-width="0" stroke-linecap="butt"/><g><g data-paper-data="{&quot;index&quot;:null}"><path d="M236.44725,210.32303c6.33232,11.89392 1.70724,26.7312 -10.33042,33.14007c-12.03766,6.40886 -26.92947,1.96236 -33.26177,-9.93157c-2.91395,-5.47324 -0.71809,-7.09906 0.66317,-12.71073c1.62036,-6.58307 3.16899,-16.96964 9.66724,-20.42933c0,0 9.06297,-2.78808 17.85038,-1.0666c6.46707,1.26692 12.72682,5.95582 15.41139,10.99819z" fill="#303f97" stroke="#000000" stroke-width="3" stroke-linecap="butt"/><path d="M220.98463,205.93849c0.1104,1.56297 -0.78878,2.89663 -2.00841,2.97878c-1.21964,0.08213 -2.29782,-1.11829 -2.40821,-2.68124c-0.1104,-1.56297 0.78876,-2.89664 2.00839,-2.97878c1.21964,-0.08214 2.29783,1.11828 2.40822,2.68125z" fill="#303f97" stroke="none" stroke-width="0" stroke-linecap="butt"/><path d="M227.50387,209.04557c1.47405,0.08291 2.58483,1.76287 2.48098,3.7523c-0.10384,1.98942 -1.38299,3.53494 -2.85704,3.45205c-1.47406,-0.08292 -2.58486,-1.76285 -2.48101,-3.75228c0.10384,-1.98942 1.383,-3.53497 2.85705,-3.45207z" fill="#303f97" stroke="none" stroke-width="0" stroke-linecap="butt"/><path d="M194.17428,236.06655c0,0 -1.37416,-12.43543 1.17075,-20.3322c1.08797,-3.37592 5.17603,7.20699 11.99741,15.12799c7.15619,8.30977 17.89246,12.22286 17.89246,12.22286c0,0 -7.68023,3.748 -10.93302,3.69411c-3.30823,-0.0548 -9.18214,-3.09993 -9.18214,-3.09993z" fill="#232362" stroke="none" stroke-width="0" stroke-linecap="butt"/><path d="M197.4388,209.90914c0,0 8.34631,-5.50502 16.27508,-5.28162c3.37851,-0.50769 20.90695,7.01139 20.90695,7.01139" fill="none" stroke="#000000" stroke-width="2" stroke-linecap="round"/><path d="M194.83847,219.06988c0,0 7.45466,-6.21207 22.61728,-4.4948c9.42442,1.85813 20.9327,11.04446 20.9327,11.04446" fill="none" stroke="#000000" stroke-width="2" stroke-linecap="round"/><path d="M193.80595,226.9296c0,0 10.22648,-3.99318 15.80878,-3.25454c7.00938,0.92744 24.32959,9.02686 24.32959,9.02686" fill="none" stroke="#000000" stroke-width="2" stroke-linecap="round"/><path d="M195.34465,233.10055c0,0 10.36739,-2.54859 15.58273,-1.36041c5.66048,1.2896 17.15413,8.81862 17.15413,8.81862" fill="none" stroke="#000000" stroke-width="2" stroke-linecap="round"/><path d="M207.7896,244.61273c0,0 -0.83818,-15.76684 1.25545,-23.17842c2.24357,-7.94242 11.78724,-22.99384 11.78724,-22.99384" fill="none" stroke="#000000" stroke-width="2" stroke-linecap="round"/><path d="M217.94733,246.1458c0,0 -3.35015,-11.17539 -0.59346,-23.10345c2.90916,-10.54029 12.69998,-19.17849 12.69998,-19.17849" fill="none" stroke="#000000" stroke-width="2" stroke-linecap="round"/><path d="M224.89894,243.23382c0,0 -4.07418,0.38031 1.8328,-17.23074c2.24056,-7.94873 8.29062,-13.85386 8.29062,-13.85386" fill="none" stroke="#000000" stroke-width="2" stroke-linecap="round"/><path d="M193.77938,202.42757c0.76106,-0.40517 8.17422,-6.05834 8.6889,-1.23458c0.19729,1.84911 -8.42044,9.24297 -9.64203,16.92458c-1.674,10.5263 0.85942,18.2868 0.15473,19.24624c-1.38191,1.88149 -6.58469,-6.06699 -6.85202,-5.92468c-0.50821,0.27056 -2.9499,-6.14627 -1.70011,-14.14701c1.17327,-7.51079 8.8734,-14.61052 9.35048,-14.86451z" fill="#32419c" stroke="#000000" stroke-width="3" stroke-linecap="butt"/><path d="M192.62551,209.46725c0.87353,0.33508 1.21126,1.57237 0.75433,2.76358c-0.45693,1.1912 -1.5355,1.88523 -2.40905,1.55013c-0.87353,-0.33508 -1.21126,-1.57238 -0.75433,-2.76358c0.45691,-1.1912 1.53549,-1.88522 2.40904,-1.55013z" fill="#6584cf" stroke="none" stroke-width="0" stroke-linecap="butt"/><path d="M197.17623,203.30001c0.69783,0.80278 0.45477,2.31479 -0.12438,3.76442c-0.57919,1.44959 -1.27517,2.28785 -1.97296,1.48505c-0.6978,-0.80278 -0.79398,-2.62874 -0.21482,-4.07832c0.57916,-1.44959 1.61437,-1.97392 2.31215,-1.17113z" fill="#6584cf" stroke="none" stroke-width="0" stroke-linecap="butt"/></g><path d="M200.50155,241.16797c0,0 -2.59935,-16.41636 -1.26926,-21.48264c1.33008,-5.06629 12.60694,-20.72737 12.60694,-20.72737" fill="none" stroke="#000000" stroke-width="2" stroke-linecap="round"/></g></g></g></g></svg>